<?xml version="1.0" encoding="UTF-8" standalone="no"?>
<!DOCTYPE svg PUBLIC "-//W3C//DTD SVG 1.1//EN"
 "http://www.w3.org/Graphics/SVG/1.1/DTD/svg11.dtd">
<!-- Generated by graphviz version 2.40.1 (20161225.0304)
 -->
<!-- Title: public.event_series Pages: 1 -->
<svg width="674pt" height="644pt"
 viewBox="0.00 0.00 674.00 644.00" xmlns="http://www.w3.org/2000/svg" xmlns:xlink="http://www.w3.org/1999/xlink">
<g id="graph0" class="graph" transform="scale(1 1) rotate(0) translate(4 640)">
<title>public.event_series</title>
<polygon fill="#ffffff" stroke="transparent" points="-4,4 -4,-640 670,-640 670,4 -4,4"/>
<!-- public.event_series -->
<g id="node1" class="node">
<title>public.event_series</title>
<polygon fill="#efefef" stroke="transparent" points="46,-196 46,-242 360,-242 360,-196 46,-196"/>
<polygon fill="none" stroke="#000000" points="46,-196 46,-242 360,-242 360,-196 46,-196"/>
<text text-anchor="start" x="77.3556" y="-219.8" font-family="Arial Bold" font-size="18.00" fill="#000000">public.event_series</text>
<text text-anchor="start" x="231.3906" y="-219.8" font-family="Arial" font-size="14.00" fill="#000000"> </text>
<text text-anchor="start" x="235.2812" y="-219.8" font-family="Arial" font-size="14.00" fill="#666666">[BASE TABLE]</text>
<text text-anchor="start" x="143.6631" y="-205.4" font-family="Arial" font-size="14.00" fill="#333333">イベントシリーズ</text>
<polygon fill="none" stroke="#000000" points="46,-166 46,-196 360,-196 360,-166 46,-166"/>
<text text-anchor="start" x="53" y="-177.4" font-family="Arial" font-size="14.00" fill="#000000">id </text>
<text text-anchor="start" x="67.7798" y="-177.4" font-family="Arial" font-size="14.00" fill="#666666">[text]</text>
<polygon fill="none" stroke="#000000" points="46,-136 46,-166 360,-166 360,-136 46,-136"/>
<text text-anchor="start" x="53" y="-147.4" font-family="Arial" font-size="14.00" fill="#000000">name </text>
<text text-anchor="start" x="91.899" y="-147.4" font-family="Arial" font-size="14.00" fill="#666666">[text]</text>
<text text-anchor="start" x="122.244" y="-147.4" font-family="Arial" font-size="14.00" fill="#000000"> 名前</text>
<polygon fill="none" stroke="#000000" points="46,-106 46,-136 360,-136 360,-106 46,-106"/>
<text text-anchor="start" x="53" y="-117.4" font-family="Arial" font-size="14.00" fill="#000000">display_name </text>
<text text-anchor="start" x="143.2426" y="-117.4" font-family="Arial" font-size="14.00" fill="#666666">[text]</text>
<text text-anchor="start" x="173.5876" y="-117.4" font-family="Arial" font-size="14.00" fill="#000000"> 表示名</text>
<polygon fill="none" stroke="#000000" points="46,-76 46,-106 360,-106 360,-76 46,-76"/>
<text text-anchor="start" x="52.8542" y="-87.4" font-family="Arial" font-size="14.00" fill="#000000">created_at </text>
<text text-anchor="start" x="122.8822" y="-87.4" font-family="Arial" font-size="14.00" fill="#666666">[timestamp with time zone]</text>
<text text-anchor="start" x="288.5666" y="-87.4" font-family="Arial" font-size="14.00" fill="#000000"> 作成日時</text>
<polygon fill="none" stroke="#000000" points="46,-46 46,-76 360,-76 360,-46 46,-46"/>
<text text-anchor="start" x="53" y="-57.4" font-family="Arial" font-size="14.00" fill="#000000">updated_at </text>
<text text-anchor="start" x="126.9326" y="-57.4" font-family="Arial" font-size="14.00" fill="#666666">[timestamp with time zone]</text>
<text text-anchor="start" x="292.617" y="-57.4" font-family="Arial" font-size="14.00" fill="#000000"> 更新日時</text>
<polygon fill="none" stroke="#000000" stroke-width="3" points="44.5,-44.5 44.5,-243.5 361.5,-243.5 361.5,-44.5 44.5,-44.5"/>
</g>
<!-- public.events -->
<g id="node2" class="node">
<title>public.events</title>
<polygon fill="#efefef" stroke="transparent" points="46,-547 46,-593 360,-593 360,-547 46,-547"/>
<polygon fill="none" stroke="#000000" points="46,-547 46,-593 360,-593 360,-547 46,-547"/>
<text text-anchor="start" x="101.8581" y="-570.8" font-family="Arial Bold" font-size="18.00" fill="#000000">public.events</text>
<text text-anchor="start" x="206.8881" y="-570.8" font-family="Arial" font-size="14.00" fill="#000000"> </text>
<text text-anchor="start" x="210.7787" y="-570.8" font-family="Arial" font-size="14.00" fill="#666666">[BASE TABLE]</text>
<text text-anchor="start" x="175.9114" y="-556.4" font-family="Arial" font-size="14.00" fill="#333333">イベント</text>
<polygon fill="none" stroke="#000000" points="46,-517 46,-547 360,-547 360,-517 46,-517"/>
<text text-anchor="start" x="53" y="-528.4" font-family="Arial" font-size="14.00" fill="#000000">id </text>
<text text-anchor="start" x="67.7798" y="-528.4" font-family="Arial" font-size="14.00" fill="#666666">[text]</text>
<polygon fill="none" stroke="#000000" points="46,-487 46,-517 360,-517 360,-487 46,-487"/>
<text text-anchor="start" x="53" y="-498.4" font-family="Arial" font-size="14.00" fill="#000000">event_series_id </text>
<text text-anchor="start" x="154.9158" y="-498.4" font-family="Arial" font-size="14.00" fill="#666666">[text]</text>
<text text-anchor="start" x="185.2608" y="-498.4" font-family="Arial" font-size="14.00" fill="#000000"> イベントシリーズID</text>
<polygon fill="none" stroke="#000000" points="46,-457 46,-487 360,-487 360,-457 46,-457"/>
<text text-anchor="start" x="53" y="-468.4" font-family="Arial" font-size="14.00" fill="#000000">name </text>
<text text-anchor="start" x="91.899" y="-468.4" font-family="Arial" font-size="14.00" fill="#666666">[text]</text>
<text text-anchor="start" x="122.244" y="-468.4" font-family="Arial" font-size="14.00" fill="#000000"> 名前</text>
<polygon fill="none" stroke="#000000" points="46,-427 46,-457 360,-457 360,-427 46,-427"/>
<text text-anchor="start" x="53" y="-438.4" font-family="Arial" font-size="14.00" fill="#000000">display_name </text>
<text text-anchor="start" x="143.2426" y="-438.4" font-family="Arial" font-size="14.00" fill="#666666">[text]</text>
<text text-anchor="start" x="173.5876" y="-438.4" font-family="Arial" font-size="14.00" fill="#000000"> 表示名</text>
<polygon fill="none" stroke="#000000" points="46,-397 46,-427 360,-427 360,-397 46,-397"/>
<text text-anchor="start" x="52.8542" y="-408.4" font-family="Arial" font-size="14.00" fill="#000000">created_at </text>
<text text-anchor="start" x="122.8822" y="-408.4" font-family="Arial" font-size="14.00" fill="#666666">[timestamp with time zone]</text>
<text text-anchor="start" x="288.5666" y="-408.4" font-family="Arial" font-size="14.00" fill="#000000"> 作成日時</text>
<polygon fill="none" stroke="#000000" points="46,-367 46,-397 360,-397 360,-367 46,-367"/>
<text text-anchor="start" x="53" y="-378.4" font-family="Arial" font-size="14.00" fill="#000000">updated_at </text>
<text text-anchor="start" x="126.9326" y="-378.4" font-family="Arial" font-size="14.00" fill="#666666">[timestamp with time zone]</text>
<text text-anchor="start" x="292.617" y="-378.4" font-family="Arial" font-size="14.00" fill="#000000"> 更新日時</text>
</g>
<!-- public.events&#45;&gt;public.event_series -->
<g id="edge1" class="edge">
<title>public.events:event_series_id&#45;&gt;public.event_series:id</title>
<path fill="none" stroke="#000000" d="M369.939,-499.7788C431.1633,-471.4177 427.8503,-181 360,-181"/>
<polygon fill="#000000" stroke="#000000" points="369.7593,-499.8189 359.0185,-497.6083 364.8796,-500.9094 360,-502 360,-502 360,-502 364.8796,-500.9094 360.9815,-506.3917 369.7593,-499.8189 369.7593,-499.8189"/>
<text text-anchor="start" x="366.6005" y="-512" font-family="Arial" font-size="10.00" fill="#000000">FOREIGN KEY (event_series_id) REFERENCES event_series(id)</text>
</g>
</g>
</svg>
