<?xml version="1.0" encoding="UTF-8" standalone="no"?>
<!DOCTYPE svg PUBLIC "-//W3C//DTD SVG 1.1//EN"
 "http://www.w3.org/Graphics/SVG/1.1/DTD/svg11.dtd">
<!-- Generated by graphviz version 2.40.1 (20161225.0304)
 -->
<!-- Title: public.events Pages: 1 -->
<svg width="1868pt" height="1142pt"
 viewBox="0.00 0.00 1868.00 1142.00" xmlns="http://www.w3.org/2000/svg" xmlns:xlink="http://www.w3.org/1999/xlink">
<g id="graph0" class="graph" transform="scale(1 1) rotate(0) translate(4 1138)">
<title>public.events</title>
<polygon fill="#ffffff" stroke="transparent" points="-4,4 -4,-1138 1864,-1138 1864,4 -4,4"/>
<!-- public.events -->
<g id="node1" class="node">
<title>public.events</title>
<polygon fill="#efefef" stroke="transparent" points="1033,-544 1033,-590 1347,-590 1347,-544 1033,-544"/>
<polygon fill="none" stroke="#000000" points="1033,-544 1033,-590 1347,-590 1347,-544 1033,-544"/>
<text text-anchor="start" x="1088.8581" y="-567.8" font-family="Arial Bold" font-size="18.00" fill="#000000">public.events</text>
<text text-anchor="start" x="1193.8881" y="-567.8" font-family="Arial" font-size="14.00" fill="#000000"> </text>
<text text-anchor="start" x="1197.7787" y="-567.8" font-family="Arial" font-size="14.00" fill="#666666">[BASE TABLE]</text>
<text text-anchor="start" x="1162.9114" y="-553.4" font-family="Arial" font-size="14.00" fill="#333333">イベント</text>
<polygon fill="none" stroke="#000000" points="1033,-514 1033,-544 1347,-544 1347,-514 1033,-514"/>
<text text-anchor="start" x="1040" y="-525.4" font-family="Arial" font-size="14.00" fill="#000000">id </text>
<text text-anchor="start" x="1054.7798" y="-525.4" font-family="Arial" font-size="14.00" fill="#666666">[text]</text>
<polygon fill="none" stroke="#000000" points="1033,-484 1033,-514 1347,-514 1347,-484 1033,-484"/>
<text text-anchor="start" x="1040" y="-495.4" font-family="Arial" font-size="14.00" fill="#000000">event_series_id </text>
<text text-anchor="start" x="1141.9158" y="-495.4" font-family="Arial" font-size="14.00" fill="#666666">[text]</text>
<text text-anchor="start" x="1172.2608" y="-495.4" font-family="Arial" font-size="14.00" fill="#000000"> イベントシリーズID</text>
<polygon fill="none" stroke="#000000" points="1033,-454 1033,-484 1347,-484 1347,-454 1033,-454"/>
<text text-anchor="start" x="1040" y="-465.4" font-family="Arial" font-size="14.00" fill="#000000">name </text>
<text text-anchor="start" x="1078.899" y="-465.4" font-family="Arial" font-size="14.00" fill="#666666">[text]</text>
<text text-anchor="start" x="1109.244" y="-465.4" font-family="Arial" font-size="14.00" fill="#000000"> 名前</text>
<polygon fill="none" stroke="#000000" points="1033,-424 1033,-454 1347,-454 1347,-424 1033,-424"/>
<text text-anchor="start" x="1040" y="-435.4" font-family="Arial" font-size="14.00" fill="#000000">display_name </text>
<text text-anchor="start" x="1130.2426" y="-435.4" font-family="Arial" font-size="14.00" fill="#666666">[text]</text>
<text text-anchor="start" x="1160.5876" y="-435.4" font-family="Arial" font-size="14.00" fill="#000000"> 表示名</text>
<polygon fill="none" stroke="#000000" points="1033,-394 1033,-424 1347,-424 1347,-394 1033,-394"/>
<text text-anchor="start" x="1039.8542" y="-405.4" font-family="Arial" font-size="14.00" fill="#000000">created_at </text>
<text text-anchor="start" x="1109.8822" y="-405.4" font-family="Arial" font-size="14.00" fill="#666666">[timestamp with time zone]</text>
<text text-anchor="start" x="1275.5666" y="-405.4" font-family="Arial" font-size="14.00" fill="#000000"> 作成日時</text>
<polygon fill="none" stroke="#000000" points="1033,-364 1033,-394 1347,-394 1347,-364 1033,-364"/>
<text text-anchor="start" x="1040" y="-375.4" font-family="Arial" font-size="14.00" fill="#000000">updated_at </text>
<text text-anchor="start" x="1113.9326" y="-375.4" font-family="Arial" font-size="14.00" fill="#666666">[timestamp with time zone]</text>
<text text-anchor="start" x="1279.617" y="-375.4" font-family="Arial" font-size="14.00" fill="#000000"> 更新日時</text>
<polygon fill="none" stroke="#000000" stroke-width="3" points="1031.5,-362.5 1031.5,-591.5 1348.5,-591.5 1348.5,-362.5 1031.5,-362.5"/>
</g>
<!-- public.event_series -->
<g id="node4" class="node">
<title>public.event_series</title>
<polygon fill="#efefef" stroke="transparent" points="1033,-193 1033,-239 1347,-239 1347,-193 1033,-193"/>
<polygon fill="none" stroke="#000000" points="1033,-193 1033,-239 1347,-239 1347,-193 1033,-193"/>
<text text-anchor="start" x="1064.3556" y="-216.8" font-family="Arial Bold" font-size="18.00" fill="#000000">public.event_series</text>
<text text-anchor="start" x="1218.3906" y="-216.8" font-family="Arial" font-size="14.00" fill="#000000"> </text>
<text text-anchor="start" x="1222.2812" y="-216.8" font-family="Arial" font-size="14.00" fill="#666666">[BASE TABLE]</text>
<text text-anchor="start" x="1130.6631" y="-202.4" font-family="Arial" font-size="14.00" fill="#333333">イベントシリーズ</text>
<polygon fill="none" stroke="#000000" points="1033,-163 1033,-193 1347,-193 1347,-163 1033,-163"/>
<text text-anchor="start" x="1040" y="-174.4" font-family="Arial" font-size="14.00" fill="#000000">id </text>
<text text-anchor="start" x="1054.7798" y="-174.4" font-family="Arial" font-size="14.00" fill="#666666">[text]</text>
<polygon fill="none" stroke="#000000" points="1033,-133 1033,-163 1347,-163 1347,-133 1033,-133"/>
<text text-anchor="start" x="1040" y="-144.4" font-family="Arial" font-size="14.00" fill="#000000">name </text>
<text text-anchor="start" x="1078.899" y="-144.4" font-family="Arial" font-size="14.00" fill="#666666">[text]</text>
<text text-anchor="start" x="1109.244" y="-144.4" font-family="Arial" font-size="14.00" fill="#000000"> 名前</text>
<polygon fill="none" stroke="#000000" points="1033,-103 1033,-133 1347,-133 1347,-103 1033,-103"/>
<text text-anchor="start" x="1040" y="-114.4" font-family="Arial" font-size="14.00" fill="#000000">display_name </text>
<text text-anchor="start" x="1130.2426" y="-114.4" font-family="Arial" font-size="14.00" fill="#666666">[text]</text>
<text text-anchor="start" x="1160.5876" y="-114.4" font-family="Arial" font-size="14.00" fill="#000000"> 表示名</text>
<polygon fill="none" stroke="#000000" points="1033,-73 1033,-103 1347,-103 1347,-73 1033,-73"/>
<text text-anchor="start" x="1039.8542" y="-84.4" font-family="Arial" font-size="14.00" fill="#000000">created_at </text>
<text text-anchor="start" x="1109.8822" y="-84.4" font-family="Arial" font-size="14.00" fill="#666666">[timestamp with time zone]</text>
<text text-anchor="start" x="1275.5666" y="-84.4" font-family="Arial" font-size="14.00" fill="#000000"> 作成日時</text>
<polygon fill="none" stroke="#000000" points="1033,-43 1033,-73 1347,-73 1347,-43 1033,-43"/>
<text text-anchor="start" x="1040" y="-54.4" font-family="Arial" font-size="14.00" fill="#000000">updated_at </text>
<text text-anchor="start" x="1113.9326" y="-54.4" font-family="Arial" font-size="14.00" fill="#666666">[timestamp with time zone]</text>
<text text-anchor="start" x="1279.617" y="-54.4" font-family="Arial" font-size="14.00" fill="#000000"> 更新日時</text>
</g>
<!-- public.events&#45;&gt;public.event_series -->
<g id="edge3" class="edge">
<title>public.events:event_series_id&#45;&gt;public.event_series:id</title>
<path fill="none" stroke="#000000" d="M1357.1941,-498.4353C1489.5816,-483.5175 1486.1836,-178 1347,-178"/>
<polygon fill="#000000" stroke="#000000" points="1356.9847,-498.4469 1346.7511,-494.5069 1351.9923,-498.7234 1347,-499 1347,-499 1347,-499 1351.9923,-498.7234 1347.2489,-503.4931 1356.9847,-498.4469 1356.9847,-498.4469"/>
<text text-anchor="start" x="1353.6005" y="-509" font-family="Arial" font-size="10.00" fill="#000000">FOREIGN KEY (event_series_id) REFERENCES event_series(id)</text>
</g>
<!-- public.event_details -->
<g id="node2" class="node">
<title>public.event_details</title>
<polygon fill="#efefef" stroke="transparent" points="43,-1045 43,-1091 1399,-1091 1399,-1045 43,-1045"/>
<polygon fill="none" stroke="#000000" points="43,-1045 43,-1091 1399,-1091 1399,-1045 43,-1045"/>
<text text-anchor="start" x="593.3504" y="-1068.8" font-family="Arial Bold" font-size="18.00" fill="#000000">public.event_details</text>
<text text-anchor="start" x="751.3958" y="-1068.8" font-family="Arial" font-size="14.00" fill="#000000"> </text>
<text text-anchor="start" x="755.2864" y="-1068.8" font-family="Arial" font-size="14.00" fill="#666666">[BASE TABLE]</text>
<text text-anchor="start" x="678.9566" y="-1054.4" font-family="Arial" font-size="14.00" fill="#333333">イベント詳細</text>
<polygon fill="none" stroke="#000000" points="43,-1015 43,-1045 1399,-1045 1399,-1015 43,-1015"/>
<text text-anchor="start" x="50" y="-1026.4" font-family="Arial" font-size="14.00" fill="#000000">event_id </text>
<text text-anchor="start" x="106.8008" y="-1026.4" font-family="Arial" font-size="14.00" fill="#666666">[text]</text>
<text text-anchor="start" x="137.1458" y="-1026.4" font-family="Arial" font-size="14.00" fill="#000000"> イベントID</text>
<polygon fill="none" stroke="#000000" points="43,-985 43,-1015 1399,-1015 1399,-985 43,-985"/>
<text text-anchor="start" x="50" y="-996.4" font-family="Arial" font-size="14.00" fill="#000000">event_dates </text>
<text text-anchor="start" x="130.15" y="-996.4" font-family="Arial" font-size="14.00" fill="#666666">[daterange]</text>
<text text-anchor="start" x="200.9606" y="-996.4" font-family="Arial" font-size="14.00" fill="#000000"> イベント開催期間</text>
<polygon fill="none" stroke="#000000" points="43,-955 43,-985 1399,-985 1399,-955 43,-955"/>
<text text-anchor="start" x="49.6104" y="-966.4" font-family="Arial" font-size="14.00" fill="#000000">event_status </text>
<text text-anchor="start" x="132.8684" y="-966.4" font-family="Arial" font-size="14.00" fill="#666666">[event_status]</text>
<text text-anchor="start" x="220.017" y="-966.4" font-family="Arial" font-size="14.00" fill="#000000"> ステータス/scheduled: 開催済み, cancelled: 中止, postpone: 延期(開催日未定), rescheduled: 延期(開催日決定), moved_online: オンライン開催に変更, other: その他/default: scheduled</text>
<polygon fill="none" stroke="#000000" points="43,-925 43,-955 1399,-955 1399,-925 43,-925"/>
<text text-anchor="start" x="50" y="-936.4" font-family="Arial" font-size="14.00" fill="#000000">format </text>
<text text-anchor="start" x="93.5582" y="-936.4" font-family="Arial" font-size="14.00" fill="#666666">[event_format]</text>
<text text-anchor="start" x="183.028" y="-936.4" font-family="Arial" font-size="14.00" fill="#000000"> 形式/offline: オフライン開催, online: オフライン開催, mixed: 両方開催/default: offline</text>
<polygon fill="none" stroke="#000000" points="43,-895 43,-925 1399,-925 1399,-895 43,-895"/>
<text text-anchor="start" x="50" y="-906.4" font-family="Arial" font-size="14.00" fill="#000000">region_code </text>
<text text-anchor="start" x="130.9186" y="-906.4" font-family="Arial" font-size="14.00" fill="#666666">[text]</text>
<text text-anchor="start" x="161.2636" y="-906.4" font-family="Arial" font-size="14.00" fill="#000000"> リージョンコード/default: JP</text>
<polygon fill="none" stroke="#000000" points="43,-865 43,-895 1399,-895 1399,-865 43,-865"/>
<text text-anchor="start" x="50" y="-876.4" font-family="Arial" font-size="14.00" fill="#000000">address </text>
<text text-anchor="start" x="103.6816" y="-876.4" font-family="Arial" font-size="14.00" fill="#666666">[text]</text>
<text text-anchor="start" x="134.0266" y="-876.4" font-family="Arial" font-size="14.00" fill="#000000"> 開催場所</text>
<polygon fill="none" stroke="#000000" points="43,-835 43,-865 1399,-865 1399,-835 43,-835"/>
<text text-anchor="start" x="50" y="-846.4" font-family="Arial" font-size="14.00" fill="#000000">description </text>
<text text-anchor="start" x="121.568" y="-846.4" font-family="Arial" font-size="14.00" fill="#666666">[text]</text>
<text text-anchor="start" x="151.913" y="-846.4" font-family="Arial" font-size="14.00" fill="#000000"> 説明</text>
<polygon fill="none" stroke="#000000" points="43,-805 43,-835 1399,-835 1399,-805 43,-805"/>
<text text-anchor="start" x="50" y="-816.4" font-family="Arial" font-size="14.00" fill="#000000">url </text>
<text text-anchor="start" x="69.4404" y="-816.4" font-family="Arial" font-size="14.00" fill="#666666">[text]</text>
<text text-anchor="start" x="99.7854" y="-816.4" font-family="Arial" font-size="14.00" fill="#000000"> URL</text>
<polygon fill="none" stroke="#000000" points="43,-775 43,-805 1399,-805 1399,-775 43,-775"/>
<text text-anchor="start" x="50" y="-786.4" font-family="Arial" font-size="14.00" fill="#000000">twitter_url </text>
<text text-anchor="start" x="114.5512" y="-786.4" font-family="Arial" font-size="14.00" fill="#666666">[text]</text>
<text text-anchor="start" x="144.8962" y="-786.4" font-family="Arial" font-size="14.00" fill="#000000"> Twitter URL</text>
<polygon fill="none" stroke="#000000" points="43,-745 43,-775 1399,-775 1399,-745 43,-745"/>
<text text-anchor="start" x="50" y="-756.4" font-family="Arial" font-size="14.00" fill="#000000">created_at </text>
<text text-anchor="start" x="120.028" y="-756.4" font-family="Arial" font-size="14.00" fill="#666666">[timestamp with time zone]</text>
<text text-anchor="start" x="285.7124" y="-756.4" font-family="Arial" font-size="14.00" fill="#000000"> 作成日時</text>
<polygon fill="none" stroke="#000000" points="43,-715 43,-745 1399,-745 1399,-715 43,-715"/>
<text text-anchor="start" x="50" y="-726.4" font-family="Arial" font-size="14.00" fill="#000000">updated_at </text>
<text text-anchor="start" x="123.9326" y="-726.4" font-family="Arial" font-size="14.00" fill="#666666">[timestamp with time zone]</text>
<text text-anchor="start" x="289.617" y="-726.4" font-family="Arial" font-size="14.00" fill="#000000"> 更新日時</text>
</g>
<!-- public.event_details&#45;&gt;public.events -->
<g id="edge1" class="edge">
<title>public.event_details:event_id&#45;&gt;public.events:id</title>
<path fill="none" stroke="#000000" d="M1409.0887,-1028.2384C1476.1532,-1003.6162 1450.0299,-728.2955 1399,-672 1344.1124,-611.4487 1087.8876,-696.5513 1033,-636 1001.0614,-600.7657 985.4444,-529 1033,-529"/>
<polygon fill="#000000" stroke="#000000" points="1408.851,-1028.2798 1398.2259,-1025.5671 1403.9255,-1029.1399 1399,-1030 1399,-1030 1399,-1030 1403.9255,-1029.1399 1399.7741,-1034.4329 1408.851,-1028.2798 1408.851,-1028.2798"/>
<text text-anchor="start" x="1406.3255" y="-1040" font-family="Arial" font-size="10.00" fill="#000000">FOREIGN KEY (event_id) REFERENCES events(id)</text>
</g>
<!-- public.sub_events -->
<g id="node3" class="node">
<title>public.sub_events</title>
<polygon fill="#efefef" stroke="transparent" points="1503,-955 1503,-1001 1817,-1001 1817,-955 1503,-955"/>
<polygon fill="none" stroke="#000000" points="1503,-955 1503,-1001 1817,-1001 1817,-955 1503,-955"/>
<text text-anchor="start" x="1539.3488" y="-978.8" font-family="Arial Bold" font-size="18.00" fill="#000000">public.sub_events</text>
<text text-anchor="start" x="1683.3974" y="-978.8" font-family="Arial" font-size="14.00" fill="#000000"> </text>
<text text-anchor="start" x="1687.288" y="-978.8" font-family="Arial" font-size="14.00" fill="#666666">[BASE TABLE]</text>
<text text-anchor="start" x="1619.9516" y="-964.4" font-family="Arial" font-size="14.00" fill="#333333">サブイベント</text>
<polygon fill="none" stroke="#000000" points="1503,-925 1503,-955 1817,-955 1817,-925 1503,-925"/>
<text text-anchor="start" x="1510" y="-936.4" font-family="Arial" font-size="14.00" fill="#000000">id </text>
<text text-anchor="start" x="1524.7798" y="-936.4" font-family="Arial" font-size="14.00" fill="#666666">[text]</text>
<polygon fill="none" stroke="#000000" points="1503,-895 1503,-925 1817,-925 1817,-895 1503,-895"/>
<text text-anchor="start" x="1510" y="-906.4" font-family="Arial" font-size="14.00" fill="#000000">event_id </text>
<text text-anchor="start" x="1566.8008" y="-906.4" font-family="Arial" font-size="14.00" fill="#666666">[text]</text>
<text text-anchor="start" x="1597.1458" y="-906.4" font-family="Arial" font-size="14.00" fill="#000000"> イベントID</text>
<polygon fill="none" stroke="#000000" points="1503,-865 1503,-895 1817,-895 1817,-865 1503,-865"/>
<text text-anchor="start" x="1510" y="-876.4" font-family="Arial" font-size="14.00" fill="#000000">name </text>
<text text-anchor="start" x="1548.899" y="-876.4" font-family="Arial" font-size="14.00" fill="#666666">[text]</text>
<text text-anchor="start" x="1579.244" y="-876.4" font-family="Arial" font-size="14.00" fill="#000000"> 名前(例: 〇〇 2日目)</text>
<polygon fill="none" stroke="#000000" points="1503,-835 1503,-865 1817,-865 1817,-835 1503,-835"/>
<text text-anchor="start" x="1509.8542" y="-846.4" font-family="Arial" font-size="14.00" fill="#000000">created_at </text>
<text text-anchor="start" x="1579.8822" y="-846.4" font-family="Arial" font-size="14.00" fill="#666666">[timestamp with time zone]</text>
<text text-anchor="start" x="1745.5666" y="-846.4" font-family="Arial" font-size="14.00" fill="#000000"> 作成日時</text>
<polygon fill="none" stroke="#000000" points="1503,-805 1503,-835 1817,-835 1817,-805 1503,-805"/>
<text text-anchor="start" x="1510" y="-816.4" font-family="Arial" font-size="14.00" fill="#000000">updated_at </text>
<text text-anchor="start" x="1583.9326" y="-816.4" font-family="Arial" font-size="14.00" fill="#666666">[timestamp with time zone]</text>
<text text-anchor="start" x="1749.617" y="-816.4" font-family="Arial" font-size="14.00" fill="#000000"> 更新日時</text>
</g>
<!-- public.sub_events&#45;&gt;public.events -->
<g id="edge2" class="edge">
<title>public.sub_events:event_id&#45;&gt;public.events:id</title>
<path fill="none" stroke="#000000" d="M1493.2162,-907.6008C1451.8869,-885.564 1471.6989,-718.1086 1451,-672 1418.8156,-600.3064 1425.5863,-529 1347,-529"/>
<polygon fill="#000000" stroke="#000000" points="1493.2878,-907.6183 1501.9282,-914.3705 1498.1439,-908.8091 1503,-910 1503,-910 1503,-910 1498.1439,-908.8091 1504.0718,-905.6295 1493.2878,-907.6183 1493.2878,-907.6183"/>
<text text-anchor="start" x="1510.3255" y="-920" font-family="Arial" font-size="10.00" fill="#000000">FOREIGN KEY (event_id) REFERENCES events(id)</text>
</g>
</g>
</svg>
