<?xml version="1.0" encoding="UTF-8" standalone="no"?>
<!DOCTYPE svg PUBLIC "-//W3C//DTD SVG 1.1//EN"
 "http://www.w3.org/Graphics/SVG/1.1/DTD/svg11.dtd">
<!-- Generated by graphviz version 2.40.1 (20161225.0304)
 -->
<!-- Title: public.songs_original_songs Pages: 1 -->
<svg width="1328pt" height="1094pt"
 viewBox="0.00 0.00 1327.50 1094.00" xmlns="http://www.w3.org/2000/svg" xmlns:xlink="http://www.w3.org/1999/xlink">
<g id="graph0" class="graph" transform="scale(1 1) rotate(0) translate(4 1090)">
<title>public.songs_original_songs</title>
<polygon fill="#ffffff" stroke="transparent" points="-4,4 -4,-1090 1323.5,-1090 1323.5,4 -4,4"/>
<!-- public.songs_original_songs -->
<g id="node1" class="node">
<title>public.songs_original_songs</title>
<polygon fill="#efefef" stroke="transparent" points="498.5,-994 498.5,-1040 865.5,-1040 865.5,-994 498.5,-994"/>
<polygon fill="none" stroke="#000000" points="498.5,-994 498.5,-1040 865.5,-1040 865.5,-994 498.5,-994"/>
<text text-anchor="start" x="505.1868" y="-1017.8" font-family="Arial Bold" font-size="18.00" fill="#000000">public.songs_original_songs</text>
<text text-anchor="start" x="731.2452" y="-1017.8" font-family="Arial" font-size="14.00" fill="#000000">    </text>
<text text-anchor="start" x="765.45" y="-1017.8" font-family="Arial" font-size="14.00" fill="#666666">[BASE TABLE]</text>
<text text-anchor="start" x="647.7637" y="-1003.4" font-family="Arial" font-size="14.00" fill="#333333">楽曲原曲</text>
<polygon fill="none" stroke="#000000" points="498.5,-964 498.5,-994 865.5,-994 865.5,-964 498.5,-964"/>
<text text-anchor="start" x="505.5" y="-975.4" font-family="Arial" font-size="14.00" fill="#000000">created_at </text>
<text text-anchor="start" x="575.528" y="-975.4" font-family="Arial" font-size="14.00" fill="#666666">[timestamp with time zone]</text>
<text text-anchor="start" x="741.2124" y="-975.4" font-family="Arial" font-size="14.00" fill="#000000"> 作成日時</text>
<polygon fill="none" stroke="#000000" points="498.5,-934 498.5,-964 865.5,-964 865.5,-934 498.5,-934"/>
<text text-anchor="start" x="505.5" y="-945.4" font-family="Arial" font-size="14.00" fill="#000000">updated_at </text>
<text text-anchor="start" x="579.4326" y="-945.4" font-family="Arial" font-size="14.00" fill="#666666">[timestamp with time zone]</text>
<text text-anchor="start" x="745.117" y="-945.4" font-family="Arial" font-size="14.00" fill="#000000"> 更新日時</text>
<polygon fill="none" stroke="#000000" points="498.5,-904 498.5,-934 865.5,-934 865.5,-904 498.5,-904"/>
<text text-anchor="start" x="505.5" y="-915.4" font-family="Arial" font-size="14.00" fill="#000000">song_id </text>
<text text-anchor="start" x="558.4102" y="-915.4" font-family="Arial" font-size="14.00" fill="#666666">[text]</text>
<text text-anchor="start" x="588.7552" y="-915.4" font-family="Arial" font-size="14.00" fill="#000000"> 楽曲ID</text>
<polygon fill="none" stroke="#000000" points="498.5,-874 498.5,-904 865.5,-904 865.5,-874 498.5,-874"/>
<text text-anchor="start" x="505.5" y="-885.4" font-family="Arial" font-size="14.00" fill="#000000">original_song_id </text>
<text text-anchor="start" x="611.3036" y="-885.4" font-family="Arial" font-size="14.00" fill="#666666">[text]</text>
<text text-anchor="start" x="641.6486" y="-885.4" font-family="Arial" font-size="14.00" fill="#000000"> 原曲ID</text>
<polygon fill="none" stroke="#000000" stroke-width="3" points="496.5,-872.5 496.5,-1041.5 866.5,-1041.5 866.5,-872.5 496.5,-872.5"/>
</g>
<!-- public.songs -->
<g id="node2" class="node">
<title>public.songs</title>
<polygon fill="#efefef" stroke="transparent" points="43.5,-703 43.5,-749 652.5,-749 652.5,-703 43.5,-703"/>
<polygon fill="none" stroke="#000000" points="43.5,-703 43.5,-749 652.5,-749 652.5,-703 43.5,-703"/>
<text text-anchor="start" x="234.2021" y="-726.8" font-family="Arial Bold" font-size="18.00" fill="#000000">public.songs</text>
<text text-anchor="start" x="334.2299" y="-726.8" font-family="Arial" font-size="14.00" fill="#000000">    </text>
<text text-anchor="start" x="368.4347" y="-726.8" font-family="Arial" font-size="14.00" fill="#666666">[BASE TABLE]</text>
<text text-anchor="start" x="327.3815" y="-712.4" font-family="Arial" font-size="14.00" fill="#333333">楽曲</text>
<polygon fill="none" stroke="#000000" points="43.5,-673 43.5,-703 652.5,-703 652.5,-673 43.5,-673"/>
<text text-anchor="start" x="50.5" y="-684.4" font-family="Arial" font-size="14.00" fill="#000000">id    </text>
<text text-anchor="start" x="95.594" y="-684.4" font-family="Arial" font-size="14.00" fill="#666666">[text]</text>
<text text-anchor="start" x="125.939" y="-684.4" font-family="Arial" font-size="14.00" fill="#000000"> 楽曲ID</text>
<polygon fill="none" stroke="#000000" points="43.5,-643 43.5,-673 652.5,-673 652.5,-643 43.5,-643"/>
<text text-anchor="start" x="50.5" y="-654.4" font-family="Arial" font-size="14.00" fill="#000000">created_at    </text>
<text text-anchor="start" x="150.8422" y="-654.4" font-family="Arial" font-size="14.00" fill="#666666">[timestamp with time zone]</text>
<text text-anchor="start" x="316.5266" y="-654.4" font-family="Arial" font-size="14.00" fill="#000000"> 作成日時</text>
<polygon fill="none" stroke="#000000" points="43.5,-613 43.5,-643 652.5,-643 652.5,-613 43.5,-613"/>
<text text-anchor="start" x="50.5" y="-624.4" font-family="Arial" font-size="14.00" fill="#000000">updated_at    </text>
<text text-anchor="start" x="154.7468" y="-624.4" font-family="Arial" font-size="14.00" fill="#666666">[timestamp with time zone]</text>
<text text-anchor="start" x="320.4312" y="-624.4" font-family="Arial" font-size="14.00" fill="#000000"> 更新日時</text>
<polygon fill="none" stroke="#000000" points="43.5,-583 43.5,-613 652.5,-613 652.5,-583 43.5,-583"/>
<text text-anchor="start" x="50.5" y="-594.4" font-family="Arial" font-size="14.00" fill="#000000">circle_id    </text>
<text text-anchor="start" x="136.033" y="-594.4" font-family="Arial" font-size="14.00" fill="#666666">[text]</text>
<text text-anchor="start" x="166.378" y="-594.4" font-family="Arial" font-size="14.00" fill="#000000"> サークルID</text>
<polygon fill="none" stroke="#000000" points="43.5,-553 43.5,-583 652.5,-583 652.5,-553 43.5,-553"/>
<text text-anchor="start" x="50.5" y="-564.4" font-family="Arial" font-size="14.00" fill="#000000">album_id    </text>
<text text-anchor="start" x="141.4916" y="-564.4" font-family="Arial" font-size="14.00" fill="#666666">[text]</text>
<text text-anchor="start" x="171.8366" y="-564.4" font-family="Arial" font-size="14.00" fill="#000000"> アルバムID</text>
<polygon fill="none" stroke="#000000" points="43.5,-523 43.5,-553 652.5,-553 652.5,-523 43.5,-523"/>
<text text-anchor="start" x="50.5" y="-534.4" font-family="Arial" font-size="14.00" fill="#000000">name    </text>
<text text-anchor="start" x="119.7132" y="-534.4" font-family="Arial" font-size="14.00" fill="#666666">[text]</text>
<text text-anchor="start" x="150.0582" y="-534.4" font-family="Arial" font-size="14.00" fill="#000000"> 名前</text>
<polygon fill="none" stroke="#000000" points="43.5,-493 43.5,-523 652.5,-523 652.5,-493 43.5,-493"/>
<text text-anchor="start" x="50.5" y="-504.4" font-family="Arial" font-size="14.00" fill="#000000">name_reading    </text>
<text text-anchor="start" x="174.176" y="-504.4" font-family="Arial" font-size="14.00" fill="#666666">[text]</text>
<text text-anchor="start" x="204.521" y="-504.4" font-family="Arial" font-size="14.00" fill="#000000"> 名前読み方</text>
<polygon fill="none" stroke="#000000" points="43.5,-463 43.5,-493 652.5,-493 652.5,-463 43.5,-463"/>
<text text-anchor="start" x="50.5" y="-474.4" font-family="Arial" font-size="14.00" fill="#000000">slug    </text>
<text text-anchor="start" x="110.3766" y="-474.4" font-family="Arial" font-size="14.00" fill="#666666">[text]</text>
<text text-anchor="start" x="140.7216" y="-474.4" font-family="Arial" font-size="14.00" fill="#000000"> スラッグ</text>
<polygon fill="none" stroke="#000000" points="43.5,-433 43.5,-463 652.5,-463 652.5,-433 43.5,-433"/>
<text text-anchor="start" x="50.5" y="-444.4" font-family="Arial" font-size="14.00" fill="#000000">disc_number    </text>
<text text-anchor="start" x="164.8282" y="-444.4" font-family="Arial" font-size="14.00" fill="#666666">[integer]</text>
<text text-anchor="start" x="215.3976" y="-444.4" font-family="Arial" font-size="14.00" fill="#000000"> ディスク番号(default: 1)</text>
<polygon fill="none" stroke="#000000" points="43.5,-403 43.5,-433 652.5,-433 652.5,-403 43.5,-403"/>
<text text-anchor="start" x="50.5" y="-414.4" font-family="Arial" font-size="14.00" fill="#000000">track_number    </text>
<text text-anchor="start" x="170.2728" y="-414.4" font-family="Arial" font-size="14.00" fill="#666666">[integer]</text>
<text text-anchor="start" x="220.8422" y="-414.4" font-family="Arial" font-size="14.00" fill="#000000"> トラック番号</text>
<polygon fill="none" stroke="#000000" points="43.5,-373 43.5,-403 652.5,-403 652.5,-373 43.5,-373"/>
<text text-anchor="start" x="50.5" y="-384.4" font-family="Arial" font-size="14.00" fill="#000000">release_date    </text>
<text text-anchor="start" x="165.6234" y="-384.4" font-family="Arial" font-size="14.00" fill="#666666">[date]</text>
<text text-anchor="start" x="200.643" y="-384.4" font-family="Arial" font-size="14.00" fill="#000000"> 頒布日(アルバムの頒布日と異なる場合に使用する)</text>
<polygon fill="none" stroke="#000000" points="43.5,-343 43.5,-373 652.5,-373 652.5,-343 43.5,-343"/>
<text text-anchor="start" x="50.5" y="-354.4" font-family="Arial" font-size="14.00" fill="#000000">length    </text>
<text text-anchor="start" x="122.8324" y="-354.4" font-family="Arial" font-size="14.00" fill="#666666">[integer]</text>
<text text-anchor="start" x="173.4018" y="-354.4" font-family="Arial" font-size="14.00" fill="#000000"> 曲の長さ(秒)</text>
<polygon fill="none" stroke="#000000" points="43.5,-313 43.5,-343 652.5,-343 652.5,-313 43.5,-313"/>
<text text-anchor="start" x="50.5" y="-324.4" font-family="Arial" font-size="14.00" fill="#000000">bpm    </text>
<text text-anchor="start" x="111.9306" y="-324.4" font-family="Arial" font-size="14.00" fill="#666666">[integer]</text>
<text text-anchor="start" x="162.5" y="-324.4" font-family="Arial" font-size="14.00" fill="#000000"> BPM</text>
<polygon fill="none" stroke="#000000" points="43.5,-283 43.5,-313 652.5,-313 652.5,-283 43.5,-283"/>
<text text-anchor="start" x="50.5" y="-294.4" font-family="Arial" font-size="14.00" fill="#000000">description    </text>
<text text-anchor="start" x="152.3822" y="-294.4" font-family="Arial" font-size="14.00" fill="#666666">[text]</text>
<text text-anchor="start" x="182.7272" y="-294.4" font-family="Arial" font-size="14.00" fill="#000000"> 説明</text>
<polygon fill="none" stroke="#000000" points="43.5,-253 43.5,-283 652.5,-283 652.5,-253 43.5,-253"/>
<text text-anchor="start" x="50.5" y="-264.4" font-family="Arial" font-size="14.00" fill="#000000">display_composer    </text>
<text text-anchor="start" x="197.5" y="-264.4" font-family="Arial" font-size="14.00" fill="#666666">[text]</text>
<text text-anchor="start" x="227.845" y="-264.4" font-family="Arial" font-size="14.00" fill="#000000"> 作曲者表示用(1度しか使用しない別名義などで使用する)</text>
<polygon fill="none" stroke="#000000" points="43.5,-223 43.5,-253 652.5,-253 652.5,-223 43.5,-223"/>
<text text-anchor="start" x="50.5" y="-234.4" font-family="Arial" font-size="14.00" fill="#000000">display_arranger    </text>
<text text-anchor="start" x="188.9432" y="-234.4" font-family="Arial" font-size="14.00" fill="#666666">[text]</text>
<text text-anchor="start" x="219.2882" y="-234.4" font-family="Arial" font-size="14.00" fill="#000000"> 編曲者表示用(1度しか使用しない別名義などで使用する)</text>
<polygon fill="none" stroke="#000000" points="43.5,-193 43.5,-223 652.5,-223 652.5,-193 43.5,-193"/>
<text text-anchor="start" x="50.5" y="-204.4" font-family="Arial" font-size="14.00" fill="#000000">display_rearranger    </text>
<text text-anchor="start" x="201.3864" y="-204.4" font-family="Arial" font-size="14.00" fill="#666666">[text]</text>
<text text-anchor="start" x="231.7314" y="-204.4" font-family="Arial" font-size="14.00" fill="#000000"> 再編曲者表示用(1度しか使用しない別名義などで使用する)</text>
<polygon fill="none" stroke="#000000" points="43.5,-163 43.5,-193 652.5,-193 652.5,-163 43.5,-163"/>
<text text-anchor="start" x="50.5" y="-174.4" font-family="Arial" font-size="14.00" fill="#000000">display_lyricist    </text>
<text text-anchor="start" x="174.9194" y="-174.4" font-family="Arial" font-size="14.00" fill="#666666">[text]</text>
<text text-anchor="start" x="205.2644" y="-174.4" font-family="Arial" font-size="14.00" fill="#000000"> 作詞者表示用(1度しか使用しない別名義などで使用する)</text>
<polygon fill="none" stroke="#000000" points="43.5,-133 43.5,-163 652.5,-163 652.5,-133 43.5,-133"/>
<text text-anchor="start" x="50.3082" y="-144.4" font-family="Arial" font-size="14.00" fill="#000000">display_vocalist    </text>
<text text-anchor="start" x="182.5256" y="-144.4" font-family="Arial" font-size="14.00" fill="#666666">[text]</text>
<text text-anchor="start" x="212.8706" y="-144.4" font-family="Arial" font-size="14.00" fill="#000000"> ボーカリスト表示用(1度しか使用しない別名義などで使用する)</text>
<polygon fill="none" stroke="#000000" points="43.5,-103 43.5,-133 652.5,-133 652.5,-103 43.5,-103"/>
<text text-anchor="start" x="50.5" y="-114.4" font-family="Arial" font-size="14.00" fill="#000000">display_original_song    </text>
<text text-anchor="start" x="219.2896" y="-114.4" font-family="Arial" font-size="14.00" fill="#666666">[text]</text>
<text text-anchor="start" x="249.6346" y="-114.4" font-family="Arial" font-size="14.00" fill="#000000"> 原曲表示用(東方以外の原曲などで使用する)</text>
<polygon fill="none" stroke="#000000" points="43.5,-73 43.5,-103 652.5,-103 652.5,-73 43.5,-73"/>
<text text-anchor="start" x="50.5" y="-84.4" font-family="Arial" font-size="14.00" fill="#000000">published_at    </text>
<text text-anchor="start" x="164.0694" y="-84.4" font-family="Arial" font-size="14.00" fill="#666666">[timestamp with time zone]</text>
<text text-anchor="start" x="329.7538" y="-84.4" font-family="Arial" font-size="14.00" fill="#000000"> 公開日時</text>
<polygon fill="none" stroke="#000000" points="43.5,-43 43.5,-73 652.5,-73 652.5,-43 43.5,-43"/>
<text text-anchor="start" x="50.5" y="-54.4" font-family="Arial" font-size="14.00" fill="#000000">archived_at    </text>
<text text-anchor="start" x="157.0582" y="-54.4" font-family="Arial" font-size="14.00" fill="#666666">[timestamp with time zone]</text>
<text text-anchor="start" x="322.7426" y="-54.4" font-family="Arial" font-size="14.00" fill="#000000"> アーカイブ日時</text>
</g>
<!-- public.songs_original_songs&#45;&gt;public.songs -->
<g id="edge1" class="edge">
<title>public.songs_original_songs:song_id&#45;&gt;public.songs:id</title>
<path fill="none" stroke="#000000" d="M488.5573,-917.5077C461.0127,-908.1216 475.7226,-856.7161 498.5,-828 542.1807,-772.9306 608.8193,-847.0694 652.5,-792 681.2243,-755.7866 698.7222,-688 652.5,-688"/>
<polygon fill="#000000" stroke="#000000" points="488.6108,-917.5157 497.832,-923.4502 493.5554,-918.2578 498.5,-919 498.5,-919 498.5,-919 493.5554,-918.2578 499.168,-914.5498 488.6108,-917.5157 488.6108,-917.5157"/>
<text text-anchor="start" x="264.6045" y="-929" font-family="Arial" font-size="10.00" fill="#000000">FOREIGN KEY (song_id) REFERENCES songs(id)</text>
</g>
<!-- public.original_songs -->
<g id="node3" class="node">
<title>public.original_songs</title>
<polygon fill="#efefef" stroke="transparent" points="756.5,-538 756.5,-584 1276.5,-584 1276.5,-538 756.5,-538"/>
<polygon fill="none" stroke="#000000" points="756.5,-538 756.5,-584 1276.5,-584 1276.5,-538 756.5,-538"/>
<text text-anchor="start" x="868.6992" y="-561.8" font-family="Arial Bold" font-size="18.00" fill="#000000">public.original_songs</text>
<text text-anchor="start" x="1036.7328" y="-561.8" font-family="Arial" font-size="14.00" fill="#000000">    </text>
<text text-anchor="start" x="1070.9376" y="-561.8" font-family="Arial" font-size="14.00" fill="#666666">[BASE TABLE]</text>
<text text-anchor="start" x="1002.8822" y="-547.4" font-family="Arial" font-size="14.00" fill="#333333">原曲</text>
<polygon fill="none" stroke="#000000" points="756.5,-508 756.5,-538 1276.5,-538 1276.5,-508 756.5,-508"/>
<text text-anchor="start" x="763.5" y="-519.4" font-family="Arial" font-size="14.00" fill="#000000">id    </text>
<text text-anchor="start" x="808.594" y="-519.4" font-family="Arial" font-size="14.00" fill="#666666">[text]</text>
<text text-anchor="start" x="838.939" y="-519.4" font-family="Arial" font-size="14.00" fill="#000000"> 原曲ID</text>
<polygon fill="none" stroke="#000000" points="756.5,-478 756.5,-508 1276.5,-508 1276.5,-478 756.5,-478"/>
<text text-anchor="start" x="763.5" y="-489.4" font-family="Arial" font-size="14.00" fill="#000000">created_at    </text>
<text text-anchor="start" x="863.8422" y="-489.4" font-family="Arial" font-size="14.00" fill="#666666">[timestamp with time zone]</text>
<text text-anchor="start" x="1029.5266" y="-489.4" font-family="Arial" font-size="14.00" fill="#000000"> 作成日時</text>
<polygon fill="none" stroke="#000000" points="756.5,-448 756.5,-478 1276.5,-478 1276.5,-448 756.5,-448"/>
<text text-anchor="start" x="763.5" y="-459.4" font-family="Arial" font-size="14.00" fill="#000000">updated_at    </text>
<text text-anchor="start" x="867.7468" y="-459.4" font-family="Arial" font-size="14.00" fill="#666666">[timestamp with time zone]</text>
<text text-anchor="start" x="1033.4312" y="-459.4" font-family="Arial" font-size="14.00" fill="#000000"> 更新日時</text>
<polygon fill="none" stroke="#000000" points="756.5,-418 756.5,-448 1276.5,-448 1276.5,-418 756.5,-418"/>
<text text-anchor="start" x="763.5" y="-429.4" font-family="Arial" font-size="14.00" fill="#000000">product_id    </text>
<text text-anchor="start" x="863.0582" y="-429.4" font-family="Arial" font-size="14.00" fill="#666666">[text]</text>
<text text-anchor="start" x="893.4032" y="-429.4" font-family="Arial" font-size="14.00" fill="#000000"> 原作ID</text>
<polygon fill="none" stroke="#000000" points="756.5,-388 756.5,-418 1276.5,-418 1276.5,-388 756.5,-388"/>
<text text-anchor="start" x="763.5" y="-399.4" font-family="Arial" font-size="14.00" fill="#000000">name    </text>
<text text-anchor="start" x="832.7132" y="-399.4" font-family="Arial" font-size="14.00" fill="#666666">[text]</text>
<text text-anchor="start" x="863.0582" y="-399.4" font-family="Arial" font-size="14.00" fill="#000000"> 名前</text>
<polygon fill="none" stroke="#000000" points="756.5,-358 756.5,-388 1276.5,-388 1276.5,-358 756.5,-358"/>
<text text-anchor="start" x="763.5" y="-369.4" font-family="Arial" font-size="14.00" fill="#000000">name_reading    </text>
<text text-anchor="start" x="887.176" y="-369.4" font-family="Arial" font-size="14.00" fill="#666666">[text]</text>
<text text-anchor="start" x="917.521" y="-369.4" font-family="Arial" font-size="14.00" fill="#000000"> 名前読み方</text>
<polygon fill="none" stroke="#000000" points="756.5,-328 756.5,-358 1276.5,-358 1276.5,-328 756.5,-328"/>
<text text-anchor="start" x="763.5" y="-339.4" font-family="Arial" font-size="14.00" fill="#000000">composer    </text>
<text text-anchor="start" x="859.1564" y="-339.4" font-family="Arial" font-size="14.00" fill="#666666">[text]</text>
<text text-anchor="start" x="889.5014" y="-339.4" font-family="Arial" font-size="14.00" fill="#000000"> 作曲者</text>
<polygon fill="none" stroke="#000000" points="756.5,-298 756.5,-328 1276.5,-328 1276.5,-298 756.5,-298"/>
<text text-anchor="start" x="763.5" y="-309.4" font-family="Arial" font-size="14.00" fill="#000000">arranger    </text>
<text text-anchor="start" x="850.5996" y="-309.4" font-family="Arial" font-size="14.00" fill="#666666">[text]</text>
<text text-anchor="start" x="880.9446" y="-309.4" font-family="Arial" font-size="14.00" fill="#000000"> 編曲者</text>
<polygon fill="none" stroke="#000000" points="756.5,-268 756.5,-298 1276.5,-298 1276.5,-268 756.5,-268"/>
<text text-anchor="start" x="763.5" y="-279.4" font-family="Arial" font-size="14.00" fill="#000000">track_number    </text>
<text text-anchor="start" x="883.2728" y="-279.4" font-family="Arial" font-size="14.00" fill="#666666">[integer]</text>
<text text-anchor="start" x="933.8422" y="-279.4" font-family="Arial" font-size="14.00" fill="#000000"> トラック番号</text>
<polygon fill="none" stroke="#000000" points="756.5,-238 756.5,-268 1276.5,-268 1276.5,-238 756.5,-238"/>
<text text-anchor="start" x="763.3247" y="-249.4" font-family="Arial" font-size="14.00" fill="#000000">is_original    </text>
<text text-anchor="start" x="860.5295" y="-249.4" font-family="Arial" font-size="14.00" fill="#666666">[boolean]</text>
<text text-anchor="start" x="918.1129" y="-249.4" font-family="Arial" font-size="14.00" fill="#000000"> オリジナル有無(true: オリジナル(初出)、false: 再録など)</text>
<polygon fill="none" stroke="#000000" points="756.5,-208 756.5,-238 1276.5,-238 1276.5,-208 756.5,-208"/>
<text text-anchor="start" x="763.5" y="-219.4" font-family="Arial" font-size="14.00" fill="#000000">source_id    </text>
<text text-anchor="start" x="858.385" y="-219.4" font-family="Arial" font-size="14.00" fill="#666666">[text]</text>
<text text-anchor="start" x="888.73" y="-219.4" font-family="Arial" font-size="14.00" fill="#000000"> 原曲元の原曲ID</text>
</g>
<!-- public.songs_original_songs&#45;&gt;public.original_songs -->
<g id="edge2" class="edge">
<title>public.songs_original_songs:original_song_id&#45;&gt;public.original_songs:id</title>
<path fill="none" stroke="#000000" d="M875.5957,-888.5004C1016.243,-873.4424 590.4193,-523 756.5,-523"/>
<polygon fill="#000000" stroke="#000000" points="875.4878,-888.5057 865.2776,-884.5055 870.4939,-888.7528 865.5,-889 865.5,-889 865.5,-889 870.4939,-888.7528 865.7224,-893.4945 875.4878,-888.5057 875.4878,-888.5057"/>
<text text-anchor="start" x="872.8235" y="-899" font-family="Arial" font-size="10.00" fill="#000000">FOREIGN KEY (original_song_id) REFERENCES original_songs(id)</text>
</g>
</g>
</svg>
