<?xml version="1.0" encoding="UTF-8" standalone="no"?>
<!DOCTYPE svg PUBLIC "-//W3C//DTD SVG 1.1//EN"
 "http://www.w3.org/Graphics/SVG/1.1/DTD/svg11.dtd">
<!-- Generated by graphviz version 2.40.1 (20161225.0304)
 -->
<!-- Title: public.track_isrcs Pages: 1 -->
<svg width="897pt" height="734pt"
 viewBox="0.00 0.00 896.50 734.00" xmlns="http://www.w3.org/2000/svg" xmlns:xlink="http://www.w3.org/1999/xlink">
<g id="graph0" class="graph" transform="scale(1 1) rotate(0) translate(4 730)">
<title>public.track_isrcs</title>
<polygon fill="#ffffff" stroke="transparent" points="-4,4 -4,-730 892.5,-730 892.5,4 -4,4"/>
<!-- public.track_isrcs -->
<g id="node1" class="node">
<title>public.track_isrcs</title>
<polygon fill="#efefef" stroke="transparent" points="46.5,-634 46.5,-680 647.5,-680 647.5,-634 46.5,-634"/>
<polygon fill="none" stroke="#000000" points="46.5,-634 46.5,-680 647.5,-680 647.5,-634 46.5,-634"/>
<text text-anchor="start" x="229.3719" y="-657.8" font-family="Arial Bold" font-size="18.00" fill="#000000">public.track_isrcs</text>
<text text-anchor="start" x="367.3743" y="-657.8" font-family="Arial" font-size="14.00" fill="#000000"> </text>
<text text-anchor="start" x="371.2649" y="-657.8" font-family="Arial" font-size="14.00" fill="#666666">[BASE TABLE]</text>
<text text-anchor="start" x="309.6613" y="-643.4" font-family="Arial" font-size="14.00" fill="#333333">楽曲ISRC</text>
<polygon fill="none" stroke="#000000" points="46.5,-604 46.5,-634 647.5,-634 647.5,-604 46.5,-604"/>
<text text-anchor="start" x="53.5" y="-615.4" font-family="Arial" font-size="14.00" fill="#000000">id </text>
<text text-anchor="start" x="68.2798" y="-615.4" font-family="Arial" font-size="14.00" fill="#666666">[text]</text>
<polygon fill="none" stroke="#000000" points="46.5,-574 46.5,-604 647.5,-604 647.5,-574 46.5,-574"/>
<text text-anchor="start" x="53.5" y="-585.4" font-family="Arial" font-size="14.00" fill="#000000">track_id </text>
<text text-anchor="start" x="106.3962" y="-585.4" font-family="Arial" font-size="14.00" fill="#666666">[text]</text>
<text text-anchor="start" x="136.7412" y="-585.4" font-family="Arial" font-size="14.00" fill="#000000"> トラックID</text>
<polygon fill="none" stroke="#000000" points="46.5,-544 46.5,-574 647.5,-574 647.5,-544 46.5,-544"/>
<text text-anchor="start" x="53.1064" y="-555.4" font-family="Arial" font-size="14.00" fill="#000000">isrc </text>
<text text-anchor="start" x="78.7642" y="-555.4" font-family="Arial" font-size="14.00" fill="#666666">[text]</text>
<text text-anchor="start" x="109.1092" y="-555.4" font-family="Arial" font-size="14.00" fill="#000000"> ISRC(International Standard Recording Code): 国際標準レコーディングコード</text>
<polygon fill="none" stroke="#000000" points="46.5,-514 46.5,-544 647.5,-544 647.5,-514 46.5,-514"/>
<text text-anchor="start" x="53.5" y="-525.4" font-family="Arial" font-size="14.00" fill="#000000">created_at </text>
<text text-anchor="start" x="123.528" y="-525.4" font-family="Arial" font-size="14.00" fill="#666666">[timestamp with time zone]</text>
<text text-anchor="start" x="289.2124" y="-525.4" font-family="Arial" font-size="14.00" fill="#000000"> 作成日時</text>
<polygon fill="none" stroke="#000000" points="46.5,-484 46.5,-514 647.5,-514 647.5,-484 46.5,-484"/>
<text text-anchor="start" x="53.5" y="-495.4" font-family="Arial" font-size="14.00" fill="#000000">updated_at </text>
<text text-anchor="start" x="127.4326" y="-495.4" font-family="Arial" font-size="14.00" fill="#666666">[timestamp with time zone]</text>
<text text-anchor="start" x="293.117" y="-495.4" font-family="Arial" font-size="14.00" fill="#000000"> 更新日時</text>
<polygon fill="none" stroke="#000000" stroke-width="3" points="44.5,-482.5 44.5,-681.5 648.5,-681.5 648.5,-482.5 44.5,-482.5"/>
</g>
<!-- public.tracks -->
<g id="node2" class="node">
<title>public.tracks</title>
<polygon fill="#efefef" stroke="transparent" points="109.5,-313 109.5,-359 585.5,-359 585.5,-313 109.5,-313"/>
<polygon fill="none" stroke="#000000" points="109.5,-313 109.5,-359 585.5,-359 585.5,-313 109.5,-313"/>
<text text-anchor="start" x="248.8682" y="-336.8" font-family="Arial Bold" font-size="18.00" fill="#000000">public.tracks</text>
<text text-anchor="start" x="348.878" y="-336.8" font-family="Arial" font-size="14.00" fill="#000000"> </text>
<text text-anchor="start" x="352.7686" y="-336.8" font-family="Arial" font-size="14.00" fill="#666666">[BASE TABLE]</text>
<text text-anchor="start" x="320.6347" y="-322.4" font-family="Arial" font-size="14.00" fill="#333333">トラック</text>
<polygon fill="none" stroke="#000000" points="109.5,-283 109.5,-313 585.5,-313 585.5,-283 109.5,-283"/>
<text text-anchor="start" x="116.5" y="-294.4" font-family="Arial" font-size="14.00" fill="#000000">id </text>
<text text-anchor="start" x="131.2798" y="-294.4" font-family="Arial" font-size="14.00" fill="#666666">[text]</text>
<polygon fill="none" stroke="#000000" points="109.5,-253 109.5,-283 585.5,-283 585.5,-253 109.5,-253"/>
<text text-anchor="start" x="116.5" y="-264.4" font-family="Arial" font-size="14.00" fill="#000000">album_id </text>
<text text-anchor="start" x="177.1774" y="-264.4" font-family="Arial" font-size="14.00" fill="#666666">[text]</text>
<text text-anchor="start" x="207.5224" y="-264.4" font-family="Arial" font-size="14.00" fill="#000000"> アルバムID</text>
<polygon fill="none" stroke="#000000" points="109.5,-223 109.5,-253 585.5,-253 585.5,-223 109.5,-223"/>
<text text-anchor="start" x="116.5" y="-234.4" font-family="Arial" font-size="14.00" fill="#000000">name </text>
<text text-anchor="start" x="155.399" y="-234.4" font-family="Arial" font-size="14.00" fill="#666666">[text]</text>
<text text-anchor="start" x="185.744" y="-234.4" font-family="Arial" font-size="14.00" fill="#000000"> 名前</text>
<polygon fill="none" stroke="#000000" points="109.5,-193 109.5,-223 585.5,-223 585.5,-193 109.5,-193"/>
<text text-anchor="start" x="116.5" y="-204.4" font-family="Arial" font-size="14.00" fill="#000000">disc_number </text>
<text text-anchor="start" x="200.514" y="-204.4" font-family="Arial" font-size="14.00" fill="#666666">[integer]</text>
<text text-anchor="start" x="251.0834" y="-204.4" font-family="Arial" font-size="14.00" fill="#000000"> ディスク番号(default: 1)</text>
<polygon fill="none" stroke="#000000" points="109.5,-163 109.5,-193 585.5,-193 585.5,-163 109.5,-163"/>
<text text-anchor="start" x="116.5" y="-174.4" font-family="Arial" font-size="14.00" fill="#000000">track_number </text>
<text text-anchor="start" x="205.9586" y="-174.4" font-family="Arial" font-size="14.00" fill="#666666">[integer]</text>
<text text-anchor="start" x="256.528" y="-174.4" font-family="Arial" font-size="14.00" fill="#000000"> トラック番号</text>
<polygon fill="none" stroke="#000000" points="109.5,-133 109.5,-163 585.5,-163 585.5,-133 109.5,-133"/>
<text text-anchor="start" x="116.3425" y="-144.4" font-family="Arial" font-size="14.00" fill="#000000">release_date </text>
<text text-anchor="start" x="201.1517" y="-144.4" font-family="Arial" font-size="14.00" fill="#666666">[date]</text>
<text text-anchor="start" x="236.1713" y="-144.4" font-family="Arial" font-size="14.00" fill="#000000"> 頒布日(アルバムの頒布日と異なる場合に使用する)</text>
<polygon fill="none" stroke="#000000" points="109.5,-103 109.5,-133 585.5,-133 585.5,-103 109.5,-103"/>
<text text-anchor="start" x="116.5" y="-114.4" font-family="Arial" font-size="14.00" fill="#000000">search_enabled </text>
<text text-anchor="start" x="219.9838" y="-114.4" font-family="Arial" font-size="14.00" fill="#666666">[boolean]</text>
<text text-anchor="start" x="277.5672" y="-114.4" font-family="Arial" font-size="14.00" fill="#000000"> 検索対象とするか(default: true)</text>
<polygon fill="none" stroke="#000000" points="109.5,-73 109.5,-103 585.5,-103 585.5,-73 109.5,-73"/>
<text text-anchor="start" x="116.5" y="-84.4" font-family="Arial" font-size="14.00" fill="#000000">created_at </text>
<text text-anchor="start" x="186.528" y="-84.4" font-family="Arial" font-size="14.00" fill="#666666">[timestamp with time zone]</text>
<text text-anchor="start" x="352.2124" y="-84.4" font-family="Arial" font-size="14.00" fill="#000000"> 作成日時</text>
<polygon fill="none" stroke="#000000" points="109.5,-43 109.5,-73 585.5,-73 585.5,-43 109.5,-43"/>
<text text-anchor="start" x="116.5" y="-54.4" font-family="Arial" font-size="14.00" fill="#000000">updated_at </text>
<text text-anchor="start" x="190.4326" y="-54.4" font-family="Arial" font-size="14.00" fill="#666666">[timestamp with time zone]</text>
<text text-anchor="start" x="356.117" y="-54.4" font-family="Arial" font-size="14.00" fill="#000000"> 更新日時</text>
</g>
<!-- public.track_isrcs&#45;&gt;public.tracks -->
<g id="edge1" class="edge">
<title>public.track_isrcs:track_id&#45;&gt;public.tracks:id</title>
<path fill="none" stroke="#000000" d="M657.7279,-588.1103C712.2114,-578.0036 690.8361,-484.3329 647.5,-438 565.6497,-350.4897 191.3503,-489.5103 109.5,-402 77.9259,-368.2425 63.2778,-298 109.5,-298"/>
<polygon fill="#000000" stroke="#000000" points="657.4624,-588.1333 647.11,-584.5169 652.4812,-588.5667 647.5,-589 647.5,-589 647.5,-589 652.4812,-588.5667 647.89,-593.4831 657.4624,-588.1333 657.4624,-588.1333"/>
<text text-anchor="start" x="654.6145" y="-599" font-family="Arial" font-size="10.00" fill="#000000">FOREIGN KEY (track_id) REFERENCES tracks(id)</text>
</g>
</g>
</svg>
