<?xml version="1.0" encoding="UTF-8" standalone="no"?>
<!DOCTYPE svg PUBLIC "-//W3C//DTD SVG 1.1//EN"
 "http://www.w3.org/Graphics/SVG/1.1/DTD/svg11.dtd">
<!-- Generated by graphviz version 2.40.1 (20161225.0304)
 -->
<!-- Title: public.products Pages: 1 -->
<svg width="1114pt" height="824pt"
 viewBox="0.00 0.00 1114.00 824.00" xmlns="http://www.w3.org/2000/svg" xmlns:xlink="http://www.w3.org/1999/xlink">
<g id="graph0" class="graph" transform="scale(1 1) rotate(0) translate(4 820)">
<title>public.products</title>
<polygon fill="#ffffff" stroke="transparent" points="-4,4 -4,-820 1110,-820 1110,4 -4,4"/>
<!-- public.products -->
<g id="node1" class="node">
<title>public.products</title>
<polygon fill="#efefef" stroke="transparent" points="412,-256 412,-302 726,-302 726,-256 412,-256"/>
<polygon fill="none" stroke="#000000" points="412,-256 412,-302 726,-302 726,-256 412,-256"/>
<text text-anchor="start" x="459.8589" y="-279.8" font-family="Arial Bold" font-size="18.00" fill="#000000">public.products</text>
<text text-anchor="start" x="580.8873" y="-279.8" font-family="Arial" font-size="14.00" fill="#000000"> </text>
<text text-anchor="start" x="584.7779" y="-279.8" font-family="Arial" font-size="14.00" fill="#666666">[BASE TABLE]</text>
<text text-anchor="start" x="552.2735" y="-265.4" font-family="Arial" font-size="14.00" fill="#333333">原作</text>
<polygon fill="none" stroke="#000000" points="412,-226 412,-256 726,-256 726,-226 412,-226"/>
<text text-anchor="start" x="419" y="-237.4" font-family="Arial" font-size="14.00" fill="#000000">id </text>
<text text-anchor="start" x="433.7798" y="-237.4" font-family="Arial" font-size="14.00" fill="#666666">[text]</text>
<text text-anchor="start" x="464.1248" y="-237.4" font-family="Arial" font-size="14.00" fill="#000000"> 原作ID</text>
<polygon fill="none" stroke="#000000" points="412,-196 412,-226 726,-226 726,-196 412,-196"/>
<text text-anchor="start" x="419" y="-207.4" font-family="Arial" font-size="14.00" fill="#000000">name </text>
<text text-anchor="start" x="457.899" y="-207.4" font-family="Arial" font-size="14.00" fill="#666666">[text]</text>
<text text-anchor="start" x="488.244" y="-207.4" font-family="Arial" font-size="14.00" fill="#000000"> 名前</text>
<polygon fill="none" stroke="#000000" points="412,-166 412,-196 726,-196 726,-166 412,-166"/>
<text text-anchor="start" x="419" y="-177.4" font-family="Arial" font-size="14.00" fill="#000000">short_name </text>
<text text-anchor="start" x="496.798" y="-177.4" font-family="Arial" font-size="14.00" fill="#666666">[text]</text>
<text text-anchor="start" x="527.143" y="-177.4" font-family="Arial" font-size="14.00" fill="#000000"> 短い名前</text>
<polygon fill="none" stroke="#000000" points="412,-136 412,-166 726,-166 726,-136 412,-136"/>
<text text-anchor="start" x="419" y="-147.4" font-family="Arial" font-size="14.00" fill="#000000">product_type </text>
<text text-anchor="start" x="503.8106" y="-147.4" font-family="Arial" font-size="14.00" fill="#666666">[product_type]</text>
<text text-anchor="start" x="592.5118" y="-147.4" font-family="Arial" font-size="14.00" fill="#000000"> 原作種別</text>
<polygon fill="none" stroke="#000000" points="412,-106 412,-136 726,-136 726,-106 412,-106"/>
<text text-anchor="start" x="419" y="-117.4" font-family="Arial" font-size="14.00" fill="#000000">series_number </text>
<text text-anchor="start" x="515.4572" y="-117.4" font-family="Arial" font-size="14.00" fill="#666666">[numeric(5,2)]</text>
<text text-anchor="start" x="601.791" y="-117.4" font-family="Arial" font-size="14.00" fill="#000000"> シリーズ番号</text>
<polygon fill="none" stroke="#000000" points="412,-76 412,-106 726,-106 726,-76 412,-76"/>
<text text-anchor="start" x="418.8542" y="-87.4" font-family="Arial" font-size="14.00" fill="#000000">created_at </text>
<text text-anchor="start" x="488.8822" y="-87.4" font-family="Arial" font-size="14.00" fill="#666666">[timestamp with time zone]</text>
<text text-anchor="start" x="654.5666" y="-87.4" font-family="Arial" font-size="14.00" fill="#000000"> 作成日時</text>
<polygon fill="none" stroke="#000000" points="412,-46 412,-76 726,-76 726,-46 412,-46"/>
<text text-anchor="start" x="419" y="-57.4" font-family="Arial" font-size="14.00" fill="#000000">updated_at </text>
<text text-anchor="start" x="492.9326" y="-57.4" font-family="Arial" font-size="14.00" fill="#666666">[timestamp with time zone]</text>
<text text-anchor="start" x="658.617" y="-57.4" font-family="Arial" font-size="14.00" fill="#000000"> 更新日時</text>
<polygon fill="none" stroke="#000000" stroke-width="3" points="410.5,-44.5 410.5,-303.5 727.5,-303.5 727.5,-44.5 410.5,-44.5"/>
</g>
<!-- public.original_songs -->
<g id="node2" class="node">
<title>public.original_songs</title>
<polygon fill="#efefef" stroke="transparent" points="43,-727 43,-773 533,-773 533,-727 43,-727"/>
<polygon fill="none" stroke="#000000" points="43,-727 43,-773 533,-773 533,-727 43,-727"/>
<text text-anchor="start" x="155.3563" y="-750.8" font-family="Arial Bold" font-size="18.00" fill="#000000">public.original_songs</text>
<text text-anchor="start" x="323.3899" y="-750.8" font-family="Arial" font-size="14.00" fill="#000000"> </text>
<text text-anchor="start" x="327.2805" y="-750.8" font-family="Arial" font-size="14.00" fill="#666666">[BASE TABLE]</text>
<text text-anchor="start" x="274.3822" y="-736.4" font-family="Arial" font-size="14.00" fill="#333333">原曲</text>
<polygon fill="none" stroke="#000000" points="43,-697 43,-727 533,-727 533,-697 43,-697"/>
<text text-anchor="start" x="50" y="-708.4" font-family="Arial" font-size="14.00" fill="#000000">id </text>
<text text-anchor="start" x="64.7798" y="-708.4" font-family="Arial" font-size="14.00" fill="#666666">[text]</text>
<text text-anchor="start" x="95.1248" y="-708.4" font-family="Arial" font-size="14.00" fill="#000000"> 原曲ID</text>
<polygon fill="none" stroke="#000000" points="43,-667 43,-697 533,-697 533,-667 43,-667"/>
<text text-anchor="start" x="50" y="-678.4" font-family="Arial" font-size="14.00" fill="#000000">product_id </text>
<text text-anchor="start" x="119.244" y="-678.4" font-family="Arial" font-size="14.00" fill="#666666">[text]</text>
<text text-anchor="start" x="149.589" y="-678.4" font-family="Arial" font-size="14.00" fill="#000000"> 原作ID</text>
<polygon fill="none" stroke="#000000" points="43,-637 43,-667 533,-667 533,-637 43,-637"/>
<text text-anchor="start" x="50" y="-648.4" font-family="Arial" font-size="14.00" fill="#000000">name </text>
<text text-anchor="start" x="88.899" y="-648.4" font-family="Arial" font-size="14.00" fill="#666666">[text]</text>
<text text-anchor="start" x="119.244" y="-648.4" font-family="Arial" font-size="14.00" fill="#000000"> 名前</text>
<polygon fill="none" stroke="#000000" points="43,-607 43,-637 533,-637 533,-607 43,-607"/>
<text text-anchor="start" x="50" y="-618.4" font-family="Arial" font-size="14.00" fill="#000000">composer </text>
<text text-anchor="start" x="115.3422" y="-618.4" font-family="Arial" font-size="14.00" fill="#666666">[text]</text>
<text text-anchor="start" x="145.6872" y="-618.4" font-family="Arial" font-size="14.00" fill="#000000"> 作曲者</text>
<polygon fill="none" stroke="#000000" points="43,-577 43,-607 533,-607 533,-577 43,-577"/>
<text text-anchor="start" x="50" y="-588.4" font-family="Arial" font-size="14.00" fill="#000000">arranger </text>
<text text-anchor="start" x="106.7854" y="-588.4" font-family="Arial" font-size="14.00" fill="#666666">[text]</text>
<text text-anchor="start" x="137.1304" y="-588.4" font-family="Arial" font-size="14.00" fill="#000000"> 編曲者</text>
<polygon fill="none" stroke="#000000" points="43,-547 43,-577 533,-577 533,-547 43,-547"/>
<text text-anchor="start" x="50" y="-558.4" font-family="Arial" font-size="14.00" fill="#000000">track_number </text>
<text text-anchor="start" x="139.4586" y="-558.4" font-family="Arial" font-size="14.00" fill="#666666">[integer]</text>
<text text-anchor="start" x="190.028" y="-558.4" font-family="Arial" font-size="14.00" fill="#000000"> トラック番号</text>
<polygon fill="none" stroke="#000000" points="43,-517 43,-547 533,-547 533,-517 43,-517"/>
<text text-anchor="start" x="49.9818" y="-528.4" font-family="Arial" font-size="14.00" fill="#000000">is_original </text>
<text text-anchor="start" x="116.8724" y="-528.4" font-family="Arial" font-size="14.00" fill="#666666">[boolean]</text>
<text text-anchor="start" x="174.4558" y="-528.4" font-family="Arial" font-size="14.00" fill="#000000"> オリジナル有無(true: オリジナル(初出)、false: 再録など)</text>
<polygon fill="none" stroke="#000000" points="43,-487 43,-517 533,-517 533,-487 43,-487"/>
<text text-anchor="start" x="50" y="-498.4" font-family="Arial" font-size="14.00" fill="#000000">source_id </text>
<text text-anchor="start" x="114.5708" y="-498.4" font-family="Arial" font-size="14.00" fill="#666666">[text]</text>
<text text-anchor="start" x="144.9158" y="-498.4" font-family="Arial" font-size="14.00" fill="#000000"> 原曲元の原曲ID</text>
<polygon fill="none" stroke="#000000" points="43,-457 43,-487 533,-487 533,-457 43,-457"/>
<text text-anchor="start" x="50" y="-468.4" font-family="Arial" font-size="14.00" fill="#000000">created_at </text>
<text text-anchor="start" x="120.028" y="-468.4" font-family="Arial" font-size="14.00" fill="#666666">[timestamp with time zone]</text>
<text text-anchor="start" x="285.7124" y="-468.4" font-family="Arial" font-size="14.00" fill="#000000"> 作成日時</text>
<polygon fill="none" stroke="#000000" points="43,-427 43,-457 533,-457 533,-427 43,-427"/>
<text text-anchor="start" x="50" y="-438.4" font-family="Arial" font-size="14.00" fill="#000000">updated_at </text>
<text text-anchor="start" x="123.9326" y="-438.4" font-family="Arial" font-size="14.00" fill="#666666">[timestamp with time zone]</text>
<text text-anchor="start" x="289.617" y="-438.4" font-family="Arial" font-size="14.00" fill="#000000"> 更新日時</text>
</g>
<!-- public.original_songs&#45;&gt;public.products -->
<g id="edge1" class="edge">
<title>public.original_songs:product_id&#45;&gt;public.products:id</title>
<path fill="none" stroke="#000000" d="M543.0445,-679.874C596.2706,-655.7861 570.4254,-434.1815 533,-384 499.4565,-339.0235 445.5435,-392.9765 412,-348 383.5692,-309.8788 364.4444,-241 412,-241"/>
<polygon fill="#000000" stroke="#000000" points="542.7833,-679.9292 532.0682,-677.5975 537.8916,-680.9646 533,-682 533,-682 533,-682 537.8916,-680.9646 533.9318,-686.4025 542.7833,-679.9292 542.7833,-679.9292"/>
<text text-anchor="start" x="540.4375" y="-692" font-family="Arial" font-size="10.00" fill="#000000">FOREIGN KEY (product_id) REFERENCES products(id)</text>
</g>
<!-- public.product_distribution_service_urls -->
<g id="node3" class="node">
<title>public.product_distribution_service_urls</title>
<polygon fill="#efefef" stroke="transparent" points="637,-667 637,-713 1063,-713 1063,-667 637,-667"/>
<polygon fill="none" stroke="#000000" points="637,-667 637,-713 1063,-713 1063,-667 637,-667"/>
<text text-anchor="start" x="643.8488" y="-690.8" font-family="Arial Bold" font-size="18.00" fill="#000000">public.product_distribution_service_urls</text>
<text text-anchor="start" x="958.8974" y="-690.8" font-family="Arial" font-size="14.00" fill="#000000"> </text>
<text text-anchor="start" x="962.788" y="-690.8" font-family="Arial" font-size="14.00" fill="#666666">[BASE TABLE]</text>
<text text-anchor="start" x="741.2494" y="-676.4" font-family="Arial" font-size="14.00" fill="#333333">原作(音楽)配信サービスURL</text>
<polygon fill="none" stroke="#000000" points="637,-637 637,-667 1063,-667 1063,-637 637,-637"/>
<text text-anchor="start" x="644" y="-648.4" font-family="Arial" font-size="14.00" fill="#000000">id </text>
<text text-anchor="start" x="658.7798" y="-648.4" font-family="Arial" font-size="14.00" fill="#666666">[text]</text>
<polygon fill="none" stroke="#000000" points="637,-607 637,-637 1063,-637 1063,-607 637,-607"/>
<text text-anchor="start" x="644" y="-618.4" font-family="Arial" font-size="14.00" fill="#000000">product_id </text>
<text text-anchor="start" x="713.244" y="-618.4" font-family="Arial" font-size="14.00" fill="#666666">[text]</text>
<text text-anchor="start" x="743.589" y="-618.4" font-family="Arial" font-size="14.00" fill="#000000"> 原作ID</text>
<polygon fill="none" stroke="#000000" points="637,-577 637,-607 1063,-607 1063,-577 637,-577"/>
<text text-anchor="start" x="644" y="-588.4" font-family="Arial" font-size="14.00" fill="#000000">service </text>
<text text-anchor="start" x="692.223" y="-588.4" font-family="Arial" font-size="14.00" fill="#666666">[distribution_service]</text>
<text text-anchor="start" x="819.7938" y="-588.4" font-family="Arial" font-size="14.00" fill="#000000"> 配信サービス</text>
<polygon fill="none" stroke="#000000" points="637,-547 637,-577 1063,-577 1063,-547 637,-547"/>
<text text-anchor="start" x="644" y="-558.4" font-family="Arial" font-size="14.00" fill="#000000">url </text>
<text text-anchor="start" x="663.4404" y="-558.4" font-family="Arial" font-size="14.00" fill="#666666">[text]</text>
<text text-anchor="start" x="693.7854" y="-558.4" font-family="Arial" font-size="14.00" fill="#000000"> URL</text>
<polygon fill="none" stroke="#000000" points="637,-517 637,-547 1063,-547 1063,-517 637,-517"/>
<text text-anchor="start" x="644" y="-528.4" font-family="Arial" font-size="14.00" fill="#000000">created_at </text>
<text text-anchor="start" x="714.028" y="-528.4" font-family="Arial" font-size="14.00" fill="#666666">[timestamp with time zone]</text>
<text text-anchor="start" x="879.7124" y="-528.4" font-family="Arial" font-size="14.00" fill="#000000"> 作成日時</text>
<polygon fill="none" stroke="#000000" points="637,-487 637,-517 1063,-517 1063,-487 637,-487"/>
<text text-anchor="start" x="644" y="-498.4" font-family="Arial" font-size="14.00" fill="#000000">updated_at </text>
<text text-anchor="start" x="717.9326" y="-498.4" font-family="Arial" font-size="14.00" fill="#666666">[timestamp with time zone]</text>
<text text-anchor="start" x="883.617" y="-498.4" font-family="Arial" font-size="14.00" fill="#000000"> 更新日時</text>
</g>
<!-- public.product_distribution_service_urls&#45;&gt;public.products -->
<g id="edge2" class="edge">
<title>public.product_distribution_service_urls:product_id&#45;&gt;public.products:id</title>
<path fill="none" stroke="#000000" d="M626.712,-621.326C562.5505,-612.2845 609.467,-514.1962 637,-444 658.2447,-389.8359 704.7553,-402.1641 726,-348 743.3647,-303.7281 773.5556,-241 726,-241"/>
<polygon fill="#000000" stroke="#000000" points="627.0214,-621.3462 636.7058,-626.4904 632.0107,-621.6731 637,-622 637,-622 637,-622 632.0107,-621.6731 637.2942,-617.5096 627.0214,-621.3462 627.0214,-621.3462"/>
<text text-anchor="start" x="644.4375" y="-632" font-family="Arial" font-size="10.00" fill="#000000">FOREIGN KEY (product_id) REFERENCES products(id)</text>
</g>
</g>
</svg>
