<?xml version="1.0" encoding="UTF-8" standalone="no"?>
<!DOCTYPE svg PUBLIC "-//W3C//DTD SVG 1.1//EN"
 "http://www.w3.org/Graphics/SVG/1.1/DTD/svg11.dtd">
<!-- Generated by graphviz version 2.40.1 (20161225.0304)
 -->
<!-- Title: public.circles_genres Pages: 1 -->
<svg width="1196pt" height="944pt"
 viewBox="0.00 0.00 1195.50 944.00" xmlns="http://www.w3.org/2000/svg" xmlns:xlink="http://www.w3.org/1999/xlink">
<g id="graph0" class="graph" transform="scale(1 1) rotate(0) translate(4 940)">
<title>public.circles_genres</title>
<polygon fill="#ffffff" stroke="transparent" points="-4,4 -4,-940 1191.5,-940 1191.5,4 -4,4"/>
<!-- public.circles_genres -->
<g id="node1" class="node">
<title>public.circles_genres</title>
<polygon fill="#efefef" stroke="transparent" points="512.5,-844 512.5,-890 829.5,-890 829.5,-844 512.5,-844"/>
<polygon fill="none" stroke="#000000" points="512.5,-844 512.5,-890 829.5,-890 829.5,-844 512.5,-844"/>
<text text-anchor="start" x="523.2064" y="-867.8" font-family="Arial Bold" font-size="18.00" fill="#000000">public.circles_genres</text>
<text text-anchor="start" x="691.2256" y="-867.8" font-family="Arial" font-size="14.00" fill="#000000">    </text>
<text text-anchor="start" x="725.4304" y="-867.8" font-family="Arial" font-size="14.00" fill="#666666">[BASE TABLE]</text>
<text text-anchor="start" x="605.1594" y="-853.4" font-family="Arial" font-size="14.00" fill="#333333">サークルジャンル</text>
<polygon fill="none" stroke="#000000" points="512.5,-814 512.5,-844 829.5,-844 829.5,-814 512.5,-814"/>
<text text-anchor="start" x="519.5" y="-825.4" font-family="Arial" font-size="14.00" fill="#000000">id </text>
<text text-anchor="start" x="534.2798" y="-825.4" font-family="Arial" font-size="14.00" fill="#666666">[text]</text>
<text text-anchor="start" x="564.6248" y="-825.4" font-family="Arial" font-size="14.00" fill="#000000"> サークルジャンルID</text>
<polygon fill="none" stroke="#000000" points="512.5,-784 512.5,-814 829.5,-814 829.5,-784 512.5,-784"/>
<text text-anchor="start" x="519.5" y="-795.4" font-family="Arial" font-size="14.00" fill="#000000">created_at </text>
<text text-anchor="start" x="589.528" y="-795.4" font-family="Arial" font-size="14.00" fill="#666666">[timestamp with time zone]</text>
<text text-anchor="start" x="755.2124" y="-795.4" font-family="Arial" font-size="14.00" fill="#000000"> 作成日時</text>
<polygon fill="none" stroke="#000000" points="512.5,-754 512.5,-784 829.5,-784 829.5,-754 512.5,-754"/>
<text text-anchor="start" x="519.5" y="-765.4" font-family="Arial" font-size="14.00" fill="#000000">updated_at </text>
<text text-anchor="start" x="593.4326" y="-765.4" font-family="Arial" font-size="14.00" fill="#666666">[timestamp with time zone]</text>
<text text-anchor="start" x="759.117" y="-765.4" font-family="Arial" font-size="14.00" fill="#000000"> 更新日時</text>
<polygon fill="none" stroke="#000000" points="512.5,-724 512.5,-754 829.5,-754 829.5,-724 512.5,-724"/>
<text text-anchor="start" x="519.5" y="-735.4" font-family="Arial" font-size="14.00" fill="#000000">circle_id </text>
<text text-anchor="start" x="574.7188" y="-735.4" font-family="Arial" font-size="14.00" fill="#666666">[text]</text>
<text text-anchor="start" x="605.0638" y="-735.4" font-family="Arial" font-size="14.00" fill="#000000"> サークルID</text>
<polygon fill="none" stroke="#000000" points="512.5,-694 512.5,-724 829.5,-724 829.5,-694 512.5,-694"/>
<text text-anchor="start" x="519.5" y="-705.4" font-family="Arial" font-size="14.00" fill="#000000">genre_id </text>
<text text-anchor="start" x="577.8534" y="-705.4" font-family="Arial" font-size="14.00" fill="#666666">[text]</text>
<text text-anchor="start" x="608.1984" y="-705.4" font-family="Arial" font-size="14.00" fill="#000000"> ジャンルID</text>
<polygon fill="none" stroke="#000000" points="512.5,-664 512.5,-694 829.5,-694 829.5,-664 512.5,-664"/>
<text text-anchor="start" x="519.3149" y="-675.4" font-family="Arial" font-size="14.00" fill="#000000">locked_at </text>
<text text-anchor="start" x="583.1157" y="-675.4" font-family="Arial" font-size="14.00" fill="#666666">[timestamp with time zone]</text>
<text text-anchor="start" x="748.8001" y="-675.4" font-family="Arial" font-size="14.00" fill="#000000"> ロック日時</text>
<polygon fill="none" stroke="#000000" stroke-width="3" points="510.5,-662.5 510.5,-891.5 830.5,-891.5 830.5,-662.5 510.5,-662.5"/>
</g>
<!-- public.circles -->
<g id="node2" class="node">
<title>public.circles</title>
<polygon fill="#efefef" stroke="transparent" points="43.5,-493 43.5,-539 696.5,-539 696.5,-493 43.5,-493"/>
<polygon fill="none" stroke="#000000" points="43.5,-493 43.5,-539 696.5,-539 696.5,-493 43.5,-493"/>
<text text-anchor="start" x="254.718" y="-516.8" font-family="Arial Bold" font-size="18.00" fill="#000000">public.circles</text>
<text text-anchor="start" x="357.714" y="-516.8" font-family="Arial" font-size="14.00" fill="#000000">    </text>
<text text-anchor="start" x="391.9188" y="-516.8" font-family="Arial" font-size="14.00" fill="#666666">[BASE TABLE]</text>
<text text-anchor="start" x="335.525" y="-502.4" font-family="Arial" font-size="14.00" fill="#333333">サークル</text>
<polygon fill="none" stroke="#000000" points="43.5,-463 43.5,-493 696.5,-493 696.5,-463 43.5,-463"/>
<text text-anchor="start" x="50.5" y="-474.4" font-family="Arial" font-size="14.00" fill="#000000">id    </text>
<text text-anchor="start" x="95.594" y="-474.4" font-family="Arial" font-size="14.00" fill="#666666">[text]</text>
<text text-anchor="start" x="125.939" y="-474.4" font-family="Arial" font-size="14.00" fill="#000000"> サークルID</text>
<polygon fill="none" stroke="#000000" points="43.5,-433 43.5,-463 696.5,-463 696.5,-433 43.5,-433"/>
<text text-anchor="start" x="50.5" y="-444.4" font-family="Arial" font-size="14.00" fill="#000000">created_at    </text>
<text text-anchor="start" x="150.8422" y="-444.4" font-family="Arial" font-size="14.00" fill="#666666">[timestamp with time zone]</text>
<text text-anchor="start" x="316.5266" y="-444.4" font-family="Arial" font-size="14.00" fill="#000000"> 作成日時</text>
<polygon fill="none" stroke="#000000" points="43.5,-403 43.5,-433 696.5,-433 696.5,-403 43.5,-403"/>
<text text-anchor="start" x="50.5" y="-414.4" font-family="Arial" font-size="14.00" fill="#000000">updated_at    </text>
<text text-anchor="start" x="154.7468" y="-414.4" font-family="Arial" font-size="14.00" fill="#666666">[timestamp with time zone]</text>
<text text-anchor="start" x="320.4312" y="-414.4" font-family="Arial" font-size="14.00" fill="#000000"> 更新日時</text>
<polygon fill="none" stroke="#000000" points="43.5,-373 43.5,-403 696.5,-403 696.5,-373 43.5,-373"/>
<text text-anchor="start" x="50.5" y="-384.4" font-family="Arial" font-size="14.00" fill="#000000">name    </text>
<text text-anchor="start" x="119.7132" y="-384.4" font-family="Arial" font-size="14.00" fill="#666666">[text]</text>
<text text-anchor="start" x="150.0582" y="-384.4" font-family="Arial" font-size="14.00" fill="#000000"> 名前</text>
<polygon fill="none" stroke="#000000" points="43.5,-343 43.5,-373 696.5,-373 696.5,-343 43.5,-343"/>
<text text-anchor="start" x="50.5" y="-354.4" font-family="Arial" font-size="14.00" fill="#000000">name_reading    </text>
<text text-anchor="start" x="174.176" y="-354.4" font-family="Arial" font-size="14.00" fill="#666666">[text]</text>
<text text-anchor="start" x="204.521" y="-354.4" font-family="Arial" font-size="14.00" fill="#000000"> 名前読み方</text>
<polygon fill="none" stroke="#000000" points="43.5,-313 43.5,-343 696.5,-343 696.5,-313 43.5,-313"/>
<text text-anchor="start" x="50.5" y="-324.4" font-family="Arial" font-size="14.00" fill="#000000">slug    </text>
<text text-anchor="start" x="110.3766" y="-324.4" font-family="Arial" font-size="14.00" fill="#666666">[text]</text>
<text text-anchor="start" x="140.7216" y="-324.4" font-family="Arial" font-size="14.00" fill="#000000"> スラッグ</text>
<polygon fill="none" stroke="#000000" points="43.5,-283 43.5,-313 696.5,-313 696.5,-283 43.5,-283"/>
<text text-anchor="start" x="50.4192" y="-294.4" font-family="Arial" font-size="14.00" fill="#000000">initial_letter_type    </text>
<text text-anchor="start" x="189.6408" y="-294.4" font-family="Arial" font-size="14.00" fill="#666666">[initial_letter_type]</text>
<text text-anchor="start" x="302.4388" y="-294.4" font-family="Arial" font-size="14.00" fill="#000000"> 頭文字の文字種別(symbol,number,alphabet,kana,kanji,other)</text>
<polygon fill="none" stroke="#000000" points="43.5,-253 43.5,-283 696.5,-283 696.5,-253 43.5,-253"/>
<text text-anchor="start" x="50.5" y="-264.4" font-family="Arial" font-size="14.00" fill="#000000">initial_letter_detail    </text>
<text text-anchor="start" x="196.7174" y="-264.4" font-family="Arial" font-size="14.00" fill="#666666">[text]</text>
<text text-anchor="start" x="227.0624" y="-264.4" font-family="Arial" font-size="14.00" fill="#000000"> 頭文字の文字種別詳細</text>
<polygon fill="none" stroke="#000000" points="43.5,-223 43.5,-253 696.5,-253 696.5,-223 43.5,-223"/>
<text text-anchor="start" x="50.5" y="-234.4" font-family="Arial" font-size="14.00" fill="#000000">description    </text>
<text text-anchor="start" x="152.3822" y="-234.4" font-family="Arial" font-size="14.00" fill="#666666">[text]</text>
<text text-anchor="start" x="182.7272" y="-234.4" font-family="Arial" font-size="14.00" fill="#000000"> 説明</text>
<polygon fill="none" stroke="#000000" points="43.5,-193 43.5,-223 696.5,-223 696.5,-193 43.5,-193"/>
<text text-anchor="start" x="50.5" y="-204.4" font-family="Arial" font-size="14.00" fill="#000000">url    </text>
<text text-anchor="start" x="100.2546" y="-204.4" font-family="Arial" font-size="14.00" fill="#666666">[text]</text>
<text text-anchor="start" x="130.5996" y="-204.4" font-family="Arial" font-size="14.00" fill="#000000"> URL</text>
<polygon fill="none" stroke="#000000" points="43.5,-163 43.5,-193 696.5,-193 696.5,-163 43.5,-163"/>
<text text-anchor="start" x="50.5" y="-174.4" font-family="Arial" font-size="14.00" fill="#000000">blog_url    </text>
<text text-anchor="start" x="134.4916" y="-174.4" font-family="Arial" font-size="14.00" fill="#666666">[text]</text>
<text text-anchor="start" x="164.8366" y="-174.4" font-family="Arial" font-size="14.00" fill="#000000"> ブログ URL</text>
<polygon fill="none" stroke="#000000" points="43.5,-133 43.5,-163 696.5,-163 696.5,-133 43.5,-133"/>
<text text-anchor="start" x="50.5" y="-144.4" font-family="Arial" font-size="14.00" fill="#000000">twitter_url    </text>
<text text-anchor="start" x="145.3654" y="-144.4" font-family="Arial" font-size="14.00" fill="#666666">[text]</text>
<text text-anchor="start" x="175.7104" y="-144.4" font-family="Arial" font-size="14.00" fill="#000000"> Twitter URL</text>
<polygon fill="none" stroke="#000000" points="43.5,-103 43.5,-133 696.5,-133 696.5,-103 43.5,-103"/>
<text text-anchor="start" x="50.5" y="-114.4" font-family="Arial" font-size="14.00" fill="#000000">youtube_channel_url    </text>
<text text-anchor="start" x="214.643" y="-114.4" font-family="Arial" font-size="14.00" fill="#666666">[text]</text>
<text text-anchor="start" x="244.988" y="-114.4" font-family="Arial" font-size="14.00" fill="#000000"> YouTubeチャンネル URL</text>
<polygon fill="none" stroke="#000000" points="43.5,-73 43.5,-103 696.5,-103 696.5,-73 43.5,-73"/>
<text text-anchor="start" x="50.5" y="-84.4" font-family="Arial" font-size="14.00" fill="#000000">published_at    </text>
<text text-anchor="start" x="164.0694" y="-84.4" font-family="Arial" font-size="14.00" fill="#666666">[timestamp with time zone]</text>
<text text-anchor="start" x="329.7538" y="-84.4" font-family="Arial" font-size="14.00" fill="#000000"> 公開日時</text>
<polygon fill="none" stroke="#000000" points="43.5,-43 43.5,-73 696.5,-73 696.5,-43 43.5,-43"/>
<text text-anchor="start" x="50.5" y="-54.4" font-family="Arial" font-size="14.00" fill="#000000">archived_at    </text>
<text text-anchor="start" x="157.0582" y="-54.4" font-family="Arial" font-size="14.00" fill="#666666">[timestamp with time zone]</text>
<text text-anchor="start" x="322.7426" y="-54.4" font-family="Arial" font-size="14.00" fill="#000000"> アーカイブ日時</text>
</g>
<!-- public.circles_genres&#45;&gt;public.circles -->
<g id="edge1" class="edge">
<title>public.circles_genres:circle_id&#45;&gt;public.circles:id</title>
<path fill="none" stroke="#000000" d="M502.4812,-737.9232C461.4696,-728.3106 480.6552,-656.6791 512.5,-618 565.4639,-553.6694 643.5361,-646.3306 696.5,-582 725.8791,-546.3158 742.7222,-478 696.5,-478"/>
<polygon fill="#000000" stroke="#000000" points="502.5573,-737.9313 512.0191,-743.4742 507.5286,-738.4657 512.5,-739 512.5,-739 512.5,-739 507.5286,-738.4657 512.9809,-734.5258 502.5573,-737.9313 502.5573,-737.9313"/>
<text text-anchor="start" x="274.9555" y="-749" font-family="Arial" font-size="10.00" fill="#000000">FOREIGN KEY (circle_id) REFERENCES circles(id)</text>
</g>
<!-- public.genres -->
<g id="node3" class="node">
<title>public.genres</title>
<polygon fill="#efefef" stroke="transparent" points="800.5,-328 800.5,-374 1144.5,-374 1144.5,-328 800.5,-328"/>
<polygon fill="none" stroke="#000000" points="800.5,-328 800.5,-374 1144.5,-374 1144.5,-328 800.5,-328"/>
<text text-anchor="start" x="855.2029" y="-351.8" font-family="Arial Bold" font-size="18.00" fill="#000000">public.genres</text>
<text text-anchor="start" x="962.2291" y="-351.8" font-family="Arial" font-size="14.00" fill="#000000">    </text>
<text text-anchor="start" x="996.4339" y="-351.8" font-family="Arial" font-size="14.00" fill="#666666">[BASE TABLE]</text>
<text text-anchor="start" x="941.1344" y="-337.4" font-family="Arial" font-size="14.00" fill="#333333">ジャンル</text>
<polygon fill="none" stroke="#000000" points="800.5,-298 800.5,-328 1144.5,-328 1144.5,-298 800.5,-298"/>
<text text-anchor="start" x="807.5" y="-309.4" font-family="Arial" font-size="14.00" fill="#000000">id    </text>
<text text-anchor="start" x="852.594" y="-309.4" font-family="Arial" font-size="14.00" fill="#666666">[text]</text>
<text text-anchor="start" x="882.939" y="-309.4" font-family="Arial" font-size="14.00" fill="#000000"> ジャンルID</text>
<polygon fill="none" stroke="#000000" points="800.5,-268 800.5,-298 1144.5,-298 1144.5,-268 800.5,-268"/>
<text text-anchor="start" x="807.1971" y="-279.4" font-family="Arial" font-size="14.00" fill="#000000">created_at    </text>
<text text-anchor="start" x="907.5393" y="-279.4" font-family="Arial" font-size="14.00" fill="#666666">[timestamp with time zone]</text>
<text text-anchor="start" x="1073.2237" y="-279.4" font-family="Arial" font-size="14.00" fill="#000000"> 作成日時</text>
<polygon fill="none" stroke="#000000" points="800.5,-238 800.5,-268 1144.5,-268 1144.5,-238 800.5,-238"/>
<text text-anchor="start" x="807.5" y="-249.4" font-family="Arial" font-size="14.00" fill="#000000">updated_at    </text>
<text text-anchor="start" x="911.7468" y="-249.4" font-family="Arial" font-size="14.00" fill="#666666">[timestamp with time zone]</text>
<text text-anchor="start" x="1077.4312" y="-249.4" font-family="Arial" font-size="14.00" fill="#000000"> 更新日時</text>
<polygon fill="none" stroke="#000000" points="800.5,-208 800.5,-238 1144.5,-238 1144.5,-208 800.5,-208"/>
<text text-anchor="start" x="807.5" y="-219.4" font-family="Arial" font-size="14.00" fill="#000000">name    </text>
<text text-anchor="start" x="876.7132" y="-219.4" font-family="Arial" font-size="14.00" fill="#666666">[text]</text>
<text text-anchor="start" x="907.0582" y="-219.4" font-family="Arial" font-size="14.00" fill="#000000"> 名前</text>
</g>
<!-- public.circles_genres&#45;&gt;public.genres -->
<g id="edge2" class="edge">
<title>public.circles_genres:genre_id&#45;&gt;public.genres:id</title>
<path fill="none" stroke="#000000" d="M839.6622,-708.5072C990.5405,-692.9244 627.6477,-313 800.5,-313"/>
<polygon fill="#000000" stroke="#000000" points="839.4883,-708.5155 829.282,-704.5053 834.4941,-708.7578 829.5,-709 829.5,-709 829.5,-709 834.4941,-708.7578 829.718,-713.4947 839.4883,-708.5155 839.4883,-708.5155"/>
<text text-anchor="start" x="836.7165" y="-719" font-family="Arial" font-size="10.00" fill="#000000">FOREIGN KEY (genre_id) REFERENCES genres(id)</text>
</g>
</g>
</svg>
