<?xml version="1.0" encoding="UTF-8" standalone="no"?>
<!DOCTYPE svg PUBLIC "-//W3C//DTD SVG 1.1//EN"
 "http://www.w3.org/Graphics/SVG/1.1/DTD/svg11.dtd">
<!-- Generated by graphviz version 2.40.1 (20161225.0304)
 -->
<!-- Title: public.original_song_distribution_service_urls Pages: 1 -->
<svg width="879pt" height="794pt"
 viewBox="0.00 0.00 879.00 794.00" xmlns="http://www.w3.org/2000/svg" xmlns:xlink="http://www.w3.org/1999/xlink">
<g id="graph0" class="graph" transform="scale(1 1) rotate(0) translate(4 790)">
<title>public.original_song_distribution_service_urls</title>
<polygon fill="#ffffff" stroke="transparent" points="-4,4 -4,-790 875,-790 875,4 -4,4"/>
<!-- public.original_song_distribution_service_urls -->
<g id="node1" class="node">
<title>public.original_song_distribution_service_urls</title>
<polygon fill="#efefef" stroke="transparent" points="51,-694 51,-740 554,-740 554,-694 51,-694"/>
<polygon fill="none" stroke="#000000" points="51,-694 51,-740 554,-740 554,-694 51,-694"/>
<text text-anchor="start" x="57.6891" y="-717.8" font-family="Arial Bold" font-size="18.00" fill="#000000">public.original_song_distribution_service_urls</text>
<text text-anchor="start" x="419.7429" y="-717.8" font-family="Arial" font-size="14.00" fill="#000000">    </text>
<text text-anchor="start" x="453.9477" y="-717.8" font-family="Arial" font-size="14.00" fill="#666666">[BASE TABLE]</text>
<text text-anchor="start" x="225.6372" y="-703.4" font-family="Arial" font-size="14.00" fill="#333333">原曲配信サービスURL</text>
<polygon fill="none" stroke="#000000" points="51,-664 51,-694 554,-694 554,-664 51,-664"/>
<text text-anchor="start" x="58" y="-675.4" font-family="Arial" font-size="14.00" fill="#000000">id </text>
<text text-anchor="start" x="72.7798" y="-675.4" font-family="Arial" font-size="14.00" fill="#666666">[text]</text>
<polygon fill="none" stroke="#000000" points="51,-634 51,-664 554,-664 554,-634 51,-634"/>
<text text-anchor="start" x="58" y="-645.4" font-family="Arial" font-size="14.00" fill="#000000">original_song_id </text>
<text text-anchor="start" x="163.8036" y="-645.4" font-family="Arial" font-size="14.00" fill="#666666">[text]</text>
<text text-anchor="start" x="194.1486" y="-645.4" font-family="Arial" font-size="14.00" fill="#000000"> 原曲ID</text>
<polygon fill="none" stroke="#000000" points="51,-604 51,-634 554,-634 554,-604 51,-604"/>
<text text-anchor="start" x="58" y="-615.4" font-family="Arial" font-size="14.00" fill="#000000">service </text>
<text text-anchor="start" x="106.223" y="-615.4" font-family="Arial" font-size="14.00" fill="#666666">[distribution_service]</text>
<text text-anchor="start" x="233.7938" y="-615.4" font-family="Arial" font-size="14.00" fill="#000000"> 配信サービス</text>
<polygon fill="none" stroke="#000000" points="51,-574 51,-604 554,-604 554,-574 51,-574"/>
<text text-anchor="start" x="58" y="-585.4" font-family="Arial" font-size="14.00" fill="#000000">url </text>
<text text-anchor="start" x="77.4404" y="-585.4" font-family="Arial" font-size="14.00" fill="#666666">[text]</text>
<text text-anchor="start" x="107.7854" y="-585.4" font-family="Arial" font-size="14.00" fill="#000000"> URL</text>
<polygon fill="none" stroke="#000000" points="51,-544 51,-574 554,-574 554,-544 51,-544"/>
<text text-anchor="start" x="58" y="-555.4" font-family="Arial" font-size="14.00" fill="#000000">created_at </text>
<text text-anchor="start" x="128.028" y="-555.4" font-family="Arial" font-size="14.00" fill="#666666">[timestamp with time zone]</text>
<text text-anchor="start" x="293.7124" y="-555.4" font-family="Arial" font-size="14.00" fill="#000000"> 作成日時</text>
<polygon fill="none" stroke="#000000" points="51,-514 51,-544 554,-544 554,-514 51,-514"/>
<text text-anchor="start" x="58" y="-525.4" font-family="Arial" font-size="14.00" fill="#000000">updated_at </text>
<text text-anchor="start" x="131.9326" y="-525.4" font-family="Arial" font-size="14.00" fill="#666666">[timestamp with time zone]</text>
<text text-anchor="start" x="297.617" y="-525.4" font-family="Arial" font-size="14.00" fill="#000000"> 更新日時</text>
<polygon fill="none" stroke="#000000" stroke-width="3" points="49,-512.5 49,-741.5 555,-741.5 555,-512.5 49,-512.5"/>
</g>
<!-- public.original_songs -->
<g id="node2" class="node">
<title>public.original_songs</title>
<polygon fill="#efefef" stroke="transparent" points="43,-343 43,-389 563,-389 563,-343 43,-343"/>
<polygon fill="none" stroke="#000000" points="43,-343 43,-389 563,-389 563,-343 43,-343"/>
<text text-anchor="start" x="155.1992" y="-366.8" font-family="Arial Bold" font-size="18.00" fill="#000000">public.original_songs</text>
<text text-anchor="start" x="323.2328" y="-366.8" font-family="Arial" font-size="14.00" fill="#000000">    </text>
<text text-anchor="start" x="357.4376" y="-366.8" font-family="Arial" font-size="14.00" fill="#666666">[BASE TABLE]</text>
<text text-anchor="start" x="289.3822" y="-352.4" font-family="Arial" font-size="14.00" fill="#333333">原曲</text>
<polygon fill="none" stroke="#000000" points="43,-313 43,-343 563,-343 563,-313 43,-313"/>
<text text-anchor="start" x="50" y="-324.4" font-family="Arial" font-size="14.00" fill="#000000">id    </text>
<text text-anchor="start" x="95.094" y="-324.4" font-family="Arial" font-size="14.00" fill="#666666">[text]</text>
<text text-anchor="start" x="125.439" y="-324.4" font-family="Arial" font-size="14.00" fill="#000000"> 原曲ID</text>
<polygon fill="none" stroke="#000000" points="43,-283 43,-313 563,-313 563,-283 43,-283"/>
<text text-anchor="start" x="50" y="-294.4" font-family="Arial" font-size="14.00" fill="#000000">product_id    </text>
<text text-anchor="start" x="149.5582" y="-294.4" font-family="Arial" font-size="14.00" fill="#666666">[text]</text>
<text text-anchor="start" x="179.9032" y="-294.4" font-family="Arial" font-size="14.00" fill="#000000"> 原作ID</text>
<polygon fill="none" stroke="#000000" points="43,-253 43,-283 563,-283 563,-253 43,-253"/>
<text text-anchor="start" x="50" y="-264.4" font-family="Arial" font-size="14.00" fill="#000000">name    </text>
<text text-anchor="start" x="119.2132" y="-264.4" font-family="Arial" font-size="14.00" fill="#666666">[text]</text>
<text text-anchor="start" x="149.5582" y="-264.4" font-family="Arial" font-size="14.00" fill="#000000"> 名前</text>
<polygon fill="none" stroke="#000000" points="43,-223 43,-253 563,-253 563,-223 43,-223"/>
<text text-anchor="start" x="50" y="-234.4" font-family="Arial" font-size="14.00" fill="#000000">composer    </text>
<text text-anchor="start" x="145.6564" y="-234.4" font-family="Arial" font-size="14.00" fill="#666666">[text]</text>
<text text-anchor="start" x="176.0014" y="-234.4" font-family="Arial" font-size="14.00" fill="#000000"> 作曲者</text>
<polygon fill="none" stroke="#000000" points="43,-193 43,-223 563,-223 563,-193 43,-193"/>
<text text-anchor="start" x="50" y="-204.4" font-family="Arial" font-size="14.00" fill="#000000">arranger    </text>
<text text-anchor="start" x="137.0996" y="-204.4" font-family="Arial" font-size="14.00" fill="#666666">[text]</text>
<text text-anchor="start" x="167.4446" y="-204.4" font-family="Arial" font-size="14.00" fill="#000000"> 編曲者</text>
<polygon fill="none" stroke="#000000" points="43,-163 43,-193 563,-193 563,-163 43,-163"/>
<text text-anchor="start" x="50" y="-174.4" font-family="Arial" font-size="14.00" fill="#000000">track_number    </text>
<text text-anchor="start" x="169.7728" y="-174.4" font-family="Arial" font-size="14.00" fill="#666666">[integer]</text>
<text text-anchor="start" x="220.3422" y="-174.4" font-family="Arial" font-size="14.00" fill="#000000"> トラック番号</text>
<polygon fill="none" stroke="#000000" points="43,-133 43,-163 563,-163 563,-133 43,-133"/>
<text text-anchor="start" x="49.8247" y="-144.4" font-family="Arial" font-size="14.00" fill="#000000">is_original    </text>
<text text-anchor="start" x="147.0295" y="-144.4" font-family="Arial" font-size="14.00" fill="#666666">[boolean]</text>
<text text-anchor="start" x="204.6129" y="-144.4" font-family="Arial" font-size="14.00" fill="#000000"> オリジナル有無(true: オリジナル(初出)、false: 再録など)</text>
<polygon fill="none" stroke="#000000" points="43,-103 43,-133 563,-133 563,-103 43,-103"/>
<text text-anchor="start" x="50" y="-114.4" font-family="Arial" font-size="14.00" fill="#000000">source_id    </text>
<text text-anchor="start" x="144.885" y="-114.4" font-family="Arial" font-size="14.00" fill="#666666">[text]</text>
<text text-anchor="start" x="175.23" y="-114.4" font-family="Arial" font-size="14.00" fill="#000000"> 原曲元の原曲ID</text>
<polygon fill="none" stroke="#000000" points="43,-73 43,-103 563,-103 563,-73 43,-73"/>
<text text-anchor="start" x="50" y="-84.4" font-family="Arial" font-size="14.00" fill="#000000">created_at    </text>
<text text-anchor="start" x="150.3422" y="-84.4" font-family="Arial" font-size="14.00" fill="#666666">[timestamp with time zone]</text>
<text text-anchor="start" x="316.0266" y="-84.4" font-family="Arial" font-size="14.00" fill="#000000"> 作成日時</text>
<polygon fill="none" stroke="#000000" points="43,-43 43,-73 563,-73 563,-43 43,-43"/>
<text text-anchor="start" x="50" y="-54.4" font-family="Arial" font-size="14.00" fill="#000000">updated_at    </text>
<text text-anchor="start" x="154.2468" y="-54.4" font-family="Arial" font-size="14.00" fill="#666666">[timestamp with time zone]</text>
<text text-anchor="start" x="319.9312" y="-54.4" font-family="Arial" font-size="14.00" fill="#000000"> 更新日時</text>
</g>
<!-- public.original_song_distribution_service_urls&#45;&gt;public.original_songs -->
<g id="edge1" class="edge">
<title>public.original_song_distribution_service_urls:original_song_id&#45;&gt;public.original_songs:id</title>
<path fill="none" stroke="#000000" d="M564.2061,-648.2773C632.0857,-638.1531 606.3838,-524.2041 554,-468 476.385,-384.7247 120.615,-515.2753 43,-432 11.4853,-398.187 -3.2222,-328 43,-328"/>
<polygon fill="#000000" stroke="#000000" points="563.975,-648.2936 553.6821,-644.5112 558.9875,-648.6468 554,-649 554,-649 554,-649 558.9875,-648.6468 554.3179,-653.4888 563.975,-648.2936 563.975,-648.2936"/>
<text text-anchor="start" x="561.3235" y="-659" font-family="Arial" font-size="10.00" fill="#000000">FOREIGN KEY (original_song_id) REFERENCES original_songs(id)</text>
</g>
</g>
</svg>
