<?xml version="1.0" encoding="UTF-8" standalone="no"?>
<!DOCTYPE svg PUBLIC "-//W3C//DTD SVG 1.1//EN"
 "http://www.w3.org/Graphics/SVG/1.1/DTD/svg11.dtd">
<!-- Generated by graphviz version 2.40.1 (20161225.0304)
 -->
<!-- Title: public.tracks_tags Pages: 1 -->
<svg width="998pt" height="734pt"
 viewBox="0.00 0.00 998.00 734.00" xmlns="http://www.w3.org/2000/svg" xmlns:xlink="http://www.w3.org/1999/xlink">
<g id="graph0" class="graph" transform="scale(1 1) rotate(0) translate(4 730)">
<title>public.tracks_tags</title>
<polygon fill="#ffffff" stroke="transparent" points="-4,4 -4,-730 994,-730 994,4 -4,4"/>
<!-- public.tracks_tags -->
<g id="node1" class="node">
<title>public.tracks_tags</title>
<polygon fill="#efefef" stroke="transparent" points="296,-634 296,-680 764,-680 764,-634 296,-634"/>
<polygon fill="none" stroke="#000000" points="296,-634 296,-680 764,-680 764,-634 296,-634"/>
<text text-anchor="start" x="409.3578" y="-657.8" font-family="Arial Bold" font-size="18.00" fill="#000000">public.tracks_tags</text>
<text text-anchor="start" x="553.3884" y="-657.8" font-family="Arial" font-size="14.00" fill="#000000"> </text>
<text text-anchor="start" x="557.279" y="-657.8" font-family="Arial" font-size="14.00" fill="#666666">[BASE TABLE]</text>
<text text-anchor="start" x="494.0907" y="-643.4" font-family="Arial" font-size="14.00" fill="#333333">楽曲タグ</text>
<polygon fill="none" stroke="#000000" points="296,-604 296,-634 764,-634 764,-604 296,-604"/>
<text text-anchor="start" x="303" y="-615.4" font-family="Arial" font-size="14.00" fill="#000000">track_id </text>
<text text-anchor="start" x="355.8962" y="-615.4" font-family="Arial" font-size="14.00" fill="#666666">[text]</text>
<text text-anchor="start" x="386.2412" y="-615.4" font-family="Arial" font-size="14.00" fill="#000000"> トラックID</text>
<polygon fill="none" stroke="#000000" points="296,-574 296,-604 764,-604 764,-574 296,-574"/>
<text text-anchor="start" x="303" y="-585.4" font-family="Arial" font-size="14.00" fill="#000000">tag_id </text>
<text text-anchor="start" x="345.0182" y="-585.4" font-family="Arial" font-size="14.00" fill="#666666">[text]</text>
<text text-anchor="start" x="375.3632" y="-585.4" font-family="Arial" font-size="14.00" fill="#000000"> タグID</text>
<polygon fill="none" stroke="#000000" points="296,-544 296,-574 764,-574 764,-544 296,-544"/>
<text text-anchor="start" x="302.6274" y="-555.4" font-family="Arial" font-size="14.00" fill="#000000">locked </text>
<text text-anchor="start" x="346.9724" y="-555.4" font-family="Arial" font-size="14.00" fill="#666666">[boolean]</text>
<text text-anchor="start" x="404.5558" y="-555.4" font-family="Arial" font-size="14.00" fill="#000000"> ロック有無(true: ロック・削除不可、false: アンロック)</text>
<polygon fill="none" stroke="#000000" points="296,-514 296,-544 764,-544 764,-514 296,-514"/>
<text text-anchor="start" x="303" y="-525.4" font-family="Arial" font-size="14.00" fill="#000000">created_at </text>
<text text-anchor="start" x="373.028" y="-525.4" font-family="Arial" font-size="14.00" fill="#666666">[timestamp with time zone]</text>
<text text-anchor="start" x="538.7124" y="-525.4" font-family="Arial" font-size="14.00" fill="#000000"> 作成日時</text>
<polygon fill="none" stroke="#000000" points="296,-484 296,-514 764,-514 764,-484 296,-484"/>
<text text-anchor="start" x="303" y="-495.4" font-family="Arial" font-size="14.00" fill="#000000">updated_at </text>
<text text-anchor="start" x="376.9326" y="-495.4" font-family="Arial" font-size="14.00" fill="#666666">[timestamp with time zone]</text>
<text text-anchor="start" x="542.617" y="-495.4" font-family="Arial" font-size="14.00" fill="#000000"> 更新日時</text>
<polygon fill="none" stroke="#000000" stroke-width="3" points="294.5,-482.5 294.5,-681.5 765.5,-681.5 765.5,-482.5 294.5,-482.5"/>
</g>
<!-- public.tracks -->
<g id="node2" class="node">
<title>public.tracks</title>
<polygon fill="#efefef" stroke="transparent" points="43,-313 43,-359 519,-359 519,-313 43,-313"/>
<polygon fill="none" stroke="#000000" points="43,-313 43,-359 519,-359 519,-313 43,-313"/>
<text text-anchor="start" x="182.3682" y="-336.8" font-family="Arial Bold" font-size="18.00" fill="#000000">public.tracks</text>
<text text-anchor="start" x="282.378" y="-336.8" font-family="Arial" font-size="14.00" fill="#000000"> </text>
<text text-anchor="start" x="286.2686" y="-336.8" font-family="Arial" font-size="14.00" fill="#666666">[BASE TABLE]</text>
<text text-anchor="start" x="254.1347" y="-322.4" font-family="Arial" font-size="14.00" fill="#333333">トラック</text>
<polygon fill="none" stroke="#000000" points="43,-283 43,-313 519,-313 519,-283 43,-283"/>
<text text-anchor="start" x="50" y="-294.4" font-family="Arial" font-size="14.00" fill="#000000">id </text>
<text text-anchor="start" x="64.7798" y="-294.4" font-family="Arial" font-size="14.00" fill="#666666">[text]</text>
<polygon fill="none" stroke="#000000" points="43,-253 43,-283 519,-283 519,-253 43,-253"/>
<text text-anchor="start" x="50" y="-264.4" font-family="Arial" font-size="14.00" fill="#000000">album_id </text>
<text text-anchor="start" x="110.6774" y="-264.4" font-family="Arial" font-size="14.00" fill="#666666">[text]</text>
<text text-anchor="start" x="141.0224" y="-264.4" font-family="Arial" font-size="14.00" fill="#000000"> アルバムID</text>
<polygon fill="none" stroke="#000000" points="43,-223 43,-253 519,-253 519,-223 43,-223"/>
<text text-anchor="start" x="50" y="-234.4" font-family="Arial" font-size="14.00" fill="#000000">name </text>
<text text-anchor="start" x="88.899" y="-234.4" font-family="Arial" font-size="14.00" fill="#666666">[text]</text>
<text text-anchor="start" x="119.244" y="-234.4" font-family="Arial" font-size="14.00" fill="#000000"> 名前</text>
<polygon fill="none" stroke="#000000" points="43,-193 43,-223 519,-223 519,-193 43,-193"/>
<text text-anchor="start" x="50" y="-204.4" font-family="Arial" font-size="14.00" fill="#000000">disc_number </text>
<text text-anchor="start" x="134.014" y="-204.4" font-family="Arial" font-size="14.00" fill="#666666">[integer]</text>
<text text-anchor="start" x="184.5834" y="-204.4" font-family="Arial" font-size="14.00" fill="#000000"> ディスク番号(default: 1)</text>
<polygon fill="none" stroke="#000000" points="43,-163 43,-193 519,-193 519,-163 43,-163"/>
<text text-anchor="start" x="50" y="-174.4" font-family="Arial" font-size="14.00" fill="#000000">track_number </text>
<text text-anchor="start" x="139.4586" y="-174.4" font-family="Arial" font-size="14.00" fill="#666666">[integer]</text>
<text text-anchor="start" x="190.028" y="-174.4" font-family="Arial" font-size="14.00" fill="#000000"> トラック番号</text>
<polygon fill="none" stroke="#000000" points="43,-133 43,-163 519,-163 519,-133 43,-133"/>
<text text-anchor="start" x="49.8425" y="-144.4" font-family="Arial" font-size="14.00" fill="#000000">release_date </text>
<text text-anchor="start" x="134.6517" y="-144.4" font-family="Arial" font-size="14.00" fill="#666666">[date]</text>
<text text-anchor="start" x="169.6713" y="-144.4" font-family="Arial" font-size="14.00" fill="#000000"> 頒布日(アルバムの頒布日と異なる場合に使用する)</text>
<polygon fill="none" stroke="#000000" points="43,-103 43,-133 519,-133 519,-103 43,-103"/>
<text text-anchor="start" x="50" y="-114.4" font-family="Arial" font-size="14.00" fill="#000000">search_enabled </text>
<text text-anchor="start" x="153.4838" y="-114.4" font-family="Arial" font-size="14.00" fill="#666666">[boolean]</text>
<text text-anchor="start" x="211.0672" y="-114.4" font-family="Arial" font-size="14.00" fill="#000000"> 検索対象とするか(default: true)</text>
<polygon fill="none" stroke="#000000" points="43,-73 43,-103 519,-103 519,-73 43,-73"/>
<text text-anchor="start" x="50" y="-84.4" font-family="Arial" font-size="14.00" fill="#000000">created_at </text>
<text text-anchor="start" x="120.028" y="-84.4" font-family="Arial" font-size="14.00" fill="#666666">[timestamp with time zone]</text>
<text text-anchor="start" x="285.7124" y="-84.4" font-family="Arial" font-size="14.00" fill="#000000"> 作成日時</text>
<polygon fill="none" stroke="#000000" points="43,-43 43,-73 519,-73 519,-43 43,-43"/>
<text text-anchor="start" x="50" y="-54.4" font-family="Arial" font-size="14.00" fill="#000000">updated_at </text>
<text text-anchor="start" x="123.9326" y="-54.4" font-family="Arial" font-size="14.00" fill="#666666">[timestamp with time zone]</text>
<text text-anchor="start" x="289.617" y="-54.4" font-family="Arial" font-size="14.00" fill="#000000"> 更新日時</text>
</g>
<!-- public.tracks_tags&#45;&gt;public.tracks -->
<g id="edge1" class="edge">
<title>public.tracks_tags:track_id&#45;&gt;public.tracks:id</title>
<path fill="none" stroke="#000000" d="M285.8094,-618.2912C218.1455,-608.3591 246.1894,-496.4967 296,-438 361.0873,-361.5627 453.9127,-478.4373 519,-402 548.9666,-366.8077 565.2222,-298 519,-298"/>
<polygon fill="#000000" stroke="#000000" points="286.0241,-618.306 295.6877,-623.4892 291.0121,-618.653 296,-619 296,-619 296,-619 291.0121,-618.653 296.3123,-614.5108 286.0241,-618.306 286.0241,-618.306"/>
<text text-anchor="start" x="62.1145" y="-629" font-family="Arial" font-size="10.00" fill="#000000">FOREIGN KEY (track_id) REFERENCES tracks(id)</text>
</g>
<!-- public.tags -->
<g id="node3" class="node">
<title>public.tags</title>
<polygon fill="#efefef" stroke="transparent" points="623,-253 623,-299 937,-299 937,-253 623,-253"/>
<polygon fill="none" stroke="#000000" points="623,-253 623,-299 937,-299 937,-253 623,-253"/>
<text text-anchor="start" x="688.3612" y="-276.8" font-family="Arial Bold" font-size="18.00" fill="#000000">public.tags</text>
<text text-anchor="start" x="774.385" y="-276.8" font-family="Arial" font-size="14.00" fill="#000000"> </text>
<text text-anchor="start" x="778.2756" y="-276.8" font-family="Arial" font-size="14.00" fill="#666666">[BASE TABLE]</text>
<text text-anchor="start" x="764.7092" y="-262.4" font-family="Arial" font-size="14.00" fill="#333333">タグ</text>
<polygon fill="none" stroke="#000000" points="623,-223 623,-253 937,-253 937,-223 623,-223"/>
<text text-anchor="start" x="630" y="-234.4" font-family="Arial" font-size="14.00" fill="#000000">id </text>
<text text-anchor="start" x="644.7798" y="-234.4" font-family="Arial" font-size="14.00" fill="#666666">[text]</text>
<polygon fill="none" stroke="#000000" points="623,-193 623,-223 937,-223 937,-193 623,-193"/>
<text text-anchor="start" x="630" y="-204.4" font-family="Arial" font-size="14.00" fill="#000000">name </text>
<text text-anchor="start" x="668.899" y="-204.4" font-family="Arial" font-size="14.00" fill="#666666">[text]</text>
<text text-anchor="start" x="699.244" y="-204.4" font-family="Arial" font-size="14.00" fill="#000000"> 名前</text>
<polygon fill="none" stroke="#000000" points="623,-163 623,-193 937,-193 937,-163 623,-163"/>
<text text-anchor="start" x="630" y="-174.4" font-family="Arial" font-size="14.00" fill="#000000">tag_type </text>
<text text-anchor="start" x="687.5848" y="-174.4" font-family="Arial" font-size="14.00" fill="#666666">[tag_type]</text>
<text text-anchor="start" x="749.0602" y="-174.4" font-family="Arial" font-size="14.00" fill="#000000"> タグ種別</text>
<polygon fill="none" stroke="#000000" points="623,-133 623,-163 937,-163 937,-133 623,-133"/>
<text text-anchor="start" x="629.8542" y="-144.4" font-family="Arial" font-size="14.00" fill="#000000">created_at </text>
<text text-anchor="start" x="699.8822" y="-144.4" font-family="Arial" font-size="14.00" fill="#666666">[timestamp with time zone]</text>
<text text-anchor="start" x="865.5666" y="-144.4" font-family="Arial" font-size="14.00" fill="#000000"> 作成日時</text>
<polygon fill="none" stroke="#000000" points="623,-103 623,-133 937,-133 937,-103 623,-103"/>
<text text-anchor="start" x="630" y="-114.4" font-family="Arial" font-size="14.00" fill="#000000">updated_at </text>
<text text-anchor="start" x="703.9326" y="-114.4" font-family="Arial" font-size="14.00" fill="#666666">[timestamp with time zone]</text>
<text text-anchor="start" x="869.617" y="-114.4" font-family="Arial" font-size="14.00" fill="#000000"> 更新日時</text>
</g>
<!-- public.tracks_tags&#45;&gt;public.tags -->
<g id="edge2" class="edge">
<title>public.tracks_tags:tag_id&#45;&gt;public.tags:id</title>
<path fill="none" stroke="#000000" d="M774.1052,-588.1978C827.2158,-579.0697 793.6619,-494.0796 764,-438 728.5537,-370.9842 658.4463,-409.0158 623,-342 601.3887,-301.1411 576.7778,-238 623,-238"/>
<polygon fill="#000000" stroke="#000000" points="773.9686,-588.2085 763.6438,-584.5141 768.9843,-588.6043 764,-589 764,-589 764,-589 768.9843,-588.6043 764.3562,-593.4859 773.9686,-588.2085 773.9686,-588.2085"/>
<text text-anchor="start" x="770.8845" y="-599" font-family="Arial" font-size="10.00" fill="#000000">FOREIGN KEY (tag_id) REFERENCES tags(id)</text>
</g>
</g>
</svg>
