<?xml version="1.0" encoding="UTF-8" standalone="no"?>
<!DOCTYPE svg PUBLIC "-//W3C//DTD SVG 1.1//EN"
 "http://www.w3.org/Graphics/SVG/1.1/DTD/svg11.dtd">
<!-- Generated by graphviz version 2.40.1 (20161225.0304)
 -->
<!-- Title: public.tracks_genres Pages: 1 -->
<svg width="1092pt" height="1004pt"
 viewBox="0.00 0.00 1091.50 1004.00" xmlns="http://www.w3.org/2000/svg" xmlns:xlink="http://www.w3.org/1999/xlink">
<g id="graph0" class="graph" transform="scale(1 1) rotate(0) translate(4 1000)">
<title>public.tracks_genres</title>
<polygon fill="#ffffff" stroke="transparent" points="-4,4 -4,-1000 1087.5,-1000 1087.5,4 -4,4"/>
<!-- public.tracks_genres -->
<g id="node1" class="node">
<title>public.tracks_genres</title>
<polygon fill="#efefef" stroke="transparent" points="374.5,-904 374.5,-950 842.5,-950 842.5,-904 374.5,-904"/>
<polygon fill="none" stroke="#000000" points="374.5,-904 374.5,-950 842.5,-950 842.5,-904 374.5,-904"/>
<text text-anchor="start" x="477.3566" y="-927.8" font-family="Arial Bold" font-size="18.00" fill="#000000">public.tracks_genres</text>
<text text-anchor="start" x="642.3896" y="-927.8" font-family="Arial" font-size="14.00" fill="#000000"> </text>
<text text-anchor="start" x="646.2802" y="-927.8" font-family="Arial" font-size="14.00" fill="#666666">[BASE TABLE]</text>
<text text-anchor="start" x="556.5159" y="-913.4" font-family="Arial" font-size="14.00" fill="#333333">楽曲ジャンル</text>
<polygon fill="none" stroke="#000000" points="374.5,-874 374.5,-904 842.5,-904 842.5,-874 374.5,-874"/>
<text text-anchor="start" x="381.5" y="-885.4" font-family="Arial" font-size="14.00" fill="#000000">track_id </text>
<text text-anchor="start" x="434.3962" y="-885.4" font-family="Arial" font-size="14.00" fill="#666666">[text]</text>
<text text-anchor="start" x="464.7412" y="-885.4" font-family="Arial" font-size="14.00" fill="#000000"> トラックID</text>
<polygon fill="none" stroke="#000000" points="374.5,-844 374.5,-874 842.5,-874 842.5,-844 374.5,-844"/>
<text text-anchor="start" x="381.5" y="-855.4" font-family="Arial" font-size="14.00" fill="#000000">tag_id </text>
<text text-anchor="start" x="423.5182" y="-855.4" font-family="Arial" font-size="14.00" fill="#666666">[text]</text>
<text text-anchor="start" x="453.8632" y="-855.4" font-family="Arial" font-size="14.00" fill="#000000"> タグID</text>
<polygon fill="none" stroke="#000000" points="374.5,-814 374.5,-844 842.5,-844 842.5,-814 374.5,-814"/>
<text text-anchor="start" x="381.1274" y="-825.4" font-family="Arial" font-size="14.00" fill="#000000">locked </text>
<text text-anchor="start" x="425.4724" y="-825.4" font-family="Arial" font-size="14.00" fill="#666666">[boolean]</text>
<text text-anchor="start" x="483.0558" y="-825.4" font-family="Arial" font-size="14.00" fill="#000000"> ロック有無(true: ロック・削除不可、false: アンロック)</text>
<polygon fill="none" stroke="#000000" points="374.5,-784 374.5,-814 842.5,-814 842.5,-784 374.5,-784"/>
<text text-anchor="start" x="381.5" y="-795.4" font-family="Arial" font-size="14.00" fill="#000000">created_at </text>
<text text-anchor="start" x="451.528" y="-795.4" font-family="Arial" font-size="14.00" fill="#666666">[timestamp with time zone]</text>
<text text-anchor="start" x="617.2124" y="-795.4" font-family="Arial" font-size="14.00" fill="#000000"> 作成日時</text>
<polygon fill="none" stroke="#000000" points="374.5,-754 374.5,-784 842.5,-784 842.5,-754 374.5,-754"/>
<text text-anchor="start" x="381.5" y="-765.4" font-family="Arial" font-size="14.00" fill="#000000">updated_at </text>
<text text-anchor="start" x="455.4326" y="-765.4" font-family="Arial" font-size="14.00" fill="#666666">[timestamp with time zone]</text>
<text text-anchor="start" x="621.117" y="-765.4" font-family="Arial" font-size="14.00" fill="#000000"> 更新日時</text>
<polygon fill="none" stroke="#000000" stroke-width="3" points="373,-752.5 373,-951.5 844,-951.5 844,-752.5 373,-752.5"/>
</g>
<!-- public.tracks -->
<g id="node2" class="node">
<title>public.tracks</title>
<polygon fill="#efefef" stroke="transparent" points="43.5,-583 43.5,-629 622.5,-629 622.5,-583 43.5,-583"/>
<polygon fill="none" stroke="#000000" points="43.5,-583 43.5,-629 622.5,-629 622.5,-583 43.5,-583"/>
<text text-anchor="start" x="234.3682" y="-606.8" font-family="Arial Bold" font-size="18.00" fill="#000000">public.tracks</text>
<text text-anchor="start" x="334.378" y="-606.8" font-family="Arial" font-size="14.00" fill="#000000"> </text>
<text text-anchor="start" x="338.2686" y="-606.8" font-family="Arial" font-size="14.00" fill="#666666">[BASE TABLE]</text>
<text text-anchor="start" x="306.1347" y="-592.4" font-family="Arial" font-size="14.00" fill="#333333">トラック</text>
<polygon fill="none" stroke="#000000" points="43.5,-553 43.5,-583 622.5,-583 622.5,-553 43.5,-553"/>
<text text-anchor="start" x="50.5" y="-564.4" font-family="Arial" font-size="14.00" fill="#000000">id </text>
<text text-anchor="start" x="65.2798" y="-564.4" font-family="Arial" font-size="14.00" fill="#666666">[text]</text>
<polygon fill="none" stroke="#000000" points="43.5,-523 43.5,-553 622.5,-553 622.5,-523 43.5,-523"/>
<text text-anchor="start" x="50.5" y="-534.4" font-family="Arial" font-size="14.00" fill="#000000">album_id </text>
<text text-anchor="start" x="111.1774" y="-534.4" font-family="Arial" font-size="14.00" fill="#666666">[text]</text>
<text text-anchor="start" x="141.5224" y="-534.4" font-family="Arial" font-size="14.00" fill="#000000"> アルバムID</text>
<polygon fill="none" stroke="#000000" points="43.5,-493 43.5,-523 622.5,-523 622.5,-493 43.5,-493"/>
<text text-anchor="start" x="50.5" y="-504.4" font-family="Arial" font-size="14.00" fill="#000000">name </text>
<text text-anchor="start" x="89.399" y="-504.4" font-family="Arial" font-size="14.00" fill="#666666">[text]</text>
<text text-anchor="start" x="119.744" y="-504.4" font-family="Arial" font-size="14.00" fill="#000000"> 名前</text>
<polygon fill="none" stroke="#000000" points="43.5,-463 43.5,-493 622.5,-493 622.5,-463 43.5,-463"/>
<text text-anchor="start" x="50.5" y="-474.4" font-family="Arial" font-size="14.00" fill="#000000">name_reading </text>
<text text-anchor="start" x="143.8618" y="-474.4" font-family="Arial" font-size="14.00" fill="#666666">[text]</text>
<text text-anchor="start" x="174.2068" y="-474.4" font-family="Arial" font-size="14.00" fill="#000000"> 名前読み方</text>
<polygon fill="none" stroke="#000000" points="43.5,-433 43.5,-463 622.5,-463 622.5,-433 43.5,-433"/>
<text text-anchor="start" x="50.5" y="-444.4" font-family="Arial" font-size="14.00" fill="#000000">disc_number </text>
<text text-anchor="start" x="134.514" y="-444.4" font-family="Arial" font-size="14.00" fill="#666666">[integer]</text>
<text text-anchor="start" x="185.0834" y="-444.4" font-family="Arial" font-size="14.00" fill="#000000"> ディスク番号(default: 1)</text>
<polygon fill="none" stroke="#000000" points="43.5,-403 43.5,-433 622.5,-433 622.5,-403 43.5,-403"/>
<text text-anchor="start" x="50.5" y="-414.4" font-family="Arial" font-size="14.00" fill="#000000">track_number </text>
<text text-anchor="start" x="139.9586" y="-414.4" font-family="Arial" font-size="14.00" fill="#666666">[integer]</text>
<text text-anchor="start" x="190.528" y="-414.4" font-family="Arial" font-size="14.00" fill="#000000"> トラック番号</text>
<polygon fill="none" stroke="#000000" points="43.5,-373 43.5,-403 622.5,-403 622.5,-373 43.5,-373"/>
<text text-anchor="start" x="50.5" y="-384.4" font-family="Arial" font-size="14.00" fill="#000000">release_date </text>
<text text-anchor="start" x="135.3092" y="-384.4" font-family="Arial" font-size="14.00" fill="#666666">[date]</text>
<text text-anchor="start" x="170.3288" y="-384.4" font-family="Arial" font-size="14.00" fill="#000000"> 頒布日(アルバムの頒布日と異なる場合に使用する)</text>
<polygon fill="none" stroke="#000000" points="43.5,-343 43.5,-373 622.5,-373 622.5,-343 43.5,-343"/>
<text text-anchor="start" x="50.5" y="-354.4" font-family="Arial" font-size="14.00" fill="#000000">search_enabled </text>
<text text-anchor="start" x="153.9838" y="-354.4" font-family="Arial" font-size="14.00" fill="#666666">[boolean]</text>
<text text-anchor="start" x="211.5672" y="-354.4" font-family="Arial" font-size="14.00" fill="#000000"> 検索対象とするか(default: true)</text>
<polygon fill="none" stroke="#000000" points="43.5,-313 43.5,-343 622.5,-343 622.5,-313 43.5,-313"/>
<text text-anchor="start" x="50.5" y="-324.4" font-family="Arial" font-size="14.00" fill="#000000">length </text>
<text text-anchor="start" x="92.5182" y="-324.4" font-family="Arial" font-size="14.00" fill="#666666">[integer]</text>
<text text-anchor="start" x="143.0876" y="-324.4" font-family="Arial" font-size="14.00" fill="#000000"> 曲の長さ(秒)</text>
<polygon fill="none" stroke="#000000" points="43.5,-283 43.5,-313 622.5,-313 622.5,-283 43.5,-283"/>
<text text-anchor="start" x="50.5" y="-294.4" font-family="Arial" font-size="14.00" fill="#000000">bpm </text>
<text text-anchor="start" x="81.6164" y="-294.4" font-family="Arial" font-size="14.00" fill="#666666">[integer]</text>
<text text-anchor="start" x="132.1858" y="-294.4" font-family="Arial" font-size="14.00" fill="#000000"> BPM</text>
<polygon fill="none" stroke="#000000" points="43.5,-253 43.5,-283 622.5,-283 622.5,-253 43.5,-253"/>
<text text-anchor="start" x="50.5" y="-264.4" font-family="Arial" font-size="14.00" fill="#000000">display_composer </text>
<text text-anchor="start" x="167.1858" y="-264.4" font-family="Arial" font-size="14.00" fill="#666666">[text]</text>
<text text-anchor="start" x="197.5308" y="-264.4" font-family="Arial" font-size="14.00" fill="#000000"> 作曲者表示用(1度しか使用しない別名義などで使用する)</text>
<polygon fill="none" stroke="#000000" points="43.5,-223 43.5,-253 622.5,-253 622.5,-223 43.5,-223"/>
<text text-anchor="start" x="50.5" y="-234.4" font-family="Arial" font-size="14.00" fill="#000000">display_arranger </text>
<text text-anchor="start" x="158.629" y="-234.4" font-family="Arial" font-size="14.00" fill="#666666">[text]</text>
<text text-anchor="start" x="188.974" y="-234.4" font-family="Arial" font-size="14.00" fill="#000000"> 編曲者表示用(1度しか使用しない別名義などで使用する)</text>
<polygon fill="none" stroke="#000000" points="43.5,-193 43.5,-223 622.5,-223 622.5,-193 43.5,-193"/>
<text text-anchor="start" x="50.5" y="-204.4" font-family="Arial" font-size="14.00" fill="#000000">display_rearranger </text>
<text text-anchor="start" x="171.0722" y="-204.4" font-family="Arial" font-size="14.00" fill="#666666">[text]</text>
<text text-anchor="start" x="201.4172" y="-204.4" font-family="Arial" font-size="14.00" fill="#000000"> 再編曲者表示用(1度しか使用しない別名義などで使用する)</text>
<polygon fill="none" stroke="#000000" points="43.5,-163 43.5,-193 622.5,-193 622.5,-163 43.5,-163"/>
<text text-anchor="start" x="50.5" y="-174.4" font-family="Arial" font-size="14.00" fill="#000000">display_lyricist </text>
<text text-anchor="start" x="144.6052" y="-174.4" font-family="Arial" font-size="14.00" fill="#666666">[text]</text>
<text text-anchor="start" x="174.9502" y="-174.4" font-family="Arial" font-size="14.00" fill="#000000"> 作詞者表示用(1度しか使用しない別名義などで使用する)</text>
<polygon fill="none" stroke="#000000" points="43.5,-133 43.5,-163 622.5,-163 622.5,-133 43.5,-133"/>
<text text-anchor="start" x="50.4653" y="-144.4" font-family="Arial" font-size="14.00" fill="#000000">display_vocalist </text>
<text text-anchor="start" x="152.3685" y="-144.4" font-family="Arial" font-size="14.00" fill="#666666">[text]</text>
<text text-anchor="start" x="182.7135" y="-144.4" font-family="Arial" font-size="14.00" fill="#000000"> ボーカリスト表示用(1度しか使用しない別名義などで使用する)</text>
<polygon fill="none" stroke="#000000" points="43.5,-103 43.5,-133 622.5,-133 622.5,-103 43.5,-103"/>
<text text-anchor="start" x="50.5" y="-114.4" font-family="Arial" font-size="14.00" fill="#000000">display_original_song </text>
<text text-anchor="start" x="188.9754" y="-114.4" font-family="Arial" font-size="14.00" fill="#666666">[text]</text>
<text text-anchor="start" x="219.3204" y="-114.4" font-family="Arial" font-size="14.00" fill="#000000"> 原曲表示用(東方以外の原曲などで使用する)</text>
<polygon fill="none" stroke="#000000" points="43.5,-73 43.5,-103 622.5,-103 622.5,-73 43.5,-73"/>
<text text-anchor="start" x="50.5" y="-84.4" font-family="Arial" font-size="14.00" fill="#000000">created_at </text>
<text text-anchor="start" x="120.528" y="-84.4" font-family="Arial" font-size="14.00" fill="#666666">[timestamp with time zone]</text>
<text text-anchor="start" x="286.2124" y="-84.4" font-family="Arial" font-size="14.00" fill="#000000"> 作成日時</text>
<polygon fill="none" stroke="#000000" points="43.5,-43 43.5,-73 622.5,-73 622.5,-43 43.5,-43"/>
<text text-anchor="start" x="50.5" y="-54.4" font-family="Arial" font-size="14.00" fill="#000000">updated_at </text>
<text text-anchor="start" x="124.4326" y="-54.4" font-family="Arial" font-size="14.00" fill="#666666">[timestamp with time zone]</text>
<text text-anchor="start" x="290.117" y="-54.4" font-family="Arial" font-size="14.00" fill="#000000"> 更新日時</text>
</g>
<!-- public.tracks_genres&#45;&gt;public.tracks -->
<g id="edge1" class="edge">
<title>public.tracks_genres:track_id&#45;&gt;public.tracks:id</title>
<path fill="none" stroke="#000000" d="M364.3066,-888.2888C296.6038,-878.3234 324.2259,-766.0989 374.5,-708 447.3797,-623.7771 549.6203,-756.2229 622.5,-672 652.7454,-637.0471 668.7222,-568 622.5,-568"/>
<polygon fill="#000000" stroke="#000000" points="364.5243,-888.3039 374.1867,-893.4891 369.5121,-888.6519 374.5,-889 374.5,-889 374.5,-889 369.5121,-888.6519 374.8133,-884.5109 364.5243,-888.3039 364.5243,-888.3039"/>
<text text-anchor="start" x="140.6145" y="-899" font-family="Arial" font-size="10.00" fill="#000000">FOREIGN KEY (track_id) REFERENCES tracks(id)</text>
</g>
<!-- public.tags -->
<g id="node3" class="node">
<title>public.tags</title>
<polygon fill="#efefef" stroke="transparent" points="726.5,-388 726.5,-434 1040.5,-434 1040.5,-388 726.5,-388"/>
<polygon fill="none" stroke="#000000" points="726.5,-388 726.5,-434 1040.5,-434 1040.5,-388 726.5,-388"/>
<text text-anchor="start" x="791.8612" y="-411.8" font-family="Arial Bold" font-size="18.00" fill="#000000">public.tags</text>
<text text-anchor="start" x="877.885" y="-411.8" font-family="Arial" font-size="14.00" fill="#000000"> </text>
<text text-anchor="start" x="881.7756" y="-411.8" font-family="Arial" font-size="14.00" fill="#666666">[BASE TABLE]</text>
<text text-anchor="start" x="868.2092" y="-397.4" font-family="Arial" font-size="14.00" fill="#333333">タグ</text>
<polygon fill="none" stroke="#000000" points="726.5,-358 726.5,-388 1040.5,-388 1040.5,-358 726.5,-358"/>
<text text-anchor="start" x="733.5" y="-369.4" font-family="Arial" font-size="14.00" fill="#000000">id </text>
<text text-anchor="start" x="748.2798" y="-369.4" font-family="Arial" font-size="14.00" fill="#666666">[text]</text>
<polygon fill="none" stroke="#000000" points="726.5,-328 726.5,-358 1040.5,-358 1040.5,-328 726.5,-328"/>
<text text-anchor="start" x="733.5" y="-339.4" font-family="Arial" font-size="14.00" fill="#000000">name </text>
<text text-anchor="start" x="772.399" y="-339.4" font-family="Arial" font-size="14.00" fill="#666666">[text]</text>
<text text-anchor="start" x="802.744" y="-339.4" font-family="Arial" font-size="14.00" fill="#000000"> 名前</text>
<polygon fill="none" stroke="#000000" points="726.5,-298 726.5,-328 1040.5,-328 1040.5,-298 726.5,-298"/>
<text text-anchor="start" x="733.5" y="-309.4" font-family="Arial" font-size="14.00" fill="#000000">tag_type </text>
<text text-anchor="start" x="791.0848" y="-309.4" font-family="Arial" font-size="14.00" fill="#666666">[tag_type]</text>
<text text-anchor="start" x="852.5602" y="-309.4" font-family="Arial" font-size="14.00" fill="#000000"> タグ種別</text>
<polygon fill="none" stroke="#000000" points="726.5,-268 726.5,-298 1040.5,-298 1040.5,-268 726.5,-268"/>
<text text-anchor="start" x="733.3542" y="-279.4" font-family="Arial" font-size="14.00" fill="#000000">created_at </text>
<text text-anchor="start" x="803.3822" y="-279.4" font-family="Arial" font-size="14.00" fill="#666666">[timestamp with time zone]</text>
<text text-anchor="start" x="969.0666" y="-279.4" font-family="Arial" font-size="14.00" fill="#000000"> 作成日時</text>
<polygon fill="none" stroke="#000000" points="726.5,-238 726.5,-268 1040.5,-268 1040.5,-238 726.5,-238"/>
<text text-anchor="start" x="733.5" y="-249.4" font-family="Arial" font-size="14.00" fill="#000000">updated_at </text>
<text text-anchor="start" x="807.4326" y="-249.4" font-family="Arial" font-size="14.00" fill="#666666">[timestamp with time zone]</text>
<text text-anchor="start" x="973.117" y="-249.4" font-family="Arial" font-size="14.00" fill="#000000"> 更新日時</text>
</g>
<!-- public.tracks_genres&#45;&gt;public.tags -->
<g id="edge2" class="edge">
<title>public.tracks_genres:tag_id&#45;&gt;public.tags:id</title>
<path fill="none" stroke="#000000" d="M852.7889,-858.1945C903.8778,-849.3575 857.0989,-769.6037 842.5,-708 816.0083,-596.2118 752.9917,-588.7882 726.5,-477 715.8414,-432.0235 680.2778,-373 726.5,-373"/>
<polygon fill="#000000" stroke="#000000" points="852.4695,-858.2194 842.1487,-854.5137 847.4847,-858.6097 842.5,-859 842.5,-859 842.5,-859 847.4847,-858.6097 842.8513,-863.4863 852.4695,-858.2194 852.4695,-858.2194"/>
<text text-anchor="start" x="849.3845" y="-869" font-family="Arial" font-size="10.00" fill="#000000">FOREIGN KEY (tag_id) REFERENCES tags(id)</text>
</g>
</g>
</svg>
