<?xml version="1.0" encoding="UTF-8" standalone="no"?>
<!DOCTYPE svg PUBLIC "-//W3C//DTD SVG 1.1//EN"
 "http://www.w3.org/Graphics/SVG/1.1/DTD/svg11.dtd">
<!-- Generated by graphviz version 2.40.1 (20161225.0304)
 -->
<!-- Title: public.albums Pages: 1 -->
<svg width="3915pt" height="1304pt"
 viewBox="0.00 0.00 3914.50 1304.00" xmlns="http://www.w3.org/2000/svg" xmlns:xlink="http://www.w3.org/1999/xlink">
<g id="graph0" class="graph" transform="scale(1 1) rotate(0) translate(4 1300)">
<title>public.albums</title>
<polygon fill="#ffffff" stroke="transparent" points="-4,4 -4,-1300 3910.5,-1300 3910.5,4 -4,4"/>
<!-- public.albums -->
<g id="node1" class="node">
<title>public.albums</title>
<polygon fill="#efefef" stroke="transparent" points="1687,-496 1687,-542 2001,-542 2001,-496 1687,-496"/>
<polygon fill="none" stroke="#000000" points="1687,-496 1687,-542 2001,-542 2001,-496 1687,-496"/>
<text text-anchor="start" x="1725.2089" y="-519.8" font-family="Arial Bold" font-size="18.00" fill="#000000">public.albums</text>
<text text-anchor="start" x="1835.2231" y="-519.8" font-family="Arial" font-size="14.00" fill="#000000">    </text>
<text text-anchor="start" x="1869.4279" y="-519.8" font-family="Arial" font-size="14.00" fill="#666666">[BASE TABLE]</text>
<text text-anchor="start" x="1814.1884" y="-505.4" font-family="Arial" font-size="14.00" fill="#333333">アルバム</text>
<polygon fill="none" stroke="#000000" points="1687,-466 1687,-496 2001,-496 2001,-466 1687,-466"/>
<text text-anchor="start" x="1694" y="-477.4" font-family="Arial" font-size="14.00" fill="#000000">id </text>
<text text-anchor="start" x="1708.7798" y="-477.4" font-family="Arial" font-size="14.00" fill="#666666">[text]</text>
<polygon fill="none" stroke="#000000" points="1687,-436 1687,-466 2001,-466 2001,-436 1687,-436"/>
<text text-anchor="start" x="1694" y="-447.4" font-family="Arial" font-size="14.00" fill="#000000">name </text>
<text text-anchor="start" x="1732.899" y="-447.4" font-family="Arial" font-size="14.00" fill="#666666">[text]</text>
<text text-anchor="start" x="1763.244" y="-447.4" font-family="Arial" font-size="14.00" fill="#000000"> 名前</text>
<polygon fill="none" stroke="#000000" points="1687,-406 1687,-436 2001,-436 2001,-406 1687,-406"/>
<text text-anchor="start" x="1694" y="-417.4" font-family="Arial" font-size="14.00" fill="#000000">release_circle_name </text>
<text text-anchor="start" x="1827.0182" y="-417.4" font-family="Arial" font-size="14.00" fill="#666666">[text]</text>
<text text-anchor="start" x="1857.3632" y="-417.4" font-family="Arial" font-size="14.00" fill="#000000"> 頒布サークル名</text>
<polygon fill="none" stroke="#000000" points="1687,-376 1687,-406 2001,-406 2001,-376 1687,-376"/>
<text text-anchor="start" x="1694" y="-387.4" font-family="Arial" font-size="14.00" fill="#000000">release_date </text>
<text text-anchor="start" x="1778.8092" y="-387.4" font-family="Arial" font-size="14.00" fill="#666666">[date]</text>
<text text-anchor="start" x="1813.8288" y="-387.4" font-family="Arial" font-size="14.00" fill="#000000"> 頒布日</text>
<polygon fill="none" stroke="#000000" points="1687,-346 1687,-376 2001,-376 2001,-346 1687,-346"/>
<text text-anchor="start" x="1694" y="-357.4" font-family="Arial" font-size="14.00" fill="#000000">event_id </text>
<text text-anchor="start" x="1750.8008" y="-357.4" font-family="Arial" font-size="14.00" fill="#666666">[text]</text>
<text text-anchor="start" x="1781.1458" y="-357.4" font-family="Arial" font-size="14.00" fill="#000000"> イベントID</text>
<polygon fill="none" stroke="#000000" points="1687,-316 1687,-346 2001,-346 2001,-316 1687,-316"/>
<text text-anchor="start" x="1694" y="-327.4" font-family="Arial" font-size="14.00" fill="#000000">sub_event_id </text>
<text text-anchor="start" x="1781.1486" y="-327.4" font-family="Arial" font-size="14.00" fill="#666666">[text]</text>
<text text-anchor="start" x="1811.4936" y="-327.4" font-family="Arial" font-size="14.00" fill="#000000"> サブイベントID</text>
<polygon fill="none" stroke="#000000" points="1687,-286 1687,-316 2001,-316 2001,-286 1687,-286"/>
<text text-anchor="start" x="1694" y="-297.4" font-family="Arial" font-size="14.00" fill="#000000">search_enabled </text>
<text text-anchor="start" x="1797.4838" y="-297.4" font-family="Arial" font-size="14.00" fill="#666666">[boolean]</text>
<text text-anchor="start" x="1855.0672" y="-297.4" font-family="Arial" font-size="14.00" fill="#000000"> 検索対象とするか</text>
<polygon fill="none" stroke="#000000" points="1687,-256 1687,-286 2001,-286 2001,-256 1687,-256"/>
<text text-anchor="start" x="1694" y="-267.4" font-family="Arial" font-size="14.00" fill="#000000">album_number </text>
<text text-anchor="start" x="1791.2398" y="-267.4" font-family="Arial" font-size="14.00" fill="#666666">[text]</text>
<polygon fill="none" stroke="#000000" points="1687,-226 1687,-256 2001,-256 2001,-226 1687,-226"/>
<text text-anchor="start" x="1694" y="-237.4" font-family="Arial" font-size="14.00" fill="#000000">event_price </text>
<text text-anchor="start" x="1770.244" y="-237.4" font-family="Arial" font-size="14.00" fill="#666666">[numeric]</text>
<text text-anchor="start" x="1827.8008" y="-237.4" font-family="Arial" font-size="14.00" fill="#000000"> イベント価格</text>
<polygon fill="none" stroke="#000000" points="1687,-196 1687,-226 2001,-226 2001,-196 1687,-196"/>
<text text-anchor="start" x="1694" y="-207.4" font-family="Arial" font-size="14.00" fill="#000000">currency </text>
<text text-anchor="start" x="1751.5596" y="-207.4" font-family="Arial" font-size="14.00" fill="#666666">[text]</text>
<text text-anchor="start" x="1781.9046" y="-207.4" font-family="Arial" font-size="14.00" fill="#000000"> 通貨(default: JPY)</text>
<polygon fill="none" stroke="#000000" points="1687,-166 1687,-196 2001,-196 2001,-166 1687,-166"/>
<text text-anchor="start" x="1694" y="-177.4" font-family="Arial" font-size="14.00" fill="#000000">credit </text>
<text text-anchor="start" x="1732.1136" y="-177.4" font-family="Arial" font-size="14.00" fill="#666666">[text]</text>
<text text-anchor="start" x="1762.4586" y="-177.4" font-family="Arial" font-size="14.00" fill="#000000"> クレジット</text>
<polygon fill="none" stroke="#000000" points="1687,-136 1687,-166 2001,-166 2001,-136 1687,-136"/>
<text text-anchor="start" x="1694" y="-147.4" font-family="Arial" font-size="14.00" fill="#000000">introduction </text>
<text text-anchor="start" x="1770.2412" y="-147.4" font-family="Arial" font-size="14.00" fill="#666666">[text]</text>
<text text-anchor="start" x="1800.5862" y="-147.4" font-family="Arial" font-size="14.00" fill="#000000"> 紹介</text>
<polygon fill="none" stroke="#000000" points="1687,-106 1687,-136 2001,-136 2001,-106 1687,-106"/>
<text text-anchor="start" x="1694" y="-117.4" font-family="Arial" font-size="14.00" fill="#000000">url </text>
<text text-anchor="start" x="1713.4404" y="-117.4" font-family="Arial" font-size="14.00" fill="#666666">[text]</text>
<text text-anchor="start" x="1743.7854" y="-117.4" font-family="Arial" font-size="14.00" fill="#000000"> URL</text>
<polygon fill="none" stroke="#000000" points="1687,-76 1687,-106 2001,-106 2001,-76 1687,-76"/>
<text text-anchor="start" x="1693.8542" y="-87.4" font-family="Arial" font-size="14.00" fill="#000000">created_at </text>
<text text-anchor="start" x="1763.8822" y="-87.4" font-family="Arial" font-size="14.00" fill="#666666">[timestamp with time zone]</text>
<text text-anchor="start" x="1929.5666" y="-87.4" font-family="Arial" font-size="14.00" fill="#000000"> 作成日時</text>
<polygon fill="none" stroke="#000000" points="1687,-46 1687,-76 2001,-76 2001,-46 1687,-46"/>
<text text-anchor="start" x="1694" y="-57.4" font-family="Arial" font-size="14.00" fill="#000000">updated_at </text>
<text text-anchor="start" x="1767.9326" y="-57.4" font-family="Arial" font-size="14.00" fill="#666666">[timestamp with time zone]</text>
<text text-anchor="start" x="1933.617" y="-57.4" font-family="Arial" font-size="14.00" fill="#000000"> 更新日時</text>
<polygon fill="none" stroke="#000000" stroke-width="3" points="1685.5,-44.5 1685.5,-543.5 2002.5,-543.5 2002.5,-44.5 1685.5,-44.5"/>
</g>
<!-- public.albums_circles -->
<g id="node2" class="node">
<title>public.albums_circles</title>
<polygon fill="#efefef" stroke="transparent" points="43,-997 43,-1043 387,-1043 387,-997 43,-997"/>
<polygon fill="none" stroke="#000000" points="43,-997 43,-1043 387,-1043 387,-997 43,-997"/>
<text text-anchor="start" x="65.7124" y="-1020.8" font-family="Arial Bold" font-size="18.00" fill="#000000">public.albums_circles</text>
<text text-anchor="start" x="236.7196" y="-1020.8" font-family="Arial" font-size="14.00" fill="#000000">    </text>
<text text-anchor="start" x="270.9244" y="-1020.8" font-family="Arial" font-size="14.00" fill="#666666">[BASE TABLE]</text>
<text text-anchor="start" x="86.1678" y="-1006.4" font-family="Arial" font-size="14.00" fill="#333333">アルバムとサークルの中間テーブル</text>
<polygon fill="none" stroke="#000000" points="43,-967 43,-997 387,-997 387,-967 43,-967"/>
<text text-anchor="start" x="50" y="-978.4" font-family="Arial" font-size="14.00" fill="#000000">album_id    </text>
<text text-anchor="start" x="140.9916" y="-978.4" font-family="Arial" font-size="14.00" fill="#666666">[text]</text>
<text text-anchor="start" x="171.3366" y="-978.4" font-family="Arial" font-size="14.00" fill="#000000"> アルバムID</text>
<polygon fill="none" stroke="#000000" points="43,-937 43,-967 387,-967 387,-937 43,-937"/>
<text text-anchor="start" x="50" y="-948.4" font-family="Arial" font-size="14.00" fill="#000000">circle_id    </text>
<text text-anchor="start" x="135.533" y="-948.4" font-family="Arial" font-size="14.00" fill="#666666">[text]</text>
<text text-anchor="start" x="165.878" y="-948.4" font-family="Arial" font-size="14.00" fill="#000000"> サークルID</text>
<polygon fill="none" stroke="#000000" points="43,-907 43,-937 387,-937 387,-907 43,-907"/>
<text text-anchor="start" x="49.6971" y="-918.4" font-family="Arial" font-size="14.00" fill="#000000">created_at    </text>
<text text-anchor="start" x="150.0393" y="-918.4" font-family="Arial" font-size="14.00" fill="#666666">[timestamp with time zone]</text>
<text text-anchor="start" x="315.7237" y="-918.4" font-family="Arial" font-size="14.00" fill="#000000"> 作成日時</text>
<polygon fill="none" stroke="#000000" points="43,-877 43,-907 387,-907 387,-877 43,-877"/>
<text text-anchor="start" x="50" y="-888.4" font-family="Arial" font-size="14.00" fill="#000000">updated_at    </text>
<text text-anchor="start" x="154.2468" y="-888.4" font-family="Arial" font-size="14.00" fill="#666666">[timestamp with time zone]</text>
<text text-anchor="start" x="319.9312" y="-888.4" font-family="Arial" font-size="14.00" fill="#000000"> 更新日時</text>
</g>
<!-- public.albums_circles&#45;&gt;public.albums -->
<g id="edge1" class="edge">
<title>public.albums_circles:album_id&#45;&gt;public.albums:id</title>
<path fill="none" stroke="#000000" d="M396.8542,-980.2213C459.9463,-955.362 383.8965,-677.4663 439,-624 539.1706,-526.8056 1547.426,-481 1687,-481"/>
<polygon fill="#000000" stroke="#000000" points="396.841,-980.2236 386.2006,-977.5716 391.9205,-981.1118 387,-982 387,-982 387,-982 391.9205,-981.1118 387.7994,-986.4284 396.841,-980.2236 396.841,-980.2236"/>
<text text-anchor="start" x="393.5565" y="-992" font-family="Arial" font-size="10.00" fill="#000000">FOREIGN KEY (album_id) REFERENCES albums(id)</text>
</g>
<!-- public.album_consignment_shops -->
<g id="node3" class="node">
<title>public.album_consignment_shops</title>
<polygon fill="#efefef" stroke="transparent" points="492,-1072 492,-1118 1019,-1118 1019,-1072 492,-1072"/>
<polygon fill="none" stroke="#000000" points="492,-1072 492,-1118 1019,-1118 1019,-1072 492,-1072"/>
<text text-anchor="start" x="556.1805" y="-1095.8" font-family="Arial Bold" font-size="18.00" fill="#000000">public.album_consignment_shops</text>
<text text-anchor="start" x="827.2515" y="-1095.8" font-family="Arial" font-size="14.00" fill="#000000">    </text>
<text text-anchor="start" x="861.4563" y="-1095.8" font-family="Arial" font-size="14.00" fill="#666666">[BASE TABLE]</text>
<text text-anchor="start" x="660.9622" y="-1081.4" font-family="Arial" font-size="14.00" fill="#333333">アルバム委託販売ショップ</text>
<polygon fill="none" stroke="#000000" points="492,-1042 492,-1072 1019,-1072 1019,-1042 492,-1042"/>
<text text-anchor="start" x="499" y="-1053.4" font-family="Arial" font-size="14.00" fill="#000000">id    </text>
<text text-anchor="start" x="544.094" y="-1053.4" font-family="Arial" font-size="14.00" fill="#666666">[text]</text>
<polygon fill="none" stroke="#000000" points="492,-1012 492,-1042 1019,-1042 1019,-1012 492,-1012"/>
<text text-anchor="start" x="499" y="-1023.4" font-family="Arial" font-size="14.00" fill="#000000">album_id    </text>
<text text-anchor="start" x="589.9916" y="-1023.4" font-family="Arial" font-size="14.00" fill="#666666">[text]</text>
<text text-anchor="start" x="620.3366" y="-1023.4" font-family="Arial" font-size="14.00" fill="#000000"> アルバムID</text>
<polygon fill="none" stroke="#000000" points="492,-982 492,-1012 1019,-1012 1019,-982 492,-982"/>
<text text-anchor="start" x="499" y="-993.4" font-family="Arial" font-size="14.00" fill="#000000">shop    </text>
<text text-anchor="start" x="563.5526" y="-993.4" font-family="Arial" font-size="14.00" fill="#666666">[shop]</text>
<text text-anchor="start" x="601.6816" y="-993.4" font-family="Arial" font-size="14.00" fill="#000000"> ショップ</text>
<polygon fill="none" stroke="#000000" points="492,-952 492,-982 1019,-982 1019,-952 492,-952"/>
<text text-anchor="start" x="499" y="-963.4" font-family="Arial" font-size="14.00" fill="#000000">url    </text>
<text text-anchor="start" x="548.7546" y="-963.4" font-family="Arial" font-size="14.00" fill="#666666">[text]</text>
<text text-anchor="start" x="579.0996" y="-963.4" font-family="Arial" font-size="14.00" fill="#000000"> URL</text>
<polygon fill="none" stroke="#000000" points="492,-922 492,-952 1019,-952 1019,-922 492,-922"/>
<text text-anchor="start" x="498.9206" y="-933.4" font-family="Arial" font-size="14.00" fill="#000000">tax_included    </text>
<text text-anchor="start" x="611.7074" y="-933.4" font-family="Arial" font-size="14.00" fill="#666666">[boolean]</text>
<text text-anchor="start" x="669.2908" y="-933.4" font-family="Arial" font-size="14.00" fill="#000000"> 税込みか否か(true: 税込み、false: 税抜き・税別)</text>
<polygon fill="none" stroke="#000000" points="492,-892 492,-922 1019,-922 1019,-892 492,-892"/>
<text text-anchor="start" x="499" y="-903.4" font-family="Arial" font-size="14.00" fill="#000000">shop_price    </text>
<text text-anchor="start" x="601.6676" y="-903.4" font-family="Arial" font-size="14.00" fill="#666666">[numeric]</text>
<text text-anchor="start" x="659.2244" y="-903.4" font-family="Arial" font-size="14.00" fill="#000000"> ショップ価格</text>
<polygon fill="none" stroke="#000000" points="492,-862 492,-892 1019,-892 1019,-862 492,-862"/>
<text text-anchor="start" x="499" y="-873.4" font-family="Arial" font-size="14.00" fill="#000000">currency    </text>
<text text-anchor="start" x="586.8738" y="-873.4" font-family="Arial" font-size="14.00" fill="#666666">[text]</text>
<text text-anchor="start" x="617.2188" y="-873.4" font-family="Arial" font-size="14.00" fill="#000000"> 通貨(default: JPY)</text>
<polygon fill="none" stroke="#000000" points="492,-832 492,-862 1019,-862 1019,-832 492,-832"/>
<text text-anchor="start" x="499" y="-843.4" font-family="Arial" font-size="14.00" fill="#000000">created_at    </text>
<text text-anchor="start" x="599.3422" y="-843.4" font-family="Arial" font-size="14.00" fill="#666666">[timestamp with time zone]</text>
<text text-anchor="start" x="765.0266" y="-843.4" font-family="Arial" font-size="14.00" fill="#000000"> 作成日時</text>
<polygon fill="none" stroke="#000000" points="492,-802 492,-832 1019,-832 1019,-802 492,-802"/>
<text text-anchor="start" x="499" y="-813.4" font-family="Arial" font-size="14.00" fill="#000000">updated_at    </text>
<text text-anchor="start" x="603.2468" y="-813.4" font-family="Arial" font-size="14.00" fill="#666666">[timestamp with time zone]</text>
<text text-anchor="start" x="768.9312" y="-813.4" font-family="Arial" font-size="14.00" fill="#000000"> 更新日時</text>
</g>
<!-- public.album_consignment_shops&#45;&gt;public.albums -->
<g id="edge2" class="edge">
<title>public.album_consignment_shops:album_id&#45;&gt;public.albums:id</title>
<path fill="none" stroke="#000000" d="M1029.1725,-1025.346C1101.3554,-999.8898 1011.9833,-688.2493 1070,-624 1164.3264,-519.5403 1546.2545,-481 1687,-481"/>
<polygon fill="#000000" stroke="#000000" points="1028.8704,-1025.395 1018.2778,-1022.5583 1023.9352,-1026.1975 1019,-1027 1019,-1027 1019,-1027 1023.9352,-1026.1975 1019.7222,-1031.4417 1028.8704,-1025.395 1028.8704,-1025.395"/>
<text text-anchor="start" x="899.5565" y="-1011" font-family="Arial" font-size="10.00" fill="#000000">FOREIGN KEY (album_id) REFERENCES albums(id)</text>
</g>
<!-- public.album_distribution_service_urls -->
<g id="node4" class="node">
<title>public.album_distribution_service_urls</title>
<polygon fill="#efefef" stroke="transparent" points="1123,-1027 1123,-1073 1568,-1073 1568,-1027 1123,-1027"/>
<polygon fill="none" stroke="#000000" points="1123,-1027 1123,-1073 1568,-1073 1568,-1027 1123,-1027"/>
<text text-anchor="start" x="1129.6988" y="-1050.8" font-family="Arial Bold" font-size="18.00" fill="#000000">public.album_distribution_service_urls</text>
<text text-anchor="start" x="1433.7332" y="-1050.8" font-family="Arial" font-size="14.00" fill="#000000">    </text>
<text text-anchor="start" x="1467.938" y="-1050.8" font-family="Arial" font-size="14.00" fill="#666666">[BASE TABLE]</text>
<text text-anchor="start" x="1252.4434" y="-1036.4" font-family="Arial" font-size="14.00" fill="#333333">アルバム配信サービスURL</text>
<polygon fill="none" stroke="#000000" points="1123,-997 1123,-1027 1568,-1027 1568,-997 1123,-997"/>
<text text-anchor="start" x="1130" y="-1008.4" font-family="Arial" font-size="14.00" fill="#000000">id    </text>
<text text-anchor="start" x="1175.094" y="-1008.4" font-family="Arial" font-size="14.00" fill="#666666">[text]</text>
<polygon fill="none" stroke="#000000" points="1123,-967 1123,-997 1568,-997 1568,-967 1123,-967"/>
<text text-anchor="start" x="1130" y="-978.4" font-family="Arial" font-size="14.00" fill="#000000">album_id    </text>
<text text-anchor="start" x="1220.9916" y="-978.4" font-family="Arial" font-size="14.00" fill="#666666">[text]</text>
<text text-anchor="start" x="1251.3366" y="-978.4" font-family="Arial" font-size="14.00" fill="#000000"> アルバムID</text>
<polygon fill="none" stroke="#000000" points="1123,-937 1123,-967 1568,-967 1568,-937 1123,-937"/>
<text text-anchor="start" x="1130" y="-948.4" font-family="Arial" font-size="14.00" fill="#000000">service    </text>
<text text-anchor="start" x="1208.5372" y="-948.4" font-family="Arial" font-size="14.00" fill="#666666">[distribution_service]</text>
<text text-anchor="start" x="1336.108" y="-948.4" font-family="Arial" font-size="14.00" fill="#000000"> 配信サービス</text>
<polygon fill="none" stroke="#000000" points="1123,-907 1123,-937 1568,-937 1568,-907 1123,-907"/>
<text text-anchor="start" x="1130" y="-918.4" font-family="Arial" font-size="14.00" fill="#000000">url    </text>
<text text-anchor="start" x="1179.7546" y="-918.4" font-family="Arial" font-size="14.00" fill="#666666">[text]</text>
<text text-anchor="start" x="1210.0996" y="-918.4" font-family="Arial" font-size="14.00" fill="#000000"> URL</text>
<polygon fill="none" stroke="#000000" points="1123,-877 1123,-907 1568,-907 1568,-877 1123,-877"/>
<text text-anchor="start" x="1130" y="-888.4" font-family="Arial" font-size="14.00" fill="#000000">created_at    </text>
<text text-anchor="start" x="1230.3422" y="-888.4" font-family="Arial" font-size="14.00" fill="#666666">[timestamp with time zone]</text>
<text text-anchor="start" x="1396.0266" y="-888.4" font-family="Arial" font-size="14.00" fill="#000000"> 作成日時</text>
<polygon fill="none" stroke="#000000" points="1123,-847 1123,-877 1568,-877 1568,-847 1123,-847"/>
<text text-anchor="start" x="1130" y="-858.4" font-family="Arial" font-size="14.00" fill="#000000">updated_at    </text>
<text text-anchor="start" x="1234.2468" y="-858.4" font-family="Arial" font-size="14.00" fill="#666666">[timestamp with time zone]</text>
<text text-anchor="start" x="1399.9312" y="-858.4" font-family="Arial" font-size="14.00" fill="#000000"> 更新日時</text>
</g>
<!-- public.album_distribution_service_urls&#45;&gt;public.albums -->
<g id="edge3" class="edge">
<title>public.album_distribution_service_urls:album_id&#45;&gt;public.albums:id</title>
<path fill="none" stroke="#000000" d="M1578.0543,-980.3428C1643.9165,-957.1661 1597.9566,-697.5467 1620,-624 1640.1504,-556.7692 1616.8144,-481 1687,-481"/>
<polygon fill="#000000" stroke="#000000" points="1577.8669,-980.3737 1567.2681,-977.5599 1572.9334,-981.1868 1568,-982 1568,-982 1568,-982 1572.9334,-981.1868 1568.7319,-986.4401 1577.8669,-980.3737 1577.8669,-980.3737"/>
<text text-anchor="start" x="1574.5565" y="-992" font-family="Arial" font-size="10.00" fill="#000000">FOREIGN KEY (album_id) REFERENCES albums(id)</text>
</g>
<!-- public.album_upcs -->
<g id="node5" class="node">
<title>public.album_upcs</title>
<polygon fill="#efefef" stroke="transparent" points="1672,-1012 1672,-1058 2016,-1058 2016,-1012 1672,-1012"/>
<polygon fill="none" stroke="#000000" points="1672,-1012 1672,-1058 2016,-1058 2016,-1012 1672,-1012"/>
<text text-anchor="start" x="1705.6996" y="-1035.8" font-family="Arial Bold" font-size="18.00" fill="#000000">public.album_upcs</text>
<text text-anchor="start" x="1854.7324" y="-1035.8" font-family="Arial" font-size="14.00" fill="#000000">    </text>
<text text-anchor="start" x="1888.9372" y="-1035.8" font-family="Arial" font-size="14.00" fill="#666666">[BASE TABLE]</text>
<text text-anchor="start" x="1799.4135" y="-1021.4" font-family="Arial" font-size="14.00" fill="#333333">アルバムUPC</text>
<polygon fill="none" stroke="#000000" points="1672,-982 1672,-1012 2016,-1012 2016,-982 1672,-982"/>
<text text-anchor="start" x="1679" y="-993.4" font-family="Arial" font-size="14.00" fill="#000000">id    </text>
<text text-anchor="start" x="1724.094" y="-993.4" font-family="Arial" font-size="14.00" fill="#666666">[text]</text>
<polygon fill="none" stroke="#000000" points="1672,-952 1672,-982 2016,-982 2016,-952 1672,-952"/>
<text text-anchor="start" x="1679" y="-963.4" font-family="Arial" font-size="14.00" fill="#000000">album_id    </text>
<text text-anchor="start" x="1769.9916" y="-963.4" font-family="Arial" font-size="14.00" fill="#666666">[text]</text>
<text text-anchor="start" x="1800.3366" y="-963.4" font-family="Arial" font-size="14.00" fill="#000000"> アルバムID</text>
<polygon fill="none" stroke="#000000" points="1672,-922 1672,-952 2016,-952 2016,-922 1672,-922"/>
<text text-anchor="start" x="1679" y="-933.4" font-family="Arial" font-size="14.00" fill="#000000">upc    </text>
<text text-anchor="start" x="1735.77" y="-933.4" font-family="Arial" font-size="14.00" fill="#666666">[text]</text>
<text text-anchor="start" x="1766.115" y="-933.4" font-family="Arial" font-size="14.00" fill="#000000"> UPC(JAN)コード</text>
<polygon fill="none" stroke="#000000" points="1672,-892 1672,-922 2016,-922 2016,-892 1672,-892"/>
<text text-anchor="start" x="1678.6971" y="-903.4" font-family="Arial" font-size="14.00" fill="#000000">created_at    </text>
<text text-anchor="start" x="1779.0393" y="-903.4" font-family="Arial" font-size="14.00" fill="#666666">[timestamp with time zone]</text>
<text text-anchor="start" x="1944.7237" y="-903.4" font-family="Arial" font-size="14.00" fill="#000000"> 作成日時</text>
<polygon fill="none" stroke="#000000" points="1672,-862 1672,-892 2016,-892 2016,-862 1672,-862"/>
<text text-anchor="start" x="1679" y="-873.4" font-family="Arial" font-size="14.00" fill="#000000">updated_at    </text>
<text text-anchor="start" x="1783.2468" y="-873.4" font-family="Arial" font-size="14.00" fill="#666666">[timestamp with time zone]</text>
<text text-anchor="start" x="1948.9312" y="-873.4" font-family="Arial" font-size="14.00" fill="#000000"> 更新日時</text>
</g>
<!-- public.album_upcs&#45;&gt;public.albums -->
<g id="edge4" class="edge">
<title>public.album_upcs:album_id&#45;&gt;public.albums:id</title>
<path fill="none" stroke="#000000" d="M2024.7918,-962.1899C2068.1339,-911.7154 2051.8601,-481 2001,-481"/>
<polygon fill="#000000" stroke="#000000" points="2024.7728,-962.2002 2013.8401,-963.0522 2020.3864,-964.6001 2016,-967 2016,-967 2016,-967 2020.3864,-964.6001 2018.1599,-970.9478 2024.7728,-962.2002 2024.7728,-962.2002"/>
<text text-anchor="start" x="1896.5565" y="-951" font-family="Arial" font-size="10.00" fill="#000000">FOREIGN KEY (album_id) REFERENCES albums(id)</text>
</g>
<!-- public.songs -->
<g id="node6" class="node">
<title>public.songs</title>
<polygon fill="#efefef" stroke="transparent" points="2121,-1207 2121,-1253 2730,-1253 2730,-1207 2121,-1207"/>
<polygon fill="none" stroke="#000000" points="2121,-1207 2121,-1253 2730,-1253 2730,-1207 2121,-1207"/>
<text text-anchor="start" x="2311.7021" y="-1230.8" font-family="Arial Bold" font-size="18.00" fill="#000000">public.songs</text>
<text text-anchor="start" x="2411.7299" y="-1230.8" font-family="Arial" font-size="14.00" fill="#000000">    </text>
<text text-anchor="start" x="2445.9347" y="-1230.8" font-family="Arial" font-size="14.00" fill="#666666">[BASE TABLE]</text>
<text text-anchor="start" x="2404.8815" y="-1216.4" font-family="Arial" font-size="14.00" fill="#333333">楽曲</text>
<polygon fill="none" stroke="#000000" points="2121,-1177 2121,-1207 2730,-1207 2730,-1177 2121,-1177"/>
<text text-anchor="start" x="2128" y="-1188.4" font-family="Arial" font-size="14.00" fill="#000000">id    </text>
<text text-anchor="start" x="2173.094" y="-1188.4" font-family="Arial" font-size="14.00" fill="#666666">[text]</text>
<polygon fill="none" stroke="#000000" points="2121,-1147 2121,-1177 2730,-1177 2730,-1147 2121,-1147"/>
<text text-anchor="start" x="2128" y="-1158.4" font-family="Arial" font-size="14.00" fill="#000000">album_id    </text>
<text text-anchor="start" x="2218.9916" y="-1158.4" font-family="Arial" font-size="14.00" fill="#666666">[text]</text>
<text text-anchor="start" x="2249.3366" y="-1158.4" font-family="Arial" font-size="14.00" fill="#000000"> アルバムID</text>
<polygon fill="none" stroke="#000000" points="2121,-1117 2121,-1147 2730,-1147 2730,-1117 2121,-1117"/>
<text text-anchor="start" x="2128" y="-1128.4" font-family="Arial" font-size="14.00" fill="#000000">name    </text>
<text text-anchor="start" x="2197.2132" y="-1128.4" font-family="Arial" font-size="14.00" fill="#666666">[text]</text>
<text text-anchor="start" x="2227.5582" y="-1128.4" font-family="Arial" font-size="14.00" fill="#000000"> 名前</text>
<polygon fill="none" stroke="#000000" points="2121,-1087 2121,-1117 2730,-1117 2730,-1087 2121,-1087"/>
<text text-anchor="start" x="2128" y="-1098.4" font-family="Arial" font-size="14.00" fill="#000000">name_reading    </text>
<text text-anchor="start" x="2251.676" y="-1098.4" font-family="Arial" font-size="14.00" fill="#666666">[text]</text>
<text text-anchor="start" x="2282.021" y="-1098.4" font-family="Arial" font-size="14.00" fill="#000000"> 名前読み方</text>
<polygon fill="none" stroke="#000000" points="2121,-1057 2121,-1087 2730,-1087 2730,-1057 2121,-1057"/>
<text text-anchor="start" x="2128" y="-1068.4" font-family="Arial" font-size="14.00" fill="#000000">disc_number    </text>
<text text-anchor="start" x="2242.3282" y="-1068.4" font-family="Arial" font-size="14.00" fill="#666666">[integer]</text>
<text text-anchor="start" x="2292.8976" y="-1068.4" font-family="Arial" font-size="14.00" fill="#000000"> ディスク番号(default: 1)</text>
<polygon fill="none" stroke="#000000" points="2121,-1027 2121,-1057 2730,-1057 2730,-1027 2121,-1027"/>
<text text-anchor="start" x="2128" y="-1038.4" font-family="Arial" font-size="14.00" fill="#000000">track_number    </text>
<text text-anchor="start" x="2247.7728" y="-1038.4" font-family="Arial" font-size="14.00" fill="#666666">[integer]</text>
<text text-anchor="start" x="2298.3422" y="-1038.4" font-family="Arial" font-size="14.00" fill="#000000"> トラック番号</text>
<polygon fill="none" stroke="#000000" points="2121,-997 2121,-1027 2730,-1027 2730,-997 2121,-997"/>
<text text-anchor="start" x="2128" y="-1008.4" font-family="Arial" font-size="14.00" fill="#000000">release_date    </text>
<text text-anchor="start" x="2243.1234" y="-1008.4" font-family="Arial" font-size="14.00" fill="#666666">[date]</text>
<text text-anchor="start" x="2278.143" y="-1008.4" font-family="Arial" font-size="14.00" fill="#000000"> 頒布日(アルバムの頒布日と異なる場合に使用する)</text>
<polygon fill="none" stroke="#000000" points="2121,-967 2121,-997 2730,-997 2730,-967 2121,-967"/>
<text text-anchor="start" x="2128" y="-978.4" font-family="Arial" font-size="14.00" fill="#000000">search_enabled    </text>
<text text-anchor="start" x="2261.798" y="-978.4" font-family="Arial" font-size="14.00" fill="#666666">[boolean]</text>
<text text-anchor="start" x="2319.3814" y="-978.4" font-family="Arial" font-size="14.00" fill="#000000"> 検索対象とするか(default: true)</text>
<polygon fill="none" stroke="#000000" points="2121,-937 2121,-967 2730,-967 2730,-937 2121,-937"/>
<text text-anchor="start" x="2128" y="-948.4" font-family="Arial" font-size="14.00" fill="#000000">length    </text>
<text text-anchor="start" x="2200.3324" y="-948.4" font-family="Arial" font-size="14.00" fill="#666666">[integer]</text>
<text text-anchor="start" x="2250.9018" y="-948.4" font-family="Arial" font-size="14.00" fill="#000000"> 曲の長さ(秒)</text>
<polygon fill="none" stroke="#000000" points="2121,-907 2121,-937 2730,-937 2730,-907 2121,-907"/>
<text text-anchor="start" x="2128" y="-918.4" font-family="Arial" font-size="14.00" fill="#000000">bpm    </text>
<text text-anchor="start" x="2189.4306" y="-918.4" font-family="Arial" font-size="14.00" fill="#666666">[integer]</text>
<text text-anchor="start" x="2240" y="-918.4" font-family="Arial" font-size="14.00" fill="#000000"> BPM</text>
<polygon fill="none" stroke="#000000" points="2121,-877 2121,-907 2730,-907 2730,-877 2121,-877"/>
<text text-anchor="start" x="2128" y="-888.4" font-family="Arial" font-size="14.00" fill="#000000">display_composer    </text>
<text text-anchor="start" x="2275" y="-888.4" font-family="Arial" font-size="14.00" fill="#666666">[text]</text>
<text text-anchor="start" x="2305.345" y="-888.4" font-family="Arial" font-size="14.00" fill="#000000"> 作曲者表示用(1度しか使用しない別名義などで使用する)</text>
<polygon fill="none" stroke="#000000" points="2121,-847 2121,-877 2730,-877 2730,-847 2121,-847"/>
<text text-anchor="start" x="2128" y="-858.4" font-family="Arial" font-size="14.00" fill="#000000">display_arranger    </text>
<text text-anchor="start" x="2266.4432" y="-858.4" font-family="Arial" font-size="14.00" fill="#666666">[text]</text>
<text text-anchor="start" x="2296.7882" y="-858.4" font-family="Arial" font-size="14.00" fill="#000000"> 編曲者表示用(1度しか使用しない別名義などで使用する)</text>
<polygon fill="none" stroke="#000000" points="2121,-817 2121,-847 2730,-847 2730,-817 2121,-817"/>
<text text-anchor="start" x="2128" y="-828.4" font-family="Arial" font-size="14.00" fill="#000000">display_rearranger    </text>
<text text-anchor="start" x="2278.8864" y="-828.4" font-family="Arial" font-size="14.00" fill="#666666">[text]</text>
<text text-anchor="start" x="2309.2314" y="-828.4" font-family="Arial" font-size="14.00" fill="#000000"> 再編曲者表示用(1度しか使用しない別名義などで使用する)</text>
<polygon fill="none" stroke="#000000" points="2121,-787 2121,-817 2730,-817 2730,-787 2121,-787"/>
<text text-anchor="start" x="2128" y="-798.4" font-family="Arial" font-size="14.00" fill="#000000">display_lyricist    </text>
<text text-anchor="start" x="2252.4194" y="-798.4" font-family="Arial" font-size="14.00" fill="#666666">[text]</text>
<text text-anchor="start" x="2282.7644" y="-798.4" font-family="Arial" font-size="14.00" fill="#000000"> 作詞者表示用(1度しか使用しない別名義などで使用する)</text>
<polygon fill="none" stroke="#000000" points="2121,-757 2121,-787 2730,-787 2730,-757 2121,-757"/>
<text text-anchor="start" x="2127.8082" y="-768.4" font-family="Arial" font-size="14.00" fill="#000000">display_vocalist    </text>
<text text-anchor="start" x="2260.0256" y="-768.4" font-family="Arial" font-size="14.00" fill="#666666">[text]</text>
<text text-anchor="start" x="2290.3706" y="-768.4" font-family="Arial" font-size="14.00" fill="#000000"> ボーカリスト表示用(1度しか使用しない別名義などで使用する)</text>
<polygon fill="none" stroke="#000000" points="2121,-727 2121,-757 2730,-757 2730,-727 2121,-727"/>
<text text-anchor="start" x="2128" y="-738.4" font-family="Arial" font-size="14.00" fill="#000000">display_original_song    </text>
<text text-anchor="start" x="2296.7896" y="-738.4" font-family="Arial" font-size="14.00" fill="#666666">[text]</text>
<text text-anchor="start" x="2327.1346" y="-738.4" font-family="Arial" font-size="14.00" fill="#000000"> 原曲表示用(東方以外の原曲などで使用する)</text>
<polygon fill="none" stroke="#000000" points="2121,-697 2121,-727 2730,-727 2730,-697 2121,-697"/>
<text text-anchor="start" x="2128" y="-708.4" font-family="Arial" font-size="14.00" fill="#000000">created_at    </text>
<text text-anchor="start" x="2228.3422" y="-708.4" font-family="Arial" font-size="14.00" fill="#666666">[timestamp with time zone]</text>
<text text-anchor="start" x="2394.0266" y="-708.4" font-family="Arial" font-size="14.00" fill="#000000"> 作成日時</text>
<polygon fill="none" stroke="#000000" points="2121,-667 2121,-697 2730,-697 2730,-667 2121,-667"/>
<text text-anchor="start" x="2128" y="-678.4" font-family="Arial" font-size="14.00" fill="#000000">updated_at    </text>
<text text-anchor="start" x="2232.2468" y="-678.4" font-family="Arial" font-size="14.00" fill="#666666">[timestamp with time zone]</text>
<text text-anchor="start" x="2397.9312" y="-678.4" font-family="Arial" font-size="14.00" fill="#000000"> 更新日時</text>
</g>
<!-- public.songs&#45;&gt;public.albums -->
<g id="edge5" class="edge">
<title>public.songs:album_id&#45;&gt;public.albums:id</title>
<path fill="none" stroke="#000000" d="M2111.8704,-1157.8402C2063.3303,-1110.7538 2083.0458,-678.7526 2068,-624 2049.4026,-556.3231 2071.1856,-481 2001,-481"/>
<polygon fill="#000000" stroke="#000000" points="2111.9001,-1157.8537 2119.1341,-1166.095 2116.45,-1159.9268 2121,-1162 2121,-1162 2121,-1162 2116.45,-1159.9268 2122.8659,-1157.905 2111.9001,-1157.8537 2111.9001,-1157.8537"/>
<text text-anchor="start" x="1875.5565" y="-1172" font-family="Arial" font-size="10.00" fill="#000000">FOREIGN KEY (album_id) REFERENCES albums(id)</text>
</g>
<!-- public.albums_genres -->
<g id="node7" class="node">
<title>public.albums_genres</title>
<polygon fill="#efefef" stroke="transparent" points="2834,-1027 2834,-1073 3333,-1073 3333,-1027 2834,-1027"/>
<polygon fill="none" stroke="#000000" points="2834,-1027 2834,-1073 3333,-1073 3333,-1027 2834,-1027"/>
<text text-anchor="start" x="2932.1973" y="-1050.8" font-family="Arial Bold" font-size="18.00" fill="#000000">public.albums_genres</text>
<text text-anchor="start" x="3107.2347" y="-1050.8" font-family="Arial" font-size="14.00" fill="#000000">    </text>
<text text-anchor="start" x="3141.4395" y="-1050.8" font-family="Arial" font-size="14.00" fill="#666666">[BASE TABLE]</text>
<text text-anchor="start" x="3022.3228" y="-1036.4" font-family="Arial" font-size="14.00" fill="#333333">アルバムジャンル</text>
<polygon fill="none" stroke="#000000" points="2834,-997 2834,-1027 3333,-1027 3333,-997 2834,-997"/>
<text text-anchor="start" x="2841" y="-1008.4" font-family="Arial" font-size="14.00" fill="#000000">id    </text>
<text text-anchor="start" x="2886.094" y="-1008.4" font-family="Arial" font-size="14.00" fill="#666666">[text]</text>
<text text-anchor="start" x="2916.439" y="-1008.4" font-family="Arial" font-size="14.00" fill="#000000"> ID</text>
<polygon fill="none" stroke="#000000" points="2834,-967 2834,-997 3333,-997 3333,-967 2834,-967"/>
<text text-anchor="start" x="2841" y="-978.4" font-family="Arial" font-size="14.00" fill="#000000">album_id    </text>
<text text-anchor="start" x="2931.9916" y="-978.4" font-family="Arial" font-size="14.00" fill="#666666">[text]</text>
<text text-anchor="start" x="2962.3366" y="-978.4" font-family="Arial" font-size="14.00" fill="#000000"> アルバムID</text>
<polygon fill="none" stroke="#000000" points="2834,-937 2834,-967 3333,-967 3333,-937 2834,-937"/>
<text text-anchor="start" x="2841" y="-948.4" font-family="Arial" font-size="14.00" fill="#000000">genre_id    </text>
<text text-anchor="start" x="2929.6676" y="-948.4" font-family="Arial" font-size="14.00" fill="#666666">[text]</text>
<text text-anchor="start" x="2960.0126" y="-948.4" font-family="Arial" font-size="14.00" fill="#000000"> ジャンルID</text>
<polygon fill="none" stroke="#000000" points="2834,-907 2834,-937 3333,-937 3333,-907 2834,-907"/>
<text text-anchor="start" x="2840.9703" y="-918.4" font-family="Arial" font-size="14.00" fill="#000000">locked    </text>
<text text-anchor="start" x="2915.6295" y="-918.4" font-family="Arial" font-size="14.00" fill="#666666">[boolean]</text>
<text text-anchor="start" x="2973.2129" y="-918.4" font-family="Arial" font-size="14.00" fill="#000000"> ロック有無(true: ロック・削除不可、false: アンロック)</text>
<polygon fill="none" stroke="#000000" points="2834,-877 2834,-907 3333,-907 3333,-877 2834,-877"/>
<text text-anchor="start" x="2841" y="-888.4" font-family="Arial" font-size="14.00" fill="#000000">created_at    </text>
<text text-anchor="start" x="2941.3422" y="-888.4" font-family="Arial" font-size="14.00" fill="#666666">[timestamp with time zone]</text>
<text text-anchor="start" x="3107.0266" y="-888.4" font-family="Arial" font-size="14.00" fill="#000000"> 作成日時</text>
<polygon fill="none" stroke="#000000" points="2834,-847 2834,-877 3333,-877 3333,-847 2834,-847"/>
<text text-anchor="start" x="2841" y="-858.4" font-family="Arial" font-size="14.00" fill="#000000">updated_at    </text>
<text text-anchor="start" x="2945.2468" y="-858.4" font-family="Arial" font-size="14.00" fill="#666666">[timestamp with time zone]</text>
<text text-anchor="start" x="3110.9312" y="-858.4" font-family="Arial" font-size="14.00" fill="#000000"> 更新日時</text>
</g>
<!-- public.albums_genres&#45;&gt;public.albums -->
<g id="edge6" class="edge">
<title>public.albums_genres:album_id&#45;&gt;public.albums:id</title>
<path fill="none" stroke="#000000" d="M2824.1348,-980.2323C2760.89,-955.5251 2835.2816,-679.2821 2782,-624 2659.5573,-496.9601 2177.4408,-481 2001,-481"/>
<polygon fill="#000000" stroke="#000000" points="2824.1568,-980.2361 2833.2063,-986.4295 2829.0784,-981.1181 2834,-982 2834,-982 2834,-982 2829.0784,-981.1181 2834.7937,-977.5705 2824.1568,-980.2361 2824.1568,-980.2361"/>
<text text-anchor="start" x="2588.5565" y="-992" font-family="Arial" font-size="10.00" fill="#000000">FOREIGN KEY (album_id) REFERENCES albums(id)</text>
</g>
<!-- public.albums_tags -->
<g id="node8" class="node">
<title>public.albums_tags</title>
<polygon fill="#efefef" stroke="transparent" points="3437,-1027 3437,-1073 3864,-1073 3864,-1027 3437,-1027"/>
<polygon fill="none" stroke="#000000" points="3437,-1027 3437,-1073 3864,-1073 3864,-1027 3437,-1027"/>
<text text-anchor="start" x="3509.6985" y="-1050.8" font-family="Arial Bold" font-size="18.00" fill="#000000">public.albums_tags</text>
<text text-anchor="start" x="3663.7335" y="-1050.8" font-family="Arial" font-size="14.00" fill="#000000">    </text>
<text text-anchor="start" x="3697.9383" y="-1050.8" font-family="Arial" font-size="14.00" fill="#666666">[BASE TABLE]</text>
<text text-anchor="start" x="3605.3976" y="-1036.4" font-family="Arial" font-size="14.00" fill="#333333">アルバムタグ</text>
<polygon fill="none" stroke="#000000" points="3437,-997 3437,-1027 3864,-1027 3864,-997 3437,-997"/>
<text text-anchor="start" x="3444" y="-1008.4" font-family="Arial" font-size="14.00" fill="#000000">id    </text>
<text text-anchor="start" x="3489.094" y="-1008.4" font-family="Arial" font-size="14.00" fill="#666666">[text]</text>
<text text-anchor="start" x="3519.439" y="-1008.4" font-family="Arial" font-size="14.00" fill="#000000"> ID</text>
<polygon fill="none" stroke="#000000" points="3437,-967 3437,-997 3864,-997 3864,-967 3437,-967"/>
<text text-anchor="start" x="3444" y="-978.4" font-family="Arial" font-size="14.00" fill="#000000">album_id    </text>
<text text-anchor="start" x="3534.9916" y="-978.4" font-family="Arial" font-size="14.00" fill="#666666">[text]</text>
<text text-anchor="start" x="3565.3366" y="-978.4" font-family="Arial" font-size="14.00" fill="#000000"> アルバムID</text>
<polygon fill="none" stroke="#000000" points="3437,-937 3437,-967 3864,-967 3864,-937 3437,-937"/>
<text text-anchor="start" x="3444" y="-948.4" font-family="Arial" font-size="14.00" fill="#000000">tag_id    </text>
<text text-anchor="start" x="3516.3324" y="-948.4" font-family="Arial" font-size="14.00" fill="#666666">[text]</text>
<text text-anchor="start" x="3546.6774" y="-948.4" font-family="Arial" font-size="14.00" fill="#000000"> タグID</text>
<polygon fill="none" stroke="#000000" points="3437,-907 3437,-937 3864,-937 3864,-907 3437,-907"/>
<text text-anchor="start" x="3443.6255" y="-918.4" font-family="Arial" font-size="14.00" fill="#000000">locked    </text>
<text text-anchor="start" x="3518.2847" y="-918.4" font-family="Arial" font-size="14.00" fill="#666666">[boolean]</text>
<text text-anchor="start" x="3575.8681" y="-918.4" font-family="Arial" font-size="14.00" fill="#000000"> ロック有無(true: ロック、false: アンロック)</text>
<polygon fill="none" stroke="#000000" points="3437,-877 3437,-907 3864,-907 3864,-877 3437,-877"/>
<text text-anchor="start" x="3444" y="-888.4" font-family="Arial" font-size="14.00" fill="#000000">created_at    </text>
<text text-anchor="start" x="3544.3422" y="-888.4" font-family="Arial" font-size="14.00" fill="#666666">[timestamp with time zone]</text>
<text text-anchor="start" x="3710.0266" y="-888.4" font-family="Arial" font-size="14.00" fill="#000000"> 作成日時</text>
<polygon fill="none" stroke="#000000" points="3437,-847 3437,-877 3864,-877 3864,-847 3437,-847"/>
<text text-anchor="start" x="3444" y="-858.4" font-family="Arial" font-size="14.00" fill="#000000">updated_at    </text>
<text text-anchor="start" x="3548.2468" y="-858.4" font-family="Arial" font-size="14.00" fill="#666666">[timestamp with time zone]</text>
<text text-anchor="start" x="3713.9312" y="-858.4" font-family="Arial" font-size="14.00" fill="#000000"> 更新日時</text>
</g>
<!-- public.albums_tags&#45;&gt;public.albums -->
<g id="edge7" class="edge">
<title>public.albums_tags:album_id&#45;&gt;public.albums:id</title>
<path fill="none" stroke="#000000" d="M3427.1476,-980.2194C3364.0804,-955.3344 3440.4001,-677.1589 3385,-624 3273.4507,-516.9635 2155.5964,-481 2001,-481"/>
<polygon fill="#000000" stroke="#000000" points="3427.1594,-980.2215 3436.1997,-986.4283 3432.0797,-981.1107 3437,-982 3437,-982 3437,-982 3432.0797,-981.1107 3437.8003,-977.5717 3427.1594,-980.2215 3427.1594,-980.2215"/>
<text text-anchor="start" x="3443.5565" y="-992" font-family="Arial" font-size="10.00" fill="#000000">FOREIGN KEY (album_id) REFERENCES albums(id)</text>
</g>
</g>
</svg>
