<?xml version="1.0" encoding="UTF-8" standalone="no"?>
<!DOCTYPE svg PUBLIC "-//W3C//DTD SVG 1.1//EN"
 "http://www.w3.org/Graphics/SVG/1.1/DTD/svg11.dtd">
<!-- Generated by graphviz version 2.40.1 (20161225.0304)
 -->
<!-- Title: public.original_song_distribution_service_urls Pages: 1 -->
<svg width="849pt" height="794pt"
 viewBox="0.00 0.00 849.00 794.00" xmlns="http://www.w3.org/2000/svg" xmlns:xlink="http://www.w3.org/1999/xlink">
<g id="graph0" class="graph" transform="scale(1 1) rotate(0) translate(4 790)">
<title>public.original_song_distribution_service_urls</title>
<polygon fill="#ffffff" stroke="transparent" points="-4,4 -4,-790 845,-790 845,4 -4,4"/>
<!-- public.original_song_distribution_service_urls -->
<g id="node1" class="node">
<title>public.original_song_distribution_service_urls</title>
<polygon fill="#efefef" stroke="transparent" points="51,-694 51,-740 524,-740 524,-694 51,-694"/>
<polygon fill="none" stroke="#000000" points="51,-694 51,-740 524,-740 524,-694 51,-694"/>
<text text-anchor="start" x="57.8462" y="-717.8" font-family="Arial Bold" font-size="18.00" fill="#000000">public.original_song_distribution_service_urls</text>
<text text-anchor="start" x="419.9" y="-717.8" font-family="Arial" font-size="14.00" fill="#000000"> </text>
<text text-anchor="start" x="423.7906" y="-717.8" font-family="Arial" font-size="14.00" fill="#666666">[BASE TABLE]</text>
<text text-anchor="start" x="210.6372" y="-703.4" font-family="Arial" font-size="14.00" fill="#333333">原曲配信サービスURL</text>
<polygon fill="none" stroke="#000000" points="51,-664 51,-694 524,-694 524,-664 51,-664"/>
<text text-anchor="start" x="58" y="-675.4" font-family="Arial" font-size="14.00" fill="#000000">id </text>
<text text-anchor="start" x="72.7798" y="-675.4" font-family="Arial" font-size="14.00" fill="#666666">[text]</text>
<polygon fill="none" stroke="#000000" points="51,-634 51,-664 524,-664 524,-634 51,-634"/>
<text text-anchor="start" x="58" y="-645.4" font-family="Arial" font-size="14.00" fill="#000000">original_song_id </text>
<text text-anchor="start" x="163.8036" y="-645.4" font-family="Arial" font-size="14.00" fill="#666666">[text]</text>
<text text-anchor="start" x="194.1486" y="-645.4" font-family="Arial" font-size="14.00" fill="#000000"> 原曲ID</text>
<polygon fill="none" stroke="#000000" points="51,-604 51,-634 524,-634 524,-604 51,-604"/>
<text text-anchor="start" x="58" y="-615.4" font-family="Arial" font-size="14.00" fill="#000000">service </text>
<text text-anchor="start" x="106.223" y="-615.4" font-family="Arial" font-size="14.00" fill="#666666">[distribution_service]</text>
<text text-anchor="start" x="233.7938" y="-615.4" font-family="Arial" font-size="14.00" fill="#000000"> 配信サービス</text>
<polygon fill="none" stroke="#000000" points="51,-574 51,-604 524,-604 524,-574 51,-574"/>
<text text-anchor="start" x="58" y="-585.4" font-family="Arial" font-size="14.00" fill="#000000">url </text>
<text text-anchor="start" x="77.4404" y="-585.4" font-family="Arial" font-size="14.00" fill="#666666">[text]</text>
<text text-anchor="start" x="107.7854" y="-585.4" font-family="Arial" font-size="14.00" fill="#000000"> URL</text>
<polygon fill="none" stroke="#000000" points="51,-544 51,-574 524,-574 524,-544 51,-544"/>
<text text-anchor="start" x="58" y="-555.4" font-family="Arial" font-size="14.00" fill="#000000">created_at </text>
<text text-anchor="start" x="128.028" y="-555.4" font-family="Arial" font-size="14.00" fill="#666666">[timestamp with time zone]</text>
<text text-anchor="start" x="293.7124" y="-555.4" font-family="Arial" font-size="14.00" fill="#000000"> 作成日時</text>
<polygon fill="none" stroke="#000000" points="51,-514 51,-544 524,-544 524,-514 51,-514"/>
<text text-anchor="start" x="58" y="-525.4" font-family="Arial" font-size="14.00" fill="#000000">updated_at </text>
<text text-anchor="start" x="131.9326" y="-525.4" font-family="Arial" font-size="14.00" fill="#666666">[timestamp with time zone]</text>
<text text-anchor="start" x="297.617" y="-525.4" font-family="Arial" font-size="14.00" fill="#000000"> 更新日時</text>
<polygon fill="none" stroke="#000000" stroke-width="3" points="49,-512.5 49,-741.5 525,-741.5 525,-512.5 49,-512.5"/>
</g>
<!-- public.original_songs -->
<g id="node2" class="node">
<title>public.original_songs</title>
<polygon fill="#efefef" stroke="transparent" points="43,-343 43,-389 533,-389 533,-343 43,-343"/>
<polygon fill="none" stroke="#000000" points="43,-343 43,-389 533,-389 533,-343 43,-343"/>
<text text-anchor="start" x="155.3563" y="-366.8" font-family="Arial Bold" font-size="18.00" fill="#000000">public.original_songs</text>
<text text-anchor="start" x="323.3899" y="-366.8" font-family="Arial" font-size="14.00" fill="#000000"> </text>
<text text-anchor="start" x="327.2805" y="-366.8" font-family="Arial" font-size="14.00" fill="#666666">[BASE TABLE]</text>
<text text-anchor="start" x="274.3822" y="-352.4" font-family="Arial" font-size="14.00" fill="#333333">原曲</text>
<polygon fill="none" stroke="#000000" points="43,-313 43,-343 533,-343 533,-313 43,-313"/>
<text text-anchor="start" x="50" y="-324.4" font-family="Arial" font-size="14.00" fill="#000000">id </text>
<text text-anchor="start" x="64.7798" y="-324.4" font-family="Arial" font-size="14.00" fill="#666666">[text]</text>
<text text-anchor="start" x="95.1248" y="-324.4" font-family="Arial" font-size="14.00" fill="#000000"> 原曲ID</text>
<polygon fill="none" stroke="#000000" points="43,-283 43,-313 533,-313 533,-283 43,-283"/>
<text text-anchor="start" x="50" y="-294.4" font-family="Arial" font-size="14.00" fill="#000000">product_id </text>
<text text-anchor="start" x="119.244" y="-294.4" font-family="Arial" font-size="14.00" fill="#666666">[text]</text>
<text text-anchor="start" x="149.589" y="-294.4" font-family="Arial" font-size="14.00" fill="#000000"> 原作ID</text>
<polygon fill="none" stroke="#000000" points="43,-253 43,-283 533,-283 533,-253 43,-253"/>
<text text-anchor="start" x="50" y="-264.4" font-family="Arial" font-size="14.00" fill="#000000">name </text>
<text text-anchor="start" x="88.899" y="-264.4" font-family="Arial" font-size="14.00" fill="#666666">[text]</text>
<text text-anchor="start" x="119.244" y="-264.4" font-family="Arial" font-size="14.00" fill="#000000"> 名前</text>
<polygon fill="none" stroke="#000000" points="43,-223 43,-253 533,-253 533,-223 43,-223"/>
<text text-anchor="start" x="50" y="-234.4" font-family="Arial" font-size="14.00" fill="#000000">composer </text>
<text text-anchor="start" x="115.3422" y="-234.4" font-family="Arial" font-size="14.00" fill="#666666">[text]</text>
<text text-anchor="start" x="145.6872" y="-234.4" font-family="Arial" font-size="14.00" fill="#000000"> 作曲者</text>
<polygon fill="none" stroke="#000000" points="43,-193 43,-223 533,-223 533,-193 43,-193"/>
<text text-anchor="start" x="50" y="-204.4" font-family="Arial" font-size="14.00" fill="#000000">arranger </text>
<text text-anchor="start" x="106.7854" y="-204.4" font-family="Arial" font-size="14.00" fill="#666666">[text]</text>
<text text-anchor="start" x="137.1304" y="-204.4" font-family="Arial" font-size="14.00" fill="#000000"> 編曲者</text>
<polygon fill="none" stroke="#000000" points="43,-163 43,-193 533,-193 533,-163 43,-163"/>
<text text-anchor="start" x="50" y="-174.4" font-family="Arial" font-size="14.00" fill="#000000">track_number </text>
<text text-anchor="start" x="139.4586" y="-174.4" font-family="Arial" font-size="14.00" fill="#666666">[integer]</text>
<text text-anchor="start" x="190.028" y="-174.4" font-family="Arial" font-size="14.00" fill="#000000"> トラック番号</text>
<polygon fill="none" stroke="#000000" points="43,-133 43,-163 533,-163 533,-133 43,-133"/>
<text text-anchor="start" x="49.9818" y="-144.4" font-family="Arial" font-size="14.00" fill="#000000">is_original </text>
<text text-anchor="start" x="116.8724" y="-144.4" font-family="Arial" font-size="14.00" fill="#666666">[boolean]</text>
<text text-anchor="start" x="174.4558" y="-144.4" font-family="Arial" font-size="14.00" fill="#000000"> オリジナル有無(true: オリジナル(初出)、false: 再録など)</text>
<polygon fill="none" stroke="#000000" points="43,-103 43,-133 533,-133 533,-103 43,-103"/>
<text text-anchor="start" x="50" y="-114.4" font-family="Arial" font-size="14.00" fill="#000000">source_id </text>
<text text-anchor="start" x="114.5708" y="-114.4" font-family="Arial" font-size="14.00" fill="#666666">[text]</text>
<text text-anchor="start" x="144.9158" y="-114.4" font-family="Arial" font-size="14.00" fill="#000000"> 原曲元の原曲ID</text>
<polygon fill="none" stroke="#000000" points="43,-73 43,-103 533,-103 533,-73 43,-73"/>
<text text-anchor="start" x="50" y="-84.4" font-family="Arial" font-size="14.00" fill="#000000">created_at </text>
<text text-anchor="start" x="120.028" y="-84.4" font-family="Arial" font-size="14.00" fill="#666666">[timestamp with time zone]</text>
<text text-anchor="start" x="285.7124" y="-84.4" font-family="Arial" font-size="14.00" fill="#000000"> 作成日時</text>
<polygon fill="none" stroke="#000000" points="43,-43 43,-73 533,-73 533,-43 43,-43"/>
<text text-anchor="start" x="50" y="-54.4" font-family="Arial" font-size="14.00" fill="#000000">updated_at </text>
<text text-anchor="start" x="123.9326" y="-54.4" font-family="Arial" font-size="14.00" fill="#666666">[timestamp with time zone]</text>
<text text-anchor="start" x="289.617" y="-54.4" font-family="Arial" font-size="14.00" fill="#000000"> 更新日時</text>
</g>
<!-- public.original_song_distribution_service_urls&#45;&gt;public.original_songs -->
<g id="edge1" class="edge">
<title>public.original_song_distribution_service_urls:original_song_id&#45;&gt;public.original_songs:id</title>
<path fill="none" stroke="#000000" d="M534.2054,-648.278C602.0747,-638.1634 576.2608,-524.3184 524,-468 451.09,-389.4292 115.91,-510.5708 43,-432 11.5593,-398.1182 -3.2222,-328 43,-328"/>
<polygon fill="#000000" stroke="#000000" points="533.9751,-648.2942 523.6824,-644.5112 528.9875,-648.6471 524,-649 524,-649 524,-649 528.9875,-648.6471 524.3176,-653.4888 533.9751,-648.2942 533.9751,-648.2942"/>
<text text-anchor="start" x="531.3235" y="-659" font-family="Arial" font-size="10.00" fill="#000000">FOREIGN KEY (original_song_id) REFERENCES original_songs(id)</text>
</g>
</g>
</svg>
