<?xml version="1.0" encoding="UTF-8" standalone="no"?>
<!DOCTYPE svg PUBLIC "-//W3C//DTD SVG 1.1//EN"
 "http://www.w3.org/Graphics/SVG/1.1/DTD/svg11.dtd">
<!-- Generated by graphviz version 2.40.1 (20161225.0304)
 -->
<!-- Title: public.genres Pages: 1 -->
<svg width="1343pt" height="614pt"
 viewBox="0.00 0.00 1343.00 614.00" xmlns="http://www.w3.org/2000/svg" xmlns:xlink="http://www.w3.org/1999/xlink">
<g id="graph0" class="graph" transform="scale(1 1) rotate(0) translate(4 610)">
<title>public.genres</title>
<polygon fill="#ffffff" stroke="transparent" points="-4,4 -4,-610 1339,-610 1339,4 -4,4"/>
<!-- public.genres -->
<g id="node1" class="node">
<title>public.genres</title>
<polygon fill="#efefef" stroke="transparent" points="511.5,-166 511.5,-212 825.5,-212 825.5,-166 511.5,-166"/>
<polygon fill="none" stroke="#000000" points="511.5,-166 511.5,-212 825.5,-212 825.5,-166 511.5,-166"/>
<text text-anchor="start" x="551.2029" y="-189.8" font-family="Arial Bold" font-size="18.00" fill="#000000">public.genres</text>
<text text-anchor="start" x="658.2291" y="-189.8" font-family="Arial" font-size="14.00" fill="#000000">    </text>
<text text-anchor="start" x="692.4339" y="-189.8" font-family="Arial" font-size="14.00" fill="#666666">[BASE TABLE]</text>
<text text-anchor="start" x="637.1344" y="-175.4" font-family="Arial" font-size="14.00" fill="#333333">ジャンル</text>
<polygon fill="none" stroke="#000000" points="511.5,-136 511.5,-166 825.5,-166 825.5,-136 511.5,-136"/>
<text text-anchor="start" x="518.5" y="-147.4" font-family="Arial" font-size="14.00" fill="#000000">id </text>
<text text-anchor="start" x="533.2798" y="-147.4" font-family="Arial" font-size="14.00" fill="#666666">[text]</text>
<text text-anchor="start" x="563.6248" y="-147.4" font-family="Arial" font-size="14.00" fill="#000000"> ID</text>
<polygon fill="none" stroke="#000000" points="511.5,-106 511.5,-136 825.5,-136 825.5,-106 511.5,-106"/>
<text text-anchor="start" x="518.5" y="-117.4" font-family="Arial" font-size="14.00" fill="#000000">name </text>
<text text-anchor="start" x="557.399" y="-117.4" font-family="Arial" font-size="14.00" fill="#666666">[text]</text>
<text text-anchor="start" x="587.744" y="-117.4" font-family="Arial" font-size="14.00" fill="#000000"> 名前</text>
<polygon fill="none" stroke="#000000" points="511.5,-76 511.5,-106 825.5,-106 825.5,-76 511.5,-76"/>
<text text-anchor="start" x="518.3542" y="-87.4" font-family="Arial" font-size="14.00" fill="#000000">created_at </text>
<text text-anchor="start" x="588.3822" y="-87.4" font-family="Arial" font-size="14.00" fill="#666666">[timestamp with time zone]</text>
<text text-anchor="start" x="754.0666" y="-87.4" font-family="Arial" font-size="14.00" fill="#000000"> 作成日時</text>
<polygon fill="none" stroke="#000000" points="511.5,-46 511.5,-76 825.5,-76 825.5,-46 511.5,-46"/>
<text text-anchor="start" x="518.5" y="-57.4" font-family="Arial" font-size="14.00" fill="#000000">updated_at </text>
<text text-anchor="start" x="592.4326" y="-57.4" font-family="Arial" font-size="14.00" fill="#666666">[timestamp with time zone]</text>
<text text-anchor="start" x="758.117" y="-57.4" font-family="Arial" font-size="14.00" fill="#000000"> 更新日時</text>
<polygon fill="none" stroke="#000000" stroke-width="3" points="510,-44.5 510,-213.5 827,-213.5 827,-44.5 510,-44.5"/>
</g>
<!-- public.albums_genres -->
<g id="node2" class="node">
<title>public.albums_genres</title>
<polygon fill="#efefef" stroke="transparent" points="43.5,-517 43.5,-563 390.5,-563 390.5,-517 43.5,-517"/>
<polygon fill="none" stroke="#000000" points="43.5,-517 43.5,-563 390.5,-563 390.5,-517 43.5,-517"/>
<text text-anchor="start" x="65.6973" y="-540.8" font-family="Arial Bold" font-size="18.00" fill="#000000">public.albums_genres</text>
<text text-anchor="start" x="240.7347" y="-540.8" font-family="Arial" font-size="14.00" fill="#000000">    </text>
<text text-anchor="start" x="274.9395" y="-540.8" font-family="Arial" font-size="14.00" fill="#666666">[BASE TABLE]</text>
<text text-anchor="start" x="155.8228" y="-526.4" font-family="Arial" font-size="14.00" fill="#333333">アルバムジャンル</text>
<polygon fill="none" stroke="#000000" points="43.5,-487 43.5,-517 390.5,-517 390.5,-487 43.5,-487"/>
<text text-anchor="start" x="50.5" y="-498.4" font-family="Arial" font-size="14.00" fill="#000000">id    </text>
<text text-anchor="start" x="95.594" y="-498.4" font-family="Arial" font-size="14.00" fill="#666666">[text]</text>
<text text-anchor="start" x="125.939" y="-498.4" font-family="Arial" font-size="14.00" fill="#000000"> ID</text>
<polygon fill="none" stroke="#000000" points="43.5,-457 43.5,-487 390.5,-487 390.5,-457 43.5,-457"/>
<text text-anchor="start" x="50.5" y="-468.4" font-family="Arial" font-size="14.00" fill="#000000">album_id    </text>
<text text-anchor="start" x="141.4916" y="-468.4" font-family="Arial" font-size="14.00" fill="#666666">[text]</text>
<text text-anchor="start" x="171.8366" y="-468.4" font-family="Arial" font-size="14.00" fill="#000000"> アルバムID</text>
<polygon fill="none" stroke="#000000" points="43.5,-427 43.5,-457 390.5,-457 390.5,-427 43.5,-427"/>
<text text-anchor="start" x="50.5" y="-438.4" font-family="Arial" font-size="14.00" fill="#000000">genre_id    </text>
<text text-anchor="start" x="139.1676" y="-438.4" font-family="Arial" font-size="14.00" fill="#666666">[text]</text>
<text text-anchor="start" x="169.5126" y="-438.4" font-family="Arial" font-size="14.00" fill="#000000"> ジャンルID</text>
<polygon fill="none" stroke="#000000" points="43.5,-397 43.5,-427 390.5,-427 390.5,-397 43.5,-397"/>
<text text-anchor="start" x="50.1578" y="-408.4" font-family="Arial" font-size="14.00" fill="#000000">locked_at    </text>
<text text-anchor="start" x="144.2728" y="-408.4" font-family="Arial" font-size="14.00" fill="#666666">[timestamp with time zone]</text>
<text text-anchor="start" x="309.9572" y="-408.4" font-family="Arial" font-size="14.00" fill="#000000"> ロック日時</text>
<polygon fill="none" stroke="#000000" points="43.5,-367 43.5,-397 390.5,-397 390.5,-367 43.5,-367"/>
<text text-anchor="start" x="50.5" y="-378.4" font-family="Arial" font-size="14.00" fill="#000000">created_at    </text>
<text text-anchor="start" x="150.8422" y="-378.4" font-family="Arial" font-size="14.00" fill="#666666">[timestamp with time zone]</text>
<text text-anchor="start" x="316.5266" y="-378.4" font-family="Arial" font-size="14.00" fill="#000000"> 作成日時</text>
<polygon fill="none" stroke="#000000" points="43.5,-337 43.5,-367 390.5,-367 390.5,-337 43.5,-337"/>
<text text-anchor="start" x="50.5" y="-348.4" font-family="Arial" font-size="14.00" fill="#000000">updated_at    </text>
<text text-anchor="start" x="154.7468" y="-348.4" font-family="Arial" font-size="14.00" fill="#666666">[timestamp with time zone]</text>
<text text-anchor="start" x="320.4312" y="-348.4" font-family="Arial" font-size="14.00" fill="#000000"> 更新日時</text>
</g>
<!-- public.albums_genres&#45;&gt;public.genres -->
<g id="edge1" class="edge">
<title>public.albums_genres:genre_id&#45;&gt;public.genres:id</title>
<path fill="none" stroke="#000000" d="M400.5762,-441.3165C455.501,-433.2218 416.2284,-354.8669 441.5,-294 468.634,-228.6475 440.7384,-151 511.5,-151"/>
<polygon fill="#000000" stroke="#000000" points="400.4771,-441.3231 390.1954,-437.5103 395.4885,-441.6616 390.5,-442 390.5,-442 390.5,-442 395.4885,-441.6616 390.8046,-446.4897 400.4771,-441.3231 400.4771,-441.3231"/>
<text text-anchor="start" x="397.7165" y="-452" font-family="Arial" font-size="10.00" fill="#000000">FOREIGN KEY (genre_id) REFERENCES genres(id)</text>
</g>
<!-- public.songs_genres -->
<g id="node3" class="node">
<title>public.songs_genres</title>
<polygon fill="#efefef" stroke="transparent" points="494.5,-517 494.5,-563 841.5,-563 841.5,-517 494.5,-517"/>
<polygon fill="none" stroke="#000000" points="494.5,-517 494.5,-563 841.5,-563 841.5,-517 494.5,-517"/>
<text text-anchor="start" x="521.6905" y="-540.8" font-family="Arial Bold" font-size="18.00" fill="#000000">public.songs_genres</text>
<text text-anchor="start" x="686.7415" y="-540.8" font-family="Arial" font-size="14.00" fill="#000000">    </text>
<text text-anchor="start" x="720.9463" y="-540.8" font-family="Arial" font-size="14.00" fill="#666666">[BASE TABLE]</text>
<text text-anchor="start" x="616.0159" y="-526.4" font-family="Arial" font-size="14.00" fill="#333333">楽曲ジャンル</text>
<polygon fill="none" stroke="#000000" points="494.5,-487 494.5,-517 841.5,-517 841.5,-487 494.5,-487"/>
<text text-anchor="start" x="501.5" y="-498.4" font-family="Arial" font-size="14.00" fill="#000000">id    </text>
<text text-anchor="start" x="546.594" y="-498.4" font-family="Arial" font-size="14.00" fill="#666666">[text]</text>
<text text-anchor="start" x="576.939" y="-498.4" font-family="Arial" font-size="14.00" fill="#000000"> 楽曲ID</text>
<polygon fill="none" stroke="#000000" points="494.5,-457 494.5,-487 841.5,-487 841.5,-457 494.5,-457"/>
<text text-anchor="start" x="501.5" y="-468.4" font-family="Arial" font-size="14.00" fill="#000000">song_id    </text>
<text text-anchor="start" x="584.7244" y="-468.4" font-family="Arial" font-size="14.00" fill="#666666">[text]</text>
<text text-anchor="start" x="615.0694" y="-468.4" font-family="Arial" font-size="14.00" fill="#000000"> 楽曲ID</text>
<polygon fill="none" stroke="#000000" points="494.5,-427 494.5,-457 841.5,-457 841.5,-427 494.5,-427"/>
<text text-anchor="start" x="501.5" y="-438.4" font-family="Arial" font-size="14.00" fill="#000000">genre_id    </text>
<text text-anchor="start" x="590.1676" y="-438.4" font-family="Arial" font-size="14.00" fill="#666666">[text]</text>
<text text-anchor="start" x="620.5126" y="-438.4" font-family="Arial" font-size="14.00" fill="#000000"> ジャンルID</text>
<polygon fill="none" stroke="#000000" points="494.5,-397 494.5,-427 841.5,-427 841.5,-397 494.5,-397"/>
<text text-anchor="start" x="501.1578" y="-408.4" font-family="Arial" font-size="14.00" fill="#000000">locked_at    </text>
<text text-anchor="start" x="595.2728" y="-408.4" font-family="Arial" font-size="14.00" fill="#666666">[timestamp with time zone]</text>
<text text-anchor="start" x="760.9572" y="-408.4" font-family="Arial" font-size="14.00" fill="#000000"> ロック日時</text>
<polygon fill="none" stroke="#000000" points="494.5,-367 494.5,-397 841.5,-397 841.5,-367 494.5,-367"/>
<text text-anchor="start" x="501.5" y="-378.4" font-family="Arial" font-size="14.00" fill="#000000">created_at    </text>
<text text-anchor="start" x="601.8422" y="-378.4" font-family="Arial" font-size="14.00" fill="#666666">[timestamp with time zone]</text>
<text text-anchor="start" x="767.5266" y="-378.4" font-family="Arial" font-size="14.00" fill="#000000"> 作成日時</text>
<polygon fill="none" stroke="#000000" points="494.5,-337 494.5,-367 841.5,-367 841.5,-337 494.5,-337"/>
<text text-anchor="start" x="501.5" y="-348.4" font-family="Arial" font-size="14.00" fill="#000000">updated_at    </text>
<text text-anchor="start" x="605.7468" y="-348.4" font-family="Arial" font-size="14.00" fill="#666666">[timestamp with time zone]</text>
<text text-anchor="start" x="771.4312" y="-348.4" font-family="Arial" font-size="14.00" fill="#000000"> 更新日時</text>
</g>
<!-- public.songs_genres&#45;&gt;public.genres -->
<g id="edge2" class="edge">
<title>public.songs_genres:genre_id&#45;&gt;public.genres:id</title>
<path fill="none" stroke="#000000" d="M851.5161,-441.1359C904.8208,-431.3182 883.0158,-340.2911 841.5,-294 792.2474,-239.0822 560.7526,-312.9178 511.5,-258 479.7488,-222.5967 463.9444,-151 511.5,-151"/>
<polygon fill="#000000" stroke="#000000" points="851.463,-441.1404 841.1132,-437.5167 846.4815,-441.5702 841.5,-442 841.5,-442 841.5,-442 846.4815,-441.5702 841.8868,-446.4833 851.463,-441.1404 851.463,-441.1404"/>
<text text-anchor="start" x="848.7165" y="-452" font-family="Arial" font-size="10.00" fill="#000000">FOREIGN KEY (genre_id) REFERENCES genres(id)</text>
</g>
<!-- public.circles_genres -->
<g id="node4" class="node">
<title>public.circles_genres</title>
<polygon fill="#efefef" stroke="transparent" points="945.5,-517 945.5,-563 1292.5,-563 1292.5,-517 945.5,-517"/>
<polygon fill="none" stroke="#000000" points="945.5,-517 945.5,-563 1292.5,-563 1292.5,-517 945.5,-517"/>
<text text-anchor="start" x="971.2064" y="-540.8" font-family="Arial Bold" font-size="18.00" fill="#000000">public.circles_genres</text>
<text text-anchor="start" x="1139.2256" y="-540.8" font-family="Arial" font-size="14.00" fill="#000000">    </text>
<text text-anchor="start" x="1173.4304" y="-540.8" font-family="Arial" font-size="14.00" fill="#666666">[BASE TABLE]</text>
<text text-anchor="start" x="1069.2342" y="-526.4" font-family="Arial" font-size="14.00" fill="#333333">サークルタグ</text>
<polygon fill="none" stroke="#000000" points="945.5,-487 945.5,-517 1292.5,-517 1292.5,-487 945.5,-487"/>
<text text-anchor="start" x="952.5" y="-498.4" font-family="Arial" font-size="14.00" fill="#000000">id    </text>
<text text-anchor="start" x="997.594" y="-498.4" font-family="Arial" font-size="14.00" fill="#666666">[text]</text>
<text text-anchor="start" x="1027.939" y="-498.4" font-family="Arial" font-size="14.00" fill="#000000"> ID</text>
<polygon fill="none" stroke="#000000" points="945.5,-457 945.5,-487 1292.5,-487 1292.5,-457 945.5,-457"/>
<text text-anchor="start" x="952.5" y="-468.4" font-family="Arial" font-size="14.00" fill="#000000">circle_id    </text>
<text text-anchor="start" x="1038.033" y="-468.4" font-family="Arial" font-size="14.00" fill="#666666">[text]</text>
<text text-anchor="start" x="1068.378" y="-468.4" font-family="Arial" font-size="14.00" fill="#000000"> サークルID</text>
<polygon fill="none" stroke="#000000" points="945.5,-427 945.5,-457 1292.5,-457 1292.5,-427 945.5,-427"/>
<text text-anchor="start" x="952.5" y="-438.4" font-family="Arial" font-size="14.00" fill="#000000">genre_id    </text>
<text text-anchor="start" x="1041.1676" y="-438.4" font-family="Arial" font-size="14.00" fill="#666666">[text]</text>
<text text-anchor="start" x="1071.5126" y="-438.4" font-family="Arial" font-size="14.00" fill="#000000"> タグID</text>
<polygon fill="none" stroke="#000000" points="945.5,-397 945.5,-427 1292.5,-427 1292.5,-397 945.5,-397"/>
<text text-anchor="start" x="952.1578" y="-408.4" font-family="Arial" font-size="14.00" fill="#000000">locked_at    </text>
<text text-anchor="start" x="1046.2728" y="-408.4" font-family="Arial" font-size="14.00" fill="#666666">[timestamp with time zone]</text>
<text text-anchor="start" x="1211.9572" y="-408.4" font-family="Arial" font-size="14.00" fill="#000000"> ロック日時</text>
<polygon fill="none" stroke="#000000" points="945.5,-367 945.5,-397 1292.5,-397 1292.5,-367 945.5,-367"/>
<text text-anchor="start" x="952.5" y="-378.4" font-family="Arial" font-size="14.00" fill="#000000">created_at    </text>
<text text-anchor="start" x="1052.8422" y="-378.4" font-family="Arial" font-size="14.00" fill="#666666">[timestamp with time zone]</text>
<text text-anchor="start" x="1218.5266" y="-378.4" font-family="Arial" font-size="14.00" fill="#000000"> 作成日時</text>
<polygon fill="none" stroke="#000000" points="945.5,-337 945.5,-367 1292.5,-367 1292.5,-337 945.5,-337"/>
<text text-anchor="start" x="952.5" y="-348.4" font-family="Arial" font-size="14.00" fill="#000000">updated_at    </text>
<text text-anchor="start" x="1056.7468" y="-348.4" font-family="Arial" font-size="14.00" fill="#666666">[timestamp with time zone]</text>
<text text-anchor="start" x="1222.4312" y="-348.4" font-family="Arial" font-size="14.00" fill="#000000"> 更新日時</text>
</g>
<!-- public.circles_genres&#45;&gt;public.genres -->
<g id="edge3" class="edge">
<title>public.circles_genres:genre_id&#45;&gt;public.genres:id</title>
<path fill="none" stroke="#000000" d="M935.3941,-441.3181C880.2537,-433.2423 918.6624,-355.0618 893.5,-294 866.687,-228.9327 895.8754,-151 825.5,-151"/>
<polygon fill="#000000" stroke="#000000" points="935.5227,-441.3267 945.197,-446.4898 940.5113,-441.6633 945.5,-442 945.5,-442 945.5,-442 940.5113,-441.6633 945.803,-437.5102 935.5227,-441.3267 935.5227,-441.3267"/>
<text text-anchor="start" x="952.7165" y="-426" font-family="Arial" font-size="10.00" fill="#000000">FOREIGN KEY (genre_id) REFERENCES genres(id)</text>
</g>
</g>
</svg>
