<?xml version="1.0" encoding="UTF-8" standalone="no"?>
<!DOCTYPE svg PUBLIC "-//W3C//DTD SVG 1.1//EN"
 "http://www.w3.org/Graphics/SVG/1.1/DTD/svg11.dtd">
<!-- Generated by graphviz version 2.40.1 (20161225.0304)
 -->
<!-- Title: public.circles_tags Pages: 1 -->
<svg width="1134pt" height="824pt"
 viewBox="0.00 0.00 1134.00 824.00" xmlns="http://www.w3.org/2000/svg" xmlns:xlink="http://www.w3.org/1999/xlink">
<g id="graph0" class="graph" transform="scale(1 1) rotate(0) translate(4 820)">
<title>public.circles_tags</title>
<polygon fill="#ffffff" stroke="transparent" points="-4,4 -4,-820 1130,-820 1130,4 -4,4"/>
<!-- public.circles_tags -->
<g id="node1" class="node">
<title>public.circles_tags</title>
<polygon fill="#efefef" stroke="transparent" points="441,-724 441,-770 838,-770 838,-724 441,-724"/>
<polygon fill="none" stroke="#000000" points="441,-724 441,-770 838,-770 838,-724 441,-724"/>
<text text-anchor="start" x="517.3647" y="-747.8" font-family="Arial Bold" font-size="18.00" fill="#000000">public.circles_tags</text>
<text text-anchor="start" x="664.3815" y="-747.8" font-family="Arial" font-size="14.00" fill="#000000"> </text>
<text text-anchor="start" x="668.2721" y="-747.8" font-family="Arial" font-size="14.00" fill="#666666">[BASE TABLE]</text>
<text text-anchor="start" x="589.7342" y="-733.4" font-family="Arial" font-size="14.00" fill="#333333">サークルタグ</text>
<polygon fill="none" stroke="#000000" points="441,-694 441,-724 838,-724 838,-694 441,-694"/>
<text text-anchor="start" x="448" y="-705.4" font-family="Arial" font-size="14.00" fill="#000000">circle_id </text>
<text text-anchor="start" x="503.2188" y="-705.4" font-family="Arial" font-size="14.00" fill="#666666">[text]</text>
<text text-anchor="start" x="533.5638" y="-705.4" font-family="Arial" font-size="14.00" fill="#000000"> サークルID</text>
<polygon fill="none" stroke="#000000" points="441,-664 441,-694 838,-694 838,-664 441,-664"/>
<text text-anchor="start" x="448" y="-675.4" font-family="Arial" font-size="14.00" fill="#000000">tag_id </text>
<text text-anchor="start" x="490.0182" y="-675.4" font-family="Arial" font-size="14.00" fill="#666666">[text]</text>
<text text-anchor="start" x="520.3632" y="-675.4" font-family="Arial" font-size="14.00" fill="#000000"> タグID</text>
<polygon fill="none" stroke="#000000" points="441,-634 441,-664 838,-664 838,-634 441,-634"/>
<text text-anchor="start" x="447.7826" y="-645.4" font-family="Arial" font-size="14.00" fill="#000000">locked </text>
<text text-anchor="start" x="492.1276" y="-645.4" font-family="Arial" font-size="14.00" fill="#666666">[boolean]</text>
<text text-anchor="start" x="549.711" y="-645.4" font-family="Arial" font-size="14.00" fill="#000000"> ロック有無(true: ロック、false: アンロック)</text>
<polygon fill="none" stroke="#000000" points="441,-604 441,-634 838,-634 838,-604 441,-604"/>
<text text-anchor="start" x="448" y="-615.4" font-family="Arial" font-size="14.00" fill="#000000">created_at </text>
<text text-anchor="start" x="518.028" y="-615.4" font-family="Arial" font-size="14.00" fill="#666666">[timestamp with time zone]</text>
<text text-anchor="start" x="683.7124" y="-615.4" font-family="Arial" font-size="14.00" fill="#000000"> 作成日時</text>
<polygon fill="none" stroke="#000000" points="441,-574 441,-604 838,-604 838,-574 441,-574"/>
<text text-anchor="start" x="448" y="-585.4" font-family="Arial" font-size="14.00" fill="#000000">updated_at </text>
<text text-anchor="start" x="521.9326" y="-585.4" font-family="Arial" font-size="14.00" fill="#666666">[timestamp with time zone]</text>
<text text-anchor="start" x="687.617" y="-585.4" font-family="Arial" font-size="14.00" fill="#000000"> 更新日時</text>
<polygon fill="none" stroke="#000000" stroke-width="3" points="439,-572.5 439,-771.5 839,-771.5 839,-572.5 439,-572.5"/>
</g>
<!-- public.circles -->
<g id="node2" class="node">
<title>public.circles</title>
<polygon fill="#efefef" stroke="transparent" points="43,-403 43,-449 665,-449 665,-403 43,-403"/>
<polygon fill="none" stroke="#000000" points="43,-403 43,-449 665,-449 665,-403 43,-403"/>
<text text-anchor="start" x="253.8751" y="-426.8" font-family="Arial Bold" font-size="18.00" fill="#000000">public.circles</text>
<text text-anchor="start" x="356.8711" y="-426.8" font-family="Arial" font-size="14.00" fill="#000000"> </text>
<text text-anchor="start" x="360.7617" y="-426.8" font-family="Arial" font-size="14.00" fill="#666666">[BASE TABLE]</text>
<text text-anchor="start" x="319.525" y="-412.4" font-family="Arial" font-size="14.00" fill="#333333">サークル</text>
<polygon fill="none" stroke="#000000" points="43,-373 43,-403 665,-403 665,-373 43,-373"/>
<text text-anchor="start" x="50" y="-384.4" font-family="Arial" font-size="14.00" fill="#000000">id </text>
<text text-anchor="start" x="64.7798" y="-384.4" font-family="Arial" font-size="14.00" fill="#666666">[text]</text>
<polygon fill="none" stroke="#000000" points="43,-343 43,-373 665,-373 665,-343 43,-343"/>
<text text-anchor="start" x="50" y="-354.4" font-family="Arial" font-size="14.00" fill="#000000">name </text>
<text text-anchor="start" x="88.899" y="-354.4" font-family="Arial" font-size="14.00" fill="#666666">[text]</text>
<text text-anchor="start" x="119.244" y="-354.4" font-family="Arial" font-size="14.00" fill="#000000"> 名前</text>
<polygon fill="none" stroke="#000000" points="43,-313 43,-343 665,-343 665,-313 43,-313"/>
<text text-anchor="start" x="50" y="-324.4" font-family="Arial" font-size="14.00" fill="#000000">name_reading </text>
<text text-anchor="start" x="143.3618" y="-324.4" font-family="Arial" font-size="14.00" fill="#666666">[text]</text>
<text text-anchor="start" x="173.7068" y="-324.4" font-family="Arial" font-size="14.00" fill="#000000"> 名前読み方</text>
<polygon fill="none" stroke="#000000" points="43,-283 43,-313 665,-313 665,-283 43,-283"/>
<text text-anchor="start" x="49.5763" y="-294.4" font-family="Arial" font-size="14.00" fill="#000000">initial_letter_type </text>
<text text-anchor="start" x="158.4837" y="-294.4" font-family="Arial" font-size="14.00" fill="#666666">[initial_letter_type]</text>
<text text-anchor="start" x="271.2817" y="-294.4" font-family="Arial" font-size="14.00" fill="#000000"> 頭文字の文字種別(symbol,number,alphabet,kana,kanji,other)</text>
<polygon fill="none" stroke="#000000" points="43,-253 43,-283 665,-283 665,-253 43,-253"/>
<text text-anchor="start" x="50" y="-264.4" font-family="Arial" font-size="14.00" fill="#000000">initial_letter_detail </text>
<text text-anchor="start" x="165.9032" y="-264.4" font-family="Arial" font-size="14.00" fill="#666666">[text]</text>
<text text-anchor="start" x="196.2482" y="-264.4" font-family="Arial" font-size="14.00" fill="#000000"> 頭文字の文字種別詳細</text>
<polygon fill="none" stroke="#000000" points="43,-223 43,-253 665,-253 665,-223 43,-223"/>
<text text-anchor="start" x="50" y="-234.4" font-family="Arial" font-size="14.00" fill="#000000">description </text>
<text text-anchor="start" x="121.568" y="-234.4" font-family="Arial" font-size="14.00" fill="#666666">[text]</text>
<text text-anchor="start" x="151.913" y="-234.4" font-family="Arial" font-size="14.00" fill="#000000"> 説明</text>
<polygon fill="none" stroke="#000000" points="43,-193 43,-223 665,-223 665,-193 43,-193"/>
<text text-anchor="start" x="50" y="-204.4" font-family="Arial" font-size="14.00" fill="#000000">url </text>
<text text-anchor="start" x="69.4404" y="-204.4" font-family="Arial" font-size="14.00" fill="#666666">[text]</text>
<text text-anchor="start" x="99.7854" y="-204.4" font-family="Arial" font-size="14.00" fill="#000000"> URL</text>
<polygon fill="none" stroke="#000000" points="43,-163 43,-193 665,-193 665,-163 43,-163"/>
<text text-anchor="start" x="50" y="-174.4" font-family="Arial" font-size="14.00" fill="#000000">blog_url </text>
<text text-anchor="start" x="103.6774" y="-174.4" font-family="Arial" font-size="14.00" fill="#666666">[text]</text>
<text text-anchor="start" x="134.0224" y="-174.4" font-family="Arial" font-size="14.00" fill="#000000"> ブログ URL</text>
<polygon fill="none" stroke="#000000" points="43,-133 43,-163 665,-163 665,-133 43,-133"/>
<text text-anchor="start" x="50" y="-144.4" font-family="Arial" font-size="14.00" fill="#000000">twitter_url </text>
<text text-anchor="start" x="114.5512" y="-144.4" font-family="Arial" font-size="14.00" fill="#666666">[text]</text>
<text text-anchor="start" x="144.8962" y="-144.4" font-family="Arial" font-size="14.00" fill="#000000"> Twitter URL</text>
<polygon fill="none" stroke="#000000" points="43,-103 43,-133 665,-133 665,-103 43,-103"/>
<text text-anchor="start" x="50" y="-114.4" font-family="Arial" font-size="14.00" fill="#000000">youtube_channel_url </text>
<text text-anchor="start" x="183.8288" y="-114.4" font-family="Arial" font-size="14.00" fill="#666666">[text]</text>
<text text-anchor="start" x="214.1738" y="-114.4" font-family="Arial" font-size="14.00" fill="#000000"> YouTubeチャンネル URL</text>
<polygon fill="none" stroke="#000000" points="43,-73 43,-103 665,-103 665,-73 43,-73"/>
<text text-anchor="start" x="50" y="-84.4" font-family="Arial" font-size="14.00" fill="#000000">created_at </text>
<text text-anchor="start" x="120.028" y="-84.4" font-family="Arial" font-size="14.00" fill="#666666">[timestamp with time zone]</text>
<text text-anchor="start" x="285.7124" y="-84.4" font-family="Arial" font-size="14.00" fill="#000000"> 作成日時</text>
<polygon fill="none" stroke="#000000" points="43,-43 43,-73 665,-73 665,-43 43,-43"/>
<text text-anchor="start" x="50" y="-54.4" font-family="Arial" font-size="14.00" fill="#000000">updated_at </text>
<text text-anchor="start" x="123.9326" y="-54.4" font-family="Arial" font-size="14.00" fill="#666666">[timestamp with time zone]</text>
<text text-anchor="start" x="289.617" y="-54.4" font-family="Arial" font-size="14.00" fill="#000000"> 更新日時</text>
</g>
<!-- public.circles_tags&#45;&gt;public.circles -->
<g id="edge1" class="edge">
<title>public.circles_tags:circle_id&#45;&gt;public.circles:id</title>
<path fill="none" stroke="#000000" d="M430.8093,-708.2911C363.1436,-698.3575 391.1688,-586.4792 441,-528 506.3987,-451.2516 599.6013,-568.7484 665,-492 694.979,-456.8183 711.2222,-388 665,-388"/>
<polygon fill="#000000" stroke="#000000" points="431.0241,-708.3059 440.6877,-713.4892 436.0121,-708.653 441,-709 441,-709 441,-709 436.0121,-708.653 441.3123,-704.5108 431.0241,-708.3059 431.0241,-708.3059"/>
<text text-anchor="start" x="203.4555" y="-719" font-family="Arial" font-size="10.00" fill="#000000">FOREIGN KEY (circle_id) REFERENCES circles(id)</text>
</g>
<!-- public.tags -->
<g id="node3" class="node">
<title>public.tags</title>
<polygon fill="#efefef" stroke="transparent" points="769,-298 769,-344 1083,-344 1083,-298 769,-298"/>
<polygon fill="none" stroke="#000000" points="769,-298 769,-344 1083,-344 1083,-298 769,-298"/>
<text text-anchor="start" x="834.3612" y="-321.8" font-family="Arial Bold" font-size="18.00" fill="#000000">public.tags</text>
<text text-anchor="start" x="920.385" y="-321.8" font-family="Arial" font-size="14.00" fill="#000000"> </text>
<text text-anchor="start" x="924.2756" y="-321.8" font-family="Arial" font-size="14.00" fill="#666666">[BASE TABLE]</text>
<text text-anchor="start" x="910.7092" y="-307.4" font-family="Arial" font-size="14.00" fill="#333333">タグ</text>
<polygon fill="none" stroke="#000000" points="769,-268 769,-298 1083,-298 1083,-268 769,-268"/>
<text text-anchor="start" x="776" y="-279.4" font-family="Arial" font-size="14.00" fill="#000000">id </text>
<text text-anchor="start" x="790.7798" y="-279.4" font-family="Arial" font-size="14.00" fill="#666666">[text]</text>
<polygon fill="none" stroke="#000000" points="769,-238 769,-268 1083,-268 1083,-238 769,-238"/>
<text text-anchor="start" x="776" y="-249.4" font-family="Arial" font-size="14.00" fill="#000000">name </text>
<text text-anchor="start" x="814.899" y="-249.4" font-family="Arial" font-size="14.00" fill="#666666">[text]</text>
<text text-anchor="start" x="845.244" y="-249.4" font-family="Arial" font-size="14.00" fill="#000000"> 名前</text>
<polygon fill="none" stroke="#000000" points="769,-208 769,-238 1083,-238 1083,-208 769,-208"/>
<text text-anchor="start" x="776" y="-219.4" font-family="Arial" font-size="14.00" fill="#000000">tag_type </text>
<text text-anchor="start" x="833.5848" y="-219.4" font-family="Arial" font-size="14.00" fill="#666666">[tag_type]</text>
<text text-anchor="start" x="895.0602" y="-219.4" font-family="Arial" font-size="14.00" fill="#000000"> タグ種別</text>
<polygon fill="none" stroke="#000000" points="769,-178 769,-208 1083,-208 1083,-178 769,-178"/>
<text text-anchor="start" x="775.8542" y="-189.4" font-family="Arial" font-size="14.00" fill="#000000">created_at </text>
<text text-anchor="start" x="845.8822" y="-189.4" font-family="Arial" font-size="14.00" fill="#666666">[timestamp with time zone]</text>
<text text-anchor="start" x="1011.5666" y="-189.4" font-family="Arial" font-size="14.00" fill="#000000"> 作成日時</text>
<polygon fill="none" stroke="#000000" points="769,-148 769,-178 1083,-178 1083,-148 769,-148"/>
<text text-anchor="start" x="776" y="-159.4" font-family="Arial" font-size="14.00" fill="#000000">updated_at </text>
<text text-anchor="start" x="849.9326" y="-159.4" font-family="Arial" font-size="14.00" fill="#666666">[timestamp with time zone]</text>
<text text-anchor="start" x="1015.617" y="-159.4" font-family="Arial" font-size="14.00" fill="#000000"> 更新日時</text>
</g>
<!-- public.circles_tags&#45;&gt;public.tags -->
<g id="edge2" class="edge">
<title>public.circles_tags:tag_id&#45;&gt;public.tags:id</title>
<path fill="none" stroke="#000000" d="M848.1431,-678.3467C951.6249,-664.0497 776.542,-419.5701 769,-387 758.5726,-341.9693 722.7778,-283 769,-283"/>
<polygon fill="#000000" stroke="#000000" points="847.9793,-678.3571 837.7107,-674.5093 842.9897,-678.6786 838,-679 838,-679 838,-679 842.9897,-678.6786 838.2893,-683.4907 847.9793,-678.3571 847.9793,-678.3571"/>
<text text-anchor="start" x="844.8845" y="-689" font-family="Arial" font-size="10.00" fill="#000000">FOREIGN KEY (tag_id) REFERENCES tags(id)</text>
</g>
</g>
</svg>
