<?xml version="1.0" encoding="UTF-8" standalone="no"?>
<!DOCTYPE svg PUBLIC "-//W3C//DTD SVG 1.1//EN"
 "http://www.w3.org/Graphics/SVG/1.1/DTD/svg11.dtd">
<!-- Generated by graphviz version 2.40.1 (20161225.0304)
 -->
<!-- Title: public.song_distribution_service_urls Pages: 1 -->
<svg width="814pt" height="1034pt"
 viewBox="0.00 0.00 813.50 1034.00" xmlns="http://www.w3.org/2000/svg" xmlns:xlink="http://www.w3.org/1999/xlink">
<g id="graph0" class="graph" transform="scale(1 1) rotate(0) translate(4 1030)">
<title>public.song_distribution_service_urls</title>
<polygon fill="#ffffff" stroke="transparent" points="-4,4 -4,-1030 809.5,-1030 809.5,4 -4,4"/>
<!-- public.song_distribution_service_urls -->
<g id="node1" class="node">
<title>public.song_distribution_service_urls</title>
<polygon fill="#efefef" stroke="transparent" points="241,-934 241,-980 676,-980 676,-934 241,-934"/>
<polygon fill="none" stroke="#000000" points="241,-934 241,-980 676,-980 676,-934 241,-934"/>
<text text-anchor="start" x="247.692" y="-957.8" font-family="Arial Bold" font-size="18.00" fill="#000000">public.song_distribution_service_urls</text>
<text text-anchor="start" x="541.74" y="-957.8" font-family="Arial" font-size="14.00" fill="#000000">    </text>
<text text-anchor="start" x="575.9448" y="-957.8" font-family="Arial" font-size="14.00" fill="#666666">[BASE TABLE]</text>
<text text-anchor="start" x="374.6365" y="-943.4" font-family="Arial" font-size="14.00" fill="#333333">楽曲配信サービスURL</text>
<polygon fill="none" stroke="#000000" points="241,-904 241,-934 676,-934 676,-904 241,-904"/>
<text text-anchor="start" x="248" y="-915.4" font-family="Arial" font-size="14.00" fill="#000000">id </text>
<text text-anchor="start" x="262.7798" y="-915.4" font-family="Arial" font-size="14.00" fill="#666666">[text]</text>
<polygon fill="none" stroke="#000000" points="241,-874 241,-904 676,-904 676,-874 241,-874"/>
<text text-anchor="start" x="248" y="-885.4" font-family="Arial" font-size="14.00" fill="#000000">song_id </text>
<text text-anchor="start" x="300.9102" y="-885.4" font-family="Arial" font-size="14.00" fill="#666666">[text]</text>
<text text-anchor="start" x="331.2552" y="-885.4" font-family="Arial" font-size="14.00" fill="#000000"> 楽曲ID</text>
<polygon fill="none" stroke="#000000" points="241,-844 241,-874 676,-874 676,-844 241,-844"/>
<text text-anchor="start" x="248" y="-855.4" font-family="Arial" font-size="14.00" fill="#000000">service </text>
<text text-anchor="start" x="296.223" y="-855.4" font-family="Arial" font-size="14.00" fill="#666666">[distribution_service]</text>
<text text-anchor="start" x="423.7938" y="-855.4" font-family="Arial" font-size="14.00" fill="#000000"> 配信サービス</text>
<polygon fill="none" stroke="#000000" points="241,-814 241,-844 676,-844 676,-814 241,-814"/>
<text text-anchor="start" x="248" y="-825.4" font-family="Arial" font-size="14.00" fill="#000000">url </text>
<text text-anchor="start" x="267.4404" y="-825.4" font-family="Arial" font-size="14.00" fill="#666666">[text]</text>
<text text-anchor="start" x="297.7854" y="-825.4" font-family="Arial" font-size="14.00" fill="#000000"> URL</text>
<polygon fill="none" stroke="#000000" points="241,-784 241,-814 676,-814 676,-784 241,-784"/>
<text text-anchor="start" x="248" y="-795.4" font-family="Arial" font-size="14.00" fill="#000000">created_at </text>
<text text-anchor="start" x="318.028" y="-795.4" font-family="Arial" font-size="14.00" fill="#666666">[timestamp with time zone]</text>
<text text-anchor="start" x="483.7124" y="-795.4" font-family="Arial" font-size="14.00" fill="#000000"> 作成日時</text>
<polygon fill="none" stroke="#000000" points="241,-754 241,-784 676,-784 676,-754 241,-754"/>
<text text-anchor="start" x="248" y="-765.4" font-family="Arial" font-size="14.00" fill="#000000">updated_at </text>
<text text-anchor="start" x="321.9326" y="-765.4" font-family="Arial" font-size="14.00" fill="#666666">[timestamp with time zone]</text>
<text text-anchor="start" x="487.617" y="-765.4" font-family="Arial" font-size="14.00" fill="#000000"> 更新日時</text>
<polygon fill="none" stroke="#000000" stroke-width="3" points="239,-752.5 239,-981.5 677,-981.5 677,-752.5 239,-752.5"/>
</g>
<!-- public.songs -->
<g id="node2" class="node">
<title>public.songs</title>
<polygon fill="#efefef" stroke="transparent" points="154,-583 154,-629 763,-629 763,-583 154,-583"/>
<polygon fill="none" stroke="#000000" points="154,-583 154,-629 763,-629 763,-583 154,-583"/>
<text text-anchor="start" x="344.7021" y="-606.8" font-family="Arial Bold" font-size="18.00" fill="#000000">public.songs</text>
<text text-anchor="start" x="444.7299" y="-606.8" font-family="Arial" font-size="14.00" fill="#000000">    </text>
<text text-anchor="start" x="478.9347" y="-606.8" font-family="Arial" font-size="14.00" fill="#666666">[BASE TABLE]</text>
<text text-anchor="start" x="437.8815" y="-592.4" font-family="Arial" font-size="14.00" fill="#333333">楽曲</text>
<polygon fill="none" stroke="#000000" points="154,-553 154,-583 763,-583 763,-553 154,-553"/>
<text text-anchor="start" x="161" y="-564.4" font-family="Arial" font-size="14.00" fill="#000000">id    </text>
<text text-anchor="start" x="206.094" y="-564.4" font-family="Arial" font-size="14.00" fill="#666666">[text]</text>
<polygon fill="none" stroke="#000000" points="154,-523 154,-553 763,-553 763,-523 154,-523"/>
<text text-anchor="start" x="161" y="-534.4" font-family="Arial" font-size="14.00" fill="#000000">album_id    </text>
<text text-anchor="start" x="251.9916" y="-534.4" font-family="Arial" font-size="14.00" fill="#666666">[text]</text>
<text text-anchor="start" x="282.3366" y="-534.4" font-family="Arial" font-size="14.00" fill="#000000"> アルバムID</text>
<polygon fill="none" stroke="#000000" points="154,-493 154,-523 763,-523 763,-493 154,-493"/>
<text text-anchor="start" x="161" y="-504.4" font-family="Arial" font-size="14.00" fill="#000000">name    </text>
<text text-anchor="start" x="230.2132" y="-504.4" font-family="Arial" font-size="14.00" fill="#666666">[text]</text>
<text text-anchor="start" x="260.5582" y="-504.4" font-family="Arial" font-size="14.00" fill="#000000"> 名前</text>
<polygon fill="none" stroke="#000000" points="154,-463 154,-493 763,-493 763,-463 154,-463"/>
<text text-anchor="start" x="161" y="-474.4" font-family="Arial" font-size="14.00" fill="#000000">name_reading    </text>
<text text-anchor="start" x="284.676" y="-474.4" font-family="Arial" font-size="14.00" fill="#666666">[text]</text>
<text text-anchor="start" x="315.021" y="-474.4" font-family="Arial" font-size="14.00" fill="#000000"> 名前読み方</text>
<polygon fill="none" stroke="#000000" points="154,-433 154,-463 763,-463 763,-433 154,-433"/>
<text text-anchor="start" x="161" y="-444.4" font-family="Arial" font-size="14.00" fill="#000000">disc_number    </text>
<text text-anchor="start" x="275.3282" y="-444.4" font-family="Arial" font-size="14.00" fill="#666666">[integer]</text>
<text text-anchor="start" x="325.8976" y="-444.4" font-family="Arial" font-size="14.00" fill="#000000"> ディスク番号(default: 1)</text>
<polygon fill="none" stroke="#000000" points="154,-403 154,-433 763,-433 763,-403 154,-403"/>
<text text-anchor="start" x="161" y="-414.4" font-family="Arial" font-size="14.00" fill="#000000">track_number    </text>
<text text-anchor="start" x="280.7728" y="-414.4" font-family="Arial" font-size="14.00" fill="#666666">[integer]</text>
<text text-anchor="start" x="331.3422" y="-414.4" font-family="Arial" font-size="14.00" fill="#000000"> トラック番号</text>
<polygon fill="none" stroke="#000000" points="154,-373 154,-403 763,-403 763,-373 154,-373"/>
<text text-anchor="start" x="161" y="-384.4" font-family="Arial" font-size="14.00" fill="#000000">release_date    </text>
<text text-anchor="start" x="276.1234" y="-384.4" font-family="Arial" font-size="14.00" fill="#666666">[date]</text>
<text text-anchor="start" x="311.143" y="-384.4" font-family="Arial" font-size="14.00" fill="#000000"> 頒布日(アルバムの頒布日と異なる場合に使用する)</text>
<polygon fill="none" stroke="#000000" points="154,-343 154,-373 763,-373 763,-343 154,-343"/>
<text text-anchor="start" x="161" y="-354.4" font-family="Arial" font-size="14.00" fill="#000000">search_enabled    </text>
<text text-anchor="start" x="294.798" y="-354.4" font-family="Arial" font-size="14.00" fill="#666666">[boolean]</text>
<text text-anchor="start" x="352.3814" y="-354.4" font-family="Arial" font-size="14.00" fill="#000000"> 検索対象とするか(default: true)</text>
<polygon fill="none" stroke="#000000" points="154,-313 154,-343 763,-343 763,-313 154,-313"/>
<text text-anchor="start" x="161" y="-324.4" font-family="Arial" font-size="14.00" fill="#000000">length    </text>
<text text-anchor="start" x="233.3324" y="-324.4" font-family="Arial" font-size="14.00" fill="#666666">[integer]</text>
<text text-anchor="start" x="283.9018" y="-324.4" font-family="Arial" font-size="14.00" fill="#000000"> 曲の長さ(秒)</text>
<polygon fill="none" stroke="#000000" points="154,-283 154,-313 763,-313 763,-283 154,-283"/>
<text text-anchor="start" x="161" y="-294.4" font-family="Arial" font-size="14.00" fill="#000000">bpm    </text>
<text text-anchor="start" x="222.4306" y="-294.4" font-family="Arial" font-size="14.00" fill="#666666">[integer]</text>
<text text-anchor="start" x="273" y="-294.4" font-family="Arial" font-size="14.00" fill="#000000"> BPM</text>
<polygon fill="none" stroke="#000000" points="154,-253 154,-283 763,-283 763,-253 154,-253"/>
<text text-anchor="start" x="161" y="-264.4" font-family="Arial" font-size="14.00" fill="#000000">display_composer    </text>
<text text-anchor="start" x="308" y="-264.4" font-family="Arial" font-size="14.00" fill="#666666">[text]</text>
<text text-anchor="start" x="338.345" y="-264.4" font-family="Arial" font-size="14.00" fill="#000000"> 作曲者表示用(1度しか使用しない別名義などで使用する)</text>
<polygon fill="none" stroke="#000000" points="154,-223 154,-253 763,-253 763,-223 154,-223"/>
<text text-anchor="start" x="161" y="-234.4" font-family="Arial" font-size="14.00" fill="#000000">display_arranger    </text>
<text text-anchor="start" x="299.4432" y="-234.4" font-family="Arial" font-size="14.00" fill="#666666">[text]</text>
<text text-anchor="start" x="329.7882" y="-234.4" font-family="Arial" font-size="14.00" fill="#000000"> 編曲者表示用(1度しか使用しない別名義などで使用する)</text>
<polygon fill="none" stroke="#000000" points="154,-193 154,-223 763,-223 763,-193 154,-193"/>
<text text-anchor="start" x="161" y="-204.4" font-family="Arial" font-size="14.00" fill="#000000">display_rearranger    </text>
<text text-anchor="start" x="311.8864" y="-204.4" font-family="Arial" font-size="14.00" fill="#666666">[text]</text>
<text text-anchor="start" x="342.2314" y="-204.4" font-family="Arial" font-size="14.00" fill="#000000"> 再編曲者表示用(1度しか使用しない別名義などで使用する)</text>
<polygon fill="none" stroke="#000000" points="154,-163 154,-193 763,-193 763,-163 154,-163"/>
<text text-anchor="start" x="161" y="-174.4" font-family="Arial" font-size="14.00" fill="#000000">display_lyricist    </text>
<text text-anchor="start" x="285.4194" y="-174.4" font-family="Arial" font-size="14.00" fill="#666666">[text]</text>
<text text-anchor="start" x="315.7644" y="-174.4" font-family="Arial" font-size="14.00" fill="#000000"> 作詞者表示用(1度しか使用しない別名義などで使用する)</text>
<polygon fill="none" stroke="#000000" points="154,-133 154,-163 763,-163 763,-133 154,-133"/>
<text text-anchor="start" x="160.8082" y="-144.4" font-family="Arial" font-size="14.00" fill="#000000">display_vocalist    </text>
<text text-anchor="start" x="293.0256" y="-144.4" font-family="Arial" font-size="14.00" fill="#666666">[text]</text>
<text text-anchor="start" x="323.3706" y="-144.4" font-family="Arial" font-size="14.00" fill="#000000"> ボーカリスト表示用(1度しか使用しない別名義などで使用する)</text>
<polygon fill="none" stroke="#000000" points="154,-103 154,-133 763,-133 763,-103 154,-103"/>
<text text-anchor="start" x="161" y="-114.4" font-family="Arial" font-size="14.00" fill="#000000">display_original_song    </text>
<text text-anchor="start" x="329.7896" y="-114.4" font-family="Arial" font-size="14.00" fill="#666666">[text]</text>
<text text-anchor="start" x="360.1346" y="-114.4" font-family="Arial" font-size="14.00" fill="#000000"> 原曲表示用(東方以外の原曲などで使用する)</text>
<polygon fill="none" stroke="#000000" points="154,-73 154,-103 763,-103 763,-73 154,-73"/>
<text text-anchor="start" x="161" y="-84.4" font-family="Arial" font-size="14.00" fill="#000000">created_at    </text>
<text text-anchor="start" x="261.3422" y="-84.4" font-family="Arial" font-size="14.00" fill="#666666">[timestamp with time zone]</text>
<text text-anchor="start" x="427.0266" y="-84.4" font-family="Arial" font-size="14.00" fill="#000000"> 作成日時</text>
<polygon fill="none" stroke="#000000" points="154,-43 154,-73 763,-73 763,-43 154,-43"/>
<text text-anchor="start" x="161" y="-54.4" font-family="Arial" font-size="14.00" fill="#000000">updated_at    </text>
<text text-anchor="start" x="265.2468" y="-54.4" font-family="Arial" font-size="14.00" fill="#666666">[timestamp with time zone]</text>
<text text-anchor="start" x="430.9312" y="-54.4" font-family="Arial" font-size="14.00" fill="#000000"> 更新日時</text>
</g>
<!-- public.song_distribution_service_urls&#45;&gt;public.songs -->
<g id="edge1" class="edge">
<title>public.song_distribution_service_urls:song_id&#45;&gt;public.songs:id</title>
<path fill="none" stroke="#000000" d="M230.9764,-887.1149C159.6015,-860.8079 83.4132,-568 154,-568"/>
<polygon fill="#000000" stroke="#000000" points="231.1723,-887.1516 240.1682,-893.4225 236.0861,-888.0758 241,-889 241,-889 241,-889 236.0861,-888.0758 241.8318,-884.5775 231.1723,-887.1516 231.1723,-887.1516"/>
<text text-anchor="start" x="7.1045" y="-899" font-family="Arial" font-size="10.00" fill="#000000">FOREIGN KEY (song_id) REFERENCES songs(id)</text>
</g>
</g>
</svg>
