<?xml version="1.0" encoding="UTF-8" standalone="no"?>
<!DOCTYPE svg PUBLIC "-//W3C//DTD SVG 1.1//EN"
 "http://www.w3.org/Graphics/SVG/1.1/DTD/svg11.dtd">
<!-- Generated by graphviz version 2.40.1 (20161225.0304)
 -->
<!-- Title: public.genres Pages: 1 -->
<svg width="1343pt" height="614pt"
 viewBox="0.00 0.00 1343.00 614.00" xmlns="http://www.w3.org/2000/svg" xmlns:xlink="http://www.w3.org/1999/xlink">
<g id="graph0" class="graph" transform="scale(1 1) rotate(0) translate(4 610)">
<title>public.genres</title>
<polygon fill="#ffffff" stroke="transparent" points="-4,4 -4,-610 1339,-610 1339,4 -4,4"/>
<!-- public.genres -->
<g id="node1" class="node">
<title>public.genres</title>
<polygon fill="#efefef" stroke="transparent" points="511.5,-166 511.5,-212 825.5,-212 825.5,-166 511.5,-166"/>
<polygon fill="none" stroke="#000000" points="511.5,-166 511.5,-212 825.5,-212 825.5,-166 511.5,-166"/>
<text text-anchor="start" x="551.2029" y="-189.8" font-family="Arial Bold" font-size="18.00" fill="#000000">public.genres</text>
<text text-anchor="start" x="658.2291" y="-189.8" font-family="Arial" font-size="14.00" fill="#000000">    </text>
<text text-anchor="start" x="692.4339" y="-189.8" font-family="Arial" font-size="14.00" fill="#666666">[BASE TABLE]</text>
<text text-anchor="start" x="637.1344" y="-175.4" font-family="Arial" font-size="14.00" fill="#333333">ジャンル</text>
<polygon fill="none" stroke="#000000" points="511.5,-136 511.5,-166 825.5,-166 825.5,-136 511.5,-136"/>
<text text-anchor="start" x="518.5" y="-147.4" font-family="Arial" font-size="14.00" fill="#000000">id </text>
<text text-anchor="start" x="533.2798" y="-147.4" font-family="Arial" font-size="14.00" fill="#666666">[text]</text>
<text text-anchor="start" x="563.6248" y="-147.4" font-family="Arial" font-size="14.00" fill="#000000"> ジャンルID</text>
<polygon fill="none" stroke="#000000" points="511.5,-106 511.5,-136 825.5,-136 825.5,-106 511.5,-106"/>
<text text-anchor="start" x="518.3542" y="-117.4" font-family="Arial" font-size="14.00" fill="#000000">created_at </text>
<text text-anchor="start" x="588.3822" y="-117.4" font-family="Arial" font-size="14.00" fill="#666666">[timestamp with time zone]</text>
<text text-anchor="start" x="754.0666" y="-117.4" font-family="Arial" font-size="14.00" fill="#000000"> 作成日時</text>
<polygon fill="none" stroke="#000000" points="511.5,-76 511.5,-106 825.5,-106 825.5,-76 511.5,-76"/>
<text text-anchor="start" x="518.5" y="-87.4" font-family="Arial" font-size="14.00" fill="#000000">updated_at </text>
<text text-anchor="start" x="592.4326" y="-87.4" font-family="Arial" font-size="14.00" fill="#666666">[timestamp with time zone]</text>
<text text-anchor="start" x="758.117" y="-87.4" font-family="Arial" font-size="14.00" fill="#000000"> 更新日時</text>
<polygon fill="none" stroke="#000000" points="511.5,-46 511.5,-76 825.5,-76 825.5,-46 511.5,-46"/>
<text text-anchor="start" x="518.5" y="-57.4" font-family="Arial" font-size="14.00" fill="#000000">name </text>
<text text-anchor="start" x="557.399" y="-57.4" font-family="Arial" font-size="14.00" fill="#666666">[text]</text>
<text text-anchor="start" x="587.744" y="-57.4" font-family="Arial" font-size="14.00" fill="#000000"> 名前</text>
<polygon fill="none" stroke="#000000" stroke-width="3" points="510,-44.5 510,-213.5 827,-213.5 827,-44.5 510,-44.5"/>
</g>
<!-- public.albums_genres -->
<g id="node2" class="node">
<title>public.albums_genres</title>
<polygon fill="#efefef" stroke="transparent" points="43.5,-517 43.5,-563 390.5,-563 390.5,-517 43.5,-517"/>
<polygon fill="none" stroke="#000000" points="43.5,-517 43.5,-563 390.5,-563 390.5,-517 43.5,-517"/>
<text text-anchor="start" x="65.6973" y="-540.8" font-family="Arial Bold" font-size="18.00" fill="#000000">public.albums_genres</text>
<text text-anchor="start" x="240.7347" y="-540.8" font-family="Arial" font-size="14.00" fill="#000000">    </text>
<text text-anchor="start" x="274.9395" y="-540.8" font-family="Arial" font-size="14.00" fill="#666666">[BASE TABLE]</text>
<text text-anchor="start" x="155.8228" y="-526.4" font-family="Arial" font-size="14.00" fill="#333333">アルバムジャンル</text>
<polygon fill="none" stroke="#000000" points="43.5,-487 43.5,-517 390.5,-517 390.5,-487 43.5,-487"/>
<text text-anchor="start" x="50.5" y="-498.4" font-family="Arial" font-size="14.00" fill="#000000">id    </text>
<text text-anchor="start" x="95.594" y="-498.4" font-family="Arial" font-size="14.00" fill="#666666">[text]</text>
<text text-anchor="start" x="125.939" y="-498.4" font-family="Arial" font-size="14.00" fill="#000000"> アルバムジャンルID</text>
<polygon fill="none" stroke="#000000" points="43.5,-457 43.5,-487 390.5,-487 390.5,-457 43.5,-457"/>
<text text-anchor="start" x="50.5" y="-468.4" font-family="Arial" font-size="14.00" fill="#000000">created_at    </text>
<text text-anchor="start" x="150.8422" y="-468.4" font-family="Arial" font-size="14.00" fill="#666666">[timestamp with time zone]</text>
<text text-anchor="start" x="316.5266" y="-468.4" font-family="Arial" font-size="14.00" fill="#000000"> 作成日時</text>
<polygon fill="none" stroke="#000000" points="43.5,-427 43.5,-457 390.5,-457 390.5,-427 43.5,-427"/>
<text text-anchor="start" x="50.5" y="-438.4" font-family="Arial" font-size="14.00" fill="#000000">updated_at    </text>
<text text-anchor="start" x="154.7468" y="-438.4" font-family="Arial" font-size="14.00" fill="#666666">[timestamp with time zone]</text>
<text text-anchor="start" x="320.4312" y="-438.4" font-family="Arial" font-size="14.00" fill="#000000"> 更新日時</text>
<polygon fill="none" stroke="#000000" points="43.5,-397 43.5,-427 390.5,-427 390.5,-397 43.5,-397"/>
<text text-anchor="start" x="50.5" y="-408.4" font-family="Arial" font-size="14.00" fill="#000000">album_id    </text>
<text text-anchor="start" x="141.4916" y="-408.4" font-family="Arial" font-size="14.00" fill="#666666">[text]</text>
<text text-anchor="start" x="171.8366" y="-408.4" font-family="Arial" font-size="14.00" fill="#000000"> アルバムID</text>
<polygon fill="none" stroke="#000000" points="43.5,-367 43.5,-397 390.5,-397 390.5,-367 43.5,-367"/>
<text text-anchor="start" x="50.5" y="-378.4" font-family="Arial" font-size="14.00" fill="#000000">genre_id    </text>
<text text-anchor="start" x="139.1676" y="-378.4" font-family="Arial" font-size="14.00" fill="#666666">[text]</text>
<text text-anchor="start" x="169.5126" y="-378.4" font-family="Arial" font-size="14.00" fill="#000000"> ジャンルID</text>
<polygon fill="none" stroke="#000000" points="43.5,-337 43.5,-367 390.5,-367 390.5,-337 43.5,-337"/>
<text text-anchor="start" x="50.1578" y="-348.4" font-family="Arial" font-size="14.00" fill="#000000">locked_at    </text>
<text text-anchor="start" x="144.2728" y="-348.4" font-family="Arial" font-size="14.00" fill="#666666">[timestamp with time zone]</text>
<text text-anchor="start" x="309.9572" y="-348.4" font-family="Arial" font-size="14.00" fill="#000000"> ロック日時</text>
</g>
<!-- public.albums_genres&#45;&gt;public.genres -->
<g id="edge1" class="edge">
<title>public.albums_genres:genre_id&#45;&gt;public.genres:id</title>
<path fill="none" stroke="#000000" d="M399.0853,-376.7412C430.529,-342.3568 485.1285,-151 511.5,-151"/>
<polygon fill="#000000" stroke="#000000" points="399.0274,-376.7766 388.1495,-378.1627 394.7637,-379.3883 390.5,-382 390.5,-382 390.5,-382 394.7637,-379.3883 392.8505,-385.8373 399.0274,-376.7766 399.0274,-376.7766"/>
<text text-anchor="start" x="397.7165" y="-392" font-family="Arial" font-size="10.00" fill="#000000">FOREIGN KEY (genre_id) REFERENCES genres(id)</text>
</g>
<!-- public.songs_genres -->
<g id="node3" class="node">
<title>public.songs_genres</title>
<polygon fill="#efefef" stroke="transparent" points="494.5,-517 494.5,-563 841.5,-563 841.5,-517 494.5,-517"/>
<polygon fill="none" stroke="#000000" points="494.5,-517 494.5,-563 841.5,-563 841.5,-517 494.5,-517"/>
<text text-anchor="start" x="521.6905" y="-540.8" font-family="Arial Bold" font-size="18.00" fill="#000000">public.songs_genres</text>
<text text-anchor="start" x="686.7415" y="-540.8" font-family="Arial" font-size="14.00" fill="#000000">    </text>
<text text-anchor="start" x="720.9463" y="-540.8" font-family="Arial" font-size="14.00" fill="#666666">[BASE TABLE]</text>
<text text-anchor="start" x="616.0159" y="-526.4" font-family="Arial" font-size="14.00" fill="#333333">楽曲ジャンル</text>
<polygon fill="none" stroke="#000000" points="494.5,-487 494.5,-517 841.5,-517 841.5,-487 494.5,-487"/>
<text text-anchor="start" x="501.5" y="-498.4" font-family="Arial" font-size="14.00" fill="#000000">id    </text>
<text text-anchor="start" x="546.594" y="-498.4" font-family="Arial" font-size="14.00" fill="#666666">[text]</text>
<text text-anchor="start" x="576.939" y="-498.4" font-family="Arial" font-size="14.00" fill="#000000"> 楽曲ジャンルID</text>
<polygon fill="none" stroke="#000000" points="494.5,-457 494.5,-487 841.5,-487 841.5,-457 494.5,-457"/>
<text text-anchor="start" x="501.5" y="-468.4" font-family="Arial" font-size="14.00" fill="#000000">created_at    </text>
<text text-anchor="start" x="601.8422" y="-468.4" font-family="Arial" font-size="14.00" fill="#666666">[timestamp with time zone]</text>
<text text-anchor="start" x="767.5266" y="-468.4" font-family="Arial" font-size="14.00" fill="#000000"> 作成日時</text>
<polygon fill="none" stroke="#000000" points="494.5,-427 494.5,-457 841.5,-457 841.5,-427 494.5,-427"/>
<text text-anchor="start" x="501.5" y="-438.4" font-family="Arial" font-size="14.00" fill="#000000">updated_at    </text>
<text text-anchor="start" x="605.7468" y="-438.4" font-family="Arial" font-size="14.00" fill="#666666">[timestamp with time zone]</text>
<text text-anchor="start" x="771.4312" y="-438.4" font-family="Arial" font-size="14.00" fill="#000000"> 更新日時</text>
<polygon fill="none" stroke="#000000" points="494.5,-397 494.5,-427 841.5,-427 841.5,-397 494.5,-397"/>
<text text-anchor="start" x="501.5" y="-408.4" font-family="Arial" font-size="14.00" fill="#000000">song_id    </text>
<text text-anchor="start" x="584.7244" y="-408.4" font-family="Arial" font-size="14.00" fill="#666666">[text]</text>
<text text-anchor="start" x="615.0694" y="-408.4" font-family="Arial" font-size="14.00" fill="#000000"> 楽曲ID</text>
<polygon fill="none" stroke="#000000" points="494.5,-367 494.5,-397 841.5,-397 841.5,-367 494.5,-367"/>
<text text-anchor="start" x="501.5" y="-378.4" font-family="Arial" font-size="14.00" fill="#000000">genre_id    </text>
<text text-anchor="start" x="590.1676" y="-378.4" font-family="Arial" font-size="14.00" fill="#666666">[text]</text>
<text text-anchor="start" x="620.5126" y="-378.4" font-family="Arial" font-size="14.00" fill="#000000"> ジャンルID</text>
<polygon fill="none" stroke="#000000" points="494.5,-337 494.5,-367 841.5,-367 841.5,-337 494.5,-337"/>
<text text-anchor="start" x="501.1578" y="-348.4" font-family="Arial" font-size="14.00" fill="#000000">locked_at    </text>
<text text-anchor="start" x="595.2728" y="-348.4" font-family="Arial" font-size="14.00" fill="#666666">[timestamp with time zone]</text>
<text text-anchor="start" x="760.9572" y="-348.4" font-family="Arial" font-size="14.00" fill="#000000"> ロック日時</text>
</g>
<!-- public.songs_genres&#45;&gt;public.genres -->
<g id="edge2" class="edge">
<title>public.songs_genres:genre_id&#45;&gt;public.genres:id</title>
<path fill="none" stroke="#000000" d="M851.5038,-380.3979C877.9474,-370.7832 865.063,-320.2733 841.5,-294 792.2474,-239.0822 560.7526,-312.9178 511.5,-258 479.7488,-222.5967 463.9444,-151 511.5,-151"/>
<polygon fill="#000000" stroke="#000000" points="851.3742,-380.4186 840.7884,-377.5566 846.4371,-381.2093 841.5,-382 841.5,-382 841.5,-382 846.4371,-381.2093 842.2116,-386.4434 851.3742,-380.4186 851.3742,-380.4186"/>
<text text-anchor="start" x="848.7165" y="-392" font-family="Arial" font-size="10.00" fill="#000000">FOREIGN KEY (genre_id) REFERENCES genres(id)</text>
</g>
<!-- public.circles_genres -->
<g id="node4" class="node">
<title>public.circles_genres</title>
<polygon fill="#efefef" stroke="transparent" points="945.5,-517 945.5,-563 1292.5,-563 1292.5,-517 945.5,-517"/>
<polygon fill="none" stroke="#000000" points="945.5,-517 945.5,-563 1292.5,-563 1292.5,-517 945.5,-517"/>
<text text-anchor="start" x="971.2064" y="-540.8" font-family="Arial Bold" font-size="18.00" fill="#000000">public.circles_genres</text>
<text text-anchor="start" x="1139.2256" y="-540.8" font-family="Arial" font-size="14.00" fill="#000000">    </text>
<text text-anchor="start" x="1173.4304" y="-540.8" font-family="Arial" font-size="14.00" fill="#666666">[BASE TABLE]</text>
<text text-anchor="start" x="1053.1594" y="-526.4" font-family="Arial" font-size="14.00" fill="#333333">サークルジャンル</text>
<polygon fill="none" stroke="#000000" points="945.5,-487 945.5,-517 1292.5,-517 1292.5,-487 945.5,-487"/>
<text text-anchor="start" x="952.5" y="-498.4" font-family="Arial" font-size="14.00" fill="#000000">id    </text>
<text text-anchor="start" x="997.594" y="-498.4" font-family="Arial" font-size="14.00" fill="#666666">[text]</text>
<text text-anchor="start" x="1027.939" y="-498.4" font-family="Arial" font-size="14.00" fill="#000000"> サークルジャンルID</text>
<polygon fill="none" stroke="#000000" points="945.5,-457 945.5,-487 1292.5,-487 1292.5,-457 945.5,-457"/>
<text text-anchor="start" x="952.5" y="-468.4" font-family="Arial" font-size="14.00" fill="#000000">created_at    </text>
<text text-anchor="start" x="1052.8422" y="-468.4" font-family="Arial" font-size="14.00" fill="#666666">[timestamp with time zone]</text>
<text text-anchor="start" x="1218.5266" y="-468.4" font-family="Arial" font-size="14.00" fill="#000000"> 作成日時</text>
<polygon fill="none" stroke="#000000" points="945.5,-427 945.5,-457 1292.5,-457 1292.5,-427 945.5,-427"/>
<text text-anchor="start" x="952.5" y="-438.4" font-family="Arial" font-size="14.00" fill="#000000">updated_at    </text>
<text text-anchor="start" x="1056.7468" y="-438.4" font-family="Arial" font-size="14.00" fill="#666666">[timestamp with time zone]</text>
<text text-anchor="start" x="1222.4312" y="-438.4" font-family="Arial" font-size="14.00" fill="#000000"> 更新日時</text>
<polygon fill="none" stroke="#000000" points="945.5,-397 945.5,-427 1292.5,-427 1292.5,-397 945.5,-397"/>
<text text-anchor="start" x="952.5" y="-408.4" font-family="Arial" font-size="14.00" fill="#000000">circle_id    </text>
<text text-anchor="start" x="1038.033" y="-408.4" font-family="Arial" font-size="14.00" fill="#666666">[text]</text>
<text text-anchor="start" x="1068.378" y="-408.4" font-family="Arial" font-size="14.00" fill="#000000"> サークルID</text>
<polygon fill="none" stroke="#000000" points="945.5,-367 945.5,-397 1292.5,-397 1292.5,-367 945.5,-367"/>
<text text-anchor="start" x="952.5" y="-378.4" font-family="Arial" font-size="14.00" fill="#000000">genre_id    </text>
<text text-anchor="start" x="1041.1676" y="-378.4" font-family="Arial" font-size="14.00" fill="#666666">[text]</text>
<text text-anchor="start" x="1071.5126" y="-378.4" font-family="Arial" font-size="14.00" fill="#000000"> ジャンルID</text>
<polygon fill="none" stroke="#000000" points="945.5,-337 945.5,-367 1292.5,-367 1292.5,-337 945.5,-337"/>
<text text-anchor="start" x="952.1578" y="-348.4" font-family="Arial" font-size="14.00" fill="#000000">locked_at    </text>
<text text-anchor="start" x="1046.2728" y="-348.4" font-family="Arial" font-size="14.00" fill="#666666">[timestamp with time zone]</text>
<text text-anchor="start" x="1211.9572" y="-348.4" font-family="Arial" font-size="14.00" fill="#000000"> ロック日時</text>
</g>
<!-- public.circles_genres&#45;&gt;public.genres -->
<g id="edge3" class="edge">
<title>public.circles_genres:genre_id&#45;&gt;public.genres:id</title>
<path fill="none" stroke="#000000" d="M936.9478,-376.7412C905.6768,-342.3568 851.8247,-151 825.5,-151"/>
<polygon fill="#000000" stroke="#000000" points="936.9816,-376.762 943.1429,-385.8333 941.2408,-379.381 945.5,-382 945.5,-382 945.5,-382 941.2408,-379.381 947.8571,-378.1667 936.9816,-376.762 936.9816,-376.762"/>
<text text-anchor="start" x="952.7165" y="-366" font-family="Arial" font-size="10.00" fill="#000000">FOREIGN KEY (genre_id) REFERENCES genres(id)</text>
</g>
</g>
</svg>
