<?xml version="1.0" encoding="UTF-8" standalone="no"?>
<!DOCTYPE svg PUBLIC "-//W3C//DTD SVG 1.1//EN"
 "http://www.w3.org/Graphics/SVG/1.1/DTD/svg11.dtd">
<!-- Generated by graphviz version 2.40.1 (20161225.0304)
 -->
<!-- Title: public.sub_event_details Pages: 1 -->
<svg width="1700pt" height="644pt"
 viewBox="0.00 0.00 1700.00 644.00" xmlns="http://www.w3.org/2000/svg" xmlns:xlink="http://www.w3.org/1999/xlink">
<g id="graph0" class="graph" transform="scale(1 1) rotate(0) translate(4 640)">
<title>public.sub_event_details</title>
<polygon fill="#ffffff" stroke="transparent" points="-4,4 -4,-640 1696,-640 1696,4 -4,4"/>
<!-- public.sub_event_details -->
<g id="node1" class="node">
<title>public.sub_event_details</title>
<polygon fill="#efefef" stroke="transparent" points="46,-544 46,-590 1402,-590 1402,-544 46,-544"/>
<polygon fill="none" stroke="#000000" points="46,-544 46,-590 1402,-590 1402,-544 46,-544"/>
<text text-anchor="start" x="576.8411" y="-567.8" font-family="Arial Bold" font-size="18.00" fill="#000000">public.sub_event_details</text>
<text text-anchor="start" x="773.9051" y="-567.8" font-family="Arial" font-size="14.00" fill="#000000"> </text>
<text text-anchor="start" x="777.7957" y="-567.8" font-family="Arial" font-size="14.00" fill="#666666">[BASE TABLE]</text>
<text text-anchor="start" x="668.9968" y="-553.4" font-family="Arial" font-size="14.00" fill="#333333">サブイベント詳細</text>
<polygon fill="none" stroke="#000000" points="46,-514 46,-544 1402,-544 1402,-514 46,-514"/>
<text text-anchor="start" x="53" y="-525.4" font-family="Arial" font-size="14.00" fill="#000000">sub_event_id </text>
<text text-anchor="start" x="140.1486" y="-525.4" font-family="Arial" font-size="14.00" fill="#666666">[text]</text>
<text text-anchor="start" x="170.4936" y="-525.4" font-family="Arial" font-size="14.00" fill="#000000"> サブイベントID</text>
<polygon fill="none" stroke="#000000" points="46,-484 46,-514 1402,-514 1402,-484 46,-484"/>
<text text-anchor="start" x="53" y="-495.4" font-family="Arial" font-size="14.00" fill="#000000">event_date </text>
<text text-anchor="start" x="126.15" y="-495.4" font-family="Arial" font-size="14.00" fill="#666666">[date]</text>
<text text-anchor="start" x="161.1696" y="-495.4" font-family="Arial" font-size="14.00" fill="#000000"> 開催日</text>
<polygon fill="none" stroke="#000000" points="46,-454 46,-484 1402,-484 1402,-454 46,-454"/>
<text text-anchor="start" x="52.6104" y="-465.4" font-family="Arial" font-size="14.00" fill="#000000">event_status </text>
<text text-anchor="start" x="135.8684" y="-465.4" font-family="Arial" font-size="14.00" fill="#666666">[event_status]</text>
<text text-anchor="start" x="223.017" y="-465.4" font-family="Arial" font-size="14.00" fill="#000000"> ステータス/scheduled: 開催済み, cancelled: 中止, postpone: 延期(開催日未定), rescheduled: 延期(開催日決定), moved_online: オンライン開催に変更, other: その他/default: scheduled</text>
<polygon fill="none" stroke="#000000" points="46,-424 46,-454 1402,-454 1402,-424 46,-424"/>
<text text-anchor="start" x="53" y="-435.4" font-family="Arial" font-size="14.00" fill="#000000">description </text>
<text text-anchor="start" x="124.568" y="-435.4" font-family="Arial" font-size="14.00" fill="#666666">[text]</text>
<text text-anchor="start" x="154.913" y="-435.4" font-family="Arial" font-size="14.00" fill="#000000"> 説明</text>
<polygon fill="none" stroke="#000000" points="46,-394 46,-424 1402,-424 1402,-394 46,-394"/>
<text text-anchor="start" x="53" y="-405.4" font-family="Arial" font-size="14.00" fill="#000000">created_at </text>
<text text-anchor="start" x="123.028" y="-405.4" font-family="Arial" font-size="14.00" fill="#666666">[timestamp with time zone]</text>
<text text-anchor="start" x="288.7124" y="-405.4" font-family="Arial" font-size="14.00" fill="#000000"> 作成日時</text>
<polygon fill="none" stroke="#000000" points="46,-364 46,-394 1402,-394 1402,-364 46,-364"/>
<text text-anchor="start" x="53" y="-375.4" font-family="Arial" font-size="14.00" fill="#000000">updated_at </text>
<text text-anchor="start" x="126.9326" y="-375.4" font-family="Arial" font-size="14.00" fill="#666666">[timestamp with time zone]</text>
<text text-anchor="start" x="292.617" y="-375.4" font-family="Arial" font-size="14.00" fill="#000000"> 更新日時</text>
<polygon fill="none" stroke="#000000" stroke-width="3" points="44.5,-362.5 44.5,-591.5 1403.5,-591.5 1403.5,-362.5 44.5,-362.5"/>
</g>
<!-- public.sub_events -->
<g id="node2" class="node">
<title>public.sub_events</title>
<polygon fill="#efefef" stroke="transparent" points="567,-193 567,-239 881,-239 881,-193 567,-193"/>
<polygon fill="none" stroke="#000000" points="567,-193 567,-239 881,-239 881,-193 567,-193"/>
<text text-anchor="start" x="603.3488" y="-216.8" font-family="Arial Bold" font-size="18.00" fill="#000000">public.sub_events</text>
<text text-anchor="start" x="747.3974" y="-216.8" font-family="Arial" font-size="14.00" fill="#000000"> </text>
<text text-anchor="start" x="751.288" y="-216.8" font-family="Arial" font-size="14.00" fill="#666666">[BASE TABLE]</text>
<text text-anchor="start" x="683.9516" y="-202.4" font-family="Arial" font-size="14.00" fill="#333333">サブイベント</text>
<polygon fill="none" stroke="#000000" points="567,-163 567,-193 881,-193 881,-163 567,-163"/>
<text text-anchor="start" x="574" y="-174.4" font-family="Arial" font-size="14.00" fill="#000000">id </text>
<text text-anchor="start" x="588.7798" y="-174.4" font-family="Arial" font-size="14.00" fill="#666666">[text]</text>
<polygon fill="none" stroke="#000000" points="567,-133 567,-163 881,-163 881,-133 567,-133"/>
<text text-anchor="start" x="574" y="-144.4" font-family="Arial" font-size="14.00" fill="#000000">event_id </text>
<text text-anchor="start" x="630.8008" y="-144.4" font-family="Arial" font-size="14.00" fill="#666666">[text]</text>
<text text-anchor="start" x="661.1458" y="-144.4" font-family="Arial" font-size="14.00" fill="#000000"> イベントID</text>
<polygon fill="none" stroke="#000000" points="567,-103 567,-133 881,-133 881,-103 567,-103"/>
<text text-anchor="start" x="574" y="-114.4" font-family="Arial" font-size="14.00" fill="#000000">name </text>
<text text-anchor="start" x="612.899" y="-114.4" font-family="Arial" font-size="14.00" fill="#666666">[text]</text>
<text text-anchor="start" x="643.244" y="-114.4" font-family="Arial" font-size="14.00" fill="#000000"> 名前(例: 〇〇 2日目)</text>
<polygon fill="none" stroke="#000000" points="567,-73 567,-103 881,-103 881,-73 567,-73"/>
<text text-anchor="start" x="573.8542" y="-84.4" font-family="Arial" font-size="14.00" fill="#000000">created_at </text>
<text text-anchor="start" x="643.8822" y="-84.4" font-family="Arial" font-size="14.00" fill="#666666">[timestamp with time zone]</text>
<text text-anchor="start" x="809.5666" y="-84.4" font-family="Arial" font-size="14.00" fill="#000000"> 作成日時</text>
<polygon fill="none" stroke="#000000" points="567,-43 567,-73 881,-73 881,-43 567,-43"/>
<text text-anchor="start" x="574" y="-54.4" font-family="Arial" font-size="14.00" fill="#000000">updated_at </text>
<text text-anchor="start" x="647.9326" y="-54.4" font-family="Arial" font-size="14.00" fill="#666666">[timestamp with time zone]</text>
<text text-anchor="start" x="813.617" y="-54.4" font-family="Arial" font-size="14.00" fill="#000000"> 更新日時</text>
</g>
<!-- public.sub_event_details&#45;&gt;public.sub_events -->
<g id="edge1" class="edge">
<title>public.sub_event_details:sub_event_id&#45;&gt;public.sub_events:id</title>
<path fill="none" stroke="#000000" d="M1412.3988,-528.3866C1492.8783,-518.4245 1456.8328,-389.5123 1402,-318 1329.0526,-222.8629 1000.8849,-178 881,-178"/>
<polygon fill="#000000" stroke="#000000" points="1411.9826,-528.4111 1401.735,-524.5078 1406.9913,-528.7055 1402,-529 1402,-529 1402,-529 1406.9913,-528.7055 1402.265,-533.4922 1411.9826,-528.4111 1411.9826,-528.4111"/>
<text text-anchor="start" x="1408.6485" y="-539" font-family="Arial" font-size="10.00" fill="#000000">FOREIGN KEY (sub_event_id) REFERENCES sub_events(id)</text>
</g>
</g>
</svg>
