<?xml version="1.0" encoding="UTF-8" standalone="no"?>
<!DOCTYPE svg PUBLIC "-//W3C//DTD SVG 1.1//EN"
 "http://www.w3.org/Graphics/SVG/1.1/DTD/svg11.dtd">
<!-- Generated by graphviz version 2.40.1 (20161225.0304)
 -->
<!-- Title: public.original_songs Pages: 1 -->
<svg width="1083pt" height="1172pt"
 viewBox="0.00 0.00 1082.50 1172.00" xmlns="http://www.w3.org/2000/svg" xmlns:xlink="http://www.w3.org/1999/xlink">
<g id="graph0" class="graph" transform="scale(1 1) rotate(0) translate(4 1168)">
<title>public.original_songs</title>
<polygon fill="#ffffff" stroke="transparent" points="-4,4 -4,-1168 1078.5,-1168 1078.5,4 -4,4"/>
<!-- public.original_songs -->
<g id="node1" class="node">
<title>public.original_songs</title>
<polygon fill="#efefef" stroke="transparent" points="319.5,-724 319.5,-770 809.5,-770 809.5,-724 319.5,-724"/>
<polygon fill="none" stroke="#000000" points="319.5,-724 319.5,-770 809.5,-770 809.5,-724 319.5,-724"/>
<text text-anchor="start" x="416.6992" y="-747.8" font-family="Arial Bold" font-size="18.00" fill="#000000">public.original_songs</text>
<text text-anchor="start" x="584.7328" y="-747.8" font-family="Arial" font-size="14.00" fill="#000000">    </text>
<text text-anchor="start" x="618.9376" y="-747.8" font-family="Arial" font-size="14.00" fill="#666666">[BASE TABLE]</text>
<text text-anchor="start" x="550.8822" y="-733.4" font-family="Arial" font-size="14.00" fill="#333333">原曲</text>
<polygon fill="none" stroke="#000000" points="319.5,-694 319.5,-724 809.5,-724 809.5,-694 319.5,-694"/>
<text text-anchor="start" x="326.5" y="-705.4" font-family="Arial" font-size="14.00" fill="#000000">id </text>
<text text-anchor="start" x="341.2798" y="-705.4" font-family="Arial" font-size="14.00" fill="#666666">[text]</text>
<text text-anchor="start" x="371.6248" y="-705.4" font-family="Arial" font-size="14.00" fill="#000000"> 原曲ID</text>
<polygon fill="none" stroke="#000000" points="319.5,-664 319.5,-694 809.5,-694 809.5,-664 319.5,-664"/>
<text text-anchor="start" x="326.5" y="-675.4" font-family="Arial" font-size="14.00" fill="#000000">product_id </text>
<text text-anchor="start" x="395.744" y="-675.4" font-family="Arial" font-size="14.00" fill="#666666">[text]</text>
<text text-anchor="start" x="426.089" y="-675.4" font-family="Arial" font-size="14.00" fill="#000000"> 原作ID</text>
<polygon fill="none" stroke="#000000" points="319.5,-634 319.5,-664 809.5,-664 809.5,-634 319.5,-634"/>
<text text-anchor="start" x="326.5" y="-645.4" font-family="Arial" font-size="14.00" fill="#000000">name </text>
<text text-anchor="start" x="365.399" y="-645.4" font-family="Arial" font-size="14.00" fill="#666666">[text]</text>
<text text-anchor="start" x="395.744" y="-645.4" font-family="Arial" font-size="14.00" fill="#000000"> 名前</text>
<polygon fill="none" stroke="#000000" points="319.5,-604 319.5,-634 809.5,-634 809.5,-604 319.5,-604"/>
<text text-anchor="start" x="326.5" y="-615.4" font-family="Arial" font-size="14.00" fill="#000000">composer </text>
<text text-anchor="start" x="391.8422" y="-615.4" font-family="Arial" font-size="14.00" fill="#666666">[text]</text>
<text text-anchor="start" x="422.1872" y="-615.4" font-family="Arial" font-size="14.00" fill="#000000"> 作曲者</text>
<polygon fill="none" stroke="#000000" points="319.5,-574 319.5,-604 809.5,-604 809.5,-574 319.5,-574"/>
<text text-anchor="start" x="326.5" y="-585.4" font-family="Arial" font-size="14.00" fill="#000000">arranger </text>
<text text-anchor="start" x="383.2854" y="-585.4" font-family="Arial" font-size="14.00" fill="#666666">[text]</text>
<text text-anchor="start" x="413.6304" y="-585.4" font-family="Arial" font-size="14.00" fill="#000000"> 編曲者</text>
<polygon fill="none" stroke="#000000" points="319.5,-544 319.5,-574 809.5,-574 809.5,-544 319.5,-544"/>
<text text-anchor="start" x="326.5" y="-555.4" font-family="Arial" font-size="14.00" fill="#000000">track_number </text>
<text text-anchor="start" x="415.9586" y="-555.4" font-family="Arial" font-size="14.00" fill="#666666">[integer]</text>
<text text-anchor="start" x="466.528" y="-555.4" font-family="Arial" font-size="14.00" fill="#000000"> トラック番号</text>
<polygon fill="none" stroke="#000000" points="319.5,-514 319.5,-544 809.5,-544 809.5,-514 319.5,-514"/>
<text text-anchor="start" x="326.4818" y="-525.4" font-family="Arial" font-size="14.00" fill="#000000">is_original </text>
<text text-anchor="start" x="393.3724" y="-525.4" font-family="Arial" font-size="14.00" fill="#666666">[boolean]</text>
<text text-anchor="start" x="450.9558" y="-525.4" font-family="Arial" font-size="14.00" fill="#000000"> オリジナル有無(true: オリジナル(初出)、false: 再録など)</text>
<polygon fill="none" stroke="#000000" points="319.5,-484 319.5,-514 809.5,-514 809.5,-484 319.5,-484"/>
<text text-anchor="start" x="326.5" y="-495.4" font-family="Arial" font-size="14.00" fill="#000000">source_id </text>
<text text-anchor="start" x="391.0708" y="-495.4" font-family="Arial" font-size="14.00" fill="#666666">[text]</text>
<text text-anchor="start" x="421.4158" y="-495.4" font-family="Arial" font-size="14.00" fill="#000000"> 原曲元の原曲ID</text>
<polygon fill="none" stroke="#000000" points="319.5,-454 319.5,-484 809.5,-484 809.5,-454 319.5,-454"/>
<text text-anchor="start" x="326.5" y="-465.4" font-family="Arial" font-size="14.00" fill="#000000">created_at </text>
<text text-anchor="start" x="396.528" y="-465.4" font-family="Arial" font-size="14.00" fill="#666666">[timestamp with time zone]</text>
<text text-anchor="start" x="562.2124" y="-465.4" font-family="Arial" font-size="14.00" fill="#000000"> 作成日時</text>
<polygon fill="none" stroke="#000000" points="319.5,-424 319.5,-454 809.5,-454 809.5,-424 319.5,-424"/>
<text text-anchor="start" x="326.5" y="-435.4" font-family="Arial" font-size="14.00" fill="#000000">updated_at </text>
<text text-anchor="start" x="400.4326" y="-435.4" font-family="Arial" font-size="14.00" fill="#666666">[timestamp with time zone]</text>
<text text-anchor="start" x="566.117" y="-435.4" font-family="Arial" font-size="14.00" fill="#000000"> 更新日時</text>
<polygon fill="none" stroke="#000000" stroke-width="3" points="318,-422.5 318,-771.5 811,-771.5 811,-422.5 318,-422.5"/>
</g>
<!-- public.products -->
<g id="node4" class="node">
<title>public.products</title>
<polygon fill="#efefef" stroke="transparent" points="392.5,-253 392.5,-299 736.5,-299 736.5,-253 392.5,-253"/>
<polygon fill="none" stroke="#000000" points="392.5,-253 392.5,-299 736.5,-299 736.5,-253 392.5,-253"/>
<text text-anchor="start" x="440.2018" y="-276.8" font-family="Arial Bold" font-size="18.00" fill="#000000">public.products</text>
<text text-anchor="start" x="561.2302" y="-276.8" font-family="Arial" font-size="14.00" fill="#000000">    </text>
<text text-anchor="start" x="595.435" y="-276.8" font-family="Arial" font-size="14.00" fill="#666666">[BASE TABLE]</text>
<text text-anchor="start" x="547.7735" y="-262.4" font-family="Arial" font-size="14.00" fill="#333333">原作</text>
<polygon fill="none" stroke="#000000" points="392.5,-223 392.5,-253 736.5,-253 736.5,-223 392.5,-223"/>
<text text-anchor="start" x="399.5" y="-234.4" font-family="Arial" font-size="14.00" fill="#000000">id    </text>
<text text-anchor="start" x="444.594" y="-234.4" font-family="Arial" font-size="14.00" fill="#666666">[text]</text>
<text text-anchor="start" x="474.939" y="-234.4" font-family="Arial" font-size="14.00" fill="#000000"> 原作ID</text>
<polygon fill="none" stroke="#000000" points="392.5,-193 392.5,-223 736.5,-223 736.5,-193 392.5,-193"/>
<text text-anchor="start" x="399.5" y="-204.4" font-family="Arial" font-size="14.00" fill="#000000">name    </text>
<text text-anchor="start" x="468.7132" y="-204.4" font-family="Arial" font-size="14.00" fill="#666666">[text]</text>
<text text-anchor="start" x="499.0582" y="-204.4" font-family="Arial" font-size="14.00" fill="#000000"> 名前</text>
<polygon fill="none" stroke="#000000" points="392.5,-163 392.5,-193 736.5,-193 736.5,-163 392.5,-163"/>
<text text-anchor="start" x="399.5" y="-174.4" font-family="Arial" font-size="14.00" fill="#000000">short_name    </text>
<text text-anchor="start" x="507.6122" y="-174.4" font-family="Arial" font-size="14.00" fill="#666666">[text]</text>
<text text-anchor="start" x="537.9572" y="-174.4" font-family="Arial" font-size="14.00" fill="#000000"> 短い名前</text>
<polygon fill="none" stroke="#000000" points="392.5,-133 392.5,-163 736.5,-163 736.5,-133 392.5,-133"/>
<text text-anchor="start" x="399.5" y="-144.4" font-family="Arial" font-size="14.00" fill="#000000">product_type    </text>
<text text-anchor="start" x="514.6248" y="-144.4" font-family="Arial" font-size="14.00" fill="#666666">[product_type]</text>
<text text-anchor="start" x="603.326" y="-144.4" font-family="Arial" font-size="14.00" fill="#000000"> 原作種別</text>
<polygon fill="none" stroke="#000000" points="392.5,-103 392.5,-133 736.5,-133 736.5,-103 392.5,-103"/>
<text text-anchor="start" x="399.5" y="-114.4" font-family="Arial" font-size="14.00" fill="#000000">series_number    </text>
<text text-anchor="start" x="526.2714" y="-114.4" font-family="Arial" font-size="14.00" fill="#666666">[numeric(5,2)]</text>
<text text-anchor="start" x="612.6052" y="-114.4" font-family="Arial" font-size="14.00" fill="#000000"> シリーズ番号</text>
<polygon fill="none" stroke="#000000" points="392.5,-73 392.5,-103 736.5,-103 736.5,-73 392.5,-73"/>
<text text-anchor="start" x="399.1971" y="-84.4" font-family="Arial" font-size="14.00" fill="#000000">created_at    </text>
<text text-anchor="start" x="499.5393" y="-84.4" font-family="Arial" font-size="14.00" fill="#666666">[timestamp with time zone]</text>
<text text-anchor="start" x="665.2237" y="-84.4" font-family="Arial" font-size="14.00" fill="#000000"> 作成日時</text>
<polygon fill="none" stroke="#000000" points="392.5,-43 392.5,-73 736.5,-73 736.5,-43 392.5,-43"/>
<text text-anchor="start" x="399.5" y="-54.4" font-family="Arial" font-size="14.00" fill="#000000">updated_at    </text>
<text text-anchor="start" x="503.7468" y="-54.4" font-family="Arial" font-size="14.00" fill="#666666">[timestamp with time zone]</text>
<text text-anchor="start" x="669.4312" y="-54.4" font-family="Arial" font-size="14.00" fill="#000000"> 更新日時</text>
</g>
<!-- public.original_songs&#45;&gt;public.products -->
<g id="edge3" class="edge">
<title>public.original_songs:product_id&#45;&gt;public.products:id</title>
<path fill="none" stroke="#000000" d="M819.7256,-678.596C1005.5619,-663.6324 931.675,-238 736.5,-238"/>
<polygon fill="#000000" stroke="#000000" points="819.4922,-678.6051 809.3223,-674.5035 814.4961,-678.8026 809.5,-679 809.5,-679 809.5,-679 814.4961,-678.8026 809.6777,-683.4965 819.4922,-678.6051 819.4922,-678.6051"/>
<text text-anchor="start" x="816.9375" y="-689" font-family="Arial" font-size="10.00" fill="#000000">FOREIGN KEY (product_id) REFERENCES products(id)</text>
</g>
<!-- public.original_song_distribution_service_urls -->
<g id="node2" class="node">
<title>public.original_song_distribution_service_urls</title>
<polygon fill="#efefef" stroke="transparent" points="43.5,-1075 43.5,-1121 546.5,-1121 546.5,-1075 43.5,-1075"/>
<polygon fill="none" stroke="#000000" points="43.5,-1075 43.5,-1121 546.5,-1121 546.5,-1075 43.5,-1075"/>
<text text-anchor="start" x="50.1891" y="-1098.8" font-family="Arial Bold" font-size="18.00" fill="#000000">public.original_song_distribution_service_urls</text>
<text text-anchor="start" x="412.2429" y="-1098.8" font-family="Arial" font-size="14.00" fill="#000000">    </text>
<text text-anchor="start" x="446.4477" y="-1098.8" font-family="Arial" font-size="14.00" fill="#666666">[BASE TABLE]</text>
<text text-anchor="start" x="218.1372" y="-1084.4" font-family="Arial" font-size="14.00" fill="#333333">原曲配信サービスURL</text>
<polygon fill="none" stroke="#000000" points="43.5,-1045 43.5,-1075 546.5,-1075 546.5,-1045 43.5,-1045"/>
<text text-anchor="start" x="50.5" y="-1056.4" font-family="Arial" font-size="14.00" fill="#000000">id    </text>
<text text-anchor="start" x="95.594" y="-1056.4" font-family="Arial" font-size="14.00" fill="#666666">[text]</text>
<polygon fill="none" stroke="#000000" points="43.5,-1015 43.5,-1045 546.5,-1045 546.5,-1015 43.5,-1015"/>
<text text-anchor="start" x="50.5" y="-1026.4" font-family="Arial" font-size="14.00" fill="#000000">original_song_id    </text>
<text text-anchor="start" x="186.6178" y="-1026.4" font-family="Arial" font-size="14.00" fill="#666666">[text]</text>
<text text-anchor="start" x="216.9628" y="-1026.4" font-family="Arial" font-size="14.00" fill="#000000"> 原曲ID</text>
<polygon fill="none" stroke="#000000" points="43.5,-985 43.5,-1015 546.5,-1015 546.5,-985 43.5,-985"/>
<text text-anchor="start" x="50.5" y="-996.4" font-family="Arial" font-size="14.00" fill="#000000">service    </text>
<text text-anchor="start" x="129.0372" y="-996.4" font-family="Arial" font-size="14.00" fill="#666666">[distribution_service]</text>
<text text-anchor="start" x="256.608" y="-996.4" font-family="Arial" font-size="14.00" fill="#000000"> 配信サービス</text>
<polygon fill="none" stroke="#000000" points="43.5,-955 43.5,-985 546.5,-985 546.5,-955 43.5,-955"/>
<text text-anchor="start" x="50.5" y="-966.4" font-family="Arial" font-size="14.00" fill="#000000">url    </text>
<text text-anchor="start" x="100.2546" y="-966.4" font-family="Arial" font-size="14.00" fill="#666666">[text]</text>
<text text-anchor="start" x="130.5996" y="-966.4" font-family="Arial" font-size="14.00" fill="#000000"> URL</text>
<polygon fill="none" stroke="#000000" points="43.5,-925 43.5,-955 546.5,-955 546.5,-925 43.5,-925"/>
<text text-anchor="start" x="50.5" y="-936.4" font-family="Arial" font-size="14.00" fill="#000000">created_at    </text>
<text text-anchor="start" x="150.8422" y="-936.4" font-family="Arial" font-size="14.00" fill="#666666">[timestamp with time zone]</text>
<text text-anchor="start" x="316.5266" y="-936.4" font-family="Arial" font-size="14.00" fill="#000000"> 作成日時</text>
<polygon fill="none" stroke="#000000" points="43.5,-895 43.5,-925 546.5,-925 546.5,-895 43.5,-895"/>
<text text-anchor="start" x="50.5" y="-906.4" font-family="Arial" font-size="14.00" fill="#000000">updated_at    </text>
<text text-anchor="start" x="154.7468" y="-906.4" font-family="Arial" font-size="14.00" fill="#666666">[timestamp with time zone]</text>
<text text-anchor="start" x="320.4312" y="-906.4" font-family="Arial" font-size="14.00" fill="#000000"> 更新日時</text>
</g>
<!-- public.original_song_distribution_service_urls&#45;&gt;public.original_songs -->
<g id="edge1" class="edge">
<title>public.original_song_distribution_service_urls:original_song_id&#45;&gt;public.original_songs:id</title>
<path fill="none" stroke="#000000" d="M556.5221,-1029.3025C623.0713,-1019.5294 595.5648,-909.4591 546.5,-852 480.1669,-774.3181 385.8331,-893.6819 319.5,-816 288.6188,-779.8354 271.9444,-709 319.5,-709"/>
<polygon fill="#000000" stroke="#000000" points="556.4759,-1029.3057 546.1875,-1025.5109 551.4879,-1029.6528 546.5,-1030 546.5,-1030 546.5,-1030 551.4879,-1029.6528 546.8125,-1034.4891 556.4759,-1029.3057 556.4759,-1029.3057"/>
<text text-anchor="start" x="553.8235" y="-1040" font-family="Arial" font-size="10.00" fill="#000000">FOREIGN KEY (original_song_id) REFERENCES original_songs(id)</text>
</g>
<!-- public.songs_original_songs -->
<g id="node3" class="node">
<title>public.songs_original_songs</title>
<polygon fill="#efefef" stroke="transparent" points="650.5,-1045 650.5,-1091 1017.5,-1091 1017.5,-1045 650.5,-1045"/>
<polygon fill="none" stroke="#000000" points="650.5,-1045 650.5,-1091 1017.5,-1091 1017.5,-1045 650.5,-1045"/>
<text text-anchor="start" x="657.1868" y="-1068.8" font-family="Arial Bold" font-size="18.00" fill="#000000">public.songs_original_songs</text>
<text text-anchor="start" x="883.2452" y="-1068.8" font-family="Arial" font-size="14.00" fill="#000000">    </text>
<text text-anchor="start" x="917.45" y="-1068.8" font-family="Arial" font-size="14.00" fill="#666666">[BASE TABLE]</text>
<text text-anchor="start" x="799.7637" y="-1054.4" font-family="Arial" font-size="14.00" fill="#333333">楽曲原曲</text>
<polygon fill="none" stroke="#000000" points="650.5,-1015 650.5,-1045 1017.5,-1045 1017.5,-1015 650.5,-1015"/>
<text text-anchor="start" x="657.5" y="-1026.4" font-family="Arial" font-size="14.00" fill="#000000">song_id    </text>
<text text-anchor="start" x="740.7244" y="-1026.4" font-family="Arial" font-size="14.00" fill="#666666">[text]</text>
<text text-anchor="start" x="771.0694" y="-1026.4" font-family="Arial" font-size="14.00" fill="#000000"> 楽曲ID</text>
<polygon fill="none" stroke="#000000" points="650.5,-985 650.5,-1015 1017.5,-1015 1017.5,-985 650.5,-985"/>
<text text-anchor="start" x="657.5" y="-996.4" font-family="Arial" font-size="14.00" fill="#000000">original_song_id    </text>
<text text-anchor="start" x="793.6178" y="-996.4" font-family="Arial" font-size="14.00" fill="#666666">[text]</text>
<text text-anchor="start" x="823.9628" y="-996.4" font-family="Arial" font-size="14.00" fill="#000000"> 原曲ID</text>
<polygon fill="none" stroke="#000000" points="650.5,-955 650.5,-985 1017.5,-985 1017.5,-955 650.5,-955"/>
<text text-anchor="start" x="657.5" y="-966.4" font-family="Arial" font-size="14.00" fill="#000000">created_at    </text>
<text text-anchor="start" x="757.8422" y="-966.4" font-family="Arial" font-size="14.00" fill="#666666">[timestamp with time zone]</text>
<text text-anchor="start" x="923.5266" y="-966.4" font-family="Arial" font-size="14.00" fill="#000000"> 作成日時</text>
<polygon fill="none" stroke="#000000" points="650.5,-925 650.5,-955 1017.5,-955 1017.5,-925 650.5,-925"/>
<text text-anchor="start" x="657.5" y="-936.4" font-family="Arial" font-size="14.00" fill="#000000">updated_at    </text>
<text text-anchor="start" x="761.7468" y="-936.4" font-family="Arial" font-size="14.00" fill="#666666">[timestamp with time zone]</text>
<text text-anchor="start" x="927.4312" y="-936.4" font-family="Arial" font-size="14.00" fill="#000000"> 更新日時</text>
</g>
<!-- public.songs_original_songs&#45;&gt;public.original_songs -->
<g id="edge2" class="edge">
<title>public.songs_original_songs:original_song_id&#45;&gt;public.original_songs:id</title>
<path fill="none" stroke="#000000" d="M640.5369,-998.9333C601.3642,-989.692 623.4273,-922.5501 650.5,-882 692.9844,-818.3659 767.0156,-879.6341 809.5,-816 835.9056,-776.4491 857.0556,-709 809.5,-709"/>
<polygon fill="#000000" stroke="#000000" points="640.5568,-998.9354 650.0209,-1004.4744 645.5284,-999.4677 650.5,-1000 650.5,-1000 650.5,-1000 645.5284,-999.4677 650.9791,-995.5256 640.5568,-998.9354 640.5568,-998.9354"/>
<text text-anchor="start" x="657.8235" y="-1010" font-family="Arial" font-size="10.00" fill="#000000">FOREIGN KEY (original_song_id) REFERENCES original_songs(id)</text>
</g>
</g>
</svg>
