<?xml version="1.0" encoding="UTF-8" standalone="no"?>
<!DOCTYPE svg PUBLIC "-//W3C//DTD SVG 1.1//EN"
 "http://www.w3.org/Graphics/SVG/1.1/DTD/svg11.dtd">
<!-- Generated by graphviz version 2.40.1 (20161225.0304)
 -->
<!-- Title: public.product_distribution_service_urls Pages: 1 -->
<svg width="745pt" height="704pt"
 viewBox="0.00 0.00 745.00 704.00" xmlns="http://www.w3.org/2000/svg" xmlns:xlink="http://www.w3.org/1999/xlink">
<g id="graph0" class="graph" transform="scale(1 1) rotate(0) translate(4 700)">
<title>public.product_distribution_service_urls</title>
<polygon fill="#ffffff" stroke="transparent" points="-4,4 -4,-700 741,-700 741,4 -4,4"/>
<!-- public.product_distribution_service_urls -->
<g id="node1" class="node">
<title>public.product_distribution_service_urls</title>
<polygon fill="#efefef" stroke="transparent" points="46,-604 46,-650 472,-650 472,-604 46,-604"/>
<polygon fill="none" stroke="#000000" points="46,-604 46,-650 472,-650 472,-604 46,-604"/>
<text text-anchor="start" x="52.8488" y="-627.8" font-family="Arial Bold" font-size="18.00" fill="#000000">public.product_distribution_service_urls</text>
<text text-anchor="start" x="367.8974" y="-627.8" font-family="Arial" font-size="14.00" fill="#000000"> </text>
<text text-anchor="start" x="371.788" y="-627.8" font-family="Arial" font-size="14.00" fill="#666666">[BASE TABLE]</text>
<text text-anchor="start" x="150.2494" y="-613.4" font-family="Arial" font-size="14.00" fill="#333333">原作(音楽)配信サービスURL</text>
<polygon fill="none" stroke="#000000" points="46,-574 46,-604 472,-604 472,-574 46,-574"/>
<text text-anchor="start" x="53" y="-585.4" font-family="Arial" font-size="14.00" fill="#000000">id </text>
<text text-anchor="start" x="67.7798" y="-585.4" font-family="Arial" font-size="14.00" fill="#666666">[text]</text>
<polygon fill="none" stroke="#000000" points="46,-544 46,-574 472,-574 472,-544 46,-544"/>
<text text-anchor="start" x="53" y="-555.4" font-family="Arial" font-size="14.00" fill="#000000">product_id </text>
<text text-anchor="start" x="122.244" y="-555.4" font-family="Arial" font-size="14.00" fill="#666666">[text]</text>
<text text-anchor="start" x="152.589" y="-555.4" font-family="Arial" font-size="14.00" fill="#000000"> 原作ID</text>
<polygon fill="none" stroke="#000000" points="46,-514 46,-544 472,-544 472,-514 46,-514"/>
<text text-anchor="start" x="53" y="-525.4" font-family="Arial" font-size="14.00" fill="#000000">service </text>
<text text-anchor="start" x="101.223" y="-525.4" font-family="Arial" font-size="14.00" fill="#666666">[distribution_service]</text>
<text text-anchor="start" x="228.7938" y="-525.4" font-family="Arial" font-size="14.00" fill="#000000"> 配信サービス</text>
<polygon fill="none" stroke="#000000" points="46,-484 46,-514 472,-514 472,-484 46,-484"/>
<text text-anchor="start" x="53" y="-495.4" font-family="Arial" font-size="14.00" fill="#000000">url </text>
<text text-anchor="start" x="72.4404" y="-495.4" font-family="Arial" font-size="14.00" fill="#666666">[text]</text>
<text text-anchor="start" x="102.7854" y="-495.4" font-family="Arial" font-size="14.00" fill="#000000"> URL</text>
<polygon fill="none" stroke="#000000" points="46,-454 46,-484 472,-484 472,-454 46,-454"/>
<text text-anchor="start" x="53" y="-465.4" font-family="Arial" font-size="14.00" fill="#000000">created_at </text>
<text text-anchor="start" x="123.028" y="-465.4" font-family="Arial" font-size="14.00" fill="#666666">[timestamp with time zone]</text>
<text text-anchor="start" x="288.7124" y="-465.4" font-family="Arial" font-size="14.00" fill="#000000"> 作成日時</text>
<polygon fill="none" stroke="#000000" points="46,-424 46,-454 472,-454 472,-424 46,-424"/>
<text text-anchor="start" x="53" y="-435.4" font-family="Arial" font-size="14.00" fill="#000000">updated_at </text>
<text text-anchor="start" x="126.9326" y="-435.4" font-family="Arial" font-size="14.00" fill="#666666">[timestamp with time zone]</text>
<text text-anchor="start" x="292.617" y="-435.4" font-family="Arial" font-size="14.00" fill="#000000"> 更新日時</text>
<polygon fill="none" stroke="#000000" stroke-width="3" points="44.5,-422.5 44.5,-651.5 473.5,-651.5 473.5,-422.5 44.5,-422.5"/>
</g>
<!-- public.products -->
<g id="node2" class="node">
<title>public.products</title>
<polygon fill="#efefef" stroke="transparent" points="102,-253 102,-299 416,-299 416,-253 102,-253"/>
<polygon fill="none" stroke="#000000" points="102,-253 102,-299 416,-299 416,-253 102,-253"/>
<text text-anchor="start" x="149.8589" y="-276.8" font-family="Arial Bold" font-size="18.00" fill="#000000">public.products</text>
<text text-anchor="start" x="270.8873" y="-276.8" font-family="Arial" font-size="14.00" fill="#000000"> </text>
<text text-anchor="start" x="274.7779" y="-276.8" font-family="Arial" font-size="14.00" fill="#666666">[BASE TABLE]</text>
<text text-anchor="start" x="242.2735" y="-262.4" font-family="Arial" font-size="14.00" fill="#333333">原作</text>
<polygon fill="none" stroke="#000000" points="102,-223 102,-253 416,-253 416,-223 102,-223"/>
<text text-anchor="start" x="109" y="-234.4" font-family="Arial" font-size="14.00" fill="#000000">id </text>
<text text-anchor="start" x="123.7798" y="-234.4" font-family="Arial" font-size="14.00" fill="#666666">[text]</text>
<text text-anchor="start" x="154.1248" y="-234.4" font-family="Arial" font-size="14.00" fill="#000000"> 原作ID</text>
<polygon fill="none" stroke="#000000" points="102,-193 102,-223 416,-223 416,-193 102,-193"/>
<text text-anchor="start" x="109" y="-204.4" font-family="Arial" font-size="14.00" fill="#000000">name </text>
<text text-anchor="start" x="147.899" y="-204.4" font-family="Arial" font-size="14.00" fill="#666666">[text]</text>
<text text-anchor="start" x="178.244" y="-204.4" font-family="Arial" font-size="14.00" fill="#000000"> 名前</text>
<polygon fill="none" stroke="#000000" points="102,-163 102,-193 416,-193 416,-163 102,-163"/>
<text text-anchor="start" x="109" y="-174.4" font-family="Arial" font-size="14.00" fill="#000000">short_name </text>
<text text-anchor="start" x="186.798" y="-174.4" font-family="Arial" font-size="14.00" fill="#666666">[text]</text>
<text text-anchor="start" x="217.143" y="-174.4" font-family="Arial" font-size="14.00" fill="#000000"> 短い名前</text>
<polygon fill="none" stroke="#000000" points="102,-133 102,-163 416,-163 416,-133 102,-133"/>
<text text-anchor="start" x="109" y="-144.4" font-family="Arial" font-size="14.00" fill="#000000">product_type </text>
<text text-anchor="start" x="193.8106" y="-144.4" font-family="Arial" font-size="14.00" fill="#666666">[product_type]</text>
<text text-anchor="start" x="282.5118" y="-144.4" font-family="Arial" font-size="14.00" fill="#000000"> 原作種別</text>
<polygon fill="none" stroke="#000000" points="102,-103 102,-133 416,-133 416,-103 102,-103"/>
<text text-anchor="start" x="109" y="-114.4" font-family="Arial" font-size="14.00" fill="#000000">series_number </text>
<text text-anchor="start" x="205.4572" y="-114.4" font-family="Arial" font-size="14.00" fill="#666666">[numeric(5,2)]</text>
<text text-anchor="start" x="291.791" y="-114.4" font-family="Arial" font-size="14.00" fill="#000000"> シリーズ番号</text>
<polygon fill="none" stroke="#000000" points="102,-73 102,-103 416,-103 416,-73 102,-73"/>
<text text-anchor="start" x="108.8542" y="-84.4" font-family="Arial" font-size="14.00" fill="#000000">created_at </text>
<text text-anchor="start" x="178.8822" y="-84.4" font-family="Arial" font-size="14.00" fill="#666666">[timestamp with time zone]</text>
<text text-anchor="start" x="344.5666" y="-84.4" font-family="Arial" font-size="14.00" fill="#000000"> 作成日時</text>
<polygon fill="none" stroke="#000000" points="102,-43 102,-73 416,-73 416,-43 102,-43"/>
<text text-anchor="start" x="109" y="-54.4" font-family="Arial" font-size="14.00" fill="#000000">updated_at </text>
<text text-anchor="start" x="182.9326" y="-54.4" font-family="Arial" font-size="14.00" fill="#666666">[timestamp with time zone]</text>
<text text-anchor="start" x="348.617" y="-54.4" font-family="Arial" font-size="14.00" fill="#000000"> 更新日時</text>
</g>
<!-- public.product_distribution_service_urls&#45;&gt;public.products -->
<g id="edge1" class="edge">
<title>public.product_distribution_service_urls:product_id&#45;&gt;public.products:id</title>
<path fill="none" stroke="#000000" d="M482.0526,-556.6007C538.6809,-527.2262 484.7336,-238 416,-238"/>
<polygon fill="#000000" stroke="#000000" points="481.7268,-556.6784 470.9553,-554.6229 476.8634,-557.8392 472,-559 472,-559 472,-559 476.8634,-557.8392 473.0447,-563.3771 481.7268,-556.6784 481.7268,-556.6784"/>
<text text-anchor="start" x="479.4375" y="-569" font-family="Arial" font-size="10.00" fill="#000000">FOREIGN KEY (product_id) REFERENCES products(id)</text>
</g>
</g>
</svg>
