<?xml version="1.0" encoding="UTF-8" standalone="no"?>
<!DOCTYPE svg PUBLIC "-//W3C//DTD SVG 1.1//EN"
 "http://www.w3.org/Graphics/SVG/1.1/DTD/svg11.dtd">
<!-- Generated by graphviz version 2.40.1 (20161225.0304)
 -->
<!-- Title: public.albums Pages: 1 -->
<svg width="4018pt" height="854pt"
 viewBox="0.00 0.00 4017.50 854.00" xmlns="http://www.w3.org/2000/svg" xmlns:xlink="http://www.w3.org/1999/xlink">
<g id="graph0" class="graph" transform="scale(1 1) rotate(0) translate(4 850)">
<title>public.albums</title>
<polygon fill="#ffffff" stroke="transparent" points="-4,4 -4,-850 4013.5,-850 4013.5,4 -4,4"/>
<!-- public.albums -->
<g id="node1" class="node">
<title>public.albums</title>
<polygon fill="#efefef" stroke="transparent" points="1765,-316 1765,-362 2079,-362 2079,-316 1765,-316"/>
<polygon fill="none" stroke="#000000" points="1765,-316 1765,-362 2079,-362 2079,-316 1765,-316"/>
<text text-anchor="start" x="1818.366" y="-339.8" font-family="Arial Bold" font-size="18.00" fill="#000000">public.albums</text>
<text text-anchor="start" x="1928.3802" y="-339.8" font-family="Arial" font-size="14.00" fill="#000000"> </text>
<text text-anchor="start" x="1932.2708" y="-339.8" font-family="Arial" font-size="14.00" fill="#666666">[BASE TABLE]</text>
<text text-anchor="start" x="1892.1884" y="-325.4" font-family="Arial" font-size="14.00" fill="#333333">アルバム</text>
<polygon fill="none" stroke="#000000" points="1765,-286 1765,-316 2079,-316 2079,-286 1765,-286"/>
<text text-anchor="start" x="1772" y="-297.4" font-family="Arial" font-size="14.00" fill="#000000">id </text>
<text text-anchor="start" x="1786.7798" y="-297.4" font-family="Arial" font-size="14.00" fill="#666666">[text]</text>
<polygon fill="none" stroke="#000000" points="1765,-256 1765,-286 2079,-286 2079,-256 1765,-256"/>
<text text-anchor="start" x="1772" y="-267.4" font-family="Arial" font-size="14.00" fill="#000000">name </text>
<text text-anchor="start" x="1810.899" y="-267.4" font-family="Arial" font-size="14.00" fill="#666666">[text]</text>
<text text-anchor="start" x="1841.244" y="-267.4" font-family="Arial" font-size="14.00" fill="#000000"> 名前</text>
<polygon fill="none" stroke="#000000" points="1765,-226 1765,-256 2079,-256 2079,-226 1765,-226"/>
<text text-anchor="start" x="1772" y="-237.4" font-family="Arial" font-size="14.00" fill="#000000">release_circle_name </text>
<text text-anchor="start" x="1905.0182" y="-237.4" font-family="Arial" font-size="14.00" fill="#666666">[text]</text>
<text text-anchor="start" x="1935.3632" y="-237.4" font-family="Arial" font-size="14.00" fill="#000000"> 頒布サークル名</text>
<polygon fill="none" stroke="#000000" points="1765,-196 1765,-226 2079,-226 2079,-196 1765,-196"/>
<text text-anchor="start" x="1772" y="-207.4" font-family="Arial" font-size="14.00" fill="#000000">release_date </text>
<text text-anchor="start" x="1856.8092" y="-207.4" font-family="Arial" font-size="14.00" fill="#666666">[date]</text>
<text text-anchor="start" x="1891.8288" y="-207.4" font-family="Arial" font-size="14.00" fill="#000000"> 頒布日</text>
<polygon fill="none" stroke="#000000" points="1765,-166 1765,-196 2079,-196 2079,-166 1765,-166"/>
<text text-anchor="start" x="1772" y="-177.4" font-family="Arial" font-size="14.00" fill="#000000">event_id </text>
<text text-anchor="start" x="1828.8008" y="-177.4" font-family="Arial" font-size="14.00" fill="#666666">[text]</text>
<text text-anchor="start" x="1859.1458" y="-177.4" font-family="Arial" font-size="14.00" fill="#000000"> イベントID</text>
<polygon fill="none" stroke="#000000" points="1765,-136 1765,-166 2079,-166 2079,-136 1765,-136"/>
<text text-anchor="start" x="1772" y="-147.4" font-family="Arial" font-size="14.00" fill="#000000">sub_event_id </text>
<text text-anchor="start" x="1859.1486" y="-147.4" font-family="Arial" font-size="14.00" fill="#666666">[text]</text>
<text text-anchor="start" x="1889.4936" y="-147.4" font-family="Arial" font-size="14.00" fill="#000000"> サブイベントID</text>
<polygon fill="none" stroke="#000000" points="1765,-106 1765,-136 2079,-136 2079,-106 1765,-106"/>
<text text-anchor="start" x="1772" y="-117.4" font-family="Arial" font-size="14.00" fill="#000000">search_enabled </text>
<text text-anchor="start" x="1875.4838" y="-117.4" font-family="Arial" font-size="14.00" fill="#666666">[boolean]</text>
<text text-anchor="start" x="1933.0672" y="-117.4" font-family="Arial" font-size="14.00" fill="#000000"> 検索対象とするか</text>
<polygon fill="none" stroke="#000000" points="1765,-76 1765,-106 2079,-106 2079,-76 1765,-76"/>
<text text-anchor="start" x="1771.8542" y="-87.4" font-family="Arial" font-size="14.00" fill="#000000">created_at </text>
<text text-anchor="start" x="1841.8822" y="-87.4" font-family="Arial" font-size="14.00" fill="#666666">[timestamp with time zone]</text>
<text text-anchor="start" x="2007.5666" y="-87.4" font-family="Arial" font-size="14.00" fill="#000000"> 作成日時</text>
<polygon fill="none" stroke="#000000" points="1765,-46 1765,-76 2079,-76 2079,-46 1765,-46"/>
<text text-anchor="start" x="1772" y="-57.4" font-family="Arial" font-size="14.00" fill="#000000">updated_at </text>
<text text-anchor="start" x="1845.9326" y="-57.4" font-family="Arial" font-size="14.00" fill="#666666">[timestamp with time zone]</text>
<text text-anchor="start" x="2011.617" y="-57.4" font-family="Arial" font-size="14.00" fill="#000000"> 更新日時</text>
<polygon fill="none" stroke="#000000" stroke-width="3" points="1763.5,-44.5 1763.5,-363.5 2080.5,-363.5 2080.5,-44.5 1763.5,-44.5"/>
</g>
<!-- public.album_details -->
<g id="node2" class="node">
<title>public.album_details</title>
<polygon fill="#efefef" stroke="transparent" points="43,-757 43,-803 357,-803 357,-757 43,-757"/>
<polygon fill="none" stroke="#000000" points="43,-757 43,-803 357,-803 357,-757 43,-757"/>
<text text-anchor="start" x="69.8583" y="-780.8" font-family="Arial Bold" font-size="18.00" fill="#000000">public.album_details</text>
<text text-anchor="start" x="232.8879" y="-780.8" font-family="Arial" font-size="14.00" fill="#000000"> </text>
<text text-anchor="start" x="236.7785" y="-780.8" font-family="Arial" font-size="14.00" fill="#666666">[BASE TABLE]</text>
<text text-anchor="start" x="155.2336" y="-766.4" font-family="Arial" font-size="14.00" fill="#333333">アルバム詳細</text>
<polygon fill="none" stroke="#000000" points="43,-727 43,-757 357,-757 357,-727 43,-727"/>
<text text-anchor="start" x="50" y="-738.4" font-family="Arial" font-size="14.00" fill="#000000">album_id </text>
<text text-anchor="start" x="110.6774" y="-738.4" font-family="Arial" font-size="14.00" fill="#666666">[text]</text>
<text text-anchor="start" x="141.0224" y="-738.4" font-family="Arial" font-size="14.00" fill="#000000"> アルバムID</text>
<polygon fill="none" stroke="#000000" points="43,-697 43,-727 357,-727 357,-697 43,-697"/>
<text text-anchor="start" x="50" y="-708.4" font-family="Arial" font-size="14.00" fill="#000000">album_number </text>
<text text-anchor="start" x="147.2398" y="-708.4" font-family="Arial" font-size="14.00" fill="#666666">[text]</text>
<polygon fill="none" stroke="#000000" points="43,-667 43,-697 357,-697 357,-667 43,-667"/>
<text text-anchor="start" x="50" y="-678.4" font-family="Arial" font-size="14.00" fill="#000000">event_price </text>
<text text-anchor="start" x="126.244" y="-678.4" font-family="Arial" font-size="14.00" fill="#666666">[numeric]</text>
<text text-anchor="start" x="183.8008" y="-678.4" font-family="Arial" font-size="14.00" fill="#000000"> イベント価格</text>
<polygon fill="none" stroke="#000000" points="43,-637 43,-667 357,-667 357,-637 43,-637"/>
<text text-anchor="start" x="50" y="-648.4" font-family="Arial" font-size="14.00" fill="#000000">currency </text>
<text text-anchor="start" x="107.5596" y="-648.4" font-family="Arial" font-size="14.00" fill="#666666">[text]</text>
<text text-anchor="start" x="137.9046" y="-648.4" font-family="Arial" font-size="14.00" fill="#000000"> 通貨(default: JPY)</text>
<polygon fill="none" stroke="#000000" points="43,-607 43,-637 357,-637 357,-607 43,-607"/>
<text text-anchor="start" x="50" y="-618.4" font-family="Arial" font-size="14.00" fill="#000000">credit </text>
<text text-anchor="start" x="88.1136" y="-618.4" font-family="Arial" font-size="14.00" fill="#666666">[text]</text>
<text text-anchor="start" x="118.4586" y="-618.4" font-family="Arial" font-size="14.00" fill="#000000"> クレジット</text>
<polygon fill="none" stroke="#000000" points="43,-577 43,-607 357,-607 357,-577 43,-577"/>
<text text-anchor="start" x="50" y="-588.4" font-family="Arial" font-size="14.00" fill="#000000">introduction </text>
<text text-anchor="start" x="126.2412" y="-588.4" font-family="Arial" font-size="14.00" fill="#666666">[text]</text>
<text text-anchor="start" x="156.5862" y="-588.4" font-family="Arial" font-size="14.00" fill="#000000"> 紹介</text>
<polygon fill="none" stroke="#000000" points="43,-547 43,-577 357,-577 357,-547 43,-547"/>
<text text-anchor="start" x="50" y="-558.4" font-family="Arial" font-size="14.00" fill="#000000">url </text>
<text text-anchor="start" x="69.4404" y="-558.4" font-family="Arial" font-size="14.00" fill="#666666">[text]</text>
<text text-anchor="start" x="99.7854" y="-558.4" font-family="Arial" font-size="14.00" fill="#000000"> URL</text>
<polygon fill="none" stroke="#000000" points="43,-517 43,-547 357,-547 357,-517 43,-517"/>
<text text-anchor="start" x="49.8542" y="-528.4" font-family="Arial" font-size="14.00" fill="#000000">created_at </text>
<text text-anchor="start" x="119.8822" y="-528.4" font-family="Arial" font-size="14.00" fill="#666666">[timestamp with time zone]</text>
<text text-anchor="start" x="285.5666" y="-528.4" font-family="Arial" font-size="14.00" fill="#000000"> 作成日時</text>
<polygon fill="none" stroke="#000000" points="43,-487 43,-517 357,-517 357,-487 43,-487"/>
<text text-anchor="start" x="50" y="-498.4" font-family="Arial" font-size="14.00" fill="#000000">updated_at </text>
<text text-anchor="start" x="123.9326" y="-498.4" font-family="Arial" font-size="14.00" fill="#666666">[timestamp with time zone]</text>
<text text-anchor="start" x="289.617" y="-498.4" font-family="Arial" font-size="14.00" fill="#000000"> 更新日時</text>
</g>
<!-- public.album_details&#45;&gt;public.albums -->
<g id="edge1" class="edge">
<title>public.album_details:album_id&#45;&gt;public.albums:id</title>
<path fill="none" stroke="#000000" d="M367.3341,-741.544C481.7736,-730.8088 313.4561,-533.2861 409,-444 519.6918,-340.5581 1613.4979,-301 1765,-301"/>
<polygon fill="#000000" stroke="#000000" points="366.9903,-741.5591 356.8016,-737.5044 361.9951,-741.7796 357,-742 357,-742 357,-742 361.9951,-741.7796 357.1984,-746.4956 366.9903,-741.5591 366.9903,-741.5591"/>
<text text-anchor="start" x="363.5565" y="-752" font-family="Arial" font-size="10.00" fill="#000000">FOREIGN KEY (album_id) REFERENCES albums(id)</text>
</g>
<!-- public.albums_circles -->
<g id="node3" class="node">
<title>public.albums_circles</title>
<polygon fill="#efefef" stroke="transparent" points="461,-682 461,-728 775,-728 775,-682 461,-682"/>
<polygon fill="none" stroke="#000000" points="461,-682 461,-728 775,-728 775,-682 461,-682"/>
<text text-anchor="start" x="483.8695" y="-705.8" font-family="Arial Bold" font-size="18.00" fill="#000000">public.albums_circles</text>
<text text-anchor="start" x="654.8767" y="-705.8" font-family="Arial" font-size="14.00" fill="#000000"> </text>
<text text-anchor="start" x="658.7673" y="-705.8" font-family="Arial" font-size="14.00" fill="#666666">[BASE TABLE]</text>
<text text-anchor="start" x="489.1678" y="-691.4" font-family="Arial" font-size="14.00" fill="#333333">アルバムとサークルの中間テーブル</text>
<polygon fill="none" stroke="#000000" points="461,-652 461,-682 775,-682 775,-652 461,-652"/>
<text text-anchor="start" x="468" y="-663.4" font-family="Arial" font-size="14.00" fill="#000000">album_id </text>
<text text-anchor="start" x="528.6774" y="-663.4" font-family="Arial" font-size="14.00" fill="#666666">[text]</text>
<text text-anchor="start" x="559.0224" y="-663.4" font-family="Arial" font-size="14.00" fill="#000000"> アルバムID</text>
<polygon fill="none" stroke="#000000" points="461,-622 461,-652 775,-652 775,-622 461,-622"/>
<text text-anchor="start" x="468" y="-633.4" font-family="Arial" font-size="14.00" fill="#000000">circle_id </text>
<text text-anchor="start" x="523.2188" y="-633.4" font-family="Arial" font-size="14.00" fill="#666666">[text]</text>
<text text-anchor="start" x="553.5638" y="-633.4" font-family="Arial" font-size="14.00" fill="#000000"> サークルID</text>
<polygon fill="none" stroke="#000000" points="461,-592 461,-622 775,-622 775,-592 461,-592"/>
<text text-anchor="start" x="467.8542" y="-603.4" font-family="Arial" font-size="14.00" fill="#000000">created_at </text>
<text text-anchor="start" x="537.8822" y="-603.4" font-family="Arial" font-size="14.00" fill="#666666">[timestamp with time zone]</text>
<text text-anchor="start" x="703.5666" y="-603.4" font-family="Arial" font-size="14.00" fill="#000000"> 作成日時</text>
<polygon fill="none" stroke="#000000" points="461,-562 461,-592 775,-592 775,-562 461,-562"/>
<text text-anchor="start" x="468" y="-573.4" font-family="Arial" font-size="14.00" fill="#000000">updated_at </text>
<text text-anchor="start" x="541.9326" y="-573.4" font-family="Arial" font-size="14.00" fill="#666666">[timestamp with time zone]</text>
<text text-anchor="start" x="707.617" y="-573.4" font-family="Arial" font-size="14.00" fill="#000000"> 更新日時</text>
</g>
<!-- public.albums_circles&#45;&gt;public.albums -->
<g id="edge2" class="edge">
<title>public.albums_circles:album_id&#45;&gt;public.albums:id</title>
<path fill="none" stroke="#000000" d="M785.1656,-666.4085C868.0347,-655.9897 754.9928,-510.612 827,-444 904.3906,-372.408 1659.5736,-301 1765,-301"/>
<polygon fill="#000000" stroke="#000000" points="784.9831,-666.419 774.7386,-662.5076 779.9916,-666.7095 775,-667 775,-667 775,-667 779.9916,-666.7095 775.2614,-671.4924 784.9831,-666.419 784.9831,-666.419"/>
<text text-anchor="start" x="655.5565" y="-651" font-family="Arial" font-size="10.00" fill="#000000">FOREIGN KEY (album_id) REFERENCES albums(id)</text>
</g>
<!-- public.album_consignment_shops -->
<g id="node4" class="node">
<title>public.album_consignment_shops</title>
<polygon fill="#efefef" stroke="transparent" points="879,-757 879,-803 1375,-803 1375,-757 879,-757"/>
<polygon fill="none" stroke="#000000" points="879,-757 879,-803 1375,-803 1375,-757 879,-757"/>
<text text-anchor="start" x="942.8376" y="-780.8" font-family="Arial Bold" font-size="18.00" fill="#000000">public.album_consignment_shops</text>
<text text-anchor="start" x="1213.9086" y="-780.8" font-family="Arial" font-size="14.00" fill="#000000"> </text>
<text text-anchor="start" x="1217.7992" y="-780.8" font-family="Arial" font-size="14.00" fill="#666666">[BASE TABLE]</text>
<text text-anchor="start" x="1032.4622" y="-766.4" font-family="Arial" font-size="14.00" fill="#333333">アルバム委託販売ショップ</text>
<polygon fill="none" stroke="#000000" points="879,-727 879,-757 1375,-757 1375,-727 879,-727"/>
<text text-anchor="start" x="886" y="-738.4" font-family="Arial" font-size="14.00" fill="#000000">id </text>
<text text-anchor="start" x="900.7798" y="-738.4" font-family="Arial" font-size="14.00" fill="#666666">[text]</text>
<polygon fill="none" stroke="#000000" points="879,-697 879,-727 1375,-727 1375,-697 879,-697"/>
<text text-anchor="start" x="886" y="-708.4" font-family="Arial" font-size="14.00" fill="#000000">album_id </text>
<text text-anchor="start" x="946.6774" y="-708.4" font-family="Arial" font-size="14.00" fill="#666666">[text]</text>
<text text-anchor="start" x="977.0224" y="-708.4" font-family="Arial" font-size="14.00" fill="#000000"> アルバムID</text>
<polygon fill="none" stroke="#000000" points="879,-667 879,-697 1375,-697 1375,-667 879,-667"/>
<text text-anchor="start" x="886" y="-678.4" font-family="Arial" font-size="14.00" fill="#000000">shop </text>
<text text-anchor="start" x="920.2384" y="-678.4" font-family="Arial" font-size="14.00" fill="#666666">[shop]</text>
<text text-anchor="start" x="958.3674" y="-678.4" font-family="Arial" font-size="14.00" fill="#000000"> ショップ</text>
<polygon fill="none" stroke="#000000" points="879,-637 879,-667 1375,-667 1375,-637 879,-637"/>
<text text-anchor="start" x="886" y="-648.4" font-family="Arial" font-size="14.00" fill="#000000">url </text>
<text text-anchor="start" x="905.4404" y="-648.4" font-family="Arial" font-size="14.00" fill="#666666">[text]</text>
<text text-anchor="start" x="935.7854" y="-648.4" font-family="Arial" font-size="14.00" fill="#000000"> URL</text>
<polygon fill="none" stroke="#000000" points="879,-607 879,-637 1375,-637 1375,-607 879,-607"/>
<text text-anchor="start" x="885.5777" y="-618.4" font-family="Arial" font-size="14.00" fill="#000000">tax_included </text>
<text text-anchor="start" x="968.0503" y="-618.4" font-family="Arial" font-size="14.00" fill="#666666">[boolean]</text>
<text text-anchor="start" x="1025.6337" y="-618.4" font-family="Arial" font-size="14.00" fill="#000000"> 税込みか否か(true: 税込み、false: 税抜き・税別)</text>
<polygon fill="none" stroke="#000000" points="879,-577 879,-607 1375,-607 1375,-577 879,-577"/>
<text text-anchor="start" x="886" y="-588.4" font-family="Arial" font-size="14.00" fill="#000000">shop_price </text>
<text text-anchor="start" x="958.3534" y="-588.4" font-family="Arial" font-size="14.00" fill="#666666">[numeric]</text>
<text text-anchor="start" x="1015.9102" y="-588.4" font-family="Arial" font-size="14.00" fill="#000000"> ショップ価格</text>
<polygon fill="none" stroke="#000000" points="879,-547 879,-577 1375,-577 1375,-547 879,-547"/>
<text text-anchor="start" x="886" y="-558.4" font-family="Arial" font-size="14.00" fill="#000000">currency </text>
<text text-anchor="start" x="943.5596" y="-558.4" font-family="Arial" font-size="14.00" fill="#666666">[text]</text>
<text text-anchor="start" x="973.9046" y="-558.4" font-family="Arial" font-size="14.00" fill="#000000"> 通貨(default: JPY)</text>
<polygon fill="none" stroke="#000000" points="879,-517 879,-547 1375,-547 1375,-517 879,-517"/>
<text text-anchor="start" x="886" y="-528.4" font-family="Arial" font-size="14.00" fill="#000000">created_at </text>
<text text-anchor="start" x="956.028" y="-528.4" font-family="Arial" font-size="14.00" fill="#666666">[timestamp with time zone]</text>
<text text-anchor="start" x="1121.7124" y="-528.4" font-family="Arial" font-size="14.00" fill="#000000"> 作成日時</text>
<polygon fill="none" stroke="#000000" points="879,-487 879,-517 1375,-517 1375,-487 879,-487"/>
<text text-anchor="start" x="886" y="-498.4" font-family="Arial" font-size="14.00" fill="#000000">updated_at </text>
<text text-anchor="start" x="959.9326" y="-498.4" font-family="Arial" font-size="14.00" fill="#666666">[timestamp with time zone]</text>
<text text-anchor="start" x="1125.617" y="-498.4" font-family="Arial" font-size="14.00" fill="#000000"> 更新日時</text>
</g>
<!-- public.album_consignment_shops&#45;&gt;public.albums -->
<g id="edge3" class="edge">
<title>public.album_consignment_shops:album_id&#45;&gt;public.albums:id</title>
<path fill="none" stroke="#000000" d="M1385.2988,-711.5293C1487.7126,-701.5535 1352.9158,-535.4071 1427,-444 1529.7044,-317.2805 1601.8865,-301 1765,-301"/>
<polygon fill="#000000" stroke="#000000" points="1384.9896,-711.5434 1374.7945,-707.5047 1379.9948,-711.7717 1375,-712 1375,-712 1375,-712 1379.9948,-711.7717 1375.2055,-716.4953 1384.9896,-711.5434 1384.9896,-711.5434"/>
<text text-anchor="start" x="1255.5565" y="-696" font-family="Arial" font-size="10.00" fill="#000000">FOREIGN KEY (album_id) REFERENCES albums(id)</text>
</g>
<!-- public.album_distribution_service_urls -->
<g id="node5" class="node">
<title>public.album_distribution_service_urls</title>
<polygon fill="#efefef" stroke="transparent" points="1480,-712 1480,-758 1895,-758 1895,-712 1480,-712"/>
<polygon fill="none" stroke="#000000" points="1480,-712 1480,-758 1895,-758 1895,-712 1480,-712"/>
<text text-anchor="start" x="1486.8559" y="-735.8" font-family="Arial Bold" font-size="18.00" fill="#000000">public.album_distribution_service_urls</text>
<text text-anchor="start" x="1790.8903" y="-735.8" font-family="Arial" font-size="14.00" fill="#000000"> </text>
<text text-anchor="start" x="1794.7809" y="-735.8" font-family="Arial" font-size="14.00" fill="#666666">[BASE TABLE]</text>
<text text-anchor="start" x="1594.4434" y="-721.4" font-family="Arial" font-size="14.00" fill="#333333">アルバム配信サービスURL</text>
<polygon fill="none" stroke="#000000" points="1480,-682 1480,-712 1895,-712 1895,-682 1480,-682"/>
<text text-anchor="start" x="1487" y="-693.4" font-family="Arial" font-size="14.00" fill="#000000">id </text>
<text text-anchor="start" x="1501.7798" y="-693.4" font-family="Arial" font-size="14.00" fill="#666666">[text]</text>
<polygon fill="none" stroke="#000000" points="1480,-652 1480,-682 1895,-682 1895,-652 1480,-652"/>
<text text-anchor="start" x="1487" y="-663.4" font-family="Arial" font-size="14.00" fill="#000000">album_id </text>
<text text-anchor="start" x="1547.6774" y="-663.4" font-family="Arial" font-size="14.00" fill="#666666">[text]</text>
<text text-anchor="start" x="1578.0224" y="-663.4" font-family="Arial" font-size="14.00" fill="#000000"> アルバムID</text>
<polygon fill="none" stroke="#000000" points="1480,-622 1480,-652 1895,-652 1895,-622 1480,-622"/>
<text text-anchor="start" x="1487" y="-633.4" font-family="Arial" font-size="14.00" fill="#000000">service </text>
<text text-anchor="start" x="1535.223" y="-633.4" font-family="Arial" font-size="14.00" fill="#666666">[distribution_service]</text>
<text text-anchor="start" x="1662.7938" y="-633.4" font-family="Arial" font-size="14.00" fill="#000000"> 配信サービス</text>
<polygon fill="none" stroke="#000000" points="1480,-592 1480,-622 1895,-622 1895,-592 1480,-592"/>
<text text-anchor="start" x="1487" y="-603.4" font-family="Arial" font-size="14.00" fill="#000000">url </text>
<text text-anchor="start" x="1506.4404" y="-603.4" font-family="Arial" font-size="14.00" fill="#666666">[text]</text>
<text text-anchor="start" x="1536.7854" y="-603.4" font-family="Arial" font-size="14.00" fill="#000000"> URL</text>
<polygon fill="none" stroke="#000000" points="1480,-562 1480,-592 1895,-592 1895,-562 1480,-562"/>
<text text-anchor="start" x="1487" y="-573.4" font-family="Arial" font-size="14.00" fill="#000000">created_at </text>
<text text-anchor="start" x="1557.028" y="-573.4" font-family="Arial" font-size="14.00" fill="#666666">[timestamp with time zone]</text>
<text text-anchor="start" x="1722.7124" y="-573.4" font-family="Arial" font-size="14.00" fill="#000000"> 作成日時</text>
<polygon fill="none" stroke="#000000" points="1480,-532 1480,-562 1895,-562 1895,-532 1480,-532"/>
<text text-anchor="start" x="1487" y="-543.4" font-family="Arial" font-size="14.00" fill="#000000">updated_at </text>
<text text-anchor="start" x="1560.9326" y="-543.4" font-family="Arial" font-size="14.00" fill="#666666">[timestamp with time zone]</text>
<text text-anchor="start" x="1726.617" y="-543.4" font-family="Arial" font-size="14.00" fill="#000000"> 更新日時</text>
</g>
<!-- public.album_distribution_service_urls&#45;&gt;public.albums -->
<g id="edge4" class="edge">
<title>public.album_distribution_service_urls:album_id&#45;&gt;public.albums:id</title>
<path fill="none" stroke="#000000" d="M1905.3477,-666.2979C1970.2994,-656.8841 1931.5985,-554.9252 1895,-489 1861.9579,-429.4811 1798.0421,-467.5189 1765,-408 1741.9178,-366.4219 1717.4444,-301 1765,-301"/>
<polygon fill="#000000" stroke="#000000" points="1904.9771,-666.323 1894.6953,-662.5103 1899.9885,-666.6615 1895,-667 1895,-667 1895,-667 1899.9885,-666.6615 1895.3047,-671.4897 1904.9771,-666.323 1904.9771,-666.323"/>
<text text-anchor="start" x="1901.5565" y="-677" font-family="Arial" font-size="10.00" fill="#000000">FOREIGN KEY (album_id) REFERENCES albums(id)</text>
</g>
<!-- public.album_upcs -->
<g id="node6" class="node">
<title>public.album_upcs</title>
<polygon fill="#efefef" stroke="transparent" points="1999,-697 1999,-743 2313,-743 2313,-697 1999,-697"/>
<polygon fill="none" stroke="#000000" points="1999,-697 1999,-743 2313,-743 2313,-697 1999,-697"/>
<text text-anchor="start" x="2032.8567" y="-720.8" font-family="Arial Bold" font-size="18.00" fill="#000000">public.album_upcs</text>
<text text-anchor="start" x="2181.8895" y="-720.8" font-family="Arial" font-size="14.00" fill="#000000"> </text>
<text text-anchor="start" x="2185.7801" y="-720.8" font-family="Arial" font-size="14.00" fill="#666666">[BASE TABLE]</text>
<text text-anchor="start" x="2111.4135" y="-706.4" font-family="Arial" font-size="14.00" fill="#333333">アルバムUPC</text>
<polygon fill="none" stroke="#000000" points="1999,-667 1999,-697 2313,-697 2313,-667 1999,-667"/>
<text text-anchor="start" x="2006" y="-678.4" font-family="Arial" font-size="14.00" fill="#000000">id </text>
<text text-anchor="start" x="2020.7798" y="-678.4" font-family="Arial" font-size="14.00" fill="#666666">[text]</text>
<polygon fill="none" stroke="#000000" points="1999,-637 1999,-667 2313,-667 2313,-637 1999,-637"/>
<text text-anchor="start" x="2006" y="-648.4" font-family="Arial" font-size="14.00" fill="#000000">album_id </text>
<text text-anchor="start" x="2066.6774" y="-648.4" font-family="Arial" font-size="14.00" fill="#666666">[text]</text>
<text text-anchor="start" x="2097.0224" y="-648.4" font-family="Arial" font-size="14.00" fill="#000000"> アルバムID</text>
<polygon fill="none" stroke="#000000" points="1999,-607 1999,-637 2313,-637 2313,-607 1999,-607"/>
<text text-anchor="start" x="2006" y="-618.4" font-family="Arial" font-size="14.00" fill="#000000">upc </text>
<text text-anchor="start" x="2032.4558" y="-618.4" font-family="Arial" font-size="14.00" fill="#666666">[text]</text>
<text text-anchor="start" x="2062.8008" y="-618.4" font-family="Arial" font-size="14.00" fill="#000000"> UPC(JAN)コード</text>
<polygon fill="none" stroke="#000000" points="1999,-577 1999,-607 2313,-607 2313,-577 1999,-577"/>
<text text-anchor="start" x="2005.8542" y="-588.4" font-family="Arial" font-size="14.00" fill="#000000">created_at </text>
<text text-anchor="start" x="2075.8822" y="-588.4" font-family="Arial" font-size="14.00" fill="#666666">[timestamp with time zone]</text>
<text text-anchor="start" x="2241.5666" y="-588.4" font-family="Arial" font-size="14.00" fill="#000000"> 作成日時</text>
<polygon fill="none" stroke="#000000" points="1999,-547 1999,-577 2313,-577 2313,-547 1999,-547"/>
<text text-anchor="start" x="2006" y="-558.4" font-family="Arial" font-size="14.00" fill="#000000">updated_at </text>
<text text-anchor="start" x="2079.9326" y="-558.4" font-family="Arial" font-size="14.00" fill="#666666">[timestamp with time zone]</text>
<text text-anchor="start" x="2245.617" y="-558.4" font-family="Arial" font-size="14.00" fill="#000000"> 更新日時</text>
</g>
<!-- public.album_upcs&#45;&gt;public.albums -->
<g id="edge5" class="edge">
<title>public.album_upcs:album_id&#45;&gt;public.albums:id</title>
<path fill="none" stroke="#000000" d="M1988.8499,-651.1909C1938.0696,-642.3187 1977.8759,-562.3458 1999,-504 2017.9071,-451.7777 2060.0929,-460.2223 2079,-408 2095.1891,-363.2849 2126.5556,-301 2079,-301"/>
<polygon fill="#000000" stroke="#000000" points="1989.0316,-651.2053 1998.6424,-656.4858 1994.0158,-651.6027 1999,-652 1999,-652 1999,-652 1994.0158,-651.6027 1999.3576,-647.5142 1989.0316,-651.2053 1989.0316,-651.2053"/>
<text text-anchor="start" x="2005.5565" y="-636" font-family="Arial" font-size="10.00" fill="#000000">FOREIGN KEY (album_id) REFERENCES albums(id)</text>
</g>
<!-- public.tracks -->
<g id="node7" class="node">
<title>public.tracks</title>
<polygon fill="#efefef" stroke="transparent" points="2417,-757 2417,-803 2893,-803 2893,-757 2417,-757"/>
<polygon fill="none" stroke="#000000" points="2417,-757 2417,-803 2893,-803 2893,-757 2417,-757"/>
<text text-anchor="start" x="2556.3682" y="-780.8" font-family="Arial Bold" font-size="18.00" fill="#000000">public.tracks</text>
<text text-anchor="start" x="2656.378" y="-780.8" font-family="Arial" font-size="14.00" fill="#000000"> </text>
<text text-anchor="start" x="2660.2686" y="-780.8" font-family="Arial" font-size="14.00" fill="#666666">[BASE TABLE]</text>
<text text-anchor="start" x="2628.1347" y="-766.4" font-family="Arial" font-size="14.00" fill="#333333">トラック</text>
<polygon fill="none" stroke="#000000" points="2417,-727 2417,-757 2893,-757 2893,-727 2417,-727"/>
<text text-anchor="start" x="2424" y="-738.4" font-family="Arial" font-size="14.00" fill="#000000">id </text>
<text text-anchor="start" x="2438.7798" y="-738.4" font-family="Arial" font-size="14.00" fill="#666666">[text]</text>
<polygon fill="none" stroke="#000000" points="2417,-697 2417,-727 2893,-727 2893,-697 2417,-697"/>
<text text-anchor="start" x="2424" y="-708.4" font-family="Arial" font-size="14.00" fill="#000000">album_id </text>
<text text-anchor="start" x="2484.6774" y="-708.4" font-family="Arial" font-size="14.00" fill="#666666">[text]</text>
<text text-anchor="start" x="2515.0224" y="-708.4" font-family="Arial" font-size="14.00" fill="#000000"> アルバムID</text>
<polygon fill="none" stroke="#000000" points="2417,-667 2417,-697 2893,-697 2893,-667 2417,-667"/>
<text text-anchor="start" x="2424" y="-678.4" font-family="Arial" font-size="14.00" fill="#000000">name </text>
<text text-anchor="start" x="2462.899" y="-678.4" font-family="Arial" font-size="14.00" fill="#666666">[text]</text>
<text text-anchor="start" x="2493.244" y="-678.4" font-family="Arial" font-size="14.00" fill="#000000"> 名前</text>
<polygon fill="none" stroke="#000000" points="2417,-637 2417,-667 2893,-667 2893,-637 2417,-637"/>
<text text-anchor="start" x="2424" y="-648.4" font-family="Arial" font-size="14.00" fill="#000000">disc_number </text>
<text text-anchor="start" x="2508.014" y="-648.4" font-family="Arial" font-size="14.00" fill="#666666">[integer]</text>
<text text-anchor="start" x="2558.5834" y="-648.4" font-family="Arial" font-size="14.00" fill="#000000"> ディスク番号(default: 1)</text>
<polygon fill="none" stroke="#000000" points="2417,-607 2417,-637 2893,-637 2893,-607 2417,-607"/>
<text text-anchor="start" x="2424" y="-618.4" font-family="Arial" font-size="14.00" fill="#000000">track_number </text>
<text text-anchor="start" x="2513.4586" y="-618.4" font-family="Arial" font-size="14.00" fill="#666666">[integer]</text>
<text text-anchor="start" x="2564.028" y="-618.4" font-family="Arial" font-size="14.00" fill="#000000"> トラック番号</text>
<polygon fill="none" stroke="#000000" points="2417,-577 2417,-607 2893,-607 2893,-577 2417,-577"/>
<text text-anchor="start" x="2423.8425" y="-588.4" font-family="Arial" font-size="14.00" fill="#000000">release_date </text>
<text text-anchor="start" x="2508.6517" y="-588.4" font-family="Arial" font-size="14.00" fill="#666666">[date]</text>
<text text-anchor="start" x="2543.6713" y="-588.4" font-family="Arial" font-size="14.00" fill="#000000"> 頒布日(アルバムの頒布日と異なる場合に使用する)</text>
<polygon fill="none" stroke="#000000" points="2417,-547 2417,-577 2893,-577 2893,-547 2417,-547"/>
<text text-anchor="start" x="2424" y="-558.4" font-family="Arial" font-size="14.00" fill="#000000">search_enabled </text>
<text text-anchor="start" x="2527.4838" y="-558.4" font-family="Arial" font-size="14.00" fill="#666666">[boolean]</text>
<text text-anchor="start" x="2585.0672" y="-558.4" font-family="Arial" font-size="14.00" fill="#000000"> 検索対象とするか(default: true)</text>
<polygon fill="none" stroke="#000000" points="2417,-517 2417,-547 2893,-547 2893,-517 2417,-517"/>
<text text-anchor="start" x="2424" y="-528.4" font-family="Arial" font-size="14.00" fill="#000000">created_at </text>
<text text-anchor="start" x="2494.028" y="-528.4" font-family="Arial" font-size="14.00" fill="#666666">[timestamp with time zone]</text>
<text text-anchor="start" x="2659.7124" y="-528.4" font-family="Arial" font-size="14.00" fill="#000000"> 作成日時</text>
<polygon fill="none" stroke="#000000" points="2417,-487 2417,-517 2893,-517 2893,-487 2417,-487"/>
<text text-anchor="start" x="2424" y="-498.4" font-family="Arial" font-size="14.00" fill="#000000">updated_at </text>
<text text-anchor="start" x="2497.9326" y="-498.4" font-family="Arial" font-size="14.00" fill="#666666">[timestamp with time zone]</text>
<text text-anchor="start" x="2663.617" y="-498.4" font-family="Arial" font-size="14.00" fill="#000000"> 更新日時</text>
</g>
<!-- public.tracks&#45;&gt;public.albums -->
<g id="edge6" class="edge">
<title>public.tracks:album_id&#45;&gt;public.albums:id</title>
<path fill="none" stroke="#000000" d="M2407.0038,-711.5649C2303.8435,-702.0232 2436.2212,-537.8039 2365,-444 2279.0623,-330.8132 2221.1145,-301 2079,-301"/>
<polygon fill="#000000" stroke="#000000" points="2407.0095,-711.5651 2416.8043,-716.4957 2412.0047,-711.7825 2417,-712 2417,-712 2417,-712 2412.0047,-711.7825 2417.1957,-707.5043 2407.0095,-711.5651 2407.0095,-711.5651"/>
<text text-anchor="start" x="2171.5565" y="-722" font-family="Arial" font-size="10.00" fill="#000000">FOREIGN KEY (album_id) REFERENCES albums(id)</text>
</g>
<!-- public.albums_genres -->
<g id="node8" class="node">
<title>public.albums_genres</title>
<polygon fill="#efefef" stroke="transparent" points="2997,-697 2997,-743 3465,-743 3465,-697 2997,-697"/>
<polygon fill="none" stroke="#000000" points="2997,-697 2997,-743 3465,-743 3465,-697 2997,-697"/>
<text text-anchor="start" x="3094.8544" y="-720.8" font-family="Arial Bold" font-size="18.00" fill="#000000">public.albums_genres</text>
<text text-anchor="start" x="3269.8918" y="-720.8" font-family="Arial" font-size="14.00" fill="#000000"> </text>
<text text-anchor="start" x="3273.7824" y="-720.8" font-family="Arial" font-size="14.00" fill="#666666">[BASE TABLE]</text>
<text text-anchor="start" x="3169.8228" y="-706.4" font-family="Arial" font-size="14.00" fill="#333333">アルバムジャンル</text>
<polygon fill="none" stroke="#000000" points="2997,-667 2997,-697 3465,-697 3465,-667 2997,-667"/>
<text text-anchor="start" x="3004" y="-678.4" font-family="Arial" font-size="14.00" fill="#000000">album_id </text>
<text text-anchor="start" x="3064.6774" y="-678.4" font-family="Arial" font-size="14.00" fill="#666666">[text]</text>
<text text-anchor="start" x="3095.0224" y="-678.4" font-family="Arial" font-size="14.00" fill="#000000"> アルバムID</text>
<polygon fill="none" stroke="#000000" points="2997,-637 2997,-667 3465,-667 3465,-637 2997,-637"/>
<text text-anchor="start" x="3004" y="-648.4" font-family="Arial" font-size="14.00" fill="#000000">tag_id </text>
<text text-anchor="start" x="3046.0182" y="-648.4" font-family="Arial" font-size="14.00" fill="#666666">[text]</text>
<text text-anchor="start" x="3076.3632" y="-648.4" font-family="Arial" font-size="14.00" fill="#000000"> タグID</text>
<polygon fill="none" stroke="#000000" points="2997,-607 2997,-637 3465,-637 3465,-607 2997,-607"/>
<text text-anchor="start" x="3003.6274" y="-618.4" font-family="Arial" font-size="14.00" fill="#000000">locked </text>
<text text-anchor="start" x="3047.9724" y="-618.4" font-family="Arial" font-size="14.00" fill="#666666">[boolean]</text>
<text text-anchor="start" x="3105.5558" y="-618.4" font-family="Arial" font-size="14.00" fill="#000000"> ロック有無(true: ロック・削除不可、false: アンロック)</text>
<polygon fill="none" stroke="#000000" points="2997,-577 2997,-607 3465,-607 3465,-577 2997,-577"/>
<text text-anchor="start" x="3004" y="-588.4" font-family="Arial" font-size="14.00" fill="#000000">created_at </text>
<text text-anchor="start" x="3074.028" y="-588.4" font-family="Arial" font-size="14.00" fill="#666666">[timestamp with time zone]</text>
<text text-anchor="start" x="3239.7124" y="-588.4" font-family="Arial" font-size="14.00" fill="#000000"> 作成日時</text>
<polygon fill="none" stroke="#000000" points="2997,-547 2997,-577 3465,-577 3465,-547 2997,-547"/>
<text text-anchor="start" x="3004" y="-558.4" font-family="Arial" font-size="14.00" fill="#000000">updated_at </text>
<text text-anchor="start" x="3077.9326" y="-558.4" font-family="Arial" font-size="14.00" fill="#666666">[timestamp with time zone]</text>
<text text-anchor="start" x="3243.617" y="-558.4" font-family="Arial" font-size="14.00" fill="#000000"> 更新日時</text>
</g>
<!-- public.albums_genres&#45;&gt;public.albums -->
<g id="edge7" class="edge">
<title>public.albums_genres:album_id&#45;&gt;public.albums:id</title>
<path fill="none" stroke="#000000" d="M2987.0021,-681.4687C2897.4419,-671.2449 3020.8983,-516.0899 2945,-444 2803.576,-309.6722 2274.0505,-301 2079,-301"/>
<polygon fill="#000000" stroke="#000000" points="2987.0141,-681.4692 2996.7612,-686.4937 2992.007,-681.7346 2997,-682 2997,-682 2997,-682 2992.007,-681.7346 2997.2388,-677.5063 2987.0141,-681.4692 2987.0141,-681.4692"/>
<text text-anchor="start" x="2751.5565" y="-692" font-family="Arial" font-size="10.00" fill="#000000">FOREIGN KEY (album_id) REFERENCES albums(id)</text>
</g>
<!-- public.albums_tags -->
<g id="node9" class="node">
<title>public.albums_tags</title>
<polygon fill="#efefef" stroke="transparent" points="3570,-697 3570,-743 3967,-743 3967,-697 3570,-697"/>
<polygon fill="none" stroke="#000000" points="3570,-697 3570,-743 3967,-743 3967,-697 3570,-697"/>
<text text-anchor="start" x="3642.8556" y="-720.8" font-family="Arial Bold" font-size="18.00" fill="#000000">public.albums_tags</text>
<text text-anchor="start" x="3796.8906" y="-720.8" font-family="Arial" font-size="14.00" fill="#000000"> </text>
<text text-anchor="start" x="3800.7812" y="-720.8" font-family="Arial" font-size="14.00" fill="#666666">[BASE TABLE]</text>
<text text-anchor="start" x="3723.3976" y="-706.4" font-family="Arial" font-size="14.00" fill="#333333">アルバムタグ</text>
<polygon fill="none" stroke="#000000" points="3570,-667 3570,-697 3967,-697 3967,-667 3570,-667"/>
<text text-anchor="start" x="3577" y="-678.4" font-family="Arial" font-size="14.00" fill="#000000">album_id </text>
<text text-anchor="start" x="3637.6774" y="-678.4" font-family="Arial" font-size="14.00" fill="#666666">[text]</text>
<text text-anchor="start" x="3668.0224" y="-678.4" font-family="Arial" font-size="14.00" fill="#000000"> アルバムID</text>
<polygon fill="none" stroke="#000000" points="3570,-637 3570,-667 3967,-667 3967,-637 3570,-637"/>
<text text-anchor="start" x="3577" y="-648.4" font-family="Arial" font-size="14.00" fill="#000000">tag_id </text>
<text text-anchor="start" x="3619.0182" y="-648.4" font-family="Arial" font-size="14.00" fill="#666666">[text]</text>
<text text-anchor="start" x="3649.3632" y="-648.4" font-family="Arial" font-size="14.00" fill="#000000"> タグID</text>
<polygon fill="none" stroke="#000000" points="3570,-607 3570,-637 3967,-637 3967,-607 3570,-607"/>
<text text-anchor="start" x="3576.7826" y="-618.4" font-family="Arial" font-size="14.00" fill="#000000">locked </text>
<text text-anchor="start" x="3621.1276" y="-618.4" font-family="Arial" font-size="14.00" fill="#666666">[boolean]</text>
<text text-anchor="start" x="3678.711" y="-618.4" font-family="Arial" font-size="14.00" fill="#000000"> ロック有無(true: ロック、false: アンロック)</text>
<polygon fill="none" stroke="#000000" points="3570,-577 3570,-607 3967,-607 3967,-577 3570,-577"/>
<text text-anchor="start" x="3577" y="-588.4" font-family="Arial" font-size="14.00" fill="#000000">created_at </text>
<text text-anchor="start" x="3647.028" y="-588.4" font-family="Arial" font-size="14.00" fill="#666666">[timestamp with time zone]</text>
<text text-anchor="start" x="3812.7124" y="-588.4" font-family="Arial" font-size="14.00" fill="#000000"> 作成日時</text>
<polygon fill="none" stroke="#000000" points="3570,-547 3570,-577 3967,-577 3967,-547 3570,-547"/>
<text text-anchor="start" x="3577" y="-558.4" font-family="Arial" font-size="14.00" fill="#000000">updated_at </text>
<text text-anchor="start" x="3650.9326" y="-558.4" font-family="Arial" font-size="14.00" fill="#666666">[timestamp with time zone]</text>
<text text-anchor="start" x="3816.617" y="-558.4" font-family="Arial" font-size="14.00" fill="#000000"> 更新日時</text>
</g>
<!-- public.albums_tags&#45;&gt;public.albums -->
<g id="edge8" class="edge">
<title>public.albums_tags:album_id&#45;&gt;public.albums:id</title>
<path fill="none" stroke="#000000" d="M3559.9982,-681.4602C3470.4528,-671.0735 3595.393,-513.5085 3517,-444 3396.8592,-337.475 2239.5659,-301 2079,-301"/>
<polygon fill="#000000" stroke="#000000" points="3560.0145,-681.4609 3569.7574,-686.4935 3565.0073,-681.7305 3570,-682 3570,-682 3570,-682 3565.0073,-681.7305 3570.2426,-677.5065 3560.0145,-681.4609 3560.0145,-681.4609"/>
<text text-anchor="start" x="3576.5565" y="-692" font-family="Arial" font-size="10.00" fill="#000000">FOREIGN KEY (album_id) REFERENCES albums(id)</text>
</g>
</g>
</svg>
