<?xml version="1.0" encoding="UTF-8" standalone="no"?>
<!DOCTYPE svg PUBLIC "-//W3C//DTD SVG 1.1//EN"
 "http://www.w3.org/Graphics/SVG/1.1/DTD/svg11.dtd">
<!-- Generated by graphviz version 2.40.1 (20161225.0304)
 -->
<!-- Title: public.albums Pages: 1 -->
<svg width="2970pt" height="1094pt"
 viewBox="0.00 0.00 2969.50 1094.00" xmlns="http://www.w3.org/2000/svg" xmlns:xlink="http://www.w3.org/1999/xlink">
<g id="graph0" class="graph" transform="scale(1 1) rotate(0) translate(4 1090)">
<title>public.albums</title>
<polygon fill="#ffffff" stroke="transparent" points="-4,4 -4,-1090 2965.5,-1090 2965.5,4 -4,4"/>
<!-- public.albums -->
<g id="node1" class="node">
<title>public.albums</title>
<polygon fill="#efefef" stroke="transparent" points="1438,-556 1438,-602 1752,-602 1752,-556 1438,-556"/>
<polygon fill="none" stroke="#000000" points="1438,-556 1438,-602 1752,-602 1752,-556 1438,-556"/>
<text text-anchor="start" x="1476.2089" y="-579.8" font-family="Arial Bold" font-size="18.00" fill="#000000">public.albums</text>
<text text-anchor="start" x="1586.2231" y="-579.8" font-family="Arial" font-size="14.00" fill="#000000">    </text>
<text text-anchor="start" x="1620.4279" y="-579.8" font-family="Arial" font-size="14.00" fill="#666666">[BASE TABLE]</text>
<text text-anchor="start" x="1565.1884" y="-565.4" font-family="Arial" font-size="14.00" fill="#333333">アルバム</text>
<polygon fill="none" stroke="#000000" points="1438,-526 1438,-556 1752,-556 1752,-526 1438,-526"/>
<text text-anchor="start" x="1445" y="-537.4" font-family="Arial" font-size="14.00" fill="#000000">id </text>
<text text-anchor="start" x="1459.7798" y="-537.4" font-family="Arial" font-size="14.00" fill="#666666">[text]</text>
<polygon fill="none" stroke="#000000" points="1438,-496 1438,-526 1752,-526 1752,-496 1438,-496"/>
<text text-anchor="start" x="1445" y="-507.4" font-family="Arial" font-size="14.00" fill="#000000">name </text>
<text text-anchor="start" x="1483.899" y="-507.4" font-family="Arial" font-size="14.00" fill="#666666">[text]</text>
<text text-anchor="start" x="1514.244" y="-507.4" font-family="Arial" font-size="14.00" fill="#000000"> 名前</text>
<polygon fill="none" stroke="#000000" points="1438,-466 1438,-496 1752,-496 1752,-466 1438,-466"/>
<text text-anchor="start" x="1445" y="-477.4" font-family="Arial" font-size="14.00" fill="#000000">name_reading </text>
<text text-anchor="start" x="1538.3618" y="-477.4" font-family="Arial" font-size="14.00" fill="#666666">[text]</text>
<text text-anchor="start" x="1568.7068" y="-477.4" font-family="Arial" font-size="14.00" fill="#000000"> 名前読み方</text>
<polygon fill="none" stroke="#000000" points="1438,-436 1438,-466 1752,-466 1752,-436 1438,-436"/>
<text text-anchor="start" x="1445" y="-447.4" font-family="Arial" font-size="14.00" fill="#000000">slug </text>
<text text-anchor="start" x="1474.5624" y="-447.4" font-family="Arial" font-size="14.00" fill="#666666">[text]</text>
<text text-anchor="start" x="1504.9074" y="-447.4" font-family="Arial" font-size="14.00" fill="#000000"> スラッグ</text>
<polygon fill="none" stroke="#000000" points="1438,-406 1438,-436 1752,-436 1752,-406 1438,-406"/>
<text text-anchor="start" x="1445" y="-417.4" font-family="Arial" font-size="14.00" fill="#000000">release_circle_name </text>
<text text-anchor="start" x="1578.0182" y="-417.4" font-family="Arial" font-size="14.00" fill="#666666">[text]</text>
<text text-anchor="start" x="1608.3632" y="-417.4" font-family="Arial" font-size="14.00" fill="#000000"> 頒布サークル名</text>
<polygon fill="none" stroke="#000000" points="1438,-376 1438,-406 1752,-406 1752,-376 1438,-376"/>
<text text-anchor="start" x="1445" y="-387.4" font-family="Arial" font-size="14.00" fill="#000000">release_date </text>
<text text-anchor="start" x="1529.8092" y="-387.4" font-family="Arial" font-size="14.00" fill="#666666">[date]</text>
<text text-anchor="start" x="1564.8288" y="-387.4" font-family="Arial" font-size="14.00" fill="#000000"> 頒布日</text>
<polygon fill="none" stroke="#000000" points="1438,-346 1438,-376 1752,-376 1752,-346 1438,-346"/>
<text text-anchor="start" x="1445" y="-357.4" font-family="Arial" font-size="14.00" fill="#000000">event_id </text>
<text text-anchor="start" x="1501.8008" y="-357.4" font-family="Arial" font-size="14.00" fill="#666666">[text]</text>
<text text-anchor="start" x="1532.1458" y="-357.4" font-family="Arial" font-size="14.00" fill="#000000"> イベントID</text>
<polygon fill="none" stroke="#000000" points="1438,-316 1438,-346 1752,-346 1752,-316 1438,-316"/>
<text text-anchor="start" x="1445" y="-327.4" font-family="Arial" font-size="14.00" fill="#000000">sub_event_id </text>
<text text-anchor="start" x="1532.1486" y="-327.4" font-family="Arial" font-size="14.00" fill="#666666">[text]</text>
<text text-anchor="start" x="1562.4936" y="-327.4" font-family="Arial" font-size="14.00" fill="#000000"> サブイベントID</text>
<polygon fill="none" stroke="#000000" points="1438,-286 1438,-316 1752,-316 1752,-286 1438,-286"/>
<text text-anchor="start" x="1445" y="-297.4" font-family="Arial" font-size="14.00" fill="#000000">search_enabled </text>
<text text-anchor="start" x="1548.4838" y="-297.4" font-family="Arial" font-size="14.00" fill="#666666">[boolean]</text>
<text text-anchor="start" x="1606.0672" y="-297.4" font-family="Arial" font-size="14.00" fill="#000000"> 検索対象とするか</text>
<polygon fill="none" stroke="#000000" points="1438,-256 1438,-286 1752,-286 1752,-256 1438,-256"/>
<text text-anchor="start" x="1445" y="-267.4" font-family="Arial" font-size="14.00" fill="#000000">album_number </text>
<text text-anchor="start" x="1542.2398" y="-267.4" font-family="Arial" font-size="14.00" fill="#666666">[text]</text>
<polygon fill="none" stroke="#000000" points="1438,-226 1438,-256 1752,-256 1752,-226 1438,-226"/>
<text text-anchor="start" x="1445" y="-237.4" font-family="Arial" font-size="14.00" fill="#000000">event_price </text>
<text text-anchor="start" x="1521.244" y="-237.4" font-family="Arial" font-size="14.00" fill="#666666">[numeric]</text>
<text text-anchor="start" x="1578.8008" y="-237.4" font-family="Arial" font-size="14.00" fill="#000000"> イベント価格</text>
<polygon fill="none" stroke="#000000" points="1438,-196 1438,-226 1752,-226 1752,-196 1438,-196"/>
<text text-anchor="start" x="1445" y="-207.4" font-family="Arial" font-size="14.00" fill="#000000">currency </text>
<text text-anchor="start" x="1502.5596" y="-207.4" font-family="Arial" font-size="14.00" fill="#666666">[text]</text>
<text text-anchor="start" x="1532.9046" y="-207.4" font-family="Arial" font-size="14.00" fill="#000000"> 通貨(default: JPY)</text>
<polygon fill="none" stroke="#000000" points="1438,-166 1438,-196 1752,-196 1752,-166 1438,-166"/>
<text text-anchor="start" x="1445" y="-177.4" font-family="Arial" font-size="14.00" fill="#000000">credit </text>
<text text-anchor="start" x="1483.1136" y="-177.4" font-family="Arial" font-size="14.00" fill="#666666">[text]</text>
<text text-anchor="start" x="1513.4586" y="-177.4" font-family="Arial" font-size="14.00" fill="#000000"> クレジット</text>
<polygon fill="none" stroke="#000000" points="1438,-136 1438,-166 1752,-166 1752,-136 1438,-136"/>
<text text-anchor="start" x="1445" y="-147.4" font-family="Arial" font-size="14.00" fill="#000000">introduction </text>
<text text-anchor="start" x="1521.2412" y="-147.4" font-family="Arial" font-size="14.00" fill="#666666">[text]</text>
<text text-anchor="start" x="1551.5862" y="-147.4" font-family="Arial" font-size="14.00" fill="#000000"> 紹介</text>
<polygon fill="none" stroke="#000000" points="1438,-106 1438,-136 1752,-136 1752,-106 1438,-106"/>
<text text-anchor="start" x="1445" y="-117.4" font-family="Arial" font-size="14.00" fill="#000000">url </text>
<text text-anchor="start" x="1464.4404" y="-117.4" font-family="Arial" font-size="14.00" fill="#666666">[text]</text>
<text text-anchor="start" x="1494.7854" y="-117.4" font-family="Arial" font-size="14.00" fill="#000000"> URL</text>
<polygon fill="none" stroke="#000000" points="1438,-76 1438,-106 1752,-106 1752,-76 1438,-76"/>
<text text-anchor="start" x="1444.8542" y="-87.4" font-family="Arial" font-size="14.00" fill="#000000">created_at </text>
<text text-anchor="start" x="1514.8822" y="-87.4" font-family="Arial" font-size="14.00" fill="#666666">[timestamp with time zone]</text>
<text text-anchor="start" x="1680.5666" y="-87.4" font-family="Arial" font-size="14.00" fill="#000000"> 作成日時</text>
<polygon fill="none" stroke="#000000" points="1438,-46 1438,-76 1752,-76 1752,-46 1438,-46"/>
<text text-anchor="start" x="1445" y="-57.4" font-family="Arial" font-size="14.00" fill="#000000">updated_at </text>
<text text-anchor="start" x="1518.9326" y="-57.4" font-family="Arial" font-size="14.00" fill="#666666">[timestamp with time zone]</text>
<text text-anchor="start" x="1684.617" y="-57.4" font-family="Arial" font-size="14.00" fill="#000000"> 更新日時</text>
<polygon fill="none" stroke="#000000" stroke-width="3" points="1436.5,-44.5 1436.5,-603.5 1753.5,-603.5 1753.5,-44.5 1436.5,-44.5"/>
</g>
<!-- public.albums_circles -->
<g id="node2" class="node">
<title>public.albums_circles</title>
<polygon fill="#efefef" stroke="transparent" points="43,-922 43,-968 387,-968 387,-922 43,-922"/>
<polygon fill="none" stroke="#000000" points="43,-922 43,-968 387,-968 387,-922 43,-922"/>
<text text-anchor="start" x="65.7124" y="-945.8" font-family="Arial Bold" font-size="18.00" fill="#000000">public.albums_circles</text>
<text text-anchor="start" x="236.7196" y="-945.8" font-family="Arial" font-size="14.00" fill="#000000">    </text>
<text text-anchor="start" x="270.9244" y="-945.8" font-family="Arial" font-size="14.00" fill="#666666">[BASE TABLE]</text>
<text text-anchor="start" x="86.1678" y="-931.4" font-family="Arial" font-size="14.00" fill="#333333">アルバムとサークルの中間テーブル</text>
<polygon fill="none" stroke="#000000" points="43,-892 43,-922 387,-922 387,-892 43,-892"/>
<text text-anchor="start" x="50" y="-903.4" font-family="Arial" font-size="14.00" fill="#000000">album_id    </text>
<text text-anchor="start" x="140.9916" y="-903.4" font-family="Arial" font-size="14.00" fill="#666666">[text]</text>
<text text-anchor="start" x="171.3366" y="-903.4" font-family="Arial" font-size="14.00" fill="#000000"> アルバムID</text>
<polygon fill="none" stroke="#000000" points="43,-862 43,-892 387,-892 387,-862 43,-862"/>
<text text-anchor="start" x="50" y="-873.4" font-family="Arial" font-size="14.00" fill="#000000">circle_id    </text>
<text text-anchor="start" x="135.533" y="-873.4" font-family="Arial" font-size="14.00" fill="#666666">[text]</text>
<text text-anchor="start" x="165.878" y="-873.4" font-family="Arial" font-size="14.00" fill="#000000"> サークルID</text>
<polygon fill="none" stroke="#000000" points="43,-832 43,-862 387,-862 387,-832 43,-832"/>
<text text-anchor="start" x="49.6971" y="-843.4" font-family="Arial" font-size="14.00" fill="#000000">created_at    </text>
<text text-anchor="start" x="150.0393" y="-843.4" font-family="Arial" font-size="14.00" fill="#666666">[timestamp with time zone]</text>
<text text-anchor="start" x="315.7237" y="-843.4" font-family="Arial" font-size="14.00" fill="#000000"> 作成日時</text>
<polygon fill="none" stroke="#000000" points="43,-802 43,-832 387,-832 387,-802 43,-802"/>
<text text-anchor="start" x="50" y="-813.4" font-family="Arial" font-size="14.00" fill="#000000">updated_at    </text>
<text text-anchor="start" x="154.2468" y="-813.4" font-family="Arial" font-size="14.00" fill="#666666">[timestamp with time zone]</text>
<text text-anchor="start" x="319.9312" y="-813.4" font-family="Arial" font-size="14.00" fill="#000000"> 更新日時</text>
</g>
<!-- public.albums_circles&#45;&gt;public.albums -->
<g id="edge1" class="edge">
<title>public.albums_circles:album_id&#45;&gt;public.albums:id</title>
<path fill="none" stroke="#000000" d="M397.1644,-906.4072C480.0128,-895.9659 366.6901,-750.2833 439,-684 521.6586,-608.2305 1325.8686,-541 1438,-541"/>
<polygon fill="#000000" stroke="#000000" points="396.983,-906.4177 386.738,-902.5076 391.9915,-906.7089 387,-907 387,-907 387,-907 391.9915,-906.7089 387.262,-911.4924 396.983,-906.4177 396.983,-906.4177"/>
<text text-anchor="start" x="267.5565" y="-891" font-family="Arial" font-size="10.00" fill="#000000">FOREIGN KEY (album_id) REFERENCES albums(id)</text>
</g>
<!-- public.album_consignment_shops -->
<g id="node3" class="node">
<title>public.album_consignment_shops</title>
<polygon fill="#efefef" stroke="transparent" points="492,-997 492,-1043 1019,-1043 1019,-997 492,-997"/>
<polygon fill="none" stroke="#000000" points="492,-997 492,-1043 1019,-1043 1019,-997 492,-997"/>
<text text-anchor="start" x="556.1805" y="-1020.8" font-family="Arial Bold" font-size="18.00" fill="#000000">public.album_consignment_shops</text>
<text text-anchor="start" x="827.2515" y="-1020.8" font-family="Arial" font-size="14.00" fill="#000000">    </text>
<text text-anchor="start" x="861.4563" y="-1020.8" font-family="Arial" font-size="14.00" fill="#666666">[BASE TABLE]</text>
<text text-anchor="start" x="660.9622" y="-1006.4" font-family="Arial" font-size="14.00" fill="#333333">アルバム委託販売ショップ</text>
<polygon fill="none" stroke="#000000" points="492,-967 492,-997 1019,-997 1019,-967 492,-967"/>
<text text-anchor="start" x="499" y="-978.4" font-family="Arial" font-size="14.00" fill="#000000">id    </text>
<text text-anchor="start" x="544.094" y="-978.4" font-family="Arial" font-size="14.00" fill="#666666">[text]</text>
<polygon fill="none" stroke="#000000" points="492,-937 492,-967 1019,-967 1019,-937 492,-937"/>
<text text-anchor="start" x="499" y="-948.4" font-family="Arial" font-size="14.00" fill="#000000">album_id    </text>
<text text-anchor="start" x="589.9916" y="-948.4" font-family="Arial" font-size="14.00" fill="#666666">[text]</text>
<text text-anchor="start" x="620.3366" y="-948.4" font-family="Arial" font-size="14.00" fill="#000000"> アルバムID</text>
<polygon fill="none" stroke="#000000" points="492,-907 492,-937 1019,-937 1019,-907 492,-907"/>
<text text-anchor="start" x="499" y="-918.4" font-family="Arial" font-size="14.00" fill="#000000">shop    </text>
<text text-anchor="start" x="563.5526" y="-918.4" font-family="Arial" font-size="14.00" fill="#666666">[shop]</text>
<text text-anchor="start" x="601.6816" y="-918.4" font-family="Arial" font-size="14.00" fill="#000000"> ショップ</text>
<polygon fill="none" stroke="#000000" points="492,-877 492,-907 1019,-907 1019,-877 492,-877"/>
<text text-anchor="start" x="499" y="-888.4" font-family="Arial" font-size="14.00" fill="#000000">url    </text>
<text text-anchor="start" x="548.7546" y="-888.4" font-family="Arial" font-size="14.00" fill="#666666">[text]</text>
<text text-anchor="start" x="579.0996" y="-888.4" font-family="Arial" font-size="14.00" fill="#000000"> URL</text>
<polygon fill="none" stroke="#000000" points="492,-847 492,-877 1019,-877 1019,-847 492,-847"/>
<text text-anchor="start" x="498.9206" y="-858.4" font-family="Arial" font-size="14.00" fill="#000000">tax_included    </text>
<text text-anchor="start" x="611.7074" y="-858.4" font-family="Arial" font-size="14.00" fill="#666666">[boolean]</text>
<text text-anchor="start" x="669.2908" y="-858.4" font-family="Arial" font-size="14.00" fill="#000000"> 税込みか否か(true: 税込み、false: 税抜き・税別)</text>
<polygon fill="none" stroke="#000000" points="492,-817 492,-847 1019,-847 1019,-817 492,-817"/>
<text text-anchor="start" x="499" y="-828.4" font-family="Arial" font-size="14.00" fill="#000000">shop_price    </text>
<text text-anchor="start" x="601.6676" y="-828.4" font-family="Arial" font-size="14.00" fill="#666666">[numeric]</text>
<text text-anchor="start" x="659.2244" y="-828.4" font-family="Arial" font-size="14.00" fill="#000000"> ショップ価格</text>
<polygon fill="none" stroke="#000000" points="492,-787 492,-817 1019,-817 1019,-787 492,-787"/>
<text text-anchor="start" x="499" y="-798.4" font-family="Arial" font-size="14.00" fill="#000000">currency    </text>
<text text-anchor="start" x="586.8738" y="-798.4" font-family="Arial" font-size="14.00" fill="#666666">[text]</text>
<text text-anchor="start" x="617.2188" y="-798.4" font-family="Arial" font-size="14.00" fill="#000000"> 通貨(default: JPY)</text>
<polygon fill="none" stroke="#000000" points="492,-757 492,-787 1019,-787 1019,-757 492,-757"/>
<text text-anchor="start" x="499" y="-768.4" font-family="Arial" font-size="14.00" fill="#000000">created_at    </text>
<text text-anchor="start" x="599.3422" y="-768.4" font-family="Arial" font-size="14.00" fill="#666666">[timestamp with time zone]</text>
<text text-anchor="start" x="765.0266" y="-768.4" font-family="Arial" font-size="14.00" fill="#000000"> 作成日時</text>
<polygon fill="none" stroke="#000000" points="492,-727 492,-757 1019,-757 1019,-727 492,-727"/>
<text text-anchor="start" x="499" y="-738.4" font-family="Arial" font-size="14.00" fill="#000000">updated_at    </text>
<text text-anchor="start" x="603.2468" y="-738.4" font-family="Arial" font-size="14.00" fill="#666666">[timestamp with time zone]</text>
<text text-anchor="start" x="768.9312" y="-738.4" font-family="Arial" font-size="14.00" fill="#000000"> 更新日時</text>
</g>
<!-- public.album_consignment_shops&#45;&gt;public.albums -->
<g id="edge2" class="edge">
<title>public.album_consignment_shops:album_id&#45;&gt;public.albums:id</title>
<path fill="none" stroke="#000000" d="M1029.2858,-951.5265C1131.5057,-941.4909 994.7853,-774.3733 1070,-684 1182.2483,-549.1295 1262.53,-541 1438,-541"/>
<polygon fill="#000000" stroke="#000000" points="1028.9894,-951.54 1018.793,-947.5048 1023.9947,-951.77 1019,-952 1019,-952 1019,-952 1023.9947,-951.77 1019.207,-956.4952 1028.9894,-951.54 1028.9894,-951.54"/>
<text text-anchor="start" x="1025.5565" y="-962" font-family="Arial" font-size="10.00" fill="#000000">FOREIGN KEY (album_id) REFERENCES albums(id)</text>
</g>
<!-- public.album_distribution_service_urls -->
<g id="node4" class="node">
<title>public.album_distribution_service_urls</title>
<polygon fill="#efefef" stroke="transparent" points="1123,-952 1123,-998 1568,-998 1568,-952 1123,-952"/>
<polygon fill="none" stroke="#000000" points="1123,-952 1123,-998 1568,-998 1568,-952 1123,-952"/>
<text text-anchor="start" x="1129.6988" y="-975.8" font-family="Arial Bold" font-size="18.00" fill="#000000">public.album_distribution_service_urls</text>
<text text-anchor="start" x="1433.7332" y="-975.8" font-family="Arial" font-size="14.00" fill="#000000">    </text>
<text text-anchor="start" x="1467.938" y="-975.8" font-family="Arial" font-size="14.00" fill="#666666">[BASE TABLE]</text>
<text text-anchor="start" x="1252.4434" y="-961.4" font-family="Arial" font-size="14.00" fill="#333333">アルバム配信サービスURL</text>
<polygon fill="none" stroke="#000000" points="1123,-922 1123,-952 1568,-952 1568,-922 1123,-922"/>
<text text-anchor="start" x="1130" y="-933.4" font-family="Arial" font-size="14.00" fill="#000000">id    </text>
<text text-anchor="start" x="1175.094" y="-933.4" font-family="Arial" font-size="14.00" fill="#666666">[text]</text>
<polygon fill="none" stroke="#000000" points="1123,-892 1123,-922 1568,-922 1568,-892 1123,-892"/>
<text text-anchor="start" x="1130" y="-903.4" font-family="Arial" font-size="14.00" fill="#000000">album_id    </text>
<text text-anchor="start" x="1220.9916" y="-903.4" font-family="Arial" font-size="14.00" fill="#666666">[text]</text>
<text text-anchor="start" x="1251.3366" y="-903.4" font-family="Arial" font-size="14.00" fill="#000000"> アルバムID</text>
<polygon fill="none" stroke="#000000" points="1123,-862 1123,-892 1568,-892 1568,-862 1123,-862"/>
<text text-anchor="start" x="1130" y="-873.4" font-family="Arial" font-size="14.00" fill="#000000">service    </text>
<text text-anchor="start" x="1208.5372" y="-873.4" font-family="Arial" font-size="14.00" fill="#666666">[distribution_service]</text>
<text text-anchor="start" x="1336.108" y="-873.4" font-family="Arial" font-size="14.00" fill="#000000"> 配信サービス</text>
<polygon fill="none" stroke="#000000" points="1123,-832 1123,-862 1568,-862 1568,-832 1123,-832"/>
<text text-anchor="start" x="1130" y="-843.4" font-family="Arial" font-size="14.00" fill="#000000">url    </text>
<text text-anchor="start" x="1179.7546" y="-843.4" font-family="Arial" font-size="14.00" fill="#666666">[text]</text>
<text text-anchor="start" x="1210.0996" y="-843.4" font-family="Arial" font-size="14.00" fill="#000000"> URL</text>
<polygon fill="none" stroke="#000000" points="1123,-802 1123,-832 1568,-832 1568,-802 1123,-802"/>
<text text-anchor="start" x="1130" y="-813.4" font-family="Arial" font-size="14.00" fill="#000000">created_at    </text>
<text text-anchor="start" x="1230.3422" y="-813.4" font-family="Arial" font-size="14.00" fill="#666666">[timestamp with time zone]</text>
<text text-anchor="start" x="1396.0266" y="-813.4" font-family="Arial" font-size="14.00" fill="#000000"> 作成日時</text>
<polygon fill="none" stroke="#000000" points="1123,-772 1123,-802 1568,-802 1568,-772 1123,-772"/>
<text text-anchor="start" x="1130" y="-783.4" font-family="Arial" font-size="14.00" fill="#000000">updated_at    </text>
<text text-anchor="start" x="1234.2468" y="-783.4" font-family="Arial" font-size="14.00" fill="#666666">[timestamp with time zone]</text>
<text text-anchor="start" x="1399.9312" y="-783.4" font-family="Arial" font-size="14.00" fill="#000000"> 更新日時</text>
</g>
<!-- public.album_distribution_service_urls&#45;&gt;public.albums -->
<g id="edge3" class="edge">
<title>public.album_distribution_service_urls:album_id&#45;&gt;public.albums:id</title>
<path fill="none" stroke="#000000" d="M1578.3477,-906.2979C1643.2994,-896.8841 1604.5985,-794.9252 1568,-729 1534.9579,-669.4811 1471.0421,-707.5189 1438,-648 1414.9178,-606.4219 1390.4444,-541 1438,-541"/>
<polygon fill="#000000" stroke="#000000" points="1577.9771,-906.323 1567.6953,-902.5103 1572.9885,-906.6615 1568,-907 1568,-907 1568,-907 1572.9885,-906.6615 1568.3047,-911.4897 1577.9771,-906.323 1577.9771,-906.323"/>
<text text-anchor="start" x="1574.5565" y="-917" font-family="Arial" font-size="10.00" fill="#000000">FOREIGN KEY (album_id) REFERENCES albums(id)</text>
</g>
<!-- public.album_upcs -->
<g id="node5" class="node">
<title>public.album_upcs</title>
<polygon fill="#efefef" stroke="transparent" points="1672,-937 1672,-983 2016,-983 2016,-937 1672,-937"/>
<polygon fill="none" stroke="#000000" points="1672,-937 1672,-983 2016,-983 2016,-937 1672,-937"/>
<text text-anchor="start" x="1705.6996" y="-960.8" font-family="Arial Bold" font-size="18.00" fill="#000000">public.album_upcs</text>
<text text-anchor="start" x="1854.7324" y="-960.8" font-family="Arial" font-size="14.00" fill="#000000">    </text>
<text text-anchor="start" x="1888.9372" y="-960.8" font-family="Arial" font-size="14.00" fill="#666666">[BASE TABLE]</text>
<text text-anchor="start" x="1799.4135" y="-946.4" font-family="Arial" font-size="14.00" fill="#333333">アルバムUPC</text>
<polygon fill="none" stroke="#000000" points="1672,-907 1672,-937 2016,-937 2016,-907 1672,-907"/>
<text text-anchor="start" x="1679" y="-918.4" font-family="Arial" font-size="14.00" fill="#000000">id    </text>
<text text-anchor="start" x="1724.094" y="-918.4" font-family="Arial" font-size="14.00" fill="#666666">[text]</text>
<polygon fill="none" stroke="#000000" points="1672,-877 1672,-907 2016,-907 2016,-877 1672,-877"/>
<text text-anchor="start" x="1679" y="-888.4" font-family="Arial" font-size="14.00" fill="#000000">album_id    </text>
<text text-anchor="start" x="1769.9916" y="-888.4" font-family="Arial" font-size="14.00" fill="#666666">[text]</text>
<text text-anchor="start" x="1800.3366" y="-888.4" font-family="Arial" font-size="14.00" fill="#000000"> アルバムID</text>
<polygon fill="none" stroke="#000000" points="1672,-847 1672,-877 2016,-877 2016,-847 1672,-847"/>
<text text-anchor="start" x="1679" y="-858.4" font-family="Arial" font-size="14.00" fill="#000000">upc    </text>
<text text-anchor="start" x="1735.77" y="-858.4" font-family="Arial" font-size="14.00" fill="#666666">[text]</text>
<text text-anchor="start" x="1766.115" y="-858.4" font-family="Arial" font-size="14.00" fill="#000000"> UPC(JAN)コード</text>
<polygon fill="none" stroke="#000000" points="1672,-817 1672,-847 2016,-847 2016,-817 1672,-817"/>
<text text-anchor="start" x="1678.6971" y="-828.4" font-family="Arial" font-size="14.00" fill="#000000">created_at    </text>
<text text-anchor="start" x="1779.0393" y="-828.4" font-family="Arial" font-size="14.00" fill="#666666">[timestamp with time zone]</text>
<text text-anchor="start" x="1944.7237" y="-828.4" font-family="Arial" font-size="14.00" fill="#000000"> 作成日時</text>
<polygon fill="none" stroke="#000000" points="1672,-787 1672,-817 2016,-817 2016,-787 1672,-787"/>
<text text-anchor="start" x="1679" y="-798.4" font-family="Arial" font-size="14.00" fill="#000000">updated_at    </text>
<text text-anchor="start" x="1783.2468" y="-798.4" font-family="Arial" font-size="14.00" fill="#666666">[timestamp with time zone]</text>
<text text-anchor="start" x="1948.9312" y="-798.4" font-family="Arial" font-size="14.00" fill="#000000"> 更新日時</text>
</g>
<!-- public.album_upcs&#45;&gt;public.albums -->
<g id="edge4" class="edge">
<title>public.album_upcs:album_id&#45;&gt;public.albums:id</title>
<path fill="none" stroke="#000000" d="M1661.8499,-891.1909C1611.0696,-882.3187 1650.8759,-802.3458 1672,-744 1690.9071,-691.7777 1733.0929,-700.2223 1752,-648 1768.1891,-603.2849 1799.5556,-541 1752,-541"/>
<polygon fill="#000000" stroke="#000000" points="1662.0316,-891.2053 1671.6424,-896.4858 1667.0158,-891.6027 1672,-892 1672,-892 1672,-892 1667.0158,-891.6027 1672.3576,-887.5142 1662.0316,-891.2053 1662.0316,-891.2053"/>
<text text-anchor="start" x="1678.5565" y="-876" font-family="Arial" font-size="10.00" fill="#000000">FOREIGN KEY (album_id) REFERENCES albums(id)</text>
</g>
<!-- public.albums_genres -->
<g id="node6" class="node">
<title>public.albums_genres</title>
<polygon fill="#efefef" stroke="transparent" points="2121,-952 2121,-998 2468,-998 2468,-952 2121,-952"/>
<polygon fill="none" stroke="#000000" points="2121,-952 2121,-998 2468,-998 2468,-952 2121,-952"/>
<text text-anchor="start" x="2143.1973" y="-975.8" font-family="Arial Bold" font-size="18.00" fill="#000000">public.albums_genres</text>
<text text-anchor="start" x="2318.2347" y="-975.8" font-family="Arial" font-size="14.00" fill="#000000">    </text>
<text text-anchor="start" x="2352.4395" y="-975.8" font-family="Arial" font-size="14.00" fill="#666666">[BASE TABLE]</text>
<text text-anchor="start" x="2233.3228" y="-961.4" font-family="Arial" font-size="14.00" fill="#333333">アルバムジャンル</text>
<polygon fill="none" stroke="#000000" points="2121,-922 2121,-952 2468,-952 2468,-922 2121,-922"/>
<text text-anchor="start" x="2128" y="-933.4" font-family="Arial" font-size="14.00" fill="#000000">id    </text>
<text text-anchor="start" x="2173.094" y="-933.4" font-family="Arial" font-size="14.00" fill="#666666">[text]</text>
<text text-anchor="start" x="2203.439" y="-933.4" font-family="Arial" font-size="14.00" fill="#000000"> ID</text>
<polygon fill="none" stroke="#000000" points="2121,-892 2121,-922 2468,-922 2468,-892 2121,-892"/>
<text text-anchor="start" x="2128" y="-903.4" font-family="Arial" font-size="14.00" fill="#000000">album_id    </text>
<text text-anchor="start" x="2218.9916" y="-903.4" font-family="Arial" font-size="14.00" fill="#666666">[text]</text>
<text text-anchor="start" x="2249.3366" y="-903.4" font-family="Arial" font-size="14.00" fill="#000000"> アルバムID</text>
<polygon fill="none" stroke="#000000" points="2121,-862 2121,-892 2468,-892 2468,-862 2121,-862"/>
<text text-anchor="start" x="2128" y="-873.4" font-family="Arial" font-size="14.00" fill="#000000">genre_id    </text>
<text text-anchor="start" x="2216.6676" y="-873.4" font-family="Arial" font-size="14.00" fill="#666666">[text]</text>
<text text-anchor="start" x="2247.0126" y="-873.4" font-family="Arial" font-size="14.00" fill="#000000"> ジャンルID</text>
<polygon fill="none" stroke="#000000" points="2121,-832 2121,-862 2468,-862 2468,-832 2121,-832"/>
<text text-anchor="start" x="2127.6578" y="-843.4" font-family="Arial" font-size="14.00" fill="#000000">locked_at    </text>
<text text-anchor="start" x="2221.7728" y="-843.4" font-family="Arial" font-size="14.00" fill="#666666">[timestamp with time zone]</text>
<text text-anchor="start" x="2387.4572" y="-843.4" font-family="Arial" font-size="14.00" fill="#000000"> ロック日時</text>
<polygon fill="none" stroke="#000000" points="2121,-802 2121,-832 2468,-832 2468,-802 2121,-802"/>
<text text-anchor="start" x="2128" y="-813.4" font-family="Arial" font-size="14.00" fill="#000000">created_at    </text>
<text text-anchor="start" x="2228.3422" y="-813.4" font-family="Arial" font-size="14.00" fill="#666666">[timestamp with time zone]</text>
<text text-anchor="start" x="2394.0266" y="-813.4" font-family="Arial" font-size="14.00" fill="#000000"> 作成日時</text>
<polygon fill="none" stroke="#000000" points="2121,-772 2121,-802 2468,-802 2468,-772 2121,-772"/>
<text text-anchor="start" x="2128" y="-783.4" font-family="Arial" font-size="14.00" fill="#000000">updated_at    </text>
<text text-anchor="start" x="2232.2468" y="-783.4" font-family="Arial" font-size="14.00" fill="#666666">[timestamp with time zone]</text>
<text text-anchor="start" x="2397.9312" y="-783.4" font-family="Arial" font-size="14.00" fill="#000000"> 更新日時</text>
</g>
<!-- public.albums_genres&#45;&gt;public.albums -->
<g id="edge5" class="edge">
<title>public.albums_genres:album_id&#45;&gt;public.albums:id</title>
<path fill="none" stroke="#000000" d="M2110.7829,-906.4443C2027.1106,-896.6504 2130.4711,-759.7551 2068,-684 1969.9231,-565.0678 1906.1556,-541 1752,-541"/>
<polygon fill="#000000" stroke="#000000" points="2111.0148,-906.4568 2120.7556,-911.4934 2116.0074,-906.7284 2121,-907 2121,-907 2121,-907 2116.0074,-906.7284 2121.2444,-902.5066 2111.0148,-906.4568 2111.0148,-906.4568"/>
<text text-anchor="start" x="2127.5565" y="-917" font-family="Arial" font-size="10.00" fill="#000000">FOREIGN KEY (album_id) REFERENCES albums(id)</text>
</g>
<!-- public.albums_tags -->
<g id="node7" class="node">
<title>public.albums_tags</title>
<polygon fill="#efefef" stroke="transparent" points="2572,-952 2572,-998 2919,-998 2919,-952 2572,-952"/>
<polygon fill="none" stroke="#000000" points="2572,-952 2572,-998 2919,-998 2919,-952 2572,-952"/>
<text text-anchor="start" x="2604.6985" y="-975.8" font-family="Arial Bold" font-size="18.00" fill="#000000">public.albums_tags</text>
<text text-anchor="start" x="2758.7335" y="-975.8" font-family="Arial" font-size="14.00" fill="#000000">    </text>
<text text-anchor="start" x="2792.9383" y="-975.8" font-family="Arial" font-size="14.00" fill="#666666">[BASE TABLE]</text>
<text text-anchor="start" x="2700.3976" y="-961.4" font-family="Arial" font-size="14.00" fill="#333333">アルバムタグ</text>
<polygon fill="none" stroke="#000000" points="2572,-922 2572,-952 2919,-952 2919,-922 2572,-922"/>
<text text-anchor="start" x="2579" y="-933.4" font-family="Arial" font-size="14.00" fill="#000000">id    </text>
<text text-anchor="start" x="2624.094" y="-933.4" font-family="Arial" font-size="14.00" fill="#666666">[text]</text>
<text text-anchor="start" x="2654.439" y="-933.4" font-family="Arial" font-size="14.00" fill="#000000"> ID</text>
<polygon fill="none" stroke="#000000" points="2572,-892 2572,-922 2919,-922 2919,-892 2572,-892"/>
<text text-anchor="start" x="2579" y="-903.4" font-family="Arial" font-size="14.00" fill="#000000">album_id    </text>
<text text-anchor="start" x="2669.9916" y="-903.4" font-family="Arial" font-size="14.00" fill="#666666">[text]</text>
<text text-anchor="start" x="2700.3366" y="-903.4" font-family="Arial" font-size="14.00" fill="#000000"> アルバムID</text>
<polygon fill="none" stroke="#000000" points="2572,-862 2572,-892 2919,-892 2919,-862 2572,-862"/>
<text text-anchor="start" x="2579" y="-873.4" font-family="Arial" font-size="14.00" fill="#000000">tag_id    </text>
<text text-anchor="start" x="2651.3324" y="-873.4" font-family="Arial" font-size="14.00" fill="#666666">[text]</text>
<text text-anchor="start" x="2681.6774" y="-873.4" font-family="Arial" font-size="14.00" fill="#000000"> タグID</text>
<polygon fill="none" stroke="#000000" points="2572,-832 2572,-862 2919,-862 2919,-832 2572,-832"/>
<text text-anchor="start" x="2578.6578" y="-843.4" font-family="Arial" font-size="14.00" fill="#000000">locked_at    </text>
<text text-anchor="start" x="2672.7728" y="-843.4" font-family="Arial" font-size="14.00" fill="#666666">[timestamp with time zone]</text>
<text text-anchor="start" x="2838.4572" y="-843.4" font-family="Arial" font-size="14.00" fill="#000000"> ロック日時</text>
<polygon fill="none" stroke="#000000" points="2572,-802 2572,-832 2919,-832 2919,-802 2572,-802"/>
<text text-anchor="start" x="2579" y="-813.4" font-family="Arial" font-size="14.00" fill="#000000">created_at    </text>
<text text-anchor="start" x="2679.3422" y="-813.4" font-family="Arial" font-size="14.00" fill="#666666">[timestamp with time zone]</text>
<text text-anchor="start" x="2845.0266" y="-813.4" font-family="Arial" font-size="14.00" fill="#000000"> 作成日時</text>
<polygon fill="none" stroke="#000000" points="2572,-772 2572,-802 2919,-802 2919,-772 2572,-772"/>
<text text-anchor="start" x="2579" y="-783.4" font-family="Arial" font-size="14.00" fill="#000000">updated_at    </text>
<text text-anchor="start" x="2683.2468" y="-783.4" font-family="Arial" font-size="14.00" fill="#666666">[timestamp with time zone]</text>
<text text-anchor="start" x="2848.9312" y="-783.4" font-family="Arial" font-size="14.00" fill="#000000"> 更新日時</text>
</g>
<!-- public.albums_tags&#45;&gt;public.albums -->
<g id="edge6" class="edge">
<title>public.albums_tags:album_id&#45;&gt;public.albums:id</title>
<path fill="none" stroke="#000000" d="M2561.8301,-906.4131C2478.8857,-896.0744 2590.905,-751.784 2520,-684 2394.5156,-564.0391 1925.5999,-541 1752,-541"/>
<polygon fill="#000000" stroke="#000000" points="2562.0166,-906.4238 2571.7407,-911.4925 2567.0083,-906.7119 2572,-907 2572,-907 2572,-907 2567.0083,-906.7119 2572.2593,-902.5075 2562.0166,-906.4238 2562.0166,-906.4238"/>
<text text-anchor="start" x="2389.5565" y="-891" font-family="Arial" font-size="10.00" fill="#000000">FOREIGN KEY (album_id) REFERENCES albums(id)</text>
</g>
</g>
</svg>
