<?xml version="1.0" encoding="UTF-8" standalone="no"?>
<!DOCTYPE svg PUBLIC "-//W3C//DTD SVG 1.1//EN"
 "http://www.w3.org/Graphics/SVG/1.1/DTD/svg11.dtd">
<!-- Generated by graphviz version 2.40.1 (20161225.0304)
 -->
<!-- Title: public.albums_genres Pages: 1 -->
<svg width="954pt" height="914pt"
 viewBox="0.00 0.00 954.00 914.00" xmlns="http://www.w3.org/2000/svg" xmlns:xlink="http://www.w3.org/1999/xlink">
<g id="graph0" class="graph" transform="scale(1 1) rotate(0) translate(4 910)">
<title>public.albums_genres</title>
<polygon fill="#ffffff" stroke="transparent" points="-4,4 -4,-910 950,-910 950,4 -4,4"/>
<!-- public.albums_genres -->
<g id="node1" class="node">
<title>public.albums_genres</title>
<polygon fill="#efefef" stroke="transparent" points="252,-814 252,-860 720,-860 720,-814 252,-814"/>
<polygon fill="none" stroke="#000000" points="252,-814 252,-860 720,-860 720,-814 252,-814"/>
<text text-anchor="start" x="334.6973" y="-837.8" font-family="Arial Bold" font-size="18.00" fill="#000000">public.albums_genres</text>
<text text-anchor="start" x="509.7347" y="-837.8" font-family="Arial" font-size="14.00" fill="#000000">    </text>
<text text-anchor="start" x="543.9395" y="-837.8" font-family="Arial" font-size="14.00" fill="#666666">[BASE TABLE]</text>
<text text-anchor="start" x="424.8228" y="-823.4" font-family="Arial" font-size="14.00" fill="#333333">アルバムジャンル</text>
<polygon fill="none" stroke="#000000" points="252,-784 252,-814 720,-814 720,-784 252,-784"/>
<text text-anchor="start" x="259" y="-795.4" font-family="Arial" font-size="14.00" fill="#000000">album_id </text>
<text text-anchor="start" x="319.6774" y="-795.4" font-family="Arial" font-size="14.00" fill="#666666">[text]</text>
<text text-anchor="start" x="350.0224" y="-795.4" font-family="Arial" font-size="14.00" fill="#000000"> アルバムID</text>
<polygon fill="none" stroke="#000000" points="252,-754 252,-784 720,-784 720,-754 252,-754"/>
<text text-anchor="start" x="259" y="-765.4" font-family="Arial" font-size="14.00" fill="#000000">tag_id </text>
<text text-anchor="start" x="301.0182" y="-765.4" font-family="Arial" font-size="14.00" fill="#666666">[text]</text>
<text text-anchor="start" x="331.3632" y="-765.4" font-family="Arial" font-size="14.00" fill="#000000"> タグID</text>
<polygon fill="none" stroke="#000000" points="252,-724 252,-754 720,-754 720,-724 252,-724"/>
<text text-anchor="start" x="258.6274" y="-735.4" font-family="Arial" font-size="14.00" fill="#000000">locked </text>
<text text-anchor="start" x="302.9724" y="-735.4" font-family="Arial" font-size="14.00" fill="#666666">[boolean]</text>
<text text-anchor="start" x="360.5558" y="-735.4" font-family="Arial" font-size="14.00" fill="#000000"> ロック有無(true: ロック・削除不可、false: アンロック)</text>
<polygon fill="none" stroke="#000000" points="252,-694 252,-724 720,-724 720,-694 252,-694"/>
<text text-anchor="start" x="259" y="-705.4" font-family="Arial" font-size="14.00" fill="#000000">created_at </text>
<text text-anchor="start" x="329.028" y="-705.4" font-family="Arial" font-size="14.00" fill="#666666">[timestamp with time zone]</text>
<text text-anchor="start" x="494.7124" y="-705.4" font-family="Arial" font-size="14.00" fill="#000000"> 作成日時</text>
<polygon fill="none" stroke="#000000" points="252,-664 252,-694 720,-694 720,-664 252,-664"/>
<text text-anchor="start" x="259" y="-675.4" font-family="Arial" font-size="14.00" fill="#000000">updated_at </text>
<text text-anchor="start" x="332.9326" y="-675.4" font-family="Arial" font-size="14.00" fill="#666666">[timestamp with time zone]</text>
<text text-anchor="start" x="498.617" y="-675.4" font-family="Arial" font-size="14.00" fill="#000000"> 更新日時</text>
<polygon fill="none" stroke="#000000" stroke-width="3" points="250.5,-662.5 250.5,-861.5 721.5,-861.5 721.5,-662.5 250.5,-662.5"/>
</g>
<!-- public.albums -->
<g id="node2" class="node">
<title>public.albums</title>
<polygon fill="#efefef" stroke="transparent" points="90,-493 90,-539 434,-539 434,-493 90,-493"/>
<polygon fill="none" stroke="#000000" points="90,-493 90,-539 434,-539 434,-493 90,-493"/>
<text text-anchor="start" x="143.2089" y="-516.8" font-family="Arial Bold" font-size="18.00" fill="#000000">public.albums</text>
<text text-anchor="start" x="253.2231" y="-516.8" font-family="Arial" font-size="14.00" fill="#000000">    </text>
<text text-anchor="start" x="287.4279" y="-516.8" font-family="Arial" font-size="14.00" fill="#666666">[BASE TABLE]</text>
<text text-anchor="start" x="232.1884" y="-502.4" font-family="Arial" font-size="14.00" fill="#333333">アルバム</text>
<polygon fill="none" stroke="#000000" points="90,-463 90,-493 434,-493 434,-463 90,-463"/>
<text text-anchor="start" x="97" y="-474.4" font-family="Arial" font-size="14.00" fill="#000000">id    </text>
<text text-anchor="start" x="142.094" y="-474.4" font-family="Arial" font-size="14.00" fill="#666666">[text]</text>
<polygon fill="none" stroke="#000000" points="90,-433 90,-463 434,-463 434,-433 90,-433"/>
<text text-anchor="start" x="97" y="-444.4" font-family="Arial" font-size="14.00" fill="#000000">name    </text>
<text text-anchor="start" x="166.2132" y="-444.4" font-family="Arial" font-size="14.00" fill="#666666">[text]</text>
<text text-anchor="start" x="196.5582" y="-444.4" font-family="Arial" font-size="14.00" fill="#000000"> 名前</text>
<polygon fill="none" stroke="#000000" points="90,-403 90,-433 434,-433 434,-403 90,-403"/>
<text text-anchor="start" x="97" y="-414.4" font-family="Arial" font-size="14.00" fill="#000000">release_circle_name    </text>
<text text-anchor="start" x="260.3324" y="-414.4" font-family="Arial" font-size="14.00" fill="#666666">[text]</text>
<text text-anchor="start" x="290.6774" y="-414.4" font-family="Arial" font-size="14.00" fill="#000000"> 頒布サークル名</text>
<polygon fill="none" stroke="#000000" points="90,-373 90,-403 434,-403 434,-373 90,-373"/>
<text text-anchor="start" x="97" y="-384.4" font-family="Arial" font-size="14.00" fill="#000000">release_date    </text>
<text text-anchor="start" x="212.1234" y="-384.4" font-family="Arial" font-size="14.00" fill="#666666">[date]</text>
<text text-anchor="start" x="247.143" y="-384.4" font-family="Arial" font-size="14.00" fill="#000000"> 頒布日</text>
<polygon fill="none" stroke="#000000" points="90,-343 90,-373 434,-373 434,-343 90,-343"/>
<text text-anchor="start" x="97" y="-354.4" font-family="Arial" font-size="14.00" fill="#000000">event_id    </text>
<text text-anchor="start" x="184.115" y="-354.4" font-family="Arial" font-size="14.00" fill="#666666">[text]</text>
<text text-anchor="start" x="214.46" y="-354.4" font-family="Arial" font-size="14.00" fill="#000000"> イベントID</text>
<polygon fill="none" stroke="#000000" points="90,-313 90,-343 434,-343 434,-313 90,-313"/>
<text text-anchor="start" x="97" y="-324.4" font-family="Arial" font-size="14.00" fill="#000000">sub_event_id    </text>
<text text-anchor="start" x="214.4628" y="-324.4" font-family="Arial" font-size="14.00" fill="#666666">[text]</text>
<text text-anchor="start" x="244.8078" y="-324.4" font-family="Arial" font-size="14.00" fill="#000000"> サブイベントID</text>
<polygon fill="none" stroke="#000000" points="90,-283 90,-313 434,-313 434,-283 90,-283"/>
<text text-anchor="start" x="97" y="-294.4" font-family="Arial" font-size="14.00" fill="#000000">search_enabled    </text>
<text text-anchor="start" x="230.798" y="-294.4" font-family="Arial" font-size="14.00" fill="#666666">[boolean]</text>
<text text-anchor="start" x="288.3814" y="-294.4" font-family="Arial" font-size="14.00" fill="#000000"> 検索対象とするか</text>
<polygon fill="none" stroke="#000000" points="90,-253 90,-283 434,-283 434,-253 90,-253"/>
<text text-anchor="start" x="97" y="-264.4" font-family="Arial" font-size="14.00" fill="#000000">album_number    </text>
<text text-anchor="start" x="224.554" y="-264.4" font-family="Arial" font-size="14.00" fill="#666666">[text]</text>
<polygon fill="none" stroke="#000000" points="90,-223 90,-253 434,-253 434,-223 90,-223"/>
<text text-anchor="start" x="97" y="-234.4" font-family="Arial" font-size="14.00" fill="#000000">event_price    </text>
<text text-anchor="start" x="203.5582" y="-234.4" font-family="Arial" font-size="14.00" fill="#666666">[numeric]</text>
<text text-anchor="start" x="261.115" y="-234.4" font-family="Arial" font-size="14.00" fill="#000000"> イベント価格</text>
<polygon fill="none" stroke="#000000" points="90,-193 90,-223 434,-223 434,-193 90,-193"/>
<text text-anchor="start" x="97" y="-204.4" font-family="Arial" font-size="14.00" fill="#000000">currency    </text>
<text text-anchor="start" x="184.8738" y="-204.4" font-family="Arial" font-size="14.00" fill="#666666">[text]</text>
<text text-anchor="start" x="215.2188" y="-204.4" font-family="Arial" font-size="14.00" fill="#000000"> 通貨(default: JPY)</text>
<polygon fill="none" stroke="#000000" points="90,-163 90,-193 434,-193 434,-163 90,-163"/>
<text text-anchor="start" x="97" y="-174.4" font-family="Arial" font-size="14.00" fill="#000000">credit    </text>
<text text-anchor="start" x="165.4278" y="-174.4" font-family="Arial" font-size="14.00" fill="#666666">[text]</text>
<text text-anchor="start" x="195.7728" y="-174.4" font-family="Arial" font-size="14.00" fill="#000000"> クレジット</text>
<polygon fill="none" stroke="#000000" points="90,-133 90,-163 434,-163 434,-133 90,-133"/>
<text text-anchor="start" x="97" y="-144.4" font-family="Arial" font-size="14.00" fill="#000000">introduction    </text>
<text text-anchor="start" x="203.5554" y="-144.4" font-family="Arial" font-size="14.00" fill="#666666">[text]</text>
<text text-anchor="start" x="233.9004" y="-144.4" font-family="Arial" font-size="14.00" fill="#000000"> 紹介</text>
<polygon fill="none" stroke="#000000" points="90,-103 90,-133 434,-133 434,-103 90,-103"/>
<text text-anchor="start" x="97" y="-114.4" font-family="Arial" font-size="14.00" fill="#000000">url    </text>
<text text-anchor="start" x="146.7546" y="-114.4" font-family="Arial" font-size="14.00" fill="#666666">[text]</text>
<text text-anchor="start" x="177.0996" y="-114.4" font-family="Arial" font-size="14.00" fill="#000000"> URL</text>
<polygon fill="none" stroke="#000000" points="90,-73 90,-103 434,-103 434,-73 90,-73"/>
<text text-anchor="start" x="96.6971" y="-84.4" font-family="Arial" font-size="14.00" fill="#000000">created_at    </text>
<text text-anchor="start" x="197.0393" y="-84.4" font-family="Arial" font-size="14.00" fill="#666666">[timestamp with time zone]</text>
<text text-anchor="start" x="362.7237" y="-84.4" font-family="Arial" font-size="14.00" fill="#000000"> 作成日時</text>
<polygon fill="none" stroke="#000000" points="90,-43 90,-73 434,-73 434,-43 90,-43"/>
<text text-anchor="start" x="97" y="-54.4" font-family="Arial" font-size="14.00" fill="#000000">updated_at    </text>
<text text-anchor="start" x="201.2468" y="-54.4" font-family="Arial" font-size="14.00" fill="#666666">[timestamp with time zone]</text>
<text text-anchor="start" x="366.9312" y="-54.4" font-family="Arial" font-size="14.00" fill="#000000"> 更新日時</text>
</g>
<!-- public.albums_genres&#45;&gt;public.albums -->
<g id="edge1" class="edge">
<title>public.albums_genres:album_id&#45;&gt;public.albums:id</title>
<path fill="none" stroke="#000000" d="M241.8157,-798.2964C174.2387,-788.4371 203.2274,-677.3649 252,-618 304.3436,-554.2885 381.6564,-645.7115 434,-582 463.3421,-546.2854 480.2222,-478 434,-478"/>
<polygon fill="#000000" stroke="#000000" points="242.0238,-798.3107 251.6898,-803.4893 247.0119,-798.6554 252,-799 252,-799 252,-799 247.0119,-798.6554 252.3102,-794.5107 242.0238,-798.3107 242.0238,-798.3107"/>
<text text-anchor="start" x="6.5565" y="-809" font-family="Arial" font-size="10.00" fill="#000000">FOREIGN KEY (album_id) REFERENCES albums(id)</text>
</g>
<!-- public.tags -->
<g id="node3" class="node">
<title>public.tags</title>
<polygon fill="#efefef" stroke="transparent" points="538,-343 538,-389 882,-389 882,-343 538,-343"/>
<polygon fill="none" stroke="#000000" points="538,-343 538,-389 882,-389 882,-343 538,-343"/>
<text text-anchor="start" x="603.2041" y="-366.8" font-family="Arial Bold" font-size="18.00" fill="#000000">public.tags</text>
<text text-anchor="start" x="689.2279" y="-366.8" font-family="Arial" font-size="14.00" fill="#000000">    </text>
<text text-anchor="start" x="723.4327" y="-366.8" font-family="Arial" font-size="14.00" fill="#666666">[BASE TABLE]</text>
<text text-anchor="start" x="694.7092" y="-352.4" font-family="Arial" font-size="14.00" fill="#333333">タグ</text>
<polygon fill="none" stroke="#000000" points="538,-313 538,-343 882,-343 882,-313 538,-313"/>
<text text-anchor="start" x="545" y="-324.4" font-family="Arial" font-size="14.00" fill="#000000">id    </text>
<text text-anchor="start" x="590.094" y="-324.4" font-family="Arial" font-size="14.00" fill="#666666">[text]</text>
<polygon fill="none" stroke="#000000" points="538,-283 538,-313 882,-313 882,-283 538,-283"/>
<text text-anchor="start" x="545" y="-294.4" font-family="Arial" font-size="14.00" fill="#000000">name    </text>
<text text-anchor="start" x="614.2132" y="-294.4" font-family="Arial" font-size="14.00" fill="#666666">[text]</text>
<text text-anchor="start" x="644.5582" y="-294.4" font-family="Arial" font-size="14.00" fill="#000000"> 名前</text>
<polygon fill="none" stroke="#000000" points="538,-253 538,-283 882,-283 882,-253 538,-253"/>
<text text-anchor="start" x="545" y="-264.4" font-family="Arial" font-size="14.00" fill="#000000">tag_type    </text>
<text text-anchor="start" x="632.899" y="-264.4" font-family="Arial" font-size="14.00" fill="#666666">[tag_type]</text>
<text text-anchor="start" x="694.3744" y="-264.4" font-family="Arial" font-size="14.00" fill="#000000"> タグ種別</text>
<polygon fill="none" stroke="#000000" points="538,-223 538,-253 882,-253 882,-223 538,-223"/>
<text text-anchor="start" x="544.6971" y="-234.4" font-family="Arial" font-size="14.00" fill="#000000">created_at    </text>
<text text-anchor="start" x="645.0393" y="-234.4" font-family="Arial" font-size="14.00" fill="#666666">[timestamp with time zone]</text>
<text text-anchor="start" x="810.7237" y="-234.4" font-family="Arial" font-size="14.00" fill="#000000"> 作成日時</text>
<polygon fill="none" stroke="#000000" points="538,-193 538,-223 882,-223 882,-193 538,-193"/>
<text text-anchor="start" x="545" y="-204.4" font-family="Arial" font-size="14.00" fill="#000000">updated_at    </text>
<text text-anchor="start" x="649.2468" y="-204.4" font-family="Arial" font-size="14.00" fill="#666666">[timestamp with time zone]</text>
<text text-anchor="start" x="814.9312" y="-204.4" font-family="Arial" font-size="14.00" fill="#000000"> 更新日時</text>
</g>
<!-- public.albums_genres&#45;&gt;public.tags -->
<g id="edge2" class="edge">
<title>public.albums_genres:tag_id&#45;&gt;public.tags:id</title>
<path fill="none" stroke="#000000" d="M730.054,-768.2216C782.5921,-759.361 743.9589,-676.7429 720,-618 676.3209,-510.9069 581.6791,-539.0931 538,-432 520.5439,-389.2007 491.7778,-328 538,-328"/>
<polygon fill="#000000" stroke="#000000" points="729.9702,-768.228 719.6526,-764.5134 724.9851,-768.614 720,-769 720,-769 720,-769 724.9851,-768.614 720.3474,-773.4866 729.9702,-768.228 729.9702,-768.228"/>
<text text-anchor="start" x="726.8845" y="-779" font-family="Arial" font-size="10.00" fill="#000000">FOREIGN KEY (tag_id) REFERENCES tags(id)</text>
</g>
</g>
</svg>
