<?xml version="1.0" encoding="UTF-8" standalone="no"?>
<!DOCTYPE svg PUBLIC "-//W3C//DTD SVG 1.1//EN"
 "http://www.w3.org/Graphics/SVG/1.1/DTD/svg11.dtd">
<!-- Generated by graphviz version 2.40.1 (20161225.0304)
 -->
<!-- Title: public.event_series Pages: 1 -->
<svg width="674pt" height="584pt"
 viewBox="0.00 0.00 674.00 584.00" xmlns="http://www.w3.org/2000/svg" xmlns:xlink="http://www.w3.org/1999/xlink">
<g id="graph0" class="graph" transform="scale(1 1) rotate(0) translate(4 580)">
<title>public.event_series</title>
<polygon fill="#ffffff" stroke="transparent" points="-4,4 -4,-580 670,-580 670,4 -4,4"/>
<!-- public.event_series -->
<g id="node1" class="node">
<title>public.event_series</title>
<polygon fill="#efefef" stroke="transparent" points="46,-166 46,-212 360,-212 360,-166 46,-166"/>
<polygon fill="none" stroke="#000000" points="46,-166 46,-212 360,-212 360,-166 46,-166"/>
<text text-anchor="start" x="77.3556" y="-189.8" font-family="Arial Bold" font-size="18.00" fill="#000000">public.event_series</text>
<text text-anchor="start" x="231.3906" y="-189.8" font-family="Arial" font-size="14.00" fill="#000000"> </text>
<text text-anchor="start" x="235.2812" y="-189.8" font-family="Arial" font-size="14.00" fill="#666666">[BASE TABLE]</text>
<text text-anchor="start" x="143.6631" y="-175.4" font-family="Arial" font-size="14.00" fill="#333333">イベントシリーズ</text>
<polygon fill="none" stroke="#000000" points="46,-136 46,-166 360,-166 360,-136 46,-136"/>
<text text-anchor="start" x="53" y="-147.4" font-family="Arial" font-size="14.00" fill="#000000">id </text>
<text text-anchor="start" x="67.7798" y="-147.4" font-family="Arial" font-size="14.00" fill="#666666">[text]</text>
<polygon fill="none" stroke="#000000" points="46,-106 46,-136 360,-136 360,-106 46,-106"/>
<text text-anchor="start" x="53" y="-117.4" font-family="Arial" font-size="14.00" fill="#000000">name </text>
<text text-anchor="start" x="91.899" y="-117.4" font-family="Arial" font-size="14.00" fill="#666666">[text]</text>
<text text-anchor="start" x="122.244" y="-117.4" font-family="Arial" font-size="14.00" fill="#000000"> 名前</text>
<polygon fill="none" stroke="#000000" points="46,-76 46,-106 360,-106 360,-76 46,-76"/>
<text text-anchor="start" x="52.8542" y="-87.4" font-family="Arial" font-size="14.00" fill="#000000">created_at </text>
<text text-anchor="start" x="122.8822" y="-87.4" font-family="Arial" font-size="14.00" fill="#666666">[timestamp with time zone]</text>
<text text-anchor="start" x="288.5666" y="-87.4" font-family="Arial" font-size="14.00" fill="#000000"> 作成日時</text>
<polygon fill="none" stroke="#000000" points="46,-46 46,-76 360,-76 360,-46 46,-46"/>
<text text-anchor="start" x="53" y="-57.4" font-family="Arial" font-size="14.00" fill="#000000">updated_at </text>
<text text-anchor="start" x="126.9326" y="-57.4" font-family="Arial" font-size="14.00" fill="#666666">[timestamp with time zone]</text>
<text text-anchor="start" x="292.617" y="-57.4" font-family="Arial" font-size="14.00" fill="#000000"> 更新日時</text>
<polygon fill="none" stroke="#000000" stroke-width="3" points="44.5,-44.5 44.5,-213.5 361.5,-213.5 361.5,-44.5 44.5,-44.5"/>
</g>
<!-- public.events -->
<g id="node2" class="node">
<title>public.events</title>
<polygon fill="#efefef" stroke="transparent" points="46,-487 46,-533 360,-533 360,-487 46,-487"/>
<polygon fill="none" stroke="#000000" points="46,-487 46,-533 360,-533 360,-487 46,-487"/>
<text text-anchor="start" x="101.8581" y="-510.8" font-family="Arial Bold" font-size="18.00" fill="#000000">public.events</text>
<text text-anchor="start" x="206.8881" y="-510.8" font-family="Arial" font-size="14.00" fill="#000000"> </text>
<text text-anchor="start" x="210.7787" y="-510.8" font-family="Arial" font-size="14.00" fill="#666666">[BASE TABLE]</text>
<text text-anchor="start" x="175.9114" y="-496.4" font-family="Arial" font-size="14.00" fill="#333333">イベント</text>
<polygon fill="none" stroke="#000000" points="46,-457 46,-487 360,-487 360,-457 46,-457"/>
<text text-anchor="start" x="53" y="-468.4" font-family="Arial" font-size="14.00" fill="#000000">id </text>
<text text-anchor="start" x="67.7798" y="-468.4" font-family="Arial" font-size="14.00" fill="#666666">[text]</text>
<polygon fill="none" stroke="#000000" points="46,-427 46,-457 360,-457 360,-427 46,-427"/>
<text text-anchor="start" x="53" y="-438.4" font-family="Arial" font-size="14.00" fill="#000000">event_series_id </text>
<text text-anchor="start" x="154.9158" y="-438.4" font-family="Arial" font-size="14.00" fill="#666666">[text]</text>
<text text-anchor="start" x="185.2608" y="-438.4" font-family="Arial" font-size="14.00" fill="#000000"> イベントシリーズID</text>
<polygon fill="none" stroke="#000000" points="46,-397 46,-427 360,-427 360,-397 46,-397"/>
<text text-anchor="start" x="53" y="-408.4" font-family="Arial" font-size="14.00" fill="#000000">name </text>
<text text-anchor="start" x="91.899" y="-408.4" font-family="Arial" font-size="14.00" fill="#666666">[text]</text>
<text text-anchor="start" x="122.244" y="-408.4" font-family="Arial" font-size="14.00" fill="#000000"> 名前</text>
<polygon fill="none" stroke="#000000" points="46,-367 46,-397 360,-397 360,-367 46,-367"/>
<text text-anchor="start" x="52.8542" y="-378.4" font-family="Arial" font-size="14.00" fill="#000000">created_at </text>
<text text-anchor="start" x="122.8822" y="-378.4" font-family="Arial" font-size="14.00" fill="#666666">[timestamp with time zone]</text>
<text text-anchor="start" x="288.5666" y="-378.4" font-family="Arial" font-size="14.00" fill="#000000"> 作成日時</text>
<polygon fill="none" stroke="#000000" points="46,-337 46,-367 360,-367 360,-337 46,-337"/>
<text text-anchor="start" x="53" y="-348.4" font-family="Arial" font-size="14.00" fill="#000000">updated_at </text>
<text text-anchor="start" x="126.9326" y="-348.4" font-family="Arial" font-size="14.00" fill="#666666">[timestamp with time zone]</text>
<text text-anchor="start" x="292.617" y="-348.4" font-family="Arial" font-size="14.00" fill="#000000"> 更新日時</text>
</g>
<!-- public.events&#45;&gt;public.event_series -->
<g id="edge1" class="edge">
<title>public.events:event_series_id&#45;&gt;public.event_series:id</title>
<path fill="none" stroke="#000000" d="M370.0292,-439.4843C424.4733,-411.0422 421.1302,-151 360,-151"/>
<polygon fill="#000000" stroke="#000000" points="369.6995,-439.5669 358.9051,-437.6352 364.8498,-440.7835 360,-442 360,-442 360,-442 364.8498,-440.7835 361.0949,-446.3648 369.6995,-439.5669 369.6995,-439.5669"/>
<text text-anchor="start" x="366.6005" y="-452" font-family="Arial" font-size="10.00" fill="#000000">FOREIGN KEY (event_series_id) REFERENCES event_series(id)</text>
</g>
</g>
</svg>
