<?xml version="1.0" encoding="UTF-8" standalone="no"?>
<!DOCTYPE svg PUBLIC "-//W3C//DTD SVG 1.1//EN"
 "http://www.w3.org/Graphics/SVG/1.1/DTD/svg11.dtd">
<!-- Generated by graphviz version 2.40.1 (20161225.0304)
 -->
<!-- Title: public.tags Pages: 1 -->
<svg width="1655pt" height="644pt"
 viewBox="0.00 0.00 1655.00 644.00" xmlns="http://www.w3.org/2000/svg" xmlns:xlink="http://www.w3.org/1999/xlink">
<g id="graph0" class="graph" transform="scale(1 1) rotate(0) translate(4 640)">
<title>public.tags</title>
<polygon fill="#ffffff" stroke="transparent" points="-4,4 -4,-640 1651,-640 1651,4 -4,4"/>
<!-- public.tags -->
<g id="node1" class="node">
<title>public.tags</title>
<polygon fill="#efefef" stroke="transparent" points="667.5,-196 667.5,-242 981.5,-242 981.5,-196 667.5,-196"/>
<polygon fill="none" stroke="#000000" points="667.5,-196 667.5,-242 981.5,-242 981.5,-196 667.5,-196"/>
<text text-anchor="start" x="717.7041" y="-219.8" font-family="Arial Bold" font-size="18.00" fill="#000000">public.tags</text>
<text text-anchor="start" x="803.7279" y="-219.8" font-family="Arial" font-size="14.00" fill="#000000">    </text>
<text text-anchor="start" x="837.9327" y="-219.8" font-family="Arial" font-size="14.00" fill="#666666">[BASE TABLE]</text>
<text text-anchor="start" x="809.2092" y="-205.4" font-family="Arial" font-size="14.00" fill="#333333">タグ</text>
<polygon fill="none" stroke="#000000" points="667.5,-166 667.5,-196 981.5,-196 981.5,-166 667.5,-166"/>
<text text-anchor="start" x="674.5" y="-177.4" font-family="Arial" font-size="14.00" fill="#000000">id </text>
<text text-anchor="start" x="689.2798" y="-177.4" font-family="Arial" font-size="14.00" fill="#666666">[text]</text>
<text text-anchor="start" x="719.6248" y="-177.4" font-family="Arial" font-size="14.00" fill="#000000"> ID</text>
<polygon fill="none" stroke="#000000" points="667.5,-136 667.5,-166 981.5,-166 981.5,-136 667.5,-136"/>
<text text-anchor="start" x="674.5" y="-147.4" font-family="Arial" font-size="14.00" fill="#000000">name </text>
<text text-anchor="start" x="713.399" y="-147.4" font-family="Arial" font-size="14.00" fill="#666666">[text]</text>
<text text-anchor="start" x="743.744" y="-147.4" font-family="Arial" font-size="14.00" fill="#000000"> 名前</text>
<polygon fill="none" stroke="#000000" points="667.5,-106 667.5,-136 981.5,-136 981.5,-106 667.5,-106"/>
<text text-anchor="start" x="674.5" y="-117.4" font-family="Arial" font-size="14.00" fill="#000000">tag_type </text>
<text text-anchor="start" x="732.0848" y="-117.4" font-family="Arial" font-size="14.00" fill="#666666">[tag_type]</text>
<text text-anchor="start" x="793.5602" y="-117.4" font-family="Arial" font-size="14.00" fill="#000000"> タグ種別</text>
<polygon fill="none" stroke="#000000" points="667.5,-76 667.5,-106 981.5,-106 981.5,-76 667.5,-76"/>
<text text-anchor="start" x="674.3542" y="-87.4" font-family="Arial" font-size="14.00" fill="#000000">created_at </text>
<text text-anchor="start" x="744.3822" y="-87.4" font-family="Arial" font-size="14.00" fill="#666666">[timestamp with time zone]</text>
<text text-anchor="start" x="910.0666" y="-87.4" font-family="Arial" font-size="14.00" fill="#000000"> 作成日時</text>
<polygon fill="none" stroke="#000000" points="667.5,-46 667.5,-76 981.5,-76 981.5,-46 667.5,-46"/>
<text text-anchor="start" x="674.5" y="-57.4" font-family="Arial" font-size="14.00" fill="#000000">updated_at </text>
<text text-anchor="start" x="748.4326" y="-57.4" font-family="Arial" font-size="14.00" fill="#666666">[timestamp with time zone]</text>
<text text-anchor="start" x="914.117" y="-57.4" font-family="Arial" font-size="14.00" fill="#000000"> 更新日時</text>
<polygon fill="none" stroke="#000000" stroke-width="3" points="666,-44.5 666,-243.5 983,-243.5 983,-44.5 666,-44.5"/>
</g>
<!-- public.albums_tags -->
<g id="node2" class="node">
<title>public.albums_tags</title>
<polygon fill="#efefef" stroke="transparent" points="43.5,-547 43.5,-593 470.5,-593 470.5,-547 43.5,-547"/>
<polygon fill="none" stroke="#000000" points="43.5,-547 43.5,-593 470.5,-593 470.5,-547 43.5,-547"/>
<text text-anchor="start" x="116.1985" y="-570.8" font-family="Arial Bold" font-size="18.00" fill="#000000">public.albums_tags</text>
<text text-anchor="start" x="270.2335" y="-570.8" font-family="Arial" font-size="14.00" fill="#000000">    </text>
<text text-anchor="start" x="304.4383" y="-570.8" font-family="Arial" font-size="14.00" fill="#666666">[BASE TABLE]</text>
<text text-anchor="start" x="211.8976" y="-556.4" font-family="Arial" font-size="14.00" fill="#333333">アルバムタグ</text>
<polygon fill="none" stroke="#000000" points="43.5,-517 43.5,-547 470.5,-547 470.5,-517 43.5,-517"/>
<text text-anchor="start" x="50.5" y="-528.4" font-family="Arial" font-size="14.00" fill="#000000">id    </text>
<text text-anchor="start" x="95.594" y="-528.4" font-family="Arial" font-size="14.00" fill="#666666">[text]</text>
<text text-anchor="start" x="125.939" y="-528.4" font-family="Arial" font-size="14.00" fill="#000000"> ID</text>
<polygon fill="none" stroke="#000000" points="43.5,-487 43.5,-517 470.5,-517 470.5,-487 43.5,-487"/>
<text text-anchor="start" x="50.5" y="-498.4" font-family="Arial" font-size="14.00" fill="#000000">album_id    </text>
<text text-anchor="start" x="141.4916" y="-498.4" font-family="Arial" font-size="14.00" fill="#666666">[text]</text>
<text text-anchor="start" x="171.8366" y="-498.4" font-family="Arial" font-size="14.00" fill="#000000"> アルバムID</text>
<polygon fill="none" stroke="#000000" points="43.5,-457 43.5,-487 470.5,-487 470.5,-457 43.5,-457"/>
<text text-anchor="start" x="50.5" y="-468.4" font-family="Arial" font-size="14.00" fill="#000000">tag_id    </text>
<text text-anchor="start" x="122.8324" y="-468.4" font-family="Arial" font-size="14.00" fill="#666666">[text]</text>
<text text-anchor="start" x="153.1774" y="-468.4" font-family="Arial" font-size="14.00" fill="#000000"> タグID</text>
<polygon fill="none" stroke="#000000" points="43.5,-427 43.5,-457 470.5,-457 470.5,-427 43.5,-427"/>
<text text-anchor="start" x="50.1255" y="-438.4" font-family="Arial" font-size="14.00" fill="#000000">locked    </text>
<text text-anchor="start" x="124.7847" y="-438.4" font-family="Arial" font-size="14.00" fill="#666666">[boolean]</text>
<text text-anchor="start" x="182.3681" y="-438.4" font-family="Arial" font-size="14.00" fill="#000000"> ロック有無(true: ロック、false: アンロック)</text>
<polygon fill="none" stroke="#000000" points="43.5,-397 43.5,-427 470.5,-427 470.5,-397 43.5,-397"/>
<text text-anchor="start" x="50.5" y="-408.4" font-family="Arial" font-size="14.00" fill="#000000">created_at    </text>
<text text-anchor="start" x="150.8422" y="-408.4" font-family="Arial" font-size="14.00" fill="#666666">[timestamp with time zone]</text>
<text text-anchor="start" x="316.5266" y="-408.4" font-family="Arial" font-size="14.00" fill="#000000"> 作成日時</text>
<polygon fill="none" stroke="#000000" points="43.5,-367 43.5,-397 470.5,-397 470.5,-367 43.5,-367"/>
<text text-anchor="start" x="50.5" y="-378.4" font-family="Arial" font-size="14.00" fill="#000000">updated_at    </text>
<text text-anchor="start" x="154.7468" y="-378.4" font-family="Arial" font-size="14.00" fill="#666666">[timestamp with time zone]</text>
<text text-anchor="start" x="320.4312" y="-378.4" font-family="Arial" font-size="14.00" fill="#000000"> 更新日時</text>
</g>
<!-- public.albums_tags&#45;&gt;public.tags -->
<g id="edge1" class="edge">
<title>public.albums_tags:tag_id&#45;&gt;public.tags:id</title>
<path fill="none" stroke="#000000" d="M480.4932,-471.2734C534.4517,-462.6772 486.2796,-379.7042 521.5,-324 570.0402,-247.2294 576.6712,-181 667.5,-181"/>
<polygon fill="#000000" stroke="#000000" points="480.4737,-471.2747 470.1736,-467.5118 475.4868,-471.6374 470.5,-472 470.5,-472 470.5,-472 475.4868,-471.6374 470.8264,-476.4882 480.4737,-471.2747 480.4737,-471.2747"/>
<text text-anchor="start" x="364.3845" y="-456" font-family="Arial" font-size="10.00" fill="#000000">FOREIGN KEY (tag_id) REFERENCES tags(id)</text>
</g>
<!-- public.songs_tags -->
<g id="node3" class="node">
<title>public.songs_tags</title>
<polygon fill="#efefef" stroke="transparent" points="574.5,-547 574.5,-593 1073.5,-593 1073.5,-547 574.5,-547"/>
<polygon fill="none" stroke="#000000" points="574.5,-547 574.5,-593 1073.5,-593 1073.5,-547 574.5,-547"/>
<text text-anchor="start" x="688.1917" y="-570.8" font-family="Arial Bold" font-size="18.00" fill="#000000">public.songs_tags</text>
<text text-anchor="start" x="832.2403" y="-570.8" font-family="Arial" font-size="14.00" fill="#000000">    </text>
<text text-anchor="start" x="866.4451" y="-570.8" font-family="Arial" font-size="14.00" fill="#666666">[BASE TABLE]</text>
<text text-anchor="start" x="788.0907" y="-556.4" font-family="Arial" font-size="14.00" fill="#333333">楽曲タグ</text>
<polygon fill="none" stroke="#000000" points="574.5,-517 574.5,-547 1073.5,-547 1073.5,-517 574.5,-517"/>
<text text-anchor="start" x="581.5" y="-528.4" font-family="Arial" font-size="14.00" fill="#000000">id    </text>
<text text-anchor="start" x="626.594" y="-528.4" font-family="Arial" font-size="14.00" fill="#666666">[text]</text>
<text text-anchor="start" x="656.939" y="-528.4" font-family="Arial" font-size="14.00" fill="#000000"> ID</text>
<polygon fill="none" stroke="#000000" points="574.5,-487 574.5,-517 1073.5,-517 1073.5,-487 574.5,-487"/>
<text text-anchor="start" x="581.5" y="-498.4" font-family="Arial" font-size="14.00" fill="#000000">song_id    </text>
<text text-anchor="start" x="664.7244" y="-498.4" font-family="Arial" font-size="14.00" fill="#666666">[text]</text>
<text text-anchor="start" x="695.0694" y="-498.4" font-family="Arial" font-size="14.00" fill="#000000"> 楽曲ID</text>
<polygon fill="none" stroke="#000000" points="574.5,-457 574.5,-487 1073.5,-487 1073.5,-457 574.5,-457"/>
<text text-anchor="start" x="581.5" y="-468.4" font-family="Arial" font-size="14.00" fill="#000000">tag_id    </text>
<text text-anchor="start" x="653.8324" y="-468.4" font-family="Arial" font-size="14.00" fill="#666666">[text]</text>
<text text-anchor="start" x="684.1774" y="-468.4" font-family="Arial" font-size="14.00" fill="#000000"> タグID</text>
<polygon fill="none" stroke="#000000" points="574.5,-427 574.5,-457 1073.5,-457 1073.5,-427 574.5,-427"/>
<text text-anchor="start" x="581.4703" y="-438.4" font-family="Arial" font-size="14.00" fill="#000000">locked    </text>
<text text-anchor="start" x="656.1295" y="-438.4" font-family="Arial" font-size="14.00" fill="#666666">[boolean]</text>
<text text-anchor="start" x="713.7129" y="-438.4" font-family="Arial" font-size="14.00" fill="#000000"> ロック有無(true: ロック・削除不可、false: アンロック)</text>
<polygon fill="none" stroke="#000000" points="574.5,-397 574.5,-427 1073.5,-427 1073.5,-397 574.5,-397"/>
<text text-anchor="start" x="581.5" y="-408.4" font-family="Arial" font-size="14.00" fill="#000000">created_at    </text>
<text text-anchor="start" x="681.8422" y="-408.4" font-family="Arial" font-size="14.00" fill="#666666">[timestamp with time zone]</text>
<text text-anchor="start" x="847.5266" y="-408.4" font-family="Arial" font-size="14.00" fill="#000000"> 作成日時</text>
<polygon fill="none" stroke="#000000" points="574.5,-367 574.5,-397 1073.5,-397 1073.5,-367 574.5,-367"/>
<text text-anchor="start" x="581.5" y="-378.4" font-family="Arial" font-size="14.00" fill="#000000">updated_at    </text>
<text text-anchor="start" x="685.7468" y="-378.4" font-family="Arial" font-size="14.00" fill="#666666">[timestamp with time zone]</text>
<text text-anchor="start" x="851.4312" y="-378.4" font-family="Arial" font-size="14.00" fill="#000000"> 更新日時</text>
</g>
<!-- public.songs_tags&#45;&gt;public.tags -->
<g id="edge2" class="edge">
<title>public.songs_tags:tag_id&#45;&gt;public.tags:id</title>
<path fill="none" stroke="#000000" d="M1083.5203,-471.1321C1136.8718,-461.272 1115.4817,-369.8689 1073.5,-324 1012.3468,-257.1844 728.6532,-354.8156 667.5,-288 635.3925,-252.9195 619.9444,-181 667.5,-181"/>
<polygon fill="#000000" stroke="#000000" points="1083.4627,-471.137 1073.1116,-467.5168 1078.4813,-471.5685 1073.5,-472 1073.5,-472 1073.5,-472 1078.4813,-471.5685 1073.8884,-476.4832 1083.4627,-471.137 1083.4627,-471.137"/>
<text text-anchor="start" x="967.3845" y="-456" font-family="Arial" font-size="10.00" fill="#000000">FOREIGN KEY (tag_id) REFERENCES tags(id)</text>
</g>
<!-- public.circles_tags -->
<g id="node4" class="node">
<title>public.circles_tags</title>
<polygon fill="#efefef" stroke="transparent" points="1177.5,-547 1177.5,-593 1604.5,-593 1604.5,-547 1177.5,-547"/>
<polygon fill="none" stroke="#000000" points="1177.5,-547 1177.5,-593 1604.5,-593 1604.5,-547 1177.5,-547"/>
<text text-anchor="start" x="1253.7076" y="-570.8" font-family="Arial Bold" font-size="18.00" fill="#000000">public.circles_tags</text>
<text text-anchor="start" x="1400.7244" y="-570.8" font-family="Arial" font-size="14.00" fill="#000000">    </text>
<text text-anchor="start" x="1434.9292" y="-570.8" font-family="Arial" font-size="14.00" fill="#666666">[BASE TABLE]</text>
<text text-anchor="start" x="1341.2342" y="-556.4" font-family="Arial" font-size="14.00" fill="#333333">サークルタグ</text>
<polygon fill="none" stroke="#000000" points="1177.5,-517 1177.5,-547 1604.5,-547 1604.5,-517 1177.5,-517"/>
<text text-anchor="start" x="1184.5" y="-528.4" font-family="Arial" font-size="14.00" fill="#000000">id    </text>
<text text-anchor="start" x="1229.594" y="-528.4" font-family="Arial" font-size="14.00" fill="#666666">[text]</text>
<text text-anchor="start" x="1259.939" y="-528.4" font-family="Arial" font-size="14.00" fill="#000000"> サークルID</text>
<polygon fill="none" stroke="#000000" points="1177.5,-487 1177.5,-517 1604.5,-517 1604.5,-487 1177.5,-487"/>
<text text-anchor="start" x="1184.5" y="-498.4" font-family="Arial" font-size="14.00" fill="#000000">circle_id    </text>
<text text-anchor="start" x="1270.033" y="-498.4" font-family="Arial" font-size="14.00" fill="#666666">[text]</text>
<text text-anchor="start" x="1300.378" y="-498.4" font-family="Arial" font-size="14.00" fill="#000000"> サークルID</text>
<polygon fill="none" stroke="#000000" points="1177.5,-457 1177.5,-487 1604.5,-487 1604.5,-457 1177.5,-457"/>
<text text-anchor="start" x="1184.5" y="-468.4" font-family="Arial" font-size="14.00" fill="#000000">tag_id    </text>
<text text-anchor="start" x="1256.8324" y="-468.4" font-family="Arial" font-size="14.00" fill="#666666">[text]</text>
<text text-anchor="start" x="1287.1774" y="-468.4" font-family="Arial" font-size="14.00" fill="#000000"> タグID</text>
<polygon fill="none" stroke="#000000" points="1177.5,-427 1177.5,-457 1604.5,-457 1604.5,-427 1177.5,-427"/>
<text text-anchor="start" x="1184.1255" y="-438.4" font-family="Arial" font-size="14.00" fill="#000000">locked    </text>
<text text-anchor="start" x="1258.7847" y="-438.4" font-family="Arial" font-size="14.00" fill="#666666">[boolean]</text>
<text text-anchor="start" x="1316.3681" y="-438.4" font-family="Arial" font-size="14.00" fill="#000000"> ロック有無(true: ロック、false: アンロック)</text>
<polygon fill="none" stroke="#000000" points="1177.5,-397 1177.5,-427 1604.5,-427 1604.5,-397 1177.5,-397"/>
<text text-anchor="start" x="1184.5" y="-408.4" font-family="Arial" font-size="14.00" fill="#000000">created_at    </text>
<text text-anchor="start" x="1284.8422" y="-408.4" font-family="Arial" font-size="14.00" fill="#666666">[timestamp with time zone]</text>
<text text-anchor="start" x="1450.5266" y="-408.4" font-family="Arial" font-size="14.00" fill="#000000"> 作成日時</text>
<polygon fill="none" stroke="#000000" points="1177.5,-367 1177.5,-397 1604.5,-397 1604.5,-367 1177.5,-367"/>
<text text-anchor="start" x="1184.5" y="-378.4" font-family="Arial" font-size="14.00" fill="#000000">updated_at    </text>
<text text-anchor="start" x="1288.7468" y="-378.4" font-family="Arial" font-size="14.00" fill="#666666">[timestamp with time zone]</text>
<text text-anchor="start" x="1454.4312" y="-378.4" font-family="Arial" font-size="14.00" fill="#000000"> 更新日時</text>
</g>
<!-- public.circles_tags&#45;&gt;public.tags -->
<g id="edge3" class="edge">
<title>public.circles_tags:tag_id&#45;&gt;public.tags:id</title>
<path fill="none" stroke="#000000" d="M1167.4784,-471.2745C1113.3198,-462.6912 1160.7701,-379.8364 1125.5,-324 1077.3311,-247.7434 1071.6959,-181 981.5,-181"/>
<polygon fill="#000000" stroke="#000000" points="1167.5261,-471.2779 1177.175,-476.4883 1172.5131,-471.6389 1177.5,-472 1177.5,-472 1177.5,-472 1172.5131,-471.6389 1177.825,-467.5117 1167.5261,-471.2779 1167.5261,-471.2779"/>
<text text-anchor="start" x="958.3845" y="-482" font-family="Arial" font-size="10.00" fill="#000000">FOREIGN KEY (tag_id) REFERENCES tags(id)</text>
</g>
</g>
</svg>
