<?xml version="1.0" encoding="UTF-8" standalone="no"?>
<!DOCTYPE svg PUBLIC "-//W3C//DTD SVG 1.1//EN"
 "http://www.w3.org/Graphics/SVG/1.1/DTD/svg11.dtd">
<!-- Generated by graphviz version 2.40.1 (20161225.0304)
 -->
<!-- Title: public.original_songs Pages: 1 -->
<svg width="1053pt" height="1172pt"
 viewBox="0.00 0.00 1052.50 1172.00" xmlns="http://www.w3.org/2000/svg" xmlns:xlink="http://www.w3.org/1999/xlink">
<g id="graph0" class="graph" transform="scale(1 1) rotate(0) translate(4 1168)">
<title>public.original_songs</title>
<polygon fill="#ffffff" stroke="transparent" points="-4,4 -4,-1168 1048.5,-1168 1048.5,4 -4,4"/>
<!-- public.original_songs -->
<g id="node1" class="node">
<title>public.original_songs</title>
<polygon fill="#efefef" stroke="transparent" points="289.5,-724 289.5,-770 779.5,-770 779.5,-724 289.5,-724"/>
<polygon fill="none" stroke="#000000" points="289.5,-724 289.5,-770 779.5,-770 779.5,-724 289.5,-724"/>
<text text-anchor="start" x="401.8563" y="-747.8" font-family="Arial Bold" font-size="18.00" fill="#000000">public.original_songs</text>
<text text-anchor="start" x="569.8899" y="-747.8" font-family="Arial" font-size="14.00" fill="#000000"> </text>
<text text-anchor="start" x="573.7805" y="-747.8" font-family="Arial" font-size="14.00" fill="#666666">[BASE TABLE]</text>
<text text-anchor="start" x="520.8822" y="-733.4" font-family="Arial" font-size="14.00" fill="#333333">原曲</text>
<polygon fill="none" stroke="#000000" points="289.5,-694 289.5,-724 779.5,-724 779.5,-694 289.5,-694"/>
<text text-anchor="start" x="296.5" y="-705.4" font-family="Arial" font-size="14.00" fill="#000000">id </text>
<text text-anchor="start" x="311.2798" y="-705.4" font-family="Arial" font-size="14.00" fill="#666666">[text]</text>
<text text-anchor="start" x="341.6248" y="-705.4" font-family="Arial" font-size="14.00" fill="#000000"> 原曲ID</text>
<polygon fill="none" stroke="#000000" points="289.5,-664 289.5,-694 779.5,-694 779.5,-664 289.5,-664"/>
<text text-anchor="start" x="296.5" y="-675.4" font-family="Arial" font-size="14.00" fill="#000000">product_id </text>
<text text-anchor="start" x="365.744" y="-675.4" font-family="Arial" font-size="14.00" fill="#666666">[text]</text>
<text text-anchor="start" x="396.089" y="-675.4" font-family="Arial" font-size="14.00" fill="#000000"> 原作ID</text>
<polygon fill="none" stroke="#000000" points="289.5,-634 289.5,-664 779.5,-664 779.5,-634 289.5,-634"/>
<text text-anchor="start" x="296.5" y="-645.4" font-family="Arial" font-size="14.00" fill="#000000">name </text>
<text text-anchor="start" x="335.399" y="-645.4" font-family="Arial" font-size="14.00" fill="#666666">[text]</text>
<text text-anchor="start" x="365.744" y="-645.4" font-family="Arial" font-size="14.00" fill="#000000"> 名前</text>
<polygon fill="none" stroke="#000000" points="289.5,-604 289.5,-634 779.5,-634 779.5,-604 289.5,-604"/>
<text text-anchor="start" x="296.5" y="-615.4" font-family="Arial" font-size="14.00" fill="#000000">composer </text>
<text text-anchor="start" x="361.8422" y="-615.4" font-family="Arial" font-size="14.00" fill="#666666">[text]</text>
<text text-anchor="start" x="392.1872" y="-615.4" font-family="Arial" font-size="14.00" fill="#000000"> 作曲者</text>
<polygon fill="none" stroke="#000000" points="289.5,-574 289.5,-604 779.5,-604 779.5,-574 289.5,-574"/>
<text text-anchor="start" x="296.5" y="-585.4" font-family="Arial" font-size="14.00" fill="#000000">arranger </text>
<text text-anchor="start" x="353.2854" y="-585.4" font-family="Arial" font-size="14.00" fill="#666666">[text]</text>
<text text-anchor="start" x="383.6304" y="-585.4" font-family="Arial" font-size="14.00" fill="#000000"> 編曲者</text>
<polygon fill="none" stroke="#000000" points="289.5,-544 289.5,-574 779.5,-574 779.5,-544 289.5,-544"/>
<text text-anchor="start" x="296.5" y="-555.4" font-family="Arial" font-size="14.00" fill="#000000">track_number </text>
<text text-anchor="start" x="385.9586" y="-555.4" font-family="Arial" font-size="14.00" fill="#666666">[integer]</text>
<text text-anchor="start" x="436.528" y="-555.4" font-family="Arial" font-size="14.00" fill="#000000"> トラック番号</text>
<polygon fill="none" stroke="#000000" points="289.5,-514 289.5,-544 779.5,-544 779.5,-514 289.5,-514"/>
<text text-anchor="start" x="296.4818" y="-525.4" font-family="Arial" font-size="14.00" fill="#000000">is_original </text>
<text text-anchor="start" x="363.3724" y="-525.4" font-family="Arial" font-size="14.00" fill="#666666">[boolean]</text>
<text text-anchor="start" x="420.9558" y="-525.4" font-family="Arial" font-size="14.00" fill="#000000"> オリジナル有無(true: オリジナル(初出)、false: 再録など)</text>
<polygon fill="none" stroke="#000000" points="289.5,-484 289.5,-514 779.5,-514 779.5,-484 289.5,-484"/>
<text text-anchor="start" x="296.5" y="-495.4" font-family="Arial" font-size="14.00" fill="#000000">source_id </text>
<text text-anchor="start" x="361.0708" y="-495.4" font-family="Arial" font-size="14.00" fill="#666666">[text]</text>
<text text-anchor="start" x="391.4158" y="-495.4" font-family="Arial" font-size="14.00" fill="#000000"> 原曲元の原曲ID</text>
<polygon fill="none" stroke="#000000" points="289.5,-454 289.5,-484 779.5,-484 779.5,-454 289.5,-454"/>
<text text-anchor="start" x="296.5" y="-465.4" font-family="Arial" font-size="14.00" fill="#000000">created_at </text>
<text text-anchor="start" x="366.528" y="-465.4" font-family="Arial" font-size="14.00" fill="#666666">[timestamp with time zone]</text>
<text text-anchor="start" x="532.2124" y="-465.4" font-family="Arial" font-size="14.00" fill="#000000"> 作成日時</text>
<polygon fill="none" stroke="#000000" points="289.5,-424 289.5,-454 779.5,-454 779.5,-424 289.5,-424"/>
<text text-anchor="start" x="296.5" y="-435.4" font-family="Arial" font-size="14.00" fill="#000000">updated_at </text>
<text text-anchor="start" x="370.4326" y="-435.4" font-family="Arial" font-size="14.00" fill="#666666">[timestamp with time zone]</text>
<text text-anchor="start" x="536.117" y="-435.4" font-family="Arial" font-size="14.00" fill="#000000"> 更新日時</text>
<polygon fill="none" stroke="#000000" stroke-width="3" points="288,-422.5 288,-771.5 781,-771.5 781,-422.5 288,-422.5"/>
</g>
<!-- public.products -->
<g id="node4" class="node">
<title>public.products</title>
<polygon fill="#efefef" stroke="transparent" points="377.5,-253 377.5,-299 691.5,-299 691.5,-253 377.5,-253"/>
<polygon fill="none" stroke="#000000" points="377.5,-253 377.5,-299 691.5,-299 691.5,-253 377.5,-253"/>
<text text-anchor="start" x="425.3589" y="-276.8" font-family="Arial Bold" font-size="18.00" fill="#000000">public.products</text>
<text text-anchor="start" x="546.3873" y="-276.8" font-family="Arial" font-size="14.00" fill="#000000"> </text>
<text text-anchor="start" x="550.2779" y="-276.8" font-family="Arial" font-size="14.00" fill="#666666">[BASE TABLE]</text>
<text text-anchor="start" x="517.7735" y="-262.4" font-family="Arial" font-size="14.00" fill="#333333">原作</text>
<polygon fill="none" stroke="#000000" points="377.5,-223 377.5,-253 691.5,-253 691.5,-223 377.5,-223"/>
<text text-anchor="start" x="384.5" y="-234.4" font-family="Arial" font-size="14.00" fill="#000000">id </text>
<text text-anchor="start" x="399.2798" y="-234.4" font-family="Arial" font-size="14.00" fill="#666666">[text]</text>
<text text-anchor="start" x="429.6248" y="-234.4" font-family="Arial" font-size="14.00" fill="#000000"> 原作ID</text>
<polygon fill="none" stroke="#000000" points="377.5,-193 377.5,-223 691.5,-223 691.5,-193 377.5,-193"/>
<text text-anchor="start" x="384.5" y="-204.4" font-family="Arial" font-size="14.00" fill="#000000">name </text>
<text text-anchor="start" x="423.399" y="-204.4" font-family="Arial" font-size="14.00" fill="#666666">[text]</text>
<text text-anchor="start" x="453.744" y="-204.4" font-family="Arial" font-size="14.00" fill="#000000"> 名前</text>
<polygon fill="none" stroke="#000000" points="377.5,-163 377.5,-193 691.5,-193 691.5,-163 377.5,-163"/>
<text text-anchor="start" x="384.5" y="-174.4" font-family="Arial" font-size="14.00" fill="#000000">short_name </text>
<text text-anchor="start" x="462.298" y="-174.4" font-family="Arial" font-size="14.00" fill="#666666">[text]</text>
<text text-anchor="start" x="492.643" y="-174.4" font-family="Arial" font-size="14.00" fill="#000000"> 短い名前</text>
<polygon fill="none" stroke="#000000" points="377.5,-133 377.5,-163 691.5,-163 691.5,-133 377.5,-133"/>
<text text-anchor="start" x="384.5" y="-144.4" font-family="Arial" font-size="14.00" fill="#000000">product_type </text>
<text text-anchor="start" x="469.3106" y="-144.4" font-family="Arial" font-size="14.00" fill="#666666">[product_type]</text>
<text text-anchor="start" x="558.0118" y="-144.4" font-family="Arial" font-size="14.00" fill="#000000"> 原作種別</text>
<polygon fill="none" stroke="#000000" points="377.5,-103 377.5,-133 691.5,-133 691.5,-103 377.5,-103"/>
<text text-anchor="start" x="384.5" y="-114.4" font-family="Arial" font-size="14.00" fill="#000000">series_number </text>
<text text-anchor="start" x="480.9572" y="-114.4" font-family="Arial" font-size="14.00" fill="#666666">[numeric(5,2)]</text>
<text text-anchor="start" x="567.291" y="-114.4" font-family="Arial" font-size="14.00" fill="#000000"> シリーズ番号</text>
<polygon fill="none" stroke="#000000" points="377.5,-73 377.5,-103 691.5,-103 691.5,-73 377.5,-73"/>
<text text-anchor="start" x="384.3542" y="-84.4" font-family="Arial" font-size="14.00" fill="#000000">created_at </text>
<text text-anchor="start" x="454.3822" y="-84.4" font-family="Arial" font-size="14.00" fill="#666666">[timestamp with time zone]</text>
<text text-anchor="start" x="620.0666" y="-84.4" font-family="Arial" font-size="14.00" fill="#000000"> 作成日時</text>
<polygon fill="none" stroke="#000000" points="377.5,-43 377.5,-73 691.5,-73 691.5,-43 377.5,-43"/>
<text text-anchor="start" x="384.5" y="-54.4" font-family="Arial" font-size="14.00" fill="#000000">updated_at </text>
<text text-anchor="start" x="458.4326" y="-54.4" font-family="Arial" font-size="14.00" fill="#666666">[timestamp with time zone]</text>
<text text-anchor="start" x="624.117" y="-54.4" font-family="Arial" font-size="14.00" fill="#000000"> 更新日時</text>
</g>
<!-- public.original_songs&#45;&gt;public.products -->
<g id="edge3" class="edge">
<title>public.original_songs:product_id&#45;&gt;public.products:id</title>
<path fill="none" stroke="#000000" d="M789.4956,-678.618C976.3237,-664.0556 887.9485,-238 691.5,-238"/>
<polygon fill="#000000" stroke="#000000" points="789.4927,-678.618 779.3281,-674.5033 784.4964,-678.809 779.5,-679 779.5,-679 779.5,-679 784.4964,-678.809 779.6719,-683.4967 789.4927,-678.618 789.4927,-678.618"/>
<text text-anchor="start" x="786.9375" y="-689" font-family="Arial" font-size="10.00" fill="#000000">FOREIGN KEY (product_id) REFERENCES products(id)</text>
</g>
<!-- public.original_song_distribution_service_urls -->
<g id="node2" class="node">
<title>public.original_song_distribution_service_urls</title>
<polygon fill="#efefef" stroke="transparent" points="43.5,-1075 43.5,-1121 516.5,-1121 516.5,-1075 43.5,-1075"/>
<polygon fill="none" stroke="#000000" points="43.5,-1075 43.5,-1121 516.5,-1121 516.5,-1075 43.5,-1075"/>
<text text-anchor="start" x="50.3462" y="-1098.8" font-family="Arial Bold" font-size="18.00" fill="#000000">public.original_song_distribution_service_urls</text>
<text text-anchor="start" x="412.4" y="-1098.8" font-family="Arial" font-size="14.00" fill="#000000"> </text>
<text text-anchor="start" x="416.2906" y="-1098.8" font-family="Arial" font-size="14.00" fill="#666666">[BASE TABLE]</text>
<text text-anchor="start" x="203.1372" y="-1084.4" font-family="Arial" font-size="14.00" fill="#333333">原曲配信サービスURL</text>
<polygon fill="none" stroke="#000000" points="43.5,-1045 43.5,-1075 516.5,-1075 516.5,-1045 43.5,-1045"/>
<text text-anchor="start" x="50.5" y="-1056.4" font-family="Arial" font-size="14.00" fill="#000000">id </text>
<text text-anchor="start" x="65.2798" y="-1056.4" font-family="Arial" font-size="14.00" fill="#666666">[text]</text>
<polygon fill="none" stroke="#000000" points="43.5,-1015 43.5,-1045 516.5,-1045 516.5,-1015 43.5,-1015"/>
<text text-anchor="start" x="50.5" y="-1026.4" font-family="Arial" font-size="14.00" fill="#000000">original_song_id </text>
<text text-anchor="start" x="156.3036" y="-1026.4" font-family="Arial" font-size="14.00" fill="#666666">[text]</text>
<text text-anchor="start" x="186.6486" y="-1026.4" font-family="Arial" font-size="14.00" fill="#000000"> 原曲ID</text>
<polygon fill="none" stroke="#000000" points="43.5,-985 43.5,-1015 516.5,-1015 516.5,-985 43.5,-985"/>
<text text-anchor="start" x="50.5" y="-996.4" font-family="Arial" font-size="14.00" fill="#000000">service </text>
<text text-anchor="start" x="98.723" y="-996.4" font-family="Arial" font-size="14.00" fill="#666666">[distribution_service]</text>
<text text-anchor="start" x="226.2938" y="-996.4" font-family="Arial" font-size="14.00" fill="#000000"> 配信サービス</text>
<polygon fill="none" stroke="#000000" points="43.5,-955 43.5,-985 516.5,-985 516.5,-955 43.5,-955"/>
<text text-anchor="start" x="50.5" y="-966.4" font-family="Arial" font-size="14.00" fill="#000000">url </text>
<text text-anchor="start" x="69.9404" y="-966.4" font-family="Arial" font-size="14.00" fill="#666666">[text]</text>
<text text-anchor="start" x="100.2854" y="-966.4" font-family="Arial" font-size="14.00" fill="#000000"> URL</text>
<polygon fill="none" stroke="#000000" points="43.5,-925 43.5,-955 516.5,-955 516.5,-925 43.5,-925"/>
<text text-anchor="start" x="50.5" y="-936.4" font-family="Arial" font-size="14.00" fill="#000000">created_at </text>
<text text-anchor="start" x="120.528" y="-936.4" font-family="Arial" font-size="14.00" fill="#666666">[timestamp with time zone]</text>
<text text-anchor="start" x="286.2124" y="-936.4" font-family="Arial" font-size="14.00" fill="#000000"> 作成日時</text>
<polygon fill="none" stroke="#000000" points="43.5,-895 43.5,-925 516.5,-925 516.5,-895 43.5,-895"/>
<text text-anchor="start" x="50.5" y="-906.4" font-family="Arial" font-size="14.00" fill="#000000">updated_at </text>
<text text-anchor="start" x="124.4326" y="-906.4" font-family="Arial" font-size="14.00" fill="#666666">[timestamp with time zone]</text>
<text text-anchor="start" x="290.117" y="-906.4" font-family="Arial" font-size="14.00" fill="#000000"> 更新日時</text>
</g>
<!-- public.original_song_distribution_service_urls&#45;&gt;public.original_songs -->
<g id="edge1" class="edge">
<title>public.original_song_distribution_service_urls:original_song_id&#45;&gt;public.original_songs:id</title>
<path fill="none" stroke="#000000" d="M526.5221,-1029.3025C593.0713,-1019.5294 565.5648,-909.4591 516.5,-852 450.1669,-774.3181 355.8331,-893.6819 289.5,-816 258.6188,-779.8354 241.9444,-709 289.5,-709"/>
<polygon fill="#000000" stroke="#000000" points="526.4759,-1029.3057 516.1875,-1025.5109 521.4879,-1029.6528 516.5,-1030 516.5,-1030 516.5,-1030 521.4879,-1029.6528 516.8125,-1034.4891 526.4759,-1029.3057 526.4759,-1029.3057"/>
<text text-anchor="start" x="523.8235" y="-1040" font-family="Arial" font-size="10.00" fill="#000000">FOREIGN KEY (original_song_id) REFERENCES original_songs(id)</text>
</g>
<!-- public.tracks_original_songs -->
<g id="node3" class="node">
<title>public.tracks_original_songs</title>
<polygon fill="#efefef" stroke="transparent" points="620.5,-1045 620.5,-1091 957.5,-1091 957.5,-1045 620.5,-1045"/>
<polygon fill="none" stroke="#000000" points="620.5,-1045 620.5,-1091 957.5,-1091 957.5,-1045 620.5,-1045"/>
<text text-anchor="start" x="627.3529" y="-1068.8" font-family="Arial Bold" font-size="18.00" fill="#000000">public.tracks_original_songs</text>
<text text-anchor="start" x="853.3933" y="-1068.8" font-family="Arial" font-size="14.00" fill="#000000"> </text>
<text text-anchor="start" x="857.2839" y="-1068.8" font-family="Arial" font-size="14.00" fill="#666666">[BASE TABLE]</text>
<text text-anchor="start" x="754.7637" y="-1054.4" font-family="Arial" font-size="14.00" fill="#333333">楽曲原曲</text>
<polygon fill="none" stroke="#000000" points="620.5,-1015 620.5,-1045 957.5,-1045 957.5,-1015 620.5,-1015"/>
<text text-anchor="start" x="627.5" y="-1026.4" font-family="Arial" font-size="14.00" fill="#000000">track_id </text>
<text text-anchor="start" x="680.3962" y="-1026.4" font-family="Arial" font-size="14.00" fill="#666666">[text]</text>
<text text-anchor="start" x="710.7412" y="-1026.4" font-family="Arial" font-size="14.00" fill="#000000"> トラックID</text>
<polygon fill="none" stroke="#000000" points="620.5,-985 620.5,-1015 957.5,-1015 957.5,-985 620.5,-985"/>
<text text-anchor="start" x="627.5" y="-996.4" font-family="Arial" font-size="14.00" fill="#000000">original_song_id </text>
<text text-anchor="start" x="733.3036" y="-996.4" font-family="Arial" font-size="14.00" fill="#666666">[text]</text>
<text text-anchor="start" x="763.6486" y="-996.4" font-family="Arial" font-size="14.00" fill="#000000"> 原曲ID</text>
<polygon fill="none" stroke="#000000" points="620.5,-955 620.5,-985 957.5,-985 957.5,-955 620.5,-955"/>
<text text-anchor="start" x="627.5" y="-966.4" font-family="Arial" font-size="14.00" fill="#000000">created_at </text>
<text text-anchor="start" x="697.528" y="-966.4" font-family="Arial" font-size="14.00" fill="#666666">[timestamp with time zone]</text>
<text text-anchor="start" x="863.2124" y="-966.4" font-family="Arial" font-size="14.00" fill="#000000"> 作成日時</text>
<polygon fill="none" stroke="#000000" points="620.5,-925 620.5,-955 957.5,-955 957.5,-925 620.5,-925"/>
<text text-anchor="start" x="627.5" y="-936.4" font-family="Arial" font-size="14.00" fill="#000000">updated_at </text>
<text text-anchor="start" x="701.4326" y="-936.4" font-family="Arial" font-size="14.00" fill="#666666">[timestamp with time zone]</text>
<text text-anchor="start" x="867.117" y="-936.4" font-family="Arial" font-size="14.00" fill="#000000"> 更新日時</text>
</g>
<!-- public.tracks_original_songs&#45;&gt;public.original_songs -->
<g id="edge2" class="edge">
<title>public.tracks_original_songs:original_song_id&#45;&gt;public.original_songs:id</title>
<path fill="none" stroke="#000000" d="M610.5369,-998.9333C571.3642,-989.692 593.4273,-922.5501 620.5,-882 662.9844,-818.3659 737.0156,-879.6341 779.5,-816 805.9056,-776.4491 827.0556,-709 779.5,-709"/>
<polygon fill="#000000" stroke="#000000" points="610.5568,-998.9354 620.0209,-1004.4744 615.5284,-999.4677 620.5,-1000 620.5,-1000 620.5,-1000 615.5284,-999.4677 620.9791,-995.5256 610.5568,-998.9354 610.5568,-998.9354"/>
<text text-anchor="start" x="627.8235" y="-1010" font-family="Arial" font-size="10.00" fill="#000000">FOREIGN KEY (original_song_id) REFERENCES original_songs(id)</text>
</g>
</g>
</svg>
