<?xml version="1.0" encoding="UTF-8" standalone="no"?>
<!DOCTYPE svg PUBLIC "-//W3C//DTD SVG 1.1//EN"
 "http://www.w3.org/Graphics/SVG/1.1/DTD/svg11.dtd">
<!-- Generated by graphviz version 2.40.1 (20161225.0304)
 -->
<!-- Title: public.albums_tags Pages: 1 -->
<svg width="883pt" height="914pt"
 viewBox="0.00 0.00 883.00 914.00" xmlns="http://www.w3.org/2000/svg" xmlns:xlink="http://www.w3.org/1999/xlink">
<g id="graph0" class="graph" transform="scale(1 1) rotate(0) translate(4 910)">
<title>public.albums_tags</title>
<polygon fill="#ffffff" stroke="transparent" points="-4,4 -4,-910 879,-910 879,4 -4,4"/>
<!-- public.albums_tags -->
<g id="node1" class="node">
<title>public.albums_tags</title>
<polygon fill="#efefef" stroke="transparent" points="252,-814 252,-860 649,-860 649,-814 252,-814"/>
<polygon fill="none" stroke="#000000" points="252,-814 252,-860 649,-860 649,-814 252,-814"/>
<text text-anchor="start" x="324.8556" y="-837.8" font-family="Arial Bold" font-size="18.00" fill="#000000">public.albums_tags</text>
<text text-anchor="start" x="478.8906" y="-837.8" font-family="Arial" font-size="14.00" fill="#000000"> </text>
<text text-anchor="start" x="482.7812" y="-837.8" font-family="Arial" font-size="14.00" fill="#666666">[BASE TABLE]</text>
<text text-anchor="start" x="405.3976" y="-823.4" font-family="Arial" font-size="14.00" fill="#333333">アルバムタグ</text>
<polygon fill="none" stroke="#000000" points="252,-784 252,-814 649,-814 649,-784 252,-784"/>
<text text-anchor="start" x="259" y="-795.4" font-family="Arial" font-size="14.00" fill="#000000">album_id </text>
<text text-anchor="start" x="319.6774" y="-795.4" font-family="Arial" font-size="14.00" fill="#666666">[text]</text>
<text text-anchor="start" x="350.0224" y="-795.4" font-family="Arial" font-size="14.00" fill="#000000"> アルバムID</text>
<polygon fill="none" stroke="#000000" points="252,-754 252,-784 649,-784 649,-754 252,-754"/>
<text text-anchor="start" x="259" y="-765.4" font-family="Arial" font-size="14.00" fill="#000000">tag_id </text>
<text text-anchor="start" x="301.0182" y="-765.4" font-family="Arial" font-size="14.00" fill="#666666">[text]</text>
<text text-anchor="start" x="331.3632" y="-765.4" font-family="Arial" font-size="14.00" fill="#000000"> タグID</text>
<polygon fill="none" stroke="#000000" points="252,-724 252,-754 649,-754 649,-724 252,-724"/>
<text text-anchor="start" x="258.7826" y="-735.4" font-family="Arial" font-size="14.00" fill="#000000">locked </text>
<text text-anchor="start" x="303.1276" y="-735.4" font-family="Arial" font-size="14.00" fill="#666666">[boolean]</text>
<text text-anchor="start" x="360.711" y="-735.4" font-family="Arial" font-size="14.00" fill="#000000"> ロック有無(true: ロック、false: アンロック)</text>
<polygon fill="none" stroke="#000000" points="252,-694 252,-724 649,-724 649,-694 252,-694"/>
<text text-anchor="start" x="259" y="-705.4" font-family="Arial" font-size="14.00" fill="#000000">created_at </text>
<text text-anchor="start" x="329.028" y="-705.4" font-family="Arial" font-size="14.00" fill="#666666">[timestamp with time zone]</text>
<text text-anchor="start" x="494.7124" y="-705.4" font-family="Arial" font-size="14.00" fill="#000000"> 作成日時</text>
<polygon fill="none" stroke="#000000" points="252,-664 252,-694 649,-694 649,-664 252,-664"/>
<text text-anchor="start" x="259" y="-675.4" font-family="Arial" font-size="14.00" fill="#000000">updated_at </text>
<text text-anchor="start" x="332.9326" y="-675.4" font-family="Arial" font-size="14.00" fill="#666666">[timestamp with time zone]</text>
<text text-anchor="start" x="498.617" y="-675.4" font-family="Arial" font-size="14.00" fill="#000000"> 更新日時</text>
<polygon fill="none" stroke="#000000" stroke-width="3" points="250,-662.5 250,-861.5 650,-861.5 650,-662.5 250,-662.5"/>
</g>
<!-- public.albums -->
<g id="node2" class="node">
<title>public.albums</title>
<polygon fill="#efefef" stroke="transparent" points="85,-493 85,-539 399,-539 399,-493 85,-493"/>
<polygon fill="none" stroke="#000000" points="85,-493 85,-539 399,-539 399,-493 85,-493"/>
<text text-anchor="start" x="138.366" y="-516.8" font-family="Arial Bold" font-size="18.00" fill="#000000">public.albums</text>
<text text-anchor="start" x="248.3802" y="-516.8" font-family="Arial" font-size="14.00" fill="#000000"> </text>
<text text-anchor="start" x="252.2708" y="-516.8" font-family="Arial" font-size="14.00" fill="#666666">[BASE TABLE]</text>
<text text-anchor="start" x="212.1884" y="-502.4" font-family="Arial" font-size="14.00" fill="#333333">アルバム</text>
<polygon fill="none" stroke="#000000" points="85,-463 85,-493 399,-493 399,-463 85,-463"/>
<text text-anchor="start" x="92" y="-474.4" font-family="Arial" font-size="14.00" fill="#000000">id </text>
<text text-anchor="start" x="106.7798" y="-474.4" font-family="Arial" font-size="14.00" fill="#666666">[text]</text>
<polygon fill="none" stroke="#000000" points="85,-433 85,-463 399,-463 399,-433 85,-433"/>
<text text-anchor="start" x="92" y="-444.4" font-family="Arial" font-size="14.00" fill="#000000">name </text>
<text text-anchor="start" x="130.899" y="-444.4" font-family="Arial" font-size="14.00" fill="#666666">[text]</text>
<text text-anchor="start" x="161.244" y="-444.4" font-family="Arial" font-size="14.00" fill="#000000"> 名前</text>
<polygon fill="none" stroke="#000000" points="85,-403 85,-433 399,-433 399,-403 85,-403"/>
<text text-anchor="start" x="92" y="-414.4" font-family="Arial" font-size="14.00" fill="#000000">release_circle_name </text>
<text text-anchor="start" x="225.0182" y="-414.4" font-family="Arial" font-size="14.00" fill="#666666">[text]</text>
<text text-anchor="start" x="255.3632" y="-414.4" font-family="Arial" font-size="14.00" fill="#000000"> 頒布サークル名</text>
<polygon fill="none" stroke="#000000" points="85,-373 85,-403 399,-403 399,-373 85,-373"/>
<text text-anchor="start" x="92" y="-384.4" font-family="Arial" font-size="14.00" fill="#000000">release_date </text>
<text text-anchor="start" x="176.8092" y="-384.4" font-family="Arial" font-size="14.00" fill="#666666">[date]</text>
<text text-anchor="start" x="211.8288" y="-384.4" font-family="Arial" font-size="14.00" fill="#000000"> 頒布日</text>
<polygon fill="none" stroke="#000000" points="85,-343 85,-373 399,-373 399,-343 85,-343"/>
<text text-anchor="start" x="92" y="-354.4" font-family="Arial" font-size="14.00" fill="#000000">event_id </text>
<text text-anchor="start" x="148.8008" y="-354.4" font-family="Arial" font-size="14.00" fill="#666666">[text]</text>
<text text-anchor="start" x="179.1458" y="-354.4" font-family="Arial" font-size="14.00" fill="#000000"> イベントID</text>
<polygon fill="none" stroke="#000000" points="85,-313 85,-343 399,-343 399,-313 85,-313"/>
<text text-anchor="start" x="92" y="-324.4" font-family="Arial" font-size="14.00" fill="#000000">sub_event_id </text>
<text text-anchor="start" x="179.1486" y="-324.4" font-family="Arial" font-size="14.00" fill="#666666">[text]</text>
<text text-anchor="start" x="209.4936" y="-324.4" font-family="Arial" font-size="14.00" fill="#000000"> サブイベントID</text>
<polygon fill="none" stroke="#000000" points="85,-283 85,-313 399,-313 399,-283 85,-283"/>
<text text-anchor="start" x="92" y="-294.4" font-family="Arial" font-size="14.00" fill="#000000">search_enabled </text>
<text text-anchor="start" x="195.4838" y="-294.4" font-family="Arial" font-size="14.00" fill="#666666">[boolean]</text>
<text text-anchor="start" x="253.0672" y="-294.4" font-family="Arial" font-size="14.00" fill="#000000"> 検索対象とするか</text>
<polygon fill="none" stroke="#000000" points="85,-253 85,-283 399,-283 399,-253 85,-253"/>
<text text-anchor="start" x="92" y="-264.4" font-family="Arial" font-size="14.00" fill="#000000">album_number </text>
<text text-anchor="start" x="189.2398" y="-264.4" font-family="Arial" font-size="14.00" fill="#666666">[text]</text>
<polygon fill="none" stroke="#000000" points="85,-223 85,-253 399,-253 399,-223 85,-223"/>
<text text-anchor="start" x="92" y="-234.4" font-family="Arial" font-size="14.00" fill="#000000">event_price </text>
<text text-anchor="start" x="168.244" y="-234.4" font-family="Arial" font-size="14.00" fill="#666666">[numeric]</text>
<text text-anchor="start" x="225.8008" y="-234.4" font-family="Arial" font-size="14.00" fill="#000000"> イベント価格</text>
<polygon fill="none" stroke="#000000" points="85,-193 85,-223 399,-223 399,-193 85,-193"/>
<text text-anchor="start" x="92" y="-204.4" font-family="Arial" font-size="14.00" fill="#000000">currency </text>
<text text-anchor="start" x="149.5596" y="-204.4" font-family="Arial" font-size="14.00" fill="#666666">[text]</text>
<text text-anchor="start" x="179.9046" y="-204.4" font-family="Arial" font-size="14.00" fill="#000000"> 通貨(default: JPY)</text>
<polygon fill="none" stroke="#000000" points="85,-163 85,-193 399,-193 399,-163 85,-163"/>
<text text-anchor="start" x="92" y="-174.4" font-family="Arial" font-size="14.00" fill="#000000">credit </text>
<text text-anchor="start" x="130.1136" y="-174.4" font-family="Arial" font-size="14.00" fill="#666666">[text]</text>
<text text-anchor="start" x="160.4586" y="-174.4" font-family="Arial" font-size="14.00" fill="#000000"> クレジット</text>
<polygon fill="none" stroke="#000000" points="85,-133 85,-163 399,-163 399,-133 85,-133"/>
<text text-anchor="start" x="92" y="-144.4" font-family="Arial" font-size="14.00" fill="#000000">introduction </text>
<text text-anchor="start" x="168.2412" y="-144.4" font-family="Arial" font-size="14.00" fill="#666666">[text]</text>
<text text-anchor="start" x="198.5862" y="-144.4" font-family="Arial" font-size="14.00" fill="#000000"> 紹介</text>
<polygon fill="none" stroke="#000000" points="85,-103 85,-133 399,-133 399,-103 85,-103"/>
<text text-anchor="start" x="92" y="-114.4" font-family="Arial" font-size="14.00" fill="#000000">url </text>
<text text-anchor="start" x="111.4404" y="-114.4" font-family="Arial" font-size="14.00" fill="#666666">[text]</text>
<text text-anchor="start" x="141.7854" y="-114.4" font-family="Arial" font-size="14.00" fill="#000000"> URL</text>
<polygon fill="none" stroke="#000000" points="85,-73 85,-103 399,-103 399,-73 85,-73"/>
<text text-anchor="start" x="91.8542" y="-84.4" font-family="Arial" font-size="14.00" fill="#000000">created_at </text>
<text text-anchor="start" x="161.8822" y="-84.4" font-family="Arial" font-size="14.00" fill="#666666">[timestamp with time zone]</text>
<text text-anchor="start" x="327.5666" y="-84.4" font-family="Arial" font-size="14.00" fill="#000000"> 作成日時</text>
<polygon fill="none" stroke="#000000" points="85,-43 85,-73 399,-73 399,-43 85,-43"/>
<text text-anchor="start" x="92" y="-54.4" font-family="Arial" font-size="14.00" fill="#000000">updated_at </text>
<text text-anchor="start" x="165.9326" y="-54.4" font-family="Arial" font-size="14.00" fill="#666666">[timestamp with time zone]</text>
<text text-anchor="start" x="331.617" y="-54.4" font-family="Arial" font-size="14.00" fill="#000000"> 更新日時</text>
</g>
<!-- public.albums_tags&#45;&gt;public.albums -->
<g id="edge1" class="edge">
<title>public.albums_tags:album_id&#45;&gt;public.albums:id</title>
<path fill="none" stroke="#000000" d="M241.8239,-798.303C174.3595,-788.5341 204.572,-678.4446 252,-618 293.5224,-565.0818 357.4776,-634.9182 399,-582 427.5332,-545.6359 445.2222,-478 399,-478"/>
<polygon fill="#000000" stroke="#000000" points="242.0234,-798.3166 251.6925,-803.4895 247.0117,-798.6583 252,-799 252,-799 252,-799 247.0117,-798.6583 252.3075,-794.5105 242.0234,-798.3166 242.0234,-798.3166"/>
<text text-anchor="start" x="6.5565" y="-809" font-family="Arial" font-size="10.00" fill="#000000">FOREIGN KEY (album_id) REFERENCES albums(id)</text>
</g>
<!-- public.tags -->
<g id="node3" class="node">
<title>public.tags</title>
<polygon fill="#efefef" stroke="transparent" points="503,-343 503,-389 817,-389 817,-343 503,-343"/>
<polygon fill="none" stroke="#000000" points="503,-343 503,-389 817,-389 817,-343 503,-343"/>
<text text-anchor="start" x="568.3612" y="-366.8" font-family="Arial Bold" font-size="18.00" fill="#000000">public.tags</text>
<text text-anchor="start" x="654.385" y="-366.8" font-family="Arial" font-size="14.00" fill="#000000"> </text>
<text text-anchor="start" x="658.2756" y="-366.8" font-family="Arial" font-size="14.00" fill="#666666">[BASE TABLE]</text>
<text text-anchor="start" x="644.7092" y="-352.4" font-family="Arial" font-size="14.00" fill="#333333">タグ</text>
<polygon fill="none" stroke="#000000" points="503,-313 503,-343 817,-343 817,-313 503,-313"/>
<text text-anchor="start" x="510" y="-324.4" font-family="Arial" font-size="14.00" fill="#000000">id </text>
<text text-anchor="start" x="524.7798" y="-324.4" font-family="Arial" font-size="14.00" fill="#666666">[text]</text>
<polygon fill="none" stroke="#000000" points="503,-283 503,-313 817,-313 817,-283 503,-283"/>
<text text-anchor="start" x="510" y="-294.4" font-family="Arial" font-size="14.00" fill="#000000">name </text>
<text text-anchor="start" x="548.899" y="-294.4" font-family="Arial" font-size="14.00" fill="#666666">[text]</text>
<text text-anchor="start" x="579.244" y="-294.4" font-family="Arial" font-size="14.00" fill="#000000"> 名前</text>
<polygon fill="none" stroke="#000000" points="503,-253 503,-283 817,-283 817,-253 503,-253"/>
<text text-anchor="start" x="510" y="-264.4" font-family="Arial" font-size="14.00" fill="#000000">tag_type </text>
<text text-anchor="start" x="567.5848" y="-264.4" font-family="Arial" font-size="14.00" fill="#666666">[tag_type]</text>
<text text-anchor="start" x="629.0602" y="-264.4" font-family="Arial" font-size="14.00" fill="#000000"> タグ種別</text>
<polygon fill="none" stroke="#000000" points="503,-223 503,-253 817,-253 817,-223 503,-223"/>
<text text-anchor="start" x="509.8542" y="-234.4" font-family="Arial" font-size="14.00" fill="#000000">created_at </text>
<text text-anchor="start" x="579.8822" y="-234.4" font-family="Arial" font-size="14.00" fill="#666666">[timestamp with time zone]</text>
<text text-anchor="start" x="745.5666" y="-234.4" font-family="Arial" font-size="14.00" fill="#000000"> 作成日時</text>
<polygon fill="none" stroke="#000000" points="503,-193 503,-223 817,-223 817,-193 503,-193"/>
<text text-anchor="start" x="510" y="-204.4" font-family="Arial" font-size="14.00" fill="#000000">updated_at </text>
<text text-anchor="start" x="583.9326" y="-204.4" font-family="Arial" font-size="14.00" fill="#666666">[timestamp with time zone]</text>
<text text-anchor="start" x="749.617" y="-204.4" font-family="Arial" font-size="14.00" fill="#000000"> 更新日時</text>
</g>
<!-- public.albums_tags&#45;&gt;public.tags -->
<g id="edge2" class="edge">
<title>public.albums_tags:tag_id&#45;&gt;public.tags:id</title>
<path fill="none" stroke="#000000" d="M659.025,-768.2326C711.2381,-759.4942 669.7224,-677.9611 649,-618 614.6727,-518.6724 537.3273,-531.3276 503,-432 487.9019,-388.3131 456.7778,-328 503,-328"/>
<polygon fill="#000000" stroke="#000000" points="658.9708,-768.2366 648.6565,-764.5131 653.9854,-768.6183 649,-769 649,-769 649,-769 653.9854,-768.6183 649.3435,-773.4869 658.9708,-768.2366 658.9708,-768.2366"/>
<text text-anchor="start" x="655.8845" y="-779" font-family="Arial" font-size="10.00" fill="#000000">FOREIGN KEY (tag_id) REFERENCES tags(id)</text>
</g>
</g>
</svg>
