<?xml version="1.0" encoding="UTF-8" standalone="no"?>
<!DOCTYPE svg PUBLIC "-//W3C//DTD SVG 1.1//EN"
 "http://www.w3.org/Graphics/SVG/1.1/DTD/svg11.dtd">
<!-- Generated by graphviz version 2.40.1 (20161225.0304)
 -->
<!-- Title: public.artist_details Pages: 1 -->
<svg width="776pt" height="734pt"
 viewBox="0.00 0.00 776.00 734.00" xmlns="http://www.w3.org/2000/svg" xmlns:xlink="http://www.w3.org/1999/xlink">
<g id="graph0" class="graph" transform="scale(1 1) rotate(0) translate(4 730)">
<title>public.artist_details</title>
<polygon fill="#ffffff" stroke="transparent" points="-4,4 -4,-730 772,-730 772,4 -4,4"/>
<!-- public.artist_details -->
<g id="node1" class="node">
<title>public.artist_details</title>
<polygon fill="#efefef" stroke="transparent" points="180,-634 180,-680 527,-680 527,-634 180,-634"/>
<polygon fill="none" stroke="#000000" points="180,-634 180,-680 527,-680 527,-634 180,-634"/>
<text text-anchor="start" x="228.3623" y="-657.8" font-family="Arial Bold" font-size="18.00" fill="#000000">public.artist_details</text>
<text text-anchor="start" x="381.3839" y="-657.8" font-family="Arial" font-size="14.00" fill="#000000"> </text>
<text text-anchor="start" x="385.2745" y="-657.8" font-family="Arial" font-size="14.00" fill="#666666">[BASE TABLE]</text>
<text text-anchor="start" x="290.3341" y="-643.4" font-family="Arial" font-size="14.00" fill="#333333">アーティスト詳細</text>
<polygon fill="none" stroke="#000000" points="180,-604 180,-634 527,-634 527,-604 180,-604"/>
<text text-anchor="start" x="187" y="-615.4" font-family="Arial" font-size="14.00" fill="#000000">artist_id </text>
<text text-anchor="start" x="239.8934" y="-615.4" font-family="Arial" font-size="14.00" fill="#666666">[text]</text>
<text text-anchor="start" x="270.2384" y="-615.4" font-family="Arial" font-size="14.00" fill="#000000"> アーティストID</text>
<polygon fill="none" stroke="#000000" points="180,-574 180,-604 527,-604 527,-574 180,-574"/>
<text text-anchor="start" x="187" y="-585.4" font-family="Arial" font-size="14.00" fill="#000000">description </text>
<text text-anchor="start" x="258.568" y="-585.4" font-family="Arial" font-size="14.00" fill="#666666">[text]</text>
<text text-anchor="start" x="288.913" y="-585.4" font-family="Arial" font-size="14.00" fill="#000000"> 説明</text>
<polygon fill="none" stroke="#000000" points="180,-544 180,-574 527,-574 527,-544 180,-544"/>
<text text-anchor="start" x="187" y="-555.4" font-family="Arial" font-size="14.00" fill="#000000">url </text>
<text text-anchor="start" x="206.4404" y="-555.4" font-family="Arial" font-size="14.00" fill="#666666">[text]</text>
<text text-anchor="start" x="236.7854" y="-555.4" font-family="Arial" font-size="14.00" fill="#000000"> URL</text>
<polygon fill="none" stroke="#000000" points="180,-514 180,-544 527,-544 527,-514 180,-514"/>
<text text-anchor="start" x="187" y="-525.4" font-family="Arial" font-size="14.00" fill="#000000">blog_url </text>
<text text-anchor="start" x="240.6774" y="-525.4" font-family="Arial" font-size="14.00" fill="#666666">[text]</text>
<text text-anchor="start" x="271.0224" y="-525.4" font-family="Arial" font-size="14.00" fill="#000000"> ブログ URL</text>
<polygon fill="none" stroke="#000000" points="180,-484 180,-514 527,-514 527,-484 180,-484"/>
<text text-anchor="start" x="187" y="-495.4" font-family="Arial" font-size="14.00" fill="#000000">twitter_url </text>
<text text-anchor="start" x="251.5512" y="-495.4" font-family="Arial" font-size="14.00" fill="#666666">[text]</text>
<text text-anchor="start" x="281.8962" y="-495.4" font-family="Arial" font-size="14.00" fill="#000000"> Twitter URL</text>
<polygon fill="none" stroke="#000000" points="180,-454 180,-484 527,-484 527,-454 180,-454"/>
<text text-anchor="start" x="186.886" y="-465.4" font-family="Arial" font-size="14.00" fill="#000000">youtube_channel_url </text>
<text text-anchor="start" x="320.7148" y="-465.4" font-family="Arial" font-size="14.00" fill="#666666">[text]</text>
<text text-anchor="start" x="351.0598" y="-465.4" font-family="Arial" font-size="14.00" fill="#000000"> YouTubeチャンネル URL</text>
<polygon fill="none" stroke="#000000" points="180,-424 180,-454 527,-454 527,-424 180,-424"/>
<text text-anchor="start" x="187" y="-435.4" font-family="Arial" font-size="14.00" fill="#000000">created_at </text>
<text text-anchor="start" x="257.028" y="-435.4" font-family="Arial" font-size="14.00" fill="#666666">[timestamp with time zone]</text>
<text text-anchor="start" x="422.7124" y="-435.4" font-family="Arial" font-size="14.00" fill="#000000"> 作成日時</text>
<polygon fill="none" stroke="#000000" points="180,-394 180,-424 527,-424 527,-394 180,-394"/>
<text text-anchor="start" x="187" y="-405.4" font-family="Arial" font-size="14.00" fill="#000000">updated_at </text>
<text text-anchor="start" x="260.9326" y="-405.4" font-family="Arial" font-size="14.00" fill="#666666">[timestamp with time zone]</text>
<text text-anchor="start" x="426.617" y="-405.4" font-family="Arial" font-size="14.00" fill="#000000"> 更新日時</text>
<polygon fill="none" stroke="#000000" stroke-width="3" points="178,-392.5 178,-681.5 528,-681.5 528,-392.5 178,-392.5"/>
</g>
<!-- public.artists -->
<g id="node2" class="node">
<title>public.artists</title>
<polygon fill="#efefef" stroke="transparent" points="43,-223 43,-269 665,-269 665,-223 43,-223"/>
<polygon fill="none" stroke="#000000" points="43,-223 43,-269 665,-269 665,-223 43,-223"/>
<text text-anchor="start" x="255.37" y="-246.8" font-family="Arial Bold" font-size="18.00" fill="#000000">public.artists</text>
<text text-anchor="start" x="355.3762" y="-246.8" font-family="Arial" font-size="14.00" fill="#000000"> </text>
<text text-anchor="start" x="359.2668" y="-246.8" font-family="Arial" font-size="14.00" fill="#666666">[BASE TABLE]</text>
<text text-anchor="start" x="305.7889" y="-232.4" font-family="Arial" font-size="14.00" fill="#333333">アーティスト</text>
<polygon fill="none" stroke="#000000" points="43,-193 43,-223 665,-223 665,-193 43,-193"/>
<text text-anchor="start" x="50" y="-204.4" font-family="Arial" font-size="14.00" fill="#000000">id </text>
<text text-anchor="start" x="64.7798" y="-204.4" font-family="Arial" font-size="14.00" fill="#666666">[text]</text>
<polygon fill="none" stroke="#000000" points="43,-163 43,-193 665,-193 665,-163 43,-163"/>
<text text-anchor="start" x="50" y="-174.4" font-family="Arial" font-size="14.00" fill="#000000">name </text>
<text text-anchor="start" x="88.899" y="-174.4" font-family="Arial" font-size="14.00" fill="#666666">[text]</text>
<text text-anchor="start" x="119.244" y="-174.4" font-family="Arial" font-size="14.00" fill="#000000"> 名前</text>
<polygon fill="none" stroke="#000000" points="43,-133 43,-163 665,-163 665,-133 43,-133"/>
<text text-anchor="start" x="49.5763" y="-144.4" font-family="Arial" font-size="14.00" fill="#000000">initial_letter_type </text>
<text text-anchor="start" x="158.4837" y="-144.4" font-family="Arial" font-size="14.00" fill="#666666">[initial_letter_type]</text>
<text text-anchor="start" x="271.2817" y="-144.4" font-family="Arial" font-size="14.00" fill="#000000"> 頭文字の文字種別(symbol,number,alphabet,kana,kanji,other)</text>
<polygon fill="none" stroke="#000000" points="43,-103 43,-133 665,-133 665,-103 43,-103"/>
<text text-anchor="start" x="50" y="-114.4" font-family="Arial" font-size="14.00" fill="#000000">initial_letter_detail </text>
<text text-anchor="start" x="165.9032" y="-114.4" font-family="Arial" font-size="14.00" fill="#666666">[text]</text>
<text text-anchor="start" x="196.2482" y="-114.4" font-family="Arial" font-size="14.00" fill="#000000"> 開催日</text>
<polygon fill="none" stroke="#000000" points="43,-73 43,-103 665,-103 665,-73 43,-73"/>
<text text-anchor="start" x="50" y="-84.4" font-family="Arial" font-size="14.00" fill="#000000">created_at </text>
<text text-anchor="start" x="120.028" y="-84.4" font-family="Arial" font-size="14.00" fill="#666666">[timestamp with time zone]</text>
<text text-anchor="start" x="285.7124" y="-84.4" font-family="Arial" font-size="14.00" fill="#000000"> 作成日時</text>
<polygon fill="none" stroke="#000000" points="43,-43 43,-73 665,-73 665,-43 43,-43"/>
<text text-anchor="start" x="50" y="-54.4" font-family="Arial" font-size="14.00" fill="#000000">updated_at </text>
<text text-anchor="start" x="123.9326" y="-54.4" font-family="Arial" font-size="14.00" fill="#666666">[timestamp with time zone]</text>
<text text-anchor="start" x="289.617" y="-54.4" font-family="Arial" font-size="14.00" fill="#000000"> 更新日時</text>
</g>
<!-- public.artist_details&#45;&gt;public.artists -->
<g id="edge1" class="edge">
<title>public.artist_details:artist_id&#45;&gt;public.artists:id</title>
<path fill="none" stroke="#000000" d="M537.1796,-618.5365C645.1515,-608.3742 606.5468,-433.6832 527,-348 453.6196,-268.9588 116.3804,-391.0412 43,-312 11.5515,-278.1255 -3.2222,-208 43,-208"/>
<polygon fill="#000000" stroke="#000000" points="536.9896,-618.545 526.7953,-614.5047 531.9948,-618.7725 527,-619 527,-619 527,-619 531.9948,-618.7725 527.2047,-623.4953 536.9896,-618.545 536.9896,-618.545"/>
<text text-anchor="start" x="534.1165" y="-629" font-family="Arial" font-size="10.00" fill="#000000">FOREIGN KEY (artist_id) REFERENCES artists(id)</text>
</g>
</g>
</svg>
