<?xml version="1.0" encoding="UTF-8" standalone="no"?>
<!DOCTYPE svg PUBLIC "-//W3C//DTD SVG 1.1//EN"
 "http://www.w3.org/Graphics/SVG/1.1/DTD/svg11.dtd">
<!-- Generated by graphviz version 2.40.1 (20161225.0304)
 -->
<!-- Title: public.admin_users Pages: 1 -->
<svg width="638pt" height="686pt"
 viewBox="0.00 0.00 638.00 686.00" xmlns="http://www.w3.org/2000/svg" xmlns:xlink="http://www.w3.org/1999/xlink">
<g id="graph0" class="graph" transform="scale(1 1) rotate(0) translate(4 682)">
<title>public.admin_users</title>
<polygon fill="#ffffff" stroke="transparent" points="-4,4 -4,-682 634,-682 634,4 -4,4"/>
<!-- public.admin_users -->
<g id="node1" class="node">
<title>public.admin_users</title>
<polygon fill="#efefef" stroke="transparent" points="46,-586 46,-632 584,-632 584,-586 46,-586"/>
<polygon fill="none" stroke="#000000" points="46,-586 46,-632 584,-632 584,-586 46,-586"/>
<text text-anchor="start" x="173.7035" y="-609.8" font-family="Arial Bold" font-size="18.00" fill="#000000">public.admin_users</text>
<text text-anchor="start" x="328.7285" y="-609.8" font-family="Arial" font-size="14.00" fill="#000000">    </text>
<text text-anchor="start" x="362.9333" y="-609.8" font-family="Arial" font-size="14.00" fill="#666666">[BASE TABLE]</text>
<text text-anchor="start" x="253.8186" y="-595.4" font-family="Arial" font-size="14.00" fill="#333333">管理者ユーザー</text>
<polygon fill="none" stroke="#000000" points="46,-556 46,-586 584,-586 584,-556 46,-556"/>
<text text-anchor="start" x="53" y="-567.4" font-family="Arial" font-size="14.00" fill="#000000">id </text>
<text text-anchor="start" x="67.7798" y="-567.4" font-family="Arial" font-size="14.00" fill="#666666">[text]</text>
<polygon fill="none" stroke="#000000" points="46,-526 46,-556 584,-556 584,-526 46,-526"/>
<text text-anchor="start" x="53" y="-537.4" font-family="Arial" font-size="14.00" fill="#000000">name </text>
<text text-anchor="start" x="91.899" y="-537.4" font-family="Arial" font-size="14.00" fill="#666666">[text]</text>
<text text-anchor="start" x="122.244" y="-537.4" font-family="Arial" font-size="14.00" fill="#000000"> 名前</text>
<polygon fill="none" stroke="#000000" points="46,-496 46,-526 584,-526 584,-496 46,-496"/>
<text text-anchor="start" x="53" y="-507.4" font-family="Arial" font-size="14.00" fill="#000000">email </text>
<text text-anchor="start" x="90.3296" y="-507.4" font-family="Arial" font-size="14.00" fill="#666666">[text]</text>
<text text-anchor="start" x="120.6746" y="-507.4" font-family="Arial" font-size="14.00" fill="#000000"> メールアドレス</text>
<polygon fill="none" stroke="#000000" points="46,-466 46,-496 584,-496 584,-466 46,-466"/>
<text text-anchor="start" x="53" y="-477.4" font-family="Arial" font-size="14.00" fill="#000000">encrypted_password </text>
<text text-anchor="start" x="186.035" y="-477.4" font-family="Arial" font-size="14.00" fill="#666666">[text]</text>
<text text-anchor="start" x="216.38" y="-477.4" font-family="Arial" font-size="14.00" fill="#000000"> パスワード</text>
<polygon fill="none" stroke="#000000" points="46,-436 46,-466 584,-466 584,-436 46,-436"/>
<text text-anchor="start" x="53" y="-447.4" font-family="Arial" font-size="14.00" fill="#000000">reset_password_token </text>
<text text-anchor="start" x="197.7082" y="-447.4" font-family="Arial" font-size="14.00" fill="#666666">[text]</text>
<text text-anchor="start" x="228.0532" y="-447.4" font-family="Arial" font-size="14.00" fill="#000000"> パスワードリセットトークン</text>
<polygon fill="none" stroke="#000000" points="46,-406 46,-436 584,-436 584,-406 46,-406"/>
<text text-anchor="start" x="52.8717" y="-417.4" font-family="Arial" font-size="14.00" fill="#000000">reset_password_sent_at </text>
<text text-anchor="start" x="209.2531" y="-417.4" font-family="Arial" font-size="14.00" fill="#666666">[timestamp with time zone]</text>
<text text-anchor="start" x="374.9375" y="-417.4" font-family="Arial" font-size="14.00" fill="#000000"> パスワードリセット送信日時</text>
<polygon fill="none" stroke="#000000" points="46,-376 46,-406 584,-406 584,-376 46,-376"/>
<text text-anchor="start" x="53" y="-387.4" font-family="Arial" font-size="14.00" fill="#000000">remember_created_at </text>
<text text-anchor="start" x="194.5834" y="-387.4" font-family="Arial" font-size="14.00" fill="#666666">[timestamp with time zone]</text>
<text text-anchor="start" x="360.2678" y="-387.4" font-family="Arial" font-size="14.00" fill="#000000"> ログイン情報記憶日時</text>
<polygon fill="none" stroke="#000000" points="46,-346 46,-376 584,-376 584,-346 46,-346"/>
<text text-anchor="start" x="53" y="-357.4" font-family="Arial" font-size="14.00" fill="#000000">sign_in_count </text>
<text text-anchor="start" x="143.2552" y="-357.4" font-family="Arial" font-size="14.00" fill="#666666">[integer]</text>
<text text-anchor="start" x="193.8246" y="-357.4" font-family="Arial" font-size="14.00" fill="#000000"> ログイン回数</text>
<polygon fill="none" stroke="#000000" points="46,-316 46,-346 584,-346 584,-316 46,-316"/>
<text text-anchor="start" x="53" y="-327.4" font-family="Arial" font-size="14.00" fill="#000000">current_sign_in_at </text>
<text text-anchor="start" x="172.0322" y="-327.4" font-family="Arial" font-size="14.00" fill="#666666">[timestamp with time zone]</text>
<text text-anchor="start" x="337.7166" y="-327.4" font-family="Arial" font-size="14.00" fill="#000000"> 現在のログイン日時</text>
<polygon fill="none" stroke="#000000" points="46,-286 46,-316 584,-316 584,-286 46,-286"/>
<text text-anchor="start" x="53" y="-297.4" font-family="Arial" font-size="14.00" fill="#000000">last_sign_in_at </text>
<text text-anchor="start" x="150.2524" y="-297.4" font-family="Arial" font-size="14.00" fill="#666666">[timestamp with time zone]</text>
<text text-anchor="start" x="315.9368" y="-297.4" font-family="Arial" font-size="14.00" fill="#000000"> 最後のログイン日時</text>
<polygon fill="none" stroke="#000000" points="46,-256 46,-286 584,-286 584,-256 46,-256"/>
<text text-anchor="start" x="53" y="-267.4" font-family="Arial" font-size="14.00" fill="#000000">current_sign_in_ip </text>
<text text-anchor="start" x="171.2482" y="-267.4" font-family="Arial" font-size="14.00" fill="#666666">[text]</text>
<text text-anchor="start" x="201.5932" y="-267.4" font-family="Arial" font-size="14.00" fill="#000000"> 現在のログインIPアドレス</text>
<polygon fill="none" stroke="#000000" points="46,-226 46,-256 584,-256 584,-226 46,-226"/>
<text text-anchor="start" x="53" y="-237.4" font-family="Arial" font-size="14.00" fill="#000000">last_sign_in_ip </text>
<text text-anchor="start" x="149.4684" y="-237.4" font-family="Arial" font-size="14.00" fill="#666666">[text]</text>
<text text-anchor="start" x="179.8134" y="-237.4" font-family="Arial" font-size="14.00" fill="#000000"> 最後のログインIPアドレス</text>
<polygon fill="none" stroke="#000000" points="46,-196 46,-226 584,-226 584,-196 46,-196"/>
<text text-anchor="start" x="53" y="-207.4" font-family="Arial" font-size="14.00" fill="#000000">confirmation_token </text>
<text text-anchor="start" x="175.1402" y="-207.4" font-family="Arial" font-size="14.00" fill="#666666">[text]</text>
<text text-anchor="start" x="205.4852" y="-207.4" font-family="Arial" font-size="14.00" fill="#000000"> 確認トークン</text>
<polygon fill="none" stroke="#000000" points="46,-166 46,-196 584,-196 584,-166 46,-166"/>
<text text-anchor="start" x="53" y="-177.4" font-family="Arial" font-size="14.00" fill="#000000">confirmed_at </text>
<text text-anchor="start" x="137.7952" y="-177.4" font-family="Arial" font-size="14.00" fill="#666666">[timestamp with time zone]</text>
<text text-anchor="start" x="303.4796" y="-177.4" font-family="Arial" font-size="14.00" fill="#000000"> 確認日時</text>
<polygon fill="none" stroke="#000000" points="46,-136 46,-166 584,-166 584,-136 46,-136"/>
<text text-anchor="start" x="53" y="-147.4" font-family="Arial" font-size="14.00" fill="#000000">confirmation_sent_at </text>
<text text-anchor="start" x="186.8134" y="-147.4" font-family="Arial" font-size="14.00" fill="#666666">[timestamp with time zone]</text>
<text text-anchor="start" x="352.4978" y="-147.4" font-family="Arial" font-size="14.00" fill="#000000"> 確認送信日時</text>
<polygon fill="none" stroke="#000000" points="46,-106 46,-136 584,-136 584,-106 46,-106"/>
<text text-anchor="start" x="53" y="-117.4" font-family="Arial" font-size="14.00" fill="#000000">unconfirmed_email </text>
<text text-anchor="start" x="175.1262" y="-117.4" font-family="Arial" font-size="14.00" fill="#666666">[text]</text>
<text text-anchor="start" x="205.4712" y="-117.4" font-family="Arial" font-size="14.00" fill="#000000"> 未確認メールアドレス</text>
<polygon fill="none" stroke="#000000" points="46,-76 46,-106 584,-106 584,-76 46,-76"/>
<text text-anchor="start" x="53" y="-87.4" font-family="Arial" font-size="14.00" fill="#000000">created_at </text>
<text text-anchor="start" x="123.028" y="-87.4" font-family="Arial" font-size="14.00" fill="#666666">[timestamp with time zone]</text>
<text text-anchor="start" x="288.7124" y="-87.4" font-family="Arial" font-size="14.00" fill="#000000"> 作成日時</text>
<polygon fill="none" stroke="#000000" points="46,-46 46,-76 584,-76 584,-46 46,-46"/>
<text text-anchor="start" x="53" y="-57.4" font-family="Arial" font-size="14.00" fill="#000000">updated_at </text>
<text text-anchor="start" x="126.9326" y="-57.4" font-family="Arial" font-size="14.00" fill="#666666">[timestamp with time zone]</text>
<text text-anchor="start" x="292.617" y="-57.4" font-family="Arial" font-size="14.00" fill="#000000"> 更新日時</text>
<polygon fill="none" stroke="#000000" stroke-width="3" points="44.5,-44.5 44.5,-633.5 585.5,-633.5 585.5,-44.5 44.5,-44.5"/>
</g>
</g>
</svg>
