<?xml version="1.0" encoding="UTF-8" standalone="no"?>
<!DOCTYPE svg PUBLIC "-//W3C//DTD SVG 1.1//EN"
 "http://www.w3.org/Graphics/SVG/1.1/DTD/svg11.dtd">
<!-- Generated by graphviz version 2.40.1 (20161225.0304)
 -->
<!-- Title: public.track_distribution_service_urls Pages: 1 -->
<svg width="732pt" height="764pt"
 viewBox="0.00 0.00 732.00 764.00" xmlns="http://www.w3.org/2000/svg" xmlns:xlink="http://www.w3.org/1999/xlink">
<g id="graph0" class="graph" transform="scale(1 1) rotate(0) translate(4 760)">
<title>public.track_distribution_service_urls</title>
<polygon fill="#ffffff" stroke="transparent" points="-4,4 -4,-760 728,-760 728,4 -4,4"/>
<!-- public.track_distribution_service_urls -->
<g id="node1" class="node">
<title>public.track_distribution_service_urls</title>
<polygon fill="#efefef" stroke="transparent" points="78,-664 78,-710 483,-710 483,-664 78,-664"/>
<polygon fill="none" stroke="#000000" points="78,-664 78,-710 483,-710 483,-664 78,-664"/>
<text text-anchor="start" x="84.8581" y="-687.8" font-family="Arial Bold" font-size="18.00" fill="#000000">public.track_distribution_service_urls</text>
<text text-anchor="start" x="378.8881" y="-687.8" font-family="Arial" font-size="14.00" fill="#000000"> </text>
<text text-anchor="start" x="382.7787" y="-687.8" font-family="Arial" font-size="14.00" fill="#666666">[BASE TABLE]</text>
<text text-anchor="start" x="196.6365" y="-673.4" font-family="Arial" font-size="14.00" fill="#333333">楽曲配信サービスURL</text>
<polygon fill="none" stroke="#000000" points="78,-634 78,-664 483,-664 483,-634 78,-634"/>
<text text-anchor="start" x="85" y="-645.4" font-family="Arial" font-size="14.00" fill="#000000">id </text>
<text text-anchor="start" x="99.7798" y="-645.4" font-family="Arial" font-size="14.00" fill="#666666">[text]</text>
<polygon fill="none" stroke="#000000" points="78,-604 78,-634 483,-634 483,-604 78,-604"/>
<text text-anchor="start" x="85" y="-615.4" font-family="Arial" font-size="14.00" fill="#000000">track_id </text>
<text text-anchor="start" x="137.8962" y="-615.4" font-family="Arial" font-size="14.00" fill="#666666">[text]</text>
<text text-anchor="start" x="168.2412" y="-615.4" font-family="Arial" font-size="14.00" fill="#000000"> トラックID</text>
<polygon fill="none" stroke="#000000" points="78,-574 78,-604 483,-604 483,-574 78,-574"/>
<text text-anchor="start" x="85" y="-585.4" font-family="Arial" font-size="14.00" fill="#000000">service </text>
<text text-anchor="start" x="133.223" y="-585.4" font-family="Arial" font-size="14.00" fill="#666666">[distribution_service]</text>
<text text-anchor="start" x="260.7938" y="-585.4" font-family="Arial" font-size="14.00" fill="#000000"> 配信サービス</text>
<polygon fill="none" stroke="#000000" points="78,-544 78,-574 483,-574 483,-544 78,-544"/>
<text text-anchor="start" x="85" y="-555.4" font-family="Arial" font-size="14.00" fill="#000000">url </text>
<text text-anchor="start" x="104.4404" y="-555.4" font-family="Arial" font-size="14.00" fill="#666666">[text]</text>
<text text-anchor="start" x="134.7854" y="-555.4" font-family="Arial" font-size="14.00" fill="#000000"> URL</text>
<polygon fill="none" stroke="#000000" points="78,-514 78,-544 483,-544 483,-514 78,-514"/>
<text text-anchor="start" x="85" y="-525.4" font-family="Arial" font-size="14.00" fill="#000000">created_at </text>
<text text-anchor="start" x="155.028" y="-525.4" font-family="Arial" font-size="14.00" fill="#666666">[timestamp with time zone]</text>
<text text-anchor="start" x="320.7124" y="-525.4" font-family="Arial" font-size="14.00" fill="#000000"> 作成日時</text>
<polygon fill="none" stroke="#000000" points="78,-484 78,-514 483,-514 483,-484 78,-484"/>
<text text-anchor="start" x="85" y="-495.4" font-family="Arial" font-size="14.00" fill="#000000">updated_at </text>
<text text-anchor="start" x="158.9326" y="-495.4" font-family="Arial" font-size="14.00" fill="#666666">[timestamp with time zone]</text>
<text text-anchor="start" x="324.617" y="-495.4" font-family="Arial" font-size="14.00" fill="#000000"> 更新日時</text>
<polygon fill="none" stroke="#000000" stroke-width="3" points="76,-482.5 76,-711.5 484,-711.5 484,-482.5 76,-482.5"/>
</g>
<!-- public.tracks -->
<g id="node2" class="node">
<title>public.tracks</title>
<polygon fill="#efefef" stroke="transparent" points="43,-313 43,-359 519,-359 519,-313 43,-313"/>
<polygon fill="none" stroke="#000000" points="43,-313 43,-359 519,-359 519,-313 43,-313"/>
<text text-anchor="start" x="182.3682" y="-336.8" font-family="Arial Bold" font-size="18.00" fill="#000000">public.tracks</text>
<text text-anchor="start" x="282.378" y="-336.8" font-family="Arial" font-size="14.00" fill="#000000"> </text>
<text text-anchor="start" x="286.2686" y="-336.8" font-family="Arial" font-size="14.00" fill="#666666">[BASE TABLE]</text>
<text text-anchor="start" x="254.1347" y="-322.4" font-family="Arial" font-size="14.00" fill="#333333">トラック</text>
<polygon fill="none" stroke="#000000" points="43,-283 43,-313 519,-313 519,-283 43,-283"/>
<text text-anchor="start" x="50" y="-294.4" font-family="Arial" font-size="14.00" fill="#000000">id </text>
<text text-anchor="start" x="64.7798" y="-294.4" font-family="Arial" font-size="14.00" fill="#666666">[text]</text>
<polygon fill="none" stroke="#000000" points="43,-253 43,-283 519,-283 519,-253 43,-253"/>
<text text-anchor="start" x="50" y="-264.4" font-family="Arial" font-size="14.00" fill="#000000">album_id </text>
<text text-anchor="start" x="110.6774" y="-264.4" font-family="Arial" font-size="14.00" fill="#666666">[text]</text>
<text text-anchor="start" x="141.0224" y="-264.4" font-family="Arial" font-size="14.00" fill="#000000"> アルバムID</text>
<polygon fill="none" stroke="#000000" points="43,-223 43,-253 519,-253 519,-223 43,-223"/>
<text text-anchor="start" x="50" y="-234.4" font-family="Arial" font-size="14.00" fill="#000000">name </text>
<text text-anchor="start" x="88.899" y="-234.4" font-family="Arial" font-size="14.00" fill="#666666">[text]</text>
<text text-anchor="start" x="119.244" y="-234.4" font-family="Arial" font-size="14.00" fill="#000000"> 名前</text>
<polygon fill="none" stroke="#000000" points="43,-193 43,-223 519,-223 519,-193 43,-193"/>
<text text-anchor="start" x="50" y="-204.4" font-family="Arial" font-size="14.00" fill="#000000">disc_number </text>
<text text-anchor="start" x="134.014" y="-204.4" font-family="Arial" font-size="14.00" fill="#666666">[integer]</text>
<text text-anchor="start" x="184.5834" y="-204.4" font-family="Arial" font-size="14.00" fill="#000000"> ディスク番号(default: 1)</text>
<polygon fill="none" stroke="#000000" points="43,-163 43,-193 519,-193 519,-163 43,-163"/>
<text text-anchor="start" x="50" y="-174.4" font-family="Arial" font-size="14.00" fill="#000000">track_number </text>
<text text-anchor="start" x="139.4586" y="-174.4" font-family="Arial" font-size="14.00" fill="#666666">[integer]</text>
<text text-anchor="start" x="190.028" y="-174.4" font-family="Arial" font-size="14.00" fill="#000000"> トラック番号</text>
<polygon fill="none" stroke="#000000" points="43,-133 43,-163 519,-163 519,-133 43,-133"/>
<text text-anchor="start" x="49.8425" y="-144.4" font-family="Arial" font-size="14.00" fill="#000000">release_date </text>
<text text-anchor="start" x="134.6517" y="-144.4" font-family="Arial" font-size="14.00" fill="#666666">[date]</text>
<text text-anchor="start" x="169.6713" y="-144.4" font-family="Arial" font-size="14.00" fill="#000000"> 頒布日(アルバムの頒布日と異なる場合に使用する)</text>
<polygon fill="none" stroke="#000000" points="43,-103 43,-133 519,-133 519,-103 43,-103"/>
<text text-anchor="start" x="50" y="-114.4" font-family="Arial" font-size="14.00" fill="#000000">search_enabled </text>
<text text-anchor="start" x="153.4838" y="-114.4" font-family="Arial" font-size="14.00" fill="#666666">[boolean]</text>
<text text-anchor="start" x="211.0672" y="-114.4" font-family="Arial" font-size="14.00" fill="#000000"> 検索対象とするか(default: true)</text>
<polygon fill="none" stroke="#000000" points="43,-73 43,-103 519,-103 519,-73 43,-73"/>
<text text-anchor="start" x="50" y="-84.4" font-family="Arial" font-size="14.00" fill="#000000">created_at </text>
<text text-anchor="start" x="120.028" y="-84.4" font-family="Arial" font-size="14.00" fill="#666666">[timestamp with time zone]</text>
<text text-anchor="start" x="285.7124" y="-84.4" font-family="Arial" font-size="14.00" fill="#000000"> 作成日時</text>
<polygon fill="none" stroke="#000000" points="43,-43 43,-73 519,-73 519,-43 43,-43"/>
<text text-anchor="start" x="50" y="-54.4" font-family="Arial" font-size="14.00" fill="#000000">updated_at </text>
<text text-anchor="start" x="123.9326" y="-54.4" font-family="Arial" font-size="14.00" fill="#666666">[timestamp with time zone]</text>
<text text-anchor="start" x="289.617" y="-54.4" font-family="Arial" font-size="14.00" fill="#000000"> 更新日時</text>
</g>
<!-- public.track_distribution_service_urls&#45;&gt;public.tracks -->
<g id="edge1" class="edge">
<title>public.track_distribution_service_urls:track_id&#45;&gt;public.tracks:id</title>
<path fill="none" stroke="#000000" d="M493.2042,-618.2791C561.0571,-608.1796 535.0653,-494.4992 483,-438 416.5182,-365.8566 109.4818,-474.1434 43,-402 11.6769,-368.0094 -3.2222,-298 43,-298"/>
<polygon fill="#000000" stroke="#000000" points="492.9751,-618.2952 482.6828,-614.5112 487.9876,-618.6476 483,-619 483,-619 483,-619 487.9876,-618.6476 483.3172,-623.4888 492.9751,-618.2952 492.9751,-618.2952"/>
<text text-anchor="start" x="490.1145" y="-629" font-family="Arial" font-size="10.00" fill="#000000">FOREIGN KEY (track_id) REFERENCES tracks(id)</text>
</g>
</g>
</svg>
