<?xml version="1.0" encoding="UTF-8" standalone="no"?>
<!DOCTYPE svg PUBLIC "-//W3C//DTD SVG 1.1//EN"
 "http://www.w3.org/Graphics/SVG/1.1/DTD/svg11.dtd">
<!-- Generated by graphviz version 2.40.1 (20161225.0304)
 -->
<!-- Title: public.circles_tags Pages: 1 -->
<svg width="1196pt" height="824pt"
 viewBox="0.00 0.00 1195.50 824.00" xmlns="http://www.w3.org/2000/svg" xmlns:xlink="http://www.w3.org/1999/xlink">
<g id="graph0" class="graph" transform="scale(1 1) rotate(0) translate(4 820)">
<title>public.circles_tags</title>
<polygon fill="#ffffff" stroke="transparent" points="-4,4 -4,-820 1191.5,-820 1191.5,4 -4,4"/>
<!-- public.circles_tags -->
<g id="node1" class="node">
<title>public.circles_tags</title>
<polygon fill="#efefef" stroke="transparent" points="472.5,-724 472.5,-770 869.5,-770 869.5,-724 472.5,-724"/>
<polygon fill="none" stroke="#000000" points="472.5,-724 472.5,-770 869.5,-770 869.5,-724 472.5,-724"/>
<text text-anchor="start" x="533.7076" y="-747.8" font-family="Arial Bold" font-size="18.00" fill="#000000">public.circles_tags</text>
<text text-anchor="start" x="680.7244" y="-747.8" font-family="Arial" font-size="14.00" fill="#000000">    </text>
<text text-anchor="start" x="714.9292" y="-747.8" font-family="Arial" font-size="14.00" fill="#666666">[BASE TABLE]</text>
<text text-anchor="start" x="621.2342" y="-733.4" font-family="Arial" font-size="14.00" fill="#333333">サークルタグ</text>
<polygon fill="none" stroke="#000000" points="472.5,-694 472.5,-724 869.5,-724 869.5,-694 472.5,-694"/>
<text text-anchor="start" x="479.5" y="-705.4" font-family="Arial" font-size="14.00" fill="#000000">circle_id </text>
<text text-anchor="start" x="534.7188" y="-705.4" font-family="Arial" font-size="14.00" fill="#666666">[text]</text>
<text text-anchor="start" x="565.0638" y="-705.4" font-family="Arial" font-size="14.00" fill="#000000"> サークルID</text>
<polygon fill="none" stroke="#000000" points="472.5,-664 472.5,-694 869.5,-694 869.5,-664 472.5,-664"/>
<text text-anchor="start" x="479.5" y="-675.4" font-family="Arial" font-size="14.00" fill="#000000">tag_id </text>
<text text-anchor="start" x="521.5182" y="-675.4" font-family="Arial" font-size="14.00" fill="#666666">[text]</text>
<text text-anchor="start" x="551.8632" y="-675.4" font-family="Arial" font-size="14.00" fill="#000000"> タグID</text>
<polygon fill="none" stroke="#000000" points="472.5,-634 472.5,-664 869.5,-664 869.5,-634 472.5,-634"/>
<text text-anchor="start" x="479.2826" y="-645.4" font-family="Arial" font-size="14.00" fill="#000000">locked </text>
<text text-anchor="start" x="523.6276" y="-645.4" font-family="Arial" font-size="14.00" fill="#666666">[boolean]</text>
<text text-anchor="start" x="581.211" y="-645.4" font-family="Arial" font-size="14.00" fill="#000000"> ロック有無(true: ロック、false: アンロック)</text>
<polygon fill="none" stroke="#000000" points="472.5,-604 472.5,-634 869.5,-634 869.5,-604 472.5,-604"/>
<text text-anchor="start" x="479.5" y="-615.4" font-family="Arial" font-size="14.00" fill="#000000">created_at </text>
<text text-anchor="start" x="549.528" y="-615.4" font-family="Arial" font-size="14.00" fill="#666666">[timestamp with time zone]</text>
<text text-anchor="start" x="715.2124" y="-615.4" font-family="Arial" font-size="14.00" fill="#000000"> 作成日時</text>
<polygon fill="none" stroke="#000000" points="472.5,-574 472.5,-604 869.5,-604 869.5,-574 472.5,-574"/>
<text text-anchor="start" x="479.5" y="-585.4" font-family="Arial" font-size="14.00" fill="#000000">updated_at </text>
<text text-anchor="start" x="553.4326" y="-585.4" font-family="Arial" font-size="14.00" fill="#666666">[timestamp with time zone]</text>
<text text-anchor="start" x="719.117" y="-585.4" font-family="Arial" font-size="14.00" fill="#000000"> 更新日時</text>
<polygon fill="none" stroke="#000000" stroke-width="3" points="470.5,-572.5 470.5,-771.5 870.5,-771.5 870.5,-572.5 470.5,-572.5"/>
</g>
<!-- public.circles -->
<g id="node2" class="node">
<title>public.circles</title>
<polygon fill="#efefef" stroke="transparent" points="43.5,-403 43.5,-449 696.5,-449 696.5,-403 43.5,-403"/>
<polygon fill="none" stroke="#000000" points="43.5,-403 43.5,-449 696.5,-449 696.5,-403 43.5,-403"/>
<text text-anchor="start" x="254.718" y="-426.8" font-family="Arial Bold" font-size="18.00" fill="#000000">public.circles</text>
<text text-anchor="start" x="357.714" y="-426.8" font-family="Arial" font-size="14.00" fill="#000000">    </text>
<text text-anchor="start" x="391.9188" y="-426.8" font-family="Arial" font-size="14.00" fill="#666666">[BASE TABLE]</text>
<text text-anchor="start" x="335.525" y="-412.4" font-family="Arial" font-size="14.00" fill="#333333">サークル</text>
<polygon fill="none" stroke="#000000" points="43.5,-373 43.5,-403 696.5,-403 696.5,-373 43.5,-373"/>
<text text-anchor="start" x="50.5" y="-384.4" font-family="Arial" font-size="14.00" fill="#000000">id    </text>
<text text-anchor="start" x="95.594" y="-384.4" font-family="Arial" font-size="14.00" fill="#666666">[text]</text>
<polygon fill="none" stroke="#000000" points="43.5,-343 43.5,-373 696.5,-373 696.5,-343 43.5,-343"/>
<text text-anchor="start" x="50.5" y="-354.4" font-family="Arial" font-size="14.00" fill="#000000">name    </text>
<text text-anchor="start" x="119.7132" y="-354.4" font-family="Arial" font-size="14.00" fill="#666666">[text]</text>
<text text-anchor="start" x="150.0582" y="-354.4" font-family="Arial" font-size="14.00" fill="#000000"> 名前</text>
<polygon fill="none" stroke="#000000" points="43.5,-313 43.5,-343 696.5,-343 696.5,-313 43.5,-313"/>
<text text-anchor="start" x="50.5" y="-324.4" font-family="Arial" font-size="14.00" fill="#000000">name_reading    </text>
<text text-anchor="start" x="174.176" y="-324.4" font-family="Arial" font-size="14.00" fill="#666666">[text]</text>
<text text-anchor="start" x="204.521" y="-324.4" font-family="Arial" font-size="14.00" fill="#000000"> 名前読み方</text>
<polygon fill="none" stroke="#000000" points="43.5,-283 43.5,-313 696.5,-313 696.5,-283 43.5,-283"/>
<text text-anchor="start" x="50.4192" y="-294.4" font-family="Arial" font-size="14.00" fill="#000000">initial_letter_type    </text>
<text text-anchor="start" x="189.6408" y="-294.4" font-family="Arial" font-size="14.00" fill="#666666">[initial_letter_type]</text>
<text text-anchor="start" x="302.4388" y="-294.4" font-family="Arial" font-size="14.00" fill="#000000"> 頭文字の文字種別(symbol,number,alphabet,kana,kanji,other)</text>
<polygon fill="none" stroke="#000000" points="43.5,-253 43.5,-283 696.5,-283 696.5,-253 43.5,-253"/>
<text text-anchor="start" x="50.5" y="-264.4" font-family="Arial" font-size="14.00" fill="#000000">initial_letter_detail    </text>
<text text-anchor="start" x="196.7174" y="-264.4" font-family="Arial" font-size="14.00" fill="#666666">[text]</text>
<text text-anchor="start" x="227.0624" y="-264.4" font-family="Arial" font-size="14.00" fill="#000000"> 頭文字の文字種別詳細</text>
<polygon fill="none" stroke="#000000" points="43.5,-223 43.5,-253 696.5,-253 696.5,-223 43.5,-223"/>
<text text-anchor="start" x="50.5" y="-234.4" font-family="Arial" font-size="14.00" fill="#000000">description    </text>
<text text-anchor="start" x="152.3822" y="-234.4" font-family="Arial" font-size="14.00" fill="#666666">[text]</text>
<text text-anchor="start" x="182.7272" y="-234.4" font-family="Arial" font-size="14.00" fill="#000000"> 説明</text>
<polygon fill="none" stroke="#000000" points="43.5,-193 43.5,-223 696.5,-223 696.5,-193 43.5,-193"/>
<text text-anchor="start" x="50.5" y="-204.4" font-family="Arial" font-size="14.00" fill="#000000">url    </text>
<text text-anchor="start" x="100.2546" y="-204.4" font-family="Arial" font-size="14.00" fill="#666666">[text]</text>
<text text-anchor="start" x="130.5996" y="-204.4" font-family="Arial" font-size="14.00" fill="#000000"> URL</text>
<polygon fill="none" stroke="#000000" points="43.5,-163 43.5,-193 696.5,-193 696.5,-163 43.5,-163"/>
<text text-anchor="start" x="50.5" y="-174.4" font-family="Arial" font-size="14.00" fill="#000000">blog_url    </text>
<text text-anchor="start" x="134.4916" y="-174.4" font-family="Arial" font-size="14.00" fill="#666666">[text]</text>
<text text-anchor="start" x="164.8366" y="-174.4" font-family="Arial" font-size="14.00" fill="#000000"> ブログ URL</text>
<polygon fill="none" stroke="#000000" points="43.5,-133 43.5,-163 696.5,-163 696.5,-133 43.5,-133"/>
<text text-anchor="start" x="50.5" y="-144.4" font-family="Arial" font-size="14.00" fill="#000000">twitter_url    </text>
<text text-anchor="start" x="145.3654" y="-144.4" font-family="Arial" font-size="14.00" fill="#666666">[text]</text>
<text text-anchor="start" x="175.7104" y="-144.4" font-family="Arial" font-size="14.00" fill="#000000"> Twitter URL</text>
<polygon fill="none" stroke="#000000" points="43.5,-103 43.5,-133 696.5,-133 696.5,-103 43.5,-103"/>
<text text-anchor="start" x="50.5" y="-114.4" font-family="Arial" font-size="14.00" fill="#000000">youtube_channel_url    </text>
<text text-anchor="start" x="214.643" y="-114.4" font-family="Arial" font-size="14.00" fill="#666666">[text]</text>
<text text-anchor="start" x="244.988" y="-114.4" font-family="Arial" font-size="14.00" fill="#000000"> YouTubeチャンネル URL</text>
<polygon fill="none" stroke="#000000" points="43.5,-73 43.5,-103 696.5,-103 696.5,-73 43.5,-73"/>
<text text-anchor="start" x="50.5" y="-84.4" font-family="Arial" font-size="14.00" fill="#000000">created_at    </text>
<text text-anchor="start" x="150.8422" y="-84.4" font-family="Arial" font-size="14.00" fill="#666666">[timestamp with time zone]</text>
<text text-anchor="start" x="316.5266" y="-84.4" font-family="Arial" font-size="14.00" fill="#000000"> 作成日時</text>
<polygon fill="none" stroke="#000000" points="43.5,-43 43.5,-73 696.5,-73 696.5,-43 43.5,-43"/>
<text text-anchor="start" x="50.5" y="-54.4" font-family="Arial" font-size="14.00" fill="#000000">updated_at    </text>
<text text-anchor="start" x="154.7468" y="-54.4" font-family="Arial" font-size="14.00" fill="#666666">[timestamp with time zone]</text>
<text text-anchor="start" x="320.4312" y="-54.4" font-family="Arial" font-size="14.00" fill="#000000"> 更新日時</text>
</g>
<!-- public.circles_tags&#45;&gt;public.circles -->
<g id="edge1" class="edge">
<title>public.circles_tags:circle_id&#45;&gt;public.circles:id</title>
<path fill="none" stroke="#000000" d="M462.3093,-708.2911C394.6436,-698.3575 422.6688,-586.4792 472.5,-528 537.8987,-451.2516 631.1013,-568.7484 696.5,-492 726.479,-456.8183 742.7222,-388 696.5,-388"/>
<polygon fill="#000000" stroke="#000000" points="462.5241,-708.3059 472.1877,-713.4892 467.5121,-708.653 472.5,-709 472.5,-709 472.5,-709 467.5121,-708.653 472.8123,-704.5108 462.5241,-708.3059 462.5241,-708.3059"/>
<text text-anchor="start" x="234.9555" y="-719" font-family="Arial" font-size="10.00" fill="#000000">FOREIGN KEY (circle_id) REFERENCES circles(id)</text>
</g>
<!-- public.tags -->
<g id="node3" class="node">
<title>public.tags</title>
<polygon fill="#efefef" stroke="transparent" points="800.5,-298 800.5,-344 1144.5,-344 1144.5,-298 800.5,-298"/>
<polygon fill="none" stroke="#000000" points="800.5,-298 800.5,-344 1144.5,-344 1144.5,-298 800.5,-298"/>
<text text-anchor="start" x="865.7041" y="-321.8" font-family="Arial Bold" font-size="18.00" fill="#000000">public.tags</text>
<text text-anchor="start" x="951.7279" y="-321.8" font-family="Arial" font-size="14.00" fill="#000000">    </text>
<text text-anchor="start" x="985.9327" y="-321.8" font-family="Arial" font-size="14.00" fill="#666666">[BASE TABLE]</text>
<text text-anchor="start" x="957.2092" y="-307.4" font-family="Arial" font-size="14.00" fill="#333333">タグ</text>
<polygon fill="none" stroke="#000000" points="800.5,-268 800.5,-298 1144.5,-298 1144.5,-268 800.5,-268"/>
<text text-anchor="start" x="807.5" y="-279.4" font-family="Arial" font-size="14.00" fill="#000000">id    </text>
<text text-anchor="start" x="852.594" y="-279.4" font-family="Arial" font-size="14.00" fill="#666666">[text]</text>
<polygon fill="none" stroke="#000000" points="800.5,-238 800.5,-268 1144.5,-268 1144.5,-238 800.5,-238"/>
<text text-anchor="start" x="807.5" y="-249.4" font-family="Arial" font-size="14.00" fill="#000000">name    </text>
<text text-anchor="start" x="876.7132" y="-249.4" font-family="Arial" font-size="14.00" fill="#666666">[text]</text>
<text text-anchor="start" x="907.0582" y="-249.4" font-family="Arial" font-size="14.00" fill="#000000"> 名前</text>
<polygon fill="none" stroke="#000000" points="800.5,-208 800.5,-238 1144.5,-238 1144.5,-208 800.5,-208"/>
<text text-anchor="start" x="807.5" y="-219.4" font-family="Arial" font-size="14.00" fill="#000000">tag_type    </text>
<text text-anchor="start" x="895.399" y="-219.4" font-family="Arial" font-size="14.00" fill="#666666">[tag_type]</text>
<text text-anchor="start" x="956.8744" y="-219.4" font-family="Arial" font-size="14.00" fill="#000000"> タグ種別</text>
<polygon fill="none" stroke="#000000" points="800.5,-178 800.5,-208 1144.5,-208 1144.5,-178 800.5,-178"/>
<text text-anchor="start" x="807.1971" y="-189.4" font-family="Arial" font-size="14.00" fill="#000000">created_at    </text>
<text text-anchor="start" x="907.5393" y="-189.4" font-family="Arial" font-size="14.00" fill="#666666">[timestamp with time zone]</text>
<text text-anchor="start" x="1073.2237" y="-189.4" font-family="Arial" font-size="14.00" fill="#000000"> 作成日時</text>
<polygon fill="none" stroke="#000000" points="800.5,-148 800.5,-178 1144.5,-178 1144.5,-148 800.5,-148"/>
<text text-anchor="start" x="807.5" y="-159.4" font-family="Arial" font-size="14.00" fill="#000000">updated_at    </text>
<text text-anchor="start" x="911.7468" y="-159.4" font-family="Arial" font-size="14.00" fill="#666666">[timestamp with time zone]</text>
<text text-anchor="start" x="1077.4312" y="-159.4" font-family="Arial" font-size="14.00" fill="#000000"> 更新日時</text>
</g>
<!-- public.circles_tags&#45;&gt;public.tags -->
<g id="edge2" class="edge">
<title>public.circles_tags:tag_id&#45;&gt;public.tags:id</title>
<path fill="none" stroke="#000000" d="M879.6431,-678.3467C983.1249,-664.0497 808.042,-419.5701 800.5,-387 790.0726,-341.9693 754.2778,-283 800.5,-283"/>
<polygon fill="#000000" stroke="#000000" points="879.4793,-678.3571 869.2107,-674.5093 874.4897,-678.6786 869.5,-679 869.5,-679 869.5,-679 874.4897,-678.6786 869.7893,-683.4907 879.4793,-678.3571 879.4793,-678.3571"/>
<text text-anchor="start" x="876.3845" y="-689" font-family="Arial" font-size="10.00" fill="#000000">FOREIGN KEY (tag_id) REFERENCES tags(id)</text>
</g>
</g>
</svg>
