<?xml version="1.0" encoding="UTF-8" standalone="no"?>
<!DOCTYPE svg PUBLIC "-//W3C//DTD SVG 1.1//EN"
 "http://www.w3.org/Graphics/SVG/1.1/DTD/svg11.dtd">
<!-- Generated by graphviz version 2.40.1 (20161225.0304)
 -->
<!-- Title: public.circles Pages: 1 -->
<svg width="2267pt" height="944pt"
 viewBox="0.00 0.00 2266.50 944.00" xmlns="http://www.w3.org/2000/svg" xmlns:xlink="http://www.w3.org/1999/xlink">
<g id="graph0" class="graph" transform="scale(1 1) rotate(0) translate(4 940)">
<title>public.circles</title>
<polygon fill="#ffffff" stroke="transparent" points="-4,4 -4,-940 2262.5,-940 2262.5,4 -4,4"/>
<!-- public.circles -->
<g id="node1" class="node">
<title>public.circles</title>
<polygon fill="#efefef" stroke="transparent" points="830,-496 830,-542 1452,-542 1452,-496 830,-496"/>
<polygon fill="none" stroke="#000000" points="830,-496 830,-542 1452,-542 1452,-496 830,-496"/>
<text text-anchor="start" x="1025.718" y="-519.8" font-family="Arial Bold" font-size="18.00" fill="#000000">public.circles</text>
<text text-anchor="start" x="1128.714" y="-519.8" font-family="Arial" font-size="14.00" fill="#000000">    </text>
<text text-anchor="start" x="1162.9188" y="-519.8" font-family="Arial" font-size="14.00" fill="#666666">[BASE TABLE]</text>
<text text-anchor="start" x="1106.525" y="-505.4" font-family="Arial" font-size="14.00" fill="#333333">サークル</text>
<polygon fill="none" stroke="#000000" points="830,-466 830,-496 1452,-496 1452,-466 830,-466"/>
<text text-anchor="start" x="837" y="-477.4" font-family="Arial" font-size="14.00" fill="#000000">id </text>
<text text-anchor="start" x="851.7798" y="-477.4" font-family="Arial" font-size="14.00" fill="#666666">[text]</text>
<text text-anchor="start" x="882.1248" y="-477.4" font-family="Arial" font-size="14.00" fill="#000000"> サークルID</text>
<polygon fill="none" stroke="#000000" points="830,-436 830,-466 1452,-466 1452,-436 830,-436"/>
<text text-anchor="start" x="837" y="-447.4" font-family="Arial" font-size="14.00" fill="#000000">created_at </text>
<text text-anchor="start" x="907.028" y="-447.4" font-family="Arial" font-size="14.00" fill="#666666">[timestamp with time zone]</text>
<text text-anchor="start" x="1072.7124" y="-447.4" font-family="Arial" font-size="14.00" fill="#000000"> 作成日時</text>
<polygon fill="none" stroke="#000000" points="830,-406 830,-436 1452,-436 1452,-406 830,-406"/>
<text text-anchor="start" x="837" y="-417.4" font-family="Arial" font-size="14.00" fill="#000000">updated_at </text>
<text text-anchor="start" x="910.9326" y="-417.4" font-family="Arial" font-size="14.00" fill="#666666">[timestamp with time zone]</text>
<text text-anchor="start" x="1076.617" y="-417.4" font-family="Arial" font-size="14.00" fill="#000000"> 更新日時</text>
<polygon fill="none" stroke="#000000" points="830,-376 830,-406 1452,-406 1452,-376 830,-376"/>
<text text-anchor="start" x="837" y="-387.4" font-family="Arial" font-size="14.00" fill="#000000">name </text>
<text text-anchor="start" x="875.899" y="-387.4" font-family="Arial" font-size="14.00" fill="#666666">[text]</text>
<text text-anchor="start" x="906.244" y="-387.4" font-family="Arial" font-size="14.00" fill="#000000"> 名前</text>
<polygon fill="none" stroke="#000000" points="830,-346 830,-376 1452,-376 1452,-346 830,-346"/>
<text text-anchor="start" x="837" y="-357.4" font-family="Arial" font-size="14.00" fill="#000000">name_reading </text>
<text text-anchor="start" x="930.3618" y="-357.4" font-family="Arial" font-size="14.00" fill="#666666">[text]</text>
<text text-anchor="start" x="960.7068" y="-357.4" font-family="Arial" font-size="14.00" fill="#000000"> 名前読み方</text>
<polygon fill="none" stroke="#000000" points="830,-316 830,-346 1452,-346 1452,-316 830,-316"/>
<text text-anchor="start" x="837" y="-327.4" font-family="Arial" font-size="14.00" fill="#000000">slug </text>
<text text-anchor="start" x="866.5624" y="-327.4" font-family="Arial" font-size="14.00" fill="#666666">[text]</text>
<text text-anchor="start" x="896.9074" y="-327.4" font-family="Arial" font-size="14.00" fill="#000000"> スラッグ</text>
<polygon fill="none" stroke="#000000" points="830,-286 830,-316 1452,-316 1452,-286 830,-286"/>
<text text-anchor="start" x="836.5763" y="-297.4" font-family="Arial" font-size="14.00" fill="#000000">initial_letter_type </text>
<text text-anchor="start" x="945.4837" y="-297.4" font-family="Arial" font-size="14.00" fill="#666666">[initial_letter_type]</text>
<text text-anchor="start" x="1058.2817" y="-297.4" font-family="Arial" font-size="14.00" fill="#000000"> 頭文字の文字種別(symbol,number,alphabet,kana,kanji,other)</text>
<polygon fill="none" stroke="#000000" points="830,-256 830,-286 1452,-286 1452,-256 830,-256"/>
<text text-anchor="start" x="837" y="-267.4" font-family="Arial" font-size="14.00" fill="#000000">initial_letter_detail </text>
<text text-anchor="start" x="952.9032" y="-267.4" font-family="Arial" font-size="14.00" fill="#666666">[text]</text>
<text text-anchor="start" x="983.2482" y="-267.4" font-family="Arial" font-size="14.00" fill="#000000"> 頭文字の文字種別詳細</text>
<polygon fill="none" stroke="#000000" points="830,-226 830,-256 1452,-256 1452,-226 830,-226"/>
<text text-anchor="start" x="837" y="-237.4" font-family="Arial" font-size="14.00" fill="#000000">description </text>
<text text-anchor="start" x="908.568" y="-237.4" font-family="Arial" font-size="14.00" fill="#666666">[text]</text>
<text text-anchor="start" x="938.913" y="-237.4" font-family="Arial" font-size="14.00" fill="#000000"> 説明</text>
<polygon fill="none" stroke="#000000" points="830,-196 830,-226 1452,-226 1452,-196 830,-196"/>
<text text-anchor="start" x="837" y="-207.4" font-family="Arial" font-size="14.00" fill="#000000">url </text>
<text text-anchor="start" x="856.4404" y="-207.4" font-family="Arial" font-size="14.00" fill="#666666">[text]</text>
<text text-anchor="start" x="886.7854" y="-207.4" font-family="Arial" font-size="14.00" fill="#000000"> URL</text>
<polygon fill="none" stroke="#000000" points="830,-166 830,-196 1452,-196 1452,-166 830,-166"/>
<text text-anchor="start" x="837" y="-177.4" font-family="Arial" font-size="14.00" fill="#000000">blog_url </text>
<text text-anchor="start" x="890.6774" y="-177.4" font-family="Arial" font-size="14.00" fill="#666666">[text]</text>
<text text-anchor="start" x="921.0224" y="-177.4" font-family="Arial" font-size="14.00" fill="#000000"> ブログ URL</text>
<polygon fill="none" stroke="#000000" points="830,-136 830,-166 1452,-166 1452,-136 830,-136"/>
<text text-anchor="start" x="837" y="-147.4" font-family="Arial" font-size="14.00" fill="#000000">twitter_url </text>
<text text-anchor="start" x="901.5512" y="-147.4" font-family="Arial" font-size="14.00" fill="#666666">[text]</text>
<text text-anchor="start" x="931.8962" y="-147.4" font-family="Arial" font-size="14.00" fill="#000000"> Twitter URL</text>
<polygon fill="none" stroke="#000000" points="830,-106 830,-136 1452,-136 1452,-106 830,-106"/>
<text text-anchor="start" x="837" y="-117.4" font-family="Arial" font-size="14.00" fill="#000000">youtube_channel_url </text>
<text text-anchor="start" x="970.8288" y="-117.4" font-family="Arial" font-size="14.00" fill="#666666">[text]</text>
<text text-anchor="start" x="1001.1738" y="-117.4" font-family="Arial" font-size="14.00" fill="#000000"> YouTubeチャンネル URL</text>
<polygon fill="none" stroke="#000000" points="830,-76 830,-106 1452,-106 1452,-76 830,-76"/>
<text text-anchor="start" x="837" y="-87.4" font-family="Arial" font-size="14.00" fill="#000000">published_at </text>
<text text-anchor="start" x="920.2552" y="-87.4" font-family="Arial" font-size="14.00" fill="#666666">[timestamp with time zone]</text>
<text text-anchor="start" x="1085.9396" y="-87.4" font-family="Arial" font-size="14.00" fill="#000000"> 公開日時</text>
<polygon fill="none" stroke="#000000" points="830,-46 830,-76 1452,-76 1452,-46 830,-46"/>
<text text-anchor="start" x="837" y="-57.4" font-family="Arial" font-size="14.00" fill="#000000">archived_at </text>
<text text-anchor="start" x="913.244" y="-57.4" font-family="Arial" font-size="14.00" fill="#666666">[timestamp with time zone]</text>
<text text-anchor="start" x="1078.9284" y="-57.4" font-family="Arial" font-size="14.00" fill="#000000"> アーカイブ日時</text>
<polygon fill="none" stroke="#000000" stroke-width="3" points="828.5,-44.5 828.5,-543.5 1453.5,-543.5 1453.5,-44.5 828.5,-44.5"/>
</g>
<!-- public.albums_circles -->
<g id="node2" class="node">
<title>public.albums_circles</title>
<polygon fill="#efefef" stroke="transparent" points="43,-817 43,-863 387,-863 387,-817 43,-817"/>
<polygon fill="none" stroke="#000000" points="43,-817 43,-863 387,-863 387,-817 43,-817"/>
<text text-anchor="start" x="65.7124" y="-840.8" font-family="Arial Bold" font-size="18.00" fill="#000000">public.albums_circles</text>
<text text-anchor="start" x="236.7196" y="-840.8" font-family="Arial" font-size="14.00" fill="#000000">    </text>
<text text-anchor="start" x="270.9244" y="-840.8" font-family="Arial" font-size="14.00" fill="#666666">[BASE TABLE]</text>
<text text-anchor="start" x="86.1678" y="-826.4" font-family="Arial" font-size="14.00" fill="#333333">アルバムとサークルの中間テーブル</text>
<polygon fill="none" stroke="#000000" points="43,-787 43,-817 387,-817 387,-787 43,-787"/>
<text text-anchor="start" x="49.6971" y="-798.4" font-family="Arial" font-size="14.00" fill="#000000">created_at    </text>
<text text-anchor="start" x="150.0393" y="-798.4" font-family="Arial" font-size="14.00" fill="#666666">[timestamp with time zone]</text>
<text text-anchor="start" x="315.7237" y="-798.4" font-family="Arial" font-size="14.00" fill="#000000"> 作成日時</text>
<polygon fill="none" stroke="#000000" points="43,-757 43,-787 387,-787 387,-757 43,-757"/>
<text text-anchor="start" x="50" y="-768.4" font-family="Arial" font-size="14.00" fill="#000000">updated_at    </text>
<text text-anchor="start" x="154.2468" y="-768.4" font-family="Arial" font-size="14.00" fill="#666666">[timestamp with time zone]</text>
<text text-anchor="start" x="319.9312" y="-768.4" font-family="Arial" font-size="14.00" fill="#000000"> 更新日時</text>
<polygon fill="none" stroke="#000000" points="43,-727 43,-757 387,-757 387,-727 43,-727"/>
<text text-anchor="start" x="50" y="-738.4" font-family="Arial" font-size="14.00" fill="#000000">album_id    </text>
<text text-anchor="start" x="140.9916" y="-738.4" font-family="Arial" font-size="14.00" fill="#666666">[text]</text>
<text text-anchor="start" x="171.3366" y="-738.4" font-family="Arial" font-size="14.00" fill="#000000"> アルバムID</text>
<polygon fill="none" stroke="#000000" points="43,-697 43,-727 387,-727 387,-697 43,-697"/>
<text text-anchor="start" x="50" y="-708.4" font-family="Arial" font-size="14.00" fill="#000000">circle_id    </text>
<text text-anchor="start" x="135.533" y="-708.4" font-family="Arial" font-size="14.00" fill="#666666">[text]</text>
<text text-anchor="start" x="165.878" y="-708.4" font-family="Arial" font-size="14.00" fill="#000000"> サークルID</text>
</g>
<!-- public.albums_circles&#45;&gt;public.circles -->
<g id="edge1" class="edge">
<title>public.albums_circles:circle_id&#45;&gt;public.circles:id</title>
<path fill="none" stroke="#000000" d="M397.1644,-710.7504C428.023,-702.0891 407.0761,-650.5554 439,-624 581.2528,-505.6692 644.9648,-481 830,-481"/>
<polygon fill="#000000" stroke="#000000" points="396.9253,-710.7797 386.4509,-707.5336 391.9626,-711.3898 387,-712 387,-712 387,-712 391.9626,-711.3898 387.5491,-716.4664 396.9253,-710.7797 396.9253,-710.7797"/>
<text text-anchor="start" x="394.4555" y="-722" font-family="Arial" font-size="10.00" fill="#000000">FOREIGN KEY (circle_id) REFERENCES circles(id)</text>
</g>
<!-- public.songs_arrange_circles -->
<g id="node3" class="node">
<title>public.songs_arrange_circles</title>
<polygon fill="#efefef" stroke="transparent" points="491,-817 491,-863 865,-863 865,-817 491,-817"/>
<polygon fill="none" stroke="#000000" points="491,-817 491,-863 865,-863 865,-817 491,-817"/>
<text text-anchor="start" x="497.6948" y="-840.8" font-family="Arial Bold" font-size="18.00" fill="#000000">public.songs_arrange_circles</text>
<text text-anchor="start" x="730.7372" y="-840.8" font-family="Arial" font-size="14.00" fill="#000000">    </text>
<text text-anchor="start" x="764.942" y="-840.8" font-family="Arial" font-size="14.00" fill="#666666">[BASE TABLE]</text>
<text text-anchor="start" x="606.8387" y="-826.4" font-family="Arial" font-size="14.00" fill="#333333">楽曲編曲サークル</text>
<polygon fill="none" stroke="#000000" points="491,-787 491,-817 865,-817 865,-787 491,-787"/>
<text text-anchor="start" x="498" y="-798.4" font-family="Arial" font-size="14.00" fill="#000000">created_at    </text>
<text text-anchor="start" x="598.3422" y="-798.4" font-family="Arial" font-size="14.00" fill="#666666">[timestamp with time zone]</text>
<text text-anchor="start" x="764.0266" y="-798.4" font-family="Arial" font-size="14.00" fill="#000000"> 作成日時</text>
<polygon fill="none" stroke="#000000" points="491,-757 491,-787 865,-787 865,-757 491,-757"/>
<text text-anchor="start" x="498" y="-768.4" font-family="Arial" font-size="14.00" fill="#000000">updated_at    </text>
<text text-anchor="start" x="602.2468" y="-768.4" font-family="Arial" font-size="14.00" fill="#666666">[timestamp with time zone]</text>
<text text-anchor="start" x="767.9312" y="-768.4" font-family="Arial" font-size="14.00" fill="#000000"> 更新日時</text>
<polygon fill="none" stroke="#000000" points="491,-727 491,-757 865,-757 865,-727 491,-727"/>
<text text-anchor="start" x="498" y="-738.4" font-family="Arial" font-size="14.00" fill="#000000">song_id    </text>
<text text-anchor="start" x="581.2244" y="-738.4" font-family="Arial" font-size="14.00" fill="#666666">[text]</text>
<text text-anchor="start" x="611.5694" y="-738.4" font-family="Arial" font-size="14.00" fill="#000000"> 楽曲ID</text>
<polygon fill="none" stroke="#000000" points="491,-697 491,-727 865,-727 865,-697 491,-697"/>
<text text-anchor="start" x="498" y="-708.4" font-family="Arial" font-size="14.00" fill="#000000">circle_id    </text>
<text text-anchor="start" x="583.533" y="-708.4" font-family="Arial" font-size="14.00" fill="#666666">[text]</text>
<text text-anchor="start" x="613.878" y="-708.4" font-family="Arial" font-size="14.00" fill="#000000"> サークルID</text>
</g>
<!-- public.songs_arrange_circles&#45;&gt;public.circles -->
<g id="edge2" class="edge">
<title>public.songs_arrange_circles:circle_id&#45;&gt;public.circles:id</title>
<path fill="none" stroke="#000000" d="M874.8451,-709.0426C884.1806,-700.4035 870.1044,-674.5205 865,-654 856.9852,-621.7792 838.0148,-620.2208 830,-588 818.5206,-541.8507 782.4444,-481 830,-481"/>
<polygon fill="#000000" stroke="#000000" points="874.5772,-709.123 863.7054,-707.6902 869.7886,-710.5615 865,-712 865,-712 865,-712 869.7886,-710.5615 866.2946,-716.3098 874.5772,-709.123 874.5772,-709.123"/>
<text text-anchor="start" x="872.4555" y="-722" font-family="Arial" font-size="10.00" fill="#000000">FOREIGN KEY (circle_id) REFERENCES circles(id)</text>
</g>
<!-- public.songs_circles -->
<g id="node4" class="node">
<title>public.songs_circles</title>
<polygon fill="#efefef" stroke="transparent" points="969,-817 969,-863 1313,-863 1313,-817 969,-817"/>
<polygon fill="none" stroke="#000000" points="969,-817 969,-863 1313,-863 1313,-817 969,-817"/>
<text text-anchor="start" x="996.7056" y="-840.8" font-family="Arial Bold" font-size="18.00" fill="#000000">public.songs_circles</text>
<text text-anchor="start" x="1157.7264" y="-840.8" font-family="Arial" font-size="14.00" fill="#000000">    </text>
<text text-anchor="start" x="1191.9312" y="-840.8" font-family="Arial" font-size="14.00" fill="#666666">[BASE TABLE]</text>
<text text-anchor="start" x="1021.3609" y="-826.4" font-family="Arial" font-size="14.00" fill="#333333">楽曲とサークルの中間テーブル</text>
<polygon fill="none" stroke="#000000" points="969,-787 969,-817 1313,-817 1313,-787 969,-787"/>
<text text-anchor="start" x="975.6971" y="-798.4" font-family="Arial" font-size="14.00" fill="#000000">created_at    </text>
<text text-anchor="start" x="1076.0393" y="-798.4" font-family="Arial" font-size="14.00" fill="#666666">[timestamp with time zone]</text>
<text text-anchor="start" x="1241.7237" y="-798.4" font-family="Arial" font-size="14.00" fill="#000000"> 作成日時</text>
<polygon fill="none" stroke="#000000" points="969,-757 969,-787 1313,-787 1313,-757 969,-757"/>
<text text-anchor="start" x="976" y="-768.4" font-family="Arial" font-size="14.00" fill="#000000">updated_at    </text>
<text text-anchor="start" x="1080.2468" y="-768.4" font-family="Arial" font-size="14.00" fill="#666666">[timestamp with time zone]</text>
<text text-anchor="start" x="1245.9312" y="-768.4" font-family="Arial" font-size="14.00" fill="#000000"> 更新日時</text>
<polygon fill="none" stroke="#000000" points="969,-727 969,-757 1313,-757 1313,-727 969,-727"/>
<text text-anchor="start" x="976" y="-738.4" font-family="Arial" font-size="14.00" fill="#000000">song_id    </text>
<text text-anchor="start" x="1059.2244" y="-738.4" font-family="Arial" font-size="14.00" fill="#666666">[text]</text>
<text text-anchor="start" x="1089.5694" y="-738.4" font-family="Arial" font-size="14.00" fill="#000000"> 楽曲ID</text>
<polygon fill="none" stroke="#000000" points="969,-697 969,-727 1313,-727 1313,-697 969,-697"/>
<text text-anchor="start" x="976" y="-708.4" font-family="Arial" font-size="14.00" fill="#000000">circle_id    </text>
<text text-anchor="start" x="1061.533" y="-708.4" font-family="Arial" font-size="14.00" fill="#666666">[text]</text>
<text text-anchor="start" x="1091.878" y="-708.4" font-family="Arial" font-size="14.00" fill="#000000"> サークルID</text>
</g>
<!-- public.songs_circles&#45;&gt;public.circles -->
<g id="edge3" class="edge">
<title>public.songs_circles:circle_id&#45;&gt;public.circles:id</title>
<path fill="none" stroke="#000000" d="M1146.0404,-688.3188C1184.6445,-653.8177 1432.4734,-615.5348 1452,-588 1479.5092,-549.2086 1499.5556,-481 1452,-481"/>
<polygon fill="#000000" stroke="#000000" points="1146.0212,-688.352 1137.1084,-694.7404 1143.5106,-692.676 1141,-697 1141,-697 1141,-697 1143.5106,-692.676 1144.8916,-699.2596 1146.0212,-688.352 1146.0212,-688.352"/>
<text text-anchor="start" x="1087.2055" y="-681" font-family="Arial" font-size="10.00" fill="#000000">FOREIGN KEY (circle_id) REFERENCES circles(id)</text>
</g>
<!-- public.circles_genres -->
<g id="node5" class="node">
<title>public.circles_genres</title>
<polygon fill="#efefef" stroke="transparent" points="1418,-847 1418,-893 1765,-893 1765,-847 1418,-847"/>
<polygon fill="none" stroke="#000000" points="1418,-847 1418,-893 1765,-893 1765,-847 1418,-847"/>
<text text-anchor="start" x="1443.7064" y="-870.8" font-family="Arial Bold" font-size="18.00" fill="#000000">public.circles_genres</text>
<text text-anchor="start" x="1611.7256" y="-870.8" font-family="Arial" font-size="14.00" fill="#000000">    </text>
<text text-anchor="start" x="1645.9304" y="-870.8" font-family="Arial" font-size="14.00" fill="#666666">[BASE TABLE]</text>
<text text-anchor="start" x="1541.7342" y="-856.4" font-family="Arial" font-size="14.00" fill="#333333">サークルタグ</text>
<polygon fill="none" stroke="#000000" points="1418,-817 1418,-847 1765,-847 1765,-817 1418,-817"/>
<text text-anchor="start" x="1425" y="-828.4" font-family="Arial" font-size="14.00" fill="#000000">id    </text>
<text text-anchor="start" x="1470.094" y="-828.4" font-family="Arial" font-size="14.00" fill="#666666">[text]</text>
<text text-anchor="start" x="1500.439" y="-828.4" font-family="Arial" font-size="14.00" fill="#000000"> サークルタグID</text>
<polygon fill="none" stroke="#000000" points="1418,-787 1418,-817 1765,-817 1765,-787 1418,-787"/>
<text text-anchor="start" x="1425" y="-798.4" font-family="Arial" font-size="14.00" fill="#000000">created_at    </text>
<text text-anchor="start" x="1525.3422" y="-798.4" font-family="Arial" font-size="14.00" fill="#666666">[timestamp with time zone]</text>
<text text-anchor="start" x="1691.0266" y="-798.4" font-family="Arial" font-size="14.00" fill="#000000"> 作成日時</text>
<polygon fill="none" stroke="#000000" points="1418,-757 1418,-787 1765,-787 1765,-757 1418,-757"/>
<text text-anchor="start" x="1425" y="-768.4" font-family="Arial" font-size="14.00" fill="#000000">updated_at    </text>
<text text-anchor="start" x="1529.2468" y="-768.4" font-family="Arial" font-size="14.00" fill="#666666">[timestamp with time zone]</text>
<text text-anchor="start" x="1694.9312" y="-768.4" font-family="Arial" font-size="14.00" fill="#000000"> 更新日時</text>
<polygon fill="none" stroke="#000000" points="1418,-727 1418,-757 1765,-757 1765,-727 1418,-727"/>
<text text-anchor="start" x="1425" y="-738.4" font-family="Arial" font-size="14.00" fill="#000000">circle_id    </text>
<text text-anchor="start" x="1510.533" y="-738.4" font-family="Arial" font-size="14.00" fill="#666666">[text]</text>
<text text-anchor="start" x="1540.878" y="-738.4" font-family="Arial" font-size="14.00" fill="#000000"> サークルID</text>
<polygon fill="none" stroke="#000000" points="1418,-697 1418,-727 1765,-727 1765,-697 1418,-697"/>
<text text-anchor="start" x="1425" y="-708.4" font-family="Arial" font-size="14.00" fill="#000000">genre_id    </text>
<text text-anchor="start" x="1513.6676" y="-708.4" font-family="Arial" font-size="14.00" fill="#666666">[text]</text>
<text text-anchor="start" x="1544.0126" y="-708.4" font-family="Arial" font-size="14.00" fill="#000000"> タグID</text>
<polygon fill="none" stroke="#000000" points="1418,-667 1418,-697 1765,-697 1765,-667 1418,-667"/>
<text text-anchor="start" x="1424.6578" y="-678.4" font-family="Arial" font-size="14.00" fill="#000000">locked_at    </text>
<text text-anchor="start" x="1518.7728" y="-678.4" font-family="Arial" font-size="14.00" fill="#666666">[timestamp with time zone]</text>
<text text-anchor="start" x="1684.4572" y="-678.4" font-family="Arial" font-size="14.00" fill="#000000"> ロック日時</text>
</g>
<!-- public.circles_genres&#45;&gt;public.circles -->
<g id="edge4" class="edge">
<title>public.circles_genres:circle_id&#45;&gt;public.circles:id</title>
<path fill="none" stroke="#000000" d="M1407.6955,-740.8921C1370.3888,-731.8314 1400.0624,-669.117 1418,-624 1426.1308,-603.5492 1443.8692,-608.4508 1452,-588 1469.5694,-543.809 1499.5556,-481 1452,-481"/>
<polygon fill="#000000" stroke="#000000" points="1408.0573,-740.9309 1417.5189,-746.4742 1413.0287,-741.4654 1418,-742 1418,-742 1418,-742 1413.0287,-741.4654 1418.4811,-737.5258 1408.0573,-740.9309 1408.0573,-740.9309"/>
<text text-anchor="start" x="1364.2055" y="-726" font-family="Arial" font-size="10.00" fill="#000000">FOREIGN KEY (circle_id) REFERENCES circles(id)</text>
</g>
<!-- public.circles_tags -->
<g id="node6" class="node">
<title>public.circles_tags</title>
<polygon fill="#efefef" stroke="transparent" points="1869,-847 1869,-893 2216,-893 2216,-847 1869,-847"/>
<polygon fill="none" stroke="#000000" points="1869,-847 1869,-893 2216,-893 2216,-847 1869,-847"/>
<text text-anchor="start" x="1905.2076" y="-870.8" font-family="Arial Bold" font-size="18.00" fill="#000000">public.circles_tags</text>
<text text-anchor="start" x="2052.2244" y="-870.8" font-family="Arial" font-size="14.00" fill="#000000">    </text>
<text text-anchor="start" x="2086.4292" y="-870.8" font-family="Arial" font-size="14.00" fill="#666666">[BASE TABLE]</text>
<text text-anchor="start" x="1992.7342" y="-856.4" font-family="Arial" font-size="14.00" fill="#333333">サークルタグ</text>
<polygon fill="none" stroke="#000000" points="1869,-817 1869,-847 2216,-847 2216,-817 1869,-817"/>
<text text-anchor="start" x="1876" y="-828.4" font-family="Arial" font-size="14.00" fill="#000000">id    </text>
<text text-anchor="start" x="1921.094" y="-828.4" font-family="Arial" font-size="14.00" fill="#666666">[text]</text>
<text text-anchor="start" x="1951.439" y="-828.4" font-family="Arial" font-size="14.00" fill="#000000"> サークルタグID</text>
<polygon fill="none" stroke="#000000" points="1869,-787 1869,-817 2216,-817 2216,-787 1869,-787"/>
<text text-anchor="start" x="1876" y="-798.4" font-family="Arial" font-size="14.00" fill="#000000">created_at    </text>
<text text-anchor="start" x="1976.3422" y="-798.4" font-family="Arial" font-size="14.00" fill="#666666">[timestamp with time zone]</text>
<text text-anchor="start" x="2142.0266" y="-798.4" font-family="Arial" font-size="14.00" fill="#000000"> 作成日時</text>
<polygon fill="none" stroke="#000000" points="1869,-757 1869,-787 2216,-787 2216,-757 1869,-757"/>
<text text-anchor="start" x="1876" y="-768.4" font-family="Arial" font-size="14.00" fill="#000000">updated_at    </text>
<text text-anchor="start" x="1980.2468" y="-768.4" font-family="Arial" font-size="14.00" fill="#666666">[timestamp with time zone]</text>
<text text-anchor="start" x="2145.9312" y="-768.4" font-family="Arial" font-size="14.00" fill="#000000"> 更新日時</text>
<polygon fill="none" stroke="#000000" points="1869,-727 1869,-757 2216,-757 2216,-727 1869,-727"/>
<text text-anchor="start" x="1876" y="-738.4" font-family="Arial" font-size="14.00" fill="#000000">circle_id    </text>
<text text-anchor="start" x="1961.533" y="-738.4" font-family="Arial" font-size="14.00" fill="#666666">[text]</text>
<text text-anchor="start" x="1991.878" y="-738.4" font-family="Arial" font-size="14.00" fill="#000000"> サークルID</text>
<polygon fill="none" stroke="#000000" points="1869,-697 1869,-727 2216,-727 2216,-697 1869,-697"/>
<text text-anchor="start" x="1876" y="-708.4" font-family="Arial" font-size="14.00" fill="#000000">tag_id    </text>
<text text-anchor="start" x="1948.3324" y="-708.4" font-family="Arial" font-size="14.00" fill="#666666">[text]</text>
<text text-anchor="start" x="1978.6774" y="-708.4" font-family="Arial" font-size="14.00" fill="#000000"> タグID</text>
<polygon fill="none" stroke="#000000" points="1869,-667 1869,-697 2216,-697 2216,-667 1869,-667"/>
<text text-anchor="start" x="1875.6578" y="-678.4" font-family="Arial" font-size="14.00" fill="#000000">locked_at    </text>
<text text-anchor="start" x="1969.7728" y="-678.4" font-family="Arial" font-size="14.00" fill="#666666">[timestamp with time zone]</text>
<text text-anchor="start" x="2135.4572" y="-678.4" font-family="Arial" font-size="14.00" fill="#000000"> ロック日時</text>
</g>
<!-- public.circles_tags&#45;&gt;public.circles -->
<g id="edge5" class="edge">
<title>public.circles_tags:circle_id&#45;&gt;public.circles:id</title>
<path fill="none" stroke="#000000" d="M1858.902,-740.998C1817.4994,-731.7675 1855.6139,-661.0373 1817,-624 1691.2621,-503.3959 1626.2279,-481 1452,-481"/>
<polygon fill="#000000" stroke="#000000" points="1859.0489,-741.0125 1868.5556,-746.478 1864.0244,-741.5063 1869,-742 1869,-742 1869,-742 1864.0244,-741.5063 1869.4444,-737.522 1859.0489,-741.0125 1859.0489,-741.0125"/>
<text text-anchor="start" x="1815.2055" y="-726" font-family="Arial" font-size="10.00" fill="#000000">FOREIGN KEY (circle_id) REFERENCES circles(id)</text>
</g>
</g>
</svg>
