<?xml version="1.0" encoding="UTF-8" standalone="no"?>
<!DOCTYPE svg PUBLIC "-//W3C//DTD SVG 1.1//EN"
 "http://www.w3.org/Graphics/SVG/1.1/DTD/svg11.dtd">
<!-- Generated by graphviz version 2.40.1 (20161225.0304)
 -->
<!-- Title: public.tracks_arrangers Pages: 1 -->
<svg width="1296pt" height="704pt"
 viewBox="0.00 0.00 1296.00 704.00" xmlns="http://www.w3.org/2000/svg" xmlns:xlink="http://www.w3.org/1999/xlink">
<g id="graph0" class="graph" transform="scale(1 1) rotate(0) translate(4 700)">
<title>public.tracks_arrangers</title>
<polygon fill="#ffffff" stroke="transparent" points="-4,4 -4,-700 1292,-700 1292,4 -4,4"/>
<!-- public.tracks_arrangers -->
<g id="node1" class="node">
<title>public.tracks_arrangers</title>
<polygon fill="#efefef" stroke="transparent" points="450,-604 450,-650 764,-650 764,-604 450,-604"/>
<polygon fill="none" stroke="#000000" points="450,-604 450,-650 764,-650 764,-604 450,-604"/>
<text text-anchor="start" x="464.8613" y="-627.8" font-family="Arial Bold" font-size="18.00" fill="#000000">public.tracks_arrangers</text>
<text text-anchor="start" x="651.8849" y="-627.8" font-family="Arial" font-size="14.00" fill="#000000"> </text>
<text text-anchor="start" x="655.7755" y="-627.8" font-family="Arial" font-size="14.00" fill="#666666">[BASE TABLE]</text>
<text text-anchor="start" x="562.5318" y="-613.4" font-family="Arial" font-size="14.00" fill="#333333">楽曲編曲者</text>
<polygon fill="none" stroke="#000000" points="450,-574 450,-604 764,-604 764,-574 450,-574"/>
<text text-anchor="start" x="457" y="-585.4" font-family="Arial" font-size="14.00" fill="#000000">track_id </text>
<text text-anchor="start" x="509.8962" y="-585.4" font-family="Arial" font-size="14.00" fill="#666666">[text]</text>
<text text-anchor="start" x="540.2412" y="-585.4" font-family="Arial" font-size="14.00" fill="#000000"> トラックID</text>
<polygon fill="none" stroke="#000000" points="450,-544 450,-574 764,-574 764,-544 450,-544"/>
<text text-anchor="start" x="457" y="-555.4" font-family="Arial" font-size="14.00" fill="#000000">artist_id </text>
<text text-anchor="start" x="509.8934" y="-555.4" font-family="Arial" font-size="14.00" fill="#666666">[text]</text>
<text text-anchor="start" x="540.2384" y="-555.4" font-family="Arial" font-size="14.00" fill="#000000"> 編曲者ID(アーティストID)</text>
<polygon fill="none" stroke="#000000" points="450,-514 450,-544 764,-544 764,-514 450,-514"/>
<text text-anchor="start" x="456.8542" y="-525.4" font-family="Arial" font-size="14.00" fill="#000000">created_at </text>
<text text-anchor="start" x="526.8822" y="-525.4" font-family="Arial" font-size="14.00" fill="#666666">[timestamp with time zone]</text>
<text text-anchor="start" x="692.5666" y="-525.4" font-family="Arial" font-size="14.00" fill="#000000"> 作成日時</text>
<polygon fill="none" stroke="#000000" points="450,-484 450,-514 764,-514 764,-484 450,-484"/>
<text text-anchor="start" x="457" y="-495.4" font-family="Arial" font-size="14.00" fill="#000000">updated_at </text>
<text text-anchor="start" x="530.9326" y="-495.4" font-family="Arial" font-size="14.00" fill="#666666">[timestamp with time zone]</text>
<text text-anchor="start" x="696.617" y="-495.4" font-family="Arial" font-size="14.00" fill="#000000"> 更新日時</text>
<polygon fill="none" stroke="#000000" stroke-width="3" points="448.5,-482.5 448.5,-651.5 765.5,-651.5 765.5,-482.5 448.5,-482.5"/>
</g>
<!-- public.tracks -->
<g id="node2" class="node">
<title>public.tracks</title>
<polygon fill="#efefef" stroke="transparent" points="43,-313 43,-359 519,-359 519,-313 43,-313"/>
<polygon fill="none" stroke="#000000" points="43,-313 43,-359 519,-359 519,-313 43,-313"/>
<text text-anchor="start" x="182.3682" y="-336.8" font-family="Arial Bold" font-size="18.00" fill="#000000">public.tracks</text>
<text text-anchor="start" x="282.378" y="-336.8" font-family="Arial" font-size="14.00" fill="#000000"> </text>
<text text-anchor="start" x="286.2686" y="-336.8" font-family="Arial" font-size="14.00" fill="#666666">[BASE TABLE]</text>
<text text-anchor="start" x="254.1347" y="-322.4" font-family="Arial" font-size="14.00" fill="#333333">トラック</text>
<polygon fill="none" stroke="#000000" points="43,-283 43,-313 519,-313 519,-283 43,-283"/>
<text text-anchor="start" x="50" y="-294.4" font-family="Arial" font-size="14.00" fill="#000000">id </text>
<text text-anchor="start" x="64.7798" y="-294.4" font-family="Arial" font-size="14.00" fill="#666666">[text]</text>
<polygon fill="none" stroke="#000000" points="43,-253 43,-283 519,-283 519,-253 43,-253"/>
<text text-anchor="start" x="50" y="-264.4" font-family="Arial" font-size="14.00" fill="#000000">album_id </text>
<text text-anchor="start" x="110.6774" y="-264.4" font-family="Arial" font-size="14.00" fill="#666666">[text]</text>
<text text-anchor="start" x="141.0224" y="-264.4" font-family="Arial" font-size="14.00" fill="#000000"> アルバムID</text>
<polygon fill="none" stroke="#000000" points="43,-223 43,-253 519,-253 519,-223 43,-223"/>
<text text-anchor="start" x="50" y="-234.4" font-family="Arial" font-size="14.00" fill="#000000">name </text>
<text text-anchor="start" x="88.899" y="-234.4" font-family="Arial" font-size="14.00" fill="#666666">[text]</text>
<text text-anchor="start" x="119.244" y="-234.4" font-family="Arial" font-size="14.00" fill="#000000"> 名前</text>
<polygon fill="none" stroke="#000000" points="43,-193 43,-223 519,-223 519,-193 43,-193"/>
<text text-anchor="start" x="50" y="-204.4" font-family="Arial" font-size="14.00" fill="#000000">disc_number </text>
<text text-anchor="start" x="134.014" y="-204.4" font-family="Arial" font-size="14.00" fill="#666666">[integer]</text>
<text text-anchor="start" x="184.5834" y="-204.4" font-family="Arial" font-size="14.00" fill="#000000"> ディスク番号(default: 1)</text>
<polygon fill="none" stroke="#000000" points="43,-163 43,-193 519,-193 519,-163 43,-163"/>
<text text-anchor="start" x="50" y="-174.4" font-family="Arial" font-size="14.00" fill="#000000">track_number </text>
<text text-anchor="start" x="139.4586" y="-174.4" font-family="Arial" font-size="14.00" fill="#666666">[integer]</text>
<text text-anchor="start" x="190.028" y="-174.4" font-family="Arial" font-size="14.00" fill="#000000"> トラック番号</text>
<polygon fill="none" stroke="#000000" points="43,-133 43,-163 519,-163 519,-133 43,-133"/>
<text text-anchor="start" x="49.8425" y="-144.4" font-family="Arial" font-size="14.00" fill="#000000">release_date </text>
<text text-anchor="start" x="134.6517" y="-144.4" font-family="Arial" font-size="14.00" fill="#666666">[date]</text>
<text text-anchor="start" x="169.6713" y="-144.4" font-family="Arial" font-size="14.00" fill="#000000"> 頒布日(アルバムの頒布日と異なる場合に使用する)</text>
<polygon fill="none" stroke="#000000" points="43,-103 43,-133 519,-133 519,-103 43,-103"/>
<text text-anchor="start" x="50" y="-114.4" font-family="Arial" font-size="14.00" fill="#000000">search_enabled </text>
<text text-anchor="start" x="153.4838" y="-114.4" font-family="Arial" font-size="14.00" fill="#666666">[boolean]</text>
<text text-anchor="start" x="211.0672" y="-114.4" font-family="Arial" font-size="14.00" fill="#000000"> 検索対象とするか(default: true)</text>
<polygon fill="none" stroke="#000000" points="43,-73 43,-103 519,-103 519,-73 43,-73"/>
<text text-anchor="start" x="50" y="-84.4" font-family="Arial" font-size="14.00" fill="#000000">created_at </text>
<text text-anchor="start" x="120.028" y="-84.4" font-family="Arial" font-size="14.00" fill="#666666">[timestamp with time zone]</text>
<text text-anchor="start" x="285.7124" y="-84.4" font-family="Arial" font-size="14.00" fill="#000000"> 作成日時</text>
<polygon fill="none" stroke="#000000" points="43,-43 43,-73 519,-73 519,-43 43,-43"/>
<text text-anchor="start" x="50" y="-54.4" font-family="Arial" font-size="14.00" fill="#000000">updated_at </text>
<text text-anchor="start" x="123.9326" y="-54.4" font-family="Arial" font-size="14.00" fill="#666666">[timestamp with time zone]</text>
<text text-anchor="start" x="289.617" y="-54.4" font-family="Arial" font-size="14.00" fill="#000000"> 更新日時</text>
</g>
<!-- public.tracks_arrangers&#45;&gt;public.tracks -->
<g id="edge1" class="edge">
<title>public.tracks_arrangers:track_id&#45;&gt;public.tracks:id</title>
<path fill="none" stroke="#000000" d="M439.8659,-588.1814C386.4315,-578.8697 417.1135,-492.2516 450,-438 467.9306,-408.4206 501.0694,-431.5794 519,-402 542.9606,-362.473 565.2222,-298 519,-298"/>
<polygon fill="#000000" stroke="#000000" points="440.0325,-588.1947 449.6376,-593.4854 445.0162,-588.5974 450,-589 450,-589 450,-589 445.0162,-588.5974 450.3624,-584.5146 440.0325,-588.1947 440.0325,-588.1947"/>
<text text-anchor="start" x="216.1145" y="-599" font-family="Arial" font-size="10.00" fill="#000000">FOREIGN KEY (track_id) REFERENCES tracks(id)</text>
</g>
<!-- public.artists -->
<g id="node3" class="node">
<title>public.artists</title>
<polygon fill="#efefef" stroke="transparent" points="623,-268 623,-314 1245,-314 1245,-268 623,-268"/>
<polygon fill="none" stroke="#000000" points="623,-268 623,-314 1245,-314 1245,-268 623,-268"/>
<text text-anchor="start" x="835.37" y="-291.8" font-family="Arial Bold" font-size="18.00" fill="#000000">public.artists</text>
<text text-anchor="start" x="935.3762" y="-291.8" font-family="Arial" font-size="14.00" fill="#000000"> </text>
<text text-anchor="start" x="939.2668" y="-291.8" font-family="Arial" font-size="14.00" fill="#666666">[BASE TABLE]</text>
<text text-anchor="start" x="885.7889" y="-277.4" font-family="Arial" font-size="14.00" fill="#333333">アーティスト</text>
<polygon fill="none" stroke="#000000" points="623,-238 623,-268 1245,-268 1245,-238 623,-238"/>
<text text-anchor="start" x="630" y="-249.4" font-family="Arial" font-size="14.00" fill="#000000">id </text>
<text text-anchor="start" x="644.7798" y="-249.4" font-family="Arial" font-size="14.00" fill="#666666">[text]</text>
<polygon fill="none" stroke="#000000" points="623,-208 623,-238 1245,-238 1245,-208 623,-208"/>
<text text-anchor="start" x="630" y="-219.4" font-family="Arial" font-size="14.00" fill="#000000">name </text>
<text text-anchor="start" x="668.899" y="-219.4" font-family="Arial" font-size="14.00" fill="#666666">[text]</text>
<text text-anchor="start" x="699.244" y="-219.4" font-family="Arial" font-size="14.00" fill="#000000"> 名前</text>
<polygon fill="none" stroke="#000000" points="623,-178 623,-208 1245,-208 1245,-178 623,-178"/>
<text text-anchor="start" x="629.5763" y="-189.4" font-family="Arial" font-size="14.00" fill="#000000">initial_letter_type </text>
<text text-anchor="start" x="738.4837" y="-189.4" font-family="Arial" font-size="14.00" fill="#666666">[initial_letter_type]</text>
<text text-anchor="start" x="851.2817" y="-189.4" font-family="Arial" font-size="14.00" fill="#000000"> 頭文字の文字種別(symbol,number,alphabet,kana,kanji,other)</text>
<polygon fill="none" stroke="#000000" points="623,-148 623,-178 1245,-178 1245,-148 623,-148"/>
<text text-anchor="start" x="630" y="-159.4" font-family="Arial" font-size="14.00" fill="#000000">initial_letter_detail </text>
<text text-anchor="start" x="745.9032" y="-159.4" font-family="Arial" font-size="14.00" fill="#666666">[text]</text>
<text text-anchor="start" x="776.2482" y="-159.4" font-family="Arial" font-size="14.00" fill="#000000"> 開催日</text>
<polygon fill="none" stroke="#000000" points="623,-118 623,-148 1245,-148 1245,-118 623,-118"/>
<text text-anchor="start" x="630" y="-129.4" font-family="Arial" font-size="14.00" fill="#000000">created_at </text>
<text text-anchor="start" x="700.028" y="-129.4" font-family="Arial" font-size="14.00" fill="#666666">[timestamp with time zone]</text>
<text text-anchor="start" x="865.7124" y="-129.4" font-family="Arial" font-size="14.00" fill="#000000"> 作成日時</text>
<polygon fill="none" stroke="#000000" points="623,-88 623,-118 1245,-118 1245,-88 623,-88"/>
<text text-anchor="start" x="630" y="-99.4" font-family="Arial" font-size="14.00" fill="#000000">updated_at </text>
<text text-anchor="start" x="703.9326" y="-99.4" font-family="Arial" font-size="14.00" fill="#666666">[timestamp with time zone]</text>
<text text-anchor="start" x="869.617" y="-99.4" font-family="Arial" font-size="14.00" fill="#000000"> 更新日時</text>
</g>
<!-- public.tracks_arrangers&#45;&gt;public.artists -->
<g id="edge2" class="edge">
<title>public.tracks_arrangers:artist_id&#45;&gt;public.artists:id</title>
<path fill="none" stroke="#000000" d="M774.1761,-557.9313C814.0031,-548.6676 789.0451,-481.2712 764,-438 727.7967,-375.4505 659.2033,-419.5495 623,-357 599.8456,-316.9954 576.7778,-253 623,-253"/>
<polygon fill="#000000" stroke="#000000" points="773.9453,-557.9554 763.5299,-554.5246 768.9727,-558.4777 764,-559 764,-559 764,-559 768.9727,-558.4777 764.4701,-563.4754 773.9453,-557.9554 773.9453,-557.9554"/>
<text text-anchor="start" x="771.1165" y="-569" font-family="Arial" font-size="10.00" fill="#000000">FOREIGN KEY (artist_id) REFERENCES artists(id)</text>
</g>
</g>
</svg>
