<?xml version="1.0" encoding="UTF-8" standalone="no"?>
<!DOCTYPE svg PUBLIC "-//W3C//DTD SVG 1.1//EN"
 "http://www.w3.org/Graphics/SVG/1.1/DTD/svg11.dtd">
<!-- Generated by graphviz version 2.40.1 (20161225.0304)
 -->
<!-- Title: public.circles_tags Pages: 1 -->
<svg width="1134pt" height="644pt"
 viewBox="0.00 0.00 1134.00 644.00" xmlns="http://www.w3.org/2000/svg" xmlns:xlink="http://www.w3.org/1999/xlink">
<g id="graph0" class="graph" transform="scale(1 1) rotate(0) translate(4 640)">
<title>public.circles_tags</title>
<polygon fill="#ffffff" stroke="transparent" points="-4,4 -4,-640 1130,-640 1130,4 -4,4"/>
<!-- public.circles_tags -->
<g id="node1" class="node">
<title>public.circles_tags</title>
<polygon fill="#efefef" stroke="transparent" points="441,-544 441,-590 838,-590 838,-544 441,-544"/>
<polygon fill="none" stroke="#000000" points="441,-544 441,-590 838,-590 838,-544 441,-544"/>
<text text-anchor="start" x="517.3647" y="-567.8" font-family="Arial Bold" font-size="18.00" fill="#000000">public.circles_tags</text>
<text text-anchor="start" x="664.3815" y="-567.8" font-family="Arial" font-size="14.00" fill="#000000"> </text>
<text text-anchor="start" x="668.2721" y="-567.8" font-family="Arial" font-size="14.00" fill="#666666">[BASE TABLE]</text>
<text text-anchor="start" x="589.7342" y="-553.4" font-family="Arial" font-size="14.00" fill="#333333">サークルタグ</text>
<polygon fill="none" stroke="#000000" points="441,-514 441,-544 838,-544 838,-514 441,-514"/>
<text text-anchor="start" x="448" y="-525.4" font-family="Arial" font-size="14.00" fill="#000000">circle_id </text>
<text text-anchor="start" x="503.2188" y="-525.4" font-family="Arial" font-size="14.00" fill="#666666">[text]</text>
<text text-anchor="start" x="533.5638" y="-525.4" font-family="Arial" font-size="14.00" fill="#000000"> サークルID</text>
<polygon fill="none" stroke="#000000" points="441,-484 441,-514 838,-514 838,-484 441,-484"/>
<text text-anchor="start" x="448" y="-495.4" font-family="Arial" font-size="14.00" fill="#000000">tag_id </text>
<text text-anchor="start" x="490.0182" y="-495.4" font-family="Arial" font-size="14.00" fill="#666666">[text]</text>
<text text-anchor="start" x="520.3632" y="-495.4" font-family="Arial" font-size="14.00" fill="#000000"> タグID</text>
<polygon fill="none" stroke="#000000" points="441,-454 441,-484 838,-484 838,-454 441,-454"/>
<text text-anchor="start" x="447.7826" y="-465.4" font-family="Arial" font-size="14.00" fill="#000000">locked </text>
<text text-anchor="start" x="492.1276" y="-465.4" font-family="Arial" font-size="14.00" fill="#666666">[boolean]</text>
<text text-anchor="start" x="549.711" y="-465.4" font-family="Arial" font-size="14.00" fill="#000000"> ロック有無(true: ロック、false: アンロック)</text>
<polygon fill="none" stroke="#000000" points="441,-424 441,-454 838,-454 838,-424 441,-424"/>
<text text-anchor="start" x="448" y="-435.4" font-family="Arial" font-size="14.00" fill="#000000">created_at </text>
<text text-anchor="start" x="518.028" y="-435.4" font-family="Arial" font-size="14.00" fill="#666666">[timestamp with time zone]</text>
<text text-anchor="start" x="683.7124" y="-435.4" font-family="Arial" font-size="14.00" fill="#000000"> 作成日時</text>
<polygon fill="none" stroke="#000000" points="441,-394 441,-424 838,-424 838,-394 441,-394"/>
<text text-anchor="start" x="448" y="-405.4" font-family="Arial" font-size="14.00" fill="#000000">updated_at </text>
<text text-anchor="start" x="521.9326" y="-405.4" font-family="Arial" font-size="14.00" fill="#666666">[timestamp with time zone]</text>
<text text-anchor="start" x="687.617" y="-405.4" font-family="Arial" font-size="14.00" fill="#000000"> 更新日時</text>
<polygon fill="none" stroke="#000000" stroke-width="3" points="439,-392.5 439,-591.5 839,-591.5 839,-392.5 439,-392.5"/>
</g>
<!-- public.circles -->
<g id="node2" class="node">
<title>public.circles</title>
<polygon fill="#efefef" stroke="transparent" points="43,-223 43,-269 665,-269 665,-223 43,-223"/>
<polygon fill="none" stroke="#000000" points="43,-223 43,-269 665,-269 665,-223 43,-223"/>
<text text-anchor="start" x="253.8751" y="-246.8" font-family="Arial Bold" font-size="18.00" fill="#000000">public.circles</text>
<text text-anchor="start" x="356.8711" y="-246.8" font-family="Arial" font-size="14.00" fill="#000000"> </text>
<text text-anchor="start" x="360.7617" y="-246.8" font-family="Arial" font-size="14.00" fill="#666666">[BASE TABLE]</text>
<text text-anchor="start" x="319.525" y="-232.4" font-family="Arial" font-size="14.00" fill="#333333">サークル</text>
<polygon fill="none" stroke="#000000" points="43,-193 43,-223 665,-223 665,-193 43,-193"/>
<text text-anchor="start" x="50" y="-204.4" font-family="Arial" font-size="14.00" fill="#000000">id </text>
<text text-anchor="start" x="64.7798" y="-204.4" font-family="Arial" font-size="14.00" fill="#666666">[text]</text>
<polygon fill="none" stroke="#000000" points="43,-163 43,-193 665,-193 665,-163 43,-163"/>
<text text-anchor="start" x="50" y="-174.4" font-family="Arial" font-size="14.00" fill="#000000">name </text>
<text text-anchor="start" x="88.899" y="-174.4" font-family="Arial" font-size="14.00" fill="#666666">[text]</text>
<text text-anchor="start" x="119.244" y="-174.4" font-family="Arial" font-size="14.00" fill="#000000"> 名前</text>
<polygon fill="none" stroke="#000000" points="43,-133 43,-163 665,-163 665,-133 43,-133"/>
<text text-anchor="start" x="49.5763" y="-144.4" font-family="Arial" font-size="14.00" fill="#000000">initial_letter_type </text>
<text text-anchor="start" x="158.4837" y="-144.4" font-family="Arial" font-size="14.00" fill="#666666">[initial_letter_type]</text>
<text text-anchor="start" x="271.2817" y="-144.4" font-family="Arial" font-size="14.00" fill="#000000"> 頭文字の文字種別(symbol,number,alphabet,kana,kanji,other)</text>
<polygon fill="none" stroke="#000000" points="43,-103 43,-133 665,-133 665,-103 43,-103"/>
<text text-anchor="start" x="50" y="-114.4" font-family="Arial" font-size="14.00" fill="#000000">initial_letter_detail </text>
<text text-anchor="start" x="165.9032" y="-114.4" font-family="Arial" font-size="14.00" fill="#666666">[text]</text>
<text text-anchor="start" x="196.2482" y="-114.4" font-family="Arial" font-size="14.00" fill="#000000"> 開催日</text>
<polygon fill="none" stroke="#000000" points="43,-73 43,-103 665,-103 665,-73 43,-73"/>
<text text-anchor="start" x="50" y="-84.4" font-family="Arial" font-size="14.00" fill="#000000">created_at </text>
<text text-anchor="start" x="120.028" y="-84.4" font-family="Arial" font-size="14.00" fill="#666666">[timestamp with time zone]</text>
<text text-anchor="start" x="285.7124" y="-84.4" font-family="Arial" font-size="14.00" fill="#000000"> 作成日時</text>
<polygon fill="none" stroke="#000000" points="43,-43 43,-73 665,-73 665,-43 43,-43"/>
<text text-anchor="start" x="50" y="-54.4" font-family="Arial" font-size="14.00" fill="#000000">updated_at </text>
<text text-anchor="start" x="123.9326" y="-54.4" font-family="Arial" font-size="14.00" fill="#666666">[timestamp with time zone]</text>
<text text-anchor="start" x="289.617" y="-54.4" font-family="Arial" font-size="14.00" fill="#000000"> 更新日時</text>
</g>
<!-- public.circles_tags&#45;&gt;public.circles -->
<g id="edge1" class="edge">
<title>public.circles_tags:circle_id&#45;&gt;public.circles:id</title>
<path fill="none" stroke="#000000" d="M430.8093,-528.2911C363.1436,-518.3575 391.1688,-406.4792 441,-348 506.3987,-271.2516 599.6013,-388.7484 665,-312 694.979,-276.8183 711.2222,-208 665,-208"/>
<polygon fill="#000000" stroke="#000000" points="431.0241,-528.3059 440.6877,-533.4892 436.0121,-528.653 441,-529 441,-529 441,-529 436.0121,-528.653 441.3123,-524.5108 431.0241,-528.3059 431.0241,-528.3059"/>
<text text-anchor="start" x="203.4555" y="-539" font-family="Arial" font-size="10.00" fill="#000000">FOREIGN KEY (circle_id) REFERENCES circles(id)</text>
</g>
<!-- public.tags -->
<g id="node3" class="node">
<title>public.tags</title>
<polygon fill="#efefef" stroke="transparent" points="769,-208 769,-254 1083,-254 1083,-208 769,-208"/>
<polygon fill="none" stroke="#000000" points="769,-208 769,-254 1083,-254 1083,-208 769,-208"/>
<text text-anchor="start" x="834.3612" y="-231.8" font-family="Arial Bold" font-size="18.00" fill="#000000">public.tags</text>
<text text-anchor="start" x="920.385" y="-231.8" font-family="Arial" font-size="14.00" fill="#000000"> </text>
<text text-anchor="start" x="924.2756" y="-231.8" font-family="Arial" font-size="14.00" fill="#666666">[BASE TABLE]</text>
<text text-anchor="start" x="910.7092" y="-217.4" font-family="Arial" font-size="14.00" fill="#333333">タグ</text>
<polygon fill="none" stroke="#000000" points="769,-178 769,-208 1083,-208 1083,-178 769,-178"/>
<text text-anchor="start" x="776" y="-189.4" font-family="Arial" font-size="14.00" fill="#000000">id </text>
<text text-anchor="start" x="790.7798" y="-189.4" font-family="Arial" font-size="14.00" fill="#666666">[text]</text>
<polygon fill="none" stroke="#000000" points="769,-148 769,-178 1083,-178 1083,-148 769,-148"/>
<text text-anchor="start" x="776" y="-159.4" font-family="Arial" font-size="14.00" fill="#000000">name </text>
<text text-anchor="start" x="814.899" y="-159.4" font-family="Arial" font-size="14.00" fill="#666666">[text]</text>
<text text-anchor="start" x="845.244" y="-159.4" font-family="Arial" font-size="14.00" fill="#000000"> 名前</text>
<polygon fill="none" stroke="#000000" points="769,-118 769,-148 1083,-148 1083,-118 769,-118"/>
<text text-anchor="start" x="776" y="-129.4" font-family="Arial" font-size="14.00" fill="#000000">tag_type </text>
<text text-anchor="start" x="833.5848" y="-129.4" font-family="Arial" font-size="14.00" fill="#666666">[tag_type]</text>
<text text-anchor="start" x="895.0602" y="-129.4" font-family="Arial" font-size="14.00" fill="#000000"> タグ種別</text>
<polygon fill="none" stroke="#000000" points="769,-88 769,-118 1083,-118 1083,-88 769,-88"/>
<text text-anchor="start" x="775.8542" y="-99.4" font-family="Arial" font-size="14.00" fill="#000000">created_at </text>
<text text-anchor="start" x="845.8822" y="-99.4" font-family="Arial" font-size="14.00" fill="#666666">[timestamp with time zone]</text>
<text text-anchor="start" x="1011.5666" y="-99.4" font-family="Arial" font-size="14.00" fill="#000000"> 作成日時</text>
<polygon fill="none" stroke="#000000" points="769,-58 769,-88 1083,-88 1083,-58 769,-58"/>
<text text-anchor="start" x="776" y="-69.4" font-family="Arial" font-size="14.00" fill="#000000">updated_at </text>
<text text-anchor="start" x="849.9326" y="-69.4" font-family="Arial" font-size="14.00" fill="#666666">[timestamp with time zone]</text>
<text text-anchor="start" x="1015.617" y="-69.4" font-family="Arial" font-size="14.00" fill="#000000"> 更新日時</text>
</g>
<!-- public.circles_tags&#45;&gt;public.tags -->
<g id="edge2" class="edge">
<title>public.circles_tags:tag_id&#45;&gt;public.tags:id</title>
<path fill="none" stroke="#000000" d="M848.0954,-498.2028C901.0964,-489.1314 866.5699,-404.6438 838,-348 820.8267,-313.9515 786.1733,-331.0485 769,-297 748.1844,-255.7301 722.7778,-193 769,-193"/>
<polygon fill="#000000" stroke="#000000" points="847.969,-498.2127 837.6457,-494.514 842.9845,-498.6064 838,-499 838,-499 838,-499 842.9845,-498.6064 838.3543,-503.486 847.969,-498.2127 847.969,-498.2127"/>
<text text-anchor="start" x="844.8845" y="-509" font-family="Arial" font-size="10.00" fill="#000000">FOREIGN KEY (tag_id) REFERENCES tags(id)</text>
</g>
</g>
</svg>
