<?xml version="1.0" encoding="UTF-8" standalone="no"?>
<!DOCTYPE svg PUBLIC "-//W3C//DTD SVG 1.1//EN"
 "http://www.w3.org/Graphics/SVG/1.1/DTD/svg11.dtd">
<!-- Generated by graphviz version 2.40.1 (20161225.0304)
 -->
<!-- Title: public.album_upcs Pages: 1 -->
<svg width="632pt" height="914pt"
 viewBox="0.00 0.00 632.00 914.00" xmlns="http://www.w3.org/2000/svg" xmlns:xlink="http://www.w3.org/1999/xlink">
<g id="graph0" class="graph" transform="scale(1 1) rotate(0) translate(4 910)">
<title>public.album_upcs</title>
<polygon fill="#ffffff" stroke="transparent" points="-4,4 -4,-910 628,-910 628,4 -4,4"/>
<!-- public.album_upcs -->
<g id="node1" class="node">
<title>public.album_upcs</title>
<polygon fill="#efefef" stroke="transparent" points="58,-814 58,-860 372,-860 372,-814 58,-814"/>
<polygon fill="none" stroke="#000000" points="58,-814 58,-860 372,-860 372,-814 58,-814"/>
<text text-anchor="start" x="76.6996" y="-837.8" font-family="Arial Bold" font-size="18.00" fill="#000000">public.album_upcs</text>
<text text-anchor="start" x="225.7324" y="-837.8" font-family="Arial" font-size="14.00" fill="#000000">    </text>
<text text-anchor="start" x="259.9372" y="-837.8" font-family="Arial" font-size="14.00" fill="#666666">[BASE TABLE]</text>
<text text-anchor="start" x="170.4135" y="-823.4" font-family="Arial" font-size="14.00" fill="#333333">アルバムUPC</text>
<polygon fill="none" stroke="#000000" points="58,-784 58,-814 372,-814 372,-784 58,-784"/>
<text text-anchor="start" x="65" y="-795.4" font-family="Arial" font-size="14.00" fill="#000000">id </text>
<text text-anchor="start" x="79.7798" y="-795.4" font-family="Arial" font-size="14.00" fill="#666666">[text]</text>
<polygon fill="none" stroke="#000000" points="58,-754 58,-784 372,-784 372,-754 58,-754"/>
<text text-anchor="start" x="65" y="-765.4" font-family="Arial" font-size="14.00" fill="#000000">album_id </text>
<text text-anchor="start" x="125.6774" y="-765.4" font-family="Arial" font-size="14.00" fill="#666666">[text]</text>
<text text-anchor="start" x="156.0224" y="-765.4" font-family="Arial" font-size="14.00" fill="#000000"> アルバムID</text>
<polygon fill="none" stroke="#000000" points="58,-724 58,-754 372,-754 372,-724 58,-724"/>
<text text-anchor="start" x="65" y="-735.4" font-family="Arial" font-size="14.00" fill="#000000">upc </text>
<text text-anchor="start" x="91.4558" y="-735.4" font-family="Arial" font-size="14.00" fill="#666666">[text]</text>
<text text-anchor="start" x="121.8008" y="-735.4" font-family="Arial" font-size="14.00" fill="#000000"> UPC(JAN)コード</text>
<polygon fill="none" stroke="#000000" points="58,-694 58,-724 372,-724 372,-694 58,-694"/>
<text text-anchor="start" x="64.8542" y="-705.4" font-family="Arial" font-size="14.00" fill="#000000">created_at </text>
<text text-anchor="start" x="134.8822" y="-705.4" font-family="Arial" font-size="14.00" fill="#666666">[timestamp with time zone]</text>
<text text-anchor="start" x="300.5666" y="-705.4" font-family="Arial" font-size="14.00" fill="#000000"> 作成日時</text>
<polygon fill="none" stroke="#000000" points="58,-664 58,-694 372,-694 372,-664 58,-664"/>
<text text-anchor="start" x="65" y="-675.4" font-family="Arial" font-size="14.00" fill="#000000">updated_at </text>
<text text-anchor="start" x="138.9326" y="-675.4" font-family="Arial" font-size="14.00" fill="#666666">[timestamp with time zone]</text>
<text text-anchor="start" x="304.617" y="-675.4" font-family="Arial" font-size="14.00" fill="#000000"> 更新日時</text>
<polygon fill="none" stroke="#000000" stroke-width="3" points="56.5,-662.5 56.5,-861.5 373.5,-861.5 373.5,-662.5 56.5,-662.5"/>
</g>
<!-- public.albums -->
<g id="node2" class="node">
<title>public.albums</title>
<polygon fill="#efefef" stroke="transparent" points="43,-493 43,-539 387,-539 387,-493 43,-493"/>
<polygon fill="none" stroke="#000000" points="43,-493 43,-539 387,-539 387,-493 43,-493"/>
<text text-anchor="start" x="96.2089" y="-516.8" font-family="Arial Bold" font-size="18.00" fill="#000000">public.albums</text>
<text text-anchor="start" x="206.2231" y="-516.8" font-family="Arial" font-size="14.00" fill="#000000">    </text>
<text text-anchor="start" x="240.4279" y="-516.8" font-family="Arial" font-size="14.00" fill="#666666">[BASE TABLE]</text>
<text text-anchor="start" x="185.1884" y="-502.4" font-family="Arial" font-size="14.00" fill="#333333">アルバム</text>
<polygon fill="none" stroke="#000000" points="43,-463 43,-493 387,-493 387,-463 43,-463"/>
<text text-anchor="start" x="50" y="-474.4" font-family="Arial" font-size="14.00" fill="#000000">id    </text>
<text text-anchor="start" x="95.094" y="-474.4" font-family="Arial" font-size="14.00" fill="#666666">[text]</text>
<polygon fill="none" stroke="#000000" points="43,-433 43,-463 387,-463 387,-433 43,-433"/>
<text text-anchor="start" x="50" y="-444.4" font-family="Arial" font-size="14.00" fill="#000000">name    </text>
<text text-anchor="start" x="119.2132" y="-444.4" font-family="Arial" font-size="14.00" fill="#666666">[text]</text>
<text text-anchor="start" x="149.5582" y="-444.4" font-family="Arial" font-size="14.00" fill="#000000"> 名前</text>
<polygon fill="none" stroke="#000000" points="43,-403 43,-433 387,-433 387,-403 43,-403"/>
<text text-anchor="start" x="50" y="-414.4" font-family="Arial" font-size="14.00" fill="#000000">release_circle_name    </text>
<text text-anchor="start" x="213.3324" y="-414.4" font-family="Arial" font-size="14.00" fill="#666666">[text]</text>
<text text-anchor="start" x="243.6774" y="-414.4" font-family="Arial" font-size="14.00" fill="#000000"> 頒布サークル名</text>
<polygon fill="none" stroke="#000000" points="43,-373 43,-403 387,-403 387,-373 43,-373"/>
<text text-anchor="start" x="50" y="-384.4" font-family="Arial" font-size="14.00" fill="#000000">release_date    </text>
<text text-anchor="start" x="165.1234" y="-384.4" font-family="Arial" font-size="14.00" fill="#666666">[date]</text>
<text text-anchor="start" x="200.143" y="-384.4" font-family="Arial" font-size="14.00" fill="#000000"> 頒布日</text>
<polygon fill="none" stroke="#000000" points="43,-343 43,-373 387,-373 387,-343 43,-343"/>
<text text-anchor="start" x="50" y="-354.4" font-family="Arial" font-size="14.00" fill="#000000">event_id    </text>
<text text-anchor="start" x="137.115" y="-354.4" font-family="Arial" font-size="14.00" fill="#666666">[text]</text>
<text text-anchor="start" x="167.46" y="-354.4" font-family="Arial" font-size="14.00" fill="#000000"> イベントID</text>
<polygon fill="none" stroke="#000000" points="43,-313 43,-343 387,-343 387,-313 43,-313"/>
<text text-anchor="start" x="50" y="-324.4" font-family="Arial" font-size="14.00" fill="#000000">sub_event_id    </text>
<text text-anchor="start" x="167.4628" y="-324.4" font-family="Arial" font-size="14.00" fill="#666666">[text]</text>
<text text-anchor="start" x="197.8078" y="-324.4" font-family="Arial" font-size="14.00" fill="#000000"> サブイベントID</text>
<polygon fill="none" stroke="#000000" points="43,-283 43,-313 387,-313 387,-283 43,-283"/>
<text text-anchor="start" x="50" y="-294.4" font-family="Arial" font-size="14.00" fill="#000000">search_enabled    </text>
<text text-anchor="start" x="183.798" y="-294.4" font-family="Arial" font-size="14.00" fill="#666666">[boolean]</text>
<text text-anchor="start" x="241.3814" y="-294.4" font-family="Arial" font-size="14.00" fill="#000000"> 検索対象とするか</text>
<polygon fill="none" stroke="#000000" points="43,-253 43,-283 387,-283 387,-253 43,-253"/>
<text text-anchor="start" x="50" y="-264.4" font-family="Arial" font-size="14.00" fill="#000000">album_number    </text>
<text text-anchor="start" x="177.554" y="-264.4" font-family="Arial" font-size="14.00" fill="#666666">[text]</text>
<polygon fill="none" stroke="#000000" points="43,-223 43,-253 387,-253 387,-223 43,-223"/>
<text text-anchor="start" x="50" y="-234.4" font-family="Arial" font-size="14.00" fill="#000000">event_price    </text>
<text text-anchor="start" x="156.5582" y="-234.4" font-family="Arial" font-size="14.00" fill="#666666">[numeric]</text>
<text text-anchor="start" x="214.115" y="-234.4" font-family="Arial" font-size="14.00" fill="#000000"> イベント価格</text>
<polygon fill="none" stroke="#000000" points="43,-193 43,-223 387,-223 387,-193 43,-193"/>
<text text-anchor="start" x="50" y="-204.4" font-family="Arial" font-size="14.00" fill="#000000">currency    </text>
<text text-anchor="start" x="137.8738" y="-204.4" font-family="Arial" font-size="14.00" fill="#666666">[text]</text>
<text text-anchor="start" x="168.2188" y="-204.4" font-family="Arial" font-size="14.00" fill="#000000"> 通貨(default: JPY)</text>
<polygon fill="none" stroke="#000000" points="43,-163 43,-193 387,-193 387,-163 43,-163"/>
<text text-anchor="start" x="50" y="-174.4" font-family="Arial" font-size="14.00" fill="#000000">credit    </text>
<text text-anchor="start" x="118.4278" y="-174.4" font-family="Arial" font-size="14.00" fill="#666666">[text]</text>
<text text-anchor="start" x="148.7728" y="-174.4" font-family="Arial" font-size="14.00" fill="#000000"> クレジット</text>
<polygon fill="none" stroke="#000000" points="43,-133 43,-163 387,-163 387,-133 43,-133"/>
<text text-anchor="start" x="50" y="-144.4" font-family="Arial" font-size="14.00" fill="#000000">introduction    </text>
<text text-anchor="start" x="156.5554" y="-144.4" font-family="Arial" font-size="14.00" fill="#666666">[text]</text>
<text text-anchor="start" x="186.9004" y="-144.4" font-family="Arial" font-size="14.00" fill="#000000"> 紹介</text>
<polygon fill="none" stroke="#000000" points="43,-103 43,-133 387,-133 387,-103 43,-103"/>
<text text-anchor="start" x="50" y="-114.4" font-family="Arial" font-size="14.00" fill="#000000">url    </text>
<text text-anchor="start" x="99.7546" y="-114.4" font-family="Arial" font-size="14.00" fill="#666666">[text]</text>
<text text-anchor="start" x="130.0996" y="-114.4" font-family="Arial" font-size="14.00" fill="#000000"> URL</text>
<polygon fill="none" stroke="#000000" points="43,-73 43,-103 387,-103 387,-73 43,-73"/>
<text text-anchor="start" x="49.6971" y="-84.4" font-family="Arial" font-size="14.00" fill="#000000">created_at    </text>
<text text-anchor="start" x="150.0393" y="-84.4" font-family="Arial" font-size="14.00" fill="#666666">[timestamp with time zone]</text>
<text text-anchor="start" x="315.7237" y="-84.4" font-family="Arial" font-size="14.00" fill="#000000"> 作成日時</text>
<polygon fill="none" stroke="#000000" points="43,-43 43,-73 387,-73 387,-43 43,-43"/>
<text text-anchor="start" x="50" y="-54.4" font-family="Arial" font-size="14.00" fill="#000000">updated_at    </text>
<text text-anchor="start" x="154.2468" y="-54.4" font-family="Arial" font-size="14.00" fill="#666666">[timestamp with time zone]</text>
<text text-anchor="start" x="319.9312" y="-54.4" font-family="Arial" font-size="14.00" fill="#000000"> 更新日時</text>
</g>
<!-- public.album_upcs&#45;&gt;public.albums -->
<g id="edge1" class="edge">
<title>public.album_upcs:album_id&#45;&gt;public.albums:id</title>
<path fill="none" stroke="#000000" d="M381.8246,-766.6576C438.1128,-739.1178 448.3378,-478 387,-478"/>
<polygon fill="#000000" stroke="#000000" points="381.7273,-766.6807 370.9563,-764.6227 376.8637,-767.8404 372,-769 372,-769 372,-769 376.8637,-767.8404 373.0437,-773.3773 381.7273,-766.6807 381.7273,-766.6807"/>
<text text-anchor="start" x="378.5565" y="-779" font-family="Arial" font-size="10.00" fill="#000000">FOREIGN KEY (album_id) REFERENCES albums(id)</text>
</g>
</g>
</svg>
