<?xml version="1.0" encoding="UTF-8" standalone="no"?>
<!DOCTYPE svg PUBLIC "-//W3C//DTD SVG 1.1//EN"
 "http://www.w3.org/Graphics/SVG/1.1/DTD/svg11.dtd">
<!-- Generated by graphviz version 2.40.1 (20161225.0304)
 -->
<!-- Title: public.albums_tags Pages: 1 -->
<svg width="898pt" height="1004pt"
 viewBox="0.00 0.00 898.00 1004.00" xmlns="http://www.w3.org/2000/svg" xmlns:xlink="http://www.w3.org/1999/xlink">
<g id="graph0" class="graph" transform="scale(1 1) rotate(0) translate(4 1000)">
<title>public.albums_tags</title>
<polygon fill="#ffffff" stroke="transparent" points="-4,4 -4,-1000 894,-1000 894,4 -4,4"/>
<!-- public.albums_tags -->
<g id="node1" class="node">
<title>public.albums_tags</title>
<polygon fill="#efefef" stroke="transparent" points="252,-904 252,-950 649,-950 649,-904 252,-904"/>
<polygon fill="none" stroke="#000000" points="252,-904 252,-950 649,-950 649,-904 252,-904"/>
<text text-anchor="start" x="309.6985" y="-927.8" font-family="Arial Bold" font-size="18.00" fill="#000000">public.albums_tags</text>
<text text-anchor="start" x="463.7335" y="-927.8" font-family="Arial" font-size="14.00" fill="#000000">    </text>
<text text-anchor="start" x="497.9383" y="-927.8" font-family="Arial" font-size="14.00" fill="#666666">[BASE TABLE]</text>
<text text-anchor="start" x="405.3976" y="-913.4" font-family="Arial" font-size="14.00" fill="#333333">アルバムタグ</text>
<polygon fill="none" stroke="#000000" points="252,-874 252,-904 649,-904 649,-874 252,-874"/>
<text text-anchor="start" x="259" y="-885.4" font-family="Arial" font-size="14.00" fill="#000000">id </text>
<text text-anchor="start" x="273.7798" y="-885.4" font-family="Arial" font-size="14.00" fill="#666666">[text]</text>
<text text-anchor="start" x="304.1248" y="-885.4" font-family="Arial" font-size="14.00" fill="#000000"> ID</text>
<polygon fill="none" stroke="#000000" points="252,-844 252,-874 649,-874 649,-844 252,-844"/>
<text text-anchor="start" x="259" y="-855.4" font-family="Arial" font-size="14.00" fill="#000000">album_id </text>
<text text-anchor="start" x="319.6774" y="-855.4" font-family="Arial" font-size="14.00" fill="#666666">[text]</text>
<text text-anchor="start" x="350.0224" y="-855.4" font-family="Arial" font-size="14.00" fill="#000000"> アルバムID</text>
<polygon fill="none" stroke="#000000" points="252,-814 252,-844 649,-844 649,-814 252,-814"/>
<text text-anchor="start" x="259" y="-825.4" font-family="Arial" font-size="14.00" fill="#000000">tag_id </text>
<text text-anchor="start" x="301.0182" y="-825.4" font-family="Arial" font-size="14.00" fill="#666666">[text]</text>
<text text-anchor="start" x="331.3632" y="-825.4" font-family="Arial" font-size="14.00" fill="#000000"> タグID</text>
<polygon fill="none" stroke="#000000" points="252,-784 252,-814 649,-814 649,-784 252,-784"/>
<text text-anchor="start" x="258.7826" y="-795.4" font-family="Arial" font-size="14.00" fill="#000000">locked </text>
<text text-anchor="start" x="303.1276" y="-795.4" font-family="Arial" font-size="14.00" fill="#666666">[boolean]</text>
<text text-anchor="start" x="360.711" y="-795.4" font-family="Arial" font-size="14.00" fill="#000000"> ロック有無(true: ロック、false: アンロック)</text>
<polygon fill="none" stroke="#000000" points="252,-754 252,-784 649,-784 649,-754 252,-754"/>
<text text-anchor="start" x="259" y="-765.4" font-family="Arial" font-size="14.00" fill="#000000">created_at </text>
<text text-anchor="start" x="329.028" y="-765.4" font-family="Arial" font-size="14.00" fill="#666666">[timestamp with time zone]</text>
<text text-anchor="start" x="494.7124" y="-765.4" font-family="Arial" font-size="14.00" fill="#000000"> 作成日時</text>
<polygon fill="none" stroke="#000000" points="252,-724 252,-754 649,-754 649,-724 252,-724"/>
<text text-anchor="start" x="259" y="-735.4" font-family="Arial" font-size="14.00" fill="#000000">updated_at </text>
<text text-anchor="start" x="332.9326" y="-735.4" font-family="Arial" font-size="14.00" fill="#666666">[timestamp with time zone]</text>
<text text-anchor="start" x="498.617" y="-735.4" font-family="Arial" font-size="14.00" fill="#000000"> 更新日時</text>
<polygon fill="none" stroke="#000000" stroke-width="3" points="250,-722.5 250,-951.5 650,-951.5 650,-722.5 250,-722.5"/>
</g>
<!-- public.albums -->
<g id="node2" class="node">
<title>public.albums</title>
<polygon fill="#efefef" stroke="transparent" points="55,-553 55,-599 399,-599 399,-553 55,-553"/>
<polygon fill="none" stroke="#000000" points="55,-553 55,-599 399,-599 399,-553 55,-553"/>
<text text-anchor="start" x="108.2089" y="-576.8" font-family="Arial Bold" font-size="18.00" fill="#000000">public.albums</text>
<text text-anchor="start" x="218.2231" y="-576.8" font-family="Arial" font-size="14.00" fill="#000000">    </text>
<text text-anchor="start" x="252.4279" y="-576.8" font-family="Arial" font-size="14.00" fill="#666666">[BASE TABLE]</text>
<text text-anchor="start" x="197.1884" y="-562.4" font-family="Arial" font-size="14.00" fill="#333333">アルバム</text>
<polygon fill="none" stroke="#000000" points="55,-523 55,-553 399,-553 399,-523 55,-523"/>
<text text-anchor="start" x="62" y="-534.4" font-family="Arial" font-size="14.00" fill="#000000">id    </text>
<text text-anchor="start" x="107.094" y="-534.4" font-family="Arial" font-size="14.00" fill="#666666">[text]</text>
<polygon fill="none" stroke="#000000" points="55,-493 55,-523 399,-523 399,-493 55,-493"/>
<text text-anchor="start" x="62" y="-504.4" font-family="Arial" font-size="14.00" fill="#000000">name    </text>
<text text-anchor="start" x="131.2132" y="-504.4" font-family="Arial" font-size="14.00" fill="#666666">[text]</text>
<text text-anchor="start" x="161.5582" y="-504.4" font-family="Arial" font-size="14.00" fill="#000000"> 名前</text>
<polygon fill="none" stroke="#000000" points="55,-463 55,-493 399,-493 399,-463 55,-463"/>
<text text-anchor="start" x="62" y="-474.4" font-family="Arial" font-size="14.00" fill="#000000">name_reading    </text>
<text text-anchor="start" x="185.676" y="-474.4" font-family="Arial" font-size="14.00" fill="#666666">[text]</text>
<text text-anchor="start" x="216.021" y="-474.4" font-family="Arial" font-size="14.00" fill="#000000"> 名前読み方</text>
<polygon fill="none" stroke="#000000" points="55,-433 55,-463 399,-463 399,-433 55,-433"/>
<text text-anchor="start" x="62" y="-444.4" font-family="Arial" font-size="14.00" fill="#000000">slug    </text>
<text text-anchor="start" x="121.8766" y="-444.4" font-family="Arial" font-size="14.00" fill="#666666">[text]</text>
<text text-anchor="start" x="152.2216" y="-444.4" font-family="Arial" font-size="14.00" fill="#000000"> スラッグ</text>
<polygon fill="none" stroke="#000000" points="55,-403 55,-433 399,-433 399,-403 55,-403"/>
<text text-anchor="start" x="62" y="-414.4" font-family="Arial" font-size="14.00" fill="#000000">release_circle_name    </text>
<text text-anchor="start" x="225.3324" y="-414.4" font-family="Arial" font-size="14.00" fill="#666666">[text]</text>
<text text-anchor="start" x="255.6774" y="-414.4" font-family="Arial" font-size="14.00" fill="#000000"> 頒布サークル名</text>
<polygon fill="none" stroke="#000000" points="55,-373 55,-403 399,-403 399,-373 55,-373"/>
<text text-anchor="start" x="62" y="-384.4" font-family="Arial" font-size="14.00" fill="#000000">release_date    </text>
<text text-anchor="start" x="177.1234" y="-384.4" font-family="Arial" font-size="14.00" fill="#666666">[date]</text>
<text text-anchor="start" x="212.143" y="-384.4" font-family="Arial" font-size="14.00" fill="#000000"> 頒布日</text>
<polygon fill="none" stroke="#000000" points="55,-343 55,-373 399,-373 399,-343 55,-343"/>
<text text-anchor="start" x="62" y="-354.4" font-family="Arial" font-size="14.00" fill="#000000">event_id    </text>
<text text-anchor="start" x="149.115" y="-354.4" font-family="Arial" font-size="14.00" fill="#666666">[text]</text>
<text text-anchor="start" x="179.46" y="-354.4" font-family="Arial" font-size="14.00" fill="#000000"> イベントID</text>
<polygon fill="none" stroke="#000000" points="55,-313 55,-343 399,-343 399,-313 55,-313"/>
<text text-anchor="start" x="62" y="-324.4" font-family="Arial" font-size="14.00" fill="#000000">sub_event_id    </text>
<text text-anchor="start" x="179.4628" y="-324.4" font-family="Arial" font-size="14.00" fill="#666666">[text]</text>
<text text-anchor="start" x="209.8078" y="-324.4" font-family="Arial" font-size="14.00" fill="#000000"> サブイベントID</text>
<polygon fill="none" stroke="#000000" points="55,-283 55,-313 399,-313 399,-283 55,-283"/>
<text text-anchor="start" x="62" y="-294.4" font-family="Arial" font-size="14.00" fill="#000000">search_enabled    </text>
<text text-anchor="start" x="195.798" y="-294.4" font-family="Arial" font-size="14.00" fill="#666666">[boolean]</text>
<text text-anchor="start" x="253.3814" y="-294.4" font-family="Arial" font-size="14.00" fill="#000000"> 検索対象とするか</text>
<polygon fill="none" stroke="#000000" points="55,-253 55,-283 399,-283 399,-253 55,-253"/>
<text text-anchor="start" x="62" y="-264.4" font-family="Arial" font-size="14.00" fill="#000000">album_number    </text>
<text text-anchor="start" x="189.554" y="-264.4" font-family="Arial" font-size="14.00" fill="#666666">[text]</text>
<polygon fill="none" stroke="#000000" points="55,-223 55,-253 399,-253 399,-223 55,-223"/>
<text text-anchor="start" x="62" y="-234.4" font-family="Arial" font-size="14.00" fill="#000000">event_price    </text>
<text text-anchor="start" x="168.5582" y="-234.4" font-family="Arial" font-size="14.00" fill="#666666">[numeric]</text>
<text text-anchor="start" x="226.115" y="-234.4" font-family="Arial" font-size="14.00" fill="#000000"> イベント価格</text>
<polygon fill="none" stroke="#000000" points="55,-193 55,-223 399,-223 399,-193 55,-193"/>
<text text-anchor="start" x="62" y="-204.4" font-family="Arial" font-size="14.00" fill="#000000">currency    </text>
<text text-anchor="start" x="149.8738" y="-204.4" font-family="Arial" font-size="14.00" fill="#666666">[text]</text>
<text text-anchor="start" x="180.2188" y="-204.4" font-family="Arial" font-size="14.00" fill="#000000"> 通貨(default: JPY)</text>
<polygon fill="none" stroke="#000000" points="55,-163 55,-193 399,-193 399,-163 55,-163"/>
<text text-anchor="start" x="62" y="-174.4" font-family="Arial" font-size="14.00" fill="#000000">credit    </text>
<text text-anchor="start" x="130.4278" y="-174.4" font-family="Arial" font-size="14.00" fill="#666666">[text]</text>
<text text-anchor="start" x="160.7728" y="-174.4" font-family="Arial" font-size="14.00" fill="#000000"> クレジット</text>
<polygon fill="none" stroke="#000000" points="55,-133 55,-163 399,-163 399,-133 55,-133"/>
<text text-anchor="start" x="62" y="-144.4" font-family="Arial" font-size="14.00" fill="#000000">introduction    </text>
<text text-anchor="start" x="168.5554" y="-144.4" font-family="Arial" font-size="14.00" fill="#666666">[text]</text>
<text text-anchor="start" x="198.9004" y="-144.4" font-family="Arial" font-size="14.00" fill="#000000"> 紹介</text>
<polygon fill="none" stroke="#000000" points="55,-103 55,-133 399,-133 399,-103 55,-103"/>
<text text-anchor="start" x="62" y="-114.4" font-family="Arial" font-size="14.00" fill="#000000">url    </text>
<text text-anchor="start" x="111.7546" y="-114.4" font-family="Arial" font-size="14.00" fill="#666666">[text]</text>
<text text-anchor="start" x="142.0996" y="-114.4" font-family="Arial" font-size="14.00" fill="#000000"> URL</text>
<polygon fill="none" stroke="#000000" points="55,-73 55,-103 399,-103 399,-73 55,-73"/>
<text text-anchor="start" x="61.6971" y="-84.4" font-family="Arial" font-size="14.00" fill="#000000">created_at    </text>
<text text-anchor="start" x="162.0393" y="-84.4" font-family="Arial" font-size="14.00" fill="#666666">[timestamp with time zone]</text>
<text text-anchor="start" x="327.7237" y="-84.4" font-family="Arial" font-size="14.00" fill="#000000"> 作成日時</text>
<polygon fill="none" stroke="#000000" points="55,-43 55,-73 399,-73 399,-43 55,-43"/>
<text text-anchor="start" x="62" y="-54.4" font-family="Arial" font-size="14.00" fill="#000000">updated_at    </text>
<text text-anchor="start" x="166.2468" y="-54.4" font-family="Arial" font-size="14.00" fill="#666666">[timestamp with time zone]</text>
<text text-anchor="start" x="331.9312" y="-54.4" font-family="Arial" font-size="14.00" fill="#000000"> 更新日時</text>
</g>
<!-- public.albums_tags&#45;&gt;public.albums -->
<g id="edge1" class="edge">
<title>public.albums_tags:album_id&#45;&gt;public.albums:id</title>
<path fill="none" stroke="#000000" d="M241.8239,-858.303C174.3595,-848.5341 204.572,-738.4446 252,-678 293.5224,-625.0818 357.4776,-694.9182 399,-642 427.5332,-605.6359 445.2222,-538 399,-538"/>
<polygon fill="#000000" stroke="#000000" points="242.0234,-858.3166 251.6925,-863.4895 247.0117,-858.6583 252,-859 252,-859 252,-859 247.0117,-858.6583 252.3075,-854.5105 242.0234,-858.3166 242.0234,-858.3166"/>
<text text-anchor="start" x="6.5565" y="-869" font-family="Arial" font-size="10.00" fill="#000000">FOREIGN KEY (album_id) REFERENCES albums(id)</text>
</g>
<!-- public.tags -->
<g id="node3" class="node">
<title>public.tags</title>
<polygon fill="#efefef" stroke="transparent" points="503,-373 503,-419 847,-419 847,-373 503,-373"/>
<polygon fill="none" stroke="#000000" points="503,-373 503,-419 847,-419 847,-373 503,-373"/>
<text text-anchor="start" x="568.2041" y="-396.8" font-family="Arial Bold" font-size="18.00" fill="#000000">public.tags</text>
<text text-anchor="start" x="654.2279" y="-396.8" font-family="Arial" font-size="14.00" fill="#000000">    </text>
<text text-anchor="start" x="688.4327" y="-396.8" font-family="Arial" font-size="14.00" fill="#666666">[BASE TABLE]</text>
<text text-anchor="start" x="659.7092" y="-382.4" font-family="Arial" font-size="14.00" fill="#333333">タグ</text>
<polygon fill="none" stroke="#000000" points="503,-343 503,-373 847,-373 847,-343 503,-343"/>
<text text-anchor="start" x="510" y="-354.4" font-family="Arial" font-size="14.00" fill="#000000">id    </text>
<text text-anchor="start" x="555.094" y="-354.4" font-family="Arial" font-size="14.00" fill="#666666">[text]</text>
<text text-anchor="start" x="585.439" y="-354.4" font-family="Arial" font-size="14.00" fill="#000000"> ID</text>
<polygon fill="none" stroke="#000000" points="503,-313 503,-343 847,-343 847,-313 503,-313"/>
<text text-anchor="start" x="510" y="-324.4" font-family="Arial" font-size="14.00" fill="#000000">name    </text>
<text text-anchor="start" x="579.2132" y="-324.4" font-family="Arial" font-size="14.00" fill="#666666">[text]</text>
<text text-anchor="start" x="609.5582" y="-324.4" font-family="Arial" font-size="14.00" fill="#000000"> 名前</text>
<polygon fill="none" stroke="#000000" points="503,-283 503,-313 847,-313 847,-283 503,-283"/>
<text text-anchor="start" x="510" y="-294.4" font-family="Arial" font-size="14.00" fill="#000000">tag_type    </text>
<text text-anchor="start" x="597.899" y="-294.4" font-family="Arial" font-size="14.00" fill="#666666">[tag_type]</text>
<text text-anchor="start" x="659.3744" y="-294.4" font-family="Arial" font-size="14.00" fill="#000000"> タグ種別</text>
<polygon fill="none" stroke="#000000" points="503,-253 503,-283 847,-283 847,-253 503,-253"/>
<text text-anchor="start" x="509.6971" y="-264.4" font-family="Arial" font-size="14.00" fill="#000000">created_at    </text>
<text text-anchor="start" x="610.0393" y="-264.4" font-family="Arial" font-size="14.00" fill="#666666">[timestamp with time zone]</text>
<text text-anchor="start" x="775.7237" y="-264.4" font-family="Arial" font-size="14.00" fill="#000000"> 作成日時</text>
<polygon fill="none" stroke="#000000" points="503,-223 503,-253 847,-253 847,-223 503,-223"/>
<text text-anchor="start" x="510" y="-234.4" font-family="Arial" font-size="14.00" fill="#000000">updated_at    </text>
<text text-anchor="start" x="614.2468" y="-234.4" font-family="Arial" font-size="14.00" fill="#666666">[timestamp with time zone]</text>
<text text-anchor="start" x="779.9312" y="-234.4" font-family="Arial" font-size="14.00" fill="#000000"> 更新日時</text>
</g>
<!-- public.albums_tags&#45;&gt;public.tags -->
<g id="edge2" class="edge">
<title>public.albums_tags:tag_id&#45;&gt;public.tags:id</title>
<path fill="none" stroke="#000000" d="M659.0058,-828.2388C711.0035,-819.5706 667.5779,-738.6599 649,-678 603.222,-528.5272 346.6743,-358 503,-358"/>
<polygon fill="#000000" stroke="#000000" points="658.9712,-828.2414 648.6586,-824.513 653.9856,-828.6207 649,-829 649,-829 649,-829 653.9856,-828.6207 649.3414,-833.487 658.9712,-828.2414 658.9712,-828.2414"/>
<text text-anchor="start" x="655.8845" y="-839" font-family="Arial" font-size="10.00" fill="#000000">FOREIGN KEY (tag_id) REFERENCES tags(id)</text>
</g>
</g>
</svg>
