<?xml version="1.0" encoding="UTF-8" standalone="no"?>
<!DOCTYPE svg PUBLIC "-//W3C//DTD SVG 1.1//EN"
 "http://www.w3.org/Graphics/SVG/1.1/DTD/svg11.dtd">
<!-- Generated by graphviz version 2.40.1 (20161225.0304)
 -->
<!-- Title: public.event_series Pages: 1 -->
<svg width="1745pt" height="884pt"
 viewBox="0.00 0.00 1744.50 884.00" xmlns="http://www.w3.org/2000/svg" xmlns:xlink="http://www.w3.org/1999/xlink">
<g id="graph0" class="graph" transform="scale(1 1) rotate(0) translate(4 880)">
<title>public.event_series</title>
<polygon fill="#ffffff" stroke="transparent" points="-4,4 -4,-880 1740.5,-880 1740.5,4 -4,4"/>
<!-- public.event_series -->
<g id="node1" class="node">
<title>public.event_series</title>
<polygon fill="#efefef" stroke="transparent" points="580.5,-196 580.5,-242 894.5,-242 894.5,-196 580.5,-196"/>
<polygon fill="none" stroke="#000000" points="580.5,-196 580.5,-242 894.5,-242 894.5,-196 580.5,-196"/>
<text text-anchor="start" x="596.6985" y="-219.8" font-family="Arial Bold" font-size="18.00" fill="#000000">public.event_series</text>
<text text-anchor="start" x="750.7335" y="-219.8" font-family="Arial" font-size="14.00" fill="#000000">    </text>
<text text-anchor="start" x="784.9383" y="-219.8" font-family="Arial" font-size="14.00" fill="#666666">[BASE TABLE]</text>
<text text-anchor="start" x="678.1631" y="-205.4" font-family="Arial" font-size="14.00" fill="#333333">イベントシリーズ</text>
<polygon fill="none" stroke="#000000" points="580.5,-166 580.5,-196 894.5,-196 894.5,-166 580.5,-166"/>
<text text-anchor="start" x="587.5" y="-177.4" font-family="Arial" font-size="14.00" fill="#000000">id </text>
<text text-anchor="start" x="602.2798" y="-177.4" font-family="Arial" font-size="14.00" fill="#666666">[text]</text>
<polygon fill="none" stroke="#000000" points="580.5,-136 580.5,-166 894.5,-166 894.5,-136 580.5,-136"/>
<text text-anchor="start" x="587.5" y="-147.4" font-family="Arial" font-size="14.00" fill="#000000">name </text>
<text text-anchor="start" x="626.399" y="-147.4" font-family="Arial" font-size="14.00" fill="#666666">[text]</text>
<text text-anchor="start" x="656.744" y="-147.4" font-family="Arial" font-size="14.00" fill="#000000"> 名前</text>
<polygon fill="none" stroke="#000000" points="580.5,-106 580.5,-136 894.5,-136 894.5,-106 580.5,-106"/>
<text text-anchor="start" x="587.5" y="-117.4" font-family="Arial" font-size="14.00" fill="#000000">display_name </text>
<text text-anchor="start" x="677.7426" y="-117.4" font-family="Arial" font-size="14.00" fill="#666666">[text]</text>
<text text-anchor="start" x="708.0876" y="-117.4" font-family="Arial" font-size="14.00" fill="#000000"> 表示名</text>
<polygon fill="none" stroke="#000000" points="580.5,-76 580.5,-106 894.5,-106 894.5,-76 580.5,-76"/>
<text text-anchor="start" x="587.3542" y="-87.4" font-family="Arial" font-size="14.00" fill="#000000">created_at </text>
<text text-anchor="start" x="657.3822" y="-87.4" font-family="Arial" font-size="14.00" fill="#666666">[timestamp with time zone]</text>
<text text-anchor="start" x="823.0666" y="-87.4" font-family="Arial" font-size="14.00" fill="#000000"> 作成日時</text>
<polygon fill="none" stroke="#000000" points="580.5,-46 580.5,-76 894.5,-76 894.5,-46 580.5,-46"/>
<text text-anchor="start" x="587.5" y="-57.4" font-family="Arial" font-size="14.00" fill="#000000">updated_at </text>
<text text-anchor="start" x="661.4326" y="-57.4" font-family="Arial" font-size="14.00" fill="#666666">[timestamp with time zone]</text>
<text text-anchor="start" x="827.117" y="-57.4" font-family="Arial" font-size="14.00" fill="#000000"> 更新日時</text>
<polygon fill="none" stroke="#000000" stroke-width="3" points="579,-44.5 579,-243.5 896,-243.5 896,-44.5 579,-44.5"/>
</g>
<!-- public.events -->
<g id="node2" class="node">
<title>public.events</title>
<polygon fill="#efefef" stroke="transparent" points="43.5,-787 43.5,-833 1430.5,-833 1430.5,-787 43.5,-787"/>
<polygon fill="none" stroke="#000000" points="43.5,-787 43.5,-833 1430.5,-833 1430.5,-787 43.5,-787"/>
<text text-anchor="start" x="620.701" y="-810.8" font-family="Arial Bold" font-size="18.00" fill="#000000">public.events</text>
<text text-anchor="start" x="725.731" y="-810.8" font-family="Arial" font-size="14.00" fill="#000000">    </text>
<text text-anchor="start" x="759.9358" y="-810.8" font-family="Arial" font-size="14.00" fill="#666666">[BASE TABLE]</text>
<text text-anchor="start" x="709.9114" y="-796.4" font-family="Arial" font-size="14.00" fill="#333333">イベント</text>
<polygon fill="none" stroke="#000000" points="43.5,-757 43.5,-787 1430.5,-787 1430.5,-757 43.5,-757"/>
<text text-anchor="start" x="50.5" y="-768.4" font-family="Arial" font-size="14.00" fill="#000000">id    </text>
<text text-anchor="start" x="95.594" y="-768.4" font-family="Arial" font-size="14.00" fill="#666666">[text]</text>
<polygon fill="none" stroke="#000000" points="43.5,-727 43.5,-757 1430.5,-757 1430.5,-727 43.5,-727"/>
<text text-anchor="start" x="50.5" y="-738.4" font-family="Arial" font-size="14.00" fill="#000000">event_series_id    </text>
<text text-anchor="start" x="182.73" y="-738.4" font-family="Arial" font-size="14.00" fill="#666666">[text]</text>
<text text-anchor="start" x="213.075" y="-738.4" font-family="Arial" font-size="14.00" fill="#000000"> イベントシリーズID</text>
<polygon fill="none" stroke="#000000" points="43.5,-697 43.5,-727 1430.5,-727 1430.5,-697 43.5,-697"/>
<text text-anchor="start" x="50.5" y="-708.4" font-family="Arial" font-size="14.00" fill="#000000">name    </text>
<text text-anchor="start" x="119.7132" y="-708.4" font-family="Arial" font-size="14.00" fill="#666666">[text]</text>
<text text-anchor="start" x="150.0582" y="-708.4" font-family="Arial" font-size="14.00" fill="#000000"> 名前</text>
<polygon fill="none" stroke="#000000" points="43.5,-667 43.5,-697 1430.5,-697 1430.5,-667 43.5,-667"/>
<text text-anchor="start" x="50.5" y="-678.4" font-family="Arial" font-size="14.00" fill="#000000">display_name    </text>
<text text-anchor="start" x="171.0568" y="-678.4" font-family="Arial" font-size="14.00" fill="#666666">[text]</text>
<text text-anchor="start" x="201.4018" y="-678.4" font-family="Arial" font-size="14.00" fill="#000000"> 表示名</text>
<polygon fill="none" stroke="#000000" points="43.5,-637 43.5,-667 1430.5,-667 1430.5,-637 43.5,-637"/>
<text text-anchor="start" x="50.5" y="-648.4" font-family="Arial" font-size="14.00" fill="#000000">event_dates    </text>
<text text-anchor="start" x="160.9642" y="-648.4" font-family="Arial" font-size="14.00" fill="#666666">[daterange]</text>
<text text-anchor="start" x="231.7748" y="-648.4" font-family="Arial" font-size="14.00" fill="#000000"> イベント開催期間</text>
<polygon fill="none" stroke="#000000" points="43.5,-607 43.5,-637 1430.5,-637 1430.5,-607 43.5,-607"/>
<text text-anchor="start" x="50.4533" y="-618.4" font-family="Arial" font-size="14.00" fill="#000000">event_status    </text>
<text text-anchor="start" x="164.0255" y="-618.4" font-family="Arial" font-size="14.00" fill="#666666">[event_status]</text>
<text text-anchor="start" x="251.1741" y="-618.4" font-family="Arial" font-size="14.00" fill="#000000"> ステータス/scheduled: 開催済み, cancelled: 中止, postpone: 延期(開催日未定), rescheduled: 延期(開催日決定), moved_online: オンライン開催に変更, other: その他/default: scheduled</text>
<polygon fill="none" stroke="#000000" points="43.5,-577 43.5,-607 1430.5,-607 1430.5,-577 43.5,-577"/>
<text text-anchor="start" x="50.5" y="-588.4" font-family="Arial" font-size="14.00" fill="#000000">format    </text>
<text text-anchor="start" x="124.3724" y="-588.4" font-family="Arial" font-size="14.00" fill="#666666">[event_format]</text>
<text text-anchor="start" x="213.8422" y="-588.4" font-family="Arial" font-size="14.00" fill="#000000"> 形式/offline: オフライン開催, online: オフライン開催, mixed: 両方開催/default: offline</text>
<polygon fill="none" stroke="#000000" points="43.5,-547 43.5,-577 1430.5,-577 1430.5,-547 43.5,-547"/>
<text text-anchor="start" x="50.5" y="-558.4" font-family="Arial" font-size="14.00" fill="#000000">region_code    </text>
<text text-anchor="start" x="161.7328" y="-558.4" font-family="Arial" font-size="14.00" fill="#666666">[text]</text>
<text text-anchor="start" x="192.0778" y="-558.4" font-family="Arial" font-size="14.00" fill="#000000"> リージョンコード/default: JP</text>
<polygon fill="none" stroke="#000000" points="43.5,-517 43.5,-547 1430.5,-547 1430.5,-517 43.5,-517"/>
<text text-anchor="start" x="50.5" y="-528.4" font-family="Arial" font-size="14.00" fill="#000000">address    </text>
<text text-anchor="start" x="134.4958" y="-528.4" font-family="Arial" font-size="14.00" fill="#666666">[text]</text>
<text text-anchor="start" x="164.8408" y="-528.4" font-family="Arial" font-size="14.00" fill="#000000"> 開催場所</text>
<polygon fill="none" stroke="#000000" points="43.5,-487 43.5,-517 1430.5,-517 1430.5,-487 43.5,-487"/>
<text text-anchor="start" x="50.5" y="-498.4" font-family="Arial" font-size="14.00" fill="#000000">description    </text>
<text text-anchor="start" x="152.3822" y="-498.4" font-family="Arial" font-size="14.00" fill="#666666">[text]</text>
<text text-anchor="start" x="182.7272" y="-498.4" font-family="Arial" font-size="14.00" fill="#000000"> 説明</text>
<polygon fill="none" stroke="#000000" points="43.5,-457 43.5,-487 1430.5,-487 1430.5,-457 43.5,-457"/>
<text text-anchor="start" x="50.5" y="-468.4" font-family="Arial" font-size="14.00" fill="#000000">url    </text>
<text text-anchor="start" x="100.2546" y="-468.4" font-family="Arial" font-size="14.00" fill="#666666">[text]</text>
<text text-anchor="start" x="130.5996" y="-468.4" font-family="Arial" font-size="14.00" fill="#000000"> URL</text>
<polygon fill="none" stroke="#000000" points="43.5,-427 43.5,-457 1430.5,-457 1430.5,-427 43.5,-427"/>
<text text-anchor="start" x="50.5" y="-438.4" font-family="Arial" font-size="14.00" fill="#000000">twitter_url    </text>
<text text-anchor="start" x="145.3654" y="-438.4" font-family="Arial" font-size="14.00" fill="#666666">[text]</text>
<text text-anchor="start" x="175.7104" y="-438.4" font-family="Arial" font-size="14.00" fill="#000000"> Twitter URL</text>
<polygon fill="none" stroke="#000000" points="43.5,-397 43.5,-427 1430.5,-427 1430.5,-397 43.5,-397"/>
<text text-anchor="start" x="50.5" y="-408.4" font-family="Arial" font-size="14.00" fill="#000000">created_at    </text>
<text text-anchor="start" x="150.8422" y="-408.4" font-family="Arial" font-size="14.00" fill="#666666">[timestamp with time zone]</text>
<text text-anchor="start" x="316.5266" y="-408.4" font-family="Arial" font-size="14.00" fill="#000000"> 作成日時</text>
<polygon fill="none" stroke="#000000" points="43.5,-367 43.5,-397 1430.5,-397 1430.5,-367 43.5,-367"/>
<text text-anchor="start" x="50.5" y="-378.4" font-family="Arial" font-size="14.00" fill="#000000">updated_at    </text>
<text text-anchor="start" x="154.7468" y="-378.4" font-family="Arial" font-size="14.00" fill="#666666">[timestamp with time zone]</text>
<text text-anchor="start" x="320.4312" y="-378.4" font-family="Arial" font-size="14.00" fill="#000000"> 更新日時</text>
</g>
<!-- public.events&#45;&gt;public.event_series -->
<g id="edge1" class="edge">
<title>public.events:event_series_id&#45;&gt;public.event_series:id</title>
<path fill="none" stroke="#000000" d="M1440.8343,-740.4314C1521.0992,-715.0158 1492.2668,-388.4382 1430.5,-324 1365.0873,-255.7583 645.9127,-356.2417 580.5,-288 547.5923,-253.6691 532.9444,-181 580.5,-181"/>
<polygon fill="#000000" stroke="#000000" points="1440.3868,-740.4992 1429.8246,-737.551 1435.4434,-741.2496 1430.5,-742 1430.5,-742 1430.5,-742 1435.4434,-741.2496 1431.1754,-746.449 1440.3868,-740.4992 1440.3868,-740.4992"/>
<text text-anchor="start" x="1437.1005" y="-752" font-family="Arial" font-size="10.00" fill="#000000">FOREIGN KEY (event_series_id) REFERENCES event_series(id)</text>
</g>
</g>
</svg>
