<?xml version="1.0" encoding="UTF-8" standalone="no"?>
<!DOCTYPE svg PUBLIC "-//W3C//DTD SVG 1.1//EN"
 "http://www.w3.org/Graphics/SVG/1.1/DTD/svg11.dtd">
<!-- Generated by graphviz version 2.40.1 (20161225.0304)
 -->
<!-- Title: public.events Pages: 1 -->
<svg width="1730pt" height="1412pt"
 viewBox="0.00 0.00 1729.50 1412.00" xmlns="http://www.w3.org/2000/svg" xmlns:xlink="http://www.w3.org/1999/xlink">
<g id="graph0" class="graph" transform="scale(1 1) rotate(0) translate(4 1408)">
<title>public.events</title>
<polygon fill="#ffffff" stroke="transparent" points="-4,4 -4,-1408 1725.5,-1408 1725.5,4 -4,4"/>
<!-- public.events -->
<g id="node1" class="node">
<title>public.events</title>
<polygon fill="#efefef" stroke="transparent" points="59.5,-844 59.5,-890 1415.5,-890 1415.5,-844 59.5,-844"/>
<polygon fill="none" stroke="#000000" points="59.5,-844 59.5,-890 1415.5,-890 1415.5,-844 59.5,-844"/>
<text text-anchor="start" x="621.201" y="-867.8" font-family="Arial Bold" font-size="18.00" fill="#000000">public.events</text>
<text text-anchor="start" x="726.231" y="-867.8" font-family="Arial" font-size="14.00" fill="#000000">    </text>
<text text-anchor="start" x="760.4358" y="-867.8" font-family="Arial" font-size="14.00" fill="#666666">[BASE TABLE]</text>
<text text-anchor="start" x="710.4114" y="-853.4" font-family="Arial" font-size="14.00" fill="#333333">イベント</text>
<polygon fill="none" stroke="#000000" points="59.5,-814 59.5,-844 1415.5,-844 1415.5,-814 59.5,-814"/>
<text text-anchor="start" x="66.5" y="-825.4" font-family="Arial" font-size="14.00" fill="#000000">id </text>
<text text-anchor="start" x="81.2798" y="-825.4" font-family="Arial" font-size="14.00" fill="#666666">[text]</text>
<polygon fill="none" stroke="#000000" points="59.5,-784 59.5,-814 1415.5,-814 1415.5,-784 59.5,-784"/>
<text text-anchor="start" x="66.5" y="-795.4" font-family="Arial" font-size="14.00" fill="#000000">event_series_id </text>
<text text-anchor="start" x="168.4158" y="-795.4" font-family="Arial" font-size="14.00" fill="#666666">[text]</text>
<text text-anchor="start" x="198.7608" y="-795.4" font-family="Arial" font-size="14.00" fill="#000000"> イベントシリーズID</text>
<polygon fill="none" stroke="#000000" points="59.5,-754 59.5,-784 1415.5,-784 1415.5,-754 59.5,-754"/>
<text text-anchor="start" x="66.5" y="-765.4" font-family="Arial" font-size="14.00" fill="#000000">name </text>
<text text-anchor="start" x="105.399" y="-765.4" font-family="Arial" font-size="14.00" fill="#666666">[text]</text>
<text text-anchor="start" x="135.744" y="-765.4" font-family="Arial" font-size="14.00" fill="#000000"> 名前</text>
<polygon fill="none" stroke="#000000" points="59.5,-724 59.5,-754 1415.5,-754 1415.5,-724 59.5,-724"/>
<text text-anchor="start" x="66.5" y="-735.4" font-family="Arial" font-size="14.00" fill="#000000">display_name </text>
<text text-anchor="start" x="156.7426" y="-735.4" font-family="Arial" font-size="14.00" fill="#666666">[text]</text>
<text text-anchor="start" x="187.0876" y="-735.4" font-family="Arial" font-size="14.00" fill="#000000"> 表示名</text>
<polygon fill="none" stroke="#000000" points="59.5,-694 59.5,-724 1415.5,-724 1415.5,-694 59.5,-694"/>
<text text-anchor="start" x="66.5" y="-705.4" font-family="Arial" font-size="14.00" fill="#000000">slug </text>
<text text-anchor="start" x="96.0624" y="-705.4" font-family="Arial" font-size="14.00" fill="#666666">[text]</text>
<text text-anchor="start" x="126.4074" y="-705.4" font-family="Arial" font-size="14.00" fill="#000000"> スラッグ</text>
<polygon fill="none" stroke="#000000" points="59.5,-664 59.5,-694 1415.5,-694 1415.5,-664 59.5,-664"/>
<text text-anchor="start" x="66.5" y="-675.4" font-family="Arial" font-size="14.00" fill="#000000">event_dates </text>
<text text-anchor="start" x="146.65" y="-675.4" font-family="Arial" font-size="14.00" fill="#666666">[daterange]</text>
<text text-anchor="start" x="217.4606" y="-675.4" font-family="Arial" font-size="14.00" fill="#000000"> イベント開催期間</text>
<polygon fill="none" stroke="#000000" points="59.5,-634 59.5,-664 1415.5,-664 1415.5,-634 59.5,-634"/>
<text text-anchor="start" x="66.1104" y="-645.4" font-family="Arial" font-size="14.00" fill="#000000">event_status </text>
<text text-anchor="start" x="149.3684" y="-645.4" font-family="Arial" font-size="14.00" fill="#666666">[event_status]</text>
<text text-anchor="start" x="236.517" y="-645.4" font-family="Arial" font-size="14.00" fill="#000000"> ステータス/scheduled: 開催済み, cancelled: 中止, postpone: 延期(開催日未定), rescheduled: 延期(開催日決定), moved_online: オンライン開催に変更, other: その他/default: scheduled</text>
<polygon fill="none" stroke="#000000" points="59.5,-604 59.5,-634 1415.5,-634 1415.5,-604 59.5,-604"/>
<text text-anchor="start" x="66.5" y="-615.4" font-family="Arial" font-size="14.00" fill="#000000">format </text>
<text text-anchor="start" x="110.0582" y="-615.4" font-family="Arial" font-size="14.00" fill="#666666">[event_format]</text>
<text text-anchor="start" x="199.528" y="-615.4" font-family="Arial" font-size="14.00" fill="#000000"> 形式/offline: オフライン開催, online: オフライン開催, mixed: 両方開催/default: offline</text>
<polygon fill="none" stroke="#000000" points="59.5,-574 59.5,-604 1415.5,-604 1415.5,-574 59.5,-574"/>
<text text-anchor="start" x="66.5" y="-585.4" font-family="Arial" font-size="14.00" fill="#000000">region_code </text>
<text text-anchor="start" x="147.4186" y="-585.4" font-family="Arial" font-size="14.00" fill="#666666">[text]</text>
<text text-anchor="start" x="177.7636" y="-585.4" font-family="Arial" font-size="14.00" fill="#000000"> リージョンコード/default: JP</text>
<polygon fill="none" stroke="#000000" points="59.5,-544 59.5,-574 1415.5,-574 1415.5,-544 59.5,-544"/>
<text text-anchor="start" x="66.5" y="-555.4" font-family="Arial" font-size="14.00" fill="#000000">address </text>
<text text-anchor="start" x="120.1816" y="-555.4" font-family="Arial" font-size="14.00" fill="#666666">[text]</text>
<text text-anchor="start" x="150.5266" y="-555.4" font-family="Arial" font-size="14.00" fill="#000000"> 開催場所</text>
<polygon fill="none" stroke="#000000" points="59.5,-514 59.5,-544 1415.5,-544 1415.5,-514 59.5,-514"/>
<text text-anchor="start" x="66.5" y="-525.4" font-family="Arial" font-size="14.00" fill="#000000">description </text>
<text text-anchor="start" x="138.068" y="-525.4" font-family="Arial" font-size="14.00" fill="#666666">[text]</text>
<text text-anchor="start" x="168.413" y="-525.4" font-family="Arial" font-size="14.00" fill="#000000"> 説明</text>
<polygon fill="none" stroke="#000000" points="59.5,-484 59.5,-514 1415.5,-514 1415.5,-484 59.5,-484"/>
<text text-anchor="start" x="66.5" y="-495.4" font-family="Arial" font-size="14.00" fill="#000000">url </text>
<text text-anchor="start" x="85.9404" y="-495.4" font-family="Arial" font-size="14.00" fill="#666666">[text]</text>
<text text-anchor="start" x="116.2854" y="-495.4" font-family="Arial" font-size="14.00" fill="#000000"> URL</text>
<polygon fill="none" stroke="#000000" points="59.5,-454 59.5,-484 1415.5,-484 1415.5,-454 59.5,-454"/>
<text text-anchor="start" x="66.5" y="-465.4" font-family="Arial" font-size="14.00" fill="#000000">twitter_url </text>
<text text-anchor="start" x="131.0512" y="-465.4" font-family="Arial" font-size="14.00" fill="#666666">[text]</text>
<text text-anchor="start" x="161.3962" y="-465.4" font-family="Arial" font-size="14.00" fill="#000000"> Twitter URL</text>
<polygon fill="none" stroke="#000000" points="59.5,-424 59.5,-454 1415.5,-454 1415.5,-424 59.5,-424"/>
<text text-anchor="start" x="66.5" y="-435.4" font-family="Arial" font-size="14.00" fill="#000000">created_at </text>
<text text-anchor="start" x="136.528" y="-435.4" font-family="Arial" font-size="14.00" fill="#666666">[timestamp with time zone]</text>
<text text-anchor="start" x="302.2124" y="-435.4" font-family="Arial" font-size="14.00" fill="#000000"> 作成日時</text>
<polygon fill="none" stroke="#000000" points="59.5,-394 59.5,-424 1415.5,-424 1415.5,-394 59.5,-394"/>
<text text-anchor="start" x="66.5" y="-405.4" font-family="Arial" font-size="14.00" fill="#000000">updated_at </text>
<text text-anchor="start" x="140.4326" y="-405.4" font-family="Arial" font-size="14.00" fill="#666666">[timestamp with time zone]</text>
<text text-anchor="start" x="306.117" y="-405.4" font-family="Arial" font-size="14.00" fill="#000000"> 更新日時</text>
<polygon fill="none" stroke="#000000" stroke-width="3" points="58,-392.5 58,-891.5 1417,-891.5 1417,-392.5 58,-392.5"/>
</g>
<!-- public.event_series -->
<g id="node3" class="node">
<title>public.event_series</title>
<polygon fill="#efefef" stroke="transparent" points="565.5,-223 565.5,-269 909.5,-269 909.5,-223 565.5,-223"/>
<polygon fill="none" stroke="#000000" points="565.5,-223 565.5,-269 909.5,-269 909.5,-223 565.5,-223"/>
<text text-anchor="start" x="596.6985" y="-246.8" font-family="Arial Bold" font-size="18.00" fill="#000000">public.event_series</text>
<text text-anchor="start" x="750.7335" y="-246.8" font-family="Arial" font-size="14.00" fill="#000000">    </text>
<text text-anchor="start" x="784.9383" y="-246.8" font-family="Arial" font-size="14.00" fill="#666666">[BASE TABLE]</text>
<text text-anchor="start" x="678.1631" y="-232.4" font-family="Arial" font-size="14.00" fill="#333333">イベントシリーズ</text>
<polygon fill="none" stroke="#000000" points="565.5,-193 565.5,-223 909.5,-223 909.5,-193 565.5,-193"/>
<text text-anchor="start" x="572.5" y="-204.4" font-family="Arial" font-size="14.00" fill="#000000">id    </text>
<text text-anchor="start" x="617.594" y="-204.4" font-family="Arial" font-size="14.00" fill="#666666">[text]</text>
<polygon fill="none" stroke="#000000" points="565.5,-163 565.5,-193 909.5,-193 909.5,-163 565.5,-163"/>
<text text-anchor="start" x="572.5" y="-174.4" font-family="Arial" font-size="14.00" fill="#000000">name    </text>
<text text-anchor="start" x="641.7132" y="-174.4" font-family="Arial" font-size="14.00" fill="#666666">[text]</text>
<text text-anchor="start" x="672.0582" y="-174.4" font-family="Arial" font-size="14.00" fill="#000000"> 名前</text>
<polygon fill="none" stroke="#000000" points="565.5,-133 565.5,-163 909.5,-163 909.5,-133 565.5,-133"/>
<text text-anchor="start" x="572.5" y="-144.4" font-family="Arial" font-size="14.00" fill="#000000">display_name    </text>
<text text-anchor="start" x="693.0568" y="-144.4" font-family="Arial" font-size="14.00" fill="#666666">[text]</text>
<text text-anchor="start" x="723.4018" y="-144.4" font-family="Arial" font-size="14.00" fill="#000000"> 表示名</text>
<polygon fill="none" stroke="#000000" points="565.5,-103 565.5,-133 909.5,-133 909.5,-103 565.5,-103"/>
<text text-anchor="start" x="572.5" y="-114.4" font-family="Arial" font-size="14.00" fill="#000000">slug    </text>
<text text-anchor="start" x="632.3766" y="-114.4" font-family="Arial" font-size="14.00" fill="#666666">[text]</text>
<text text-anchor="start" x="662.7216" y="-114.4" font-family="Arial" font-size="14.00" fill="#000000"> スラッグ</text>
<polygon fill="none" stroke="#000000" points="565.5,-73 565.5,-103 909.5,-103 909.5,-73 565.5,-73"/>
<text text-anchor="start" x="572.1971" y="-84.4" font-family="Arial" font-size="14.00" fill="#000000">created_at    </text>
<text text-anchor="start" x="672.5393" y="-84.4" font-family="Arial" font-size="14.00" fill="#666666">[timestamp with time zone]</text>
<text text-anchor="start" x="838.2237" y="-84.4" font-family="Arial" font-size="14.00" fill="#000000"> 作成日時</text>
<polygon fill="none" stroke="#000000" points="565.5,-43 565.5,-73 909.5,-73 909.5,-43 565.5,-43"/>
<text text-anchor="start" x="572.5" y="-54.4" font-family="Arial" font-size="14.00" fill="#000000">updated_at    </text>
<text text-anchor="start" x="676.7468" y="-54.4" font-family="Arial" font-size="14.00" fill="#666666">[timestamp with time zone]</text>
<text text-anchor="start" x="842.4312" y="-54.4" font-family="Arial" font-size="14.00" fill="#000000"> 更新日時</text>
</g>
<!-- public.events&#45;&gt;public.event_series -->
<g id="edge2" class="edge">
<title>public.events:event_series_id&#45;&gt;public.event_series:id</title>
<path fill="none" stroke="#000000" d="M1425.5573,-797.6523C1512.9163,-773.2574 1474.0542,-424.9549 1415.5,-348 1344.8532,-255.1524 1026.169,-208 909.5,-208"/>
<polygon fill="#000000" stroke="#000000" points="1425.4114,-797.6717 1414.9023,-794.5399 1420.4557,-798.3359 1415.5,-799 1415.5,-799 1415.5,-799 1420.4557,-798.3359 1416.0977,-803.4601 1425.4114,-797.6717 1425.4114,-797.6717"/>
<text text-anchor="start" x="1422.1005" y="-809" font-family="Arial" font-size="10.00" fill="#000000">FOREIGN KEY (event_series_id) REFERENCES event_series(id)</text>
</g>
<!-- public.sub_events -->
<g id="node2" class="node">
<title>public.sub_events</title>
<polygon fill="#efefef" stroke="transparent" points="43.5,-1315 43.5,-1361 1430.5,-1361 1430.5,-1315 43.5,-1315"/>
<polygon fill="none" stroke="#000000" points="43.5,-1315 43.5,-1361 1430.5,-1361 1430.5,-1315 43.5,-1315"/>
<text text-anchor="start" x="601.1917" y="-1338.8" font-family="Arial Bold" font-size="18.00" fill="#000000">public.sub_events</text>
<text text-anchor="start" x="745.2403" y="-1338.8" font-family="Arial" font-size="14.00" fill="#000000">    </text>
<text text-anchor="start" x="779.4451" y="-1338.8" font-family="Arial" font-size="14.00" fill="#666666">[BASE TABLE]</text>
<text text-anchor="start" x="696.9516" y="-1324.4" font-family="Arial" font-size="14.00" fill="#333333">サブイベント</text>
<polygon fill="none" stroke="#000000" points="43.5,-1285 43.5,-1315 1430.5,-1315 1430.5,-1285 43.5,-1285"/>
<text text-anchor="start" x="50.5" y="-1296.4" font-family="Arial" font-size="14.00" fill="#000000">id    </text>
<text text-anchor="start" x="95.594" y="-1296.4" font-family="Arial" font-size="14.00" fill="#666666">[text]</text>
<polygon fill="none" stroke="#000000" points="43.5,-1255 43.5,-1285 1430.5,-1285 1430.5,-1255 43.5,-1255"/>
<text text-anchor="start" x="50.5" y="-1266.4" font-family="Arial" font-size="14.00" fill="#000000">event_id    </text>
<text text-anchor="start" x="137.615" y="-1266.4" font-family="Arial" font-size="14.00" fill="#666666">[text]</text>
<text text-anchor="start" x="167.96" y="-1266.4" font-family="Arial" font-size="14.00" fill="#000000"> イベントID</text>
<polygon fill="none" stroke="#000000" points="43.5,-1225 43.5,-1255 1430.5,-1255 1430.5,-1225 43.5,-1225"/>
<text text-anchor="start" x="50.5" y="-1236.4" font-family="Arial" font-size="14.00" fill="#000000">name    </text>
<text text-anchor="start" x="119.7132" y="-1236.4" font-family="Arial" font-size="14.00" fill="#666666">[text]</text>
<text text-anchor="start" x="150.0582" y="-1236.4" font-family="Arial" font-size="14.00" fill="#000000"> 名前(例: 〇〇 2日目)</text>
<polygon fill="none" stroke="#000000" points="43.5,-1195 43.5,-1225 1430.5,-1225 1430.5,-1195 43.5,-1195"/>
<text text-anchor="start" x="50.5" y="-1206.4" font-family="Arial" font-size="14.00" fill="#000000">display_name    </text>
<text text-anchor="start" x="171.0568" y="-1206.4" font-family="Arial" font-size="14.00" fill="#666666">[text]</text>
<text text-anchor="start" x="201.4018" y="-1206.4" font-family="Arial" font-size="14.00" fill="#000000"> 表示名</text>
<polygon fill="none" stroke="#000000" points="43.5,-1165 43.5,-1195 1430.5,-1195 1430.5,-1165 43.5,-1165"/>
<text text-anchor="start" x="50.5" y="-1176.4" font-family="Arial" font-size="14.00" fill="#000000">slug    </text>
<text text-anchor="start" x="110.3766" y="-1176.4" font-family="Arial" font-size="14.00" fill="#666666">[text]</text>
<text text-anchor="start" x="140.7216" y="-1176.4" font-family="Arial" font-size="14.00" fill="#000000"> スラッグ</text>
<polygon fill="none" stroke="#000000" points="43.5,-1135 43.5,-1165 1430.5,-1165 1430.5,-1135 43.5,-1135"/>
<text text-anchor="start" x="50.5" y="-1146.4" font-family="Arial" font-size="14.00" fill="#000000">event_date    </text>
<text text-anchor="start" x="153.9642" y="-1146.4" font-family="Arial" font-size="14.00" fill="#666666">[date]</text>
<text text-anchor="start" x="188.9838" y="-1146.4" font-family="Arial" font-size="14.00" fill="#000000"> 開催日</text>
<polygon fill="none" stroke="#000000" points="43.5,-1105 43.5,-1135 1430.5,-1135 1430.5,-1105 43.5,-1105"/>
<text text-anchor="start" x="50.4533" y="-1116.4" font-family="Arial" font-size="14.00" fill="#000000">event_status    </text>
<text text-anchor="start" x="164.0255" y="-1116.4" font-family="Arial" font-size="14.00" fill="#666666">[event_status]</text>
<text text-anchor="start" x="251.1741" y="-1116.4" font-family="Arial" font-size="14.00" fill="#000000"> ステータス/scheduled: 開催済み, cancelled: 中止, postpone: 延期(開催日未定), rescheduled: 延期(開催日決定), moved_online: オンライン開催に変更, other: その他/default: scheduled</text>
<polygon fill="none" stroke="#000000" points="43.5,-1075 43.5,-1105 1430.5,-1105 1430.5,-1075 43.5,-1075"/>
<text text-anchor="start" x="50.5" y="-1086.4" font-family="Arial" font-size="14.00" fill="#000000">description    </text>
<text text-anchor="start" x="152.3822" y="-1086.4" font-family="Arial" font-size="14.00" fill="#666666">[text]</text>
<text text-anchor="start" x="182.7272" y="-1086.4" font-family="Arial" font-size="14.00" fill="#000000"> 説明</text>
<polygon fill="none" stroke="#000000" points="43.5,-1045 43.5,-1075 1430.5,-1075 1430.5,-1045 43.5,-1045"/>
<text text-anchor="start" x="50.5" y="-1056.4" font-family="Arial" font-size="14.00" fill="#000000">created_at    </text>
<text text-anchor="start" x="150.8422" y="-1056.4" font-family="Arial" font-size="14.00" fill="#666666">[timestamp with time zone]</text>
<text text-anchor="start" x="316.5266" y="-1056.4" font-family="Arial" font-size="14.00" fill="#000000"> 作成日時</text>
<polygon fill="none" stroke="#000000" points="43.5,-1015 43.5,-1045 1430.5,-1045 1430.5,-1015 43.5,-1015"/>
<text text-anchor="start" x="50.5" y="-1026.4" font-family="Arial" font-size="14.00" fill="#000000">updated_at    </text>
<text text-anchor="start" x="154.7468" y="-1026.4" font-family="Arial" font-size="14.00" fill="#666666">[timestamp with time zone]</text>
<text text-anchor="start" x="320.4312" y="-1026.4" font-family="Arial" font-size="14.00" fill="#000000"> 更新日時</text>
</g>
<!-- public.sub_events&#45;&gt;public.events -->
<g id="edge1" class="edge">
<title>public.sub_events:event_id&#45;&gt;public.events:id</title>
<path fill="none" stroke="#000000" d="M1440.619,-1269.5821C1560.7971,-1259.3635 1520.4783,-1064.372 1430.5,-972 1377.3353,-917.4209 112.6647,-990.5791 59.5,-936 26.3174,-901.9347 11.9444,-829 59.5,-829"/>
<polygon fill="#000000" stroke="#000000" points="1440.4915,-1269.5872 1430.3143,-1265.5038 1435.4957,-1269.7936 1430.5,-1270 1430.5,-1270 1430.5,-1270 1435.4957,-1269.7936 1430.6857,-1274.4962 1440.4915,-1269.5872 1440.4915,-1269.5872"/>
<text text-anchor="start" x="1437.8255" y="-1280" font-family="Arial" font-size="10.00" fill="#000000">FOREIGN KEY (event_id) REFERENCES events(id)</text>
</g>
</g>
</svg>
