<?xml version="1.0" encoding="UTF-8" standalone="no"?>
<!DOCTYPE svg PUBLIC "-//W3C//DTD SVG 1.1//EN"
 "http://www.w3.org/Graphics/SVG/1.1/DTD/svg11.dtd">
<!-- Generated by graphviz version 2.40.1 (20161225.0304)
 -->
<!-- Title: public.artists Pages: 1 -->
<svg width="2546pt" height="734pt"
 viewBox="0.00 0.00 2545.50 734.00" xmlns="http://www.w3.org/2000/svg" xmlns:xlink="http://www.w3.org/1999/xlink">
<g id="graph0" class="graph" transform="scale(1 1) rotate(0) translate(4 730)">
<title>public.artists</title>
<polygon fill="#ffffff" stroke="transparent" points="-4,4 -4,-730 2541.5,-730 2541.5,4 -4,4"/>
<!-- public.artists -->
<g id="node1" class="node">
<title>public.artists</title>
<polygon fill="#efefef" stroke="transparent" points="967.5,-226 967.5,-272 1589.5,-272 1589.5,-226 967.5,-226"/>
<polygon fill="none" stroke="#000000" points="967.5,-226 967.5,-272 1589.5,-272 1589.5,-226 967.5,-226"/>
<text text-anchor="start" x="1179.87" y="-249.8" font-family="Arial Bold" font-size="18.00" fill="#000000">public.artists</text>
<text text-anchor="start" x="1279.8762" y="-249.8" font-family="Arial" font-size="14.00" fill="#000000"> </text>
<text text-anchor="start" x="1283.7668" y="-249.8" font-family="Arial" font-size="14.00" fill="#666666">[BASE TABLE]</text>
<text text-anchor="start" x="1230.2889" y="-235.4" font-family="Arial" font-size="14.00" fill="#333333">アーティスト</text>
<polygon fill="none" stroke="#000000" points="967.5,-196 967.5,-226 1589.5,-226 1589.5,-196 967.5,-196"/>
<text text-anchor="start" x="974.5" y="-207.4" font-family="Arial" font-size="14.00" fill="#000000">id </text>
<text text-anchor="start" x="989.2798" y="-207.4" font-family="Arial" font-size="14.00" fill="#666666">[text]</text>
<polygon fill="none" stroke="#000000" points="967.5,-166 967.5,-196 1589.5,-196 1589.5,-166 967.5,-166"/>
<text text-anchor="start" x="974.5" y="-177.4" font-family="Arial" font-size="14.00" fill="#000000">name </text>
<text text-anchor="start" x="1013.399" y="-177.4" font-family="Arial" font-size="14.00" fill="#666666">[text]</text>
<text text-anchor="start" x="1043.744" y="-177.4" font-family="Arial" font-size="14.00" fill="#000000"> 名前</text>
<polygon fill="none" stroke="#000000" points="967.5,-136 967.5,-166 1589.5,-166 1589.5,-136 967.5,-136"/>
<text text-anchor="start" x="974.0763" y="-147.4" font-family="Arial" font-size="14.00" fill="#000000">initial_letter_type </text>
<text text-anchor="start" x="1082.9837" y="-147.4" font-family="Arial" font-size="14.00" fill="#666666">[initial_letter_type]</text>
<text text-anchor="start" x="1195.7817" y="-147.4" font-family="Arial" font-size="14.00" fill="#000000"> 頭文字の文字種別(symbol,number,alphabet,kana,kanji,other)</text>
<polygon fill="none" stroke="#000000" points="967.5,-106 967.5,-136 1589.5,-136 1589.5,-106 967.5,-106"/>
<text text-anchor="start" x="974.5" y="-117.4" font-family="Arial" font-size="14.00" fill="#000000">initial_letter_detail </text>
<text text-anchor="start" x="1090.4032" y="-117.4" font-family="Arial" font-size="14.00" fill="#666666">[text]</text>
<text text-anchor="start" x="1120.7482" y="-117.4" font-family="Arial" font-size="14.00" fill="#000000"> 開催日</text>
<polygon fill="none" stroke="#000000" points="967.5,-76 967.5,-106 1589.5,-106 1589.5,-76 967.5,-76"/>
<text text-anchor="start" x="974.5" y="-87.4" font-family="Arial" font-size="14.00" fill="#000000">created_at </text>
<text text-anchor="start" x="1044.528" y="-87.4" font-family="Arial" font-size="14.00" fill="#666666">[timestamp with time zone]</text>
<text text-anchor="start" x="1210.2124" y="-87.4" font-family="Arial" font-size="14.00" fill="#000000"> 作成日時</text>
<polygon fill="none" stroke="#000000" points="967.5,-46 967.5,-76 1589.5,-76 1589.5,-46 967.5,-46"/>
<text text-anchor="start" x="974.5" y="-57.4" font-family="Arial" font-size="14.00" fill="#000000">updated_at </text>
<text text-anchor="start" x="1048.4326" y="-57.4" font-family="Arial" font-size="14.00" fill="#666666">[timestamp with time zone]</text>
<text text-anchor="start" x="1214.117" y="-57.4" font-family="Arial" font-size="14.00" fill="#000000"> 更新日時</text>
<polygon fill="none" stroke="#000000" stroke-width="3" points="966,-44.5 966,-273.5 1591,-273.5 1591,-44.5 966,-44.5"/>
</g>
<!-- public.artist_details -->
<g id="node2" class="node">
<title>public.artist_details</title>
<polygon fill="#efefef" stroke="transparent" points="43.5,-637 43.5,-683 390.5,-683 390.5,-637 43.5,-637"/>
<polygon fill="none" stroke="#000000" points="43.5,-637 43.5,-683 390.5,-683 390.5,-637 43.5,-637"/>
<text text-anchor="start" x="91.8623" y="-660.8" font-family="Arial Bold" font-size="18.00" fill="#000000">public.artist_details</text>
<text text-anchor="start" x="244.8839" y="-660.8" font-family="Arial" font-size="14.00" fill="#000000"> </text>
<text text-anchor="start" x="248.7745" y="-660.8" font-family="Arial" font-size="14.00" fill="#666666">[BASE TABLE]</text>
<text text-anchor="start" x="153.8341" y="-646.4" font-family="Arial" font-size="14.00" fill="#333333">アーティスト詳細</text>
<polygon fill="none" stroke="#000000" points="43.5,-607 43.5,-637 390.5,-637 390.5,-607 43.5,-607"/>
<text text-anchor="start" x="50.5" y="-618.4" font-family="Arial" font-size="14.00" fill="#000000">artist_id </text>
<text text-anchor="start" x="103.3934" y="-618.4" font-family="Arial" font-size="14.00" fill="#666666">[text]</text>
<text text-anchor="start" x="133.7384" y="-618.4" font-family="Arial" font-size="14.00" fill="#000000"> アーティストID</text>
<polygon fill="none" stroke="#000000" points="43.5,-577 43.5,-607 390.5,-607 390.5,-577 43.5,-577"/>
<text text-anchor="start" x="50.5" y="-588.4" font-family="Arial" font-size="14.00" fill="#000000">description </text>
<text text-anchor="start" x="122.068" y="-588.4" font-family="Arial" font-size="14.00" fill="#666666">[text]</text>
<text text-anchor="start" x="152.413" y="-588.4" font-family="Arial" font-size="14.00" fill="#000000"> 説明</text>
<polygon fill="none" stroke="#000000" points="43.5,-547 43.5,-577 390.5,-577 390.5,-547 43.5,-547"/>
<text text-anchor="start" x="50.5" y="-558.4" font-family="Arial" font-size="14.00" fill="#000000">url </text>
<text text-anchor="start" x="69.9404" y="-558.4" font-family="Arial" font-size="14.00" fill="#666666">[text]</text>
<text text-anchor="start" x="100.2854" y="-558.4" font-family="Arial" font-size="14.00" fill="#000000"> URL</text>
<polygon fill="none" stroke="#000000" points="43.5,-517 43.5,-547 390.5,-547 390.5,-517 43.5,-517"/>
<text text-anchor="start" x="50.5" y="-528.4" font-family="Arial" font-size="14.00" fill="#000000">blog_url </text>
<text text-anchor="start" x="104.1774" y="-528.4" font-family="Arial" font-size="14.00" fill="#666666">[text]</text>
<text text-anchor="start" x="134.5224" y="-528.4" font-family="Arial" font-size="14.00" fill="#000000"> ブログ URL</text>
<polygon fill="none" stroke="#000000" points="43.5,-487 43.5,-517 390.5,-517 390.5,-487 43.5,-487"/>
<text text-anchor="start" x="50.5" y="-498.4" font-family="Arial" font-size="14.00" fill="#000000">twitter_url </text>
<text text-anchor="start" x="115.0512" y="-498.4" font-family="Arial" font-size="14.00" fill="#666666">[text]</text>
<text text-anchor="start" x="145.3962" y="-498.4" font-family="Arial" font-size="14.00" fill="#000000"> Twitter URL</text>
<polygon fill="none" stroke="#000000" points="43.5,-457 43.5,-487 390.5,-487 390.5,-457 43.5,-457"/>
<text text-anchor="start" x="50.386" y="-468.4" font-family="Arial" font-size="14.00" fill="#000000">youtube_channel_url </text>
<text text-anchor="start" x="184.2148" y="-468.4" font-family="Arial" font-size="14.00" fill="#666666">[text]</text>
<text text-anchor="start" x="214.5598" y="-468.4" font-family="Arial" font-size="14.00" fill="#000000"> YouTubeチャンネル URL</text>
<polygon fill="none" stroke="#000000" points="43.5,-427 43.5,-457 390.5,-457 390.5,-427 43.5,-427"/>
<text text-anchor="start" x="50.5" y="-438.4" font-family="Arial" font-size="14.00" fill="#000000">created_at </text>
<text text-anchor="start" x="120.528" y="-438.4" font-family="Arial" font-size="14.00" fill="#666666">[timestamp with time zone]</text>
<text text-anchor="start" x="286.2124" y="-438.4" font-family="Arial" font-size="14.00" fill="#000000"> 作成日時</text>
<polygon fill="none" stroke="#000000" points="43.5,-397 43.5,-427 390.5,-427 390.5,-397 43.5,-397"/>
<text text-anchor="start" x="50.5" y="-408.4" font-family="Arial" font-size="14.00" fill="#000000">updated_at </text>
<text text-anchor="start" x="124.4326" y="-408.4" font-family="Arial" font-size="14.00" fill="#666666">[timestamp with time zone]</text>
<text text-anchor="start" x="290.117" y="-408.4" font-family="Arial" font-size="14.00" fill="#000000"> 更新日時</text>
</g>
<!-- public.artist_details&#45;&gt;public.artists -->
<g id="edge1" class="edge">
<title>public.artist_details:artist_id&#45;&gt;public.artists:id</title>
<path fill="none" stroke="#000000" d="M400.7824,-621.5151C502.8514,-611.24 362.4489,-440.2297 442.5,-354 524.7675,-265.3828 846.5829,-211 967.5,-211"/>
<polygon fill="#000000" stroke="#000000" points="400.4889,-621.5289 390.288,-617.505 395.4944,-621.7644 390.5,-622 390.5,-622 390.5,-622 395.4944,-621.7644 390.712,-626.495 400.4889,-621.5289 400.4889,-621.5289"/>
<text text-anchor="start" x="277.1165" y="-606" font-family="Arial" font-size="10.00" fill="#000000">FOREIGN KEY (artist_id) REFERENCES artists(id)</text>
</g>
<!-- public.tracks_composers -->
<g id="node3" class="node">
<title>public.tracks_composers</title>
<polygon fill="#efefef" stroke="transparent" points="494.5,-577 494.5,-623 808.5,-623 808.5,-577 494.5,-577"/>
<polygon fill="none" stroke="#000000" points="494.5,-577 494.5,-623 808.5,-623 808.5,-577 494.5,-577"/>
<text text-anchor="start" x="503.8605" y="-600.8" font-family="Arial Bold" font-size="18.00" fill="#000000">public.tracks_composers</text>
<text text-anchor="start" x="701.8857" y="-600.8" font-family="Arial" font-size="14.00" fill="#000000"> </text>
<text text-anchor="start" x="705.7763" y="-600.8" font-family="Arial" font-size="14.00" fill="#666666">[BASE TABLE]</text>
<text text-anchor="start" x="604.4271" y="-586.4" font-family="Arial" font-size="14.00" fill="#333333">楽曲作曲者</text>
<polygon fill="none" stroke="#000000" points="494.5,-547 494.5,-577 808.5,-577 808.5,-547 494.5,-547"/>
<text text-anchor="start" x="501.5" y="-558.4" font-family="Arial" font-size="14.00" fill="#000000">track_id </text>
<text text-anchor="start" x="554.3962" y="-558.4" font-family="Arial" font-size="14.00" fill="#666666">[text]</text>
<text text-anchor="start" x="584.7412" y="-558.4" font-family="Arial" font-size="14.00" fill="#000000"> トラックID</text>
<polygon fill="none" stroke="#000000" points="494.5,-517 494.5,-547 808.5,-547 808.5,-517 494.5,-517"/>
<text text-anchor="start" x="501.5" y="-528.4" font-family="Arial" font-size="14.00" fill="#000000">artist_id </text>
<text text-anchor="start" x="554.3934" y="-528.4" font-family="Arial" font-size="14.00" fill="#666666">[text]</text>
<text text-anchor="start" x="584.7384" y="-528.4" font-family="Arial" font-size="14.00" fill="#000000"> 作曲者ID(アーティストID)</text>
<polygon fill="none" stroke="#000000" points="494.5,-487 494.5,-517 808.5,-517 808.5,-487 494.5,-487"/>
<text text-anchor="start" x="501.3542" y="-498.4" font-family="Arial" font-size="14.00" fill="#000000">created_at </text>
<text text-anchor="start" x="571.3822" y="-498.4" font-family="Arial" font-size="14.00" fill="#666666">[timestamp with time zone]</text>
<text text-anchor="start" x="737.0666" y="-498.4" font-family="Arial" font-size="14.00" fill="#000000"> 作成日時</text>
<polygon fill="none" stroke="#000000" points="494.5,-457 494.5,-487 808.5,-487 808.5,-457 494.5,-457"/>
<text text-anchor="start" x="501.5" y="-468.4" font-family="Arial" font-size="14.00" fill="#000000">updated_at </text>
<text text-anchor="start" x="575.4326" y="-468.4" font-family="Arial" font-size="14.00" fill="#666666">[timestamp with time zone]</text>
<text text-anchor="start" x="741.117" y="-468.4" font-family="Arial" font-size="14.00" fill="#000000"> 更新日時</text>
</g>
<!-- public.tracks_composers&#45;&gt;public.artists -->
<g id="edge2" class="edge">
<title>public.tracks_composers:artist_id&#45;&gt;public.artists:id</title>
<path fill="none" stroke="#000000" d="M818.724,-531.381C885.0858,-522.6936 825.3216,-424.4173 860.5,-354 895.9744,-282.9901 888.1222,-211 967.5,-211"/>
<polygon fill="#000000" stroke="#000000" points="818.4817,-531.3956 808.228,-527.5082 813.4909,-531.6978 808.5,-532 808.5,-532 808.5,-532 813.4909,-531.6978 808.772,-536.4918 818.4817,-531.3956 818.4817,-531.3956"/>
<text text-anchor="start" x="815.6165" y="-542" font-family="Arial" font-size="10.00" fill="#000000">FOREIGN KEY (artist_id) REFERENCES artists(id)</text>
</g>
<!-- public.tracks_arrangers -->
<g id="node4" class="node">
<title>public.tracks_arrangers</title>
<polygon fill="#efefef" stroke="transparent" points="912.5,-577 912.5,-623 1226.5,-623 1226.5,-577 912.5,-577"/>
<polygon fill="none" stroke="#000000" points="912.5,-577 912.5,-623 1226.5,-623 1226.5,-577 912.5,-577"/>
<text text-anchor="start" x="927.3613" y="-600.8" font-family="Arial Bold" font-size="18.00" fill="#000000">public.tracks_arrangers</text>
<text text-anchor="start" x="1114.3849" y="-600.8" font-family="Arial" font-size="14.00" fill="#000000"> </text>
<text text-anchor="start" x="1118.2755" y="-600.8" font-family="Arial" font-size="14.00" fill="#666666">[BASE TABLE]</text>
<text text-anchor="start" x="1025.0318" y="-586.4" font-family="Arial" font-size="14.00" fill="#333333">楽曲編曲者</text>
<polygon fill="none" stroke="#000000" points="912.5,-547 912.5,-577 1226.5,-577 1226.5,-547 912.5,-547"/>
<text text-anchor="start" x="919.5" y="-558.4" font-family="Arial" font-size="14.00" fill="#000000">track_id </text>
<text text-anchor="start" x="972.3962" y="-558.4" font-family="Arial" font-size="14.00" fill="#666666">[text]</text>
<text text-anchor="start" x="1002.7412" y="-558.4" font-family="Arial" font-size="14.00" fill="#000000"> トラックID</text>
<polygon fill="none" stroke="#000000" points="912.5,-517 912.5,-547 1226.5,-547 1226.5,-517 912.5,-517"/>
<text text-anchor="start" x="919.5" y="-528.4" font-family="Arial" font-size="14.00" fill="#000000">artist_id </text>
<text text-anchor="start" x="972.3934" y="-528.4" font-family="Arial" font-size="14.00" fill="#666666">[text]</text>
<text text-anchor="start" x="1002.7384" y="-528.4" font-family="Arial" font-size="14.00" fill="#000000"> 編曲者ID(アーティストID)</text>
<polygon fill="none" stroke="#000000" points="912.5,-487 912.5,-517 1226.5,-517 1226.5,-487 912.5,-487"/>
<text text-anchor="start" x="919.3542" y="-498.4" font-family="Arial" font-size="14.00" fill="#000000">created_at </text>
<text text-anchor="start" x="989.3822" y="-498.4" font-family="Arial" font-size="14.00" fill="#666666">[timestamp with time zone]</text>
<text text-anchor="start" x="1155.0666" y="-498.4" font-family="Arial" font-size="14.00" fill="#000000"> 作成日時</text>
<polygon fill="none" stroke="#000000" points="912.5,-457 912.5,-487 1226.5,-487 1226.5,-457 912.5,-457"/>
<text text-anchor="start" x="919.5" y="-468.4" font-family="Arial" font-size="14.00" fill="#000000">updated_at </text>
<text text-anchor="start" x="993.4326" y="-468.4" font-family="Arial" font-size="14.00" fill="#666666">[timestamp with time zone]</text>
<text text-anchor="start" x="1159.117" y="-468.4" font-family="Arial" font-size="14.00" fill="#000000"> 更新日時</text>
</g>
<!-- public.tracks_arrangers&#45;&gt;public.artists -->
<g id="edge3" class="edge">
<title>public.tracks_arrangers:artist_id&#45;&gt;public.artists:id</title>
<path fill="none" stroke="#000000" d="M1236.4746,-530.9255C1275.7449,-521.6177 1254.3481,-454.0216 1226.5,-414 1156.382,-313.2306 1037.618,-418.7694 967.5,-318 940.3381,-278.9646 919.9444,-211 967.5,-211"/>
<polygon fill="#000000" stroke="#000000" points="1236.4425,-530.9289 1226.018,-527.5259 1231.4712,-531.4644 1226.5,-532 1226.5,-532 1226.5,-532 1231.4712,-531.4644 1226.982,-536.4741 1236.4425,-530.9289 1236.4425,-530.9289"/>
<text text-anchor="start" x="1233.6165" y="-542" font-family="Arial" font-size="10.00" fill="#000000">FOREIGN KEY (artist_id) REFERENCES artists(id)</text>
</g>
<!-- public.tracks_rearrangers -->
<g id="node5" class="node">
<title>public.tracks_rearrangers</title>
<polygon fill="#efefef" stroke="transparent" points="1330.5,-577 1330.5,-623 1644.5,-623 1644.5,-577 1330.5,-577"/>
<polygon fill="none" stroke="#000000" points="1330.5,-577 1330.5,-623 1644.5,-623 1644.5,-577 1330.5,-577"/>
<text text-anchor="start" x="1337.3621" y="-600.8" font-family="Arial Bold" font-size="18.00" fill="#000000">public.tracks_rearrangers</text>
<text text-anchor="start" x="1540.3841" y="-600.8" font-family="Arial" font-size="14.00" fill="#000000"> </text>
<text text-anchor="start" x="1544.2747" y="-600.8" font-family="Arial" font-size="14.00" fill="#666666">[BASE TABLE]</text>
<text text-anchor="start" x="1437.1959" y="-586.4" font-family="Arial" font-size="14.00" fill="#333333">楽曲再編曲者</text>
<polygon fill="none" stroke="#000000" points="1330.5,-547 1330.5,-577 1644.5,-577 1644.5,-547 1330.5,-547"/>
<text text-anchor="start" x="1337.5" y="-558.4" font-family="Arial" font-size="14.00" fill="#000000">track_id </text>
<text text-anchor="start" x="1390.3962" y="-558.4" font-family="Arial" font-size="14.00" fill="#666666">[text]</text>
<text text-anchor="start" x="1420.7412" y="-558.4" font-family="Arial" font-size="14.00" fill="#000000"> トラックID</text>
<polygon fill="none" stroke="#000000" points="1330.5,-517 1330.5,-547 1644.5,-547 1644.5,-517 1330.5,-517"/>
<text text-anchor="start" x="1337.5" y="-528.4" font-family="Arial" font-size="14.00" fill="#000000">artist_id </text>
<text text-anchor="start" x="1390.3934" y="-528.4" font-family="Arial" font-size="14.00" fill="#666666">[text]</text>
<text text-anchor="start" x="1420.7384" y="-528.4" font-family="Arial" font-size="14.00" fill="#000000"> 再編曲者ID(アーティストID)</text>
<polygon fill="none" stroke="#000000" points="1330.5,-487 1330.5,-517 1644.5,-517 1644.5,-487 1330.5,-487"/>
<text text-anchor="start" x="1337.3542" y="-498.4" font-family="Arial" font-size="14.00" fill="#000000">created_at </text>
<text text-anchor="start" x="1407.3822" y="-498.4" font-family="Arial" font-size="14.00" fill="#666666">[timestamp with time zone]</text>
<text text-anchor="start" x="1573.0666" y="-498.4" font-family="Arial" font-size="14.00" fill="#000000"> 作成日時</text>
<polygon fill="none" stroke="#000000" points="1330.5,-457 1330.5,-487 1644.5,-487 1644.5,-457 1330.5,-457"/>
<text text-anchor="start" x="1337.5" y="-468.4" font-family="Arial" font-size="14.00" fill="#000000">updated_at </text>
<text text-anchor="start" x="1411.4326" y="-468.4" font-family="Arial" font-size="14.00" fill="#666666">[timestamp with time zone]</text>
<text text-anchor="start" x="1577.117" y="-468.4" font-family="Arial" font-size="14.00" fill="#000000"> 更新日時</text>
</g>
<!-- public.tracks_rearrangers&#45;&gt;public.artists -->
<g id="edge4" class="edge">
<title>public.tracks_rearrangers:artist_id&#45;&gt;public.artists:id</title>
<path fill="none" stroke="#000000" d="M1320.5254,-530.9255C1281.2551,-521.6177 1302.6519,-454.0216 1330.5,-414 1400.618,-313.2306 1519.382,-418.7694 1589.5,-318 1616.6619,-278.9646 1637.0556,-211 1589.5,-211"/>
<polygon fill="#000000" stroke="#000000" points="1320.5575,-530.9289 1330.018,-536.4741 1325.5288,-531.4644 1330.5,-532 1330.5,-532 1330.5,-532 1325.5288,-531.4644 1330.982,-527.5259 1320.5575,-530.9289 1320.5575,-530.9289"/>
<text text-anchor="start" x="1277.3665" y="-516" font-family="Arial" font-size="10.00" fill="#000000">FOREIGN KEY (artist_id) REFERENCES artists(id)</text>
</g>
<!-- public.tracks_lyricists -->
<g id="node6" class="node">
<title>public.tracks_lyricists</title>
<polygon fill="#efefef" stroke="transparent" points="1748.5,-577 1748.5,-623 2062.5,-623 2062.5,-577 1748.5,-577"/>
<polygon fill="none" stroke="#000000" points="1748.5,-577 1748.5,-623 2062.5,-623 2062.5,-577 1748.5,-577"/>
<text text-anchor="start" x="1772.3766" y="-600.8" font-family="Arial Bold" font-size="18.00" fill="#000000">public.tracks_lyricists</text>
<text text-anchor="start" x="1941.3696" y="-600.8" font-family="Arial" font-size="14.00" fill="#000000"> </text>
<text text-anchor="start" x="1945.2602" y="-600.8" font-family="Arial" font-size="14.00" fill="#666666">[BASE TABLE]</text>
<text text-anchor="start" x="1859.0361" y="-586.4" font-family="Arial" font-size="14.00" fill="#333333">楽曲作詞者</text>
<polygon fill="none" stroke="#000000" points="1748.5,-547 1748.5,-577 2062.5,-577 2062.5,-547 1748.5,-547"/>
<text text-anchor="start" x="1755.5" y="-558.4" font-family="Arial" font-size="14.00" fill="#000000">track_id </text>
<text text-anchor="start" x="1808.3962" y="-558.4" font-family="Arial" font-size="14.00" fill="#666666">[text]</text>
<text text-anchor="start" x="1838.7412" y="-558.4" font-family="Arial" font-size="14.00" fill="#000000"> トラックID</text>
<polygon fill="none" stroke="#000000" points="1748.5,-517 1748.5,-547 2062.5,-547 2062.5,-517 1748.5,-517"/>
<text text-anchor="start" x="1755.5" y="-528.4" font-family="Arial" font-size="14.00" fill="#000000">artist_id </text>
<text text-anchor="start" x="1808.3934" y="-528.4" font-family="Arial" font-size="14.00" fill="#666666">[text]</text>
<text text-anchor="start" x="1838.7384" y="-528.4" font-family="Arial" font-size="14.00" fill="#000000"> 作詞者ID(アーティストID)</text>
<polygon fill="none" stroke="#000000" points="1748.5,-487 1748.5,-517 2062.5,-517 2062.5,-487 1748.5,-487"/>
<text text-anchor="start" x="1755.3542" y="-498.4" font-family="Arial" font-size="14.00" fill="#000000">created_at </text>
<text text-anchor="start" x="1825.3822" y="-498.4" font-family="Arial" font-size="14.00" fill="#666666">[timestamp with time zone]</text>
<text text-anchor="start" x="1991.0666" y="-498.4" font-family="Arial" font-size="14.00" fill="#000000"> 作成日時</text>
<polygon fill="none" stroke="#000000" points="1748.5,-457 1748.5,-487 2062.5,-487 2062.5,-457 1748.5,-457"/>
<text text-anchor="start" x="1755.5" y="-468.4" font-family="Arial" font-size="14.00" fill="#000000">updated_at </text>
<text text-anchor="start" x="1829.4326" y="-468.4" font-family="Arial" font-size="14.00" fill="#666666">[timestamp with time zone]</text>
<text text-anchor="start" x="1995.117" y="-468.4" font-family="Arial" font-size="14.00" fill="#000000"> 更新日時</text>
</g>
<!-- public.tracks_lyricists&#45;&gt;public.artists -->
<g id="edge5" class="edge">
<title>public.tracks_lyricists:artist_id&#45;&gt;public.artists:id</title>
<path fill="none" stroke="#000000" d="M1738.276,-531.381C1671.9142,-522.6936 1731.6784,-424.4173 1696.5,-354 1661.0256,-282.9901 1668.8778,-211 1589.5,-211"/>
<polygon fill="#000000" stroke="#000000" points="1738.5183,-531.3956 1748.228,-536.4918 1743.5091,-531.6978 1748.5,-532 1748.5,-532 1748.5,-532 1743.5091,-531.6978 1748.772,-527.5082 1738.5183,-531.3956 1738.5183,-531.3956"/>
<text text-anchor="start" x="1695.3665" y="-516" font-family="Arial" font-size="10.00" fill="#000000">FOREIGN KEY (artist_id) REFERENCES artists(id)</text>
</g>
<!-- public.tracks_vocalists -->
<g id="node7" class="node">
<title>public.tracks_vocalists</title>
<polygon fill="#efefef" stroke="transparent" points="2166.5,-577 2166.5,-623 2494.5,-623 2494.5,-577 2166.5,-577"/>
<polygon fill="none" stroke="#000000" points="2166.5,-577 2166.5,-623 2494.5,-623 2494.5,-577 2166.5,-577"/>
<text text-anchor="start" x="2192.3636" y="-600.8" font-family="Arial Bold" font-size="18.00" fill="#000000">public.tracks_vocalists</text>
<text text-anchor="start" x="2371.3826" y="-600.8" font-family="Arial" font-size="14.00" fill="#000000"> </text>
<text text-anchor="start" x="2375.2732" y="-600.8" font-family="Arial" font-size="14.00" fill="#666666">[BASE TABLE]</text>
<text text-anchor="start" x="2263.2314" y="-586.4" font-family="Arial" font-size="14.00" fill="#333333">楽曲ボーカリスト</text>
<polygon fill="none" stroke="#000000" points="2166.5,-547 2166.5,-577 2494.5,-577 2494.5,-547 2166.5,-547"/>
<text text-anchor="start" x="2173.5" y="-558.4" font-family="Arial" font-size="14.00" fill="#000000">track_id </text>
<text text-anchor="start" x="2226.3962" y="-558.4" font-family="Arial" font-size="14.00" fill="#666666">[text]</text>
<text text-anchor="start" x="2256.7412" y="-558.4" font-family="Arial" font-size="14.00" fill="#000000"> トラックID</text>
<polygon fill="none" stroke="#000000" points="2166.5,-517 2166.5,-547 2494.5,-547 2494.5,-517 2166.5,-517"/>
<text text-anchor="start" x="2173.4165" y="-528.4" font-family="Arial" font-size="14.00" fill="#000000">artist_id </text>
<text text-anchor="start" x="2226.3099" y="-528.4" font-family="Arial" font-size="14.00" fill="#666666">[text]</text>
<text text-anchor="start" x="2256.6549" y="-528.4" font-family="Arial" font-size="14.00" fill="#000000"> ボーカリストID(アーティストID)</text>
<polygon fill="none" stroke="#000000" points="2166.5,-487 2166.5,-517 2494.5,-517 2494.5,-487 2166.5,-487"/>
<text text-anchor="start" x="2173.5" y="-498.4" font-family="Arial" font-size="14.00" fill="#000000">created_at </text>
<text text-anchor="start" x="2243.528" y="-498.4" font-family="Arial" font-size="14.00" fill="#666666">[timestamp with time zone]</text>
<text text-anchor="start" x="2409.2124" y="-498.4" font-family="Arial" font-size="14.00" fill="#000000"> 作成日時</text>
<polygon fill="none" stroke="#000000" points="2166.5,-457 2166.5,-487 2494.5,-487 2494.5,-457 2166.5,-457"/>
<text text-anchor="start" x="2173.5" y="-468.4" font-family="Arial" font-size="14.00" fill="#000000">updated_at </text>
<text text-anchor="start" x="2247.4326" y="-468.4" font-family="Arial" font-size="14.00" fill="#666666">[timestamp with time zone]</text>
<text text-anchor="start" x="2413.117" y="-468.4" font-family="Arial" font-size="14.00" fill="#000000"> 更新日時</text>
</g>
<!-- public.tracks_vocalists&#45;&gt;public.artists -->
<g id="edge6" class="edge">
<title>public.tracks_vocalists:artist_id&#45;&gt;public.artists:id</title>
<path fill="none" stroke="#000000" d="M2156.4031,-531.2885C2091.7999,-521.3218 2170.667,-409.1487 2114.5,-354 2028.2201,-269.2844 1710.4171,-211 1589.5,-211"/>
<polygon fill="#000000" stroke="#000000" points="2156.5247,-531.297 2166.1837,-536.4889 2161.5124,-531.6485 2166.5,-532 2166.5,-532 2166.5,-532 2161.5124,-531.6485 2166.8163,-527.5111 2156.5247,-531.297 2156.5247,-531.297"/>
<text text-anchor="start" x="1932.6165" y="-542" font-family="Arial" font-size="10.00" fill="#000000">FOREIGN KEY (artist_id) REFERENCES artists(id)</text>
</g>
</g>
</svg>
