<?xml version="1.0" encoding="UTF-8" standalone="no"?>
<!DOCTYPE svg PUBLIC "-//W3C//DTD SVG 1.1//EN"
 "http://www.w3.org/Graphics/SVG/1.1/DTD/svg11.dtd">
<!-- Generated by graphviz version 2.40.1 (20161225.0304)
 -->
<!-- Title: public.events Pages: 1 -->
<svg width="1716pt" height="1322pt"
 viewBox="0.00 0.00 1716.00 1322.00" xmlns="http://www.w3.org/2000/svg" xmlns:xlink="http://www.w3.org/1999/xlink">
<g id="graph0" class="graph" transform="scale(1 1) rotate(0) translate(4 1318)">
<title>public.events</title>
<polygon fill="#ffffff" stroke="transparent" points="-4,4 -4,-1318 1712,-1318 1712,4 -4,4"/>
<!-- public.events -->
<g id="node1" class="node">
<title>public.events</title>
<polygon fill="#efefef" stroke="transparent" points="46,-784 46,-830 1402,-830 1402,-784 46,-784"/>
<polygon fill="none" stroke="#000000" points="46,-784 46,-830 1402,-830 1402,-784 46,-784"/>
<text text-anchor="start" x="622.8581" y="-807.8" font-family="Arial Bold" font-size="18.00" fill="#000000">public.events</text>
<text text-anchor="start" x="727.8881" y="-807.8" font-family="Arial" font-size="14.00" fill="#000000"> </text>
<text text-anchor="start" x="731.7787" y="-807.8" font-family="Arial" font-size="14.00" fill="#666666">[BASE TABLE]</text>
<text text-anchor="start" x="696.9114" y="-793.4" font-family="Arial" font-size="14.00" fill="#333333">イベント</text>
<polygon fill="none" stroke="#000000" points="46,-754 46,-784 1402,-784 1402,-754 46,-754"/>
<text text-anchor="start" x="53" y="-765.4" font-family="Arial" font-size="14.00" fill="#000000">id </text>
<text text-anchor="start" x="67.7798" y="-765.4" font-family="Arial" font-size="14.00" fill="#666666">[text]</text>
<polygon fill="none" stroke="#000000" points="46,-724 46,-754 1402,-754 1402,-724 46,-724"/>
<text text-anchor="start" x="53" y="-735.4" font-family="Arial" font-size="14.00" fill="#000000">event_series_id </text>
<text text-anchor="start" x="154.9158" y="-735.4" font-family="Arial" font-size="14.00" fill="#666666">[text]</text>
<text text-anchor="start" x="185.2608" y="-735.4" font-family="Arial" font-size="14.00" fill="#000000"> イベントシリーズID</text>
<polygon fill="none" stroke="#000000" points="46,-694 46,-724 1402,-724 1402,-694 46,-694"/>
<text text-anchor="start" x="53" y="-705.4" font-family="Arial" font-size="14.00" fill="#000000">name </text>
<text text-anchor="start" x="91.899" y="-705.4" font-family="Arial" font-size="14.00" fill="#666666">[text]</text>
<text text-anchor="start" x="122.244" y="-705.4" font-family="Arial" font-size="14.00" fill="#000000"> 名前</text>
<polygon fill="none" stroke="#000000" points="46,-664 46,-694 1402,-694 1402,-664 46,-664"/>
<text text-anchor="start" x="53" y="-675.4" font-family="Arial" font-size="14.00" fill="#000000">display_name </text>
<text text-anchor="start" x="143.2426" y="-675.4" font-family="Arial" font-size="14.00" fill="#666666">[text]</text>
<text text-anchor="start" x="173.5876" y="-675.4" font-family="Arial" font-size="14.00" fill="#000000"> 表示名</text>
<polygon fill="none" stroke="#000000" points="46,-634 46,-664 1402,-664 1402,-634 46,-634"/>
<text text-anchor="start" x="53" y="-645.4" font-family="Arial" font-size="14.00" fill="#000000">event_dates </text>
<text text-anchor="start" x="133.15" y="-645.4" font-family="Arial" font-size="14.00" fill="#666666">[daterange]</text>
<text text-anchor="start" x="203.9606" y="-645.4" font-family="Arial" font-size="14.00" fill="#000000"> イベント開催期間</text>
<polygon fill="none" stroke="#000000" points="46,-604 46,-634 1402,-634 1402,-604 46,-604"/>
<text text-anchor="start" x="52.6104" y="-615.4" font-family="Arial" font-size="14.00" fill="#000000">event_status </text>
<text text-anchor="start" x="135.8684" y="-615.4" font-family="Arial" font-size="14.00" fill="#666666">[event_status]</text>
<text text-anchor="start" x="223.017" y="-615.4" font-family="Arial" font-size="14.00" fill="#000000"> ステータス/scheduled: 開催済み, cancelled: 中止, postpone: 延期(開催日未定), rescheduled: 延期(開催日決定), moved_online: オンライン開催に変更, other: その他/default: scheduled</text>
<polygon fill="none" stroke="#000000" points="46,-574 46,-604 1402,-604 1402,-574 46,-574"/>
<text text-anchor="start" x="53" y="-585.4" font-family="Arial" font-size="14.00" fill="#000000">format </text>
<text text-anchor="start" x="96.5582" y="-585.4" font-family="Arial" font-size="14.00" fill="#666666">[event_format]</text>
<text text-anchor="start" x="186.028" y="-585.4" font-family="Arial" font-size="14.00" fill="#000000"> 形式/offline: オフライン開催, online: オフライン開催, mixed: 両方開催/default: offline</text>
<polygon fill="none" stroke="#000000" points="46,-544 46,-574 1402,-574 1402,-544 46,-544"/>
<text text-anchor="start" x="53" y="-555.4" font-family="Arial" font-size="14.00" fill="#000000">region_code </text>
<text text-anchor="start" x="133.9186" y="-555.4" font-family="Arial" font-size="14.00" fill="#666666">[text]</text>
<text text-anchor="start" x="164.2636" y="-555.4" font-family="Arial" font-size="14.00" fill="#000000"> リージョンコード/default: JP</text>
<polygon fill="none" stroke="#000000" points="46,-514 46,-544 1402,-544 1402,-514 46,-514"/>
<text text-anchor="start" x="53" y="-525.4" font-family="Arial" font-size="14.00" fill="#000000">address </text>
<text text-anchor="start" x="106.6816" y="-525.4" font-family="Arial" font-size="14.00" fill="#666666">[text]</text>
<text text-anchor="start" x="137.0266" y="-525.4" font-family="Arial" font-size="14.00" fill="#000000"> 開催場所</text>
<polygon fill="none" stroke="#000000" points="46,-484 46,-514 1402,-514 1402,-484 46,-484"/>
<text text-anchor="start" x="53" y="-495.4" font-family="Arial" font-size="14.00" fill="#000000">description </text>
<text text-anchor="start" x="124.568" y="-495.4" font-family="Arial" font-size="14.00" fill="#666666">[text]</text>
<text text-anchor="start" x="154.913" y="-495.4" font-family="Arial" font-size="14.00" fill="#000000"> 説明</text>
<polygon fill="none" stroke="#000000" points="46,-454 46,-484 1402,-484 1402,-454 46,-454"/>
<text text-anchor="start" x="53" y="-465.4" font-family="Arial" font-size="14.00" fill="#000000">url </text>
<text text-anchor="start" x="72.4404" y="-465.4" font-family="Arial" font-size="14.00" fill="#666666">[text]</text>
<text text-anchor="start" x="102.7854" y="-465.4" font-family="Arial" font-size="14.00" fill="#000000"> URL</text>
<polygon fill="none" stroke="#000000" points="46,-424 46,-454 1402,-454 1402,-424 46,-424"/>
<text text-anchor="start" x="53" y="-435.4" font-family="Arial" font-size="14.00" fill="#000000">twitter_url </text>
<text text-anchor="start" x="117.5512" y="-435.4" font-family="Arial" font-size="14.00" fill="#666666">[text]</text>
<text text-anchor="start" x="147.8962" y="-435.4" font-family="Arial" font-size="14.00" fill="#000000"> Twitter URL</text>
<polygon fill="none" stroke="#000000" points="46,-394 46,-424 1402,-424 1402,-394 46,-394"/>
<text text-anchor="start" x="53" y="-405.4" font-family="Arial" font-size="14.00" fill="#000000">created_at </text>
<text text-anchor="start" x="123.028" y="-405.4" font-family="Arial" font-size="14.00" fill="#666666">[timestamp with time zone]</text>
<text text-anchor="start" x="288.7124" y="-405.4" font-family="Arial" font-size="14.00" fill="#000000"> 作成日時</text>
<polygon fill="none" stroke="#000000" points="46,-364 46,-394 1402,-394 1402,-364 46,-364"/>
<text text-anchor="start" x="53" y="-375.4" font-family="Arial" font-size="14.00" fill="#000000">updated_at </text>
<text text-anchor="start" x="126.9326" y="-375.4" font-family="Arial" font-size="14.00" fill="#666666">[timestamp with time zone]</text>
<text text-anchor="start" x="292.617" y="-375.4" font-family="Arial" font-size="14.00" fill="#000000"> 更新日時</text>
<polygon fill="none" stroke="#000000" stroke-width="3" points="44.5,-362.5 44.5,-831.5 1403.5,-831.5 1403.5,-362.5 44.5,-362.5"/>
</g>
<!-- public.event_series -->
<g id="node3" class="node">
<title>public.event_series</title>
<polygon fill="#efefef" stroke="transparent" points="567,-193 567,-239 881,-239 881,-193 567,-193"/>
<polygon fill="none" stroke="#000000" points="567,-193 567,-239 881,-239 881,-193 567,-193"/>
<text text-anchor="start" x="598.3556" y="-216.8" font-family="Arial Bold" font-size="18.00" fill="#000000">public.event_series</text>
<text text-anchor="start" x="752.3906" y="-216.8" font-family="Arial" font-size="14.00" fill="#000000"> </text>
<text text-anchor="start" x="756.2812" y="-216.8" font-family="Arial" font-size="14.00" fill="#666666">[BASE TABLE]</text>
<text text-anchor="start" x="664.6631" y="-202.4" font-family="Arial" font-size="14.00" fill="#333333">イベントシリーズ</text>
<polygon fill="none" stroke="#000000" points="567,-163 567,-193 881,-193 881,-163 567,-163"/>
<text text-anchor="start" x="574" y="-174.4" font-family="Arial" font-size="14.00" fill="#000000">id </text>
<text text-anchor="start" x="588.7798" y="-174.4" font-family="Arial" font-size="14.00" fill="#666666">[text]</text>
<polygon fill="none" stroke="#000000" points="567,-133 567,-163 881,-163 881,-133 567,-133"/>
<text text-anchor="start" x="574" y="-144.4" font-family="Arial" font-size="14.00" fill="#000000">name </text>
<text text-anchor="start" x="612.899" y="-144.4" font-family="Arial" font-size="14.00" fill="#666666">[text]</text>
<text text-anchor="start" x="643.244" y="-144.4" font-family="Arial" font-size="14.00" fill="#000000"> 名前</text>
<polygon fill="none" stroke="#000000" points="567,-103 567,-133 881,-133 881,-103 567,-103"/>
<text text-anchor="start" x="574" y="-114.4" font-family="Arial" font-size="14.00" fill="#000000">display_name </text>
<text text-anchor="start" x="664.2426" y="-114.4" font-family="Arial" font-size="14.00" fill="#666666">[text]</text>
<text text-anchor="start" x="694.5876" y="-114.4" font-family="Arial" font-size="14.00" fill="#000000"> 表示名</text>
<polygon fill="none" stroke="#000000" points="567,-73 567,-103 881,-103 881,-73 567,-73"/>
<text text-anchor="start" x="573.8542" y="-84.4" font-family="Arial" font-size="14.00" fill="#000000">created_at </text>
<text text-anchor="start" x="643.8822" y="-84.4" font-family="Arial" font-size="14.00" fill="#666666">[timestamp with time zone]</text>
<text text-anchor="start" x="809.5666" y="-84.4" font-family="Arial" font-size="14.00" fill="#000000"> 作成日時</text>
<polygon fill="none" stroke="#000000" points="567,-43 567,-73 881,-73 881,-43 567,-43"/>
<text text-anchor="start" x="574" y="-54.4" font-family="Arial" font-size="14.00" fill="#000000">updated_at </text>
<text text-anchor="start" x="647.9326" y="-54.4" font-family="Arial" font-size="14.00" fill="#666666">[timestamp with time zone]</text>
<text text-anchor="start" x="813.617" y="-54.4" font-family="Arial" font-size="14.00" fill="#000000"> 更新日時</text>
</g>
<!-- public.events&#45;&gt;public.event_series -->
<g id="edge2" class="edge">
<title>public.events:event_series_id&#45;&gt;public.event_series:id</title>
<path fill="none" stroke="#000000" d="M1412.3742,-737.4496C1492.6629,-712.3254 1456.7028,-389.3428 1402,-318 1329.0526,-222.8629 1000.8849,-178 881,-178"/>
<polygon fill="#000000" stroke="#000000" points="1411.8902,-737.5218 1401.3348,-734.5494 1406.9451,-738.2609 1402,-739 1402,-739 1402,-739 1406.9451,-738.2609 1402.6652,-743.4506 1411.8902,-737.5218 1411.8902,-737.5218"/>
<text text-anchor="start" x="1408.6005" y="-749" font-family="Arial" font-size="10.00" fill="#000000">FOREIGN KEY (event_series_id) REFERENCES event_series(id)</text>
</g>
<!-- public.sub_events -->
<g id="node2" class="node">
<title>public.sub_events</title>
<polygon fill="#efefef" stroke="transparent" points="46,-1225 46,-1271 1402,-1271 1402,-1225 46,-1225"/>
<polygon fill="none" stroke="#000000" points="46,-1225 46,-1271 1402,-1271 1402,-1225 46,-1225"/>
<text text-anchor="start" x="603.3488" y="-1248.8" font-family="Arial Bold" font-size="18.00" fill="#000000">public.sub_events</text>
<text text-anchor="start" x="747.3974" y="-1248.8" font-family="Arial" font-size="14.00" fill="#000000"> </text>
<text text-anchor="start" x="751.288" y="-1248.8" font-family="Arial" font-size="14.00" fill="#666666">[BASE TABLE]</text>
<text text-anchor="start" x="683.9516" y="-1234.4" font-family="Arial" font-size="14.00" fill="#333333">サブイベント</text>
<polygon fill="none" stroke="#000000" points="46,-1195 46,-1225 1402,-1225 1402,-1195 46,-1195"/>
<text text-anchor="start" x="53" y="-1206.4" font-family="Arial" font-size="14.00" fill="#000000">id </text>
<text text-anchor="start" x="67.7798" y="-1206.4" font-family="Arial" font-size="14.00" fill="#666666">[text]</text>
<polygon fill="none" stroke="#000000" points="46,-1165 46,-1195 1402,-1195 1402,-1165 46,-1165"/>
<text text-anchor="start" x="53" y="-1176.4" font-family="Arial" font-size="14.00" fill="#000000">event_id </text>
<text text-anchor="start" x="109.8008" y="-1176.4" font-family="Arial" font-size="14.00" fill="#666666">[text]</text>
<text text-anchor="start" x="140.1458" y="-1176.4" font-family="Arial" font-size="14.00" fill="#000000"> イベントID</text>
<polygon fill="none" stroke="#000000" points="46,-1135 46,-1165 1402,-1165 1402,-1135 46,-1135"/>
<text text-anchor="start" x="53" y="-1146.4" font-family="Arial" font-size="14.00" fill="#000000">name </text>
<text text-anchor="start" x="91.899" y="-1146.4" font-family="Arial" font-size="14.00" fill="#666666">[text]</text>
<text text-anchor="start" x="122.244" y="-1146.4" font-family="Arial" font-size="14.00" fill="#000000"> 名前(例: 〇〇 2日目)</text>
<polygon fill="none" stroke="#000000" points="46,-1105 46,-1135 1402,-1135 1402,-1105 46,-1105"/>
<text text-anchor="start" x="53" y="-1116.4" font-family="Arial" font-size="14.00" fill="#000000">display_name </text>
<text text-anchor="start" x="143.2426" y="-1116.4" font-family="Arial" font-size="14.00" fill="#666666">[text]</text>
<text text-anchor="start" x="173.5876" y="-1116.4" font-family="Arial" font-size="14.00" fill="#000000"> 表示名</text>
<polygon fill="none" stroke="#000000" points="46,-1075 46,-1105 1402,-1105 1402,-1075 46,-1075"/>
<text text-anchor="start" x="53" y="-1086.4" font-family="Arial" font-size="14.00" fill="#000000">event_date </text>
<text text-anchor="start" x="126.15" y="-1086.4" font-family="Arial" font-size="14.00" fill="#666666">[date]</text>
<text text-anchor="start" x="161.1696" y="-1086.4" font-family="Arial" font-size="14.00" fill="#000000"> 開催日</text>
<polygon fill="none" stroke="#000000" points="46,-1045 46,-1075 1402,-1075 1402,-1045 46,-1045"/>
<text text-anchor="start" x="52.6104" y="-1056.4" font-family="Arial" font-size="14.00" fill="#000000">event_status </text>
<text text-anchor="start" x="135.8684" y="-1056.4" font-family="Arial" font-size="14.00" fill="#666666">[event_status]</text>
<text text-anchor="start" x="223.017" y="-1056.4" font-family="Arial" font-size="14.00" fill="#000000"> ステータス/scheduled: 開催済み, cancelled: 中止, postpone: 延期(開催日未定), rescheduled: 延期(開催日決定), moved_online: オンライン開催に変更, other: その他/default: scheduled</text>
<polygon fill="none" stroke="#000000" points="46,-1015 46,-1045 1402,-1045 1402,-1015 46,-1015"/>
<text text-anchor="start" x="53" y="-1026.4" font-family="Arial" font-size="14.00" fill="#000000">description </text>
<text text-anchor="start" x="124.568" y="-1026.4" font-family="Arial" font-size="14.00" fill="#666666">[text]</text>
<text text-anchor="start" x="154.913" y="-1026.4" font-family="Arial" font-size="14.00" fill="#000000"> 説明</text>
<polygon fill="none" stroke="#000000" points="46,-985 46,-1015 1402,-1015 1402,-985 46,-985"/>
<text text-anchor="start" x="53" y="-996.4" font-family="Arial" font-size="14.00" fill="#000000">created_at </text>
<text text-anchor="start" x="123.028" y="-996.4" font-family="Arial" font-size="14.00" fill="#666666">[timestamp with time zone]</text>
<text text-anchor="start" x="288.7124" y="-996.4" font-family="Arial" font-size="14.00" fill="#000000"> 作成日時</text>
<polygon fill="none" stroke="#000000" points="46,-955 46,-985 1402,-985 1402,-955 46,-955"/>
<text text-anchor="start" x="53" y="-966.4" font-family="Arial" font-size="14.00" fill="#000000">updated_at </text>
<text text-anchor="start" x="126.9326" y="-966.4" font-family="Arial" font-size="14.00" fill="#666666">[timestamp with time zone]</text>
<text text-anchor="start" x="292.617" y="-966.4" font-family="Arial" font-size="14.00" fill="#000000"> 更新日時</text>
</g>
<!-- public.sub_events&#45;&gt;public.events -->
<g id="edge1" class="edge">
<title>public.sub_events:event_id&#45;&gt;public.events:id</title>
<path fill="none" stroke="#000000" d="M1412.285,-1178.1676C1493.194,-1148.5178 1489.7656,-769 1402,-769"/>
<polygon fill="#000000" stroke="#000000" points="1411.845,-1178.2459 1401.2107,-1175.5698 1406.9225,-1179.123 1402,-1180 1402,-1180 1402,-1180 1406.9225,-1179.123 1402.7893,-1184.4302 1411.845,-1178.2459 1411.845,-1178.2459"/>
<text text-anchor="start" x="1409.3255" y="-1190" font-family="Arial" font-size="10.00" fill="#000000">FOREIGN KEY (event_id) REFERENCES events(id)</text>
</g>
</g>
</svg>
