<?xml version="1.0" encoding="UTF-8" standalone="no"?>
<!DOCTYPE svg PUBLIC "-//W3C//DTD SVG 1.1//EN"
 "http://www.w3.org/Graphics/SVG/1.1/DTD/svg11.dtd">
<!-- Generated by graphviz version 2.40.1 (20161225.0304)
 -->
<!-- Title: public.circles Pages: 1 -->
<svg width="2427pt" height="854pt"
 viewBox="0.00 0.00 2426.50 854.00" xmlns="http://www.w3.org/2000/svg" xmlns:xlink="http://www.w3.org/1999/xlink">
<g id="graph0" class="graph" transform="scale(1 1) rotate(0) translate(4 850)">
<title>public.circles</title>
<polygon fill="#ffffff" stroke="transparent" points="-4,4 -4,-850 2422.5,-850 2422.5,4 -4,4"/>
<!-- public.circles -->
<g id="node1" class="node">
<title>public.circles</title>
<polygon fill="#efefef" stroke="transparent" points="830,-406 830,-452 1452,-452 1452,-406 830,-406"/>
<polygon fill="none" stroke="#000000" points="830,-406 830,-452 1452,-452 1452,-406 830,-406"/>
<text text-anchor="start" x="1025.718" y="-429.8" font-family="Arial Bold" font-size="18.00" fill="#000000">public.circles</text>
<text text-anchor="start" x="1128.714" y="-429.8" font-family="Arial" font-size="14.00" fill="#000000">    </text>
<text text-anchor="start" x="1162.9188" y="-429.8" font-family="Arial" font-size="14.00" fill="#666666">[BASE TABLE]</text>
<text text-anchor="start" x="1106.525" y="-415.4" font-family="Arial" font-size="14.00" fill="#333333">サークル</text>
<polygon fill="none" stroke="#000000" points="830,-376 830,-406 1452,-406 1452,-376 830,-376"/>
<text text-anchor="start" x="837" y="-387.4" font-family="Arial" font-size="14.00" fill="#000000">id </text>
<text text-anchor="start" x="851.7798" y="-387.4" font-family="Arial" font-size="14.00" fill="#666666">[text]</text>
<polygon fill="none" stroke="#000000" points="830,-346 830,-376 1452,-376 1452,-346 830,-346"/>
<text text-anchor="start" x="837" y="-357.4" font-family="Arial" font-size="14.00" fill="#000000">name </text>
<text text-anchor="start" x="875.899" y="-357.4" font-family="Arial" font-size="14.00" fill="#666666">[text]</text>
<text text-anchor="start" x="906.244" y="-357.4" font-family="Arial" font-size="14.00" fill="#000000"> 名前</text>
<polygon fill="none" stroke="#000000" points="830,-316 830,-346 1452,-346 1452,-316 830,-316"/>
<text text-anchor="start" x="837" y="-327.4" font-family="Arial" font-size="14.00" fill="#000000">name_reading </text>
<text text-anchor="start" x="930.3618" y="-327.4" font-family="Arial" font-size="14.00" fill="#666666">[text]</text>
<text text-anchor="start" x="960.7068" y="-327.4" font-family="Arial" font-size="14.00" fill="#000000"> 名前読み方</text>
<polygon fill="none" stroke="#000000" points="830,-286 830,-316 1452,-316 1452,-286 830,-286"/>
<text text-anchor="start" x="836.5763" y="-297.4" font-family="Arial" font-size="14.00" fill="#000000">initial_letter_type </text>
<text text-anchor="start" x="945.4837" y="-297.4" font-family="Arial" font-size="14.00" fill="#666666">[initial_letter_type]</text>
<text text-anchor="start" x="1058.2817" y="-297.4" font-family="Arial" font-size="14.00" fill="#000000"> 頭文字の文字種別(symbol,number,alphabet,kana,kanji,other)</text>
<polygon fill="none" stroke="#000000" points="830,-256 830,-286 1452,-286 1452,-256 830,-256"/>
<text text-anchor="start" x="837" y="-267.4" font-family="Arial" font-size="14.00" fill="#000000">initial_letter_detail </text>
<text text-anchor="start" x="952.9032" y="-267.4" font-family="Arial" font-size="14.00" fill="#666666">[text]</text>
<text text-anchor="start" x="983.2482" y="-267.4" font-family="Arial" font-size="14.00" fill="#000000"> 頭文字の文字種別詳細</text>
<polygon fill="none" stroke="#000000" points="830,-226 830,-256 1452,-256 1452,-226 830,-226"/>
<text text-anchor="start" x="837" y="-237.4" font-family="Arial" font-size="14.00" fill="#000000">description </text>
<text text-anchor="start" x="908.568" y="-237.4" font-family="Arial" font-size="14.00" fill="#666666">[text]</text>
<text text-anchor="start" x="938.913" y="-237.4" font-family="Arial" font-size="14.00" fill="#000000"> 説明</text>
<polygon fill="none" stroke="#000000" points="830,-196 830,-226 1452,-226 1452,-196 830,-196"/>
<text text-anchor="start" x="837" y="-207.4" font-family="Arial" font-size="14.00" fill="#000000">url </text>
<text text-anchor="start" x="856.4404" y="-207.4" font-family="Arial" font-size="14.00" fill="#666666">[text]</text>
<text text-anchor="start" x="886.7854" y="-207.4" font-family="Arial" font-size="14.00" fill="#000000"> URL</text>
<polygon fill="none" stroke="#000000" points="830,-166 830,-196 1452,-196 1452,-166 830,-166"/>
<text text-anchor="start" x="837" y="-177.4" font-family="Arial" font-size="14.00" fill="#000000">blog_url </text>
<text text-anchor="start" x="890.6774" y="-177.4" font-family="Arial" font-size="14.00" fill="#666666">[text]</text>
<text text-anchor="start" x="921.0224" y="-177.4" font-family="Arial" font-size="14.00" fill="#000000"> ブログ URL</text>
<polygon fill="none" stroke="#000000" points="830,-136 830,-166 1452,-166 1452,-136 830,-136"/>
<text text-anchor="start" x="837" y="-147.4" font-family="Arial" font-size="14.00" fill="#000000">twitter_url </text>
<text text-anchor="start" x="901.5512" y="-147.4" font-family="Arial" font-size="14.00" fill="#666666">[text]</text>
<text text-anchor="start" x="931.8962" y="-147.4" font-family="Arial" font-size="14.00" fill="#000000"> Twitter URL</text>
<polygon fill="none" stroke="#000000" points="830,-106 830,-136 1452,-136 1452,-106 830,-106"/>
<text text-anchor="start" x="837" y="-117.4" font-family="Arial" font-size="14.00" fill="#000000">youtube_channel_url </text>
<text text-anchor="start" x="970.8288" y="-117.4" font-family="Arial" font-size="14.00" fill="#666666">[text]</text>
<text text-anchor="start" x="1001.1738" y="-117.4" font-family="Arial" font-size="14.00" fill="#000000"> YouTubeチャンネル URL</text>
<polygon fill="none" stroke="#000000" points="830,-76 830,-106 1452,-106 1452,-76 830,-76"/>
<text text-anchor="start" x="837" y="-87.4" font-family="Arial" font-size="14.00" fill="#000000">created_at </text>
<text text-anchor="start" x="907.028" y="-87.4" font-family="Arial" font-size="14.00" fill="#666666">[timestamp with time zone]</text>
<text text-anchor="start" x="1072.7124" y="-87.4" font-family="Arial" font-size="14.00" fill="#000000"> 作成日時</text>
<polygon fill="none" stroke="#000000" points="830,-46 830,-76 1452,-76 1452,-46 830,-46"/>
<text text-anchor="start" x="837" y="-57.4" font-family="Arial" font-size="14.00" fill="#000000">updated_at </text>
<text text-anchor="start" x="910.9326" y="-57.4" font-family="Arial" font-size="14.00" fill="#666666">[timestamp with time zone]</text>
<text text-anchor="start" x="1076.617" y="-57.4" font-family="Arial" font-size="14.00" fill="#000000"> 更新日時</text>
<polygon fill="none" stroke="#000000" stroke-width="3" points="828.5,-44.5 828.5,-453.5 1453.5,-453.5 1453.5,-44.5 828.5,-44.5"/>
</g>
<!-- public.albums_circles -->
<g id="node2" class="node">
<title>public.albums_circles</title>
<polygon fill="#efefef" stroke="transparent" points="43,-727 43,-773 387,-773 387,-727 43,-727"/>
<polygon fill="none" stroke="#000000" points="43,-727 43,-773 387,-773 387,-727 43,-727"/>
<text text-anchor="start" x="65.7124" y="-750.8" font-family="Arial Bold" font-size="18.00" fill="#000000">public.albums_circles</text>
<text text-anchor="start" x="236.7196" y="-750.8" font-family="Arial" font-size="14.00" fill="#000000">    </text>
<text text-anchor="start" x="270.9244" y="-750.8" font-family="Arial" font-size="14.00" fill="#666666">[BASE TABLE]</text>
<text text-anchor="start" x="86.1678" y="-736.4" font-family="Arial" font-size="14.00" fill="#333333">アルバムとサークルの中間テーブル</text>
<polygon fill="none" stroke="#000000" points="43,-697 43,-727 387,-727 387,-697 43,-697"/>
<text text-anchor="start" x="50" y="-708.4" font-family="Arial" font-size="14.00" fill="#000000">album_id    </text>
<text text-anchor="start" x="140.9916" y="-708.4" font-family="Arial" font-size="14.00" fill="#666666">[text]</text>
<text text-anchor="start" x="171.3366" y="-708.4" font-family="Arial" font-size="14.00" fill="#000000"> アルバムID</text>
<polygon fill="none" stroke="#000000" points="43,-667 43,-697 387,-697 387,-667 43,-667"/>
<text text-anchor="start" x="50" y="-678.4" font-family="Arial" font-size="14.00" fill="#000000">circle_id    </text>
<text text-anchor="start" x="135.533" y="-678.4" font-family="Arial" font-size="14.00" fill="#666666">[text]</text>
<text text-anchor="start" x="165.878" y="-678.4" font-family="Arial" font-size="14.00" fill="#000000"> サークルID</text>
<polygon fill="none" stroke="#000000" points="43,-637 43,-667 387,-667 387,-637 43,-637"/>
<text text-anchor="start" x="49.6971" y="-648.4" font-family="Arial" font-size="14.00" fill="#000000">created_at    </text>
<text text-anchor="start" x="150.0393" y="-648.4" font-family="Arial" font-size="14.00" fill="#666666">[timestamp with time zone]</text>
<text text-anchor="start" x="315.7237" y="-648.4" font-family="Arial" font-size="14.00" fill="#000000"> 作成日時</text>
<polygon fill="none" stroke="#000000" points="43,-607 43,-637 387,-637 387,-607 43,-607"/>
<text text-anchor="start" x="50" y="-618.4" font-family="Arial" font-size="14.00" fill="#000000">updated_at    </text>
<text text-anchor="start" x="154.2468" y="-618.4" font-family="Arial" font-size="14.00" fill="#666666">[timestamp with time zone]</text>
<text text-anchor="start" x="319.9312" y="-618.4" font-family="Arial" font-size="14.00" fill="#000000"> 更新日時</text>
</g>
<!-- public.albums_circles&#45;&gt;public.circles -->
<g id="edge1" class="edge">
<title>public.albums_circles:circle_id&#45;&gt;public.circles:id</title>
<path fill="none" stroke="#000000" d="M397.2556,-681.1413C449.77,-671.3847 392.6946,-580.8991 439,-534 569.0036,-402.3296 644.9648,-391 830,-391"/>
<polygon fill="#000000" stroke="#000000" points="396.9651,-681.1656 386.6245,-677.5157 391.9826,-681.5828 387,-682 387,-682 387,-682 391.9826,-681.5828 387.3755,-686.4843 396.9651,-681.1656 396.9651,-681.1656"/>
<text text-anchor="start" x="394.4555" y="-692" font-family="Arial" font-size="10.00" fill="#000000">FOREIGN KEY (circle_id) REFERENCES circles(id)</text>
</g>
<!-- public.songs_arrange_circles -->
<g id="node3" class="node">
<title>public.songs_arrange_circles</title>
<polygon fill="#efefef" stroke="transparent" points="491,-727 491,-773 865,-773 865,-727 491,-727"/>
<polygon fill="none" stroke="#000000" points="491,-727 491,-773 865,-773 865,-727 491,-727"/>
<text text-anchor="start" x="497.6948" y="-750.8" font-family="Arial Bold" font-size="18.00" fill="#000000">public.songs_arrange_circles</text>
<text text-anchor="start" x="730.7372" y="-750.8" font-family="Arial" font-size="14.00" fill="#000000">    </text>
<text text-anchor="start" x="764.942" y="-750.8" font-family="Arial" font-size="14.00" fill="#666666">[BASE TABLE]</text>
<text text-anchor="start" x="606.8387" y="-736.4" font-family="Arial" font-size="14.00" fill="#333333">楽曲編曲サークル</text>
<polygon fill="none" stroke="#000000" points="491,-697 491,-727 865,-727 865,-697 491,-697"/>
<text text-anchor="start" x="498" y="-708.4" font-family="Arial" font-size="14.00" fill="#000000">song_id    </text>
<text text-anchor="start" x="581.2244" y="-708.4" font-family="Arial" font-size="14.00" fill="#666666">[text]</text>
<text text-anchor="start" x="611.5694" y="-708.4" font-family="Arial" font-size="14.00" fill="#000000"> 楽曲ID</text>
<polygon fill="none" stroke="#000000" points="491,-667 491,-697 865,-697 865,-667 491,-667"/>
<text text-anchor="start" x="498" y="-678.4" font-family="Arial" font-size="14.00" fill="#000000">circle_id    </text>
<text text-anchor="start" x="583.533" y="-678.4" font-family="Arial" font-size="14.00" fill="#666666">[text]</text>
<text text-anchor="start" x="613.878" y="-678.4" font-family="Arial" font-size="14.00" fill="#000000"> サークルID</text>
<polygon fill="none" stroke="#000000" points="491,-637 491,-667 865,-667 865,-637 491,-637"/>
<text text-anchor="start" x="498" y="-648.4" font-family="Arial" font-size="14.00" fill="#000000">created_at    </text>
<text text-anchor="start" x="598.3422" y="-648.4" font-family="Arial" font-size="14.00" fill="#666666">[timestamp with time zone]</text>
<text text-anchor="start" x="764.0266" y="-648.4" font-family="Arial" font-size="14.00" fill="#000000"> 作成日時</text>
<polygon fill="none" stroke="#000000" points="491,-607 491,-637 865,-637 865,-607 491,-607"/>
<text text-anchor="start" x="498" y="-618.4" font-family="Arial" font-size="14.00" fill="#000000">updated_at    </text>
<text text-anchor="start" x="602.2468" y="-618.4" font-family="Arial" font-size="14.00" fill="#666666">[timestamp with time zone]</text>
<text text-anchor="start" x="767.9312" y="-618.4" font-family="Arial" font-size="14.00" fill="#000000"> 更新日時</text>
</g>
<!-- public.songs_arrange_circles&#45;&gt;public.circles -->
<g id="edge2" class="edge">
<title>public.songs_arrange_circles:circle_id&#45;&gt;public.circles:id</title>
<path fill="none" stroke="#000000" d="M875.2018,-680.9251C911.6883,-672.1282 876.72,-611.1163 865,-564 856.9852,-531.7792 838.0148,-530.2208 830,-498 818.5206,-451.8507 782.4444,-391 830,-391"/>
<polygon fill="#000000" stroke="#000000" points="874.945,-680.9521 864.5284,-677.5248 869.9725,-681.476 865,-682 865,-682 865,-682 869.9725,-681.476 865.4716,-686.4752 874.945,-680.9521 874.945,-680.9521"/>
<text text-anchor="start" x="872.4555" y="-692" font-family="Arial" font-size="10.00" fill="#000000">FOREIGN KEY (circle_id) REFERENCES circles(id)</text>
</g>
<!-- public.songs_circles -->
<g id="node4" class="node">
<title>public.songs_circles</title>
<polygon fill="#efefef" stroke="transparent" points="969,-727 969,-773 1313,-773 1313,-727 969,-727"/>
<polygon fill="none" stroke="#000000" points="969,-727 969,-773 1313,-773 1313,-727 969,-727"/>
<text text-anchor="start" x="996.7056" y="-750.8" font-family="Arial Bold" font-size="18.00" fill="#000000">public.songs_circles</text>
<text text-anchor="start" x="1157.7264" y="-750.8" font-family="Arial" font-size="14.00" fill="#000000">    </text>
<text text-anchor="start" x="1191.9312" y="-750.8" font-family="Arial" font-size="14.00" fill="#666666">[BASE TABLE]</text>
<text text-anchor="start" x="1021.3609" y="-736.4" font-family="Arial" font-size="14.00" fill="#333333">楽曲とサークルの中間テーブル</text>
<polygon fill="none" stroke="#000000" points="969,-697 969,-727 1313,-727 1313,-697 969,-697"/>
<text text-anchor="start" x="976" y="-708.4" font-family="Arial" font-size="14.00" fill="#000000">song_id    </text>
<text text-anchor="start" x="1059.2244" y="-708.4" font-family="Arial" font-size="14.00" fill="#666666">[text]</text>
<text text-anchor="start" x="1089.5694" y="-708.4" font-family="Arial" font-size="14.00" fill="#000000"> 楽曲ID</text>
<polygon fill="none" stroke="#000000" points="969,-667 969,-697 1313,-697 1313,-667 969,-667"/>
<text text-anchor="start" x="976" y="-678.4" font-family="Arial" font-size="14.00" fill="#000000">circle_id    </text>
<text text-anchor="start" x="1061.533" y="-678.4" font-family="Arial" font-size="14.00" fill="#666666">[text]</text>
<text text-anchor="start" x="1091.878" y="-678.4" font-family="Arial" font-size="14.00" fill="#000000"> サークルID</text>
<polygon fill="none" stroke="#000000" points="969,-637 969,-667 1313,-667 1313,-637 969,-637"/>
<text text-anchor="start" x="975.6971" y="-648.4" font-family="Arial" font-size="14.00" fill="#000000">created_at    </text>
<text text-anchor="start" x="1076.0393" y="-648.4" font-family="Arial" font-size="14.00" fill="#666666">[timestamp with time zone]</text>
<text text-anchor="start" x="1241.7237" y="-648.4" font-family="Arial" font-size="14.00" fill="#000000"> 作成日時</text>
<polygon fill="none" stroke="#000000" points="969,-607 969,-637 1313,-637 1313,-607 969,-607"/>
<text text-anchor="start" x="976" y="-618.4" font-family="Arial" font-size="14.00" fill="#000000">updated_at    </text>
<text text-anchor="start" x="1080.2468" y="-618.4" font-family="Arial" font-size="14.00" fill="#666666">[timestamp with time zone]</text>
<text text-anchor="start" x="1245.9312" y="-618.4" font-family="Arial" font-size="14.00" fill="#000000"> 更新日時</text>
</g>
<!-- public.songs_circles&#45;&gt;public.circles -->
<g id="edge3" class="edge">
<title>public.songs_circles:circle_id&#45;&gt;public.circles:id</title>
<path fill="none" stroke="#000000" d="M1323.2936,-681.1504C1376.1017,-671.4957 1320.5408,-581.9137 1366,-534 1394.5196,-503.9405 1429.0439,-532.4957 1452,-498 1478.3464,-458.4096 1499.5556,-391 1452,-391"/>
<polygon fill="#000000" stroke="#000000" points="1322.9661,-681.1774 1312.6298,-677.5152 1317.9831,-681.5887 1313,-682 1313,-682 1313,-682 1317.9831,-681.5887 1313.3702,-686.4848 1322.9661,-681.1774 1322.9661,-681.1774"/>
<text text-anchor="start" x="1136.7055" y="-666" font-family="Arial" font-size="10.00" fill="#000000">FOREIGN KEY (circle_id) REFERENCES circles(id)</text>
</g>
<!-- public.circles_genres -->
<g id="node5" class="node">
<title>public.circles_genres</title>
<polygon fill="#efefef" stroke="transparent" points="1418,-757 1418,-803 1845,-803 1845,-757 1418,-757"/>
<polygon fill="none" stroke="#000000" points="1418,-757 1418,-803 1845,-803 1845,-757 1418,-757"/>
<text text-anchor="start" x="1483.7064" y="-780.8" font-family="Arial Bold" font-size="18.00" fill="#000000">public.circles_genres</text>
<text text-anchor="start" x="1651.7256" y="-780.8" font-family="Arial" font-size="14.00" fill="#000000">    </text>
<text text-anchor="start" x="1685.9304" y="-780.8" font-family="Arial" font-size="14.00" fill="#666666">[BASE TABLE]</text>
<text text-anchor="start" x="1581.7342" y="-766.4" font-family="Arial" font-size="14.00" fill="#333333">サークルタグ</text>
<polygon fill="none" stroke="#000000" points="1418,-727 1418,-757 1845,-757 1845,-727 1418,-727"/>
<text text-anchor="start" x="1425" y="-738.4" font-family="Arial" font-size="14.00" fill="#000000">id    </text>
<text text-anchor="start" x="1470.094" y="-738.4" font-family="Arial" font-size="14.00" fill="#666666">[text]</text>
<text text-anchor="start" x="1500.439" y="-738.4" font-family="Arial" font-size="14.00" fill="#000000"> ID</text>
<polygon fill="none" stroke="#000000" points="1418,-697 1418,-727 1845,-727 1845,-697 1418,-697"/>
<text text-anchor="start" x="1425" y="-708.4" font-family="Arial" font-size="14.00" fill="#000000">circle_id    </text>
<text text-anchor="start" x="1510.533" y="-708.4" font-family="Arial" font-size="14.00" fill="#666666">[text]</text>
<text text-anchor="start" x="1540.878" y="-708.4" font-family="Arial" font-size="14.00" fill="#000000"> サークルID</text>
<polygon fill="none" stroke="#000000" points="1418,-667 1418,-697 1845,-697 1845,-667 1418,-667"/>
<text text-anchor="start" x="1425" y="-678.4" font-family="Arial" font-size="14.00" fill="#000000">genre_id    </text>
<text text-anchor="start" x="1513.6676" y="-678.4" font-family="Arial" font-size="14.00" fill="#666666">[text]</text>
<text text-anchor="start" x="1544.0126" y="-678.4" font-family="Arial" font-size="14.00" fill="#000000"> タグID</text>
<polygon fill="none" stroke="#000000" points="1418,-637 1418,-667 1845,-667 1845,-637 1418,-637"/>
<text text-anchor="start" x="1424.6255" y="-648.4" font-family="Arial" font-size="14.00" fill="#000000">locked    </text>
<text text-anchor="start" x="1499.2847" y="-648.4" font-family="Arial" font-size="14.00" fill="#666666">[boolean]</text>
<text text-anchor="start" x="1556.8681" y="-648.4" font-family="Arial" font-size="14.00" fill="#000000"> ロック有無(true: ロック、false: アンロック)</text>
<polygon fill="none" stroke="#000000" points="1418,-607 1418,-637 1845,-637 1845,-607 1418,-607"/>
<text text-anchor="start" x="1425" y="-618.4" font-family="Arial" font-size="14.00" fill="#000000">created_at    </text>
<text text-anchor="start" x="1525.3422" y="-618.4" font-family="Arial" font-size="14.00" fill="#666666">[timestamp with time zone]</text>
<text text-anchor="start" x="1691.0266" y="-618.4" font-family="Arial" font-size="14.00" fill="#000000"> 作成日時</text>
<polygon fill="none" stroke="#000000" points="1418,-577 1418,-607 1845,-607 1845,-577 1418,-577"/>
<text text-anchor="start" x="1425" y="-588.4" font-family="Arial" font-size="14.00" fill="#000000">updated_at    </text>
<text text-anchor="start" x="1529.2468" y="-588.4" font-family="Arial" font-size="14.00" fill="#666666">[timestamp with time zone]</text>
<text text-anchor="start" x="1694.9312" y="-588.4" font-family="Arial" font-size="14.00" fill="#000000"> 更新日時</text>
</g>
<!-- public.circles_genres&#45;&gt;public.circles -->
<g id="edge4" class="edge">
<title>public.circles_genres:circle_id&#45;&gt;public.circles:id</title>
<path fill="none" stroke="#000000" d="M1407.7099,-711.3252C1343.5201,-702.2725 1390.1424,-604.0681 1418,-534 1426.1308,-513.5492 1443.8692,-518.4508 1452,-498 1469.5694,-453.809 1499.5556,-391 1452,-391"/>
<polygon fill="#000000" stroke="#000000" points="1408.0214,-711.3455 1417.7055,-716.4904 1413.0107,-711.6728 1418,-712 1418,-712 1418,-712 1413.0107,-711.6728 1418.2945,-707.5096 1408.0214,-711.3455 1408.0214,-711.3455"/>
<text text-anchor="start" x="1364.2055" y="-696" font-family="Arial" font-size="10.00" fill="#000000">FOREIGN KEY (circle_id) REFERENCES circles(id)</text>
</g>
<!-- public.circles_tags -->
<g id="node6" class="node">
<title>public.circles_tags</title>
<polygon fill="#efefef" stroke="transparent" points="1949,-757 1949,-803 2376,-803 2376,-757 1949,-757"/>
<polygon fill="none" stroke="#000000" points="1949,-757 1949,-803 2376,-803 2376,-757 1949,-757"/>
<text text-anchor="start" x="2025.2076" y="-780.8" font-family="Arial Bold" font-size="18.00" fill="#000000">public.circles_tags</text>
<text text-anchor="start" x="2172.2244" y="-780.8" font-family="Arial" font-size="14.00" fill="#000000">    </text>
<text text-anchor="start" x="2206.4292" y="-780.8" font-family="Arial" font-size="14.00" fill="#666666">[BASE TABLE]</text>
<text text-anchor="start" x="2112.7342" y="-766.4" font-family="Arial" font-size="14.00" fill="#333333">サークルタグ</text>
<polygon fill="none" stroke="#000000" points="1949,-727 1949,-757 2376,-757 2376,-727 1949,-727"/>
<text text-anchor="start" x="1956" y="-738.4" font-family="Arial" font-size="14.00" fill="#000000">id    </text>
<text text-anchor="start" x="2001.094" y="-738.4" font-family="Arial" font-size="14.00" fill="#666666">[text]</text>
<text text-anchor="start" x="2031.439" y="-738.4" font-family="Arial" font-size="14.00" fill="#000000"> サークルID</text>
<polygon fill="none" stroke="#000000" points="1949,-697 1949,-727 2376,-727 2376,-697 1949,-697"/>
<text text-anchor="start" x="1956" y="-708.4" font-family="Arial" font-size="14.00" fill="#000000">circle_id    </text>
<text text-anchor="start" x="2041.533" y="-708.4" font-family="Arial" font-size="14.00" fill="#666666">[text]</text>
<text text-anchor="start" x="2071.878" y="-708.4" font-family="Arial" font-size="14.00" fill="#000000"> サークルID</text>
<polygon fill="none" stroke="#000000" points="1949,-667 1949,-697 2376,-697 2376,-667 1949,-667"/>
<text text-anchor="start" x="1956" y="-678.4" font-family="Arial" font-size="14.00" fill="#000000">tag_id    </text>
<text text-anchor="start" x="2028.3324" y="-678.4" font-family="Arial" font-size="14.00" fill="#666666">[text]</text>
<text text-anchor="start" x="2058.6774" y="-678.4" font-family="Arial" font-size="14.00" fill="#000000"> タグID</text>
<polygon fill="none" stroke="#000000" points="1949,-637 1949,-667 2376,-667 2376,-637 1949,-637"/>
<text text-anchor="start" x="1955.6255" y="-648.4" font-family="Arial" font-size="14.00" fill="#000000">locked    </text>
<text text-anchor="start" x="2030.2847" y="-648.4" font-family="Arial" font-size="14.00" fill="#666666">[boolean]</text>
<text text-anchor="start" x="2087.8681" y="-648.4" font-family="Arial" font-size="14.00" fill="#000000"> ロック有無(true: ロック、false: アンロック)</text>
<polygon fill="none" stroke="#000000" points="1949,-607 1949,-637 2376,-637 2376,-607 1949,-607"/>
<text text-anchor="start" x="1956" y="-618.4" font-family="Arial" font-size="14.00" fill="#000000">created_at    </text>
<text text-anchor="start" x="2056.3422" y="-618.4" font-family="Arial" font-size="14.00" fill="#666666">[timestamp with time zone]</text>
<text text-anchor="start" x="2222.0266" y="-618.4" font-family="Arial" font-size="14.00" fill="#000000"> 作成日時</text>
<polygon fill="none" stroke="#000000" points="1949,-577 1949,-607 2376,-607 2376,-577 1949,-577"/>
<text text-anchor="start" x="1956" y="-588.4" font-family="Arial" font-size="14.00" fill="#000000">updated_at    </text>
<text text-anchor="start" x="2060.2468" y="-588.4" font-family="Arial" font-size="14.00" fill="#666666">[timestamp with time zone]</text>
<text text-anchor="start" x="2225.9312" y="-588.4" font-family="Arial" font-size="14.00" fill="#000000"> 更新日時</text>
</g>
<!-- public.circles_tags&#45;&gt;public.circles -->
<g id="edge5" class="edge">
<title>public.circles_tags:circle_id&#45;&gt;public.circles:id</title>
<path fill="none" stroke="#000000" d="M1938.8955,-711.2961C1874.1872,-701.434 1951.9122,-590.3983 1897,-534 1824.5403,-459.5793 1555.8693,-391 1452,-391"/>
<polygon fill="#000000" stroke="#000000" points="1939.0242,-711.305 1948.6872,-716.4891 1944.0121,-711.6525 1949,-712 1949,-712 1949,-712 1944.0121,-711.6525 1949.3128,-707.5109 1939.0242,-711.305 1939.0242,-711.305"/>
<text text-anchor="start" x="1895.2055" y="-696" font-family="Arial" font-size="10.00" fill="#000000">FOREIGN KEY (circle_id) REFERENCES circles(id)</text>
</g>
</g>
</svg>
