<?xml version="1.0" encoding="UTF-8" standalone="no"?>
<!DOCTYPE svg PUBLIC "-//W3C//DTD SVG 1.1//EN"
 "http://www.w3.org/Graphics/SVG/1.1/DTD/svg11.dtd">
<!-- Generated by graphviz version 2.40.1 (20161225.0304)
 -->
<!-- Title: public.songs_arrange_circles Pages: 1 -->
<svg width="1460pt" height="1064pt"
 viewBox="0.00 0.00 1460.00 1064.00" xmlns="http://www.w3.org/2000/svg" xmlns:xlink="http://www.w3.org/1999/xlink">
<g id="graph0" class="graph" transform="scale(1 1) rotate(0) translate(4 1060)">
<title>public.songs_arrange_circles</title>
<polygon fill="#ffffff" stroke="transparent" points="-4,4 -4,-1060 1456,-1060 1456,4 -4,4"/>
<!-- public.songs_arrange_circles -->
<g id="node1" class="node">
<title>public.songs_arrange_circles</title>
<polygon fill="#efefef" stroke="transparent" points="528.5,-964 528.5,-1010 902.5,-1010 902.5,-964 528.5,-964"/>
<polygon fill="none" stroke="#000000" points="528.5,-964 528.5,-1010 902.5,-1010 902.5,-964 528.5,-964"/>
<text text-anchor="start" x="535.1948" y="-987.8" font-family="Arial Bold" font-size="18.00" fill="#000000">public.songs_arrange_circles</text>
<text text-anchor="start" x="768.2372" y="-987.8" font-family="Arial" font-size="14.00" fill="#000000">    </text>
<text text-anchor="start" x="802.442" y="-987.8" font-family="Arial" font-size="14.00" fill="#666666">[BASE TABLE]</text>
<text text-anchor="start" x="644.3387" y="-973.4" font-family="Arial" font-size="14.00" fill="#333333">楽曲編曲サークル</text>
<polygon fill="none" stroke="#000000" points="528.5,-934 528.5,-964 902.5,-964 902.5,-934 528.5,-934"/>
<text text-anchor="start" x="535.5" y="-945.4" font-family="Arial" font-size="14.00" fill="#000000">song_id </text>
<text text-anchor="start" x="588.4102" y="-945.4" font-family="Arial" font-size="14.00" fill="#666666">[text]</text>
<text text-anchor="start" x="618.7552" y="-945.4" font-family="Arial" font-size="14.00" fill="#000000"> 楽曲ID</text>
<polygon fill="none" stroke="#000000" points="528.5,-904 528.5,-934 902.5,-934 902.5,-904 528.5,-904"/>
<text text-anchor="start" x="535.5" y="-915.4" font-family="Arial" font-size="14.00" fill="#000000">circle_id </text>
<text text-anchor="start" x="590.7188" y="-915.4" font-family="Arial" font-size="14.00" fill="#666666">[text]</text>
<text text-anchor="start" x="621.0638" y="-915.4" font-family="Arial" font-size="14.00" fill="#000000"> サークルID</text>
<polygon fill="none" stroke="#000000" points="528.5,-874 528.5,-904 902.5,-904 902.5,-874 528.5,-874"/>
<text text-anchor="start" x="535.5" y="-885.4" font-family="Arial" font-size="14.00" fill="#000000">created_at </text>
<text text-anchor="start" x="605.528" y="-885.4" font-family="Arial" font-size="14.00" fill="#666666">[timestamp with time zone]</text>
<text text-anchor="start" x="771.2124" y="-885.4" font-family="Arial" font-size="14.00" fill="#000000"> 作成日時</text>
<polygon fill="none" stroke="#000000" points="528.5,-844 528.5,-874 902.5,-874 902.5,-844 528.5,-844"/>
<text text-anchor="start" x="535.5" y="-855.4" font-family="Arial" font-size="14.00" fill="#000000">updated_at </text>
<text text-anchor="start" x="609.4326" y="-855.4" font-family="Arial" font-size="14.00" fill="#666666">[timestamp with time zone]</text>
<text text-anchor="start" x="775.117" y="-855.4" font-family="Arial" font-size="14.00" fill="#000000"> 更新日時</text>
<polygon fill="none" stroke="#000000" stroke-width="3" points="527,-842.5 527,-1011.5 904,-1011.5 904,-842.5 527,-842.5"/>
</g>
<!-- public.songs -->
<g id="node2" class="node">
<title>public.songs</title>
<polygon fill="#efefef" stroke="transparent" points="43.5,-673 43.5,-719 652.5,-719 652.5,-673 43.5,-673"/>
<polygon fill="none" stroke="#000000" points="43.5,-673 43.5,-719 652.5,-719 652.5,-673 43.5,-673"/>
<text text-anchor="start" x="234.2021" y="-696.8" font-family="Arial Bold" font-size="18.00" fill="#000000">public.songs</text>
<text text-anchor="start" x="334.2299" y="-696.8" font-family="Arial" font-size="14.00" fill="#000000">    </text>
<text text-anchor="start" x="368.4347" y="-696.8" font-family="Arial" font-size="14.00" fill="#666666">[BASE TABLE]</text>
<text text-anchor="start" x="327.3815" y="-682.4" font-family="Arial" font-size="14.00" fill="#333333">楽曲</text>
<polygon fill="none" stroke="#000000" points="43.5,-643 43.5,-673 652.5,-673 652.5,-643 43.5,-643"/>
<text text-anchor="start" x="50.5" y="-654.4" font-family="Arial" font-size="14.00" fill="#000000">id    </text>
<text text-anchor="start" x="95.594" y="-654.4" font-family="Arial" font-size="14.00" fill="#666666">[text]</text>
<polygon fill="none" stroke="#000000" points="43.5,-613 43.5,-643 652.5,-643 652.5,-613 43.5,-613"/>
<text text-anchor="start" x="50.5" y="-624.4" font-family="Arial" font-size="14.00" fill="#000000">circle_id    </text>
<text text-anchor="start" x="136.033" y="-624.4" font-family="Arial" font-size="14.00" fill="#666666">[text]</text>
<text text-anchor="start" x="166.378" y="-624.4" font-family="Arial" font-size="14.00" fill="#000000"> サークルID</text>
<polygon fill="none" stroke="#000000" points="43.5,-583 43.5,-613 652.5,-613 652.5,-583 43.5,-583"/>
<text text-anchor="start" x="50.5" y="-594.4" font-family="Arial" font-size="14.00" fill="#000000">album_id    </text>
<text text-anchor="start" x="141.4916" y="-594.4" font-family="Arial" font-size="14.00" fill="#666666">[text]</text>
<text text-anchor="start" x="171.8366" y="-594.4" font-family="Arial" font-size="14.00" fill="#000000"> アルバムID</text>
<polygon fill="none" stroke="#000000" points="43.5,-553 43.5,-583 652.5,-583 652.5,-553 43.5,-553"/>
<text text-anchor="start" x="50.5" y="-564.4" font-family="Arial" font-size="14.00" fill="#000000">name    </text>
<text text-anchor="start" x="119.7132" y="-564.4" font-family="Arial" font-size="14.00" fill="#666666">[text]</text>
<text text-anchor="start" x="150.0582" y="-564.4" font-family="Arial" font-size="14.00" fill="#000000"> 名前</text>
<polygon fill="none" stroke="#000000" points="43.5,-523 43.5,-553 652.5,-553 652.5,-523 43.5,-523"/>
<text text-anchor="start" x="50.5" y="-534.4" font-family="Arial" font-size="14.00" fill="#000000">name_reading    </text>
<text text-anchor="start" x="174.176" y="-534.4" font-family="Arial" font-size="14.00" fill="#666666">[text]</text>
<text text-anchor="start" x="204.521" y="-534.4" font-family="Arial" font-size="14.00" fill="#000000"> 名前読み方</text>
<polygon fill="none" stroke="#000000" points="43.5,-493 43.5,-523 652.5,-523 652.5,-493 43.5,-493"/>
<text text-anchor="start" x="50.5" y="-504.4" font-family="Arial" font-size="14.00" fill="#000000">slug    </text>
<text text-anchor="start" x="110.3766" y="-504.4" font-family="Arial" font-size="14.00" fill="#666666">[text]</text>
<text text-anchor="start" x="140.7216" y="-504.4" font-family="Arial" font-size="14.00" fill="#000000"> スラッグ</text>
<polygon fill="none" stroke="#000000" points="43.5,-463 43.5,-493 652.5,-493 652.5,-463 43.5,-463"/>
<text text-anchor="start" x="50.5" y="-474.4" font-family="Arial" font-size="14.00" fill="#000000">disc_number    </text>
<text text-anchor="start" x="164.8282" y="-474.4" font-family="Arial" font-size="14.00" fill="#666666">[integer]</text>
<text text-anchor="start" x="215.3976" y="-474.4" font-family="Arial" font-size="14.00" fill="#000000"> ディスク番号(default: 1)</text>
<polygon fill="none" stroke="#000000" points="43.5,-433 43.5,-463 652.5,-463 652.5,-433 43.5,-433"/>
<text text-anchor="start" x="50.5" y="-444.4" font-family="Arial" font-size="14.00" fill="#000000">track_number    </text>
<text text-anchor="start" x="170.2728" y="-444.4" font-family="Arial" font-size="14.00" fill="#666666">[integer]</text>
<text text-anchor="start" x="220.8422" y="-444.4" font-family="Arial" font-size="14.00" fill="#000000"> トラック番号</text>
<polygon fill="none" stroke="#000000" points="43.5,-403 43.5,-433 652.5,-433 652.5,-403 43.5,-403"/>
<text text-anchor="start" x="50.5" y="-414.4" font-family="Arial" font-size="14.00" fill="#000000">release_date    </text>
<text text-anchor="start" x="165.6234" y="-414.4" font-family="Arial" font-size="14.00" fill="#666666">[date]</text>
<text text-anchor="start" x="200.643" y="-414.4" font-family="Arial" font-size="14.00" fill="#000000"> 頒布日(アルバムの頒布日と異なる場合に使用する)</text>
<polygon fill="none" stroke="#000000" points="43.5,-373 43.5,-403 652.5,-403 652.5,-373 43.5,-373"/>
<text text-anchor="start" x="50.5" y="-384.4" font-family="Arial" font-size="14.00" fill="#000000">search_enabled    </text>
<text text-anchor="start" x="184.298" y="-384.4" font-family="Arial" font-size="14.00" fill="#666666">[boolean]</text>
<text text-anchor="start" x="241.8814" y="-384.4" font-family="Arial" font-size="14.00" fill="#000000"> 検索対象とするか(default: true)</text>
<polygon fill="none" stroke="#000000" points="43.5,-343 43.5,-373 652.5,-373 652.5,-343 43.5,-343"/>
<text text-anchor="start" x="50.5" y="-354.4" font-family="Arial" font-size="14.00" fill="#000000">length    </text>
<text text-anchor="start" x="122.8324" y="-354.4" font-family="Arial" font-size="14.00" fill="#666666">[integer]</text>
<text text-anchor="start" x="173.4018" y="-354.4" font-family="Arial" font-size="14.00" fill="#000000"> 曲の長さ(秒)</text>
<polygon fill="none" stroke="#000000" points="43.5,-313 43.5,-343 652.5,-343 652.5,-313 43.5,-313"/>
<text text-anchor="start" x="50.5" y="-324.4" font-family="Arial" font-size="14.00" fill="#000000">bpm    </text>
<text text-anchor="start" x="111.9306" y="-324.4" font-family="Arial" font-size="14.00" fill="#666666">[integer]</text>
<text text-anchor="start" x="162.5" y="-324.4" font-family="Arial" font-size="14.00" fill="#000000"> BPM</text>
<polygon fill="none" stroke="#000000" points="43.5,-283 43.5,-313 652.5,-313 652.5,-283 43.5,-283"/>
<text text-anchor="start" x="50.5" y="-294.4" font-family="Arial" font-size="14.00" fill="#000000">description    </text>
<text text-anchor="start" x="152.3822" y="-294.4" font-family="Arial" font-size="14.00" fill="#666666">[text]</text>
<text text-anchor="start" x="182.7272" y="-294.4" font-family="Arial" font-size="14.00" fill="#000000"> 説明</text>
<polygon fill="none" stroke="#000000" points="43.5,-253 43.5,-283 652.5,-283 652.5,-253 43.5,-253"/>
<text text-anchor="start" x="50.5" y="-264.4" font-family="Arial" font-size="14.00" fill="#000000">display_composer    </text>
<text text-anchor="start" x="197.5" y="-264.4" font-family="Arial" font-size="14.00" fill="#666666">[text]</text>
<text text-anchor="start" x="227.845" y="-264.4" font-family="Arial" font-size="14.00" fill="#000000"> 作曲者表示用(1度しか使用しない別名義などで使用する)</text>
<polygon fill="none" stroke="#000000" points="43.5,-223 43.5,-253 652.5,-253 652.5,-223 43.5,-223"/>
<text text-anchor="start" x="50.5" y="-234.4" font-family="Arial" font-size="14.00" fill="#000000">display_arranger    </text>
<text text-anchor="start" x="188.9432" y="-234.4" font-family="Arial" font-size="14.00" fill="#666666">[text]</text>
<text text-anchor="start" x="219.2882" y="-234.4" font-family="Arial" font-size="14.00" fill="#000000"> 編曲者表示用(1度しか使用しない別名義などで使用する)</text>
<polygon fill="none" stroke="#000000" points="43.5,-193 43.5,-223 652.5,-223 652.5,-193 43.5,-193"/>
<text text-anchor="start" x="50.5" y="-204.4" font-family="Arial" font-size="14.00" fill="#000000">display_rearranger    </text>
<text text-anchor="start" x="201.3864" y="-204.4" font-family="Arial" font-size="14.00" fill="#666666">[text]</text>
<text text-anchor="start" x="231.7314" y="-204.4" font-family="Arial" font-size="14.00" fill="#000000"> 再編曲者表示用(1度しか使用しない別名義などで使用する)</text>
<polygon fill="none" stroke="#000000" points="43.5,-163 43.5,-193 652.5,-193 652.5,-163 43.5,-163"/>
<text text-anchor="start" x="50.5" y="-174.4" font-family="Arial" font-size="14.00" fill="#000000">display_lyricist    </text>
<text text-anchor="start" x="174.9194" y="-174.4" font-family="Arial" font-size="14.00" fill="#666666">[text]</text>
<text text-anchor="start" x="205.2644" y="-174.4" font-family="Arial" font-size="14.00" fill="#000000"> 作詞者表示用(1度しか使用しない別名義などで使用する)</text>
<polygon fill="none" stroke="#000000" points="43.5,-133 43.5,-163 652.5,-163 652.5,-133 43.5,-133"/>
<text text-anchor="start" x="50.3082" y="-144.4" font-family="Arial" font-size="14.00" fill="#000000">display_vocalist    </text>
<text text-anchor="start" x="182.5256" y="-144.4" font-family="Arial" font-size="14.00" fill="#666666">[text]</text>
<text text-anchor="start" x="212.8706" y="-144.4" font-family="Arial" font-size="14.00" fill="#000000"> ボーカリスト表示用(1度しか使用しない別名義などで使用する)</text>
<polygon fill="none" stroke="#000000" points="43.5,-103 43.5,-133 652.5,-133 652.5,-103 43.5,-103"/>
<text text-anchor="start" x="50.5" y="-114.4" font-family="Arial" font-size="14.00" fill="#000000">display_original_song    </text>
<text text-anchor="start" x="219.2896" y="-114.4" font-family="Arial" font-size="14.00" fill="#666666">[text]</text>
<text text-anchor="start" x="249.6346" y="-114.4" font-family="Arial" font-size="14.00" fill="#000000"> 原曲表示用(東方以外の原曲などで使用する)</text>
<polygon fill="none" stroke="#000000" points="43.5,-73 43.5,-103 652.5,-103 652.5,-73 43.5,-73"/>
<text text-anchor="start" x="50.5" y="-84.4" font-family="Arial" font-size="14.00" fill="#000000">created_at    </text>
<text text-anchor="start" x="150.8422" y="-84.4" font-family="Arial" font-size="14.00" fill="#666666">[timestamp with time zone]</text>
<text text-anchor="start" x="316.5266" y="-84.4" font-family="Arial" font-size="14.00" fill="#000000"> 作成日時</text>
<polygon fill="none" stroke="#000000" points="43.5,-43 43.5,-73 652.5,-73 652.5,-43 43.5,-43"/>
<text text-anchor="start" x="50.5" y="-54.4" font-family="Arial" font-size="14.00" fill="#000000">updated_at    </text>
<text text-anchor="start" x="154.7468" y="-54.4" font-family="Arial" font-size="14.00" fill="#666666">[timestamp with time zone]</text>
<text text-anchor="start" x="320.4312" y="-54.4" font-family="Arial" font-size="14.00" fill="#000000"> 更新日時</text>
</g>
<!-- public.songs_arrange_circles&#45;&gt;public.songs -->
<g id="edge1" class="edge">
<title>public.songs_arrange_circles:song_id&#45;&gt;public.songs:id</title>
<path fill="none" stroke="#000000" d="M518.3191,-948.1497C464.3617,-938.4845 490.404,-848.7292 528.5,-798 562.9605,-752.112 618.0395,-807.888 652.5,-762 680.2562,-725.0394 698.7222,-658 652.5,-658"/>
<polygon fill="#000000" stroke="#000000" points="518.5347,-948.1677 528.1254,-953.4844 523.5173,-948.5838 528.5,-949 528.5,-949 528.5,-949 523.5173,-948.5838 528.8746,-944.5156 518.5347,-948.1677 518.5347,-948.1677"/>
<text text-anchor="start" x="294.6045" y="-959" font-family="Arial" font-size="10.00" fill="#000000">FOREIGN KEY (song_id) REFERENCES songs(id)</text>
</g>
<!-- public.circles -->
<g id="node3" class="node">
<title>public.circles</title>
<polygon fill="#efefef" stroke="transparent" points="756.5,-553 756.5,-599 1409.5,-599 1409.5,-553 756.5,-553"/>
<polygon fill="none" stroke="#000000" points="756.5,-553 756.5,-599 1409.5,-599 1409.5,-553 756.5,-553"/>
<text text-anchor="start" x="967.718" y="-576.8" font-family="Arial Bold" font-size="18.00" fill="#000000">public.circles</text>
<text text-anchor="start" x="1070.714" y="-576.8" font-family="Arial" font-size="14.00" fill="#000000">    </text>
<text text-anchor="start" x="1104.9188" y="-576.8" font-family="Arial" font-size="14.00" fill="#666666">[BASE TABLE]</text>
<text text-anchor="start" x="1048.525" y="-562.4" font-family="Arial" font-size="14.00" fill="#333333">サークル</text>
<polygon fill="none" stroke="#000000" points="756.5,-523 756.5,-553 1409.5,-553 1409.5,-523 756.5,-523"/>
<text text-anchor="start" x="763.5" y="-534.4" font-family="Arial" font-size="14.00" fill="#000000">id    </text>
<text text-anchor="start" x="808.594" y="-534.4" font-family="Arial" font-size="14.00" fill="#666666">[text]</text>
<polygon fill="none" stroke="#000000" points="756.5,-493 756.5,-523 1409.5,-523 1409.5,-493 756.5,-493"/>
<text text-anchor="start" x="763.5" y="-504.4" font-family="Arial" font-size="14.00" fill="#000000">name    </text>
<text text-anchor="start" x="832.7132" y="-504.4" font-family="Arial" font-size="14.00" fill="#666666">[text]</text>
<text text-anchor="start" x="863.0582" y="-504.4" font-family="Arial" font-size="14.00" fill="#000000"> 名前</text>
<polygon fill="none" stroke="#000000" points="756.5,-463 756.5,-493 1409.5,-493 1409.5,-463 756.5,-463"/>
<text text-anchor="start" x="763.5" y="-474.4" font-family="Arial" font-size="14.00" fill="#000000">name_reading    </text>
<text text-anchor="start" x="887.176" y="-474.4" font-family="Arial" font-size="14.00" fill="#666666">[text]</text>
<text text-anchor="start" x="917.521" y="-474.4" font-family="Arial" font-size="14.00" fill="#000000"> 名前読み方</text>
<polygon fill="none" stroke="#000000" points="756.5,-433 756.5,-463 1409.5,-463 1409.5,-433 756.5,-433"/>
<text text-anchor="start" x="763.5" y="-444.4" font-family="Arial" font-size="14.00" fill="#000000">slug    </text>
<text text-anchor="start" x="823.3766" y="-444.4" font-family="Arial" font-size="14.00" fill="#666666">[text]</text>
<text text-anchor="start" x="853.7216" y="-444.4" font-family="Arial" font-size="14.00" fill="#000000"> スラッグ</text>
<polygon fill="none" stroke="#000000" points="756.5,-403 756.5,-433 1409.5,-433 1409.5,-403 756.5,-403"/>
<text text-anchor="start" x="763.4192" y="-414.4" font-family="Arial" font-size="14.00" fill="#000000">initial_letter_type    </text>
<text text-anchor="start" x="902.6408" y="-414.4" font-family="Arial" font-size="14.00" fill="#666666">[initial_letter_type]</text>
<text text-anchor="start" x="1015.4388" y="-414.4" font-family="Arial" font-size="14.00" fill="#000000"> 頭文字の文字種別(symbol,number,alphabet,kana,kanji,other)</text>
<polygon fill="none" stroke="#000000" points="756.5,-373 756.5,-403 1409.5,-403 1409.5,-373 756.5,-373"/>
<text text-anchor="start" x="763.5" y="-384.4" font-family="Arial" font-size="14.00" fill="#000000">initial_letter_detail    </text>
<text text-anchor="start" x="909.7174" y="-384.4" font-family="Arial" font-size="14.00" fill="#666666">[text]</text>
<text text-anchor="start" x="940.0624" y="-384.4" font-family="Arial" font-size="14.00" fill="#000000"> 頭文字の文字種別詳細</text>
<polygon fill="none" stroke="#000000" points="756.5,-343 756.5,-373 1409.5,-373 1409.5,-343 756.5,-343"/>
<text text-anchor="start" x="763.5" y="-354.4" font-family="Arial" font-size="14.00" fill="#000000">description    </text>
<text text-anchor="start" x="865.3822" y="-354.4" font-family="Arial" font-size="14.00" fill="#666666">[text]</text>
<text text-anchor="start" x="895.7272" y="-354.4" font-family="Arial" font-size="14.00" fill="#000000"> 説明</text>
<polygon fill="none" stroke="#000000" points="756.5,-313 756.5,-343 1409.5,-343 1409.5,-313 756.5,-313"/>
<text text-anchor="start" x="763.5" y="-324.4" font-family="Arial" font-size="14.00" fill="#000000">url    </text>
<text text-anchor="start" x="813.2546" y="-324.4" font-family="Arial" font-size="14.00" fill="#666666">[text]</text>
<text text-anchor="start" x="843.5996" y="-324.4" font-family="Arial" font-size="14.00" fill="#000000"> URL</text>
<polygon fill="none" stroke="#000000" points="756.5,-283 756.5,-313 1409.5,-313 1409.5,-283 756.5,-283"/>
<text text-anchor="start" x="763.5" y="-294.4" font-family="Arial" font-size="14.00" fill="#000000">blog_url    </text>
<text text-anchor="start" x="847.4916" y="-294.4" font-family="Arial" font-size="14.00" fill="#666666">[text]</text>
<text text-anchor="start" x="877.8366" y="-294.4" font-family="Arial" font-size="14.00" fill="#000000"> ブログ URL</text>
<polygon fill="none" stroke="#000000" points="756.5,-253 756.5,-283 1409.5,-283 1409.5,-253 756.5,-253"/>
<text text-anchor="start" x="763.5" y="-264.4" font-family="Arial" font-size="14.00" fill="#000000">twitter_url    </text>
<text text-anchor="start" x="858.3654" y="-264.4" font-family="Arial" font-size="14.00" fill="#666666">[text]</text>
<text text-anchor="start" x="888.7104" y="-264.4" font-family="Arial" font-size="14.00" fill="#000000"> Twitter URL</text>
<polygon fill="none" stroke="#000000" points="756.5,-223 756.5,-253 1409.5,-253 1409.5,-223 756.5,-223"/>
<text text-anchor="start" x="763.5" y="-234.4" font-family="Arial" font-size="14.00" fill="#000000">youtube_channel_url    </text>
<text text-anchor="start" x="927.643" y="-234.4" font-family="Arial" font-size="14.00" fill="#666666">[text]</text>
<text text-anchor="start" x="957.988" y="-234.4" font-family="Arial" font-size="14.00" fill="#000000"> YouTubeチャンネル URL</text>
<polygon fill="none" stroke="#000000" points="756.5,-193 756.5,-223 1409.5,-223 1409.5,-193 756.5,-193"/>
<text text-anchor="start" x="763.5" y="-204.4" font-family="Arial" font-size="14.00" fill="#000000">created_at    </text>
<text text-anchor="start" x="863.8422" y="-204.4" font-family="Arial" font-size="14.00" fill="#666666">[timestamp with time zone]</text>
<text text-anchor="start" x="1029.5266" y="-204.4" font-family="Arial" font-size="14.00" fill="#000000"> 作成日時</text>
<polygon fill="none" stroke="#000000" points="756.5,-163 756.5,-193 1409.5,-193 1409.5,-163 756.5,-163"/>
<text text-anchor="start" x="763.5" y="-174.4" font-family="Arial" font-size="14.00" fill="#000000">updated_at    </text>
<text text-anchor="start" x="867.7468" y="-174.4" font-family="Arial" font-size="14.00" fill="#666666">[timestamp with time zone]</text>
<text text-anchor="start" x="1033.4312" y="-174.4" font-family="Arial" font-size="14.00" fill="#000000"> 更新日時</text>
</g>
<!-- public.songs_arrange_circles&#45;&gt;public.circles -->
<g id="edge2" class="edge">
<title>public.songs_arrange_circles:circle_id&#45;&gt;public.circles:id</title>
<path fill="none" stroke="#000000" d="M912.577,-917.9792C951.5638,-909.1218 920.8658,-844.5011 902.5,-798 867.6167,-709.6777 791.3833,-730.3223 756.5,-642 739.5207,-599.0093 710.2778,-538 756.5,-538"/>
<polygon fill="#000000" stroke="#000000" points="912.4491,-917.9921 902.0464,-914.5229 907.4745,-918.496 902.5,-919 902.5,-919 902.5,-919 907.4745,-918.496 902.9536,-923.4771 912.4491,-917.9921 912.4491,-917.9921"/>
<text text-anchor="start" x="909.9555" y="-929" font-family="Arial" font-size="10.00" fill="#000000">FOREIGN KEY (circle_id) REFERENCES circles(id)</text>
</g>
</g>
</svg>
