<?xml version="1.0" encoding="UTF-8" standalone="no"?>
<!DOCTYPE svg PUBLIC "-//W3C//DTD SVG 1.1//EN"
 "http://www.w3.org/Graphics/SVG/1.1/DTD/svg11.dtd">
<!-- Generated by graphviz version 2.40.1 (20161225.0304)
 -->
<!-- Title: public.circles Pages: 1 -->
<svg width="1448pt" height="824pt"
 viewBox="0.00 0.00 1447.50 824.00" xmlns="http://www.w3.org/2000/svg" xmlns:xlink="http://www.w3.org/1999/xlink">
<g id="graph0" class="graph" transform="scale(1 1) rotate(0) translate(4 820)">
<title>public.circles</title>
<polygon fill="#ffffff" stroke="transparent" points="-4,4 -4,-820 1443.5,-820 1443.5,4 -4,4"/>
<!-- public.circles -->
<g id="node1" class="node">
<title>public.circles</title>
<polygon fill="#efefef" stroke="transparent" points="367,-406 367,-452 989,-452 989,-406 367,-406"/>
<polygon fill="none" stroke="#000000" points="367,-406 367,-452 989,-452 989,-406 367,-406"/>
<text text-anchor="start" x="562.718" y="-429.8" font-family="Arial Bold" font-size="18.00" fill="#000000">public.circles</text>
<text text-anchor="start" x="665.714" y="-429.8" font-family="Arial" font-size="14.00" fill="#000000">    </text>
<text text-anchor="start" x="699.9188" y="-429.8" font-family="Arial" font-size="14.00" fill="#666666">[BASE TABLE]</text>
<text text-anchor="start" x="643.525" y="-415.4" font-family="Arial" font-size="14.00" fill="#333333">サークル</text>
<polygon fill="none" stroke="#000000" points="367,-376 367,-406 989,-406 989,-376 367,-376"/>
<text text-anchor="start" x="374" y="-387.4" font-family="Arial" font-size="14.00" fill="#000000">id </text>
<text text-anchor="start" x="388.7798" y="-387.4" font-family="Arial" font-size="14.00" fill="#666666">[text]</text>
<polygon fill="none" stroke="#000000" points="367,-346 367,-376 989,-376 989,-346 367,-346"/>
<text text-anchor="start" x="374" y="-357.4" font-family="Arial" font-size="14.00" fill="#000000">name </text>
<text text-anchor="start" x="412.899" y="-357.4" font-family="Arial" font-size="14.00" fill="#666666">[text]</text>
<text text-anchor="start" x="443.244" y="-357.4" font-family="Arial" font-size="14.00" fill="#000000"> 名前</text>
<polygon fill="none" stroke="#000000" points="367,-316 367,-346 989,-346 989,-316 367,-316"/>
<text text-anchor="start" x="374" y="-327.4" font-family="Arial" font-size="14.00" fill="#000000">name_reading </text>
<text text-anchor="start" x="467.3618" y="-327.4" font-family="Arial" font-size="14.00" fill="#666666">[text]</text>
<text text-anchor="start" x="497.7068" y="-327.4" font-family="Arial" font-size="14.00" fill="#000000"> 名前読み方</text>
<polygon fill="none" stroke="#000000" points="367,-286 367,-316 989,-316 989,-286 367,-286"/>
<text text-anchor="start" x="373.5763" y="-297.4" font-family="Arial" font-size="14.00" fill="#000000">initial_letter_type </text>
<text text-anchor="start" x="482.4837" y="-297.4" font-family="Arial" font-size="14.00" fill="#666666">[initial_letter_type]</text>
<text text-anchor="start" x="595.2817" y="-297.4" font-family="Arial" font-size="14.00" fill="#000000"> 頭文字の文字種別(symbol,number,alphabet,kana,kanji,other)</text>
<polygon fill="none" stroke="#000000" points="367,-256 367,-286 989,-286 989,-256 367,-256"/>
<text text-anchor="start" x="374" y="-267.4" font-family="Arial" font-size="14.00" fill="#000000">initial_letter_detail </text>
<text text-anchor="start" x="489.9032" y="-267.4" font-family="Arial" font-size="14.00" fill="#666666">[text]</text>
<text text-anchor="start" x="520.2482" y="-267.4" font-family="Arial" font-size="14.00" fill="#000000"> 頭文字の文字種別詳細</text>
<polygon fill="none" stroke="#000000" points="367,-226 367,-256 989,-256 989,-226 367,-226"/>
<text text-anchor="start" x="374" y="-237.4" font-family="Arial" font-size="14.00" fill="#000000">description </text>
<text text-anchor="start" x="445.568" y="-237.4" font-family="Arial" font-size="14.00" fill="#666666">[text]</text>
<text text-anchor="start" x="475.913" y="-237.4" font-family="Arial" font-size="14.00" fill="#000000"> 説明</text>
<polygon fill="none" stroke="#000000" points="367,-196 367,-226 989,-226 989,-196 367,-196"/>
<text text-anchor="start" x="374" y="-207.4" font-family="Arial" font-size="14.00" fill="#000000">url </text>
<text text-anchor="start" x="393.4404" y="-207.4" font-family="Arial" font-size="14.00" fill="#666666">[text]</text>
<text text-anchor="start" x="423.7854" y="-207.4" font-family="Arial" font-size="14.00" fill="#000000"> URL</text>
<polygon fill="none" stroke="#000000" points="367,-166 367,-196 989,-196 989,-166 367,-166"/>
<text text-anchor="start" x="374" y="-177.4" font-family="Arial" font-size="14.00" fill="#000000">blog_url </text>
<text text-anchor="start" x="427.6774" y="-177.4" font-family="Arial" font-size="14.00" fill="#666666">[text]</text>
<text text-anchor="start" x="458.0224" y="-177.4" font-family="Arial" font-size="14.00" fill="#000000"> ブログ URL</text>
<polygon fill="none" stroke="#000000" points="367,-136 367,-166 989,-166 989,-136 367,-136"/>
<text text-anchor="start" x="374" y="-147.4" font-family="Arial" font-size="14.00" fill="#000000">twitter_url </text>
<text text-anchor="start" x="438.5512" y="-147.4" font-family="Arial" font-size="14.00" fill="#666666">[text]</text>
<text text-anchor="start" x="468.8962" y="-147.4" font-family="Arial" font-size="14.00" fill="#000000"> Twitter URL</text>
<polygon fill="none" stroke="#000000" points="367,-106 367,-136 989,-136 989,-106 367,-106"/>
<text text-anchor="start" x="374" y="-117.4" font-family="Arial" font-size="14.00" fill="#000000">youtube_channel_url </text>
<text text-anchor="start" x="507.8288" y="-117.4" font-family="Arial" font-size="14.00" fill="#666666">[text]</text>
<text text-anchor="start" x="538.1738" y="-117.4" font-family="Arial" font-size="14.00" fill="#000000"> YouTubeチャンネル URL</text>
<polygon fill="none" stroke="#000000" points="367,-76 367,-106 989,-106 989,-76 367,-76"/>
<text text-anchor="start" x="374" y="-87.4" font-family="Arial" font-size="14.00" fill="#000000">created_at </text>
<text text-anchor="start" x="444.028" y="-87.4" font-family="Arial" font-size="14.00" fill="#666666">[timestamp with time zone]</text>
<text text-anchor="start" x="609.7124" y="-87.4" font-family="Arial" font-size="14.00" fill="#000000"> 作成日時</text>
<polygon fill="none" stroke="#000000" points="367,-46 367,-76 989,-76 989,-46 367,-46"/>
<text text-anchor="start" x="374" y="-57.4" font-family="Arial" font-size="14.00" fill="#000000">updated_at </text>
<text text-anchor="start" x="447.9326" y="-57.4" font-family="Arial" font-size="14.00" fill="#666666">[timestamp with time zone]</text>
<text text-anchor="start" x="613.617" y="-57.4" font-family="Arial" font-size="14.00" fill="#000000"> 更新日時</text>
<polygon fill="none" stroke="#000000" stroke-width="3" points="365.5,-44.5 365.5,-453.5 990.5,-453.5 990.5,-44.5 365.5,-44.5"/>
</g>
<!-- public.albums_circles -->
<g id="node2" class="node">
<title>public.albums_circles</title>
<polygon fill="#efefef" stroke="transparent" points="43,-712 43,-758 387,-758 387,-712 43,-712"/>
<polygon fill="none" stroke="#000000" points="43,-712 43,-758 387,-758 387,-712 43,-712"/>
<text text-anchor="start" x="65.7124" y="-735.8" font-family="Arial Bold" font-size="18.00" fill="#000000">public.albums_circles</text>
<text text-anchor="start" x="236.7196" y="-735.8" font-family="Arial" font-size="14.00" fill="#000000">    </text>
<text text-anchor="start" x="270.9244" y="-735.8" font-family="Arial" font-size="14.00" fill="#666666">[BASE TABLE]</text>
<text text-anchor="start" x="86.1678" y="-721.4" font-family="Arial" font-size="14.00" fill="#333333">アルバムとサークルの中間テーブル</text>
<polygon fill="none" stroke="#000000" points="43,-682 43,-712 387,-712 387,-682 43,-682"/>
<text text-anchor="start" x="50" y="-693.4" font-family="Arial" font-size="14.00" fill="#000000">album_id    </text>
<text text-anchor="start" x="140.9916" y="-693.4" font-family="Arial" font-size="14.00" fill="#666666">[text]</text>
<text text-anchor="start" x="171.3366" y="-693.4" font-family="Arial" font-size="14.00" fill="#000000"> アルバムID</text>
<polygon fill="none" stroke="#000000" points="43,-652 43,-682 387,-682 387,-652 43,-652"/>
<text text-anchor="start" x="50" y="-663.4" font-family="Arial" font-size="14.00" fill="#000000">circle_id    </text>
<text text-anchor="start" x="135.533" y="-663.4" font-family="Arial" font-size="14.00" fill="#666666">[text]</text>
<text text-anchor="start" x="165.878" y="-663.4" font-family="Arial" font-size="14.00" fill="#000000"> サークルID</text>
<polygon fill="none" stroke="#000000" points="43,-622 43,-652 387,-652 387,-622 43,-622"/>
<text text-anchor="start" x="49.6971" y="-633.4" font-family="Arial" font-size="14.00" fill="#000000">created_at    </text>
<text text-anchor="start" x="150.0393" y="-633.4" font-family="Arial" font-size="14.00" fill="#666666">[timestamp with time zone]</text>
<text text-anchor="start" x="315.7237" y="-633.4" font-family="Arial" font-size="14.00" fill="#000000"> 作成日時</text>
<polygon fill="none" stroke="#000000" points="43,-592 43,-622 387,-622 387,-592 43,-592"/>
<text text-anchor="start" x="50" y="-603.4" font-family="Arial" font-size="14.00" fill="#000000">updated_at    </text>
<text text-anchor="start" x="154.2468" y="-603.4" font-family="Arial" font-size="14.00" fill="#666666">[timestamp with time zone]</text>
<text text-anchor="start" x="319.9312" y="-603.4" font-family="Arial" font-size="14.00" fill="#000000"> 更新日時</text>
</g>
<!-- public.albums_circles&#45;&gt;public.circles -->
<g id="edge1" class="edge">
<title>public.albums_circles:circle_id&#45;&gt;public.circles:id</title>
<path fill="none" stroke="#000000" d="M397.122,-666.2565C494.2407,-650.542 247.735,-391 367,-391"/>
<polygon fill="#000000" stroke="#000000" points="396.9731,-666.2673 386.6703,-662.5121 391.9866,-666.6337 387,-667 387,-667 387,-667 391.9866,-666.6337 387.3297,-671.4879 396.9731,-666.2673 396.9731,-666.2673"/>
<text text-anchor="start" x="394.4555" y="-677" font-family="Arial" font-size="10.00" fill="#000000">FOREIGN KEY (circle_id) REFERENCES circles(id)</text>
</g>
<!-- public.songs_arrange_circles -->
<g id="node3" class="node">
<title>public.songs_arrange_circles</title>
<polygon fill="#efefef" stroke="transparent" points="491,-712 491,-758 865,-758 865,-712 491,-712"/>
<polygon fill="none" stroke="#000000" points="491,-712 491,-758 865,-758 865,-712 491,-712"/>
<text text-anchor="start" x="497.6948" y="-735.8" font-family="Arial Bold" font-size="18.00" fill="#000000">public.songs_arrange_circles</text>
<text text-anchor="start" x="730.7372" y="-735.8" font-family="Arial" font-size="14.00" fill="#000000">    </text>
<text text-anchor="start" x="764.942" y="-735.8" font-family="Arial" font-size="14.00" fill="#666666">[BASE TABLE]</text>
<text text-anchor="start" x="606.8387" y="-721.4" font-family="Arial" font-size="14.00" fill="#333333">楽曲編曲サークル</text>
<polygon fill="none" stroke="#000000" points="491,-682 491,-712 865,-712 865,-682 491,-682"/>
<text text-anchor="start" x="498" y="-693.4" font-family="Arial" font-size="14.00" fill="#000000">song_id    </text>
<text text-anchor="start" x="581.2244" y="-693.4" font-family="Arial" font-size="14.00" fill="#666666">[text]</text>
<text text-anchor="start" x="611.5694" y="-693.4" font-family="Arial" font-size="14.00" fill="#000000"> 楽曲ID</text>
<polygon fill="none" stroke="#000000" points="491,-652 491,-682 865,-682 865,-652 491,-652"/>
<text text-anchor="start" x="498" y="-663.4" font-family="Arial" font-size="14.00" fill="#000000">circle_id    </text>
<text text-anchor="start" x="583.533" y="-663.4" font-family="Arial" font-size="14.00" fill="#666666">[text]</text>
<text text-anchor="start" x="613.878" y="-663.4" font-family="Arial" font-size="14.00" fill="#000000"> サークルID</text>
<polygon fill="none" stroke="#000000" points="491,-622 491,-652 865,-652 865,-622 491,-622"/>
<text text-anchor="start" x="498" y="-633.4" font-family="Arial" font-size="14.00" fill="#000000">created_at    </text>
<text text-anchor="start" x="598.3422" y="-633.4" font-family="Arial" font-size="14.00" fill="#666666">[timestamp with time zone]</text>
<text text-anchor="start" x="764.0266" y="-633.4" font-family="Arial" font-size="14.00" fill="#000000"> 作成日時</text>
<polygon fill="none" stroke="#000000" points="491,-592 491,-622 865,-622 865,-592 491,-592"/>
<text text-anchor="start" x="498" y="-603.4" font-family="Arial" font-size="14.00" fill="#000000">updated_at    </text>
<text text-anchor="start" x="602.2468" y="-603.4" font-family="Arial" font-size="14.00" fill="#666666">[timestamp with time zone]</text>
<text text-anchor="start" x="767.9312" y="-603.4" font-family="Arial" font-size="14.00" fill="#000000"> 更新日時</text>
</g>
<!-- public.songs_arrange_circles&#45;&gt;public.circles -->
<g id="edge2" class="edge">
<title>public.songs_arrange_circles:circle_id&#45;&gt;public.circles:id</title>
<path fill="none" stroke="#000000" d="M875.0212,-666.1391C922.6869,-657.0529 877.5916,-578.2217 918,-534 941.8661,-507.8817 970.4842,-528.1483 989,-498 1013.8877,-457.4768 1036.5556,-391 989,-391"/>
<polygon fill="#000000" stroke="#000000" points="874.9633,-666.144 864.6148,-662.5165 869.9817,-666.572 865,-667 865,-667 865,-667 869.9817,-666.572 865.3852,-671.4835 874.9633,-666.144 874.9633,-666.144"/>
<text text-anchor="start" x="749.9555" y="-651" font-family="Arial" font-size="10.00" fill="#000000">FOREIGN KEY (circle_id) REFERENCES circles(id)</text>
</g>
<!-- public.circles_tags -->
<g id="node4" class="node">
<title>public.circles_tags</title>
<polygon fill="#efefef" stroke="transparent" points="970,-727 970,-773 1397,-773 1397,-727 970,-727"/>
<polygon fill="none" stroke="#000000" points="970,-727 970,-773 1397,-773 1397,-727 970,-727"/>
<text text-anchor="start" x="1046.2076" y="-750.8" font-family="Arial Bold" font-size="18.00" fill="#000000">public.circles_tags</text>
<text text-anchor="start" x="1193.2244" y="-750.8" font-family="Arial" font-size="14.00" fill="#000000">    </text>
<text text-anchor="start" x="1227.4292" y="-750.8" font-family="Arial" font-size="14.00" fill="#666666">[BASE TABLE]</text>
<text text-anchor="start" x="1133.7342" y="-736.4" font-family="Arial" font-size="14.00" fill="#333333">サークルタグ</text>
<polygon fill="none" stroke="#000000" points="970,-697 970,-727 1397,-727 1397,-697 970,-697"/>
<text text-anchor="start" x="977" y="-708.4" font-family="Arial" font-size="14.00" fill="#000000">circle_id    </text>
<text text-anchor="start" x="1062.533" y="-708.4" font-family="Arial" font-size="14.00" fill="#666666">[text]</text>
<text text-anchor="start" x="1092.878" y="-708.4" font-family="Arial" font-size="14.00" fill="#000000"> サークルID</text>
<polygon fill="none" stroke="#000000" points="970,-667 970,-697 1397,-697 1397,-667 970,-667"/>
<text text-anchor="start" x="977" y="-678.4" font-family="Arial" font-size="14.00" fill="#000000">tag_id    </text>
<text text-anchor="start" x="1049.3324" y="-678.4" font-family="Arial" font-size="14.00" fill="#666666">[text]</text>
<text text-anchor="start" x="1079.6774" y="-678.4" font-family="Arial" font-size="14.00" fill="#000000"> タグID</text>
<polygon fill="none" stroke="#000000" points="970,-637 970,-667 1397,-667 1397,-637 970,-637"/>
<text text-anchor="start" x="976.6255" y="-648.4" font-family="Arial" font-size="14.00" fill="#000000">locked    </text>
<text text-anchor="start" x="1051.2847" y="-648.4" font-family="Arial" font-size="14.00" fill="#666666">[boolean]</text>
<text text-anchor="start" x="1108.8681" y="-648.4" font-family="Arial" font-size="14.00" fill="#000000"> ロック有無(true: ロック、false: アンロック)</text>
<polygon fill="none" stroke="#000000" points="970,-607 970,-637 1397,-637 1397,-607 970,-607"/>
<text text-anchor="start" x="977" y="-618.4" font-family="Arial" font-size="14.00" fill="#000000">created_at    </text>
<text text-anchor="start" x="1077.3422" y="-618.4" font-family="Arial" font-size="14.00" fill="#666666">[timestamp with time zone]</text>
<text text-anchor="start" x="1243.0266" y="-618.4" font-family="Arial" font-size="14.00" fill="#000000"> 作成日時</text>
<polygon fill="none" stroke="#000000" points="970,-577 970,-607 1397,-607 1397,-577 970,-577"/>
<text text-anchor="start" x="977" y="-588.4" font-family="Arial" font-size="14.00" fill="#000000">updated_at    </text>
<text text-anchor="start" x="1081.2468" y="-588.4" font-family="Arial" font-size="14.00" fill="#666666">[timestamp with time zone]</text>
<text text-anchor="start" x="1246.9312" y="-588.4" font-family="Arial" font-size="14.00" fill="#000000"> 更新日時</text>
</g>
<!-- public.circles_tags&#45;&gt;public.circles -->
<g id="edge3" class="edge">
<title>public.circles_tags:circle_id&#45;&gt;public.circles:id</title>
<path fill="none" stroke="#000000" d="M959.774,-711.3458C896.4321,-702.5653 951.8707,-607.1909 970,-534 974.3498,-516.439 984.6502,-515.561 989,-498 1000.4339,-451.8394 1036.5556,-391 989,-391"/>
<polygon fill="#000000" stroke="#000000" points="960.0204,-711.3615 969.7127,-716.4908 965.0102,-711.6807 970,-712 970,-712 970,-712 965.0102,-711.6807 970.2873,-707.5092 960.0204,-711.3615 960.0204,-711.3615"/>
<text text-anchor="start" x="732.4555" y="-722" font-family="Arial" font-size="10.00" fill="#000000">FOREIGN KEY (circle_id) REFERENCES circles(id)</text>
</g>
</g>
</svg>
