<?xml version="1.0" encoding="UTF-8" standalone="no"?>
<!DOCTYPE svg PUBLIC "-//W3C//DTD SVG 1.1//EN"
 "http://www.w3.org/Graphics/SVG/1.1/DTD/svg11.dtd">
<!-- Generated by graphviz version 2.40.1 (20161225.0304)
 -->
<!-- Title: public.artists Pages: 1 -->
<svg width="2094pt" height="794pt"
 viewBox="0.00 0.00 2094.00 794.00" xmlns="http://www.w3.org/2000/svg" xmlns:xlink="http://www.w3.org/1999/xlink">
<g id="graph0" class="graph" transform="scale(1 1) rotate(0) translate(4 790)">
<title>public.artists</title>
<polygon fill="#ffffff" stroke="transparent" points="-4,4 -4,-790 2090,-790 2090,4 -4,4"/>
<!-- public.artists -->
<g id="node1" class="node">
<title>public.artists</title>
<polygon fill="#efefef" stroke="transparent" points="725,-406 725,-452 1347,-452 1347,-406 725,-406"/>
<polygon fill="none" stroke="#000000" points="725,-406 725,-452 1347,-452 1347,-406 725,-406"/>
<text text-anchor="start" x="937.37" y="-429.8" font-family="Arial Bold" font-size="18.00" fill="#000000">public.artists</text>
<text text-anchor="start" x="1037.3762" y="-429.8" font-family="Arial" font-size="14.00" fill="#000000"> </text>
<text text-anchor="start" x="1041.2668" y="-429.8" font-family="Arial" font-size="14.00" fill="#666666">[BASE TABLE]</text>
<text text-anchor="start" x="987.7889" y="-415.4" font-family="Arial" font-size="14.00" fill="#333333">アーティスト</text>
<polygon fill="none" stroke="#000000" points="725,-376 725,-406 1347,-406 1347,-376 725,-376"/>
<text text-anchor="start" x="732" y="-387.4" font-family="Arial" font-size="14.00" fill="#000000">id </text>
<text text-anchor="start" x="746.7798" y="-387.4" font-family="Arial" font-size="14.00" fill="#666666">[text]</text>
<polygon fill="none" stroke="#000000" points="725,-346 725,-376 1347,-376 1347,-346 725,-346"/>
<text text-anchor="start" x="732" y="-357.4" font-family="Arial" font-size="14.00" fill="#000000">name </text>
<text text-anchor="start" x="770.899" y="-357.4" font-family="Arial" font-size="14.00" fill="#666666">[text]</text>
<text text-anchor="start" x="801.244" y="-357.4" font-family="Arial" font-size="14.00" fill="#000000"> 名前</text>
<polygon fill="none" stroke="#000000" points="725,-316 725,-346 1347,-346 1347,-316 725,-316"/>
<text text-anchor="start" x="732" y="-327.4" font-family="Arial" font-size="14.00" fill="#000000">name_reading </text>
<text text-anchor="start" x="825.3618" y="-327.4" font-family="Arial" font-size="14.00" fill="#666666">[text]</text>
<text text-anchor="start" x="855.7068" y="-327.4" font-family="Arial" font-size="14.00" fill="#000000"> 名前読み方</text>
<polygon fill="none" stroke="#000000" points="725,-286 725,-316 1347,-316 1347,-286 725,-286"/>
<text text-anchor="start" x="731.5763" y="-297.4" font-family="Arial" font-size="14.00" fill="#000000">initial_letter_type </text>
<text text-anchor="start" x="840.4837" y="-297.4" font-family="Arial" font-size="14.00" fill="#666666">[initial_letter_type]</text>
<text text-anchor="start" x="953.2817" y="-297.4" font-family="Arial" font-size="14.00" fill="#000000"> 頭文字の文字種別(symbol,number,alphabet,kana,kanji,other)</text>
<polygon fill="none" stroke="#000000" points="725,-256 725,-286 1347,-286 1347,-256 725,-256"/>
<text text-anchor="start" x="732" y="-267.4" font-family="Arial" font-size="14.00" fill="#000000">initial_letter_detail </text>
<text text-anchor="start" x="847.9032" y="-267.4" font-family="Arial" font-size="14.00" fill="#666666">[text]</text>
<text text-anchor="start" x="878.2482" y="-267.4" font-family="Arial" font-size="14.00" fill="#000000"> 頭文字の文字種別詳細</text>
<polygon fill="none" stroke="#000000" points="725,-226 725,-256 1347,-256 1347,-226 725,-226"/>
<text text-anchor="start" x="732" y="-237.4" font-family="Arial" font-size="14.00" fill="#000000">description </text>
<text text-anchor="start" x="803.568" y="-237.4" font-family="Arial" font-size="14.00" fill="#666666">[text]</text>
<text text-anchor="start" x="833.913" y="-237.4" font-family="Arial" font-size="14.00" fill="#000000"> 説明</text>
<polygon fill="none" stroke="#000000" points="725,-196 725,-226 1347,-226 1347,-196 725,-196"/>
<text text-anchor="start" x="732" y="-207.4" font-family="Arial" font-size="14.00" fill="#000000">url </text>
<text text-anchor="start" x="751.4404" y="-207.4" font-family="Arial" font-size="14.00" fill="#666666">[text]</text>
<text text-anchor="start" x="781.7854" y="-207.4" font-family="Arial" font-size="14.00" fill="#000000"> URL</text>
<polygon fill="none" stroke="#000000" points="725,-166 725,-196 1347,-196 1347,-166 725,-166"/>
<text text-anchor="start" x="732" y="-177.4" font-family="Arial" font-size="14.00" fill="#000000">blog_url </text>
<text text-anchor="start" x="785.6774" y="-177.4" font-family="Arial" font-size="14.00" fill="#666666">[text]</text>
<text text-anchor="start" x="816.0224" y="-177.4" font-family="Arial" font-size="14.00" fill="#000000"> ブログ URL</text>
<polygon fill="none" stroke="#000000" points="725,-136 725,-166 1347,-166 1347,-136 725,-136"/>
<text text-anchor="start" x="732" y="-147.4" font-family="Arial" font-size="14.00" fill="#000000">twitter_url </text>
<text text-anchor="start" x="796.5512" y="-147.4" font-family="Arial" font-size="14.00" fill="#666666">[text]</text>
<text text-anchor="start" x="826.8962" y="-147.4" font-family="Arial" font-size="14.00" fill="#000000"> Twitter URL</text>
<polygon fill="none" stroke="#000000" points="725,-106 725,-136 1347,-136 1347,-106 725,-106"/>
<text text-anchor="start" x="732" y="-117.4" font-family="Arial" font-size="14.00" fill="#000000">youtube_channel_url </text>
<text text-anchor="start" x="865.8288" y="-117.4" font-family="Arial" font-size="14.00" fill="#666666">[text]</text>
<text text-anchor="start" x="896.1738" y="-117.4" font-family="Arial" font-size="14.00" fill="#000000"> YouTubeチャンネル URL</text>
<polygon fill="none" stroke="#000000" points="725,-76 725,-106 1347,-106 1347,-76 725,-76"/>
<text text-anchor="start" x="732" y="-87.4" font-family="Arial" font-size="14.00" fill="#000000">created_at </text>
<text text-anchor="start" x="802.028" y="-87.4" font-family="Arial" font-size="14.00" fill="#666666">[timestamp with time zone]</text>
<text text-anchor="start" x="967.7124" y="-87.4" font-family="Arial" font-size="14.00" fill="#000000"> 作成日時</text>
<polygon fill="none" stroke="#000000" points="725,-46 725,-76 1347,-76 1347,-46 725,-46"/>
<text text-anchor="start" x="732" y="-57.4" font-family="Arial" font-size="14.00" fill="#000000">updated_at </text>
<text text-anchor="start" x="805.9326" y="-57.4" font-family="Arial" font-size="14.00" fill="#666666">[timestamp with time zone]</text>
<text text-anchor="start" x="971.617" y="-57.4" font-family="Arial" font-size="14.00" fill="#000000"> 更新日時</text>
<polygon fill="none" stroke="#000000" stroke-width="3" points="723.5,-44.5 723.5,-453.5 1348.5,-453.5 1348.5,-44.5 723.5,-44.5"/>
</g>
<!-- public.tracks_composers -->
<g id="node2" class="node">
<title>public.tracks_composers</title>
<polygon fill="#efefef" stroke="transparent" points="43,-697 43,-743 357,-743 357,-697 43,-697"/>
<polygon fill="none" stroke="#000000" points="43,-697 43,-743 357,-743 357,-697 43,-697"/>
<text text-anchor="start" x="52.3605" y="-720.8" font-family="Arial Bold" font-size="18.00" fill="#000000">public.tracks_composers</text>
<text text-anchor="start" x="250.3857" y="-720.8" font-family="Arial" font-size="14.00" fill="#000000"> </text>
<text text-anchor="start" x="254.2763" y="-720.8" font-family="Arial" font-size="14.00" fill="#666666">[BASE TABLE]</text>
<text text-anchor="start" x="152.9271" y="-706.4" font-family="Arial" font-size="14.00" fill="#333333">楽曲作曲者</text>
<polygon fill="none" stroke="#000000" points="43,-667 43,-697 357,-697 357,-667 43,-667"/>
<text text-anchor="start" x="50" y="-678.4" font-family="Arial" font-size="14.00" fill="#000000">track_id </text>
<text text-anchor="start" x="102.8962" y="-678.4" font-family="Arial" font-size="14.00" fill="#666666">[text]</text>
<text text-anchor="start" x="133.2412" y="-678.4" font-family="Arial" font-size="14.00" fill="#000000"> トラックID</text>
<polygon fill="none" stroke="#000000" points="43,-637 43,-667 357,-667 357,-637 43,-637"/>
<text text-anchor="start" x="50" y="-648.4" font-family="Arial" font-size="14.00" fill="#000000">artist_id </text>
<text text-anchor="start" x="102.8934" y="-648.4" font-family="Arial" font-size="14.00" fill="#666666">[text]</text>
<text text-anchor="start" x="133.2384" y="-648.4" font-family="Arial" font-size="14.00" fill="#000000"> 作曲者ID(アーティストID)</text>
<polygon fill="none" stroke="#000000" points="43,-607 43,-637 357,-637 357,-607 43,-607"/>
<text text-anchor="start" x="49.8542" y="-618.4" font-family="Arial" font-size="14.00" fill="#000000">created_at </text>
<text text-anchor="start" x="119.8822" y="-618.4" font-family="Arial" font-size="14.00" fill="#666666">[timestamp with time zone]</text>
<text text-anchor="start" x="285.5666" y="-618.4" font-family="Arial" font-size="14.00" fill="#000000"> 作成日時</text>
<polygon fill="none" stroke="#000000" points="43,-577 43,-607 357,-607 357,-577 43,-577"/>
<text text-anchor="start" x="50" y="-588.4" font-family="Arial" font-size="14.00" fill="#000000">updated_at </text>
<text text-anchor="start" x="123.9326" y="-588.4" font-family="Arial" font-size="14.00" fill="#666666">[timestamp with time zone]</text>
<text text-anchor="start" x="289.617" y="-588.4" font-family="Arial" font-size="14.00" fill="#000000"> 更新日時</text>
</g>
<!-- public.tracks_composers&#45;&gt;public.artists -->
<g id="edge1" class="edge">
<title>public.tracks_composers:artist_id&#45;&gt;public.artists:id</title>
<path fill="none" stroke="#000000" d="M367.1108,-651.011C408.6291,-641.8981 371.3536,-572.0203 409,-534 517.4645,-424.4582 570.8444,-391 725,-391"/>
<polygon fill="#000000" stroke="#000000" points="366.9525,-651.0264 356.5619,-647.5214 361.9763,-651.5132 357,-652 357,-652 357,-652 361.9763,-651.5132 357.4381,-656.4786 366.9525,-651.0264 366.9525,-651.0264"/>
<text text-anchor="start" x="364.1165" y="-662" font-family="Arial" font-size="10.00" fill="#000000">FOREIGN KEY (artist_id) REFERENCES artists(id)</text>
</g>
<!-- public.tracks_arrangers -->
<g id="node3" class="node">
<title>public.tracks_arrangers</title>
<polygon fill="#efefef" stroke="transparent" points="461,-697 461,-743 775,-743 775,-697 461,-697"/>
<polygon fill="none" stroke="#000000" points="461,-697 461,-743 775,-743 775,-697 461,-697"/>
<text text-anchor="start" x="475.8613" y="-720.8" font-family="Arial Bold" font-size="18.00" fill="#000000">public.tracks_arrangers</text>
<text text-anchor="start" x="662.8849" y="-720.8" font-family="Arial" font-size="14.00" fill="#000000"> </text>
<text text-anchor="start" x="666.7755" y="-720.8" font-family="Arial" font-size="14.00" fill="#666666">[BASE TABLE]</text>
<text text-anchor="start" x="573.5318" y="-706.4" font-family="Arial" font-size="14.00" fill="#333333">楽曲編曲者</text>
<polygon fill="none" stroke="#000000" points="461,-667 461,-697 775,-697 775,-667 461,-667"/>
<text text-anchor="start" x="468" y="-678.4" font-family="Arial" font-size="14.00" fill="#000000">track_id </text>
<text text-anchor="start" x="520.8962" y="-678.4" font-family="Arial" font-size="14.00" fill="#666666">[text]</text>
<text text-anchor="start" x="551.2412" y="-678.4" font-family="Arial" font-size="14.00" fill="#000000"> トラックID</text>
<polygon fill="none" stroke="#000000" points="461,-637 461,-667 775,-667 775,-637 461,-637"/>
<text text-anchor="start" x="468" y="-648.4" font-family="Arial" font-size="14.00" fill="#000000">artist_id </text>
<text text-anchor="start" x="520.8934" y="-648.4" font-family="Arial" font-size="14.00" fill="#666666">[text]</text>
<text text-anchor="start" x="551.2384" y="-648.4" font-family="Arial" font-size="14.00" fill="#000000"> 編曲者ID(アーティストID)</text>
<polygon fill="none" stroke="#000000" points="461,-607 461,-637 775,-637 775,-607 461,-607"/>
<text text-anchor="start" x="467.8542" y="-618.4" font-family="Arial" font-size="14.00" fill="#000000">created_at </text>
<text text-anchor="start" x="537.8822" y="-618.4" font-family="Arial" font-size="14.00" fill="#666666">[timestamp with time zone]</text>
<text text-anchor="start" x="703.5666" y="-618.4" font-family="Arial" font-size="14.00" fill="#000000"> 作成日時</text>
<polygon fill="none" stroke="#000000" points="461,-577 461,-607 775,-607 775,-577 461,-577"/>
<text text-anchor="start" x="468" y="-588.4" font-family="Arial" font-size="14.00" fill="#000000">updated_at </text>
<text text-anchor="start" x="541.9326" y="-588.4" font-family="Arial" font-size="14.00" fill="#666666">[timestamp with time zone]</text>
<text text-anchor="start" x="707.617" y="-588.4" font-family="Arial" font-size="14.00" fill="#000000"> 更新日時</text>
</g>
<!-- public.tracks_arrangers&#45;&gt;public.artists -->
<g id="edge2" class="edge">
<title>public.tracks_arrangers:artist_id&#45;&gt;public.artists:id</title>
<path fill="none" stroke="#000000" d="M785.3739,-650.8606C823.2343,-641.5488 797.135,-577.2128 775,-534 762.516,-509.6283 737.484,-522.3717 725,-498 703.3193,-455.6742 677.4444,-391 725,-391"/>
<polygon fill="#000000" stroke="#000000" points="784.9402,-650.9081 774.5087,-647.5269 779.9701,-651.4541 775,-652 775,-652 775,-652 779.9701,-651.4541 775.4913,-656.4731 784.9402,-650.9081 784.9402,-650.9081"/>
<text text-anchor="start" x="782.1165" y="-662" font-family="Arial" font-size="10.00" fill="#000000">FOREIGN KEY (artist_id) REFERENCES artists(id)</text>
</g>
<!-- public.tracks_rearrangers -->
<g id="node4" class="node">
<title>public.tracks_rearrangers</title>
<polygon fill="#efefef" stroke="transparent" points="879,-697 879,-743 1193,-743 1193,-697 879,-697"/>
<polygon fill="none" stroke="#000000" points="879,-697 879,-743 1193,-743 1193,-697 879,-697"/>
<text text-anchor="start" x="885.8621" y="-720.8" font-family="Arial Bold" font-size="18.00" fill="#000000">public.tracks_rearrangers</text>
<text text-anchor="start" x="1088.8841" y="-720.8" font-family="Arial" font-size="14.00" fill="#000000"> </text>
<text text-anchor="start" x="1092.7747" y="-720.8" font-family="Arial" font-size="14.00" fill="#666666">[BASE TABLE]</text>
<text text-anchor="start" x="985.6959" y="-706.4" font-family="Arial" font-size="14.00" fill="#333333">楽曲再編曲者</text>
<polygon fill="none" stroke="#000000" points="879,-667 879,-697 1193,-697 1193,-667 879,-667"/>
<text text-anchor="start" x="886" y="-678.4" font-family="Arial" font-size="14.00" fill="#000000">track_id </text>
<text text-anchor="start" x="938.8962" y="-678.4" font-family="Arial" font-size="14.00" fill="#666666">[text]</text>
<text text-anchor="start" x="969.2412" y="-678.4" font-family="Arial" font-size="14.00" fill="#000000"> トラックID</text>
<polygon fill="none" stroke="#000000" points="879,-637 879,-667 1193,-667 1193,-637 879,-637"/>
<text text-anchor="start" x="886" y="-648.4" font-family="Arial" font-size="14.00" fill="#000000">artist_id </text>
<text text-anchor="start" x="938.8934" y="-648.4" font-family="Arial" font-size="14.00" fill="#666666">[text]</text>
<text text-anchor="start" x="969.2384" y="-648.4" font-family="Arial" font-size="14.00" fill="#000000"> 再編曲者ID(アーティストID)</text>
<polygon fill="none" stroke="#000000" points="879,-607 879,-637 1193,-637 1193,-607 879,-607"/>
<text text-anchor="start" x="885.8542" y="-618.4" font-family="Arial" font-size="14.00" fill="#000000">created_at </text>
<text text-anchor="start" x="955.8822" y="-618.4" font-family="Arial" font-size="14.00" fill="#666666">[timestamp with time zone]</text>
<text text-anchor="start" x="1121.5666" y="-618.4" font-family="Arial" font-size="14.00" fill="#000000"> 作成日時</text>
<polygon fill="none" stroke="#000000" points="879,-577 879,-607 1193,-607 1193,-577 879,-577"/>
<text text-anchor="start" x="886" y="-588.4" font-family="Arial" font-size="14.00" fill="#000000">updated_at </text>
<text text-anchor="start" x="959.9326" y="-588.4" font-family="Arial" font-size="14.00" fill="#666666">[timestamp with time zone]</text>
<text text-anchor="start" x="1125.617" y="-588.4" font-family="Arial" font-size="14.00" fill="#000000"> 更新日時</text>
</g>
<!-- public.tracks_rearrangers&#45;&gt;public.artists -->
<g id="edge3" class="edge">
<title>public.tracks_rearrangers:artist_id&#45;&gt;public.artists:id</title>
<path fill="none" stroke="#000000" d="M1203.0897,-650.9892C1244.4174,-641.6793 1205.7601,-570.3735 1245,-534 1280.2568,-501.3187 1319.2338,-537.2447 1347,-498 1374.4668,-459.1785 1394.5556,-391 1347,-391"/>
<polygon fill="#000000" stroke="#000000" points="1202.9502,-651.0031 1192.5514,-647.5224 1197.9751,-651.5016 1193,-652 1193,-652 1193,-652 1197.9751,-651.5016 1193.4486,-656.4776 1202.9502,-651.0031 1202.9502,-651.0031"/>
<text text-anchor="start" x="1200.1165" y="-662" font-family="Arial" font-size="10.00" fill="#000000">FOREIGN KEY (artist_id) REFERENCES artists(id)</text>
</g>
<!-- public.tracks_lyricists -->
<g id="node5" class="node">
<title>public.tracks_lyricists</title>
<polygon fill="#efefef" stroke="transparent" points="1297,-697 1297,-743 1611,-743 1611,-697 1297,-697"/>
<polygon fill="none" stroke="#000000" points="1297,-697 1297,-743 1611,-743 1611,-697 1297,-697"/>
<text text-anchor="start" x="1320.8766" y="-720.8" font-family="Arial Bold" font-size="18.00" fill="#000000">public.tracks_lyricists</text>
<text text-anchor="start" x="1489.8696" y="-720.8" font-family="Arial" font-size="14.00" fill="#000000"> </text>
<text text-anchor="start" x="1493.7602" y="-720.8" font-family="Arial" font-size="14.00" fill="#666666">[BASE TABLE]</text>
<text text-anchor="start" x="1407.5361" y="-706.4" font-family="Arial" font-size="14.00" fill="#333333">楽曲作詞者</text>
<polygon fill="none" stroke="#000000" points="1297,-667 1297,-697 1611,-697 1611,-667 1297,-667"/>
<text text-anchor="start" x="1304" y="-678.4" font-family="Arial" font-size="14.00" fill="#000000">track_id </text>
<text text-anchor="start" x="1356.8962" y="-678.4" font-family="Arial" font-size="14.00" fill="#666666">[text]</text>
<text text-anchor="start" x="1387.2412" y="-678.4" font-family="Arial" font-size="14.00" fill="#000000"> トラックID</text>
<polygon fill="none" stroke="#000000" points="1297,-637 1297,-667 1611,-667 1611,-637 1297,-637"/>
<text text-anchor="start" x="1304" y="-648.4" font-family="Arial" font-size="14.00" fill="#000000">artist_id </text>
<text text-anchor="start" x="1356.8934" y="-648.4" font-family="Arial" font-size="14.00" fill="#666666">[text]</text>
<text text-anchor="start" x="1387.2384" y="-648.4" font-family="Arial" font-size="14.00" fill="#000000"> 作詞者ID(アーティストID)</text>
<polygon fill="none" stroke="#000000" points="1297,-607 1297,-637 1611,-637 1611,-607 1297,-607"/>
<text text-anchor="start" x="1303.8542" y="-618.4" font-family="Arial" font-size="14.00" fill="#000000">created_at </text>
<text text-anchor="start" x="1373.8822" y="-618.4" font-family="Arial" font-size="14.00" fill="#666666">[timestamp with time zone]</text>
<text text-anchor="start" x="1539.5666" y="-618.4" font-family="Arial" font-size="14.00" fill="#000000"> 作成日時</text>
<polygon fill="none" stroke="#000000" points="1297,-577 1297,-607 1611,-607 1611,-577 1297,-577"/>
<text text-anchor="start" x="1304" y="-588.4" font-family="Arial" font-size="14.00" fill="#000000">updated_at </text>
<text text-anchor="start" x="1377.9326" y="-588.4" font-family="Arial" font-size="14.00" fill="#666666">[timestamp with time zone]</text>
<text text-anchor="start" x="1543.617" y="-588.4" font-family="Arial" font-size="14.00" fill="#000000"> 更新日時</text>
</g>
<!-- public.tracks_lyricists&#45;&gt;public.artists -->
<g id="edge4" class="edge">
<title>public.tracks_lyricists:artist_id&#45;&gt;public.artists:id</title>
<path fill="none" stroke="#000000" d="M1286.6261,-650.8606C1248.7657,-641.5488 1274.865,-577.2128 1297,-534 1309.484,-509.6283 1334.516,-522.3717 1347,-498 1368.6807,-455.6742 1394.5556,-391 1347,-391"/>
<polygon fill="#000000" stroke="#000000" points="1287.0598,-650.9081 1296.5087,-656.4731 1292.0299,-651.4541 1297,-652 1297,-652 1297,-652 1292.0299,-651.4541 1297.4913,-647.5269 1287.0598,-650.9081 1287.0598,-650.9081"/>
<text text-anchor="start" x="1243.8665" y="-636" font-family="Arial" font-size="10.00" fill="#000000">FOREIGN KEY (artist_id) REFERENCES artists(id)</text>
</g>
<!-- public.tracks_vocalists -->
<g id="node6" class="node">
<title>public.tracks_vocalists</title>
<polygon fill="#efefef" stroke="transparent" points="1715,-697 1715,-743 2043,-743 2043,-697 1715,-697"/>
<polygon fill="none" stroke="#000000" points="1715,-697 1715,-743 2043,-743 2043,-697 1715,-697"/>
<text text-anchor="start" x="1740.8636" y="-720.8" font-family="Arial Bold" font-size="18.00" fill="#000000">public.tracks_vocalists</text>
<text text-anchor="start" x="1919.8826" y="-720.8" font-family="Arial" font-size="14.00" fill="#000000"> </text>
<text text-anchor="start" x="1923.7732" y="-720.8" font-family="Arial" font-size="14.00" fill="#666666">[BASE TABLE]</text>
<text text-anchor="start" x="1811.7314" y="-706.4" font-family="Arial" font-size="14.00" fill="#333333">楽曲ボーカリスト</text>
<polygon fill="none" stroke="#000000" points="1715,-667 1715,-697 2043,-697 2043,-667 1715,-667"/>
<text text-anchor="start" x="1722" y="-678.4" font-family="Arial" font-size="14.00" fill="#000000">track_id </text>
<text text-anchor="start" x="1774.8962" y="-678.4" font-family="Arial" font-size="14.00" fill="#666666">[text]</text>
<text text-anchor="start" x="1805.2412" y="-678.4" font-family="Arial" font-size="14.00" fill="#000000"> トラックID</text>
<polygon fill="none" stroke="#000000" points="1715,-637 1715,-667 2043,-667 2043,-637 1715,-637"/>
<text text-anchor="start" x="1721.9165" y="-648.4" font-family="Arial" font-size="14.00" fill="#000000">artist_id </text>
<text text-anchor="start" x="1774.8099" y="-648.4" font-family="Arial" font-size="14.00" fill="#666666">[text]</text>
<text text-anchor="start" x="1805.1549" y="-648.4" font-family="Arial" font-size="14.00" fill="#000000"> ボーカリストID(アーティストID)</text>
<polygon fill="none" stroke="#000000" points="1715,-607 1715,-637 2043,-637 2043,-607 1715,-607"/>
<text text-anchor="start" x="1722" y="-618.4" font-family="Arial" font-size="14.00" fill="#000000">created_at </text>
<text text-anchor="start" x="1792.028" y="-618.4" font-family="Arial" font-size="14.00" fill="#666666">[timestamp with time zone]</text>
<text text-anchor="start" x="1957.7124" y="-618.4" font-family="Arial" font-size="14.00" fill="#000000"> 作成日時</text>
<polygon fill="none" stroke="#000000" points="1715,-577 1715,-607 2043,-607 2043,-577 1715,-577"/>
<text text-anchor="start" x="1722" y="-588.4" font-family="Arial" font-size="14.00" fill="#000000">updated_at </text>
<text text-anchor="start" x="1795.9326" y="-588.4" font-family="Arial" font-size="14.00" fill="#666666">[timestamp with time zone]</text>
<text text-anchor="start" x="1961.617" y="-588.4" font-family="Arial" font-size="14.00" fill="#000000"> 更新日時</text>
</g>
<!-- public.tracks_vocalists&#45;&gt;public.artists -->
<g id="edge5" class="edge">
<title>public.tracks_vocalists:artist_id&#45;&gt;public.artists:id</title>
<path fill="none" stroke="#000000" d="M1704.8892,-651.011C1663.3709,-641.8981 1700.6464,-572.0203 1663,-534 1554.5355,-424.4582 1501.1556,-391 1347,-391"/>
<polygon fill="#000000" stroke="#000000" points="1705.0475,-651.0264 1714.5619,-656.4786 1710.0237,-651.5132 1715,-652 1715,-652 1715,-652 1710.0237,-651.5132 1715.4381,-647.5214 1705.0475,-651.0264 1705.0475,-651.0264"/>
<text text-anchor="start" x="1661.8665" y="-636" font-family="Arial" font-size="10.00" fill="#000000">FOREIGN KEY (artist_id) REFERENCES artists(id)</text>
</g>
</g>
</svg>
