<?xml version="1.0" encoding="UTF-8" standalone="no"?>
<!DOCTYPE svg PUBLIC "-//W3C//DTD SVG 1.1//EN"
 "http://www.w3.org/Graphics/SVG/1.1/DTD/svg11.dtd">
<!-- Generated by graphviz version 2.40.1 (20161225.0304)
 -->
<!-- Title: public.artists Pages: 1 -->
<svg width="2244pt" height="884pt"
 viewBox="0.00 0.00 2244.00 884.00" xmlns="http://www.w3.org/2000/svg" xmlns:xlink="http://www.w3.org/1999/xlink">
<g id="graph0" class="graph" transform="scale(1 1) rotate(0) translate(4 880)">
<title>public.artists</title>
<polygon fill="#ffffff" stroke="transparent" points="-4,4 -4,-880 2240,-880 2240,4 -4,4"/>
<!-- public.artists -->
<g id="node1" class="node">
<title>public.artists</title>
<polygon fill="#efefef" stroke="transparent" points="800,-496 800,-542 1422,-542 1422,-496 800,-496"/>
<polygon fill="none" stroke="#000000" points="800,-496 800,-542 1422,-542 1422,-496 800,-496"/>
<text text-anchor="start" x="997.2129" y="-519.8" font-family="Arial Bold" font-size="18.00" fill="#000000">public.artists</text>
<text text-anchor="start" x="1097.2191" y="-519.8" font-family="Arial" font-size="14.00" fill="#000000">    </text>
<text text-anchor="start" x="1131.4239" y="-519.8" font-family="Arial" font-size="14.00" fill="#666666">[BASE TABLE]</text>
<text text-anchor="start" x="1062.7889" y="-505.4" font-family="Arial" font-size="14.00" fill="#333333">アーティスト</text>
<polygon fill="none" stroke="#000000" points="800,-466 800,-496 1422,-496 1422,-466 800,-466"/>
<text text-anchor="start" x="807" y="-477.4" font-family="Arial" font-size="14.00" fill="#000000">id </text>
<text text-anchor="start" x="821.7798" y="-477.4" font-family="Arial" font-size="14.00" fill="#666666">[text]</text>
<text text-anchor="start" x="852.1248" y="-477.4" font-family="Arial" font-size="14.00" fill="#000000"> アーティストID</text>
<polygon fill="none" stroke="#000000" points="800,-436 800,-466 1422,-466 1422,-436 800,-436"/>
<text text-anchor="start" x="807" y="-447.4" font-family="Arial" font-size="14.00" fill="#000000">created_at </text>
<text text-anchor="start" x="877.028" y="-447.4" font-family="Arial" font-size="14.00" fill="#666666">[timestamp with time zone]</text>
<text text-anchor="start" x="1042.7124" y="-447.4" font-family="Arial" font-size="14.00" fill="#000000"> 作成日時</text>
<polygon fill="none" stroke="#000000" points="800,-406 800,-436 1422,-436 1422,-406 800,-406"/>
<text text-anchor="start" x="807" y="-417.4" font-family="Arial" font-size="14.00" fill="#000000">updated_at </text>
<text text-anchor="start" x="880.9326" y="-417.4" font-family="Arial" font-size="14.00" fill="#666666">[timestamp with time zone]</text>
<text text-anchor="start" x="1046.617" y="-417.4" font-family="Arial" font-size="14.00" fill="#000000"> 更新日時</text>
<polygon fill="none" stroke="#000000" points="800,-376 800,-406 1422,-406 1422,-376 800,-376"/>
<text text-anchor="start" x="807" y="-387.4" font-family="Arial" font-size="14.00" fill="#000000">name </text>
<text text-anchor="start" x="845.899" y="-387.4" font-family="Arial" font-size="14.00" fill="#666666">[text]</text>
<text text-anchor="start" x="876.244" y="-387.4" font-family="Arial" font-size="14.00" fill="#000000"> 名前</text>
<polygon fill="none" stroke="#000000" points="800,-346 800,-376 1422,-376 1422,-346 800,-346"/>
<text text-anchor="start" x="807" y="-357.4" font-family="Arial" font-size="14.00" fill="#000000">name_reading </text>
<text text-anchor="start" x="900.3618" y="-357.4" font-family="Arial" font-size="14.00" fill="#666666">[text]</text>
<text text-anchor="start" x="930.7068" y="-357.4" font-family="Arial" font-size="14.00" fill="#000000"> 名前読み方</text>
<polygon fill="none" stroke="#000000" points="800,-316 800,-346 1422,-346 1422,-316 800,-316"/>
<text text-anchor="start" x="807" y="-327.4" font-family="Arial" font-size="14.00" fill="#000000">slug </text>
<text text-anchor="start" x="836.5624" y="-327.4" font-family="Arial" font-size="14.00" fill="#666666">[text]</text>
<text text-anchor="start" x="866.9074" y="-327.4" font-family="Arial" font-size="14.00" fill="#000000"> スラッグ</text>
<polygon fill="none" stroke="#000000" points="800,-286 800,-316 1422,-316 1422,-286 800,-286"/>
<text text-anchor="start" x="806.5763" y="-297.4" font-family="Arial" font-size="14.00" fill="#000000">initial_letter_type </text>
<text text-anchor="start" x="915.4837" y="-297.4" font-family="Arial" font-size="14.00" fill="#666666">[initial_letter_type]</text>
<text text-anchor="start" x="1028.2817" y="-297.4" font-family="Arial" font-size="14.00" fill="#000000"> 頭文字の文字種別(symbol,number,alphabet,kana,kanji,other)</text>
<polygon fill="none" stroke="#000000" points="800,-256 800,-286 1422,-286 1422,-256 800,-256"/>
<text text-anchor="start" x="807" y="-267.4" font-family="Arial" font-size="14.00" fill="#000000">initial_letter_detail </text>
<text text-anchor="start" x="922.9032" y="-267.4" font-family="Arial" font-size="14.00" fill="#666666">[text]</text>
<text text-anchor="start" x="953.2482" y="-267.4" font-family="Arial" font-size="14.00" fill="#000000"> 頭文字の文字種別詳細</text>
<polygon fill="none" stroke="#000000" points="800,-226 800,-256 1422,-256 1422,-226 800,-226"/>
<text text-anchor="start" x="807" y="-237.4" font-family="Arial" font-size="14.00" fill="#000000">description </text>
<text text-anchor="start" x="878.568" y="-237.4" font-family="Arial" font-size="14.00" fill="#666666">[text]</text>
<text text-anchor="start" x="908.913" y="-237.4" font-family="Arial" font-size="14.00" fill="#000000"> 説明</text>
<polygon fill="none" stroke="#000000" points="800,-196 800,-226 1422,-226 1422,-196 800,-196"/>
<text text-anchor="start" x="807" y="-207.4" font-family="Arial" font-size="14.00" fill="#000000">url </text>
<text text-anchor="start" x="826.4404" y="-207.4" font-family="Arial" font-size="14.00" fill="#666666">[text]</text>
<text text-anchor="start" x="856.7854" y="-207.4" font-family="Arial" font-size="14.00" fill="#000000"> URL</text>
<polygon fill="none" stroke="#000000" points="800,-166 800,-196 1422,-196 1422,-166 800,-166"/>
<text text-anchor="start" x="807" y="-177.4" font-family="Arial" font-size="14.00" fill="#000000">blog_url </text>
<text text-anchor="start" x="860.6774" y="-177.4" font-family="Arial" font-size="14.00" fill="#666666">[text]</text>
<text text-anchor="start" x="891.0224" y="-177.4" font-family="Arial" font-size="14.00" fill="#000000"> ブログ URL</text>
<polygon fill="none" stroke="#000000" points="800,-136 800,-166 1422,-166 1422,-136 800,-136"/>
<text text-anchor="start" x="807" y="-147.4" font-family="Arial" font-size="14.00" fill="#000000">twitter_url </text>
<text text-anchor="start" x="871.5512" y="-147.4" font-family="Arial" font-size="14.00" fill="#666666">[text]</text>
<text text-anchor="start" x="901.8962" y="-147.4" font-family="Arial" font-size="14.00" fill="#000000"> Twitter URL</text>
<polygon fill="none" stroke="#000000" points="800,-106 800,-136 1422,-136 1422,-106 800,-106"/>
<text text-anchor="start" x="807" y="-117.4" font-family="Arial" font-size="14.00" fill="#000000">youtube_channel_url </text>
<text text-anchor="start" x="940.8288" y="-117.4" font-family="Arial" font-size="14.00" fill="#666666">[text]</text>
<text text-anchor="start" x="971.1738" y="-117.4" font-family="Arial" font-size="14.00" fill="#000000"> YouTubeチャンネル URL</text>
<polygon fill="none" stroke="#000000" points="800,-76 800,-106 1422,-106 1422,-76 800,-76"/>
<text text-anchor="start" x="807" y="-87.4" font-family="Arial" font-size="14.00" fill="#000000">published_at </text>
<text text-anchor="start" x="890.2552" y="-87.4" font-family="Arial" font-size="14.00" fill="#666666">[timestamp with time zone]</text>
<text text-anchor="start" x="1055.9396" y="-87.4" font-family="Arial" font-size="14.00" fill="#000000"> 公開日時</text>
<polygon fill="none" stroke="#000000" points="800,-46 800,-76 1422,-76 1422,-46 800,-46"/>
<text text-anchor="start" x="807" y="-57.4" font-family="Arial" font-size="14.00" fill="#000000">archived_at </text>
<text text-anchor="start" x="883.244" y="-57.4" font-family="Arial" font-size="14.00" fill="#666666">[timestamp with time zone]</text>
<text text-anchor="start" x="1048.9284" y="-57.4" font-family="Arial" font-size="14.00" fill="#000000"> アーカイブ日時</text>
<polygon fill="none" stroke="#000000" stroke-width="3" points="798.5,-44.5 798.5,-543.5 1423.5,-543.5 1423.5,-44.5 798.5,-44.5"/>
</g>
<!-- public.songs_composers -->
<g id="node2" class="node">
<title>public.songs_composers</title>
<polygon fill="#efefef" stroke="transparent" points="43,-787 43,-833 387,-833 387,-787 43,-787"/>
<polygon fill="none" stroke="#000000" points="43,-787 43,-833 387,-833 387,-787 43,-787"/>
<text text-anchor="start" x="52.1944" y="-810.8" font-family="Arial Bold" font-size="18.00" fill="#000000">public.songs_composers</text>
<text text-anchor="start" x="250.2376" y="-810.8" font-family="Arial" font-size="14.00" fill="#000000">    </text>
<text text-anchor="start" x="284.4424" y="-810.8" font-family="Arial" font-size="14.00" fill="#666666">[BASE TABLE]</text>
<text text-anchor="start" x="167.9271" y="-796.4" font-family="Arial" font-size="14.00" fill="#333333">楽曲作曲者</text>
<polygon fill="none" stroke="#000000" points="43,-757 43,-787 387,-787 387,-757 43,-757"/>
<text text-anchor="start" x="49.6971" y="-768.4" font-family="Arial" font-size="14.00" fill="#000000">created_at    </text>
<text text-anchor="start" x="150.0393" y="-768.4" font-family="Arial" font-size="14.00" fill="#666666">[timestamp with time zone]</text>
<text text-anchor="start" x="315.7237" y="-768.4" font-family="Arial" font-size="14.00" fill="#000000"> 作成日時</text>
<polygon fill="none" stroke="#000000" points="43,-727 43,-757 387,-757 387,-727 43,-727"/>
<text text-anchor="start" x="50" y="-738.4" font-family="Arial" font-size="14.00" fill="#000000">updated_at    </text>
<text text-anchor="start" x="154.2468" y="-738.4" font-family="Arial" font-size="14.00" fill="#666666">[timestamp with time zone]</text>
<text text-anchor="start" x="319.9312" y="-738.4" font-family="Arial" font-size="14.00" fill="#000000"> 更新日時</text>
<polygon fill="none" stroke="#000000" points="43,-697 43,-727 387,-727 387,-697 43,-697"/>
<text text-anchor="start" x="50" y="-708.4" font-family="Arial" font-size="14.00" fill="#000000">song_id    </text>
<text text-anchor="start" x="133.2244" y="-708.4" font-family="Arial" font-size="14.00" fill="#666666">[text]</text>
<text text-anchor="start" x="163.5694" y="-708.4" font-family="Arial" font-size="14.00" fill="#000000"> 楽曲ID</text>
<polygon fill="none" stroke="#000000" points="43,-667 43,-697 387,-697 387,-667 43,-667"/>
<text text-anchor="start" x="50" y="-678.4" font-family="Arial" font-size="14.00" fill="#000000">artist_id    </text>
<text text-anchor="start" x="133.2076" y="-678.4" font-family="Arial" font-size="14.00" fill="#666666">[text]</text>
<text text-anchor="start" x="163.5526" y="-678.4" font-family="Arial" font-size="14.00" fill="#000000"> 作曲者ID(アーティストID)</text>
</g>
<!-- public.songs_composers&#45;&gt;public.artists -->
<g id="edge1" class="edge">
<title>public.songs_composers:artist_id&#45;&gt;public.artists:id</title>
<path fill="none" stroke="#000000" d="M397.1321,-680.6114C419.6287,-673.5797 413.8116,-641.5494 439,-624 580.5956,-525.3469 627.4262,-481 800,-481"/>
<polygon fill="#000000" stroke="#000000" points="396.9074,-680.6421 386.3889,-677.5417 391.9537,-681.321 387,-682 387,-682 387,-682 391.9537,-681.321 387.6111,-686.4583 396.9074,-680.6421 396.9074,-680.6421"/>
<text text-anchor="start" x="394.1165" y="-692" font-family="Arial" font-size="10.00" fill="#000000">FOREIGN KEY (artist_id) REFERENCES artists(id)</text>
</g>
<!-- public.songs_arrangers -->
<g id="node3" class="node">
<title>public.songs_arrangers</title>
<polygon fill="#efefef" stroke="transparent" points="491,-787 491,-833 835,-833 835,-787 491,-787"/>
<polygon fill="none" stroke="#000000" points="491,-787 491,-833 835,-833 835,-787 491,-787"/>
<text text-anchor="start" x="505.6952" y="-810.8" font-family="Arial Bold" font-size="18.00" fill="#000000">public.songs_arrangers</text>
<text text-anchor="start" x="692.7368" y="-810.8" font-family="Arial" font-size="14.00" fill="#000000">    </text>
<text text-anchor="start" x="726.9416" y="-810.8" font-family="Arial" font-size="14.00" fill="#666666">[BASE TABLE]</text>
<text text-anchor="start" x="618.5318" y="-796.4" font-family="Arial" font-size="14.00" fill="#333333">楽曲編曲者</text>
<polygon fill="none" stroke="#000000" points="491,-757 491,-787 835,-787 835,-757 491,-757"/>
<text text-anchor="start" x="497.6971" y="-768.4" font-family="Arial" font-size="14.00" fill="#000000">created_at    </text>
<text text-anchor="start" x="598.0393" y="-768.4" font-family="Arial" font-size="14.00" fill="#666666">[timestamp with time zone]</text>
<text text-anchor="start" x="763.7237" y="-768.4" font-family="Arial" font-size="14.00" fill="#000000"> 作成日時</text>
<polygon fill="none" stroke="#000000" points="491,-727 491,-757 835,-757 835,-727 491,-727"/>
<text text-anchor="start" x="498" y="-738.4" font-family="Arial" font-size="14.00" fill="#000000">updated_at    </text>
<text text-anchor="start" x="602.2468" y="-738.4" font-family="Arial" font-size="14.00" fill="#666666">[timestamp with time zone]</text>
<text text-anchor="start" x="767.9312" y="-738.4" font-family="Arial" font-size="14.00" fill="#000000"> 更新日時</text>
<polygon fill="none" stroke="#000000" points="491,-697 491,-727 835,-727 835,-697 491,-697"/>
<text text-anchor="start" x="498" y="-708.4" font-family="Arial" font-size="14.00" fill="#000000">song_id    </text>
<text text-anchor="start" x="581.2244" y="-708.4" font-family="Arial" font-size="14.00" fill="#666666">[text]</text>
<text text-anchor="start" x="611.5694" y="-708.4" font-family="Arial" font-size="14.00" fill="#000000"> 楽曲ID</text>
<polygon fill="none" stroke="#000000" points="491,-667 491,-697 835,-697 835,-667 491,-667"/>
<text text-anchor="start" x="498" y="-678.4" font-family="Arial" font-size="14.00" fill="#000000">artist_id    </text>
<text text-anchor="start" x="581.2076" y="-678.4" font-family="Arial" font-size="14.00" fill="#666666">[text]</text>
<text text-anchor="start" x="611.5526" y="-678.4" font-family="Arial" font-size="14.00" fill="#000000"> 編曲者ID(アーティストID)</text>
</g>
<!-- public.songs_arrangers&#45;&gt;public.artists -->
<g id="edge2" class="edge">
<title>public.songs_arrangers:artist_id&#45;&gt;public.artists:id</title>
<path fill="none" stroke="#000000" d="M844.827,-679.2017C855.4385,-670.575 843.0301,-643.7793 835,-624 826.6057,-603.3237 808.3943,-608.6763 800,-588 782.1111,-543.9373 752.4444,-481 800,-481"/>
<polygon fill="#000000" stroke="#000000" points="844.6177,-679.2613 833.7676,-677.672 839.8088,-680.6306 835,-682 835,-682 835,-682 839.8088,-680.6306 836.2324,-686.328 844.6177,-679.2613 844.6177,-679.2613"/>
<text text-anchor="start" x="842.1165" y="-692" font-family="Arial" font-size="10.00" fill="#000000">FOREIGN KEY (artist_id) REFERENCES artists(id)</text>
</g>
<!-- public.songs_rearrangers -->
<g id="node4" class="node">
<title>public.songs_rearrangers</title>
<polygon fill="#efefef" stroke="transparent" points="939,-787 939,-833 1283,-833 1283,-787 939,-787"/>
<polygon fill="none" stroke="#000000" points="939,-787 939,-833 1283,-833 1283,-787 939,-787"/>
<text text-anchor="start" x="945.696" y="-810.8" font-family="Arial Bold" font-size="18.00" fill="#000000">public.songs_rearrangers</text>
<text text-anchor="start" x="1148.736" y="-810.8" font-family="Arial" font-size="14.00" fill="#000000">    </text>
<text text-anchor="start" x="1182.9408" y="-810.8" font-family="Arial" font-size="14.00" fill="#666666">[BASE TABLE]</text>
<text text-anchor="start" x="1060.6959" y="-796.4" font-family="Arial" font-size="14.00" fill="#333333">楽曲再編曲者</text>
<polygon fill="none" stroke="#000000" points="939,-757 939,-787 1283,-787 1283,-757 939,-757"/>
<text text-anchor="start" x="945.6971" y="-768.4" font-family="Arial" font-size="14.00" fill="#000000">created_at    </text>
<text text-anchor="start" x="1046.0393" y="-768.4" font-family="Arial" font-size="14.00" fill="#666666">[timestamp with time zone]</text>
<text text-anchor="start" x="1211.7237" y="-768.4" font-family="Arial" font-size="14.00" fill="#000000"> 作成日時</text>
<polygon fill="none" stroke="#000000" points="939,-727 939,-757 1283,-757 1283,-727 939,-727"/>
<text text-anchor="start" x="946" y="-738.4" font-family="Arial" font-size="14.00" fill="#000000">updated_at    </text>
<text text-anchor="start" x="1050.2468" y="-738.4" font-family="Arial" font-size="14.00" fill="#666666">[timestamp with time zone]</text>
<text text-anchor="start" x="1215.9312" y="-738.4" font-family="Arial" font-size="14.00" fill="#000000"> 更新日時</text>
<polygon fill="none" stroke="#000000" points="939,-697 939,-727 1283,-727 1283,-697 939,-697"/>
<text text-anchor="start" x="946" y="-708.4" font-family="Arial" font-size="14.00" fill="#000000">song_id    </text>
<text text-anchor="start" x="1029.2244" y="-708.4" font-family="Arial" font-size="14.00" fill="#666666">[text]</text>
<text text-anchor="start" x="1059.5694" y="-708.4" font-family="Arial" font-size="14.00" fill="#000000"> 楽曲ID</text>
<polygon fill="none" stroke="#000000" points="939,-667 939,-697 1283,-697 1283,-667 939,-667"/>
<text text-anchor="start" x="946" y="-678.4" font-family="Arial" font-size="14.00" fill="#000000">artist_id    </text>
<text text-anchor="start" x="1029.2076" y="-678.4" font-family="Arial" font-size="14.00" fill="#666666">[text]</text>
<text text-anchor="start" x="1059.5526" y="-678.4" font-family="Arial" font-size="14.00" fill="#000000"> 再編曲者ID(アーティストID)</text>
</g>
<!-- public.songs_rearrangers&#45;&gt;public.artists -->
<g id="edge3" class="edge">
<title>public.songs_rearrangers:artist_id&#45;&gt;public.artists:id</title>
<path fill="none" stroke="#000000" d="M1113.003,-657.0351C1137.5637,-600.3587 1380.4467,-641.4283 1422,-588 1451.1954,-550.4612 1469.5556,-481 1422,-481"/>
<polygon fill="#000000" stroke="#000000" points="1112.9708,-657.1961 1106.5882,-666.1132 1111.9854,-662.0981 1111,-667 1111,-667 1111,-667 1111.9854,-662.0981 1115.4118,-667.8868 1112.9708,-657.1961 1112.9708,-657.1961"/>
<text text-anchor="start" x="1057.8665" y="-651" font-family="Arial" font-size="10.00" fill="#000000">FOREIGN KEY (artist_id) REFERENCES artists(id)</text>
</g>
<!-- public.songs_lyricists -->
<g id="node5" class="node">
<title>public.songs_lyricists</title>
<polygon fill="#efefef" stroke="transparent" points="1387,-787 1387,-833 1731,-833 1731,-787 1387,-787"/>
<polygon fill="none" stroke="#000000" points="1387,-787 1387,-833 1731,-833 1731,-787 1387,-787"/>
<text text-anchor="start" x="1410.7105" y="-810.8" font-family="Arial Bold" font-size="18.00" fill="#000000">public.songs_lyricists</text>
<text text-anchor="start" x="1579.7215" y="-810.8" font-family="Arial" font-size="14.00" fill="#000000">    </text>
<text text-anchor="start" x="1613.9263" y="-810.8" font-family="Arial" font-size="14.00" fill="#666666">[BASE TABLE]</text>
<text text-anchor="start" x="1512.5361" y="-796.4" font-family="Arial" font-size="14.00" fill="#333333">楽曲作詞者</text>
<polygon fill="none" stroke="#000000" points="1387,-757 1387,-787 1731,-787 1731,-757 1387,-757"/>
<text text-anchor="start" x="1393.6971" y="-768.4" font-family="Arial" font-size="14.00" fill="#000000">created_at    </text>
<text text-anchor="start" x="1494.0393" y="-768.4" font-family="Arial" font-size="14.00" fill="#666666">[timestamp with time zone]</text>
<text text-anchor="start" x="1659.7237" y="-768.4" font-family="Arial" font-size="14.00" fill="#000000"> 作成日時</text>
<polygon fill="none" stroke="#000000" points="1387,-727 1387,-757 1731,-757 1731,-727 1387,-727"/>
<text text-anchor="start" x="1394" y="-738.4" font-family="Arial" font-size="14.00" fill="#000000">updated_at    </text>
<text text-anchor="start" x="1498.2468" y="-738.4" font-family="Arial" font-size="14.00" fill="#666666">[timestamp with time zone]</text>
<text text-anchor="start" x="1663.9312" y="-738.4" font-family="Arial" font-size="14.00" fill="#000000"> 更新日時</text>
<polygon fill="none" stroke="#000000" points="1387,-697 1387,-727 1731,-727 1731,-697 1387,-697"/>
<text text-anchor="start" x="1394" y="-708.4" font-family="Arial" font-size="14.00" fill="#000000">song_id    </text>
<text text-anchor="start" x="1477.2244" y="-708.4" font-family="Arial" font-size="14.00" fill="#666666">[text]</text>
<text text-anchor="start" x="1507.5694" y="-708.4" font-family="Arial" font-size="14.00" fill="#000000"> 楽曲ID</text>
<polygon fill="none" stroke="#000000" points="1387,-667 1387,-697 1731,-697 1731,-667 1387,-667"/>
<text text-anchor="start" x="1394" y="-678.4" font-family="Arial" font-size="14.00" fill="#000000">artist_id    </text>
<text text-anchor="start" x="1477.2076" y="-678.4" font-family="Arial" font-size="14.00" fill="#666666">[text]</text>
<text text-anchor="start" x="1507.5526" y="-678.4" font-family="Arial" font-size="14.00" fill="#000000"> 作詞者ID(アーティストID)</text>
</g>
<!-- public.songs_lyricists&#45;&gt;public.artists -->
<g id="edge4" class="edge">
<title>public.songs_lyricists:artist_id&#45;&gt;public.artists:id</title>
<path fill="none" stroke="#000000" d="M1377.173,-679.2017C1366.5615,-670.575 1378.9699,-643.7793 1387,-624 1395.3943,-603.3237 1413.6057,-608.6763 1422,-588 1439.8889,-543.9373 1469.5556,-481 1422,-481"/>
<polygon fill="#000000" stroke="#000000" points="1377.3823,-679.2613 1385.7676,-686.328 1382.1912,-680.6306 1387,-682 1387,-682 1387,-682 1382.1912,-680.6306 1388.2324,-677.672 1377.3823,-679.2613 1377.3823,-679.2613"/>
<text text-anchor="start" x="1333.8665" y="-666" font-family="Arial" font-size="10.00" fill="#000000">FOREIGN KEY (artist_id) REFERENCES artists(id)</text>
</g>
<!-- public.songs_vocalists -->
<g id="node6" class="node">
<title>public.songs_vocalists</title>
<polygon fill="#efefef" stroke="transparent" points="1835,-787 1835,-833 2193,-833 2193,-787 1835,-787"/>
<polygon fill="none" stroke="#000000" points="1835,-787 1835,-833 2193,-833 2193,-787 1835,-787"/>
<text text-anchor="start" x="1860.6975" y="-810.8" font-family="Arial Bold" font-size="18.00" fill="#000000">public.songs_vocalists</text>
<text text-anchor="start" x="2039.7345" y="-810.8" font-family="Arial" font-size="14.00" fill="#000000">    </text>
<text text-anchor="start" x="2073.9393" y="-810.8" font-family="Arial" font-size="14.00" fill="#666666">[BASE TABLE]</text>
<text text-anchor="start" x="1946.7314" y="-796.4" font-family="Arial" font-size="14.00" fill="#333333">楽曲ボーカリスト</text>
<polygon fill="none" stroke="#000000" points="1835,-757 1835,-787 2193,-787 2193,-757 1835,-757"/>
<text text-anchor="start" x="1842" y="-768.4" font-family="Arial" font-size="14.00" fill="#000000">created_at    </text>
<text text-anchor="start" x="1942.3422" y="-768.4" font-family="Arial" font-size="14.00" fill="#666666">[timestamp with time zone]</text>
<text text-anchor="start" x="2108.0266" y="-768.4" font-family="Arial" font-size="14.00" fill="#000000"> 作成日時</text>
<polygon fill="none" stroke="#000000" points="1835,-727 1835,-757 2193,-757 2193,-727 1835,-727"/>
<text text-anchor="start" x="1842" y="-738.4" font-family="Arial" font-size="14.00" fill="#000000">updated_at    </text>
<text text-anchor="start" x="1946.2468" y="-738.4" font-family="Arial" font-size="14.00" fill="#666666">[timestamp with time zone]</text>
<text text-anchor="start" x="2111.9312" y="-738.4" font-family="Arial" font-size="14.00" fill="#000000"> 更新日時</text>
<polygon fill="none" stroke="#000000" points="1835,-697 1835,-727 2193,-727 2193,-697 1835,-697"/>
<text text-anchor="start" x="1842" y="-708.4" font-family="Arial" font-size="14.00" fill="#000000">song_id    </text>
<text text-anchor="start" x="1925.2244" y="-708.4" font-family="Arial" font-size="14.00" fill="#666666">[text]</text>
<text text-anchor="start" x="1955.5694" y="-708.4" font-family="Arial" font-size="14.00" fill="#000000"> 楽曲ID</text>
<polygon fill="none" stroke="#000000" points="1835,-667 1835,-697 2193,-697 2193,-667 1835,-667"/>
<text text-anchor="start" x="1841.7594" y="-678.4" font-family="Arial" font-size="14.00" fill="#000000">artist_id    </text>
<text text-anchor="start" x="1924.967" y="-678.4" font-family="Arial" font-size="14.00" fill="#666666">[text]</text>
<text text-anchor="start" x="1955.312" y="-678.4" font-family="Arial" font-size="14.00" fill="#000000"> ボーカリストID(アーティストID)</text>
</g>
<!-- public.songs_vocalists&#45;&gt;public.artists -->
<g id="edge5" class="edge">
<title>public.songs_vocalists:artist_id&#45;&gt;public.artists:id</title>
<path fill="none" stroke="#000000" d="M1824.8679,-680.6114C1802.3713,-673.5797 1808.1884,-641.5494 1783,-624 1641.4044,-525.3469 1594.5738,-481 1422,-481"/>
<polygon fill="#000000" stroke="#000000" points="1825.0926,-680.6421 1834.3889,-686.4583 1830.0463,-681.321 1835,-682 1835,-682 1835,-682 1830.0463,-681.321 1835.6111,-677.5417 1825.0926,-680.6421 1825.0926,-680.6421"/>
<text text-anchor="start" x="1781.8665" y="-666" font-family="Arial" font-size="10.00" fill="#000000">FOREIGN KEY (artist_id) REFERENCES artists(id)</text>
</g>
</g>
</svg>
