<?xml version="1.0" encoding="UTF-8" standalone="no"?>
<!DOCTYPE svg PUBLIC "-//W3C//DTD SVG 1.1//EN"
 "http://www.w3.org/Graphics/SVG/1.1/DTD/svg11.dtd">
<!-- Generated by graphviz version 2.40.1 (20161225.0304)
 -->
<!-- Title: public.album_distribution_service_urls Pages: 1 -->
<svg width="752pt" height="1034pt"
 viewBox="0.00 0.00 751.50 1034.00" xmlns="http://www.w3.org/2000/svg" xmlns:xlink="http://www.w3.org/1999/xlink">
<g id="graph0" class="graph" transform="scale(1 1) rotate(0) translate(4 1030)">
<title>public.album_distribution_service_urls</title>
<polygon fill="#ffffff" stroke="transparent" points="-4,4 -4,-1030 747.5,-1030 747.5,4 -4,4"/>
<!-- public.album_distribution_service_urls -->
<g id="node1" class="node">
<title>public.album_distribution_service_urls</title>
<polygon fill="#efefef" stroke="transparent" points="46.5,-934 46.5,-980 491.5,-980 491.5,-934 46.5,-934"/>
<polygon fill="none" stroke="#000000" points="46.5,-934 46.5,-980 491.5,-980 491.5,-934 46.5,-934"/>
<text text-anchor="start" x="53.1988" y="-957.8" font-family="Arial Bold" font-size="18.00" fill="#000000">public.album_distribution_service_urls</text>
<text text-anchor="start" x="357.2332" y="-957.8" font-family="Arial" font-size="14.00" fill="#000000">    </text>
<text text-anchor="start" x="391.438" y="-957.8" font-family="Arial" font-size="14.00" fill="#666666">[BASE TABLE]</text>
<text text-anchor="start" x="175.9434" y="-943.4" font-family="Arial" font-size="14.00" fill="#333333">アルバム配信サービスURL</text>
<polygon fill="none" stroke="#000000" points="46.5,-904 46.5,-934 491.5,-934 491.5,-904 46.5,-904"/>
<text text-anchor="start" x="53.5" y="-915.4" font-family="Arial" font-size="14.00" fill="#000000">id </text>
<text text-anchor="start" x="68.2798" y="-915.4" font-family="Arial" font-size="14.00" fill="#666666">[text]</text>
<polygon fill="none" stroke="#000000" points="46.5,-874 46.5,-904 491.5,-904 491.5,-874 46.5,-874"/>
<text text-anchor="start" x="53.5" y="-885.4" font-family="Arial" font-size="14.00" fill="#000000">album_id </text>
<text text-anchor="start" x="114.1774" y="-885.4" font-family="Arial" font-size="14.00" fill="#666666">[text]</text>
<text text-anchor="start" x="144.5224" y="-885.4" font-family="Arial" font-size="14.00" fill="#000000"> アルバムID</text>
<polygon fill="none" stroke="#000000" points="46.5,-844 46.5,-874 491.5,-874 491.5,-844 46.5,-844"/>
<text text-anchor="start" x="53.5" y="-855.4" font-family="Arial" font-size="14.00" fill="#000000">service </text>
<text text-anchor="start" x="101.723" y="-855.4" font-family="Arial" font-size="14.00" fill="#666666">[distribution_service]</text>
<text text-anchor="start" x="229.2938" y="-855.4" font-family="Arial" font-size="14.00" fill="#000000"> 配信サービス</text>
<polygon fill="none" stroke="#000000" points="46.5,-814 46.5,-844 491.5,-844 491.5,-814 46.5,-814"/>
<text text-anchor="start" x="53.5" y="-825.4" font-family="Arial" font-size="14.00" fill="#000000">url </text>
<text text-anchor="start" x="72.9404" y="-825.4" font-family="Arial" font-size="14.00" fill="#666666">[text]</text>
<text text-anchor="start" x="103.2854" y="-825.4" font-family="Arial" font-size="14.00" fill="#000000"> URL</text>
<polygon fill="none" stroke="#000000" points="46.5,-784 46.5,-814 491.5,-814 491.5,-784 46.5,-784"/>
<text text-anchor="start" x="53.5" y="-795.4" font-family="Arial" font-size="14.00" fill="#000000">created_at </text>
<text text-anchor="start" x="123.528" y="-795.4" font-family="Arial" font-size="14.00" fill="#666666">[timestamp with time zone]</text>
<text text-anchor="start" x="289.2124" y="-795.4" font-family="Arial" font-size="14.00" fill="#000000"> 作成日時</text>
<polygon fill="none" stroke="#000000" points="46.5,-754 46.5,-784 491.5,-784 491.5,-754 46.5,-754"/>
<text text-anchor="start" x="53.5" y="-765.4" font-family="Arial" font-size="14.00" fill="#000000">updated_at </text>
<text text-anchor="start" x="127.4326" y="-765.4" font-family="Arial" font-size="14.00" fill="#666666">[timestamp with time zone]</text>
<text text-anchor="start" x="293.117" y="-765.4" font-family="Arial" font-size="14.00" fill="#000000"> 更新日時</text>
<polygon fill="none" stroke="#000000" stroke-width="3" points="44.5,-752.5 44.5,-981.5 492.5,-981.5 492.5,-752.5 44.5,-752.5"/>
</g>
<!-- public.albums -->
<g id="node2" class="node">
<title>public.albums</title>
<polygon fill="#efefef" stroke="transparent" points="70.5,-583 70.5,-629 468.5,-629 468.5,-583 70.5,-583"/>
<polygon fill="none" stroke="#000000" points="70.5,-583 70.5,-629 468.5,-629 468.5,-583 70.5,-583"/>
<text text-anchor="start" x="150.7089" y="-606.8" font-family="Arial Bold" font-size="18.00" fill="#000000">public.albums</text>
<text text-anchor="start" x="260.7231" y="-606.8" font-family="Arial" font-size="14.00" fill="#000000">    </text>
<text text-anchor="start" x="294.9279" y="-606.8" font-family="Arial" font-size="14.00" fill="#666666">[BASE TABLE]</text>
<text text-anchor="start" x="239.6884" y="-592.4" font-family="Arial" font-size="14.00" fill="#333333">アルバム</text>
<polygon fill="none" stroke="#000000" points="70.5,-553 70.5,-583 468.5,-583 468.5,-553 70.5,-553"/>
<text text-anchor="start" x="77.5" y="-564.4" font-family="Arial" font-size="14.00" fill="#000000">id    </text>
<text text-anchor="start" x="122.594" y="-564.4" font-family="Arial" font-size="14.00" fill="#666666">[text]</text>
<polygon fill="none" stroke="#000000" points="70.5,-523 70.5,-553 468.5,-553 468.5,-523 70.5,-523"/>
<text text-anchor="start" x="77.5" y="-534.4" font-family="Arial" font-size="14.00" fill="#000000">name    </text>
<text text-anchor="start" x="146.7132" y="-534.4" font-family="Arial" font-size="14.00" fill="#666666">[text]</text>
<text text-anchor="start" x="177.0582" y="-534.4" font-family="Arial" font-size="14.00" fill="#000000"> 名前</text>
<polygon fill="none" stroke="#000000" points="70.5,-493 70.5,-523 468.5,-523 468.5,-493 70.5,-493"/>
<text text-anchor="start" x="77.5" y="-504.4" font-family="Arial" font-size="14.00" fill="#000000">name_reading    </text>
<text text-anchor="start" x="201.176" y="-504.4" font-family="Arial" font-size="14.00" fill="#666666">[text]</text>
<text text-anchor="start" x="231.521" y="-504.4" font-family="Arial" font-size="14.00" fill="#000000"> 名前読み方</text>
<polygon fill="none" stroke="#000000" points="70.5,-463 70.5,-493 468.5,-493 468.5,-463 70.5,-463"/>
<text text-anchor="start" x="77.5" y="-474.4" font-family="Arial" font-size="14.00" fill="#000000">slug    </text>
<text text-anchor="start" x="137.3766" y="-474.4" font-family="Arial" font-size="14.00" fill="#666666">[text]</text>
<text text-anchor="start" x="167.7216" y="-474.4" font-family="Arial" font-size="14.00" fill="#000000"> スラッグ</text>
<polygon fill="none" stroke="#000000" points="70.5,-433 70.5,-463 468.5,-463 468.5,-433 70.5,-433"/>
<text text-anchor="start" x="77.5" y="-444.4" font-family="Arial" font-size="14.00" fill="#000000">release_circle_name    </text>
<text text-anchor="start" x="240.8324" y="-444.4" font-family="Arial" font-size="14.00" fill="#666666">[text]</text>
<text text-anchor="start" x="271.1774" y="-444.4" font-family="Arial" font-size="14.00" fill="#000000"> 頒布サークル名</text>
<polygon fill="none" stroke="#000000" points="70.5,-403 70.5,-433 468.5,-433 468.5,-403 70.5,-403"/>
<text text-anchor="start" x="77.5" y="-414.4" font-family="Arial" font-size="14.00" fill="#000000">release_date    </text>
<text text-anchor="start" x="192.6234" y="-414.4" font-family="Arial" font-size="14.00" fill="#666666">[date]</text>
<text text-anchor="start" x="227.643" y="-414.4" font-family="Arial" font-size="14.00" fill="#000000"> 頒布日</text>
<polygon fill="none" stroke="#000000" points="70.5,-373 70.5,-403 468.5,-403 468.5,-373 70.5,-373"/>
<text text-anchor="start" x="77.5" y="-384.4" font-family="Arial" font-size="14.00" fill="#000000">event_id    </text>
<text text-anchor="start" x="164.615" y="-384.4" font-family="Arial" font-size="14.00" fill="#666666">[text]</text>
<text text-anchor="start" x="194.96" y="-384.4" font-family="Arial" font-size="14.00" fill="#000000"> イベントID</text>
<polygon fill="none" stroke="#000000" points="70.5,-343 70.5,-373 468.5,-373 468.5,-343 70.5,-343"/>
<text text-anchor="start" x="77.5" y="-354.4" font-family="Arial" font-size="14.00" fill="#000000">sub_event_id    </text>
<text text-anchor="start" x="194.9628" y="-354.4" font-family="Arial" font-size="14.00" fill="#666666">[text]</text>
<text text-anchor="start" x="225.3078" y="-354.4" font-family="Arial" font-size="14.00" fill="#000000"> サブイベントID</text>
<polygon fill="none" stroke="#000000" points="70.5,-313 70.5,-343 468.5,-343 468.5,-313 70.5,-313"/>
<text text-anchor="start" x="77.5" y="-324.4" font-family="Arial" font-size="14.00" fill="#000000">album_number    </text>
<text text-anchor="start" x="205.054" y="-324.4" font-family="Arial" font-size="14.00" fill="#666666">[text]</text>
<polygon fill="none" stroke="#000000" points="70.5,-283 70.5,-313 468.5,-313 468.5,-283 70.5,-283"/>
<text text-anchor="start" x="77.5" y="-294.4" font-family="Arial" font-size="14.00" fill="#000000">event_price    </text>
<text text-anchor="start" x="184.0582" y="-294.4" font-family="Arial" font-size="14.00" fill="#666666">[numeric]</text>
<text text-anchor="start" x="241.615" y="-294.4" font-family="Arial" font-size="14.00" fill="#000000"> イベント価格</text>
<polygon fill="none" stroke="#000000" points="70.5,-253 70.5,-283 468.5,-283 468.5,-253 70.5,-253"/>
<text text-anchor="start" x="77.5" y="-264.4" font-family="Arial" font-size="14.00" fill="#000000">currency    </text>
<text text-anchor="start" x="165.3738" y="-264.4" font-family="Arial" font-size="14.00" fill="#666666">[text]</text>
<text text-anchor="start" x="195.7188" y="-264.4" font-family="Arial" font-size="14.00" fill="#000000"> 通貨(default: JPY)</text>
<polygon fill="none" stroke="#000000" points="70.5,-223 70.5,-253 468.5,-253 468.5,-223 70.5,-223"/>
<text text-anchor="start" x="77.5" y="-234.4" font-family="Arial" font-size="14.00" fill="#000000">credit    </text>
<text text-anchor="start" x="145.9278" y="-234.4" font-family="Arial" font-size="14.00" fill="#666666">[text]</text>
<text text-anchor="start" x="176.2728" y="-234.4" font-family="Arial" font-size="14.00" fill="#000000"> クレジット</text>
<polygon fill="none" stroke="#000000" points="70.5,-193 70.5,-223 468.5,-223 468.5,-193 70.5,-193"/>
<text text-anchor="start" x="77.5" y="-204.4" font-family="Arial" font-size="14.00" fill="#000000">introduction    </text>
<text text-anchor="start" x="184.0554" y="-204.4" font-family="Arial" font-size="14.00" fill="#666666">[text]</text>
<text text-anchor="start" x="214.4004" y="-204.4" font-family="Arial" font-size="14.00" fill="#000000"> 紹介</text>
<polygon fill="none" stroke="#000000" points="70.5,-163 70.5,-193 468.5,-193 468.5,-163 70.5,-163"/>
<text text-anchor="start" x="77.5" y="-174.4" font-family="Arial" font-size="14.00" fill="#000000">url    </text>
<text text-anchor="start" x="127.2546" y="-174.4" font-family="Arial" font-size="14.00" fill="#666666">[text]</text>
<text text-anchor="start" x="157.5996" y="-174.4" font-family="Arial" font-size="14.00" fill="#000000"> URL</text>
<polygon fill="none" stroke="#000000" points="70.5,-133 70.5,-163 468.5,-163 468.5,-133 70.5,-133"/>
<text text-anchor="start" x="77.5" y="-144.4" font-family="Arial" font-size="14.00" fill="#000000">published_at    </text>
<text text-anchor="start" x="191.0694" y="-144.4" font-family="Arial" font-size="14.00" fill="#666666">[timestamp with time zone]</text>
<text text-anchor="start" x="356.7538" y="-144.4" font-family="Arial" font-size="14.00" fill="#000000"> 公開日時</text>
<polygon fill="none" stroke="#000000" points="70.5,-103 70.5,-133 468.5,-133 468.5,-103 70.5,-103"/>
<text text-anchor="start" x="77.2464" y="-114.4" font-family="Arial" font-size="14.00" fill="#000000">archived_at    </text>
<text text-anchor="start" x="183.8046" y="-114.4" font-family="Arial" font-size="14.00" fill="#666666">[timestamp with time zone]</text>
<text text-anchor="start" x="349.489" y="-114.4" font-family="Arial" font-size="14.00" fill="#000000"> アーカイブ日時</text>
<polygon fill="none" stroke="#000000" points="70.5,-73 70.5,-103 468.5,-103 468.5,-73 70.5,-73"/>
<text text-anchor="start" x="77.5" y="-84.4" font-family="Arial" font-size="14.00" fill="#000000">created_at    </text>
<text text-anchor="start" x="177.8422" y="-84.4" font-family="Arial" font-size="14.00" fill="#666666">[timestamp with time zone]</text>
<text text-anchor="start" x="343.5266" y="-84.4" font-family="Arial" font-size="14.00" fill="#000000"> 作成日時</text>
<polygon fill="none" stroke="#000000" points="70.5,-43 70.5,-73 468.5,-73 468.5,-43 70.5,-43"/>
<text text-anchor="start" x="77.5" y="-54.4" font-family="Arial" font-size="14.00" fill="#000000">updated_at    </text>
<text text-anchor="start" x="181.7468" y="-54.4" font-family="Arial" font-size="14.00" fill="#666666">[timestamp with time zone]</text>
<text text-anchor="start" x="347.4312" y="-54.4" font-family="Arial" font-size="14.00" fill="#000000"> 更新日時</text>
</g>
<!-- public.album_distribution_service_urls&#45;&gt;public.albums -->
<g id="edge1" class="edge">
<title>public.album_distribution_service_urls:album_id&#45;&gt;public.albums:id</title>
<path fill="none" stroke="#000000" d="M501.7036,-888.2797C569.5478,-878.1882 543.4617,-764.5946 491.5,-708 427.9962,-638.8342 134.0038,-741.1658 70.5,-672 39.2393,-637.9521 24.2778,-568 70.5,-568"/>
<polygon fill="#000000" stroke="#000000" points="501.4752,-888.2957 491.1831,-884.5112 496.4876,-888.6479 491.5,-889 491.5,-889 491.5,-889 496.4876,-888.6479 491.8169,-893.4888 501.4752,-888.2957 501.4752,-888.2957"/>
<text text-anchor="start" x="498.0565" y="-899" font-family="Arial" font-size="10.00" fill="#000000">FOREIGN KEY (album_id) REFERENCES albums(id)</text>
</g>
</g>
</svg>
