<?xml version="1.0" encoding="UTF-8" standalone="no"?>
<!DOCTYPE svg PUBLIC "-//W3C//DTD SVG 1.1//EN"
 "http://www.w3.org/Graphics/SVG/1.1/DTD/svg11.dtd">
<!-- Generated by graphviz version 2.40.1 (20161225.0304)
 -->
<!-- Title: public.songs_arrange_circles Pages: 1 -->
<svg width="1460pt" height="974pt"
 viewBox="0.00 0.00 1460.00 974.00" xmlns="http://www.w3.org/2000/svg" xmlns:xlink="http://www.w3.org/1999/xlink">
<g id="graph0" class="graph" transform="scale(1 1) rotate(0) translate(4 970)">
<title>public.songs_arrange_circles</title>
<polygon fill="#ffffff" stroke="transparent" points="-4,4 -4,-970 1456,-970 1456,4 -4,4"/>
<!-- public.songs_arrange_circles -->
<g id="node1" class="node">
<title>public.songs_arrange_circles</title>
<polygon fill="#efefef" stroke="transparent" points="528.5,-874 528.5,-920 902.5,-920 902.5,-874 528.5,-874"/>
<polygon fill="none" stroke="#000000" points="528.5,-874 528.5,-920 902.5,-920 902.5,-874 528.5,-874"/>
<text text-anchor="start" x="535.1948" y="-897.8" font-family="Arial Bold" font-size="18.00" fill="#000000">public.songs_arrange_circles</text>
<text text-anchor="start" x="768.2372" y="-897.8" font-family="Arial" font-size="14.00" fill="#000000">    </text>
<text text-anchor="start" x="802.442" y="-897.8" font-family="Arial" font-size="14.00" fill="#666666">[BASE TABLE]</text>
<text text-anchor="start" x="644.3387" y="-883.4" font-family="Arial" font-size="14.00" fill="#333333">楽曲編曲サークル</text>
<polygon fill="none" stroke="#000000" points="528.5,-844 528.5,-874 902.5,-874 902.5,-844 528.5,-844"/>
<text text-anchor="start" x="535.5" y="-855.4" font-family="Arial" font-size="14.00" fill="#000000">song_id </text>
<text text-anchor="start" x="588.4102" y="-855.4" font-family="Arial" font-size="14.00" fill="#666666">[text]</text>
<text text-anchor="start" x="618.7552" y="-855.4" font-family="Arial" font-size="14.00" fill="#000000"> 楽曲ID</text>
<polygon fill="none" stroke="#000000" points="528.5,-814 528.5,-844 902.5,-844 902.5,-814 528.5,-814"/>
<text text-anchor="start" x="535.5" y="-825.4" font-family="Arial" font-size="14.00" fill="#000000">circle_id </text>
<text text-anchor="start" x="590.7188" y="-825.4" font-family="Arial" font-size="14.00" fill="#666666">[text]</text>
<text text-anchor="start" x="621.0638" y="-825.4" font-family="Arial" font-size="14.00" fill="#000000"> サークルID</text>
<polygon fill="none" stroke="#000000" points="528.5,-784 528.5,-814 902.5,-814 902.5,-784 528.5,-784"/>
<text text-anchor="start" x="535.5" y="-795.4" font-family="Arial" font-size="14.00" fill="#000000">created_at </text>
<text text-anchor="start" x="605.528" y="-795.4" font-family="Arial" font-size="14.00" fill="#666666">[timestamp with time zone]</text>
<text text-anchor="start" x="771.2124" y="-795.4" font-family="Arial" font-size="14.00" fill="#000000"> 作成日時</text>
<polygon fill="none" stroke="#000000" points="528.5,-754 528.5,-784 902.5,-784 902.5,-754 528.5,-754"/>
<text text-anchor="start" x="535.5" y="-765.4" font-family="Arial" font-size="14.00" fill="#000000">updated_at </text>
<text text-anchor="start" x="609.4326" y="-765.4" font-family="Arial" font-size="14.00" fill="#666666">[timestamp with time zone]</text>
<text text-anchor="start" x="775.117" y="-765.4" font-family="Arial" font-size="14.00" fill="#000000"> 更新日時</text>
<polygon fill="none" stroke="#000000" stroke-width="3" points="527,-752.5 527,-921.5 904,-921.5 904,-752.5 527,-752.5"/>
</g>
<!-- public.songs -->
<g id="node2" class="node">
<title>public.songs</title>
<polygon fill="#efefef" stroke="transparent" points="43.5,-583 43.5,-629 652.5,-629 652.5,-583 43.5,-583"/>
<polygon fill="none" stroke="#000000" points="43.5,-583 43.5,-629 652.5,-629 652.5,-583 43.5,-583"/>
<text text-anchor="start" x="234.2021" y="-606.8" font-family="Arial Bold" font-size="18.00" fill="#000000">public.songs</text>
<text text-anchor="start" x="334.2299" y="-606.8" font-family="Arial" font-size="14.00" fill="#000000">    </text>
<text text-anchor="start" x="368.4347" y="-606.8" font-family="Arial" font-size="14.00" fill="#666666">[BASE TABLE]</text>
<text text-anchor="start" x="327.3815" y="-592.4" font-family="Arial" font-size="14.00" fill="#333333">楽曲</text>
<polygon fill="none" stroke="#000000" points="43.5,-553 43.5,-583 652.5,-583 652.5,-553 43.5,-553"/>
<text text-anchor="start" x="50.5" y="-564.4" font-family="Arial" font-size="14.00" fill="#000000">id    </text>
<text text-anchor="start" x="95.594" y="-564.4" font-family="Arial" font-size="14.00" fill="#666666">[text]</text>
<polygon fill="none" stroke="#000000" points="43.5,-523 43.5,-553 652.5,-553 652.5,-523 43.5,-523"/>
<text text-anchor="start" x="50.5" y="-534.4" font-family="Arial" font-size="14.00" fill="#000000">album_id    </text>
<text text-anchor="start" x="141.4916" y="-534.4" font-family="Arial" font-size="14.00" fill="#666666">[text]</text>
<text text-anchor="start" x="171.8366" y="-534.4" font-family="Arial" font-size="14.00" fill="#000000"> アルバムID</text>
<polygon fill="none" stroke="#000000" points="43.5,-493 43.5,-523 652.5,-523 652.5,-493 43.5,-493"/>
<text text-anchor="start" x="50.5" y="-504.4" font-family="Arial" font-size="14.00" fill="#000000">name    </text>
<text text-anchor="start" x="119.7132" y="-504.4" font-family="Arial" font-size="14.00" fill="#666666">[text]</text>
<text text-anchor="start" x="150.0582" y="-504.4" font-family="Arial" font-size="14.00" fill="#000000"> 名前</text>
<polygon fill="none" stroke="#000000" points="43.5,-463 43.5,-493 652.5,-493 652.5,-463 43.5,-463"/>
<text text-anchor="start" x="50.5" y="-474.4" font-family="Arial" font-size="14.00" fill="#000000">name_reading    </text>
<text text-anchor="start" x="174.176" y="-474.4" font-family="Arial" font-size="14.00" fill="#666666">[text]</text>
<text text-anchor="start" x="204.521" y="-474.4" font-family="Arial" font-size="14.00" fill="#000000"> 名前読み方</text>
<polygon fill="none" stroke="#000000" points="43.5,-433 43.5,-463 652.5,-463 652.5,-433 43.5,-433"/>
<text text-anchor="start" x="50.5" y="-444.4" font-family="Arial" font-size="14.00" fill="#000000">disc_number    </text>
<text text-anchor="start" x="164.8282" y="-444.4" font-family="Arial" font-size="14.00" fill="#666666">[integer]</text>
<text text-anchor="start" x="215.3976" y="-444.4" font-family="Arial" font-size="14.00" fill="#000000"> ディスク番号(default: 1)</text>
<polygon fill="none" stroke="#000000" points="43.5,-403 43.5,-433 652.5,-433 652.5,-403 43.5,-403"/>
<text text-anchor="start" x="50.5" y="-414.4" font-family="Arial" font-size="14.00" fill="#000000">track_number    </text>
<text text-anchor="start" x="170.2728" y="-414.4" font-family="Arial" font-size="14.00" fill="#666666">[integer]</text>
<text text-anchor="start" x="220.8422" y="-414.4" font-family="Arial" font-size="14.00" fill="#000000"> トラック番号</text>
<polygon fill="none" stroke="#000000" points="43.5,-373 43.5,-403 652.5,-403 652.5,-373 43.5,-373"/>
<text text-anchor="start" x="50.5" y="-384.4" font-family="Arial" font-size="14.00" fill="#000000">release_date    </text>
<text text-anchor="start" x="165.6234" y="-384.4" font-family="Arial" font-size="14.00" fill="#666666">[date]</text>
<text text-anchor="start" x="200.643" y="-384.4" font-family="Arial" font-size="14.00" fill="#000000"> 頒布日(アルバムの頒布日と異なる場合に使用する)</text>
<polygon fill="none" stroke="#000000" points="43.5,-343 43.5,-373 652.5,-373 652.5,-343 43.5,-343"/>
<text text-anchor="start" x="50.5" y="-354.4" font-family="Arial" font-size="14.00" fill="#000000">search_enabled    </text>
<text text-anchor="start" x="184.298" y="-354.4" font-family="Arial" font-size="14.00" fill="#666666">[boolean]</text>
<text text-anchor="start" x="241.8814" y="-354.4" font-family="Arial" font-size="14.00" fill="#000000"> 検索対象とするか(default: true)</text>
<polygon fill="none" stroke="#000000" points="43.5,-313 43.5,-343 652.5,-343 652.5,-313 43.5,-313"/>
<text text-anchor="start" x="50.5" y="-324.4" font-family="Arial" font-size="14.00" fill="#000000">length    </text>
<text text-anchor="start" x="122.8324" y="-324.4" font-family="Arial" font-size="14.00" fill="#666666">[integer]</text>
<text text-anchor="start" x="173.4018" y="-324.4" font-family="Arial" font-size="14.00" fill="#000000"> 曲の長さ(秒)</text>
<polygon fill="none" stroke="#000000" points="43.5,-283 43.5,-313 652.5,-313 652.5,-283 43.5,-283"/>
<text text-anchor="start" x="50.5" y="-294.4" font-family="Arial" font-size="14.00" fill="#000000">bpm    </text>
<text text-anchor="start" x="111.9306" y="-294.4" font-family="Arial" font-size="14.00" fill="#666666">[integer]</text>
<text text-anchor="start" x="162.5" y="-294.4" font-family="Arial" font-size="14.00" fill="#000000"> BPM</text>
<polygon fill="none" stroke="#000000" points="43.5,-253 43.5,-283 652.5,-283 652.5,-253 43.5,-253"/>
<text text-anchor="start" x="50.5" y="-264.4" font-family="Arial" font-size="14.00" fill="#000000">display_composer    </text>
<text text-anchor="start" x="197.5" y="-264.4" font-family="Arial" font-size="14.00" fill="#666666">[text]</text>
<text text-anchor="start" x="227.845" y="-264.4" font-family="Arial" font-size="14.00" fill="#000000"> 作曲者表示用(1度しか使用しない別名義などで使用する)</text>
<polygon fill="none" stroke="#000000" points="43.5,-223 43.5,-253 652.5,-253 652.5,-223 43.5,-223"/>
<text text-anchor="start" x="50.5" y="-234.4" font-family="Arial" font-size="14.00" fill="#000000">display_arranger    </text>
<text text-anchor="start" x="188.9432" y="-234.4" font-family="Arial" font-size="14.00" fill="#666666">[text]</text>
<text text-anchor="start" x="219.2882" y="-234.4" font-family="Arial" font-size="14.00" fill="#000000"> 編曲者表示用(1度しか使用しない別名義などで使用する)</text>
<polygon fill="none" stroke="#000000" points="43.5,-193 43.5,-223 652.5,-223 652.5,-193 43.5,-193"/>
<text text-anchor="start" x="50.5" y="-204.4" font-family="Arial" font-size="14.00" fill="#000000">display_rearranger    </text>
<text text-anchor="start" x="201.3864" y="-204.4" font-family="Arial" font-size="14.00" fill="#666666">[text]</text>
<text text-anchor="start" x="231.7314" y="-204.4" font-family="Arial" font-size="14.00" fill="#000000"> 再編曲者表示用(1度しか使用しない別名義などで使用する)</text>
<polygon fill="none" stroke="#000000" points="43.5,-163 43.5,-193 652.5,-193 652.5,-163 43.5,-163"/>
<text text-anchor="start" x="50.5" y="-174.4" font-family="Arial" font-size="14.00" fill="#000000">display_lyricist    </text>
<text text-anchor="start" x="174.9194" y="-174.4" font-family="Arial" font-size="14.00" fill="#666666">[text]</text>
<text text-anchor="start" x="205.2644" y="-174.4" font-family="Arial" font-size="14.00" fill="#000000"> 作詞者表示用(1度しか使用しない別名義などで使用する)</text>
<polygon fill="none" stroke="#000000" points="43.5,-133 43.5,-163 652.5,-163 652.5,-133 43.5,-133"/>
<text text-anchor="start" x="50.3082" y="-144.4" font-family="Arial" font-size="14.00" fill="#000000">display_vocalist    </text>
<text text-anchor="start" x="182.5256" y="-144.4" font-family="Arial" font-size="14.00" fill="#666666">[text]</text>
<text text-anchor="start" x="212.8706" y="-144.4" font-family="Arial" font-size="14.00" fill="#000000"> ボーカリスト表示用(1度しか使用しない別名義などで使用する)</text>
<polygon fill="none" stroke="#000000" points="43.5,-103 43.5,-133 652.5,-133 652.5,-103 43.5,-103"/>
<text text-anchor="start" x="50.5" y="-114.4" font-family="Arial" font-size="14.00" fill="#000000">display_original_song    </text>
<text text-anchor="start" x="219.2896" y="-114.4" font-family="Arial" font-size="14.00" fill="#666666">[text]</text>
<text text-anchor="start" x="249.6346" y="-114.4" font-family="Arial" font-size="14.00" fill="#000000"> 原曲表示用(東方以外の原曲などで使用する)</text>
<polygon fill="none" stroke="#000000" points="43.5,-73 43.5,-103 652.5,-103 652.5,-73 43.5,-73"/>
<text text-anchor="start" x="50.5" y="-84.4" font-family="Arial" font-size="14.00" fill="#000000">created_at    </text>
<text text-anchor="start" x="150.8422" y="-84.4" font-family="Arial" font-size="14.00" fill="#666666">[timestamp with time zone]</text>
<text text-anchor="start" x="316.5266" y="-84.4" font-family="Arial" font-size="14.00" fill="#000000"> 作成日時</text>
<polygon fill="none" stroke="#000000" points="43.5,-43 43.5,-73 652.5,-73 652.5,-43 43.5,-43"/>
<text text-anchor="start" x="50.5" y="-54.4" font-family="Arial" font-size="14.00" fill="#000000">updated_at    </text>
<text text-anchor="start" x="154.7468" y="-54.4" font-family="Arial" font-size="14.00" fill="#666666">[timestamp with time zone]</text>
<text text-anchor="start" x="320.4312" y="-54.4" font-family="Arial" font-size="14.00" fill="#000000"> 更新日時</text>
</g>
<!-- public.songs_arrange_circles&#45;&gt;public.songs -->
<g id="edge1" class="edge">
<title>public.songs_arrange_circles:song_id&#45;&gt;public.songs:id</title>
<path fill="none" stroke="#000000" d="M518.3191,-858.1497C464.3617,-848.4845 490.404,-758.7292 528.5,-708 562.9605,-662.112 618.0395,-717.888 652.5,-672 680.2562,-635.0394 698.7222,-568 652.5,-568"/>
<polygon fill="#000000" stroke="#000000" points="518.5347,-858.1677 528.1254,-863.4844 523.5173,-858.5838 528.5,-859 528.5,-859 528.5,-859 523.5173,-858.5838 528.8746,-854.5156 518.5347,-858.1677 518.5347,-858.1677"/>
<text text-anchor="start" x="294.6045" y="-869" font-family="Arial" font-size="10.00" fill="#000000">FOREIGN KEY (song_id) REFERENCES songs(id)</text>
</g>
<!-- public.circles -->
<g id="node3" class="node">
<title>public.circles</title>
<polygon fill="#efefef" stroke="transparent" points="756.5,-493 756.5,-539 1409.5,-539 1409.5,-493 756.5,-493"/>
<polygon fill="none" stroke="#000000" points="756.5,-493 756.5,-539 1409.5,-539 1409.5,-493 756.5,-493"/>
<text text-anchor="start" x="967.718" y="-516.8" font-family="Arial Bold" font-size="18.00" fill="#000000">public.circles</text>
<text text-anchor="start" x="1070.714" y="-516.8" font-family="Arial" font-size="14.00" fill="#000000">    </text>
<text text-anchor="start" x="1104.9188" y="-516.8" font-family="Arial" font-size="14.00" fill="#666666">[BASE TABLE]</text>
<text text-anchor="start" x="1048.525" y="-502.4" font-family="Arial" font-size="14.00" fill="#333333">サークル</text>
<polygon fill="none" stroke="#000000" points="756.5,-463 756.5,-493 1409.5,-493 1409.5,-463 756.5,-463"/>
<text text-anchor="start" x="763.5" y="-474.4" font-family="Arial" font-size="14.00" fill="#000000">id    </text>
<text text-anchor="start" x="808.594" y="-474.4" font-family="Arial" font-size="14.00" fill="#666666">[text]</text>
<polygon fill="none" stroke="#000000" points="756.5,-433 756.5,-463 1409.5,-463 1409.5,-433 756.5,-433"/>
<text text-anchor="start" x="763.5" y="-444.4" font-family="Arial" font-size="14.00" fill="#000000">name    </text>
<text text-anchor="start" x="832.7132" y="-444.4" font-family="Arial" font-size="14.00" fill="#666666">[text]</text>
<text text-anchor="start" x="863.0582" y="-444.4" font-family="Arial" font-size="14.00" fill="#000000"> 名前</text>
<polygon fill="none" stroke="#000000" points="756.5,-403 756.5,-433 1409.5,-433 1409.5,-403 756.5,-403"/>
<text text-anchor="start" x="763.5" y="-414.4" font-family="Arial" font-size="14.00" fill="#000000">name_reading    </text>
<text text-anchor="start" x="887.176" y="-414.4" font-family="Arial" font-size="14.00" fill="#666666">[text]</text>
<text text-anchor="start" x="917.521" y="-414.4" font-family="Arial" font-size="14.00" fill="#000000"> 名前読み方</text>
<polygon fill="none" stroke="#000000" points="756.5,-373 756.5,-403 1409.5,-403 1409.5,-373 756.5,-373"/>
<text text-anchor="start" x="763.4192" y="-384.4" font-family="Arial" font-size="14.00" fill="#000000">initial_letter_type    </text>
<text text-anchor="start" x="902.6408" y="-384.4" font-family="Arial" font-size="14.00" fill="#666666">[initial_letter_type]</text>
<text text-anchor="start" x="1015.4388" y="-384.4" font-family="Arial" font-size="14.00" fill="#000000"> 頭文字の文字種別(symbol,number,alphabet,kana,kanji,other)</text>
<polygon fill="none" stroke="#000000" points="756.5,-343 756.5,-373 1409.5,-373 1409.5,-343 756.5,-343"/>
<text text-anchor="start" x="763.5" y="-354.4" font-family="Arial" font-size="14.00" fill="#000000">initial_letter_detail    </text>
<text text-anchor="start" x="909.7174" y="-354.4" font-family="Arial" font-size="14.00" fill="#666666">[text]</text>
<text text-anchor="start" x="940.0624" y="-354.4" font-family="Arial" font-size="14.00" fill="#000000"> 頭文字の文字種別詳細</text>
<polygon fill="none" stroke="#000000" points="756.5,-313 756.5,-343 1409.5,-343 1409.5,-313 756.5,-313"/>
<text text-anchor="start" x="763.5" y="-324.4" font-family="Arial" font-size="14.00" fill="#000000">description    </text>
<text text-anchor="start" x="865.3822" y="-324.4" font-family="Arial" font-size="14.00" fill="#666666">[text]</text>
<text text-anchor="start" x="895.7272" y="-324.4" font-family="Arial" font-size="14.00" fill="#000000"> 説明</text>
<polygon fill="none" stroke="#000000" points="756.5,-283 756.5,-313 1409.5,-313 1409.5,-283 756.5,-283"/>
<text text-anchor="start" x="763.5" y="-294.4" font-family="Arial" font-size="14.00" fill="#000000">url    </text>
<text text-anchor="start" x="813.2546" y="-294.4" font-family="Arial" font-size="14.00" fill="#666666">[text]</text>
<text text-anchor="start" x="843.5996" y="-294.4" font-family="Arial" font-size="14.00" fill="#000000"> URL</text>
<polygon fill="none" stroke="#000000" points="756.5,-253 756.5,-283 1409.5,-283 1409.5,-253 756.5,-253"/>
<text text-anchor="start" x="763.5" y="-264.4" font-family="Arial" font-size="14.00" fill="#000000">blog_url    </text>
<text text-anchor="start" x="847.4916" y="-264.4" font-family="Arial" font-size="14.00" fill="#666666">[text]</text>
<text text-anchor="start" x="877.8366" y="-264.4" font-family="Arial" font-size="14.00" fill="#000000"> ブログ URL</text>
<polygon fill="none" stroke="#000000" points="756.5,-223 756.5,-253 1409.5,-253 1409.5,-223 756.5,-223"/>
<text text-anchor="start" x="763.5" y="-234.4" font-family="Arial" font-size="14.00" fill="#000000">twitter_url    </text>
<text text-anchor="start" x="858.3654" y="-234.4" font-family="Arial" font-size="14.00" fill="#666666">[text]</text>
<text text-anchor="start" x="888.7104" y="-234.4" font-family="Arial" font-size="14.00" fill="#000000"> Twitter URL</text>
<polygon fill="none" stroke="#000000" points="756.5,-193 756.5,-223 1409.5,-223 1409.5,-193 756.5,-193"/>
<text text-anchor="start" x="763.5" y="-204.4" font-family="Arial" font-size="14.00" fill="#000000">youtube_channel_url    </text>
<text text-anchor="start" x="927.643" y="-204.4" font-family="Arial" font-size="14.00" fill="#666666">[text]</text>
<text text-anchor="start" x="957.988" y="-204.4" font-family="Arial" font-size="14.00" fill="#000000"> YouTubeチャンネル URL</text>
<polygon fill="none" stroke="#000000" points="756.5,-163 756.5,-193 1409.5,-193 1409.5,-163 756.5,-163"/>
<text text-anchor="start" x="763.5" y="-174.4" font-family="Arial" font-size="14.00" fill="#000000">created_at    </text>
<text text-anchor="start" x="863.8422" y="-174.4" font-family="Arial" font-size="14.00" fill="#666666">[timestamp with time zone]</text>
<text text-anchor="start" x="1029.5266" y="-174.4" font-family="Arial" font-size="14.00" fill="#000000"> 作成日時</text>
<polygon fill="none" stroke="#000000" points="756.5,-133 756.5,-163 1409.5,-163 1409.5,-133 756.5,-133"/>
<text text-anchor="start" x="763.5" y="-144.4" font-family="Arial" font-size="14.00" fill="#000000">updated_at    </text>
<text text-anchor="start" x="867.7468" y="-144.4" font-family="Arial" font-size="14.00" fill="#666666">[timestamp with time zone]</text>
<text text-anchor="start" x="1033.4312" y="-144.4" font-family="Arial" font-size="14.00" fill="#000000"> 更新日時</text>
</g>
<!-- public.songs_arrange_circles&#45;&gt;public.circles -->
<g id="edge2" class="edge">
<title>public.songs_arrange_circles:circle_id&#45;&gt;public.circles:id</title>
<path fill="none" stroke="#000000" d="M912.6133,-827.9637C951.9082,-818.9751 923.3147,-753.4577 902.5,-708 866.816,-630.0691 792.184,-659.9309 756.5,-582 737.2566,-539.974 710.2778,-478 756.5,-478"/>
<polygon fill="#000000" stroke="#000000" points="912.4479,-827.9806 902.0413,-824.5234 907.474,-828.4903 902.5,-829 902.5,-829 902.5,-829 907.474,-828.4903 902.9587,-833.4766 912.4479,-827.9806 912.4479,-827.9806"/>
<text text-anchor="start" x="909.9555" y="-839" font-family="Arial" font-size="10.00" fill="#000000">FOREIGN KEY (circle_id) REFERENCES circles(id)</text>
</g>
</g>
</svg>
