<?xml version="1.0" encoding="UTF-8" standalone="no"?>
<!DOCTYPE svg PUBLIC "-//W3C//DTD SVG 1.1//EN"
 "http://www.w3.org/Graphics/SVG/1.1/DTD/svg11.dtd">
<!-- Generated by graphviz version 2.40.1 (20161225.0304)
 -->
<!-- Title: public.albums_genres Pages: 1 -->
<svg width="954pt" height="734pt"
 viewBox="0.00 0.00 954.00 734.00" xmlns="http://www.w3.org/2000/svg" xmlns:xlink="http://www.w3.org/1999/xlink">
<g id="graph0" class="graph" transform="scale(1 1) rotate(0) translate(4 730)">
<title>public.albums_genres</title>
<polygon fill="#ffffff" stroke="transparent" points="-4,4 -4,-730 950,-730 950,4 -4,4"/>
<!-- public.albums_genres -->
<g id="node1" class="node">
<title>public.albums_genres</title>
<polygon fill="#efefef" stroke="transparent" points="252,-634 252,-680 720,-680 720,-634 252,-634"/>
<polygon fill="none" stroke="#000000" points="252,-634 252,-680 720,-680 720,-634 252,-634"/>
<text text-anchor="start" x="349.8544" y="-657.8" font-family="Arial Bold" font-size="18.00" fill="#000000">public.albums_genres</text>
<text text-anchor="start" x="524.8918" y="-657.8" font-family="Arial" font-size="14.00" fill="#000000"> </text>
<text text-anchor="start" x="528.7824" y="-657.8" font-family="Arial" font-size="14.00" fill="#666666">[BASE TABLE]</text>
<text text-anchor="start" x="424.8228" y="-643.4" font-family="Arial" font-size="14.00" fill="#333333">アルバムジャンル</text>
<polygon fill="none" stroke="#000000" points="252,-604 252,-634 720,-634 720,-604 252,-604"/>
<text text-anchor="start" x="259" y="-615.4" font-family="Arial" font-size="14.00" fill="#000000">album_id </text>
<text text-anchor="start" x="319.6774" y="-615.4" font-family="Arial" font-size="14.00" fill="#666666">[text]</text>
<text text-anchor="start" x="350.0224" y="-615.4" font-family="Arial" font-size="14.00" fill="#000000"> アルバムID</text>
<polygon fill="none" stroke="#000000" points="252,-574 252,-604 720,-604 720,-574 252,-574"/>
<text text-anchor="start" x="259" y="-585.4" font-family="Arial" font-size="14.00" fill="#000000">tag_id </text>
<text text-anchor="start" x="301.0182" y="-585.4" font-family="Arial" font-size="14.00" fill="#666666">[text]</text>
<text text-anchor="start" x="331.3632" y="-585.4" font-family="Arial" font-size="14.00" fill="#000000"> タグID</text>
<polygon fill="none" stroke="#000000" points="252,-544 252,-574 720,-574 720,-544 252,-544"/>
<text text-anchor="start" x="258.6274" y="-555.4" font-family="Arial" font-size="14.00" fill="#000000">locked </text>
<text text-anchor="start" x="302.9724" y="-555.4" font-family="Arial" font-size="14.00" fill="#666666">[boolean]</text>
<text text-anchor="start" x="360.5558" y="-555.4" font-family="Arial" font-size="14.00" fill="#000000"> ロック有無(true: ロック・削除不可、false: アンロック)</text>
<polygon fill="none" stroke="#000000" points="252,-514 252,-544 720,-544 720,-514 252,-514"/>
<text text-anchor="start" x="259" y="-525.4" font-family="Arial" font-size="14.00" fill="#000000">created_at </text>
<text text-anchor="start" x="329.028" y="-525.4" font-family="Arial" font-size="14.00" fill="#666666">[timestamp with time zone]</text>
<text text-anchor="start" x="494.7124" y="-525.4" font-family="Arial" font-size="14.00" fill="#000000"> 作成日時</text>
<polygon fill="none" stroke="#000000" points="252,-484 252,-514 720,-514 720,-484 252,-484"/>
<text text-anchor="start" x="259" y="-495.4" font-family="Arial" font-size="14.00" fill="#000000">updated_at </text>
<text text-anchor="start" x="332.9326" y="-495.4" font-family="Arial" font-size="14.00" fill="#666666">[timestamp with time zone]</text>
<text text-anchor="start" x="498.617" y="-495.4" font-family="Arial" font-size="14.00" fill="#000000"> 更新日時</text>
<polygon fill="none" stroke="#000000" stroke-width="3" points="250.5,-482.5 250.5,-681.5 721.5,-681.5 721.5,-482.5 250.5,-482.5"/>
</g>
<!-- public.albums -->
<g id="node2" class="node">
<title>public.albums</title>
<polygon fill="#efefef" stroke="transparent" points="120,-313 120,-359 434,-359 434,-313 120,-313"/>
<polygon fill="none" stroke="#000000" points="120,-313 120,-359 434,-359 434,-313 120,-313"/>
<text text-anchor="start" x="173.366" y="-336.8" font-family="Arial Bold" font-size="18.00" fill="#000000">public.albums</text>
<text text-anchor="start" x="283.3802" y="-336.8" font-family="Arial" font-size="14.00" fill="#000000"> </text>
<text text-anchor="start" x="287.2708" y="-336.8" font-family="Arial" font-size="14.00" fill="#666666">[BASE TABLE]</text>
<text text-anchor="start" x="247.1884" y="-322.4" font-family="Arial" font-size="14.00" fill="#333333">アルバム</text>
<polygon fill="none" stroke="#000000" points="120,-283 120,-313 434,-313 434,-283 120,-283"/>
<text text-anchor="start" x="127" y="-294.4" font-family="Arial" font-size="14.00" fill="#000000">id </text>
<text text-anchor="start" x="141.7798" y="-294.4" font-family="Arial" font-size="14.00" fill="#666666">[text]</text>
<polygon fill="none" stroke="#000000" points="120,-253 120,-283 434,-283 434,-253 120,-253"/>
<text text-anchor="start" x="127" y="-264.4" font-family="Arial" font-size="14.00" fill="#000000">name </text>
<text text-anchor="start" x="165.899" y="-264.4" font-family="Arial" font-size="14.00" fill="#666666">[text]</text>
<text text-anchor="start" x="196.244" y="-264.4" font-family="Arial" font-size="14.00" fill="#000000"> 名前</text>
<polygon fill="none" stroke="#000000" points="120,-223 120,-253 434,-253 434,-223 120,-223"/>
<text text-anchor="start" x="127" y="-234.4" font-family="Arial" font-size="14.00" fill="#000000">release_circle_name </text>
<text text-anchor="start" x="260.0182" y="-234.4" font-family="Arial" font-size="14.00" fill="#666666">[text]</text>
<text text-anchor="start" x="290.3632" y="-234.4" font-family="Arial" font-size="14.00" fill="#000000"> 頒布サークル名</text>
<polygon fill="none" stroke="#000000" points="120,-193 120,-223 434,-223 434,-193 120,-193"/>
<text text-anchor="start" x="127" y="-204.4" font-family="Arial" font-size="14.00" fill="#000000">release_date </text>
<text text-anchor="start" x="211.8092" y="-204.4" font-family="Arial" font-size="14.00" fill="#666666">[date]</text>
<text text-anchor="start" x="246.8288" y="-204.4" font-family="Arial" font-size="14.00" fill="#000000"> 頒布日</text>
<polygon fill="none" stroke="#000000" points="120,-163 120,-193 434,-193 434,-163 120,-163"/>
<text text-anchor="start" x="127" y="-174.4" font-family="Arial" font-size="14.00" fill="#000000">event_id </text>
<text text-anchor="start" x="183.8008" y="-174.4" font-family="Arial" font-size="14.00" fill="#666666">[text]</text>
<text text-anchor="start" x="214.1458" y="-174.4" font-family="Arial" font-size="14.00" fill="#000000"> イベントID</text>
<polygon fill="none" stroke="#000000" points="120,-133 120,-163 434,-163 434,-133 120,-133"/>
<text text-anchor="start" x="127" y="-144.4" font-family="Arial" font-size="14.00" fill="#000000">sub_event_id </text>
<text text-anchor="start" x="214.1486" y="-144.4" font-family="Arial" font-size="14.00" fill="#666666">[text]</text>
<text text-anchor="start" x="244.4936" y="-144.4" font-family="Arial" font-size="14.00" fill="#000000"> サブイベントID</text>
<polygon fill="none" stroke="#000000" points="120,-103 120,-133 434,-133 434,-103 120,-103"/>
<text text-anchor="start" x="127" y="-114.4" font-family="Arial" font-size="14.00" fill="#000000">search_enabled </text>
<text text-anchor="start" x="230.4838" y="-114.4" font-family="Arial" font-size="14.00" fill="#666666">[boolean]</text>
<text text-anchor="start" x="288.0672" y="-114.4" font-family="Arial" font-size="14.00" fill="#000000"> 検索対象とするか</text>
<polygon fill="none" stroke="#000000" points="120,-73 120,-103 434,-103 434,-73 120,-73"/>
<text text-anchor="start" x="126.8542" y="-84.4" font-family="Arial" font-size="14.00" fill="#000000">created_at </text>
<text text-anchor="start" x="196.8822" y="-84.4" font-family="Arial" font-size="14.00" fill="#666666">[timestamp with time zone]</text>
<text text-anchor="start" x="362.5666" y="-84.4" font-family="Arial" font-size="14.00" fill="#000000"> 作成日時</text>
<polygon fill="none" stroke="#000000" points="120,-43 120,-73 434,-73 434,-43 120,-43"/>
<text text-anchor="start" x="127" y="-54.4" font-family="Arial" font-size="14.00" fill="#000000">updated_at </text>
<text text-anchor="start" x="200.9326" y="-54.4" font-family="Arial" font-size="14.00" fill="#666666">[timestamp with time zone]</text>
<text text-anchor="start" x="366.617" y="-54.4" font-family="Arial" font-size="14.00" fill="#000000"> 更新日時</text>
</g>
<!-- public.albums_genres&#45;&gt;public.albums -->
<g id="edge1" class="edge">
<title>public.albums_genres:album_id&#45;&gt;public.albums:id</title>
<path fill="none" stroke="#000000" d="M241.8157,-618.2964C174.2387,-608.4371 203.2274,-497.3649 252,-438 304.3436,-374.2885 381.6564,-465.7115 434,-402 463.3421,-366.2854 480.2222,-298 434,-298"/>
<polygon fill="#000000" stroke="#000000" points="242.0238,-618.3107 251.6898,-623.4893 247.0119,-618.6554 252,-619 252,-619 252,-619 247.0119,-618.6554 252.3102,-614.5107 242.0238,-618.3107 242.0238,-618.3107"/>
<text text-anchor="start" x="6.5565" y="-629" font-family="Arial" font-size="10.00" fill="#000000">FOREIGN KEY (album_id) REFERENCES albums(id)</text>
</g>
<!-- public.tags -->
<g id="node3" class="node">
<title>public.tags</title>
<polygon fill="#efefef" stroke="transparent" points="538,-253 538,-299 852,-299 852,-253 538,-253"/>
<polygon fill="none" stroke="#000000" points="538,-253 538,-299 852,-299 852,-253 538,-253"/>
<text text-anchor="start" x="603.3612" y="-276.8" font-family="Arial Bold" font-size="18.00" fill="#000000">public.tags</text>
<text text-anchor="start" x="689.385" y="-276.8" font-family="Arial" font-size="14.00" fill="#000000"> </text>
<text text-anchor="start" x="693.2756" y="-276.8" font-family="Arial" font-size="14.00" fill="#666666">[BASE TABLE]</text>
<text text-anchor="start" x="679.7092" y="-262.4" font-family="Arial" font-size="14.00" fill="#333333">タグ</text>
<polygon fill="none" stroke="#000000" points="538,-223 538,-253 852,-253 852,-223 538,-223"/>
<text text-anchor="start" x="545" y="-234.4" font-family="Arial" font-size="14.00" fill="#000000">id </text>
<text text-anchor="start" x="559.7798" y="-234.4" font-family="Arial" font-size="14.00" fill="#666666">[text]</text>
<polygon fill="none" stroke="#000000" points="538,-193 538,-223 852,-223 852,-193 538,-193"/>
<text text-anchor="start" x="545" y="-204.4" font-family="Arial" font-size="14.00" fill="#000000">name </text>
<text text-anchor="start" x="583.899" y="-204.4" font-family="Arial" font-size="14.00" fill="#666666">[text]</text>
<text text-anchor="start" x="614.244" y="-204.4" font-family="Arial" font-size="14.00" fill="#000000"> 名前</text>
<polygon fill="none" stroke="#000000" points="538,-163 538,-193 852,-193 852,-163 538,-163"/>
<text text-anchor="start" x="545" y="-174.4" font-family="Arial" font-size="14.00" fill="#000000">tag_type </text>
<text text-anchor="start" x="602.5848" y="-174.4" font-family="Arial" font-size="14.00" fill="#666666">[tag_type]</text>
<text text-anchor="start" x="664.0602" y="-174.4" font-family="Arial" font-size="14.00" fill="#000000"> タグ種別</text>
<polygon fill="none" stroke="#000000" points="538,-133 538,-163 852,-163 852,-133 538,-133"/>
<text text-anchor="start" x="544.8542" y="-144.4" font-family="Arial" font-size="14.00" fill="#000000">created_at </text>
<text text-anchor="start" x="614.8822" y="-144.4" font-family="Arial" font-size="14.00" fill="#666666">[timestamp with time zone]</text>
<text text-anchor="start" x="780.5666" y="-144.4" font-family="Arial" font-size="14.00" fill="#000000"> 作成日時</text>
<polygon fill="none" stroke="#000000" points="538,-103 538,-133 852,-133 852,-103 538,-103"/>
<text text-anchor="start" x="545" y="-114.4" font-family="Arial" font-size="14.00" fill="#000000">updated_at </text>
<text text-anchor="start" x="618.9326" y="-114.4" font-family="Arial" font-size="14.00" fill="#666666">[timestamp with time zone]</text>
<text text-anchor="start" x="784.617" y="-114.4" font-family="Arial" font-size="14.00" fill="#000000"> 更新日時</text>
</g>
<!-- public.albums_genres&#45;&gt;public.tags -->
<g id="edge2" class="edge">
<title>public.albums_genres:tag_id&#45;&gt;public.tags:id</title>
<path fill="none" stroke="#000000" d="M730.133,-588.182C783.5552,-578.8778 752.7644,-492.3254 720,-438 672.7691,-359.6884 585.2309,-420.3116 538,-342 514.1283,-302.4193 491.7778,-238 538,-238"/>
<polygon fill="#000000" stroke="#000000" points="729.9676,-588.1953 719.6379,-584.5146 724.9838,-588.5976 720,-589 720,-589 720,-589 724.9838,-588.5976 720.3621,-593.4854 729.9676,-588.1953 729.9676,-588.1953"/>
<text text-anchor="start" x="726.8845" y="-599" font-family="Arial" font-size="10.00" fill="#000000">FOREIGN KEY (tag_id) REFERENCES tags(id)</text>
</g>
</g>
</svg>
