<?xml version="1.0" encoding="UTF-8" standalone="no"?>
<!DOCTYPE svg PUBLIC "-//W3C//DTD SVG 1.1//EN"
 "http://www.w3.org/Graphics/SVG/1.1/DTD/svg11.dtd">
<!-- Generated by graphviz version 2.40.1 (20161225.0304)
 -->
<!-- Title: public.tags Pages: 1 -->
<svg width="2710pt" height="614pt"
 viewBox="0.00 0.00 2709.50 614.00" xmlns="http://www.w3.org/2000/svg" xmlns:xlink="http://www.w3.org/1999/xlink">
<g id="graph0" class="graph" transform="scale(1 1) rotate(0) translate(4 610)">
<title>public.tags</title>
<polygon fill="#ffffff" stroke="transparent" points="-4,4 -4,-610 2705.5,-610 2705.5,4 -4,4"/>
<!-- public.tags -->
<g id="node1" class="node">
<title>public.tags</title>
<polygon fill="#efefef" stroke="transparent" points="1194,-196 1194,-242 1508,-242 1508,-196 1194,-196"/>
<polygon fill="none" stroke="#000000" points="1194,-196 1194,-242 1508,-242 1508,-196 1194,-196"/>
<text text-anchor="start" x="1259.3612" y="-219.8" font-family="Arial Bold" font-size="18.00" fill="#000000">public.tags</text>
<text text-anchor="start" x="1345.385" y="-219.8" font-family="Arial" font-size="14.00" fill="#000000"> </text>
<text text-anchor="start" x="1349.2756" y="-219.8" font-family="Arial" font-size="14.00" fill="#666666">[BASE TABLE]</text>
<text text-anchor="start" x="1335.7092" y="-205.4" font-family="Arial" font-size="14.00" fill="#333333">タグ</text>
<polygon fill="none" stroke="#000000" points="1194,-166 1194,-196 1508,-196 1508,-166 1194,-166"/>
<text text-anchor="start" x="1201" y="-177.4" font-family="Arial" font-size="14.00" fill="#000000">id </text>
<text text-anchor="start" x="1215.7798" y="-177.4" font-family="Arial" font-size="14.00" fill="#666666">[text]</text>
<polygon fill="none" stroke="#000000" points="1194,-136 1194,-166 1508,-166 1508,-136 1194,-136"/>
<text text-anchor="start" x="1201" y="-147.4" font-family="Arial" font-size="14.00" fill="#000000">name </text>
<text text-anchor="start" x="1239.899" y="-147.4" font-family="Arial" font-size="14.00" fill="#666666">[text]</text>
<text text-anchor="start" x="1270.244" y="-147.4" font-family="Arial" font-size="14.00" fill="#000000"> 名前</text>
<polygon fill="none" stroke="#000000" points="1194,-106 1194,-136 1508,-136 1508,-106 1194,-106"/>
<text text-anchor="start" x="1201" y="-117.4" font-family="Arial" font-size="14.00" fill="#000000">tag_type </text>
<text text-anchor="start" x="1258.5848" y="-117.4" font-family="Arial" font-size="14.00" fill="#666666">[tag_type]</text>
<text text-anchor="start" x="1320.0602" y="-117.4" font-family="Arial" font-size="14.00" fill="#000000"> タグ種別</text>
<polygon fill="none" stroke="#000000" points="1194,-76 1194,-106 1508,-106 1508,-76 1194,-76"/>
<text text-anchor="start" x="1200.8542" y="-87.4" font-family="Arial" font-size="14.00" fill="#000000">created_at </text>
<text text-anchor="start" x="1270.8822" y="-87.4" font-family="Arial" font-size="14.00" fill="#666666">[timestamp with time zone]</text>
<text text-anchor="start" x="1436.5666" y="-87.4" font-family="Arial" font-size="14.00" fill="#000000"> 作成日時</text>
<polygon fill="none" stroke="#000000" points="1194,-46 1194,-76 1508,-76 1508,-46 1194,-46"/>
<text text-anchor="start" x="1201" y="-57.4" font-family="Arial" font-size="14.00" fill="#000000">updated_at </text>
<text text-anchor="start" x="1274.9326" y="-57.4" font-family="Arial" font-size="14.00" fill="#666666">[timestamp with time zone]</text>
<text text-anchor="start" x="1440.617" y="-57.4" font-family="Arial" font-size="14.00" fill="#000000"> 更新日時</text>
<polygon fill="none" stroke="#000000" stroke-width="3" points="1192.5,-44.5 1192.5,-243.5 1509.5,-243.5 1509.5,-44.5 1192.5,-44.5"/>
</g>
<!-- public.albums_genres -->
<g id="node2" class="node">
<title>public.albums_genres</title>
<polygon fill="#efefef" stroke="transparent" points="43,-517 43,-563 511,-563 511,-517 43,-517"/>
<polygon fill="none" stroke="#000000" points="43,-517 43,-563 511,-563 511,-517 43,-517"/>
<text text-anchor="start" x="140.8544" y="-540.8" font-family="Arial Bold" font-size="18.00" fill="#000000">public.albums_genres</text>
<text text-anchor="start" x="315.8918" y="-540.8" font-family="Arial" font-size="14.00" fill="#000000"> </text>
<text text-anchor="start" x="319.7824" y="-540.8" font-family="Arial" font-size="14.00" fill="#666666">[BASE TABLE]</text>
<text text-anchor="start" x="215.8228" y="-526.4" font-family="Arial" font-size="14.00" fill="#333333">アルバムジャンル</text>
<polygon fill="none" stroke="#000000" points="43,-487 43,-517 511,-517 511,-487 43,-487"/>
<text text-anchor="start" x="50" y="-498.4" font-family="Arial" font-size="14.00" fill="#000000">album_id </text>
<text text-anchor="start" x="110.6774" y="-498.4" font-family="Arial" font-size="14.00" fill="#666666">[text]</text>
<text text-anchor="start" x="141.0224" y="-498.4" font-family="Arial" font-size="14.00" fill="#000000"> アルバムID</text>
<polygon fill="none" stroke="#000000" points="43,-457 43,-487 511,-487 511,-457 43,-457"/>
<text text-anchor="start" x="50" y="-468.4" font-family="Arial" font-size="14.00" fill="#000000">tag_id </text>
<text text-anchor="start" x="92.0182" y="-468.4" font-family="Arial" font-size="14.00" fill="#666666">[text]</text>
<text text-anchor="start" x="122.3632" y="-468.4" font-family="Arial" font-size="14.00" fill="#000000"> タグID</text>
<polygon fill="none" stroke="#000000" points="43,-427 43,-457 511,-457 511,-427 43,-427"/>
<text text-anchor="start" x="49.6274" y="-438.4" font-family="Arial" font-size="14.00" fill="#000000">locked </text>
<text text-anchor="start" x="93.9724" y="-438.4" font-family="Arial" font-size="14.00" fill="#666666">[boolean]</text>
<text text-anchor="start" x="151.5558" y="-438.4" font-family="Arial" font-size="14.00" fill="#000000"> ロック有無(true: ロック・削除不可、false: アンロック)</text>
<polygon fill="none" stroke="#000000" points="43,-397 43,-427 511,-427 511,-397 43,-397"/>
<text text-anchor="start" x="50" y="-408.4" font-family="Arial" font-size="14.00" fill="#000000">created_at </text>
<text text-anchor="start" x="120.028" y="-408.4" font-family="Arial" font-size="14.00" fill="#666666">[timestamp with time zone]</text>
<text text-anchor="start" x="285.7124" y="-408.4" font-family="Arial" font-size="14.00" fill="#000000"> 作成日時</text>
<polygon fill="none" stroke="#000000" points="43,-367 43,-397 511,-397 511,-367 43,-367"/>
<text text-anchor="start" x="50" y="-378.4" font-family="Arial" font-size="14.00" fill="#000000">updated_at </text>
<text text-anchor="start" x="123.9326" y="-378.4" font-family="Arial" font-size="14.00" fill="#666666">[timestamp with time zone]</text>
<text text-anchor="start" x="289.617" y="-378.4" font-family="Arial" font-size="14.00" fill="#000000"> 更新日時</text>
</g>
<!-- public.albums_genres&#45;&gt;public.tags -->
<g id="edge1" class="edge">
<title>public.albums_genres:tag_id&#45;&gt;public.tags:id</title>
<path fill="none" stroke="#000000" d="M521.2296,-471.1139C573.4528,-461.051 513.7952,-367.8476 563,-324 670.3418,-228.3452 1050.2221,-181 1194,-181"/>
<polygon fill="#000000" stroke="#000000" points="520.9627,-471.137 510.6116,-467.5168 515.9813,-471.5685 511,-472 511,-472 511,-472 515.9813,-471.5685 511.3884,-476.4832 520.9627,-471.137 520.9627,-471.137"/>
<text text-anchor="start" x="404.8845" y="-456" font-family="Arial" font-size="10.00" fill="#000000">FOREIGN KEY (tag_id) REFERENCES tags(id)</text>
</g>
<!-- public.albums_tags -->
<g id="node3" class="node">
<title>public.albums_tags</title>
<polygon fill="#efefef" stroke="transparent" points="616,-517 616,-563 1013,-563 1013,-517 616,-517"/>
<polygon fill="none" stroke="#000000" points="616,-517 616,-563 1013,-563 1013,-517 616,-517"/>
<text text-anchor="start" x="688.8556" y="-540.8" font-family="Arial Bold" font-size="18.00" fill="#000000">public.albums_tags</text>
<text text-anchor="start" x="842.8906" y="-540.8" font-family="Arial" font-size="14.00" fill="#000000"> </text>
<text text-anchor="start" x="846.7812" y="-540.8" font-family="Arial" font-size="14.00" fill="#666666">[BASE TABLE]</text>
<text text-anchor="start" x="769.3976" y="-526.4" font-family="Arial" font-size="14.00" fill="#333333">アルバムタグ</text>
<polygon fill="none" stroke="#000000" points="616,-487 616,-517 1013,-517 1013,-487 616,-487"/>
<text text-anchor="start" x="623" y="-498.4" font-family="Arial" font-size="14.00" fill="#000000">album_id </text>
<text text-anchor="start" x="683.6774" y="-498.4" font-family="Arial" font-size="14.00" fill="#666666">[text]</text>
<text text-anchor="start" x="714.0224" y="-498.4" font-family="Arial" font-size="14.00" fill="#000000"> アルバムID</text>
<polygon fill="none" stroke="#000000" points="616,-457 616,-487 1013,-487 1013,-457 616,-457"/>
<text text-anchor="start" x="623" y="-468.4" font-family="Arial" font-size="14.00" fill="#000000">tag_id </text>
<text text-anchor="start" x="665.0182" y="-468.4" font-family="Arial" font-size="14.00" fill="#666666">[text]</text>
<text text-anchor="start" x="695.3632" y="-468.4" font-family="Arial" font-size="14.00" fill="#000000"> タグID</text>
<polygon fill="none" stroke="#000000" points="616,-427 616,-457 1013,-457 1013,-427 616,-427"/>
<text text-anchor="start" x="622.7826" y="-438.4" font-family="Arial" font-size="14.00" fill="#000000">locked </text>
<text text-anchor="start" x="667.1276" y="-438.4" font-family="Arial" font-size="14.00" fill="#666666">[boolean]</text>
<text text-anchor="start" x="724.711" y="-438.4" font-family="Arial" font-size="14.00" fill="#000000"> ロック有無(true: ロック、false: アンロック)</text>
<polygon fill="none" stroke="#000000" points="616,-397 616,-427 1013,-427 1013,-397 616,-397"/>
<text text-anchor="start" x="623" y="-408.4" font-family="Arial" font-size="14.00" fill="#000000">created_at </text>
<text text-anchor="start" x="693.028" y="-408.4" font-family="Arial" font-size="14.00" fill="#666666">[timestamp with time zone]</text>
<text text-anchor="start" x="858.7124" y="-408.4" font-family="Arial" font-size="14.00" fill="#000000"> 作成日時</text>
<polygon fill="none" stroke="#000000" points="616,-367 616,-397 1013,-397 1013,-367 616,-367"/>
<text text-anchor="start" x="623" y="-378.4" font-family="Arial" font-size="14.00" fill="#000000">updated_at </text>
<text text-anchor="start" x="696.9326" y="-378.4" font-family="Arial" font-size="14.00" fill="#666666">[timestamp with time zone]</text>
<text text-anchor="start" x="862.617" y="-378.4" font-family="Arial" font-size="14.00" fill="#000000"> 更新日時</text>
</g>
<!-- public.albums_tags&#45;&gt;public.tags -->
<g id="edge2" class="edge">
<title>public.albums_tags:tag_id&#45;&gt;public.tags:id</title>
<path fill="none" stroke="#000000" d="M1023.0345,-471.2824C1077.3433,-462.7911 1031.2759,-380.7836 1065,-324 1108.7077,-250.4062 1108.4055,-181 1194,-181"/>
<polygon fill="#000000" stroke="#000000" points="1022.9745,-471.2866 1012.679,-467.5115 1017.9873,-471.6433 1013,-472 1013,-472 1013,-472 1017.9873,-471.6433 1013.321,-476.4885 1022.9745,-471.2866 1022.9745,-471.2866"/>
<text text-anchor="start" x="1019.8845" y="-482" font-family="Arial" font-size="10.00" fill="#000000">FOREIGN KEY (tag_id) REFERENCES tags(id)</text>
</g>
<!-- public.tracks_genres -->
<g id="node4" class="node">
<title>public.tracks_genres</title>
<polygon fill="#efefef" stroke="transparent" points="1117,-517 1117,-563 1585,-563 1585,-517 1117,-517"/>
<polygon fill="none" stroke="#000000" points="1117,-517 1117,-563 1585,-563 1585,-517 1117,-517"/>
<text text-anchor="start" x="1219.8566" y="-540.8" font-family="Arial Bold" font-size="18.00" fill="#000000">public.tracks_genres</text>
<text text-anchor="start" x="1384.8896" y="-540.8" font-family="Arial" font-size="14.00" fill="#000000"> </text>
<text text-anchor="start" x="1388.7802" y="-540.8" font-family="Arial" font-size="14.00" fill="#666666">[BASE TABLE]</text>
<text text-anchor="start" x="1299.0159" y="-526.4" font-family="Arial" font-size="14.00" fill="#333333">楽曲ジャンル</text>
<polygon fill="none" stroke="#000000" points="1117,-487 1117,-517 1585,-517 1585,-487 1117,-487"/>
<text text-anchor="start" x="1124" y="-498.4" font-family="Arial" font-size="14.00" fill="#000000">track_id </text>
<text text-anchor="start" x="1176.8962" y="-498.4" font-family="Arial" font-size="14.00" fill="#666666">[text]</text>
<text text-anchor="start" x="1207.2412" y="-498.4" font-family="Arial" font-size="14.00" fill="#000000"> トラックID</text>
<polygon fill="none" stroke="#000000" points="1117,-457 1117,-487 1585,-487 1585,-457 1117,-457"/>
<text text-anchor="start" x="1124" y="-468.4" font-family="Arial" font-size="14.00" fill="#000000">tag_id </text>
<text text-anchor="start" x="1166.0182" y="-468.4" font-family="Arial" font-size="14.00" fill="#666666">[text]</text>
<text text-anchor="start" x="1196.3632" y="-468.4" font-family="Arial" font-size="14.00" fill="#000000"> タグID</text>
<polygon fill="none" stroke="#000000" points="1117,-427 1117,-457 1585,-457 1585,-427 1117,-427"/>
<text text-anchor="start" x="1123.6274" y="-438.4" font-family="Arial" font-size="14.00" fill="#000000">locked </text>
<text text-anchor="start" x="1167.9724" y="-438.4" font-family="Arial" font-size="14.00" fill="#666666">[boolean]</text>
<text text-anchor="start" x="1225.5558" y="-438.4" font-family="Arial" font-size="14.00" fill="#000000"> ロック有無(true: ロック・削除不可、false: アンロック)</text>
<polygon fill="none" stroke="#000000" points="1117,-397 1117,-427 1585,-427 1585,-397 1117,-397"/>
<text text-anchor="start" x="1124" y="-408.4" font-family="Arial" font-size="14.00" fill="#000000">created_at </text>
<text text-anchor="start" x="1194.028" y="-408.4" font-family="Arial" font-size="14.00" fill="#666666">[timestamp with time zone]</text>
<text text-anchor="start" x="1359.7124" y="-408.4" font-family="Arial" font-size="14.00" fill="#000000"> 作成日時</text>
<polygon fill="none" stroke="#000000" points="1117,-367 1117,-397 1585,-397 1585,-367 1117,-367"/>
<text text-anchor="start" x="1124" y="-378.4" font-family="Arial" font-size="14.00" fill="#000000">updated_at </text>
<text text-anchor="start" x="1197.9326" y="-378.4" font-family="Arial" font-size="14.00" fill="#666666">[timestamp with time zone]</text>
<text text-anchor="start" x="1363.617" y="-378.4" font-family="Arial" font-size="14.00" fill="#000000"> 更新日時</text>
</g>
<!-- public.tracks_genres&#45;&gt;public.tags -->
<g id="edge3" class="edge">
<title>public.tracks_genres:tag_id&#45;&gt;public.tags:id</title>
<path fill="none" stroke="#000000" d="M1594.7087,-469.4843C1643.5006,-441.0422 1571.234,-181 1508,-181"/>
<polygon fill="#000000" stroke="#000000" points="1594.6803,-469.4916 1583.8712,-467.6439 1589.8401,-470.7458 1585,-472 1585,-472 1585,-472 1589.8401,-470.7458 1586.1288,-476.3561 1594.6803,-469.4916 1594.6803,-469.4916"/>
<text text-anchor="start" x="1478.8845" y="-456" font-family="Arial" font-size="10.00" fill="#000000">FOREIGN KEY (tag_id) REFERENCES tags(id)</text>
</g>
<!-- public.tracks_tags -->
<g id="node5" class="node">
<title>public.tracks_tags</title>
<polygon fill="#efefef" stroke="transparent" points="1689,-517 1689,-563 2157,-563 2157,-517 1689,-517"/>
<polygon fill="none" stroke="#000000" points="1689,-517 1689,-563 2157,-563 2157,-517 1689,-517"/>
<text text-anchor="start" x="1802.3578" y="-540.8" font-family="Arial Bold" font-size="18.00" fill="#000000">public.tracks_tags</text>
<text text-anchor="start" x="1946.3884" y="-540.8" font-family="Arial" font-size="14.00" fill="#000000"> </text>
<text text-anchor="start" x="1950.279" y="-540.8" font-family="Arial" font-size="14.00" fill="#666666">[BASE TABLE]</text>
<text text-anchor="start" x="1887.0907" y="-526.4" font-family="Arial" font-size="14.00" fill="#333333">楽曲タグ</text>
<polygon fill="none" stroke="#000000" points="1689,-487 1689,-517 2157,-517 2157,-487 1689,-487"/>
<text text-anchor="start" x="1696" y="-498.4" font-family="Arial" font-size="14.00" fill="#000000">track_id </text>
<text text-anchor="start" x="1748.8962" y="-498.4" font-family="Arial" font-size="14.00" fill="#666666">[text]</text>
<text text-anchor="start" x="1779.2412" y="-498.4" font-family="Arial" font-size="14.00" fill="#000000"> トラックID</text>
<polygon fill="none" stroke="#000000" points="1689,-457 1689,-487 2157,-487 2157,-457 1689,-457"/>
<text text-anchor="start" x="1696" y="-468.4" font-family="Arial" font-size="14.00" fill="#000000">tag_id </text>
<text text-anchor="start" x="1738.0182" y="-468.4" font-family="Arial" font-size="14.00" fill="#666666">[text]</text>
<text text-anchor="start" x="1768.3632" y="-468.4" font-family="Arial" font-size="14.00" fill="#000000"> タグID</text>
<polygon fill="none" stroke="#000000" points="1689,-427 1689,-457 2157,-457 2157,-427 1689,-427"/>
<text text-anchor="start" x="1695.6274" y="-438.4" font-family="Arial" font-size="14.00" fill="#000000">locked </text>
<text text-anchor="start" x="1739.9724" y="-438.4" font-family="Arial" font-size="14.00" fill="#666666">[boolean]</text>
<text text-anchor="start" x="1797.5558" y="-438.4" font-family="Arial" font-size="14.00" fill="#000000"> ロック有無(true: ロック・削除不可、false: アンロック)</text>
<polygon fill="none" stroke="#000000" points="1689,-397 1689,-427 2157,-427 2157,-397 1689,-397"/>
<text text-anchor="start" x="1696" y="-408.4" font-family="Arial" font-size="14.00" fill="#000000">created_at </text>
<text text-anchor="start" x="1766.028" y="-408.4" font-family="Arial" font-size="14.00" fill="#666666">[timestamp with time zone]</text>
<text text-anchor="start" x="1931.7124" y="-408.4" font-family="Arial" font-size="14.00" fill="#000000"> 作成日時</text>
<polygon fill="none" stroke="#000000" points="1689,-367 1689,-397 2157,-397 2157,-367 1689,-367"/>
<text text-anchor="start" x="1696" y="-378.4" font-family="Arial" font-size="14.00" fill="#000000">updated_at </text>
<text text-anchor="start" x="1769.9326" y="-378.4" font-family="Arial" font-size="14.00" fill="#666666">[timestamp with time zone]</text>
<text text-anchor="start" x="1935.617" y="-378.4" font-family="Arial" font-size="14.00" fill="#000000"> 更新日時</text>
</g>
<!-- public.tracks_tags&#45;&gt;public.tags -->
<g id="edge4" class="edge">
<title>public.tracks_tags:tag_id&#45;&gt;public.tags:id</title>
<path fill="none" stroke="#000000" d="M1678.9655,-471.2824C1624.6567,-462.7911 1670.7241,-380.7836 1637,-324 1593.2923,-250.4062 1593.5945,-181 1508,-181"/>
<polygon fill="#000000" stroke="#000000" points="1679.0255,-471.2866 1688.679,-476.4885 1684.0127,-471.6433 1689,-472 1689,-472 1689,-472 1684.0127,-471.6433 1689.321,-467.5115 1679.0255,-471.2866 1679.0255,-471.2866"/>
<text text-anchor="start" x="1469.8845" y="-482" font-family="Arial" font-size="10.00" fill="#000000">FOREIGN KEY (tag_id) REFERENCES tags(id)</text>
</g>
<!-- public.circles_tags -->
<g id="node6" class="node">
<title>public.circles_tags</title>
<polygon fill="#efefef" stroke="transparent" points="2262,-517 2262,-563 2659,-563 2659,-517 2262,-517"/>
<polygon fill="none" stroke="#000000" points="2262,-517 2262,-563 2659,-563 2659,-517 2262,-517"/>
<text text-anchor="start" x="2338.3647" y="-540.8" font-family="Arial Bold" font-size="18.00" fill="#000000">public.circles_tags</text>
<text text-anchor="start" x="2485.3815" y="-540.8" font-family="Arial" font-size="14.00" fill="#000000"> </text>
<text text-anchor="start" x="2489.2721" y="-540.8" font-family="Arial" font-size="14.00" fill="#666666">[BASE TABLE]</text>
<text text-anchor="start" x="2410.7342" y="-526.4" font-family="Arial" font-size="14.00" fill="#333333">サークルタグ</text>
<polygon fill="none" stroke="#000000" points="2262,-487 2262,-517 2659,-517 2659,-487 2262,-487"/>
<text text-anchor="start" x="2269" y="-498.4" font-family="Arial" font-size="14.00" fill="#000000">circle_id </text>
<text text-anchor="start" x="2324.2188" y="-498.4" font-family="Arial" font-size="14.00" fill="#666666">[text]</text>
<text text-anchor="start" x="2354.5638" y="-498.4" font-family="Arial" font-size="14.00" fill="#000000"> サークルID</text>
<polygon fill="none" stroke="#000000" points="2262,-457 2262,-487 2659,-487 2659,-457 2262,-457"/>
<text text-anchor="start" x="2269" y="-468.4" font-family="Arial" font-size="14.00" fill="#000000">tag_id </text>
<text text-anchor="start" x="2311.0182" y="-468.4" font-family="Arial" font-size="14.00" fill="#666666">[text]</text>
<text text-anchor="start" x="2341.3632" y="-468.4" font-family="Arial" font-size="14.00" fill="#000000"> タグID</text>
<polygon fill="none" stroke="#000000" points="2262,-427 2262,-457 2659,-457 2659,-427 2262,-427"/>
<text text-anchor="start" x="2268.7826" y="-438.4" font-family="Arial" font-size="14.00" fill="#000000">locked </text>
<text text-anchor="start" x="2313.1276" y="-438.4" font-family="Arial" font-size="14.00" fill="#666666">[boolean]</text>
<text text-anchor="start" x="2370.711" y="-438.4" font-family="Arial" font-size="14.00" fill="#000000"> ロック有無(true: ロック、false: アンロック)</text>
<polygon fill="none" stroke="#000000" points="2262,-397 2262,-427 2659,-427 2659,-397 2262,-397"/>
<text text-anchor="start" x="2269" y="-408.4" font-family="Arial" font-size="14.00" fill="#000000">created_at </text>
<text text-anchor="start" x="2339.028" y="-408.4" font-family="Arial" font-size="14.00" fill="#666666">[timestamp with time zone]</text>
<text text-anchor="start" x="2504.7124" y="-408.4" font-family="Arial" font-size="14.00" fill="#000000"> 作成日時</text>
<polygon fill="none" stroke="#000000" points="2262,-367 2262,-397 2659,-397 2659,-367 2262,-367"/>
<text text-anchor="start" x="2269" y="-378.4" font-family="Arial" font-size="14.00" fill="#000000">updated_at </text>
<text text-anchor="start" x="2342.9326" y="-378.4" font-family="Arial" font-size="14.00" fill="#666666">[timestamp with time zone]</text>
<text text-anchor="start" x="2508.617" y="-378.4" font-family="Arial" font-size="14.00" fill="#000000"> 更新日時</text>
</g>
<!-- public.circles_tags&#45;&gt;public.tags -->
<g id="edge5" class="edge">
<title>public.circles_tags:tag_id&#45;&gt;public.tags:id</title>
<path fill="none" stroke="#000000" d="M2251.7463,-471.1086C2199.3853,-460.9862 2258.912,-367.2557 2209,-324 2088.8544,-219.8771 1666.986,-181 1508,-181"/>
<polygon fill="#000000" stroke="#000000" points="2252.0376,-471.1339 2261.6102,-476.4831 2257.0188,-471.5669 2262,-472 2262,-472 2262,-472 2257.0188,-471.5669 2262.3898,-467.5169 2252.0376,-471.1339 2252.0376,-471.1339"/>
<text text-anchor="start" x="2042.8845" y="-482" font-family="Arial" font-size="10.00" fill="#000000">FOREIGN KEY (tag_id) REFERENCES tags(id)</text>
</g>
</g>
</svg>
