<?xml version="1.0" encoding="UTF-8" standalone="no"?>
<!DOCTYPE svg PUBLIC "-//W3C//DTD SVG 1.1//EN"
 "http://www.w3.org/Graphics/SVG/1.1/DTD/svg11.dtd">
<!-- Generated by graphviz version 2.40.1 (20161225.0304)
 -->
<!-- Title: public.product_distribution_service_urls Pages: 1 -->
<svg width="775pt" height="704pt"
 viewBox="0.00 0.00 775.00 704.00" xmlns="http://www.w3.org/2000/svg" xmlns:xlink="http://www.w3.org/1999/xlink">
<g id="graph0" class="graph" transform="scale(1 1) rotate(0) translate(4 700)">
<title>public.product_distribution_service_urls</title>
<polygon fill="#ffffff" stroke="transparent" points="-4,4 -4,-700 771,-700 771,4 -4,4"/>
<!-- public.product_distribution_service_urls -->
<g id="node1" class="node">
<title>public.product_distribution_service_urls</title>
<polygon fill="#efefef" stroke="transparent" points="46,-604 46,-650 502,-650 502,-604 46,-604"/>
<polygon fill="none" stroke="#000000" points="46,-604 46,-650 502,-650 502,-604 46,-604"/>
<text text-anchor="start" x="52.6917" y="-627.8" font-family="Arial Bold" font-size="18.00" fill="#000000">public.product_distribution_service_urls</text>
<text text-anchor="start" x="367.7403" y="-627.8" font-family="Arial" font-size="14.00" fill="#000000">    </text>
<text text-anchor="start" x="401.9451" y="-627.8" font-family="Arial" font-size="14.00" fill="#666666">[BASE TABLE]</text>
<text text-anchor="start" x="165.2494" y="-613.4" font-family="Arial" font-size="14.00" fill="#333333">原作(音楽)配信サービスURL</text>
<polygon fill="none" stroke="#000000" points="46,-574 46,-604 502,-604 502,-574 46,-574"/>
<text text-anchor="start" x="53" y="-585.4" font-family="Arial" font-size="14.00" fill="#000000">id </text>
<text text-anchor="start" x="67.7798" y="-585.4" font-family="Arial" font-size="14.00" fill="#666666">[text]</text>
<polygon fill="none" stroke="#000000" points="46,-544 46,-574 502,-574 502,-544 46,-544"/>
<text text-anchor="start" x="53" y="-555.4" font-family="Arial" font-size="14.00" fill="#000000">product_id </text>
<text text-anchor="start" x="122.244" y="-555.4" font-family="Arial" font-size="14.00" fill="#666666">[text]</text>
<text text-anchor="start" x="152.589" y="-555.4" font-family="Arial" font-size="14.00" fill="#000000"> 原作ID</text>
<polygon fill="none" stroke="#000000" points="46,-514 46,-544 502,-544 502,-514 46,-514"/>
<text text-anchor="start" x="53" y="-525.4" font-family="Arial" font-size="14.00" fill="#000000">service </text>
<text text-anchor="start" x="101.223" y="-525.4" font-family="Arial" font-size="14.00" fill="#666666">[distribution_service]</text>
<text text-anchor="start" x="228.7938" y="-525.4" font-family="Arial" font-size="14.00" fill="#000000"> 配信サービス</text>
<polygon fill="none" stroke="#000000" points="46,-484 46,-514 502,-514 502,-484 46,-484"/>
<text text-anchor="start" x="53" y="-495.4" font-family="Arial" font-size="14.00" fill="#000000">url </text>
<text text-anchor="start" x="72.4404" y="-495.4" font-family="Arial" font-size="14.00" fill="#666666">[text]</text>
<text text-anchor="start" x="102.7854" y="-495.4" font-family="Arial" font-size="14.00" fill="#000000"> URL</text>
<polygon fill="none" stroke="#000000" points="46,-454 46,-484 502,-484 502,-454 46,-454"/>
<text text-anchor="start" x="53" y="-465.4" font-family="Arial" font-size="14.00" fill="#000000">created_at </text>
<text text-anchor="start" x="123.028" y="-465.4" font-family="Arial" font-size="14.00" fill="#666666">[timestamp with time zone]</text>
<text text-anchor="start" x="288.7124" y="-465.4" font-family="Arial" font-size="14.00" fill="#000000"> 作成日時</text>
<polygon fill="none" stroke="#000000" points="46,-424 46,-454 502,-454 502,-424 46,-424"/>
<text text-anchor="start" x="53" y="-435.4" font-family="Arial" font-size="14.00" fill="#000000">updated_at </text>
<text text-anchor="start" x="126.9326" y="-435.4" font-family="Arial" font-size="14.00" fill="#666666">[timestamp with time zone]</text>
<text text-anchor="start" x="292.617" y="-435.4" font-family="Arial" font-size="14.00" fill="#000000"> 更新日時</text>
<polygon fill="none" stroke="#000000" stroke-width="3" points="44.5,-422.5 44.5,-651.5 503.5,-651.5 503.5,-422.5 44.5,-422.5"/>
</g>
<!-- public.products -->
<g id="node2" class="node">
<title>public.products</title>
<polygon fill="#efefef" stroke="transparent" points="102,-253 102,-299 446,-299 446,-253 102,-253"/>
<polygon fill="none" stroke="#000000" points="102,-253 102,-299 446,-299 446,-253 102,-253"/>
<text text-anchor="start" x="149.7018" y="-276.8" font-family="Arial Bold" font-size="18.00" fill="#000000">public.products</text>
<text text-anchor="start" x="270.7302" y="-276.8" font-family="Arial" font-size="14.00" fill="#000000">    </text>
<text text-anchor="start" x="304.935" y="-276.8" font-family="Arial" font-size="14.00" fill="#666666">[BASE TABLE]</text>
<text text-anchor="start" x="257.2735" y="-262.4" font-family="Arial" font-size="14.00" fill="#333333">原作</text>
<polygon fill="none" stroke="#000000" points="102,-223 102,-253 446,-253 446,-223 102,-223"/>
<text text-anchor="start" x="109" y="-234.4" font-family="Arial" font-size="14.00" fill="#000000">id    </text>
<text text-anchor="start" x="154.094" y="-234.4" font-family="Arial" font-size="14.00" fill="#666666">[text]</text>
<text text-anchor="start" x="184.439" y="-234.4" font-family="Arial" font-size="14.00" fill="#000000"> 原作ID</text>
<polygon fill="none" stroke="#000000" points="102,-193 102,-223 446,-223 446,-193 102,-193"/>
<text text-anchor="start" x="109" y="-204.4" font-family="Arial" font-size="14.00" fill="#000000">name    </text>
<text text-anchor="start" x="178.2132" y="-204.4" font-family="Arial" font-size="14.00" fill="#666666">[text]</text>
<text text-anchor="start" x="208.5582" y="-204.4" font-family="Arial" font-size="14.00" fill="#000000"> 名前</text>
<polygon fill="none" stroke="#000000" points="102,-163 102,-193 446,-193 446,-163 102,-163"/>
<text text-anchor="start" x="109" y="-174.4" font-family="Arial" font-size="14.00" fill="#000000">short_name    </text>
<text text-anchor="start" x="217.1122" y="-174.4" font-family="Arial" font-size="14.00" fill="#666666">[text]</text>
<text text-anchor="start" x="247.4572" y="-174.4" font-family="Arial" font-size="14.00" fill="#000000"> 短い名前</text>
<polygon fill="none" stroke="#000000" points="102,-133 102,-163 446,-163 446,-133 102,-133"/>
<text text-anchor="start" x="109" y="-144.4" font-family="Arial" font-size="14.00" fill="#000000">product_type    </text>
<text text-anchor="start" x="224.1248" y="-144.4" font-family="Arial" font-size="14.00" fill="#666666">[product_type]</text>
<text text-anchor="start" x="312.826" y="-144.4" font-family="Arial" font-size="14.00" fill="#000000"> 原作種別</text>
<polygon fill="none" stroke="#000000" points="102,-103 102,-133 446,-133 446,-103 102,-103"/>
<text text-anchor="start" x="109" y="-114.4" font-family="Arial" font-size="14.00" fill="#000000">series_number    </text>
<text text-anchor="start" x="235.7714" y="-114.4" font-family="Arial" font-size="14.00" fill="#666666">[numeric(5,2)]</text>
<text text-anchor="start" x="322.1052" y="-114.4" font-family="Arial" font-size="14.00" fill="#000000"> シリーズ番号</text>
<polygon fill="none" stroke="#000000" points="102,-73 102,-103 446,-103 446,-73 102,-73"/>
<text text-anchor="start" x="108.6971" y="-84.4" font-family="Arial" font-size="14.00" fill="#000000">created_at    </text>
<text text-anchor="start" x="209.0393" y="-84.4" font-family="Arial" font-size="14.00" fill="#666666">[timestamp with time zone]</text>
<text text-anchor="start" x="374.7237" y="-84.4" font-family="Arial" font-size="14.00" fill="#000000"> 作成日時</text>
<polygon fill="none" stroke="#000000" points="102,-43 102,-73 446,-73 446,-43 102,-43"/>
<text text-anchor="start" x="109" y="-54.4" font-family="Arial" font-size="14.00" fill="#000000">updated_at    </text>
<text text-anchor="start" x="213.2468" y="-54.4" font-family="Arial" font-size="14.00" fill="#666666">[timestamp with time zone]</text>
<text text-anchor="start" x="378.9312" y="-54.4" font-family="Arial" font-size="14.00" fill="#000000"> 更新日時</text>
</g>
<!-- public.product_distribution_service_urls&#45;&gt;public.products -->
<g id="edge1" class="edge">
<title>public.product_distribution_service_urls:product_id&#45;&gt;public.products:id</title>
<path fill="none" stroke="#000000" d="M512.0526,-556.6007C568.6809,-527.2262 514.7336,-238 446,-238"/>
<polygon fill="#000000" stroke="#000000" points="511.7268,-556.6784 500.9553,-554.6229 506.8634,-557.8392 502,-559 502,-559 502,-559 506.8634,-557.8392 503.0447,-563.3771 511.7268,-556.6784 511.7268,-556.6784"/>
<text text-anchor="start" x="509.4375" y="-569" font-family="Arial" font-size="10.00" fill="#000000">FOREIGN KEY (product_id) REFERENCES products(id)</text>
</g>
</g>
</svg>
