<?xml version="1.0" encoding="UTF-8" standalone="no"?>
<!DOCTYPE svg PUBLIC "-//W3C//DTD SVG 1.1//EN"
 "http://www.w3.org/Graphics/SVG/1.1/DTD/svg11.dtd">
<!-- Generated by graphviz version 2.40.1 (20161225.0304)
 -->
<!-- Title: public.track_details Pages: 1 -->
<svg width="875pt" height="914pt"
 viewBox="0.00 0.00 874.50 914.00" xmlns="http://www.w3.org/2000/svg" xmlns:xlink="http://www.w3.org/1999/xlink">
<g id="graph0" class="graph" transform="scale(1 1) rotate(0) translate(4 910)">
<title>public.track_details</title>
<polygon fill="#ffffff" stroke="transparent" points="-4,4 -4,-910 870.5,-910 870.5,4 -4,4"/>
<!-- public.track_details -->
<g id="node1" class="node">
<title>public.track_details</title>
<polygon fill="#efefef" stroke="transparent" points="46.5,-814 46.5,-860 625.5,-860 625.5,-814 46.5,-814"/>
<polygon fill="none" stroke="#000000" points="46.5,-814 46.5,-860 625.5,-860 625.5,-814 46.5,-814"/>
<text text-anchor="start" x="210.8605" y="-837.8" font-family="Arial Bold" font-size="18.00" fill="#000000">public.track_details</text>
<text text-anchor="start" x="363.8857" y="-837.8" font-family="Arial" font-size="14.00" fill="#000000"> </text>
<text text-anchor="start" x="367.7763" y="-837.8" font-family="Arial" font-size="14.00" fill="#666666">[BASE TABLE]</text>
<text text-anchor="start" x="294.1799" y="-823.4" font-family="Arial" font-size="14.00" fill="#333333">トラック詳細</text>
<polygon fill="none" stroke="#000000" points="46.5,-784 46.5,-814 625.5,-814 625.5,-784 46.5,-784"/>
<text text-anchor="start" x="53.5" y="-795.4" font-family="Arial" font-size="14.00" fill="#000000">track_id </text>
<text text-anchor="start" x="106.3962" y="-795.4" font-family="Arial" font-size="14.00" fill="#666666">[text]</text>
<text text-anchor="start" x="136.7412" y="-795.4" font-family="Arial" font-size="14.00" fill="#000000"> トラックID</text>
<polygon fill="none" stroke="#000000" points="46.5,-754 46.5,-784 625.5,-784 625.5,-754 46.5,-754"/>
<text text-anchor="start" x="53.5" y="-765.4" font-family="Arial" font-size="14.00" fill="#000000">length </text>
<text text-anchor="start" x="95.5182" y="-765.4" font-family="Arial" font-size="14.00" fill="#666666">[integer]</text>
<text text-anchor="start" x="146.0876" y="-765.4" font-family="Arial" font-size="14.00" fill="#000000"> 曲の長さ(秒)</text>
<polygon fill="none" stroke="#000000" points="46.5,-724 46.5,-754 625.5,-754 625.5,-724 46.5,-724"/>
<text text-anchor="start" x="53.5" y="-735.4" font-family="Arial" font-size="14.00" fill="#000000">bpm </text>
<text text-anchor="start" x="84.6164" y="-735.4" font-family="Arial" font-size="14.00" fill="#666666">[integer]</text>
<text text-anchor="start" x="135.1858" y="-735.4" font-family="Arial" font-size="14.00" fill="#000000"> BPM</text>
<polygon fill="none" stroke="#000000" points="46.5,-694 46.5,-724 625.5,-724 625.5,-694 46.5,-694"/>
<text text-anchor="start" x="53.5" y="-705.4" font-family="Arial" font-size="14.00" fill="#000000">display_composer </text>
<text text-anchor="start" x="170.1858" y="-705.4" font-family="Arial" font-size="14.00" fill="#666666">[text]</text>
<text text-anchor="start" x="200.5308" y="-705.4" font-family="Arial" font-size="14.00" fill="#000000"> 作曲者表示用(1度しか使用しない別名義などで使用する)</text>
<polygon fill="none" stroke="#000000" points="46.5,-664 46.5,-694 625.5,-694 625.5,-664 46.5,-664"/>
<text text-anchor="start" x="53.5" y="-675.4" font-family="Arial" font-size="14.00" fill="#000000">display_arranger </text>
<text text-anchor="start" x="161.629" y="-675.4" font-family="Arial" font-size="14.00" fill="#666666">[text]</text>
<text text-anchor="start" x="191.974" y="-675.4" font-family="Arial" font-size="14.00" fill="#000000"> 編曲者表示用(1度しか使用しない別名義などで使用する)</text>
<polygon fill="none" stroke="#000000" points="46.5,-634 46.5,-664 625.5,-664 625.5,-634 46.5,-634"/>
<text text-anchor="start" x="53.5" y="-645.4" font-family="Arial" font-size="14.00" fill="#000000">display_rearranger </text>
<text text-anchor="start" x="174.0722" y="-645.4" font-family="Arial" font-size="14.00" fill="#666666">[text]</text>
<text text-anchor="start" x="204.4172" y="-645.4" font-family="Arial" font-size="14.00" fill="#000000"> 再編曲者表示用(1度しか使用しない別名義などで使用する)</text>
<polygon fill="none" stroke="#000000" points="46.5,-604 46.5,-634 625.5,-634 625.5,-604 46.5,-604"/>
<text text-anchor="start" x="53.5" y="-615.4" font-family="Arial" font-size="14.00" fill="#000000">display_lyricist </text>
<text text-anchor="start" x="147.6052" y="-615.4" font-family="Arial" font-size="14.00" fill="#666666">[text]</text>
<text text-anchor="start" x="177.9502" y="-615.4" font-family="Arial" font-size="14.00" fill="#000000"> 作詞者表示用(1度しか使用しない別名義などで使用する)</text>
<polygon fill="none" stroke="#000000" points="46.5,-574 46.5,-604 625.5,-604 625.5,-574 46.5,-574"/>
<text text-anchor="start" x="53.4653" y="-585.4" font-family="Arial" font-size="14.00" fill="#000000">display_vocalist </text>
<text text-anchor="start" x="155.3685" y="-585.4" font-family="Arial" font-size="14.00" fill="#666666">[text]</text>
<text text-anchor="start" x="185.7135" y="-585.4" font-family="Arial" font-size="14.00" fill="#000000"> ボーカリスト表示用(1度しか使用しない別名義などで使用する)</text>
<polygon fill="none" stroke="#000000" points="46.5,-544 46.5,-574 625.5,-574 625.5,-544 46.5,-544"/>
<text text-anchor="start" x="53.5" y="-555.4" font-family="Arial" font-size="14.00" fill="#000000">display_original_song </text>
<text text-anchor="start" x="191.9754" y="-555.4" font-family="Arial" font-size="14.00" fill="#666666">[text]</text>
<text text-anchor="start" x="222.3204" y="-555.4" font-family="Arial" font-size="14.00" fill="#000000"> 原曲表示用(東方以外の原曲などで使用する)</text>
<polygon fill="none" stroke="#000000" points="46.5,-514 46.5,-544 625.5,-544 625.5,-514 46.5,-514"/>
<text text-anchor="start" x="53.5" y="-525.4" font-family="Arial" font-size="14.00" fill="#000000">created_at </text>
<text text-anchor="start" x="123.528" y="-525.4" font-family="Arial" font-size="14.00" fill="#666666">[timestamp with time zone]</text>
<text text-anchor="start" x="289.2124" y="-525.4" font-family="Arial" font-size="14.00" fill="#000000"> 作成日時</text>
<polygon fill="none" stroke="#000000" points="46.5,-484 46.5,-514 625.5,-514 625.5,-484 46.5,-484"/>
<text text-anchor="start" x="53.5" y="-495.4" font-family="Arial" font-size="14.00" fill="#000000">updated_at </text>
<text text-anchor="start" x="127.4326" y="-495.4" font-family="Arial" font-size="14.00" fill="#666666">[timestamp with time zone]</text>
<text text-anchor="start" x="293.117" y="-495.4" font-family="Arial" font-size="14.00" fill="#000000"> 更新日時</text>
<polygon fill="none" stroke="#000000" stroke-width="3" points="44.5,-482.5 44.5,-861.5 626.5,-861.5 626.5,-482.5 44.5,-482.5"/>
</g>
<!-- public.tracks -->
<g id="node2" class="node">
<title>public.tracks</title>
<polygon fill="#efefef" stroke="transparent" points="98.5,-313 98.5,-359 574.5,-359 574.5,-313 98.5,-313"/>
<polygon fill="none" stroke="#000000" points="98.5,-313 98.5,-359 574.5,-359 574.5,-313 98.5,-313"/>
<text text-anchor="start" x="237.8682" y="-336.8" font-family="Arial Bold" font-size="18.00" fill="#000000">public.tracks</text>
<text text-anchor="start" x="337.878" y="-336.8" font-family="Arial" font-size="14.00" fill="#000000"> </text>
<text text-anchor="start" x="341.7686" y="-336.8" font-family="Arial" font-size="14.00" fill="#666666">[BASE TABLE]</text>
<text text-anchor="start" x="309.6347" y="-322.4" font-family="Arial" font-size="14.00" fill="#333333">トラック</text>
<polygon fill="none" stroke="#000000" points="98.5,-283 98.5,-313 574.5,-313 574.5,-283 98.5,-283"/>
<text text-anchor="start" x="105.5" y="-294.4" font-family="Arial" font-size="14.00" fill="#000000">id </text>
<text text-anchor="start" x="120.2798" y="-294.4" font-family="Arial" font-size="14.00" fill="#666666">[text]</text>
<polygon fill="none" stroke="#000000" points="98.5,-253 98.5,-283 574.5,-283 574.5,-253 98.5,-253"/>
<text text-anchor="start" x="105.5" y="-264.4" font-family="Arial" font-size="14.00" fill="#000000">album_id </text>
<text text-anchor="start" x="166.1774" y="-264.4" font-family="Arial" font-size="14.00" fill="#666666">[text]</text>
<text text-anchor="start" x="196.5224" y="-264.4" font-family="Arial" font-size="14.00" fill="#000000"> アルバムID</text>
<polygon fill="none" stroke="#000000" points="98.5,-223 98.5,-253 574.5,-253 574.5,-223 98.5,-223"/>
<text text-anchor="start" x="105.5" y="-234.4" font-family="Arial" font-size="14.00" fill="#000000">name </text>
<text text-anchor="start" x="144.399" y="-234.4" font-family="Arial" font-size="14.00" fill="#666666">[text]</text>
<text text-anchor="start" x="174.744" y="-234.4" font-family="Arial" font-size="14.00" fill="#000000"> 名前</text>
<polygon fill="none" stroke="#000000" points="98.5,-193 98.5,-223 574.5,-223 574.5,-193 98.5,-193"/>
<text text-anchor="start" x="105.5" y="-204.4" font-family="Arial" font-size="14.00" fill="#000000">disc_number </text>
<text text-anchor="start" x="189.514" y="-204.4" font-family="Arial" font-size="14.00" fill="#666666">[integer]</text>
<text text-anchor="start" x="240.0834" y="-204.4" font-family="Arial" font-size="14.00" fill="#000000"> ディスク番号(default: 1)</text>
<polygon fill="none" stroke="#000000" points="98.5,-163 98.5,-193 574.5,-193 574.5,-163 98.5,-163"/>
<text text-anchor="start" x="105.5" y="-174.4" font-family="Arial" font-size="14.00" fill="#000000">track_number </text>
<text text-anchor="start" x="194.9586" y="-174.4" font-family="Arial" font-size="14.00" fill="#666666">[integer]</text>
<text text-anchor="start" x="245.528" y="-174.4" font-family="Arial" font-size="14.00" fill="#000000"> トラック番号</text>
<polygon fill="none" stroke="#000000" points="98.5,-133 98.5,-163 574.5,-163 574.5,-133 98.5,-133"/>
<text text-anchor="start" x="105.3425" y="-144.4" font-family="Arial" font-size="14.00" fill="#000000">release_date </text>
<text text-anchor="start" x="190.1517" y="-144.4" font-family="Arial" font-size="14.00" fill="#666666">[date]</text>
<text text-anchor="start" x="225.1713" y="-144.4" font-family="Arial" font-size="14.00" fill="#000000"> 頒布日(アルバムの頒布日と異なる場合に使用する)</text>
<polygon fill="none" stroke="#000000" points="98.5,-103 98.5,-133 574.5,-133 574.5,-103 98.5,-103"/>
<text text-anchor="start" x="105.5" y="-114.4" font-family="Arial" font-size="14.00" fill="#000000">search_enabled </text>
<text text-anchor="start" x="208.9838" y="-114.4" font-family="Arial" font-size="14.00" fill="#666666">[boolean]</text>
<text text-anchor="start" x="266.5672" y="-114.4" font-family="Arial" font-size="14.00" fill="#000000"> 検索対象とするか(default: true)</text>
<polygon fill="none" stroke="#000000" points="98.5,-73 98.5,-103 574.5,-103 574.5,-73 98.5,-73"/>
<text text-anchor="start" x="105.5" y="-84.4" font-family="Arial" font-size="14.00" fill="#000000">created_at </text>
<text text-anchor="start" x="175.528" y="-84.4" font-family="Arial" font-size="14.00" fill="#666666">[timestamp with time zone]</text>
<text text-anchor="start" x="341.2124" y="-84.4" font-family="Arial" font-size="14.00" fill="#000000"> 作成日時</text>
<polygon fill="none" stroke="#000000" points="98.5,-43 98.5,-73 574.5,-73 574.5,-43 98.5,-43"/>
<text text-anchor="start" x="105.5" y="-54.4" font-family="Arial" font-size="14.00" fill="#000000">updated_at </text>
<text text-anchor="start" x="179.4326" y="-54.4" font-family="Arial" font-size="14.00" fill="#666666">[timestamp with time zone]</text>
<text text-anchor="start" x="345.117" y="-54.4" font-family="Arial" font-size="14.00" fill="#000000"> 更新日時</text>
</g>
<!-- public.track_details&#45;&gt;public.tracks -->
<g id="edge1" class="edge">
<title>public.track_details:track_id&#45;&gt;public.tracks:id</title>
<path fill="none" stroke="#000000" d="M635.6783,-797.219C703.3754,-772.3255 677.7987,-493.9932 625.5,-438 545.3753,-352.2151 178.6247,-487.7849 98.5,-402 66.9494,-368.2206 52.2778,-298 98.5,-298"/>
<polygon fill="#000000" stroke="#000000" points="635.3503,-797.2763 624.7243,-794.5673 630.4252,-798.1381 625.5,-799 625.5,-799 625.5,-799 630.4252,-798.1381 626.2757,-803.4327 635.3503,-797.2763 635.3503,-797.2763"/>
<text text-anchor="start" x="632.6145" y="-809" font-family="Arial" font-size="10.00" fill="#000000">FOREIGN KEY (track_id) REFERENCES tracks(id)</text>
</g>
</g>
</svg>
