<?xml version="1.0" encoding="UTF-8" standalone="no"?>
<!DOCTYPE svg PUBLIC "-//W3C//DTD SVG 1.1//EN"
 "http://www.w3.org/Graphics/SVG/1.1/DTD/svg11.dtd">
<!-- Generated by graphviz version 2.40.1 (20161225.0304)
 -->
<!-- Title: public.track_distribution_service_urls Pages: 1 -->
<svg width="784pt" height="1034pt"
 viewBox="0.00 0.00 783.50 1034.00" xmlns="http://www.w3.org/2000/svg" xmlns:xlink="http://www.w3.org/1999/xlink">
<g id="graph0" class="graph" transform="scale(1 1) rotate(0) translate(4 1030)">
<title>public.track_distribution_service_urls</title>
<polygon fill="#ffffff" stroke="transparent" points="-4,4 -4,-1030 779.5,-1030 779.5,4 -4,4"/>
<!-- public.track_distribution_service_urls -->
<g id="node1" class="node">
<title>public.track_distribution_service_urls</title>
<polygon fill="#efefef" stroke="transparent" points="241,-934 241,-980 646,-980 646,-934 241,-934"/>
<polygon fill="none" stroke="#000000" points="241,-934 241,-980 646,-980 646,-934 241,-934"/>
<text text-anchor="start" x="247.8581" y="-957.8" font-family="Arial Bold" font-size="18.00" fill="#000000">public.track_distribution_service_urls</text>
<text text-anchor="start" x="541.8881" y="-957.8" font-family="Arial" font-size="14.00" fill="#000000"> </text>
<text text-anchor="start" x="545.7787" y="-957.8" font-family="Arial" font-size="14.00" fill="#666666">[BASE TABLE]</text>
<text text-anchor="start" x="359.6365" y="-943.4" font-family="Arial" font-size="14.00" fill="#333333">楽曲配信サービスURL</text>
<polygon fill="none" stroke="#000000" points="241,-904 241,-934 646,-934 646,-904 241,-904"/>
<text text-anchor="start" x="248" y="-915.4" font-family="Arial" font-size="14.00" fill="#000000">id </text>
<text text-anchor="start" x="262.7798" y="-915.4" font-family="Arial" font-size="14.00" fill="#666666">[text]</text>
<polygon fill="none" stroke="#000000" points="241,-874 241,-904 646,-904 646,-874 241,-874"/>
<text text-anchor="start" x="248" y="-885.4" font-family="Arial" font-size="14.00" fill="#000000">track_id </text>
<text text-anchor="start" x="300.8962" y="-885.4" font-family="Arial" font-size="14.00" fill="#666666">[text]</text>
<text text-anchor="start" x="331.2412" y="-885.4" font-family="Arial" font-size="14.00" fill="#000000"> トラックID</text>
<polygon fill="none" stroke="#000000" points="241,-844 241,-874 646,-874 646,-844 241,-844"/>
<text text-anchor="start" x="248" y="-855.4" font-family="Arial" font-size="14.00" fill="#000000">service </text>
<text text-anchor="start" x="296.223" y="-855.4" font-family="Arial" font-size="14.00" fill="#666666">[distribution_service]</text>
<text text-anchor="start" x="423.7938" y="-855.4" font-family="Arial" font-size="14.00" fill="#000000"> 配信サービス</text>
<polygon fill="none" stroke="#000000" points="241,-814 241,-844 646,-844 646,-814 241,-814"/>
<text text-anchor="start" x="248" y="-825.4" font-family="Arial" font-size="14.00" fill="#000000">url </text>
<text text-anchor="start" x="267.4404" y="-825.4" font-family="Arial" font-size="14.00" fill="#666666">[text]</text>
<text text-anchor="start" x="297.7854" y="-825.4" font-family="Arial" font-size="14.00" fill="#000000"> URL</text>
<polygon fill="none" stroke="#000000" points="241,-784 241,-814 646,-814 646,-784 241,-784"/>
<text text-anchor="start" x="248" y="-795.4" font-family="Arial" font-size="14.00" fill="#000000">created_at </text>
<text text-anchor="start" x="318.028" y="-795.4" font-family="Arial" font-size="14.00" fill="#666666">[timestamp with time zone]</text>
<text text-anchor="start" x="483.7124" y="-795.4" font-family="Arial" font-size="14.00" fill="#000000"> 作成日時</text>
<polygon fill="none" stroke="#000000" points="241,-754 241,-784 646,-784 646,-754 241,-754"/>
<text text-anchor="start" x="248" y="-765.4" font-family="Arial" font-size="14.00" fill="#000000">updated_at </text>
<text text-anchor="start" x="321.9326" y="-765.4" font-family="Arial" font-size="14.00" fill="#666666">[timestamp with time zone]</text>
<text text-anchor="start" x="487.617" y="-765.4" font-family="Arial" font-size="14.00" fill="#000000"> 更新日時</text>
<polygon fill="none" stroke="#000000" stroke-width="3" points="239,-752.5 239,-981.5 647,-981.5 647,-752.5 239,-752.5"/>
</g>
<!-- public.tracks -->
<g id="node2" class="node">
<title>public.tracks</title>
<polygon fill="#efefef" stroke="transparent" points="154,-583 154,-629 733,-629 733,-583 154,-583"/>
<polygon fill="none" stroke="#000000" points="154,-583 154,-629 733,-629 733,-583 154,-583"/>
<text text-anchor="start" x="344.8682" y="-606.8" font-family="Arial Bold" font-size="18.00" fill="#000000">public.tracks</text>
<text text-anchor="start" x="444.878" y="-606.8" font-family="Arial" font-size="14.00" fill="#000000"> </text>
<text text-anchor="start" x="448.7686" y="-606.8" font-family="Arial" font-size="14.00" fill="#666666">[BASE TABLE]</text>
<text text-anchor="start" x="416.6347" y="-592.4" font-family="Arial" font-size="14.00" fill="#333333">トラック</text>
<polygon fill="none" stroke="#000000" points="154,-553 154,-583 733,-583 733,-553 154,-553"/>
<text text-anchor="start" x="161" y="-564.4" font-family="Arial" font-size="14.00" fill="#000000">id </text>
<text text-anchor="start" x="175.7798" y="-564.4" font-family="Arial" font-size="14.00" fill="#666666">[text]</text>
<polygon fill="none" stroke="#000000" points="154,-523 154,-553 733,-553 733,-523 154,-523"/>
<text text-anchor="start" x="161" y="-534.4" font-family="Arial" font-size="14.00" fill="#000000">album_id </text>
<text text-anchor="start" x="221.6774" y="-534.4" font-family="Arial" font-size="14.00" fill="#666666">[text]</text>
<text text-anchor="start" x="252.0224" y="-534.4" font-family="Arial" font-size="14.00" fill="#000000"> アルバムID</text>
<polygon fill="none" stroke="#000000" points="154,-493 154,-523 733,-523 733,-493 154,-493"/>
<text text-anchor="start" x="161" y="-504.4" font-family="Arial" font-size="14.00" fill="#000000">name </text>
<text text-anchor="start" x="199.899" y="-504.4" font-family="Arial" font-size="14.00" fill="#666666">[text]</text>
<text text-anchor="start" x="230.244" y="-504.4" font-family="Arial" font-size="14.00" fill="#000000"> 名前</text>
<polygon fill="none" stroke="#000000" points="154,-463 154,-493 733,-493 733,-463 154,-463"/>
<text text-anchor="start" x="161" y="-474.4" font-family="Arial" font-size="14.00" fill="#000000">name_reading </text>
<text text-anchor="start" x="254.3618" y="-474.4" font-family="Arial" font-size="14.00" fill="#666666">[text]</text>
<text text-anchor="start" x="284.7068" y="-474.4" font-family="Arial" font-size="14.00" fill="#000000"> 名前読み方</text>
<polygon fill="none" stroke="#000000" points="154,-433 154,-463 733,-463 733,-433 154,-433"/>
<text text-anchor="start" x="161" y="-444.4" font-family="Arial" font-size="14.00" fill="#000000">disc_number </text>
<text text-anchor="start" x="245.014" y="-444.4" font-family="Arial" font-size="14.00" fill="#666666">[integer]</text>
<text text-anchor="start" x="295.5834" y="-444.4" font-family="Arial" font-size="14.00" fill="#000000"> ディスク番号(default: 1)</text>
<polygon fill="none" stroke="#000000" points="154,-403 154,-433 733,-433 733,-403 154,-403"/>
<text text-anchor="start" x="161" y="-414.4" font-family="Arial" font-size="14.00" fill="#000000">track_number </text>
<text text-anchor="start" x="250.4586" y="-414.4" font-family="Arial" font-size="14.00" fill="#666666">[integer]</text>
<text text-anchor="start" x="301.028" y="-414.4" font-family="Arial" font-size="14.00" fill="#000000"> トラック番号</text>
<polygon fill="none" stroke="#000000" points="154,-373 154,-403 733,-403 733,-373 154,-373"/>
<text text-anchor="start" x="161" y="-384.4" font-family="Arial" font-size="14.00" fill="#000000">release_date </text>
<text text-anchor="start" x="245.8092" y="-384.4" font-family="Arial" font-size="14.00" fill="#666666">[date]</text>
<text text-anchor="start" x="280.8288" y="-384.4" font-family="Arial" font-size="14.00" fill="#000000"> 頒布日(アルバムの頒布日と異なる場合に使用する)</text>
<polygon fill="none" stroke="#000000" points="154,-343 154,-373 733,-373 733,-343 154,-343"/>
<text text-anchor="start" x="161" y="-354.4" font-family="Arial" font-size="14.00" fill="#000000">search_enabled </text>
<text text-anchor="start" x="264.4838" y="-354.4" font-family="Arial" font-size="14.00" fill="#666666">[boolean]</text>
<text text-anchor="start" x="322.0672" y="-354.4" font-family="Arial" font-size="14.00" fill="#000000"> 検索対象とするか(default: true)</text>
<polygon fill="none" stroke="#000000" points="154,-313 154,-343 733,-343 733,-313 154,-313"/>
<text text-anchor="start" x="161" y="-324.4" font-family="Arial" font-size="14.00" fill="#000000">length </text>
<text text-anchor="start" x="203.0182" y="-324.4" font-family="Arial" font-size="14.00" fill="#666666">[integer]</text>
<text text-anchor="start" x="253.5876" y="-324.4" font-family="Arial" font-size="14.00" fill="#000000"> 曲の長さ(秒)</text>
<polygon fill="none" stroke="#000000" points="154,-283 154,-313 733,-313 733,-283 154,-283"/>
<text text-anchor="start" x="161" y="-294.4" font-family="Arial" font-size="14.00" fill="#000000">bpm </text>
<text text-anchor="start" x="192.1164" y="-294.4" font-family="Arial" font-size="14.00" fill="#666666">[integer]</text>
<text text-anchor="start" x="242.6858" y="-294.4" font-family="Arial" font-size="14.00" fill="#000000"> BPM</text>
<polygon fill="none" stroke="#000000" points="154,-253 154,-283 733,-283 733,-253 154,-253"/>
<text text-anchor="start" x="161" y="-264.4" font-family="Arial" font-size="14.00" fill="#000000">display_composer </text>
<text text-anchor="start" x="277.6858" y="-264.4" font-family="Arial" font-size="14.00" fill="#666666">[text]</text>
<text text-anchor="start" x="308.0308" y="-264.4" font-family="Arial" font-size="14.00" fill="#000000"> 作曲者表示用(1度しか使用しない別名義などで使用する)</text>
<polygon fill="none" stroke="#000000" points="154,-223 154,-253 733,-253 733,-223 154,-223"/>
<text text-anchor="start" x="161" y="-234.4" font-family="Arial" font-size="14.00" fill="#000000">display_arranger </text>
<text text-anchor="start" x="269.129" y="-234.4" font-family="Arial" font-size="14.00" fill="#666666">[text]</text>
<text text-anchor="start" x="299.474" y="-234.4" font-family="Arial" font-size="14.00" fill="#000000"> 編曲者表示用(1度しか使用しない別名義などで使用する)</text>
<polygon fill="none" stroke="#000000" points="154,-193 154,-223 733,-223 733,-193 154,-193"/>
<text text-anchor="start" x="161" y="-204.4" font-family="Arial" font-size="14.00" fill="#000000">display_rearranger </text>
<text text-anchor="start" x="281.5722" y="-204.4" font-family="Arial" font-size="14.00" fill="#666666">[text]</text>
<text text-anchor="start" x="311.9172" y="-204.4" font-family="Arial" font-size="14.00" fill="#000000"> 再編曲者表示用(1度しか使用しない別名義などで使用する)</text>
<polygon fill="none" stroke="#000000" points="154,-163 154,-193 733,-193 733,-163 154,-163"/>
<text text-anchor="start" x="161" y="-174.4" font-family="Arial" font-size="14.00" fill="#000000">display_lyricist </text>
<text text-anchor="start" x="255.1052" y="-174.4" font-family="Arial" font-size="14.00" fill="#666666">[text]</text>
<text text-anchor="start" x="285.4502" y="-174.4" font-family="Arial" font-size="14.00" fill="#000000"> 作詞者表示用(1度しか使用しない別名義などで使用する)</text>
<polygon fill="none" stroke="#000000" points="154,-133 154,-163 733,-163 733,-133 154,-133"/>
<text text-anchor="start" x="160.9653" y="-144.4" font-family="Arial" font-size="14.00" fill="#000000">display_vocalist </text>
<text text-anchor="start" x="262.8685" y="-144.4" font-family="Arial" font-size="14.00" fill="#666666">[text]</text>
<text text-anchor="start" x="293.2135" y="-144.4" font-family="Arial" font-size="14.00" fill="#000000"> ボーカリスト表示用(1度しか使用しない別名義などで使用する)</text>
<polygon fill="none" stroke="#000000" points="154,-103 154,-133 733,-133 733,-103 154,-103"/>
<text text-anchor="start" x="161" y="-114.4" font-family="Arial" font-size="14.00" fill="#000000">display_original_song </text>
<text text-anchor="start" x="299.4754" y="-114.4" font-family="Arial" font-size="14.00" fill="#666666">[text]</text>
<text text-anchor="start" x="329.8204" y="-114.4" font-family="Arial" font-size="14.00" fill="#000000"> 原曲表示用(東方以外の原曲などで使用する)</text>
<polygon fill="none" stroke="#000000" points="154,-73 154,-103 733,-103 733,-73 154,-73"/>
<text text-anchor="start" x="161" y="-84.4" font-family="Arial" font-size="14.00" fill="#000000">created_at </text>
<text text-anchor="start" x="231.028" y="-84.4" font-family="Arial" font-size="14.00" fill="#666666">[timestamp with time zone]</text>
<text text-anchor="start" x="396.7124" y="-84.4" font-family="Arial" font-size="14.00" fill="#000000"> 作成日時</text>
<polygon fill="none" stroke="#000000" points="154,-43 154,-73 733,-73 733,-43 154,-43"/>
<text text-anchor="start" x="161" y="-54.4" font-family="Arial" font-size="14.00" fill="#000000">updated_at </text>
<text text-anchor="start" x="234.9326" y="-54.4" font-family="Arial" font-size="14.00" fill="#666666">[timestamp with time zone]</text>
<text text-anchor="start" x="400.617" y="-54.4" font-family="Arial" font-size="14.00" fill="#000000"> 更新日時</text>
</g>
<!-- public.track_distribution_service_urls&#45;&gt;public.tracks -->
<g id="edge1" class="edge">
<title>public.track_distribution_service_urls:track_id&#45;&gt;public.tracks:id</title>
<path fill="none" stroke="#000000" d="M230.9764,-887.1149C159.6015,-860.8079 83.4132,-568 154,-568"/>
<polygon fill="#000000" stroke="#000000" points="231.1723,-887.1516 240.1682,-893.4225 236.0861,-888.0758 241,-889 241,-889 241,-889 236.0861,-888.0758 241.8318,-884.5775 231.1723,-887.1516 231.1723,-887.1516"/>
<text text-anchor="start" x="7.1145" y="-899" font-family="Arial" font-size="10.00" fill="#000000">FOREIGN KEY (track_id) REFERENCES tracks(id)</text>
</g>
</g>
</svg>
