<?xml version="1.0" encoding="UTF-8" standalone="no"?>
<!DOCTYPE svg PUBLIC "-//W3C//DTD SVG 1.1//EN"
 "http://www.w3.org/Graphics/SVG/1.1/DTD/svg11.dtd">
<!-- Generated by graphviz version 2.40.1 (20161225.0304)
 -->
<!-- Title: public.artists Pages: 1 -->
<svg width="2244pt" height="794pt"
 viewBox="0.00 0.00 2244.00 794.00" xmlns="http://www.w3.org/2000/svg" xmlns:xlink="http://www.w3.org/1999/xlink">
<g id="graph0" class="graph" transform="scale(1 1) rotate(0) translate(4 790)">
<title>public.artists</title>
<polygon fill="#ffffff" stroke="transparent" points="-4,4 -4,-790 2240,-790 2240,4 -4,4"/>
<!-- public.artists -->
<g id="node1" class="node">
<title>public.artists</title>
<polygon fill="#efefef" stroke="transparent" points="800,-406 800,-452 1422,-452 1422,-406 800,-406"/>
<polygon fill="none" stroke="#000000" points="800,-406 800,-452 1422,-452 1422,-406 800,-406"/>
<text text-anchor="start" x="997.2129" y="-429.8" font-family="Arial Bold" font-size="18.00" fill="#000000">public.artists</text>
<text text-anchor="start" x="1097.2191" y="-429.8" font-family="Arial" font-size="14.00" fill="#000000">    </text>
<text text-anchor="start" x="1131.4239" y="-429.8" font-family="Arial" font-size="14.00" fill="#666666">[BASE TABLE]</text>
<text text-anchor="start" x="1062.7889" y="-415.4" font-family="Arial" font-size="14.00" fill="#333333">アーティスト</text>
<polygon fill="none" stroke="#000000" points="800,-376 800,-406 1422,-406 1422,-376 800,-376"/>
<text text-anchor="start" x="807" y="-387.4" font-family="Arial" font-size="14.00" fill="#000000">id </text>
<text text-anchor="start" x="821.7798" y="-387.4" font-family="Arial" font-size="14.00" fill="#666666">[text]</text>
<polygon fill="none" stroke="#000000" points="800,-346 800,-376 1422,-376 1422,-346 800,-346"/>
<text text-anchor="start" x="807" y="-357.4" font-family="Arial" font-size="14.00" fill="#000000">name </text>
<text text-anchor="start" x="845.899" y="-357.4" font-family="Arial" font-size="14.00" fill="#666666">[text]</text>
<text text-anchor="start" x="876.244" y="-357.4" font-family="Arial" font-size="14.00" fill="#000000"> 名前</text>
<polygon fill="none" stroke="#000000" points="800,-316 800,-346 1422,-346 1422,-316 800,-316"/>
<text text-anchor="start" x="807" y="-327.4" font-family="Arial" font-size="14.00" fill="#000000">name_reading </text>
<text text-anchor="start" x="900.3618" y="-327.4" font-family="Arial" font-size="14.00" fill="#666666">[text]</text>
<text text-anchor="start" x="930.7068" y="-327.4" font-family="Arial" font-size="14.00" fill="#000000"> 名前読み方</text>
<polygon fill="none" stroke="#000000" points="800,-286 800,-316 1422,-316 1422,-286 800,-286"/>
<text text-anchor="start" x="806.5763" y="-297.4" font-family="Arial" font-size="14.00" fill="#000000">initial_letter_type </text>
<text text-anchor="start" x="915.4837" y="-297.4" font-family="Arial" font-size="14.00" fill="#666666">[initial_letter_type]</text>
<text text-anchor="start" x="1028.2817" y="-297.4" font-family="Arial" font-size="14.00" fill="#000000"> 頭文字の文字種別(symbol,number,alphabet,kana,kanji,other)</text>
<polygon fill="none" stroke="#000000" points="800,-256 800,-286 1422,-286 1422,-256 800,-256"/>
<text text-anchor="start" x="807" y="-267.4" font-family="Arial" font-size="14.00" fill="#000000">initial_letter_detail </text>
<text text-anchor="start" x="922.9032" y="-267.4" font-family="Arial" font-size="14.00" fill="#666666">[text]</text>
<text text-anchor="start" x="953.2482" y="-267.4" font-family="Arial" font-size="14.00" fill="#000000"> 頭文字の文字種別詳細</text>
<polygon fill="none" stroke="#000000" points="800,-226 800,-256 1422,-256 1422,-226 800,-226"/>
<text text-anchor="start" x="807" y="-237.4" font-family="Arial" font-size="14.00" fill="#000000">description </text>
<text text-anchor="start" x="878.568" y="-237.4" font-family="Arial" font-size="14.00" fill="#666666">[text]</text>
<text text-anchor="start" x="908.913" y="-237.4" font-family="Arial" font-size="14.00" fill="#000000"> 説明</text>
<polygon fill="none" stroke="#000000" points="800,-196 800,-226 1422,-226 1422,-196 800,-196"/>
<text text-anchor="start" x="807" y="-207.4" font-family="Arial" font-size="14.00" fill="#000000">url </text>
<text text-anchor="start" x="826.4404" y="-207.4" font-family="Arial" font-size="14.00" fill="#666666">[text]</text>
<text text-anchor="start" x="856.7854" y="-207.4" font-family="Arial" font-size="14.00" fill="#000000"> URL</text>
<polygon fill="none" stroke="#000000" points="800,-166 800,-196 1422,-196 1422,-166 800,-166"/>
<text text-anchor="start" x="807" y="-177.4" font-family="Arial" font-size="14.00" fill="#000000">blog_url </text>
<text text-anchor="start" x="860.6774" y="-177.4" font-family="Arial" font-size="14.00" fill="#666666">[text]</text>
<text text-anchor="start" x="891.0224" y="-177.4" font-family="Arial" font-size="14.00" fill="#000000"> ブログ URL</text>
<polygon fill="none" stroke="#000000" points="800,-136 800,-166 1422,-166 1422,-136 800,-136"/>
<text text-anchor="start" x="807" y="-147.4" font-family="Arial" font-size="14.00" fill="#000000">twitter_url </text>
<text text-anchor="start" x="871.5512" y="-147.4" font-family="Arial" font-size="14.00" fill="#666666">[text]</text>
<text text-anchor="start" x="901.8962" y="-147.4" font-family="Arial" font-size="14.00" fill="#000000"> Twitter URL</text>
<polygon fill="none" stroke="#000000" points="800,-106 800,-136 1422,-136 1422,-106 800,-106"/>
<text text-anchor="start" x="807" y="-117.4" font-family="Arial" font-size="14.00" fill="#000000">youtube_channel_url </text>
<text text-anchor="start" x="940.8288" y="-117.4" font-family="Arial" font-size="14.00" fill="#666666">[text]</text>
<text text-anchor="start" x="971.1738" y="-117.4" font-family="Arial" font-size="14.00" fill="#000000"> YouTubeチャンネル URL</text>
<polygon fill="none" stroke="#000000" points="800,-76 800,-106 1422,-106 1422,-76 800,-76"/>
<text text-anchor="start" x="807" y="-87.4" font-family="Arial" font-size="14.00" fill="#000000">created_at </text>
<text text-anchor="start" x="877.028" y="-87.4" font-family="Arial" font-size="14.00" fill="#666666">[timestamp with time zone]</text>
<text text-anchor="start" x="1042.7124" y="-87.4" font-family="Arial" font-size="14.00" fill="#000000"> 作成日時</text>
<polygon fill="none" stroke="#000000" points="800,-46 800,-76 1422,-76 1422,-46 800,-46"/>
<text text-anchor="start" x="807" y="-57.4" font-family="Arial" font-size="14.00" fill="#000000">updated_at </text>
<text text-anchor="start" x="880.9326" y="-57.4" font-family="Arial" font-size="14.00" fill="#666666">[timestamp with time zone]</text>
<text text-anchor="start" x="1046.617" y="-57.4" font-family="Arial" font-size="14.00" fill="#000000"> 更新日時</text>
<polygon fill="none" stroke="#000000" stroke-width="3" points="798.5,-44.5 798.5,-453.5 1423.5,-453.5 1423.5,-44.5 798.5,-44.5"/>
</g>
<!-- public.songs_composers -->
<g id="node2" class="node">
<title>public.songs_composers</title>
<polygon fill="#efefef" stroke="transparent" points="43,-697 43,-743 387,-743 387,-697 43,-697"/>
<polygon fill="none" stroke="#000000" points="43,-697 43,-743 387,-743 387,-697 43,-697"/>
<text text-anchor="start" x="52.1944" y="-720.8" font-family="Arial Bold" font-size="18.00" fill="#000000">public.songs_composers</text>
<text text-anchor="start" x="250.2376" y="-720.8" font-family="Arial" font-size="14.00" fill="#000000">    </text>
<text text-anchor="start" x="284.4424" y="-720.8" font-family="Arial" font-size="14.00" fill="#666666">[BASE TABLE]</text>
<text text-anchor="start" x="167.9271" y="-706.4" font-family="Arial" font-size="14.00" fill="#333333">楽曲作曲者</text>
<polygon fill="none" stroke="#000000" points="43,-667 43,-697 387,-697 387,-667 43,-667"/>
<text text-anchor="start" x="50" y="-678.4" font-family="Arial" font-size="14.00" fill="#000000">song_id    </text>
<text text-anchor="start" x="133.2244" y="-678.4" font-family="Arial" font-size="14.00" fill="#666666">[text]</text>
<text text-anchor="start" x="163.5694" y="-678.4" font-family="Arial" font-size="14.00" fill="#000000"> 楽曲ID</text>
<polygon fill="none" stroke="#000000" points="43,-637 43,-667 387,-667 387,-637 43,-637"/>
<text text-anchor="start" x="50" y="-648.4" font-family="Arial" font-size="14.00" fill="#000000">artist_id    </text>
<text text-anchor="start" x="133.2076" y="-648.4" font-family="Arial" font-size="14.00" fill="#666666">[text]</text>
<text text-anchor="start" x="163.5526" y="-648.4" font-family="Arial" font-size="14.00" fill="#000000"> 作曲者ID(アーティストID)</text>
<polygon fill="none" stroke="#000000" points="43,-607 43,-637 387,-637 387,-607 43,-607"/>
<text text-anchor="start" x="49.6971" y="-618.4" font-family="Arial" font-size="14.00" fill="#000000">created_at    </text>
<text text-anchor="start" x="150.0393" y="-618.4" font-family="Arial" font-size="14.00" fill="#666666">[timestamp with time zone]</text>
<text text-anchor="start" x="315.7237" y="-618.4" font-family="Arial" font-size="14.00" fill="#000000"> 作成日時</text>
<polygon fill="none" stroke="#000000" points="43,-577 43,-607 387,-607 387,-577 43,-577"/>
<text text-anchor="start" x="50" y="-588.4" font-family="Arial" font-size="14.00" fill="#000000">updated_at    </text>
<text text-anchor="start" x="154.2468" y="-588.4" font-family="Arial" font-size="14.00" fill="#666666">[timestamp with time zone]</text>
<text text-anchor="start" x="319.9312" y="-588.4" font-family="Arial" font-size="14.00" fill="#000000"> 更新日時</text>
</g>
<!-- public.songs_composers&#45;&gt;public.artists -->
<g id="edge1" class="edge">
<title>public.songs_composers:artist_id&#45;&gt;public.artists:id</title>
<path fill="none" stroke="#000000" d="M397.0989,-650.999C438.5098,-641.7771 400.4557,-571.1098 439,-534 563.3195,-414.3071 627.4262,-391 800,-391"/>
<polygon fill="#000000" stroke="#000000" points="396.9512,-651.0135 386.5561,-647.5219 391.9756,-651.5068 387,-652 387,-652 387,-652 391.9756,-651.5068 387.4439,-656.4781 396.9512,-651.0135 396.9512,-651.0135"/>
<text text-anchor="start" x="394.1165" y="-662" font-family="Arial" font-size="10.00" fill="#000000">FOREIGN KEY (artist_id) REFERENCES artists(id)</text>
</g>
<!-- public.songs_arrangers -->
<g id="node3" class="node">
<title>public.songs_arrangers</title>
<polygon fill="#efefef" stroke="transparent" points="491,-697 491,-743 835,-743 835,-697 491,-697"/>
<polygon fill="none" stroke="#000000" points="491,-697 491,-743 835,-743 835,-697 491,-697"/>
<text text-anchor="start" x="505.6952" y="-720.8" font-family="Arial Bold" font-size="18.00" fill="#000000">public.songs_arrangers</text>
<text text-anchor="start" x="692.7368" y="-720.8" font-family="Arial" font-size="14.00" fill="#000000">    </text>
<text text-anchor="start" x="726.9416" y="-720.8" font-family="Arial" font-size="14.00" fill="#666666">[BASE TABLE]</text>
<text text-anchor="start" x="618.5318" y="-706.4" font-family="Arial" font-size="14.00" fill="#333333">楽曲編曲者</text>
<polygon fill="none" stroke="#000000" points="491,-667 491,-697 835,-697 835,-667 491,-667"/>
<text text-anchor="start" x="498" y="-678.4" font-family="Arial" font-size="14.00" fill="#000000">song_id    </text>
<text text-anchor="start" x="581.2244" y="-678.4" font-family="Arial" font-size="14.00" fill="#666666">[text]</text>
<text text-anchor="start" x="611.5694" y="-678.4" font-family="Arial" font-size="14.00" fill="#000000"> 楽曲ID</text>
<polygon fill="none" stroke="#000000" points="491,-637 491,-667 835,-667 835,-637 491,-637"/>
<text text-anchor="start" x="498" y="-648.4" font-family="Arial" font-size="14.00" fill="#000000">artist_id    </text>
<text text-anchor="start" x="581.2076" y="-648.4" font-family="Arial" font-size="14.00" fill="#666666">[text]</text>
<text text-anchor="start" x="611.5526" y="-648.4" font-family="Arial" font-size="14.00" fill="#000000"> 編曲者ID(アーティストID)</text>
<polygon fill="none" stroke="#000000" points="491,-607 491,-637 835,-637 835,-607 491,-607"/>
<text text-anchor="start" x="497.6971" y="-618.4" font-family="Arial" font-size="14.00" fill="#000000">created_at    </text>
<text text-anchor="start" x="598.0393" y="-618.4" font-family="Arial" font-size="14.00" fill="#666666">[timestamp with time zone]</text>
<text text-anchor="start" x="763.7237" y="-618.4" font-family="Arial" font-size="14.00" fill="#000000"> 作成日時</text>
<polygon fill="none" stroke="#000000" points="491,-577 491,-607 835,-607 835,-577 491,-577"/>
<text text-anchor="start" x="498" y="-588.4" font-family="Arial" font-size="14.00" fill="#000000">updated_at    </text>
<text text-anchor="start" x="602.2468" y="-588.4" font-family="Arial" font-size="14.00" fill="#666666">[timestamp with time zone]</text>
<text text-anchor="start" x="767.9312" y="-588.4" font-family="Arial" font-size="14.00" fill="#000000"> 更新日時</text>
</g>
<!-- public.songs_arrangers&#45;&gt;public.artists -->
<g id="edge2" class="edge">
<title>public.songs_arrangers:artist_id&#45;&gt;public.artists:id</title>
<path fill="none" stroke="#000000" d="M845.3099,-650.8899C882.6596,-641.812 853.2638,-578.986 835,-534 826.6057,-513.3237 808.3943,-518.6763 800,-498 782.1111,-453.9373 752.4444,-391 800,-391"/>
<polygon fill="#000000" stroke="#000000" points="844.9425,-650.9294 834.5182,-647.5259 839.9713,-651.4647 835,-652 835,-652 835,-652 839.9713,-651.4647 835.4818,-656.4741 844.9425,-650.9294 844.9425,-650.9294"/>
<text text-anchor="start" x="842.1165" y="-662" font-family="Arial" font-size="10.00" fill="#000000">FOREIGN KEY (artist_id) REFERENCES artists(id)</text>
</g>
<!-- public.songs_rearrangers -->
<g id="node4" class="node">
<title>public.songs_rearrangers</title>
<polygon fill="#efefef" stroke="transparent" points="939,-697 939,-743 1283,-743 1283,-697 939,-697"/>
<polygon fill="none" stroke="#000000" points="939,-697 939,-743 1283,-743 1283,-697 939,-697"/>
<text text-anchor="start" x="945.696" y="-720.8" font-family="Arial Bold" font-size="18.00" fill="#000000">public.songs_rearrangers</text>
<text text-anchor="start" x="1148.736" y="-720.8" font-family="Arial" font-size="14.00" fill="#000000">    </text>
<text text-anchor="start" x="1182.9408" y="-720.8" font-family="Arial" font-size="14.00" fill="#666666">[BASE TABLE]</text>
<text text-anchor="start" x="1060.6959" y="-706.4" font-family="Arial" font-size="14.00" fill="#333333">楽曲再編曲者</text>
<polygon fill="none" stroke="#000000" points="939,-667 939,-697 1283,-697 1283,-667 939,-667"/>
<text text-anchor="start" x="946" y="-678.4" font-family="Arial" font-size="14.00" fill="#000000">song_id    </text>
<text text-anchor="start" x="1029.2244" y="-678.4" font-family="Arial" font-size="14.00" fill="#666666">[text]</text>
<text text-anchor="start" x="1059.5694" y="-678.4" font-family="Arial" font-size="14.00" fill="#000000"> 楽曲ID</text>
<polygon fill="none" stroke="#000000" points="939,-637 939,-667 1283,-667 1283,-637 939,-637"/>
<text text-anchor="start" x="946" y="-648.4" font-family="Arial" font-size="14.00" fill="#000000">artist_id    </text>
<text text-anchor="start" x="1029.2076" y="-648.4" font-family="Arial" font-size="14.00" fill="#666666">[text]</text>
<text text-anchor="start" x="1059.5526" y="-648.4" font-family="Arial" font-size="14.00" fill="#000000"> 再編曲者ID(アーティストID)</text>
<polygon fill="none" stroke="#000000" points="939,-607 939,-637 1283,-637 1283,-607 939,-607"/>
<text text-anchor="start" x="945.6971" y="-618.4" font-family="Arial" font-size="14.00" fill="#000000">created_at    </text>
<text text-anchor="start" x="1046.0393" y="-618.4" font-family="Arial" font-size="14.00" fill="#666666">[timestamp with time zone]</text>
<text text-anchor="start" x="1211.7237" y="-618.4" font-family="Arial" font-size="14.00" fill="#000000"> 作成日時</text>
<polygon fill="none" stroke="#000000" points="939,-577 939,-607 1283,-607 1283,-577 939,-577"/>
<text text-anchor="start" x="946" y="-588.4" font-family="Arial" font-size="14.00" fill="#000000">updated_at    </text>
<text text-anchor="start" x="1050.2468" y="-588.4" font-family="Arial" font-size="14.00" fill="#666666">[timestamp with time zone]</text>
<text text-anchor="start" x="1215.9312" y="-588.4" font-family="Arial" font-size="14.00" fill="#000000"> 更新日時</text>
</g>
<!-- public.songs_rearrangers&#45;&gt;public.artists -->
<g id="edge3" class="edge">
<title>public.songs_rearrangers:artist_id&#45;&gt;public.artists:id</title>
<path fill="none" stroke="#000000" d="M1293.1027,-651.0028C1334.5474,-641.8158 1296.7385,-571.4013 1335,-534 1364.9242,-504.7485 1398.7452,-532.7897 1422,-498 1448.4275,-458.4637 1469.5556,-391 1422,-391"/>
<polygon fill="#000000" stroke="#000000" points="1292.9516,-651.0177 1282.5579,-647.5218 1287.9758,-651.5088 1283,-652 1283,-652 1283,-652 1287.9758,-651.5088 1283.4421,-656.4782 1292.9516,-651.0177 1292.9516,-651.0177"/>
<text text-anchor="start" x="1290.1165" y="-662" font-family="Arial" font-size="10.00" fill="#000000">FOREIGN KEY (artist_id) REFERENCES artists(id)</text>
</g>
<!-- public.songs_lyricists -->
<g id="node5" class="node">
<title>public.songs_lyricists</title>
<polygon fill="#efefef" stroke="transparent" points="1387,-697 1387,-743 1731,-743 1731,-697 1387,-697"/>
<polygon fill="none" stroke="#000000" points="1387,-697 1387,-743 1731,-743 1731,-697 1387,-697"/>
<text text-anchor="start" x="1410.7105" y="-720.8" font-family="Arial Bold" font-size="18.00" fill="#000000">public.songs_lyricists</text>
<text text-anchor="start" x="1579.7215" y="-720.8" font-family="Arial" font-size="14.00" fill="#000000">    </text>
<text text-anchor="start" x="1613.9263" y="-720.8" font-family="Arial" font-size="14.00" fill="#666666">[BASE TABLE]</text>
<text text-anchor="start" x="1512.5361" y="-706.4" font-family="Arial" font-size="14.00" fill="#333333">楽曲作詞者</text>
<polygon fill="none" stroke="#000000" points="1387,-667 1387,-697 1731,-697 1731,-667 1387,-667"/>
<text text-anchor="start" x="1394" y="-678.4" font-family="Arial" font-size="14.00" fill="#000000">song_id    </text>
<text text-anchor="start" x="1477.2244" y="-678.4" font-family="Arial" font-size="14.00" fill="#666666">[text]</text>
<text text-anchor="start" x="1507.5694" y="-678.4" font-family="Arial" font-size="14.00" fill="#000000"> 楽曲ID</text>
<polygon fill="none" stroke="#000000" points="1387,-637 1387,-667 1731,-667 1731,-637 1387,-637"/>
<text text-anchor="start" x="1394" y="-648.4" font-family="Arial" font-size="14.00" fill="#000000">artist_id    </text>
<text text-anchor="start" x="1477.2076" y="-648.4" font-family="Arial" font-size="14.00" fill="#666666">[text]</text>
<text text-anchor="start" x="1507.5526" y="-648.4" font-family="Arial" font-size="14.00" fill="#000000"> 作詞者ID(アーティストID)</text>
<polygon fill="none" stroke="#000000" points="1387,-607 1387,-637 1731,-637 1731,-607 1387,-607"/>
<text text-anchor="start" x="1393.6971" y="-618.4" font-family="Arial" font-size="14.00" fill="#000000">created_at    </text>
<text text-anchor="start" x="1494.0393" y="-618.4" font-family="Arial" font-size="14.00" fill="#666666">[timestamp with time zone]</text>
<text text-anchor="start" x="1659.7237" y="-618.4" font-family="Arial" font-size="14.00" fill="#000000"> 作成日時</text>
<polygon fill="none" stroke="#000000" points="1387,-577 1387,-607 1731,-607 1731,-577 1387,-577"/>
<text text-anchor="start" x="1394" y="-588.4" font-family="Arial" font-size="14.00" fill="#000000">updated_at    </text>
<text text-anchor="start" x="1498.2468" y="-588.4" font-family="Arial" font-size="14.00" fill="#666666">[timestamp with time zone]</text>
<text text-anchor="start" x="1663.9312" y="-588.4" font-family="Arial" font-size="14.00" fill="#000000"> 更新日時</text>
</g>
<!-- public.songs_lyricists&#45;&gt;public.artists -->
<g id="edge4" class="edge">
<title>public.songs_lyricists:artist_id&#45;&gt;public.artists:id</title>
<path fill="none" stroke="#000000" d="M1376.6901,-650.8899C1339.3404,-641.812 1368.7362,-578.986 1387,-534 1395.3943,-513.3237 1413.6057,-518.6763 1422,-498 1439.8889,-453.9373 1469.5556,-391 1422,-391"/>
<polygon fill="#000000" stroke="#000000" points="1377.0575,-650.9294 1386.5182,-656.4741 1382.0287,-651.4647 1387,-652 1387,-652 1387,-652 1382.0287,-651.4647 1387.4818,-647.5259 1377.0575,-650.9294 1377.0575,-650.9294"/>
<text text-anchor="start" x="1333.8665" y="-636" font-family="Arial" font-size="10.00" fill="#000000">FOREIGN KEY (artist_id) REFERENCES artists(id)</text>
</g>
<!-- public.songs_vocalists -->
<g id="node6" class="node">
<title>public.songs_vocalists</title>
<polygon fill="#efefef" stroke="transparent" points="1835,-697 1835,-743 2193,-743 2193,-697 1835,-697"/>
<polygon fill="none" stroke="#000000" points="1835,-697 1835,-743 2193,-743 2193,-697 1835,-697"/>
<text text-anchor="start" x="1860.6975" y="-720.8" font-family="Arial Bold" font-size="18.00" fill="#000000">public.songs_vocalists</text>
<text text-anchor="start" x="2039.7345" y="-720.8" font-family="Arial" font-size="14.00" fill="#000000">    </text>
<text text-anchor="start" x="2073.9393" y="-720.8" font-family="Arial" font-size="14.00" fill="#666666">[BASE TABLE]</text>
<text text-anchor="start" x="1946.7314" y="-706.4" font-family="Arial" font-size="14.00" fill="#333333">楽曲ボーカリスト</text>
<polygon fill="none" stroke="#000000" points="1835,-667 1835,-697 2193,-697 2193,-667 1835,-667"/>
<text text-anchor="start" x="1842" y="-678.4" font-family="Arial" font-size="14.00" fill="#000000">song_id    </text>
<text text-anchor="start" x="1925.2244" y="-678.4" font-family="Arial" font-size="14.00" fill="#666666">[text]</text>
<text text-anchor="start" x="1955.5694" y="-678.4" font-family="Arial" font-size="14.00" fill="#000000"> 楽曲ID</text>
<polygon fill="none" stroke="#000000" points="1835,-637 1835,-667 2193,-667 2193,-637 1835,-637"/>
<text text-anchor="start" x="1841.7594" y="-648.4" font-family="Arial" font-size="14.00" fill="#000000">artist_id    </text>
<text text-anchor="start" x="1924.967" y="-648.4" font-family="Arial" font-size="14.00" fill="#666666">[text]</text>
<text text-anchor="start" x="1955.312" y="-648.4" font-family="Arial" font-size="14.00" fill="#000000"> ボーカリストID(アーティストID)</text>
<polygon fill="none" stroke="#000000" points="1835,-607 1835,-637 2193,-637 2193,-607 1835,-607"/>
<text text-anchor="start" x="1842" y="-618.4" font-family="Arial" font-size="14.00" fill="#000000">created_at    </text>
<text text-anchor="start" x="1942.3422" y="-618.4" font-family="Arial" font-size="14.00" fill="#666666">[timestamp with time zone]</text>
<text text-anchor="start" x="2108.0266" y="-618.4" font-family="Arial" font-size="14.00" fill="#000000"> 作成日時</text>
<polygon fill="none" stroke="#000000" points="1835,-577 1835,-607 2193,-607 2193,-577 1835,-577"/>
<text text-anchor="start" x="1842" y="-588.4" font-family="Arial" font-size="14.00" fill="#000000">updated_at    </text>
<text text-anchor="start" x="1946.2468" y="-588.4" font-family="Arial" font-size="14.00" fill="#666666">[timestamp with time zone]</text>
<text text-anchor="start" x="2111.9312" y="-588.4" font-family="Arial" font-size="14.00" fill="#000000"> 更新日時</text>
</g>
<!-- public.songs_vocalists&#45;&gt;public.artists -->
<g id="edge5" class="edge">
<title>public.songs_vocalists:artist_id&#45;&gt;public.artists:id</title>
<path fill="none" stroke="#000000" d="M1824.9011,-650.999C1783.4902,-641.7771 1821.5443,-571.1098 1783,-534 1658.6805,-414.3071 1594.5738,-391 1422,-391"/>
<polygon fill="#000000" stroke="#000000" points="1825.0488,-651.0135 1834.5561,-656.4781 1830.0244,-651.5068 1835,-652 1835,-652 1835,-652 1830.0244,-651.5068 1835.4439,-647.5219 1825.0488,-651.0135 1825.0488,-651.0135"/>
<text text-anchor="start" x="1781.8665" y="-636" font-family="Arial" font-size="10.00" fill="#000000">FOREIGN KEY (artist_id) REFERENCES artists(id)</text>
</g>
</g>
</svg>
