<?xml version="1.0" encoding="UTF-8" standalone="no"?>
<!DOCTYPE svg PUBLIC "-//W3C//DTD SVG 1.1//EN"
 "http://www.w3.org/Graphics/SVG/1.1/DTD/svg11.dtd">
<!-- Generated by graphviz version 2.40.1 (20161225.0304)
 -->
<!-- Title: public.event_details Pages: 1 -->
<svg width="1657pt" height="794pt"
 viewBox="0.00 0.00 1657.00 794.00" xmlns="http://www.w3.org/2000/svg" xmlns:xlink="http://www.w3.org/1999/xlink">
<g id="graph0" class="graph" transform="scale(1 1) rotate(0) translate(4 790)">
<title>public.event_details</title>
<polygon fill="#ffffff" stroke="transparent" points="-4,4 -4,-790 1653,-790 1653,4 -4,4"/>
<!-- public.event_details -->
<g id="node1" class="node">
<title>public.event_details</title>
<polygon fill="#efefef" stroke="transparent" points="46,-694 46,-740 1402,-740 1402,-694 46,-694"/>
<polygon fill="none" stroke="#000000" points="46,-694 46,-740 1402,-740 1402,-694 46,-694"/>
<text text-anchor="start" x="596.3504" y="-717.8" font-family="Arial Bold" font-size="18.00" fill="#000000">public.event_details</text>
<text text-anchor="start" x="754.3958" y="-717.8" font-family="Arial" font-size="14.00" fill="#000000"> </text>
<text text-anchor="start" x="758.2864" y="-717.8" font-family="Arial" font-size="14.00" fill="#666666">[BASE TABLE]</text>
<text text-anchor="start" x="681.9566" y="-703.4" font-family="Arial" font-size="14.00" fill="#333333">イベント詳細</text>
<polygon fill="none" stroke="#000000" points="46,-664 46,-694 1402,-694 1402,-664 46,-664"/>
<text text-anchor="start" x="53" y="-675.4" font-family="Arial" font-size="14.00" fill="#000000">event_id </text>
<text text-anchor="start" x="109.8008" y="-675.4" font-family="Arial" font-size="14.00" fill="#666666">[text]</text>
<text text-anchor="start" x="140.1458" y="-675.4" font-family="Arial" font-size="14.00" fill="#000000"> イベントID</text>
<polygon fill="none" stroke="#000000" points="46,-634 46,-664 1402,-664 1402,-634 46,-634"/>
<text text-anchor="start" x="53" y="-645.4" font-family="Arial" font-size="14.00" fill="#000000">event_dates </text>
<text text-anchor="start" x="133.15" y="-645.4" font-family="Arial" font-size="14.00" fill="#666666">[daterange]</text>
<text text-anchor="start" x="203.9606" y="-645.4" font-family="Arial" font-size="14.00" fill="#000000"> イベント開催期間</text>
<polygon fill="none" stroke="#000000" points="46,-604 46,-634 1402,-634 1402,-604 46,-604"/>
<text text-anchor="start" x="52.6104" y="-615.4" font-family="Arial" font-size="14.00" fill="#000000">event_status </text>
<text text-anchor="start" x="135.8684" y="-615.4" font-family="Arial" font-size="14.00" fill="#666666">[event_status]</text>
<text text-anchor="start" x="223.017" y="-615.4" font-family="Arial" font-size="14.00" fill="#000000"> ステータス/scheduled: 開催済み, cancelled: 中止, postpone: 延期(開催日未定), rescheduled: 延期(開催日決定), moved_online: オンライン開催に変更, other: その他/default: scheduled</text>
<polygon fill="none" stroke="#000000" points="46,-574 46,-604 1402,-604 1402,-574 46,-574"/>
<text text-anchor="start" x="53" y="-585.4" font-family="Arial" font-size="14.00" fill="#000000">format </text>
<text text-anchor="start" x="96.5582" y="-585.4" font-family="Arial" font-size="14.00" fill="#666666">[event_format]</text>
<text text-anchor="start" x="186.028" y="-585.4" font-family="Arial" font-size="14.00" fill="#000000"> 形式/offline: オフライン開催, online: オフライン開催, mixed: 両方開催/default: offline</text>
<polygon fill="none" stroke="#000000" points="46,-544 46,-574 1402,-574 1402,-544 46,-544"/>
<text text-anchor="start" x="53" y="-555.4" font-family="Arial" font-size="14.00" fill="#000000">region_code </text>
<text text-anchor="start" x="133.9186" y="-555.4" font-family="Arial" font-size="14.00" fill="#666666">[text]</text>
<text text-anchor="start" x="164.2636" y="-555.4" font-family="Arial" font-size="14.00" fill="#000000"> リージョンコード/default: JP</text>
<polygon fill="none" stroke="#000000" points="46,-514 46,-544 1402,-544 1402,-514 46,-514"/>
<text text-anchor="start" x="53" y="-525.4" font-family="Arial" font-size="14.00" fill="#000000">address </text>
<text text-anchor="start" x="106.6816" y="-525.4" font-family="Arial" font-size="14.00" fill="#666666">[text]</text>
<text text-anchor="start" x="137.0266" y="-525.4" font-family="Arial" font-size="14.00" fill="#000000"> 開催場所</text>
<polygon fill="none" stroke="#000000" points="46,-484 46,-514 1402,-514 1402,-484 46,-484"/>
<text text-anchor="start" x="53" y="-495.4" font-family="Arial" font-size="14.00" fill="#000000">description </text>
<text text-anchor="start" x="124.568" y="-495.4" font-family="Arial" font-size="14.00" fill="#666666">[text]</text>
<text text-anchor="start" x="154.913" y="-495.4" font-family="Arial" font-size="14.00" fill="#000000"> 説明</text>
<polygon fill="none" stroke="#000000" points="46,-454 46,-484 1402,-484 1402,-454 46,-454"/>
<text text-anchor="start" x="53" y="-465.4" font-family="Arial" font-size="14.00" fill="#000000">url </text>
<text text-anchor="start" x="72.4404" y="-465.4" font-family="Arial" font-size="14.00" fill="#666666">[text]</text>
<text text-anchor="start" x="102.7854" y="-465.4" font-family="Arial" font-size="14.00" fill="#000000"> URL</text>
<polygon fill="none" stroke="#000000" points="46,-424 46,-454 1402,-454 1402,-424 46,-424"/>
<text text-anchor="start" x="53" y="-435.4" font-family="Arial" font-size="14.00" fill="#000000">twitter_url </text>
<text text-anchor="start" x="117.5512" y="-435.4" font-family="Arial" font-size="14.00" fill="#666666">[text]</text>
<text text-anchor="start" x="147.8962" y="-435.4" font-family="Arial" font-size="14.00" fill="#000000"> Twitter URL</text>
<polygon fill="none" stroke="#000000" points="46,-394 46,-424 1402,-424 1402,-394 46,-394"/>
<text text-anchor="start" x="53" y="-405.4" font-family="Arial" font-size="14.00" fill="#000000">created_at </text>
<text text-anchor="start" x="123.028" y="-405.4" font-family="Arial" font-size="14.00" fill="#666666">[timestamp with time zone]</text>
<text text-anchor="start" x="288.7124" y="-405.4" font-family="Arial" font-size="14.00" fill="#000000"> 作成日時</text>
<polygon fill="none" stroke="#000000" points="46,-364 46,-394 1402,-394 1402,-364 46,-364"/>
<text text-anchor="start" x="53" y="-375.4" font-family="Arial" font-size="14.00" fill="#000000">updated_at </text>
<text text-anchor="start" x="126.9326" y="-375.4" font-family="Arial" font-size="14.00" fill="#666666">[timestamp with time zone]</text>
<text text-anchor="start" x="292.617" y="-375.4" font-family="Arial" font-size="14.00" fill="#000000"> 更新日時</text>
<polygon fill="none" stroke="#000000" stroke-width="3" points="44.5,-362.5 44.5,-741.5 1403.5,-741.5 1403.5,-362.5 44.5,-362.5"/>
</g>
<!-- public.events -->
<g id="node2" class="node">
<title>public.events</title>
<polygon fill="#efefef" stroke="transparent" points="567,-193 567,-239 881,-239 881,-193 567,-193"/>
<polygon fill="none" stroke="#000000" points="567,-193 567,-239 881,-239 881,-193 567,-193"/>
<text text-anchor="start" x="622.8581" y="-216.8" font-family="Arial Bold" font-size="18.00" fill="#000000">public.events</text>
<text text-anchor="start" x="727.8881" y="-216.8" font-family="Arial" font-size="14.00" fill="#000000"> </text>
<text text-anchor="start" x="731.7787" y="-216.8" font-family="Arial" font-size="14.00" fill="#666666">[BASE TABLE]</text>
<text text-anchor="start" x="696.9114" y="-202.4" font-family="Arial" font-size="14.00" fill="#333333">イベント</text>
<polygon fill="none" stroke="#000000" points="567,-163 567,-193 881,-193 881,-163 567,-163"/>
<text text-anchor="start" x="574" y="-174.4" font-family="Arial" font-size="14.00" fill="#000000">id </text>
<text text-anchor="start" x="588.7798" y="-174.4" font-family="Arial" font-size="14.00" fill="#666666">[text]</text>
<polygon fill="none" stroke="#000000" points="567,-133 567,-163 881,-163 881,-133 567,-133"/>
<text text-anchor="start" x="574" y="-144.4" font-family="Arial" font-size="14.00" fill="#000000">event_series_id </text>
<text text-anchor="start" x="675.9158" y="-144.4" font-family="Arial" font-size="14.00" fill="#666666">[text]</text>
<text text-anchor="start" x="706.2608" y="-144.4" font-family="Arial" font-size="14.00" fill="#000000"> イベントシリーズID</text>
<polygon fill="none" stroke="#000000" points="567,-103 567,-133 881,-133 881,-103 567,-103"/>
<text text-anchor="start" x="574" y="-114.4" font-family="Arial" font-size="14.00" fill="#000000">name </text>
<text text-anchor="start" x="612.899" y="-114.4" font-family="Arial" font-size="14.00" fill="#666666">[text]</text>
<text text-anchor="start" x="643.244" y="-114.4" font-family="Arial" font-size="14.00" fill="#000000"> 名前</text>
<polygon fill="none" stroke="#000000" points="567,-73 567,-103 881,-103 881,-73 567,-73"/>
<text text-anchor="start" x="573.8542" y="-84.4" font-family="Arial" font-size="14.00" fill="#000000">created_at </text>
<text text-anchor="start" x="643.8822" y="-84.4" font-family="Arial" font-size="14.00" fill="#666666">[timestamp with time zone]</text>
<text text-anchor="start" x="809.5666" y="-84.4" font-family="Arial" font-size="14.00" fill="#000000"> 作成日時</text>
<polygon fill="none" stroke="#000000" points="567,-43 567,-73 881,-73 881,-43 567,-43"/>
<text text-anchor="start" x="574" y="-54.4" font-family="Arial" font-size="14.00" fill="#000000">updated_at </text>
<text text-anchor="start" x="647.9326" y="-54.4" font-family="Arial" font-size="14.00" fill="#666666">[timestamp with time zone]</text>
<text text-anchor="start" x="813.617" y="-54.4" font-family="Arial" font-size="14.00" fill="#000000"> 更新日時</text>
</g>
<!-- public.event_details&#45;&gt;public.events -->
<g id="edge1" class="edge">
<title>public.event_details:event_id&#45;&gt;public.events:id</title>
<path fill="none" stroke="#000000" d="M1412.1439,-677.2481C1479.3652,-652.7576 1448.6207,-378.8022 1402,-318 1329.0526,-222.8629 1000.8849,-178 881,-178"/>
<polygon fill="#000000" stroke="#000000" points="1411.8541,-677.298 1401.2341,-674.5656 1406.9271,-678.149 1402,-679 1402,-679 1402,-679 1406.9271,-678.149 1402.7659,-683.4344 1411.8541,-677.298 1411.8541,-677.298"/>
<text text-anchor="start" x="1409.3255" y="-689" font-family="Arial" font-size="10.00" fill="#000000">FOREIGN KEY (event_id) REFERENCES events(id)</text>
</g>
</g>
</svg>
