<?xml version="1.0" encoding="UTF-8" standalone="no"?>
<!DOCTYPE svg PUBLIC "-//W3C//DTD SVG 1.1//EN"
 "http://www.w3.org/Graphics/SVG/1.1/DTD/svg11.dtd">
<!-- Generated by graphviz version 2.40.1 (20161225.0304)
 -->
<!-- Title: public.album_details Pages: 1 -->
<svg width="620pt" height="854pt"
 viewBox="0.00 0.00 620.00 854.00" xmlns="http://www.w3.org/2000/svg" xmlns:xlink="http://www.w3.org/1999/xlink">
<g id="graph0" class="graph" transform="scale(1 1) rotate(0) translate(4 850)">
<title>public.album_details</title>
<polygon fill="#ffffff" stroke="transparent" points="-4,4 -4,-850 616,-850 616,4 -4,4"/>
<!-- public.album_details -->
<g id="node1" class="node">
<title>public.album_details</title>
<polygon fill="#efefef" stroke="transparent" points="46,-754 46,-800 360,-800 360,-754 46,-754"/>
<polygon fill="none" stroke="#000000" points="46,-754 46,-800 360,-800 360,-754 46,-754"/>
<text text-anchor="start" x="72.8583" y="-777.8" font-family="Arial Bold" font-size="18.00" fill="#000000">public.album_details</text>
<text text-anchor="start" x="235.8879" y="-777.8" font-family="Arial" font-size="14.00" fill="#000000"> </text>
<text text-anchor="start" x="239.7785" y="-777.8" font-family="Arial" font-size="14.00" fill="#666666">[BASE TABLE]</text>
<text text-anchor="start" x="158.2336" y="-763.4" font-family="Arial" font-size="14.00" fill="#333333">アルバム詳細</text>
<polygon fill="none" stroke="#000000" points="46,-724 46,-754 360,-754 360,-724 46,-724"/>
<text text-anchor="start" x="53" y="-735.4" font-family="Arial" font-size="14.00" fill="#000000">album_id </text>
<text text-anchor="start" x="113.6774" y="-735.4" font-family="Arial" font-size="14.00" fill="#666666">[text]</text>
<text text-anchor="start" x="144.0224" y="-735.4" font-family="Arial" font-size="14.00" fill="#000000"> アルバムID</text>
<polygon fill="none" stroke="#000000" points="46,-694 46,-724 360,-724 360,-694 46,-694"/>
<text text-anchor="start" x="53" y="-705.4" font-family="Arial" font-size="14.00" fill="#000000">album_number </text>
<text text-anchor="start" x="150.2398" y="-705.4" font-family="Arial" font-size="14.00" fill="#666666">[text]</text>
<polygon fill="none" stroke="#000000" points="46,-664 46,-694 360,-694 360,-664 46,-664"/>
<text text-anchor="start" x="53" y="-675.4" font-family="Arial" font-size="14.00" fill="#000000">event_price </text>
<text text-anchor="start" x="129.244" y="-675.4" font-family="Arial" font-size="14.00" fill="#666666">[numeric]</text>
<text text-anchor="start" x="186.8008" y="-675.4" font-family="Arial" font-size="14.00" fill="#000000"> イベント価格</text>
<polygon fill="none" stroke="#000000" points="46,-634 46,-664 360,-664 360,-634 46,-634"/>
<text text-anchor="start" x="53" y="-645.4" font-family="Arial" font-size="14.00" fill="#000000">currency </text>
<text text-anchor="start" x="110.5596" y="-645.4" font-family="Arial" font-size="14.00" fill="#666666">[text]</text>
<text text-anchor="start" x="140.9046" y="-645.4" font-family="Arial" font-size="14.00" fill="#000000"> 通貨(default: JPY)</text>
<polygon fill="none" stroke="#000000" points="46,-604 46,-634 360,-634 360,-604 46,-604"/>
<text text-anchor="start" x="53" y="-615.4" font-family="Arial" font-size="14.00" fill="#000000">credit </text>
<text text-anchor="start" x="91.1136" y="-615.4" font-family="Arial" font-size="14.00" fill="#666666">[text]</text>
<text text-anchor="start" x="121.4586" y="-615.4" font-family="Arial" font-size="14.00" fill="#000000"> クレジット</text>
<polygon fill="none" stroke="#000000" points="46,-574 46,-604 360,-604 360,-574 46,-574"/>
<text text-anchor="start" x="53" y="-585.4" font-family="Arial" font-size="14.00" fill="#000000">introduction </text>
<text text-anchor="start" x="129.2412" y="-585.4" font-family="Arial" font-size="14.00" fill="#666666">[text]</text>
<text text-anchor="start" x="159.5862" y="-585.4" font-family="Arial" font-size="14.00" fill="#000000"> 紹介</text>
<polygon fill="none" stroke="#000000" points="46,-544 46,-574 360,-574 360,-544 46,-544"/>
<text text-anchor="start" x="53" y="-555.4" font-family="Arial" font-size="14.00" fill="#000000">url </text>
<text text-anchor="start" x="72.4404" y="-555.4" font-family="Arial" font-size="14.00" fill="#666666">[text]</text>
<text text-anchor="start" x="102.7854" y="-555.4" font-family="Arial" font-size="14.00" fill="#000000"> URL</text>
<polygon fill="none" stroke="#000000" points="46,-514 46,-544 360,-544 360,-514 46,-514"/>
<text text-anchor="start" x="52.8542" y="-525.4" font-family="Arial" font-size="14.00" fill="#000000">created_at </text>
<text text-anchor="start" x="122.8822" y="-525.4" font-family="Arial" font-size="14.00" fill="#666666">[timestamp with time zone]</text>
<text text-anchor="start" x="288.5666" y="-525.4" font-family="Arial" font-size="14.00" fill="#000000"> 作成日時</text>
<polygon fill="none" stroke="#000000" points="46,-484 46,-514 360,-514 360,-484 46,-484"/>
<text text-anchor="start" x="53" y="-495.4" font-family="Arial" font-size="14.00" fill="#000000">updated_at </text>
<text text-anchor="start" x="126.9326" y="-495.4" font-family="Arial" font-size="14.00" fill="#666666">[timestamp with time zone]</text>
<text text-anchor="start" x="292.617" y="-495.4" font-family="Arial" font-size="14.00" fill="#000000"> 更新日時</text>
<polygon fill="none" stroke="#000000" stroke-width="3" points="44.5,-482.5 44.5,-801.5 361.5,-801.5 361.5,-482.5 44.5,-482.5"/>
</g>
<!-- public.albums -->
<g id="node2" class="node">
<title>public.albums</title>
<polygon fill="#efefef" stroke="transparent" points="46,-313 46,-359 360,-359 360,-313 46,-313"/>
<polygon fill="none" stroke="#000000" points="46,-313 46,-359 360,-359 360,-313 46,-313"/>
<text text-anchor="start" x="99.366" y="-336.8" font-family="Arial Bold" font-size="18.00" fill="#000000">public.albums</text>
<text text-anchor="start" x="209.3802" y="-336.8" font-family="Arial" font-size="14.00" fill="#000000"> </text>
<text text-anchor="start" x="213.2708" y="-336.8" font-family="Arial" font-size="14.00" fill="#666666">[BASE TABLE]</text>
<text text-anchor="start" x="173.1884" y="-322.4" font-family="Arial" font-size="14.00" fill="#333333">アルバム</text>
<polygon fill="none" stroke="#000000" points="46,-283 46,-313 360,-313 360,-283 46,-283"/>
<text text-anchor="start" x="53" y="-294.4" font-family="Arial" font-size="14.00" fill="#000000">id </text>
<text text-anchor="start" x="67.7798" y="-294.4" font-family="Arial" font-size="14.00" fill="#666666">[text]</text>
<polygon fill="none" stroke="#000000" points="46,-253 46,-283 360,-283 360,-253 46,-253"/>
<text text-anchor="start" x="53" y="-264.4" font-family="Arial" font-size="14.00" fill="#000000">name </text>
<text text-anchor="start" x="91.899" y="-264.4" font-family="Arial" font-size="14.00" fill="#666666">[text]</text>
<text text-anchor="start" x="122.244" y="-264.4" font-family="Arial" font-size="14.00" fill="#000000"> 名前</text>
<polygon fill="none" stroke="#000000" points="46,-223 46,-253 360,-253 360,-223 46,-223"/>
<text text-anchor="start" x="53" y="-234.4" font-family="Arial" font-size="14.00" fill="#000000">release_circle_name </text>
<text text-anchor="start" x="186.0182" y="-234.4" font-family="Arial" font-size="14.00" fill="#666666">[text]</text>
<text text-anchor="start" x="216.3632" y="-234.4" font-family="Arial" font-size="14.00" fill="#000000"> 頒布サークル名</text>
<polygon fill="none" stroke="#000000" points="46,-193 46,-223 360,-223 360,-193 46,-193"/>
<text text-anchor="start" x="53" y="-204.4" font-family="Arial" font-size="14.00" fill="#000000">release_date </text>
<text text-anchor="start" x="137.8092" y="-204.4" font-family="Arial" font-size="14.00" fill="#666666">[date]</text>
<text text-anchor="start" x="172.8288" y="-204.4" font-family="Arial" font-size="14.00" fill="#000000"> 頒布日</text>
<polygon fill="none" stroke="#000000" points="46,-163 46,-193 360,-193 360,-163 46,-163"/>
<text text-anchor="start" x="53" y="-174.4" font-family="Arial" font-size="14.00" fill="#000000">event_id </text>
<text text-anchor="start" x="109.8008" y="-174.4" font-family="Arial" font-size="14.00" fill="#666666">[text]</text>
<text text-anchor="start" x="140.1458" y="-174.4" font-family="Arial" font-size="14.00" fill="#000000"> イベントID</text>
<polygon fill="none" stroke="#000000" points="46,-133 46,-163 360,-163 360,-133 46,-133"/>
<text text-anchor="start" x="53" y="-144.4" font-family="Arial" font-size="14.00" fill="#000000">sub_event_id </text>
<text text-anchor="start" x="140.1486" y="-144.4" font-family="Arial" font-size="14.00" fill="#666666">[text]</text>
<text text-anchor="start" x="170.4936" y="-144.4" font-family="Arial" font-size="14.00" fill="#000000"> サブイベントID</text>
<polygon fill="none" stroke="#000000" points="46,-103 46,-133 360,-133 360,-103 46,-103"/>
<text text-anchor="start" x="53" y="-114.4" font-family="Arial" font-size="14.00" fill="#000000">search_enabled </text>
<text text-anchor="start" x="156.4838" y="-114.4" font-family="Arial" font-size="14.00" fill="#666666">[boolean]</text>
<text text-anchor="start" x="214.0672" y="-114.4" font-family="Arial" font-size="14.00" fill="#000000"> 検索対象とするか</text>
<polygon fill="none" stroke="#000000" points="46,-73 46,-103 360,-103 360,-73 46,-73"/>
<text text-anchor="start" x="52.8542" y="-84.4" font-family="Arial" font-size="14.00" fill="#000000">created_at </text>
<text text-anchor="start" x="122.8822" y="-84.4" font-family="Arial" font-size="14.00" fill="#666666">[timestamp with time zone]</text>
<text text-anchor="start" x="288.5666" y="-84.4" font-family="Arial" font-size="14.00" fill="#000000"> 作成日時</text>
<polygon fill="none" stroke="#000000" points="46,-43 46,-73 360,-73 360,-43 46,-43"/>
<text text-anchor="start" x="53" y="-54.4" font-family="Arial" font-size="14.00" fill="#000000">updated_at </text>
<text text-anchor="start" x="126.9326" y="-54.4" font-family="Arial" font-size="14.00" fill="#666666">[timestamp with time zone]</text>
<text text-anchor="start" x="292.617" y="-54.4" font-family="Arial" font-size="14.00" fill="#000000"> 更新日時</text>
</g>
<!-- public.album_details&#45;&gt;public.albums -->
<g id="edge1" class="edge">
<title>public.album_details:album_id&#45;&gt;public.albums:id</title>
<path fill="none" stroke="#000000" d="M369.9726,-737.4031C457.8789,-708.5372 454.5547,-298 360,-298"/>
<polygon fill="#000000" stroke="#000000" points="369.8742,-737.4188 359.2885,-734.5566 364.9371,-738.2094 360,-739 360,-739 360,-739 364.9371,-738.2094 360.7115,-743.4434 369.8742,-737.4188 369.8742,-737.4188"/>
<text text-anchor="start" x="366.5565" y="-749" font-family="Arial" font-size="10.00" fill="#000000">FOREIGN KEY (album_id) REFERENCES albums(id)</text>
</g>
</g>
</svg>
