<?xml version="1.0" encoding="UTF-8" standalone="no"?>
<!DOCTYPE svg PUBLIC "-//W3C//DTD SVG 1.1//EN"
 "http://www.w3.org/Graphics/SVG/1.1/DTD/svg11.dtd">
<!-- Generated by graphviz version 2.40.1 (20161225.0304)
 -->
<!-- Title: public.albums Pages: 1 -->
<svg width="3704pt" height="1304pt"
 viewBox="0.00 0.00 3703.50 1304.00" xmlns="http://www.w3.org/2000/svg" xmlns:xlink="http://www.w3.org/1999/xlink">
<g id="graph0" class="graph" transform="scale(1 1) rotate(0) translate(4 1300)">
<title>public.albums</title>
<polygon fill="#ffffff" stroke="transparent" points="-4,4 -4,-1300 3699.5,-1300 3699.5,4 -4,4"/>
<!-- public.albums -->
<g id="node1" class="node">
<title>public.albums</title>
<polygon fill="#efefef" stroke="transparent" points="1581,-496 1581,-542 1895,-542 1895,-496 1581,-496"/>
<polygon fill="none" stroke="#000000" points="1581,-496 1581,-542 1895,-542 1895,-496 1581,-496"/>
<text text-anchor="start" x="1634.366" y="-519.8" font-family="Arial Bold" font-size="18.00" fill="#000000">public.albums</text>
<text text-anchor="start" x="1744.3802" y="-519.8" font-family="Arial" font-size="14.00" fill="#000000"> </text>
<text text-anchor="start" x="1748.2708" y="-519.8" font-family="Arial" font-size="14.00" fill="#666666">[BASE TABLE]</text>
<text text-anchor="start" x="1708.1884" y="-505.4" font-family="Arial" font-size="14.00" fill="#333333">アルバム</text>
<polygon fill="none" stroke="#000000" points="1581,-466 1581,-496 1895,-496 1895,-466 1581,-466"/>
<text text-anchor="start" x="1588" y="-477.4" font-family="Arial" font-size="14.00" fill="#000000">id </text>
<text text-anchor="start" x="1602.7798" y="-477.4" font-family="Arial" font-size="14.00" fill="#666666">[text]</text>
<polygon fill="none" stroke="#000000" points="1581,-436 1581,-466 1895,-466 1895,-436 1581,-436"/>
<text text-anchor="start" x="1588" y="-447.4" font-family="Arial" font-size="14.00" fill="#000000">name </text>
<text text-anchor="start" x="1626.899" y="-447.4" font-family="Arial" font-size="14.00" fill="#666666">[text]</text>
<text text-anchor="start" x="1657.244" y="-447.4" font-family="Arial" font-size="14.00" fill="#000000"> 名前</text>
<polygon fill="none" stroke="#000000" points="1581,-406 1581,-436 1895,-436 1895,-406 1581,-406"/>
<text text-anchor="start" x="1588" y="-417.4" font-family="Arial" font-size="14.00" fill="#000000">release_circle_name </text>
<text text-anchor="start" x="1721.0182" y="-417.4" font-family="Arial" font-size="14.00" fill="#666666">[text]</text>
<text text-anchor="start" x="1751.3632" y="-417.4" font-family="Arial" font-size="14.00" fill="#000000"> 頒布サークル名</text>
<polygon fill="none" stroke="#000000" points="1581,-376 1581,-406 1895,-406 1895,-376 1581,-376"/>
<text text-anchor="start" x="1588" y="-387.4" font-family="Arial" font-size="14.00" fill="#000000">release_date </text>
<text text-anchor="start" x="1672.8092" y="-387.4" font-family="Arial" font-size="14.00" fill="#666666">[date]</text>
<text text-anchor="start" x="1707.8288" y="-387.4" font-family="Arial" font-size="14.00" fill="#000000"> 頒布日</text>
<polygon fill="none" stroke="#000000" points="1581,-346 1581,-376 1895,-376 1895,-346 1581,-346"/>
<text text-anchor="start" x="1588" y="-357.4" font-family="Arial" font-size="14.00" fill="#000000">event_id </text>
<text text-anchor="start" x="1644.8008" y="-357.4" font-family="Arial" font-size="14.00" fill="#666666">[text]</text>
<text text-anchor="start" x="1675.1458" y="-357.4" font-family="Arial" font-size="14.00" fill="#000000"> イベントID</text>
<polygon fill="none" stroke="#000000" points="1581,-316 1581,-346 1895,-346 1895,-316 1581,-316"/>
<text text-anchor="start" x="1588" y="-327.4" font-family="Arial" font-size="14.00" fill="#000000">sub_event_id </text>
<text text-anchor="start" x="1675.1486" y="-327.4" font-family="Arial" font-size="14.00" fill="#666666">[text]</text>
<text text-anchor="start" x="1705.4936" y="-327.4" font-family="Arial" font-size="14.00" fill="#000000"> サブイベントID</text>
<polygon fill="none" stroke="#000000" points="1581,-286 1581,-316 1895,-316 1895,-286 1581,-286"/>
<text text-anchor="start" x="1588" y="-297.4" font-family="Arial" font-size="14.00" fill="#000000">search_enabled </text>
<text text-anchor="start" x="1691.4838" y="-297.4" font-family="Arial" font-size="14.00" fill="#666666">[boolean]</text>
<text text-anchor="start" x="1749.0672" y="-297.4" font-family="Arial" font-size="14.00" fill="#000000"> 検索対象とするか</text>
<polygon fill="none" stroke="#000000" points="1581,-256 1581,-286 1895,-286 1895,-256 1581,-256"/>
<text text-anchor="start" x="1588" y="-267.4" font-family="Arial" font-size="14.00" fill="#000000">album_number </text>
<text text-anchor="start" x="1685.2398" y="-267.4" font-family="Arial" font-size="14.00" fill="#666666">[text]</text>
<polygon fill="none" stroke="#000000" points="1581,-226 1581,-256 1895,-256 1895,-226 1581,-226"/>
<text text-anchor="start" x="1588" y="-237.4" font-family="Arial" font-size="14.00" fill="#000000">event_price </text>
<text text-anchor="start" x="1664.244" y="-237.4" font-family="Arial" font-size="14.00" fill="#666666">[numeric]</text>
<text text-anchor="start" x="1721.8008" y="-237.4" font-family="Arial" font-size="14.00" fill="#000000"> イベント価格</text>
<polygon fill="none" stroke="#000000" points="1581,-196 1581,-226 1895,-226 1895,-196 1581,-196"/>
<text text-anchor="start" x="1588" y="-207.4" font-family="Arial" font-size="14.00" fill="#000000">currency </text>
<text text-anchor="start" x="1645.5596" y="-207.4" font-family="Arial" font-size="14.00" fill="#666666">[text]</text>
<text text-anchor="start" x="1675.9046" y="-207.4" font-family="Arial" font-size="14.00" fill="#000000"> 通貨(default: JPY)</text>
<polygon fill="none" stroke="#000000" points="1581,-166 1581,-196 1895,-196 1895,-166 1581,-166"/>
<text text-anchor="start" x="1588" y="-177.4" font-family="Arial" font-size="14.00" fill="#000000">credit </text>
<text text-anchor="start" x="1626.1136" y="-177.4" font-family="Arial" font-size="14.00" fill="#666666">[text]</text>
<text text-anchor="start" x="1656.4586" y="-177.4" font-family="Arial" font-size="14.00" fill="#000000"> クレジット</text>
<polygon fill="none" stroke="#000000" points="1581,-136 1581,-166 1895,-166 1895,-136 1581,-136"/>
<text text-anchor="start" x="1588" y="-147.4" font-family="Arial" font-size="14.00" fill="#000000">introduction </text>
<text text-anchor="start" x="1664.2412" y="-147.4" font-family="Arial" font-size="14.00" fill="#666666">[text]</text>
<text text-anchor="start" x="1694.5862" y="-147.4" font-family="Arial" font-size="14.00" fill="#000000"> 紹介</text>
<polygon fill="none" stroke="#000000" points="1581,-106 1581,-136 1895,-136 1895,-106 1581,-106"/>
<text text-anchor="start" x="1588" y="-117.4" font-family="Arial" font-size="14.00" fill="#000000">url </text>
<text text-anchor="start" x="1607.4404" y="-117.4" font-family="Arial" font-size="14.00" fill="#666666">[text]</text>
<text text-anchor="start" x="1637.7854" y="-117.4" font-family="Arial" font-size="14.00" fill="#000000"> URL</text>
<polygon fill="none" stroke="#000000" points="1581,-76 1581,-106 1895,-106 1895,-76 1581,-76"/>
<text text-anchor="start" x="1587.8542" y="-87.4" font-family="Arial" font-size="14.00" fill="#000000">created_at </text>
<text text-anchor="start" x="1657.8822" y="-87.4" font-family="Arial" font-size="14.00" fill="#666666">[timestamp with time zone]</text>
<text text-anchor="start" x="1823.5666" y="-87.4" font-family="Arial" font-size="14.00" fill="#000000"> 作成日時</text>
<polygon fill="none" stroke="#000000" points="1581,-46 1581,-76 1895,-76 1895,-46 1581,-46"/>
<text text-anchor="start" x="1588" y="-57.4" font-family="Arial" font-size="14.00" fill="#000000">updated_at </text>
<text text-anchor="start" x="1661.9326" y="-57.4" font-family="Arial" font-size="14.00" fill="#666666">[timestamp with time zone]</text>
<text text-anchor="start" x="1827.617" y="-57.4" font-family="Arial" font-size="14.00" fill="#000000"> 更新日時</text>
<polygon fill="none" stroke="#000000" stroke-width="3" points="1579.5,-44.5 1579.5,-543.5 1896.5,-543.5 1896.5,-44.5 1579.5,-44.5"/>
</g>
<!-- public.albums_circles -->
<g id="node2" class="node">
<title>public.albums_circles</title>
<polygon fill="#efefef" stroke="transparent" points="43,-997 43,-1043 357,-1043 357,-997 43,-997"/>
<polygon fill="none" stroke="#000000" points="43,-997 43,-1043 357,-1043 357,-997 43,-997"/>
<text text-anchor="start" x="65.8695" y="-1020.8" font-family="Arial Bold" font-size="18.00" fill="#000000">public.albums_circles</text>
<text text-anchor="start" x="236.8767" y="-1020.8" font-family="Arial" font-size="14.00" fill="#000000"> </text>
<text text-anchor="start" x="240.7673" y="-1020.8" font-family="Arial" font-size="14.00" fill="#666666">[BASE TABLE]</text>
<text text-anchor="start" x="71.1678" y="-1006.4" font-family="Arial" font-size="14.00" fill="#333333">アルバムとサークルの中間テーブル</text>
<polygon fill="none" stroke="#000000" points="43,-967 43,-997 357,-997 357,-967 43,-967"/>
<text text-anchor="start" x="50" y="-978.4" font-family="Arial" font-size="14.00" fill="#000000">album_id </text>
<text text-anchor="start" x="110.6774" y="-978.4" font-family="Arial" font-size="14.00" fill="#666666">[text]</text>
<text text-anchor="start" x="141.0224" y="-978.4" font-family="Arial" font-size="14.00" fill="#000000"> アルバムID</text>
<polygon fill="none" stroke="#000000" points="43,-937 43,-967 357,-967 357,-937 43,-937"/>
<text text-anchor="start" x="50" y="-948.4" font-family="Arial" font-size="14.00" fill="#000000">circle_id </text>
<text text-anchor="start" x="105.2188" y="-948.4" font-family="Arial" font-size="14.00" fill="#666666">[text]</text>
<text text-anchor="start" x="135.5638" y="-948.4" font-family="Arial" font-size="14.00" fill="#000000"> サークルID</text>
<polygon fill="none" stroke="#000000" points="43,-907 43,-937 357,-937 357,-907 43,-907"/>
<text text-anchor="start" x="49.8542" y="-918.4" font-family="Arial" font-size="14.00" fill="#000000">created_at </text>
<text text-anchor="start" x="119.8822" y="-918.4" font-family="Arial" font-size="14.00" fill="#666666">[timestamp with time zone]</text>
<text text-anchor="start" x="285.5666" y="-918.4" font-family="Arial" font-size="14.00" fill="#000000"> 作成日時</text>
<polygon fill="none" stroke="#000000" points="43,-877 43,-907 357,-907 357,-877 43,-877"/>
<text text-anchor="start" x="50" y="-888.4" font-family="Arial" font-size="14.00" fill="#000000">updated_at </text>
<text text-anchor="start" x="123.9326" y="-888.4" font-family="Arial" font-size="14.00" fill="#666666">[timestamp with time zone]</text>
<text text-anchor="start" x="289.617" y="-888.4" font-family="Arial" font-size="14.00" fill="#000000"> 更新日時</text>
</g>
<!-- public.albums_circles&#45;&gt;public.albums -->
<g id="edge1" class="edge">
<title>public.albums_circles:album_id&#45;&gt;public.albums:id</title>
<path fill="none" stroke="#000000" d="M366.8553,-980.2225C429.9639,-955.3801 354.0928,-677.6678 409,-624 502.8167,-532.301 1449.812,-481 1581,-481"/>
<polygon fill="#000000" stroke="#000000" points="366.8412,-980.225 356.2012,-977.5715 361.9206,-981.1125 357,-982 357,-982 357,-982 361.9206,-981.1125 357.7988,-986.4285 366.8412,-980.225 366.8412,-980.225"/>
<text text-anchor="start" x="363.5565" y="-992" font-family="Arial" font-size="10.00" fill="#000000">FOREIGN KEY (album_id) REFERENCES albums(id)</text>
</g>
<!-- public.album_consignment_shops -->
<g id="node3" class="node">
<title>public.album_consignment_shops</title>
<polygon fill="#efefef" stroke="transparent" points="461,-1072 461,-1118 957,-1118 957,-1072 461,-1072"/>
<polygon fill="none" stroke="#000000" points="461,-1072 461,-1118 957,-1118 957,-1072 461,-1072"/>
<text text-anchor="start" x="524.8376" y="-1095.8" font-family="Arial Bold" font-size="18.00" fill="#000000">public.album_consignment_shops</text>
<text text-anchor="start" x="795.9086" y="-1095.8" font-family="Arial" font-size="14.00" fill="#000000"> </text>
<text text-anchor="start" x="799.7992" y="-1095.8" font-family="Arial" font-size="14.00" fill="#666666">[BASE TABLE]</text>
<text text-anchor="start" x="614.4622" y="-1081.4" font-family="Arial" font-size="14.00" fill="#333333">アルバム委託販売ショップ</text>
<polygon fill="none" stroke="#000000" points="461,-1042 461,-1072 957,-1072 957,-1042 461,-1042"/>
<text text-anchor="start" x="468" y="-1053.4" font-family="Arial" font-size="14.00" fill="#000000">id </text>
<text text-anchor="start" x="482.7798" y="-1053.4" font-family="Arial" font-size="14.00" fill="#666666">[text]</text>
<polygon fill="none" stroke="#000000" points="461,-1012 461,-1042 957,-1042 957,-1012 461,-1012"/>
<text text-anchor="start" x="468" y="-1023.4" font-family="Arial" font-size="14.00" fill="#000000">album_id </text>
<text text-anchor="start" x="528.6774" y="-1023.4" font-family="Arial" font-size="14.00" fill="#666666">[text]</text>
<text text-anchor="start" x="559.0224" y="-1023.4" font-family="Arial" font-size="14.00" fill="#000000"> アルバムID</text>
<polygon fill="none" stroke="#000000" points="461,-982 461,-1012 957,-1012 957,-982 461,-982"/>
<text text-anchor="start" x="468" y="-993.4" font-family="Arial" font-size="14.00" fill="#000000">shop </text>
<text text-anchor="start" x="502.2384" y="-993.4" font-family="Arial" font-size="14.00" fill="#666666">[shop]</text>
<text text-anchor="start" x="540.3674" y="-993.4" font-family="Arial" font-size="14.00" fill="#000000"> ショップ</text>
<polygon fill="none" stroke="#000000" points="461,-952 461,-982 957,-982 957,-952 461,-952"/>
<text text-anchor="start" x="468" y="-963.4" font-family="Arial" font-size="14.00" fill="#000000">url </text>
<text text-anchor="start" x="487.4404" y="-963.4" font-family="Arial" font-size="14.00" fill="#666666">[text]</text>
<text text-anchor="start" x="517.7854" y="-963.4" font-family="Arial" font-size="14.00" fill="#000000"> URL</text>
<polygon fill="none" stroke="#000000" points="461,-922 461,-952 957,-952 957,-922 461,-922"/>
<text text-anchor="start" x="467.5777" y="-933.4" font-family="Arial" font-size="14.00" fill="#000000">tax_included </text>
<text text-anchor="start" x="550.0503" y="-933.4" font-family="Arial" font-size="14.00" fill="#666666">[boolean]</text>
<text text-anchor="start" x="607.6337" y="-933.4" font-family="Arial" font-size="14.00" fill="#000000"> 税込みか否か(true: 税込み、false: 税抜き・税別)</text>
<polygon fill="none" stroke="#000000" points="461,-892 461,-922 957,-922 957,-892 461,-892"/>
<text text-anchor="start" x="468" y="-903.4" font-family="Arial" font-size="14.00" fill="#000000">shop_price </text>
<text text-anchor="start" x="540.3534" y="-903.4" font-family="Arial" font-size="14.00" fill="#666666">[numeric]</text>
<text text-anchor="start" x="597.9102" y="-903.4" font-family="Arial" font-size="14.00" fill="#000000"> ショップ価格</text>
<polygon fill="none" stroke="#000000" points="461,-862 461,-892 957,-892 957,-862 461,-862"/>
<text text-anchor="start" x="468" y="-873.4" font-family="Arial" font-size="14.00" fill="#000000">currency </text>
<text text-anchor="start" x="525.5596" y="-873.4" font-family="Arial" font-size="14.00" fill="#666666">[text]</text>
<text text-anchor="start" x="555.9046" y="-873.4" font-family="Arial" font-size="14.00" fill="#000000"> 通貨(default: JPY)</text>
<polygon fill="none" stroke="#000000" points="461,-832 461,-862 957,-862 957,-832 461,-832"/>
<text text-anchor="start" x="468" y="-843.4" font-family="Arial" font-size="14.00" fill="#000000">created_at </text>
<text text-anchor="start" x="538.028" y="-843.4" font-family="Arial" font-size="14.00" fill="#666666">[timestamp with time zone]</text>
<text text-anchor="start" x="703.7124" y="-843.4" font-family="Arial" font-size="14.00" fill="#000000"> 作成日時</text>
<polygon fill="none" stroke="#000000" points="461,-802 461,-832 957,-832 957,-802 461,-802"/>
<text text-anchor="start" x="468" y="-813.4" font-family="Arial" font-size="14.00" fill="#000000">updated_at </text>
<text text-anchor="start" x="541.9326" y="-813.4" font-family="Arial" font-size="14.00" fill="#666666">[timestamp with time zone]</text>
<text text-anchor="start" x="707.617" y="-813.4" font-family="Arial" font-size="14.00" fill="#000000"> 更新日時</text>
</g>
<!-- public.album_consignment_shops&#45;&gt;public.albums -->
<g id="edge2" class="edge">
<title>public.album_consignment_shops:album_id&#45;&gt;public.albums:id</title>
<path fill="none" stroke="#000000" d="M967.1829,-1025.3483C1039.4992,-999.9265 951.4421,-688.6968 1009,-624 1096.0889,-526.1094 1449.9769,-481 1581,-481"/>
<polygon fill="#000000" stroke="#000000" points="966.871,-1025.3988 956.2794,-1022.5581 961.9355,-1026.1994 957,-1027 957,-1027 957,-1027 961.9355,-1026.1994 957.7206,-1031.4419 966.871,-1025.3988 966.871,-1025.3988"/>
<text text-anchor="start" x="837.5565" y="-1011" font-family="Arial" font-size="10.00" fill="#000000">FOREIGN KEY (album_id) REFERENCES albums(id)</text>
</g>
<!-- public.album_distribution_service_urls -->
<g id="node4" class="node">
<title>public.album_distribution_service_urls</title>
<polygon fill="#efefef" stroke="transparent" points="1062,-1027 1062,-1073 1477,-1073 1477,-1027 1062,-1027"/>
<polygon fill="none" stroke="#000000" points="1062,-1027 1062,-1073 1477,-1073 1477,-1027 1062,-1027"/>
<text text-anchor="start" x="1068.8559" y="-1050.8" font-family="Arial Bold" font-size="18.00" fill="#000000">public.album_distribution_service_urls</text>
<text text-anchor="start" x="1372.8903" y="-1050.8" font-family="Arial" font-size="14.00" fill="#000000"> </text>
<text text-anchor="start" x="1376.7809" y="-1050.8" font-family="Arial" font-size="14.00" fill="#666666">[BASE TABLE]</text>
<text text-anchor="start" x="1176.4434" y="-1036.4" font-family="Arial" font-size="14.00" fill="#333333">アルバム配信サービスURL</text>
<polygon fill="none" stroke="#000000" points="1062,-997 1062,-1027 1477,-1027 1477,-997 1062,-997"/>
<text text-anchor="start" x="1069" y="-1008.4" font-family="Arial" font-size="14.00" fill="#000000">id </text>
<text text-anchor="start" x="1083.7798" y="-1008.4" font-family="Arial" font-size="14.00" fill="#666666">[text]</text>
<polygon fill="none" stroke="#000000" points="1062,-967 1062,-997 1477,-997 1477,-967 1062,-967"/>
<text text-anchor="start" x="1069" y="-978.4" font-family="Arial" font-size="14.00" fill="#000000">album_id </text>
<text text-anchor="start" x="1129.6774" y="-978.4" font-family="Arial" font-size="14.00" fill="#666666">[text]</text>
<text text-anchor="start" x="1160.0224" y="-978.4" font-family="Arial" font-size="14.00" fill="#000000"> アルバムID</text>
<polygon fill="none" stroke="#000000" points="1062,-937 1062,-967 1477,-967 1477,-937 1062,-937"/>
<text text-anchor="start" x="1069" y="-948.4" font-family="Arial" font-size="14.00" fill="#000000">service </text>
<text text-anchor="start" x="1117.223" y="-948.4" font-family="Arial" font-size="14.00" fill="#666666">[distribution_service]</text>
<text text-anchor="start" x="1244.7938" y="-948.4" font-family="Arial" font-size="14.00" fill="#000000"> 配信サービス</text>
<polygon fill="none" stroke="#000000" points="1062,-907 1062,-937 1477,-937 1477,-907 1062,-907"/>
<text text-anchor="start" x="1069" y="-918.4" font-family="Arial" font-size="14.00" fill="#000000">url </text>
<text text-anchor="start" x="1088.4404" y="-918.4" font-family="Arial" font-size="14.00" fill="#666666">[text]</text>
<text text-anchor="start" x="1118.7854" y="-918.4" font-family="Arial" font-size="14.00" fill="#000000"> URL</text>
<polygon fill="none" stroke="#000000" points="1062,-877 1062,-907 1477,-907 1477,-877 1062,-877"/>
<text text-anchor="start" x="1069" y="-888.4" font-family="Arial" font-size="14.00" fill="#000000">created_at </text>
<text text-anchor="start" x="1139.028" y="-888.4" font-family="Arial" font-size="14.00" fill="#666666">[timestamp with time zone]</text>
<text text-anchor="start" x="1304.7124" y="-888.4" font-family="Arial" font-size="14.00" fill="#000000"> 作成日時</text>
<polygon fill="none" stroke="#000000" points="1062,-847 1062,-877 1477,-877 1477,-847 1062,-847"/>
<text text-anchor="start" x="1069" y="-858.4" font-family="Arial" font-size="14.00" fill="#000000">updated_at </text>
<text text-anchor="start" x="1142.9326" y="-858.4" font-family="Arial" font-size="14.00" fill="#666666">[timestamp with time zone]</text>
<text text-anchor="start" x="1308.617" y="-858.4" font-family="Arial" font-size="14.00" fill="#000000"> 更新日時</text>
</g>
<!-- public.album_distribution_service_urls&#45;&gt;public.albums -->
<g id="edge3" class="edge">
<title>public.album_distribution_service_urls:album_id&#45;&gt;public.albums:id</title>
<path fill="none" stroke="#000000" d="M1487.0743,-980.3484C1553.2137,-957.248 1510.2645,-698.4581 1529,-624 1545.5022,-558.4172 1513.3728,-481 1581,-481"/>
<polygon fill="#000000" stroke="#000000" points="1486.8683,-980.3821 1476.2719,-977.5593 1481.9341,-981.191 1477,-982 1477,-982 1477,-982 1481.9341,-981.191 1477.7281,-986.4407 1486.8683,-980.3821 1486.8683,-980.3821"/>
<text text-anchor="start" x="1483.5565" y="-992" font-family="Arial" font-size="10.00" fill="#000000">FOREIGN KEY (album_id) REFERENCES albums(id)</text>
</g>
<!-- public.album_upcs -->
<g id="node5" class="node">
<title>public.album_upcs</title>
<polygon fill="#efefef" stroke="transparent" points="1581,-1012 1581,-1058 1895,-1058 1895,-1012 1581,-1012"/>
<polygon fill="none" stroke="#000000" points="1581,-1012 1581,-1058 1895,-1058 1895,-1012 1581,-1012"/>
<text text-anchor="start" x="1614.8567" y="-1035.8" font-family="Arial Bold" font-size="18.00" fill="#000000">public.album_upcs</text>
<text text-anchor="start" x="1763.8895" y="-1035.8" font-family="Arial" font-size="14.00" fill="#000000"> </text>
<text text-anchor="start" x="1767.7801" y="-1035.8" font-family="Arial" font-size="14.00" fill="#666666">[BASE TABLE]</text>
<text text-anchor="start" x="1693.4135" y="-1021.4" font-family="Arial" font-size="14.00" fill="#333333">アルバムUPC</text>
<polygon fill="none" stroke="#000000" points="1581,-982 1581,-1012 1895,-1012 1895,-982 1581,-982"/>
<text text-anchor="start" x="1588" y="-993.4" font-family="Arial" font-size="14.00" fill="#000000">id </text>
<text text-anchor="start" x="1602.7798" y="-993.4" font-family="Arial" font-size="14.00" fill="#666666">[text]</text>
<polygon fill="none" stroke="#000000" points="1581,-952 1581,-982 1895,-982 1895,-952 1581,-952"/>
<text text-anchor="start" x="1588" y="-963.4" font-family="Arial" font-size="14.00" fill="#000000">album_id </text>
<text text-anchor="start" x="1648.6774" y="-963.4" font-family="Arial" font-size="14.00" fill="#666666">[text]</text>
<text text-anchor="start" x="1679.0224" y="-963.4" font-family="Arial" font-size="14.00" fill="#000000"> アルバムID</text>
<polygon fill="none" stroke="#000000" points="1581,-922 1581,-952 1895,-952 1895,-922 1581,-922"/>
<text text-anchor="start" x="1588" y="-933.4" font-family="Arial" font-size="14.00" fill="#000000">upc </text>
<text text-anchor="start" x="1614.4558" y="-933.4" font-family="Arial" font-size="14.00" fill="#666666">[text]</text>
<text text-anchor="start" x="1644.8008" y="-933.4" font-family="Arial" font-size="14.00" fill="#000000"> UPC(JAN)コード</text>
<polygon fill="none" stroke="#000000" points="1581,-892 1581,-922 1895,-922 1895,-892 1581,-892"/>
<text text-anchor="start" x="1587.8542" y="-903.4" font-family="Arial" font-size="14.00" fill="#000000">created_at </text>
<text text-anchor="start" x="1657.8822" y="-903.4" font-family="Arial" font-size="14.00" fill="#666666">[timestamp with time zone]</text>
<text text-anchor="start" x="1823.5666" y="-903.4" font-family="Arial" font-size="14.00" fill="#000000"> 作成日時</text>
<polygon fill="none" stroke="#000000" points="1581,-862 1581,-892 1895,-892 1895,-862 1581,-862"/>
<text text-anchor="start" x="1588" y="-873.4" font-family="Arial" font-size="14.00" fill="#000000">updated_at </text>
<text text-anchor="start" x="1661.9326" y="-873.4" font-family="Arial" font-size="14.00" fill="#666666">[timestamp with time zone]</text>
<text text-anchor="start" x="1827.617" y="-873.4" font-family="Arial" font-size="14.00" fill="#000000"> 更新日時</text>
</g>
<!-- public.album_upcs&#45;&gt;public.albums -->
<g id="edge4" class="edge">
<title>public.album_upcs:album_id&#45;&gt;public.albums:id</title>
<path fill="none" stroke="#000000" d="M1903.936,-962.1899C1948.8146,-911.7154 1945.8359,-481 1895,-481"/>
<polygon fill="#000000" stroke="#000000" points="1903.8054,-962.2602 1892.8671,-963.0376 1899.4027,-964.6301 1895,-967 1895,-967 1895,-967 1899.4027,-964.6301 1897.1329,-970.9624 1903.8054,-962.2602 1903.8054,-962.2602"/>
<text text-anchor="start" x="1901.5565" y="-977" font-family="Arial" font-size="10.00" fill="#000000">FOREIGN KEY (album_id) REFERENCES albums(id)</text>
</g>
<!-- public.tracks -->
<g id="node6" class="node">
<title>public.tracks</title>
<polygon fill="#efefef" stroke="transparent" points="2000,-1207 2000,-1253 2579,-1253 2579,-1207 2000,-1207"/>
<polygon fill="none" stroke="#000000" points="2000,-1207 2000,-1253 2579,-1253 2579,-1207 2000,-1207"/>
<text text-anchor="start" x="2190.8682" y="-1230.8" font-family="Arial Bold" font-size="18.00" fill="#000000">public.tracks</text>
<text text-anchor="start" x="2290.878" y="-1230.8" font-family="Arial" font-size="14.00" fill="#000000"> </text>
<text text-anchor="start" x="2294.7686" y="-1230.8" font-family="Arial" font-size="14.00" fill="#666666">[BASE TABLE]</text>
<text text-anchor="start" x="2262.6347" y="-1216.4" font-family="Arial" font-size="14.00" fill="#333333">トラック</text>
<polygon fill="none" stroke="#000000" points="2000,-1177 2000,-1207 2579,-1207 2579,-1177 2000,-1177"/>
<text text-anchor="start" x="2007" y="-1188.4" font-family="Arial" font-size="14.00" fill="#000000">id </text>
<text text-anchor="start" x="2021.7798" y="-1188.4" font-family="Arial" font-size="14.00" fill="#666666">[text]</text>
<polygon fill="none" stroke="#000000" points="2000,-1147 2000,-1177 2579,-1177 2579,-1147 2000,-1147"/>
<text text-anchor="start" x="2007" y="-1158.4" font-family="Arial" font-size="14.00" fill="#000000">album_id </text>
<text text-anchor="start" x="2067.6774" y="-1158.4" font-family="Arial" font-size="14.00" fill="#666666">[text]</text>
<text text-anchor="start" x="2098.0224" y="-1158.4" font-family="Arial" font-size="14.00" fill="#000000"> アルバムID</text>
<polygon fill="none" stroke="#000000" points="2000,-1117 2000,-1147 2579,-1147 2579,-1117 2000,-1117"/>
<text text-anchor="start" x="2007" y="-1128.4" font-family="Arial" font-size="14.00" fill="#000000">name </text>
<text text-anchor="start" x="2045.899" y="-1128.4" font-family="Arial" font-size="14.00" fill="#666666">[text]</text>
<text text-anchor="start" x="2076.244" y="-1128.4" font-family="Arial" font-size="14.00" fill="#000000"> 名前</text>
<polygon fill="none" stroke="#000000" points="2000,-1087 2000,-1117 2579,-1117 2579,-1087 2000,-1087"/>
<text text-anchor="start" x="2007" y="-1098.4" font-family="Arial" font-size="14.00" fill="#000000">name_reading </text>
<text text-anchor="start" x="2100.3618" y="-1098.4" font-family="Arial" font-size="14.00" fill="#666666">[text]</text>
<text text-anchor="start" x="2130.7068" y="-1098.4" font-family="Arial" font-size="14.00" fill="#000000"> 名前読み方</text>
<polygon fill="none" stroke="#000000" points="2000,-1057 2000,-1087 2579,-1087 2579,-1057 2000,-1057"/>
<text text-anchor="start" x="2007" y="-1068.4" font-family="Arial" font-size="14.00" fill="#000000">disc_number </text>
<text text-anchor="start" x="2091.014" y="-1068.4" font-family="Arial" font-size="14.00" fill="#666666">[integer]</text>
<text text-anchor="start" x="2141.5834" y="-1068.4" font-family="Arial" font-size="14.00" fill="#000000"> ディスク番号(default: 1)</text>
<polygon fill="none" stroke="#000000" points="2000,-1027 2000,-1057 2579,-1057 2579,-1027 2000,-1027"/>
<text text-anchor="start" x="2007" y="-1038.4" font-family="Arial" font-size="14.00" fill="#000000">track_number </text>
<text text-anchor="start" x="2096.4586" y="-1038.4" font-family="Arial" font-size="14.00" fill="#666666">[integer]</text>
<text text-anchor="start" x="2147.028" y="-1038.4" font-family="Arial" font-size="14.00" fill="#000000"> トラック番号</text>
<polygon fill="none" stroke="#000000" points="2000,-997 2000,-1027 2579,-1027 2579,-997 2000,-997"/>
<text text-anchor="start" x="2007" y="-1008.4" font-family="Arial" font-size="14.00" fill="#000000">release_date </text>
<text text-anchor="start" x="2091.8092" y="-1008.4" font-family="Arial" font-size="14.00" fill="#666666">[date]</text>
<text text-anchor="start" x="2126.8288" y="-1008.4" font-family="Arial" font-size="14.00" fill="#000000"> 頒布日(アルバムの頒布日と異なる場合に使用する)</text>
<polygon fill="none" stroke="#000000" points="2000,-967 2000,-997 2579,-997 2579,-967 2000,-967"/>
<text text-anchor="start" x="2007" y="-978.4" font-family="Arial" font-size="14.00" fill="#000000">search_enabled </text>
<text text-anchor="start" x="2110.4838" y="-978.4" font-family="Arial" font-size="14.00" fill="#666666">[boolean]</text>
<text text-anchor="start" x="2168.0672" y="-978.4" font-family="Arial" font-size="14.00" fill="#000000"> 検索対象とするか(default: true)</text>
<polygon fill="none" stroke="#000000" points="2000,-937 2000,-967 2579,-967 2579,-937 2000,-937"/>
<text text-anchor="start" x="2007" y="-948.4" font-family="Arial" font-size="14.00" fill="#000000">length </text>
<text text-anchor="start" x="2049.0182" y="-948.4" font-family="Arial" font-size="14.00" fill="#666666">[integer]</text>
<text text-anchor="start" x="2099.5876" y="-948.4" font-family="Arial" font-size="14.00" fill="#000000"> 曲の長さ(秒)</text>
<polygon fill="none" stroke="#000000" points="2000,-907 2000,-937 2579,-937 2579,-907 2000,-907"/>
<text text-anchor="start" x="2007" y="-918.4" font-family="Arial" font-size="14.00" fill="#000000">bpm </text>
<text text-anchor="start" x="2038.1164" y="-918.4" font-family="Arial" font-size="14.00" fill="#666666">[integer]</text>
<text text-anchor="start" x="2088.6858" y="-918.4" font-family="Arial" font-size="14.00" fill="#000000"> BPM</text>
<polygon fill="none" stroke="#000000" points="2000,-877 2000,-907 2579,-907 2579,-877 2000,-877"/>
<text text-anchor="start" x="2007" y="-888.4" font-family="Arial" font-size="14.00" fill="#000000">display_composer </text>
<text text-anchor="start" x="2123.6858" y="-888.4" font-family="Arial" font-size="14.00" fill="#666666">[text]</text>
<text text-anchor="start" x="2154.0308" y="-888.4" font-family="Arial" font-size="14.00" fill="#000000"> 作曲者表示用(1度しか使用しない別名義などで使用する)</text>
<polygon fill="none" stroke="#000000" points="2000,-847 2000,-877 2579,-877 2579,-847 2000,-847"/>
<text text-anchor="start" x="2007" y="-858.4" font-family="Arial" font-size="14.00" fill="#000000">display_arranger </text>
<text text-anchor="start" x="2115.129" y="-858.4" font-family="Arial" font-size="14.00" fill="#666666">[text]</text>
<text text-anchor="start" x="2145.474" y="-858.4" font-family="Arial" font-size="14.00" fill="#000000"> 編曲者表示用(1度しか使用しない別名義などで使用する)</text>
<polygon fill="none" stroke="#000000" points="2000,-817 2000,-847 2579,-847 2579,-817 2000,-817"/>
<text text-anchor="start" x="2007" y="-828.4" font-family="Arial" font-size="14.00" fill="#000000">display_rearranger </text>
<text text-anchor="start" x="2127.5722" y="-828.4" font-family="Arial" font-size="14.00" fill="#666666">[text]</text>
<text text-anchor="start" x="2157.9172" y="-828.4" font-family="Arial" font-size="14.00" fill="#000000"> 再編曲者表示用(1度しか使用しない別名義などで使用する)</text>
<polygon fill="none" stroke="#000000" points="2000,-787 2000,-817 2579,-817 2579,-787 2000,-787"/>
<text text-anchor="start" x="2007" y="-798.4" font-family="Arial" font-size="14.00" fill="#000000">display_lyricist </text>
<text text-anchor="start" x="2101.1052" y="-798.4" font-family="Arial" font-size="14.00" fill="#666666">[text]</text>
<text text-anchor="start" x="2131.4502" y="-798.4" font-family="Arial" font-size="14.00" fill="#000000"> 作詞者表示用(1度しか使用しない別名義などで使用する)</text>
<polygon fill="none" stroke="#000000" points="2000,-757 2000,-787 2579,-787 2579,-757 2000,-757"/>
<text text-anchor="start" x="2006.9653" y="-768.4" font-family="Arial" font-size="14.00" fill="#000000">display_vocalist </text>
<text text-anchor="start" x="2108.8685" y="-768.4" font-family="Arial" font-size="14.00" fill="#666666">[text]</text>
<text text-anchor="start" x="2139.2135" y="-768.4" font-family="Arial" font-size="14.00" fill="#000000"> ボーカリスト表示用(1度しか使用しない別名義などで使用する)</text>
<polygon fill="none" stroke="#000000" points="2000,-727 2000,-757 2579,-757 2579,-727 2000,-727"/>
<text text-anchor="start" x="2007" y="-738.4" font-family="Arial" font-size="14.00" fill="#000000">display_original_song </text>
<text text-anchor="start" x="2145.4754" y="-738.4" font-family="Arial" font-size="14.00" fill="#666666">[text]</text>
<text text-anchor="start" x="2175.8204" y="-738.4" font-family="Arial" font-size="14.00" fill="#000000"> 原曲表示用(東方以外の原曲などで使用する)</text>
<polygon fill="none" stroke="#000000" points="2000,-697 2000,-727 2579,-727 2579,-697 2000,-697"/>
<text text-anchor="start" x="2007" y="-708.4" font-family="Arial" font-size="14.00" fill="#000000">created_at </text>
<text text-anchor="start" x="2077.028" y="-708.4" font-family="Arial" font-size="14.00" fill="#666666">[timestamp with time zone]</text>
<text text-anchor="start" x="2242.7124" y="-708.4" font-family="Arial" font-size="14.00" fill="#000000"> 作成日時</text>
<polygon fill="none" stroke="#000000" points="2000,-667 2000,-697 2579,-697 2579,-667 2000,-667"/>
<text text-anchor="start" x="2007" y="-678.4" font-family="Arial" font-size="14.00" fill="#000000">updated_at </text>
<text text-anchor="start" x="2080.9326" y="-678.4" font-family="Arial" font-size="14.00" fill="#666666">[timestamp with time zone]</text>
<text text-anchor="start" x="2246.617" y="-678.4" font-family="Arial" font-size="14.00" fill="#000000"> 更新日時</text>
</g>
<!-- public.tracks&#45;&gt;public.albums -->
<g id="edge5" class="edge">
<title>public.tracks:album_id&#45;&gt;public.albums:id</title>
<path fill="none" stroke="#000000" d="M1990.8483,-1157.8457C1942.0611,-1110.8214 1959.5845,-679.3701 1947,-624 1932.0119,-558.0546 1962.6272,-481 1895,-481"/>
<polygon fill="#000000" stroke="#000000" points="1990.8942,-1157.8665 1998.1399,-1166.0976 1995.4471,-1159.9333 2000,-1162 2000,-1162 2000,-1162 1995.4471,-1159.9333 2001.8601,-1157.9024 1990.8942,-1157.8665 1990.8942,-1157.8665"/>
<text text-anchor="start" x="1754.5565" y="-1172" font-family="Arial" font-size="10.00" fill="#000000">FOREIGN KEY (album_id) REFERENCES albums(id)</text>
</g>
<!-- public.albums_genres -->
<g id="node7" class="node">
<title>public.albums_genres</title>
<polygon fill="#efefef" stroke="transparent" points="2683,-1012 2683,-1058 3151,-1058 3151,-1012 2683,-1012"/>
<polygon fill="none" stroke="#000000" points="2683,-1012 2683,-1058 3151,-1058 3151,-1012 2683,-1012"/>
<text text-anchor="start" x="2780.8544" y="-1035.8" font-family="Arial Bold" font-size="18.00" fill="#000000">public.albums_genres</text>
<text text-anchor="start" x="2955.8918" y="-1035.8" font-family="Arial" font-size="14.00" fill="#000000"> </text>
<text text-anchor="start" x="2959.7824" y="-1035.8" font-family="Arial" font-size="14.00" fill="#666666">[BASE TABLE]</text>
<text text-anchor="start" x="2855.8228" y="-1021.4" font-family="Arial" font-size="14.00" fill="#333333">アルバムジャンル</text>
<polygon fill="none" stroke="#000000" points="2683,-982 2683,-1012 3151,-1012 3151,-982 2683,-982"/>
<text text-anchor="start" x="2690" y="-993.4" font-family="Arial" font-size="14.00" fill="#000000">album_id </text>
<text text-anchor="start" x="2750.6774" y="-993.4" font-family="Arial" font-size="14.00" fill="#666666">[text]</text>
<text text-anchor="start" x="2781.0224" y="-993.4" font-family="Arial" font-size="14.00" fill="#000000"> アルバムID</text>
<polygon fill="none" stroke="#000000" points="2683,-952 2683,-982 3151,-982 3151,-952 2683,-952"/>
<text text-anchor="start" x="2690" y="-963.4" font-family="Arial" font-size="14.00" fill="#000000">tag_id </text>
<text text-anchor="start" x="2732.0182" y="-963.4" font-family="Arial" font-size="14.00" fill="#666666">[text]</text>
<text text-anchor="start" x="2762.3632" y="-963.4" font-family="Arial" font-size="14.00" fill="#000000"> タグID</text>
<polygon fill="none" stroke="#000000" points="2683,-922 2683,-952 3151,-952 3151,-922 2683,-922"/>
<text text-anchor="start" x="2689.6274" y="-933.4" font-family="Arial" font-size="14.00" fill="#000000">locked </text>
<text text-anchor="start" x="2733.9724" y="-933.4" font-family="Arial" font-size="14.00" fill="#666666">[boolean]</text>
<text text-anchor="start" x="2791.5558" y="-933.4" font-family="Arial" font-size="14.00" fill="#000000"> ロック有無(true: ロック・削除不可、false: アンロック)</text>
<polygon fill="none" stroke="#000000" points="2683,-892 2683,-922 3151,-922 3151,-892 2683,-892"/>
<text text-anchor="start" x="2690" y="-903.4" font-family="Arial" font-size="14.00" fill="#000000">created_at </text>
<text text-anchor="start" x="2760.028" y="-903.4" font-family="Arial" font-size="14.00" fill="#666666">[timestamp with time zone]</text>
<text text-anchor="start" x="2925.7124" y="-903.4" font-family="Arial" font-size="14.00" fill="#000000"> 作成日時</text>
<polygon fill="none" stroke="#000000" points="2683,-862 2683,-892 3151,-892 3151,-862 2683,-862"/>
<text text-anchor="start" x="2690" y="-873.4" font-family="Arial" font-size="14.00" fill="#000000">updated_at </text>
<text text-anchor="start" x="2763.9326" y="-873.4" font-family="Arial" font-size="14.00" fill="#666666">[timestamp with time zone]</text>
<text text-anchor="start" x="2929.617" y="-873.4" font-family="Arial" font-size="14.00" fill="#000000"> 更新日時</text>
</g>
<!-- public.albums_genres&#45;&gt;public.albums -->
<g id="edge6" class="edge">
<title>public.albums_genres:album_id&#45;&gt;public.albums:id</title>
<path fill="none" stroke="#000000" d="M2672.7395,-995.1607C2607.0334,-969.4526 2685.9911,-682.0081 2631,-624 2516.3724,-503.0837 2061.6141,-481 1895,-481"/>
<polygon fill="#000000" stroke="#000000" points="2673.1569,-995.2354 2682.2059,-1001.4294 2678.0784,-996.1177 2683,-997 2683,-997 2683,-997 2678.0784,-996.1177 2683.7941,-992.5706 2673.1569,-995.2354 2673.1569,-995.2354"/>
<text text-anchor="start" x="2437.5565" y="-1007" font-family="Arial" font-size="10.00" fill="#000000">FOREIGN KEY (album_id) REFERENCES albums(id)</text>
</g>
<!-- public.albums_tags -->
<g id="node8" class="node">
<title>public.albums_tags</title>
<polygon fill="#efefef" stroke="transparent" points="3256,-1012 3256,-1058 3653,-1058 3653,-1012 3256,-1012"/>
<polygon fill="none" stroke="#000000" points="3256,-1012 3256,-1058 3653,-1058 3653,-1012 3256,-1012"/>
<text text-anchor="start" x="3328.8556" y="-1035.8" font-family="Arial Bold" font-size="18.00" fill="#000000">public.albums_tags</text>
<text text-anchor="start" x="3482.8906" y="-1035.8" font-family="Arial" font-size="14.00" fill="#000000"> </text>
<text text-anchor="start" x="3486.7812" y="-1035.8" font-family="Arial" font-size="14.00" fill="#666666">[BASE TABLE]</text>
<text text-anchor="start" x="3409.3976" y="-1021.4" font-family="Arial" font-size="14.00" fill="#333333">アルバムタグ</text>
<polygon fill="none" stroke="#000000" points="3256,-982 3256,-1012 3653,-1012 3653,-982 3256,-982"/>
<text text-anchor="start" x="3263" y="-993.4" font-family="Arial" font-size="14.00" fill="#000000">album_id </text>
<text text-anchor="start" x="3323.6774" y="-993.4" font-family="Arial" font-size="14.00" fill="#666666">[text]</text>
<text text-anchor="start" x="3354.0224" y="-993.4" font-family="Arial" font-size="14.00" fill="#000000"> アルバムID</text>
<polygon fill="none" stroke="#000000" points="3256,-952 3256,-982 3653,-982 3653,-952 3256,-952"/>
<text text-anchor="start" x="3263" y="-963.4" font-family="Arial" font-size="14.00" fill="#000000">tag_id </text>
<text text-anchor="start" x="3305.0182" y="-963.4" font-family="Arial" font-size="14.00" fill="#666666">[text]</text>
<text text-anchor="start" x="3335.3632" y="-963.4" font-family="Arial" font-size="14.00" fill="#000000"> タグID</text>
<polygon fill="none" stroke="#000000" points="3256,-922 3256,-952 3653,-952 3653,-922 3256,-922"/>
<text text-anchor="start" x="3262.7826" y="-933.4" font-family="Arial" font-size="14.00" fill="#000000">locked </text>
<text text-anchor="start" x="3307.1276" y="-933.4" font-family="Arial" font-size="14.00" fill="#666666">[boolean]</text>
<text text-anchor="start" x="3364.711" y="-933.4" font-family="Arial" font-size="14.00" fill="#000000"> ロック有無(true: ロック、false: アンロック)</text>
<polygon fill="none" stroke="#000000" points="3256,-892 3256,-922 3653,-922 3653,-892 3256,-892"/>
<text text-anchor="start" x="3263" y="-903.4" font-family="Arial" font-size="14.00" fill="#000000">created_at </text>
<text text-anchor="start" x="3333.028" y="-903.4" font-family="Arial" font-size="14.00" fill="#666666">[timestamp with time zone]</text>
<text text-anchor="start" x="3498.7124" y="-903.4" font-family="Arial" font-size="14.00" fill="#000000"> 作成日時</text>
<polygon fill="none" stroke="#000000" points="3256,-862 3256,-892 3653,-892 3653,-862 3256,-862"/>
<text text-anchor="start" x="3263" y="-873.4" font-family="Arial" font-size="14.00" fill="#000000">updated_at </text>
<text text-anchor="start" x="3336.9326" y="-873.4" font-family="Arial" font-size="14.00" fill="#666666">[timestamp with time zone]</text>
<text text-anchor="start" x="3502.617" y="-873.4" font-family="Arial" font-size="14.00" fill="#000000"> 更新日時</text>
</g>
<!-- public.albums_tags&#45;&gt;public.albums -->
<g id="edge7" class="edge">
<title>public.albums_tags:album_id&#45;&gt;public.albums:id</title>
<path fill="none" stroke="#000000" d="M3245.7447,-995.1462C3180.1377,-969.2382 3260.445,-679.6216 3203,-624 3097.9679,-522.3019 2041.1993,-481 1895,-481"/>
<polygon fill="#000000" stroke="#000000" points="3246.1595,-995.2211 3255.1995,-1001.4282 3251.0797,-996.1106 3256,-997 3256,-997 3256,-997 3251.0797,-996.1106 3256.8005,-992.5718 3246.1595,-995.2211 3246.1595,-995.2211"/>
<text text-anchor="start" x="3262.5565" y="-1007" font-family="Arial" font-size="10.00" fill="#000000">FOREIGN KEY (album_id) REFERENCES albums(id)</text>
</g>
</g>
</svg>
