<?xml version="1.0" encoding="UTF-8" standalone="no"?>
<!DOCTYPE svg PUBLIC "-//W3C//DTD SVG 1.1//EN"
 "http://www.w3.org/Graphics/SVG/1.1/DTD/svg11.dtd">
<!-- Generated by graphviz version 2.40.1 (20161225.0304)
 -->
<!-- Title: public.circles Pages: 1 -->
<svg width="1979pt" height="854pt"
 viewBox="0.00 0.00 1978.50 854.00" xmlns="http://www.w3.org/2000/svg" xmlns:xlink="http://www.w3.org/1999/xlink">
<g id="graph0" class="graph" transform="scale(1 1) rotate(0) translate(4 850)">
<title>public.circles</title>
<polygon fill="#ffffff" stroke="transparent" points="-4,4 -4,-850 1974.5,-850 1974.5,4 -4,4"/>
<!-- public.circles -->
<g id="node1" class="node">
<title>public.circles</title>
<polygon fill="#efefef" stroke="transparent" points="620,-406 620,-452 1242,-452 1242,-406 620,-406"/>
<polygon fill="none" stroke="#000000" points="620,-406 620,-452 1242,-452 1242,-406 620,-406"/>
<text text-anchor="start" x="815.718" y="-429.8" font-family="Arial Bold" font-size="18.00" fill="#000000">public.circles</text>
<text text-anchor="start" x="918.714" y="-429.8" font-family="Arial" font-size="14.00" fill="#000000">    </text>
<text text-anchor="start" x="952.9188" y="-429.8" font-family="Arial" font-size="14.00" fill="#666666">[BASE TABLE]</text>
<text text-anchor="start" x="896.525" y="-415.4" font-family="Arial" font-size="14.00" fill="#333333">サークル</text>
<polygon fill="none" stroke="#000000" points="620,-376 620,-406 1242,-406 1242,-376 620,-376"/>
<text text-anchor="start" x="627" y="-387.4" font-family="Arial" font-size="14.00" fill="#000000">id </text>
<text text-anchor="start" x="641.7798" y="-387.4" font-family="Arial" font-size="14.00" fill="#666666">[text]</text>
<polygon fill="none" stroke="#000000" points="620,-346 620,-376 1242,-376 1242,-346 620,-346"/>
<text text-anchor="start" x="627" y="-357.4" font-family="Arial" font-size="14.00" fill="#000000">name </text>
<text text-anchor="start" x="665.899" y="-357.4" font-family="Arial" font-size="14.00" fill="#666666">[text]</text>
<text text-anchor="start" x="696.244" y="-357.4" font-family="Arial" font-size="14.00" fill="#000000"> 名前</text>
<polygon fill="none" stroke="#000000" points="620,-316 620,-346 1242,-346 1242,-316 620,-316"/>
<text text-anchor="start" x="627" y="-327.4" font-family="Arial" font-size="14.00" fill="#000000">name_reading </text>
<text text-anchor="start" x="720.3618" y="-327.4" font-family="Arial" font-size="14.00" fill="#666666">[text]</text>
<text text-anchor="start" x="750.7068" y="-327.4" font-family="Arial" font-size="14.00" fill="#000000"> 名前読み方</text>
<polygon fill="none" stroke="#000000" points="620,-286 620,-316 1242,-316 1242,-286 620,-286"/>
<text text-anchor="start" x="626.5763" y="-297.4" font-family="Arial" font-size="14.00" fill="#000000">initial_letter_type </text>
<text text-anchor="start" x="735.4837" y="-297.4" font-family="Arial" font-size="14.00" fill="#666666">[initial_letter_type]</text>
<text text-anchor="start" x="848.2817" y="-297.4" font-family="Arial" font-size="14.00" fill="#000000"> 頭文字の文字種別(symbol,number,alphabet,kana,kanji,other)</text>
<polygon fill="none" stroke="#000000" points="620,-256 620,-286 1242,-286 1242,-256 620,-256"/>
<text text-anchor="start" x="627" y="-267.4" font-family="Arial" font-size="14.00" fill="#000000">initial_letter_detail </text>
<text text-anchor="start" x="742.9032" y="-267.4" font-family="Arial" font-size="14.00" fill="#666666">[text]</text>
<text text-anchor="start" x="773.2482" y="-267.4" font-family="Arial" font-size="14.00" fill="#000000"> 頭文字の文字種別詳細</text>
<polygon fill="none" stroke="#000000" points="620,-226 620,-256 1242,-256 1242,-226 620,-226"/>
<text text-anchor="start" x="627" y="-237.4" font-family="Arial" font-size="14.00" fill="#000000">description </text>
<text text-anchor="start" x="698.568" y="-237.4" font-family="Arial" font-size="14.00" fill="#666666">[text]</text>
<text text-anchor="start" x="728.913" y="-237.4" font-family="Arial" font-size="14.00" fill="#000000"> 説明</text>
<polygon fill="none" stroke="#000000" points="620,-196 620,-226 1242,-226 1242,-196 620,-196"/>
<text text-anchor="start" x="627" y="-207.4" font-family="Arial" font-size="14.00" fill="#000000">url </text>
<text text-anchor="start" x="646.4404" y="-207.4" font-family="Arial" font-size="14.00" fill="#666666">[text]</text>
<text text-anchor="start" x="676.7854" y="-207.4" font-family="Arial" font-size="14.00" fill="#000000"> URL</text>
<polygon fill="none" stroke="#000000" points="620,-166 620,-196 1242,-196 1242,-166 620,-166"/>
<text text-anchor="start" x="627" y="-177.4" font-family="Arial" font-size="14.00" fill="#000000">blog_url </text>
<text text-anchor="start" x="680.6774" y="-177.4" font-family="Arial" font-size="14.00" fill="#666666">[text]</text>
<text text-anchor="start" x="711.0224" y="-177.4" font-family="Arial" font-size="14.00" fill="#000000"> ブログ URL</text>
<polygon fill="none" stroke="#000000" points="620,-136 620,-166 1242,-166 1242,-136 620,-136"/>
<text text-anchor="start" x="627" y="-147.4" font-family="Arial" font-size="14.00" fill="#000000">twitter_url </text>
<text text-anchor="start" x="691.5512" y="-147.4" font-family="Arial" font-size="14.00" fill="#666666">[text]</text>
<text text-anchor="start" x="721.8962" y="-147.4" font-family="Arial" font-size="14.00" fill="#000000"> Twitter URL</text>
<polygon fill="none" stroke="#000000" points="620,-106 620,-136 1242,-136 1242,-106 620,-106"/>
<text text-anchor="start" x="627" y="-117.4" font-family="Arial" font-size="14.00" fill="#000000">youtube_channel_url </text>
<text text-anchor="start" x="760.8288" y="-117.4" font-family="Arial" font-size="14.00" fill="#666666">[text]</text>
<text text-anchor="start" x="791.1738" y="-117.4" font-family="Arial" font-size="14.00" fill="#000000"> YouTubeチャンネル URL</text>
<polygon fill="none" stroke="#000000" points="620,-76 620,-106 1242,-106 1242,-76 620,-76"/>
<text text-anchor="start" x="627" y="-87.4" font-family="Arial" font-size="14.00" fill="#000000">created_at </text>
<text text-anchor="start" x="697.028" y="-87.4" font-family="Arial" font-size="14.00" fill="#666666">[timestamp with time zone]</text>
<text text-anchor="start" x="862.7124" y="-87.4" font-family="Arial" font-size="14.00" fill="#000000"> 作成日時</text>
<polygon fill="none" stroke="#000000" points="620,-46 620,-76 1242,-76 1242,-46 620,-46"/>
<text text-anchor="start" x="627" y="-57.4" font-family="Arial" font-size="14.00" fill="#000000">updated_at </text>
<text text-anchor="start" x="700.9326" y="-57.4" font-family="Arial" font-size="14.00" fill="#666666">[timestamp with time zone]</text>
<text text-anchor="start" x="866.617" y="-57.4" font-family="Arial" font-size="14.00" fill="#000000"> 更新日時</text>
<polygon fill="none" stroke="#000000" stroke-width="3" points="618.5,-44.5 618.5,-453.5 1243.5,-453.5 1243.5,-44.5 618.5,-44.5"/>
</g>
<!-- public.albums_circles -->
<g id="node2" class="node">
<title>public.albums_circles</title>
<polygon fill="#efefef" stroke="transparent" points="43,-727 43,-773 387,-773 387,-727 43,-727"/>
<polygon fill="none" stroke="#000000" points="43,-727 43,-773 387,-773 387,-727 43,-727"/>
<text text-anchor="start" x="65.7124" y="-750.8" font-family="Arial Bold" font-size="18.00" fill="#000000">public.albums_circles</text>
<text text-anchor="start" x="236.7196" y="-750.8" font-family="Arial" font-size="14.00" fill="#000000">    </text>
<text text-anchor="start" x="270.9244" y="-750.8" font-family="Arial" font-size="14.00" fill="#666666">[BASE TABLE]</text>
<text text-anchor="start" x="86.1678" y="-736.4" font-family="Arial" font-size="14.00" fill="#333333">アルバムとサークルの中間テーブル</text>
<polygon fill="none" stroke="#000000" points="43,-697 43,-727 387,-727 387,-697 43,-697"/>
<text text-anchor="start" x="50" y="-708.4" font-family="Arial" font-size="14.00" fill="#000000">album_id    </text>
<text text-anchor="start" x="140.9916" y="-708.4" font-family="Arial" font-size="14.00" fill="#666666">[text]</text>
<text text-anchor="start" x="171.3366" y="-708.4" font-family="Arial" font-size="14.00" fill="#000000"> アルバムID</text>
<polygon fill="none" stroke="#000000" points="43,-667 43,-697 387,-697 387,-667 43,-667"/>
<text text-anchor="start" x="50" y="-678.4" font-family="Arial" font-size="14.00" fill="#000000">circle_id    </text>
<text text-anchor="start" x="135.533" y="-678.4" font-family="Arial" font-size="14.00" fill="#666666">[text]</text>
<text text-anchor="start" x="165.878" y="-678.4" font-family="Arial" font-size="14.00" fill="#000000"> サークルID</text>
<polygon fill="none" stroke="#000000" points="43,-637 43,-667 387,-667 387,-637 43,-637"/>
<text text-anchor="start" x="49.6971" y="-648.4" font-family="Arial" font-size="14.00" fill="#000000">created_at    </text>
<text text-anchor="start" x="150.0393" y="-648.4" font-family="Arial" font-size="14.00" fill="#666666">[timestamp with time zone]</text>
<text text-anchor="start" x="315.7237" y="-648.4" font-family="Arial" font-size="14.00" fill="#000000"> 作成日時</text>
<polygon fill="none" stroke="#000000" points="43,-607 43,-637 387,-637 387,-607 43,-607"/>
<text text-anchor="start" x="50" y="-618.4" font-family="Arial" font-size="14.00" fill="#000000">updated_at    </text>
<text text-anchor="start" x="154.2468" y="-618.4" font-family="Arial" font-size="14.00" fill="#666666">[timestamp with time zone]</text>
<text text-anchor="start" x="319.9312" y="-618.4" font-family="Arial" font-size="14.00" fill="#000000"> 更新日時</text>
</g>
<!-- public.albums_circles&#45;&gt;public.circles -->
<g id="edge1" class="edge">
<title>public.albums_circles:circle_id&#45;&gt;public.circles:id</title>
<path fill="none" stroke="#000000" d="M396.9957,-681.2571C450.8529,-672.4712 400.6259,-587.7505 439,-534 498.5696,-450.5609 517.4787,-391 620,-391"/>
<polygon fill="#000000" stroke="#000000" points="396.9725,-681.2587 386.6664,-677.5124 391.9862,-681.6294 387,-682 387,-682 387,-682 391.9862,-681.6294 387.3336,-686.4876 396.9725,-681.2587 396.9725,-681.2587"/>
<text text-anchor="start" x="394.4555" y="-692" font-family="Arial" font-size="10.00" fill="#000000">FOREIGN KEY (circle_id) REFERENCES circles(id)</text>
</g>
<!-- public.songs_arrange_circles -->
<g id="node3" class="node">
<title>public.songs_arrange_circles</title>
<polygon fill="#efefef" stroke="transparent" points="491,-727 491,-773 865,-773 865,-727 491,-727"/>
<polygon fill="none" stroke="#000000" points="491,-727 491,-773 865,-773 865,-727 491,-727"/>
<text text-anchor="start" x="497.6948" y="-750.8" font-family="Arial Bold" font-size="18.00" fill="#000000">public.songs_arrange_circles</text>
<text text-anchor="start" x="730.7372" y="-750.8" font-family="Arial" font-size="14.00" fill="#000000">    </text>
<text text-anchor="start" x="764.942" y="-750.8" font-family="Arial" font-size="14.00" fill="#666666">[BASE TABLE]</text>
<text text-anchor="start" x="606.8387" y="-736.4" font-family="Arial" font-size="14.00" fill="#333333">楽曲編曲サークル</text>
<polygon fill="none" stroke="#000000" points="491,-697 491,-727 865,-727 865,-697 491,-697"/>
<text text-anchor="start" x="498" y="-708.4" font-family="Arial" font-size="14.00" fill="#000000">song_id    </text>
<text text-anchor="start" x="581.2244" y="-708.4" font-family="Arial" font-size="14.00" fill="#666666">[text]</text>
<text text-anchor="start" x="611.5694" y="-708.4" font-family="Arial" font-size="14.00" fill="#000000"> 楽曲ID</text>
<polygon fill="none" stroke="#000000" points="491,-667 491,-697 865,-697 865,-667 491,-667"/>
<text text-anchor="start" x="498" y="-678.4" font-family="Arial" font-size="14.00" fill="#000000">circle_id    </text>
<text text-anchor="start" x="583.533" y="-678.4" font-family="Arial" font-size="14.00" fill="#666666">[text]</text>
<text text-anchor="start" x="613.878" y="-678.4" font-family="Arial" font-size="14.00" fill="#000000"> サークルID</text>
<polygon fill="none" stroke="#000000" points="491,-637 491,-667 865,-667 865,-637 491,-637"/>
<text text-anchor="start" x="498" y="-648.4" font-family="Arial" font-size="14.00" fill="#000000">created_at    </text>
<text text-anchor="start" x="598.3422" y="-648.4" font-family="Arial" font-size="14.00" fill="#666666">[timestamp with time zone]</text>
<text text-anchor="start" x="764.0266" y="-648.4" font-family="Arial" font-size="14.00" fill="#000000"> 作成日時</text>
<polygon fill="none" stroke="#000000" points="491,-607 491,-637 865,-637 865,-607 491,-607"/>
<text text-anchor="start" x="498" y="-618.4" font-family="Arial" font-size="14.00" fill="#000000">updated_at    </text>
<text text-anchor="start" x="602.2468" y="-618.4" font-family="Arial" font-size="14.00" fill="#666666">[timestamp with time zone]</text>
<text text-anchor="start" x="767.9312" y="-618.4" font-family="Arial" font-size="14.00" fill="#000000"> 更新日時</text>
</g>
<!-- public.songs_arrange_circles&#45;&gt;public.circles -->
<g id="edge2" class="edge">
<title>public.songs_arrange_circles:circle_id&#45;&gt;public.circles:id</title>
<path fill="none" stroke="#000000" d="M875.0014,-680.9059C914.499,-671.432 894.6554,-602.7014 865,-564 796.4096,-474.4869 688.5904,-587.5131 620,-498 591.0753,-460.2522 572.4444,-391 620,-391"/>
<polygon fill="#000000" stroke="#000000" points="874.9407,-680.9125 864.5106,-677.5267 869.9703,-681.4562 865,-682 865,-682 865,-682 869.9703,-681.4562 865.4894,-686.4733 874.9407,-680.9125 874.9407,-680.9125"/>
<text text-anchor="start" x="872.4555" y="-692" font-family="Arial" font-size="10.00" fill="#000000">FOREIGN KEY (circle_id) REFERENCES circles(id)</text>
</g>
<!-- public.circles_genres -->
<g id="node4" class="node">
<title>public.circles_genres</title>
<polygon fill="#efefef" stroke="transparent" points="970,-757 970,-803 1397,-803 1397,-757 970,-757"/>
<polygon fill="none" stroke="#000000" points="970,-757 970,-803 1397,-803 1397,-757 970,-757"/>
<text text-anchor="start" x="1035.7064" y="-780.8" font-family="Arial Bold" font-size="18.00" fill="#000000">public.circles_genres</text>
<text text-anchor="start" x="1203.7256" y="-780.8" font-family="Arial" font-size="14.00" fill="#000000">    </text>
<text text-anchor="start" x="1237.9304" y="-780.8" font-family="Arial" font-size="14.00" fill="#666666">[BASE TABLE]</text>
<text text-anchor="start" x="1133.7342" y="-766.4" font-family="Arial" font-size="14.00" fill="#333333">サークルタグ</text>
<polygon fill="none" stroke="#000000" points="970,-727 970,-757 1397,-757 1397,-727 970,-727"/>
<text text-anchor="start" x="977" y="-738.4" font-family="Arial" font-size="14.00" fill="#000000">id    </text>
<text text-anchor="start" x="1022.094" y="-738.4" font-family="Arial" font-size="14.00" fill="#666666">[text]</text>
<text text-anchor="start" x="1052.439" y="-738.4" font-family="Arial" font-size="14.00" fill="#000000"> ID</text>
<polygon fill="none" stroke="#000000" points="970,-697 970,-727 1397,-727 1397,-697 970,-697"/>
<text text-anchor="start" x="977" y="-708.4" font-family="Arial" font-size="14.00" fill="#000000">circle_id    </text>
<text text-anchor="start" x="1062.533" y="-708.4" font-family="Arial" font-size="14.00" fill="#666666">[text]</text>
<text text-anchor="start" x="1092.878" y="-708.4" font-family="Arial" font-size="14.00" fill="#000000"> サークルID</text>
<polygon fill="none" stroke="#000000" points="970,-667 970,-697 1397,-697 1397,-667 970,-667"/>
<text text-anchor="start" x="977" y="-678.4" font-family="Arial" font-size="14.00" fill="#000000">genre_id    </text>
<text text-anchor="start" x="1065.6676" y="-678.4" font-family="Arial" font-size="14.00" fill="#666666">[text]</text>
<text text-anchor="start" x="1096.0126" y="-678.4" font-family="Arial" font-size="14.00" fill="#000000"> タグID</text>
<polygon fill="none" stroke="#000000" points="970,-637 970,-667 1397,-667 1397,-637 970,-637"/>
<text text-anchor="start" x="976.6255" y="-648.4" font-family="Arial" font-size="14.00" fill="#000000">locked    </text>
<text text-anchor="start" x="1051.2847" y="-648.4" font-family="Arial" font-size="14.00" fill="#666666">[boolean]</text>
<text text-anchor="start" x="1108.8681" y="-648.4" font-family="Arial" font-size="14.00" fill="#000000"> ロック有無(true: ロック、false: アンロック)</text>
<polygon fill="none" stroke="#000000" points="970,-607 970,-637 1397,-637 1397,-607 970,-607"/>
<text text-anchor="start" x="977" y="-618.4" font-family="Arial" font-size="14.00" fill="#000000">created_at    </text>
<text text-anchor="start" x="1077.3422" y="-618.4" font-family="Arial" font-size="14.00" fill="#666666">[timestamp with time zone]</text>
<text text-anchor="start" x="1243.0266" y="-618.4" font-family="Arial" font-size="14.00" fill="#000000"> 作成日時</text>
<polygon fill="none" stroke="#000000" points="970,-577 970,-607 1397,-607 1397,-577 970,-577"/>
<text text-anchor="start" x="977" y="-588.4" font-family="Arial" font-size="14.00" fill="#000000">updated_at    </text>
<text text-anchor="start" x="1081.2468" y="-588.4" font-family="Arial" font-size="14.00" fill="#666666">[timestamp with time zone]</text>
<text text-anchor="start" x="1246.9312" y="-588.4" font-family="Arial" font-size="14.00" fill="#000000"> 更新日時</text>
</g>
<!-- public.circles_genres&#45;&gt;public.circles -->
<g id="edge3" class="edge">
<title>public.circles_genres:circle_id&#45;&gt;public.circles:id</title>
<path fill="none" stroke="#000000" d="M959.9734,-711.2987C893.3628,-701.4723 920.2012,-590.8241 970,-534 1050.3711,-442.2906 1161.6289,-589.7094 1242,-498 1273.3432,-462.235 1289.5556,-391 1242,-391"/>
<polygon fill="#000000" stroke="#000000" points="960.0244,-711.3022 969.686,-716.489 965.0122,-711.6511 970,-712 970,-712 970,-712 965.0122,-711.6511 970.314,-707.511 960.0244,-711.3022 960.0244,-711.3022"/>
<text text-anchor="start" x="977.4555" y="-722" font-family="Arial" font-size="10.00" fill="#000000">FOREIGN KEY (circle_id) REFERENCES circles(id)</text>
</g>
<!-- public.circles_tags -->
<g id="node5" class="node">
<title>public.circles_tags</title>
<polygon fill="#efefef" stroke="transparent" points="1501,-757 1501,-803 1928,-803 1928,-757 1501,-757"/>
<polygon fill="none" stroke="#000000" points="1501,-757 1501,-803 1928,-803 1928,-757 1501,-757"/>
<text text-anchor="start" x="1577.2076" y="-780.8" font-family="Arial Bold" font-size="18.00" fill="#000000">public.circles_tags</text>
<text text-anchor="start" x="1724.2244" y="-780.8" font-family="Arial" font-size="14.00" fill="#000000">    </text>
<text text-anchor="start" x="1758.4292" y="-780.8" font-family="Arial" font-size="14.00" fill="#666666">[BASE TABLE]</text>
<text text-anchor="start" x="1664.7342" y="-766.4" font-family="Arial" font-size="14.00" fill="#333333">サークルタグ</text>
<polygon fill="none" stroke="#000000" points="1501,-727 1501,-757 1928,-757 1928,-727 1501,-727"/>
<text text-anchor="start" x="1508" y="-738.4" font-family="Arial" font-size="14.00" fill="#000000">id    </text>
<text text-anchor="start" x="1553.094" y="-738.4" font-family="Arial" font-size="14.00" fill="#666666">[text]</text>
<text text-anchor="start" x="1583.439" y="-738.4" font-family="Arial" font-size="14.00" fill="#000000"> サークルID</text>
<polygon fill="none" stroke="#000000" points="1501,-697 1501,-727 1928,-727 1928,-697 1501,-697"/>
<text text-anchor="start" x="1508" y="-708.4" font-family="Arial" font-size="14.00" fill="#000000">circle_id    </text>
<text text-anchor="start" x="1593.533" y="-708.4" font-family="Arial" font-size="14.00" fill="#666666">[text]</text>
<text text-anchor="start" x="1623.878" y="-708.4" font-family="Arial" font-size="14.00" fill="#000000"> サークルID</text>
<polygon fill="none" stroke="#000000" points="1501,-667 1501,-697 1928,-697 1928,-667 1501,-667"/>
<text text-anchor="start" x="1508" y="-678.4" font-family="Arial" font-size="14.00" fill="#000000">tag_id    </text>
<text text-anchor="start" x="1580.3324" y="-678.4" font-family="Arial" font-size="14.00" fill="#666666">[text]</text>
<text text-anchor="start" x="1610.6774" y="-678.4" font-family="Arial" font-size="14.00" fill="#000000"> タグID</text>
<polygon fill="none" stroke="#000000" points="1501,-637 1501,-667 1928,-667 1928,-637 1501,-637"/>
<text text-anchor="start" x="1507.6255" y="-648.4" font-family="Arial" font-size="14.00" fill="#000000">locked    </text>
<text text-anchor="start" x="1582.2847" y="-648.4" font-family="Arial" font-size="14.00" fill="#666666">[boolean]</text>
<text text-anchor="start" x="1639.8681" y="-648.4" font-family="Arial" font-size="14.00" fill="#000000"> ロック有無(true: ロック、false: アンロック)</text>
<polygon fill="none" stroke="#000000" points="1501,-607 1501,-637 1928,-637 1928,-607 1501,-607"/>
<text text-anchor="start" x="1508" y="-618.4" font-family="Arial" font-size="14.00" fill="#000000">created_at    </text>
<text text-anchor="start" x="1608.3422" y="-618.4" font-family="Arial" font-size="14.00" fill="#666666">[timestamp with time zone]</text>
<text text-anchor="start" x="1774.0266" y="-618.4" font-family="Arial" font-size="14.00" fill="#000000"> 作成日時</text>
<polygon fill="none" stroke="#000000" points="1501,-577 1501,-607 1928,-607 1928,-577 1501,-577"/>
<text text-anchor="start" x="1508" y="-588.4" font-family="Arial" font-size="14.00" fill="#000000">updated_at    </text>
<text text-anchor="start" x="1612.2468" y="-588.4" font-family="Arial" font-size="14.00" fill="#666666">[timestamp with time zone]</text>
<text text-anchor="start" x="1777.9312" y="-588.4" font-family="Arial" font-size="14.00" fill="#000000"> 更新日時</text>
</g>
<!-- public.circles_tags&#45;&gt;public.circles -->
<g id="edge4" class="edge">
<title>public.circles_tags:circle_id&#45;&gt;public.circles:id</title>
<path fill="none" stroke="#000000" d="M1490.8419,-711.3411C1425.3929,-702.1012 1495.0716,-597.8242 1449,-534 1383.5536,-443.3354 1353.8182,-391 1242,-391"/>
<polygon fill="#000000" stroke="#000000" points="1491.021,-711.3526 1500.7087,-716.4906 1496.0105,-711.6763 1501,-712 1501,-712 1501,-712 1496.0105,-711.6763 1501.2913,-707.5094 1491.021,-711.3526 1491.021,-711.3526"/>
<text text-anchor="start" x="1447.2055" y="-696" font-family="Arial" font-size="10.00" fill="#000000">FOREIGN KEY (circle_id) REFERENCES circles(id)</text>
</g>
</g>
</svg>
