<?xml version="1.0" encoding="UTF-8" standalone="no"?>
<!DOCTYPE svg PUBLIC "-//W3C//DTD SVG 1.1//EN"
 "http://www.w3.org/Graphics/SVG/1.1/DTD/svg11.dtd">
<!-- Generated by graphviz version 2.40.1 (20161225.0304)
 -->
<!-- Title: public.tracks_arrange_circles Pages: 1 -->
<svg width="1296pt" height="704pt"
 viewBox="0.00 0.00 1296.00 704.00" xmlns="http://www.w3.org/2000/svg" xmlns:xlink="http://www.w3.org/1999/xlink">
<g id="graph0" class="graph" transform="scale(1 1) rotate(0) translate(4 700)">
<title>public.tracks_arrange_circles</title>
<polygon fill="#ffffff" stroke="transparent" points="-4,4 -4,-700 1292,-700 1292,4 -4,4"/>
<!-- public.tracks_arrange_circles -->
<g id="node1" class="node">
<title>public.tracks_arrange_circles</title>
<polygon fill="#efefef" stroke="transparent" points="435,-604 435,-650 779,-650 779,-604 435,-604"/>
<polygon fill="none" stroke="#000000" points="435,-604 435,-650 779,-650 779,-604 435,-604"/>
<text text-anchor="start" x="441.8609" y="-627.8" font-family="Arial Bold" font-size="18.00" fill="#000000">public.tracks_arrange_circles</text>
<text text-anchor="start" x="674.8853" y="-627.8" font-family="Arial" font-size="14.00" fill="#000000"> </text>
<text text-anchor="start" x="678.7759" y="-627.8" font-family="Arial" font-size="14.00" fill="#666666">[BASE TABLE]</text>
<text text-anchor="start" x="535.8387" y="-613.4" font-family="Arial" font-size="14.00" fill="#333333">楽曲編曲サークル</text>
<polygon fill="none" stroke="#000000" points="435,-574 435,-604 779,-604 779,-574 435,-574"/>
<text text-anchor="start" x="442" y="-585.4" font-family="Arial" font-size="14.00" fill="#000000">track_id </text>
<text text-anchor="start" x="494.8962" y="-585.4" font-family="Arial" font-size="14.00" fill="#666666">[text]</text>
<text text-anchor="start" x="525.2412" y="-585.4" font-family="Arial" font-size="14.00" fill="#000000"> トラックID</text>
<polygon fill="none" stroke="#000000" points="435,-544 435,-574 779,-574 779,-544 435,-544"/>
<text text-anchor="start" x="442" y="-555.4" font-family="Arial" font-size="14.00" fill="#000000">circle_id </text>
<text text-anchor="start" x="497.2188" y="-555.4" font-family="Arial" font-size="14.00" fill="#666666">[text]</text>
<text text-anchor="start" x="527.5638" y="-555.4" font-family="Arial" font-size="14.00" fill="#000000"> サークルID</text>
<polygon fill="none" stroke="#000000" points="435,-514 435,-544 779,-544 779,-514 435,-514"/>
<text text-anchor="start" x="442" y="-525.4" font-family="Arial" font-size="14.00" fill="#000000">created_at </text>
<text text-anchor="start" x="512.028" y="-525.4" font-family="Arial" font-size="14.00" fill="#666666">[timestamp with time zone]</text>
<text text-anchor="start" x="677.7124" y="-525.4" font-family="Arial" font-size="14.00" fill="#000000"> 作成日時</text>
<polygon fill="none" stroke="#000000" points="435,-484 435,-514 779,-514 779,-484 435,-484"/>
<text text-anchor="start" x="442" y="-495.4" font-family="Arial" font-size="14.00" fill="#000000">updated_at </text>
<text text-anchor="start" x="515.9326" y="-495.4" font-family="Arial" font-size="14.00" fill="#666666">[timestamp with time zone]</text>
<text text-anchor="start" x="681.617" y="-495.4" font-family="Arial" font-size="14.00" fill="#000000"> 更新日時</text>
<polygon fill="none" stroke="#000000" stroke-width="3" points="433.5,-482.5 433.5,-651.5 780.5,-651.5 780.5,-482.5 433.5,-482.5"/>
</g>
<!-- public.tracks -->
<g id="node2" class="node">
<title>public.tracks</title>
<polygon fill="#efefef" stroke="transparent" points="43,-313 43,-359 519,-359 519,-313 43,-313"/>
<polygon fill="none" stroke="#000000" points="43,-313 43,-359 519,-359 519,-313 43,-313"/>
<text text-anchor="start" x="182.3682" y="-336.8" font-family="Arial Bold" font-size="18.00" fill="#000000">public.tracks</text>
<text text-anchor="start" x="282.378" y="-336.8" font-family="Arial" font-size="14.00" fill="#000000"> </text>
<text text-anchor="start" x="286.2686" y="-336.8" font-family="Arial" font-size="14.00" fill="#666666">[BASE TABLE]</text>
<text text-anchor="start" x="254.1347" y="-322.4" font-family="Arial" font-size="14.00" fill="#333333">トラック</text>
<polygon fill="none" stroke="#000000" points="43,-283 43,-313 519,-313 519,-283 43,-283"/>
<text text-anchor="start" x="50" y="-294.4" font-family="Arial" font-size="14.00" fill="#000000">id </text>
<text text-anchor="start" x="64.7798" y="-294.4" font-family="Arial" font-size="14.00" fill="#666666">[text]</text>
<polygon fill="none" stroke="#000000" points="43,-253 43,-283 519,-283 519,-253 43,-253"/>
<text text-anchor="start" x="50" y="-264.4" font-family="Arial" font-size="14.00" fill="#000000">album_id </text>
<text text-anchor="start" x="110.6774" y="-264.4" font-family="Arial" font-size="14.00" fill="#666666">[text]</text>
<text text-anchor="start" x="141.0224" y="-264.4" font-family="Arial" font-size="14.00" fill="#000000"> アルバムID</text>
<polygon fill="none" stroke="#000000" points="43,-223 43,-253 519,-253 519,-223 43,-223"/>
<text text-anchor="start" x="50" y="-234.4" font-family="Arial" font-size="14.00" fill="#000000">name </text>
<text text-anchor="start" x="88.899" y="-234.4" font-family="Arial" font-size="14.00" fill="#666666">[text]</text>
<text text-anchor="start" x="119.244" y="-234.4" font-family="Arial" font-size="14.00" fill="#000000"> 名前</text>
<polygon fill="none" stroke="#000000" points="43,-193 43,-223 519,-223 519,-193 43,-193"/>
<text text-anchor="start" x="50" y="-204.4" font-family="Arial" font-size="14.00" fill="#000000">disc_number </text>
<text text-anchor="start" x="134.014" y="-204.4" font-family="Arial" font-size="14.00" fill="#666666">[integer]</text>
<text text-anchor="start" x="184.5834" y="-204.4" font-family="Arial" font-size="14.00" fill="#000000"> ディスク番号(default: 1)</text>
<polygon fill="none" stroke="#000000" points="43,-163 43,-193 519,-193 519,-163 43,-163"/>
<text text-anchor="start" x="50" y="-174.4" font-family="Arial" font-size="14.00" fill="#000000">track_number </text>
<text text-anchor="start" x="139.4586" y="-174.4" font-family="Arial" font-size="14.00" fill="#666666">[integer]</text>
<text text-anchor="start" x="190.028" y="-174.4" font-family="Arial" font-size="14.00" fill="#000000"> トラック番号</text>
<polygon fill="none" stroke="#000000" points="43,-133 43,-163 519,-163 519,-133 43,-133"/>
<text text-anchor="start" x="49.8425" y="-144.4" font-family="Arial" font-size="14.00" fill="#000000">release_date </text>
<text text-anchor="start" x="134.6517" y="-144.4" font-family="Arial" font-size="14.00" fill="#666666">[date]</text>
<text text-anchor="start" x="169.6713" y="-144.4" font-family="Arial" font-size="14.00" fill="#000000"> 頒布日(アルバムの頒布日と異なる場合に使用する)</text>
<polygon fill="none" stroke="#000000" points="43,-103 43,-133 519,-133 519,-103 43,-103"/>
<text text-anchor="start" x="50" y="-114.4" font-family="Arial" font-size="14.00" fill="#000000">search_enabled </text>
<text text-anchor="start" x="153.4838" y="-114.4" font-family="Arial" font-size="14.00" fill="#666666">[boolean]</text>
<text text-anchor="start" x="211.0672" y="-114.4" font-family="Arial" font-size="14.00" fill="#000000"> 検索対象とするか(default: true)</text>
<polygon fill="none" stroke="#000000" points="43,-73 43,-103 519,-103 519,-73 43,-73"/>
<text text-anchor="start" x="50" y="-84.4" font-family="Arial" font-size="14.00" fill="#000000">created_at </text>
<text text-anchor="start" x="120.028" y="-84.4" font-family="Arial" font-size="14.00" fill="#666666">[timestamp with time zone]</text>
<text text-anchor="start" x="285.7124" y="-84.4" font-family="Arial" font-size="14.00" fill="#000000"> 作成日時</text>
<polygon fill="none" stroke="#000000" points="43,-43 43,-73 519,-73 519,-43 43,-43"/>
<text text-anchor="start" x="50" y="-54.4" font-family="Arial" font-size="14.00" fill="#000000">updated_at </text>
<text text-anchor="start" x="123.9326" y="-54.4" font-family="Arial" font-size="14.00" fill="#666666">[timestamp with time zone]</text>
<text text-anchor="start" x="289.617" y="-54.4" font-family="Arial" font-size="14.00" fill="#000000"> 更新日時</text>
</g>
<!-- public.tracks_arrange_circles&#45;&gt;public.tracks -->
<g id="edge1" class="edge">
<title>public.tracks_arrange_circles:track_id&#45;&gt;public.tracks:id</title>
<path fill="none" stroke="#000000" d="M424.8476,-588.1698C371.2087,-578.7288 400.0763,-490.9631 435,-438 457.3595,-404.0909 496.6405,-435.9091 519,-402 544.4449,-363.4118 565.2222,-298 519,-298"/>
<polygon fill="#000000" stroke="#000000" points="425.0333,-588.1849 434.6332,-593.485 430.0166,-588.5924 435,-589 435,-589 435,-589 430.0166,-588.5924 435.3668,-584.515 425.0333,-588.1849 425.0333,-588.1849"/>
<text text-anchor="start" x="201.1145" y="-599" font-family="Arial" font-size="10.00" fill="#000000">FOREIGN KEY (track_id) REFERENCES tracks(id)</text>
</g>
<!-- public.circles -->
<g id="node3" class="node">
<title>public.circles</title>
<polygon fill="#efefef" stroke="transparent" points="623,-268 623,-314 1245,-314 1245,-268 623,-268"/>
<polygon fill="none" stroke="#000000" points="623,-268 623,-314 1245,-314 1245,-268 623,-268"/>
<text text-anchor="start" x="833.8751" y="-291.8" font-family="Arial Bold" font-size="18.00" fill="#000000">public.circles</text>
<text text-anchor="start" x="936.8711" y="-291.8" font-family="Arial" font-size="14.00" fill="#000000"> </text>
<text text-anchor="start" x="940.7617" y="-291.8" font-family="Arial" font-size="14.00" fill="#666666">[BASE TABLE]</text>
<text text-anchor="start" x="899.525" y="-277.4" font-family="Arial" font-size="14.00" fill="#333333">サークル</text>
<polygon fill="none" stroke="#000000" points="623,-238 623,-268 1245,-268 1245,-238 623,-238"/>
<text text-anchor="start" x="630" y="-249.4" font-family="Arial" font-size="14.00" fill="#000000">id </text>
<text text-anchor="start" x="644.7798" y="-249.4" font-family="Arial" font-size="14.00" fill="#666666">[text]</text>
<polygon fill="none" stroke="#000000" points="623,-208 623,-238 1245,-238 1245,-208 623,-208"/>
<text text-anchor="start" x="630" y="-219.4" font-family="Arial" font-size="14.00" fill="#000000">name </text>
<text text-anchor="start" x="668.899" y="-219.4" font-family="Arial" font-size="14.00" fill="#666666">[text]</text>
<text text-anchor="start" x="699.244" y="-219.4" font-family="Arial" font-size="14.00" fill="#000000"> 名前</text>
<polygon fill="none" stroke="#000000" points="623,-178 623,-208 1245,-208 1245,-178 623,-178"/>
<text text-anchor="start" x="629.5763" y="-189.4" font-family="Arial" font-size="14.00" fill="#000000">initial_letter_type </text>
<text text-anchor="start" x="738.4837" y="-189.4" font-family="Arial" font-size="14.00" fill="#666666">[initial_letter_type]</text>
<text text-anchor="start" x="851.2817" y="-189.4" font-family="Arial" font-size="14.00" fill="#000000"> 頭文字の文字種別(symbol,number,alphabet,kana,kanji,other)</text>
<polygon fill="none" stroke="#000000" points="623,-148 623,-178 1245,-178 1245,-148 623,-148"/>
<text text-anchor="start" x="630" y="-159.4" font-family="Arial" font-size="14.00" fill="#000000">initial_letter_detail </text>
<text text-anchor="start" x="745.9032" y="-159.4" font-family="Arial" font-size="14.00" fill="#666666">[text]</text>
<text text-anchor="start" x="776.2482" y="-159.4" font-family="Arial" font-size="14.00" fill="#000000"> 開催日</text>
<polygon fill="none" stroke="#000000" points="623,-118 623,-148 1245,-148 1245,-118 623,-118"/>
<text text-anchor="start" x="630" y="-129.4" font-family="Arial" font-size="14.00" fill="#000000">created_at </text>
<text text-anchor="start" x="700.028" y="-129.4" font-family="Arial" font-size="14.00" fill="#666666">[timestamp with time zone]</text>
<text text-anchor="start" x="865.7124" y="-129.4" font-family="Arial" font-size="14.00" fill="#000000"> 作成日時</text>
<polygon fill="none" stroke="#000000" points="623,-88 623,-118 1245,-118 1245,-88 623,-88"/>
<text text-anchor="start" x="630" y="-99.4" font-family="Arial" font-size="14.00" fill="#000000">updated_at </text>
<text text-anchor="start" x="703.9326" y="-99.4" font-family="Arial" font-size="14.00" fill="#666666">[timestamp with time zone]</text>
<text text-anchor="start" x="869.617" y="-99.4" font-family="Arial" font-size="14.00" fill="#000000"> 更新日時</text>
</g>
<!-- public.tracks_arrange_circles&#45;&gt;public.circles -->
<g id="edge2" class="edge">
<title>public.tracks_arrange_circles:circle_id&#45;&gt;public.circles:id</title>
<path fill="none" stroke="#000000" d="M789.1896,-557.9232C829.1317,-548.5913 804.9593,-480.729 779,-438 738.4371,-371.2335 663.5629,-423.7665 623,-357 599.0004,-317.4967 576.7778,-253 623,-253"/>
<polygon fill="#000000" stroke="#000000" points="788.9446,-557.949 778.5271,-554.5249 783.9723,-558.4745 779,-559 779,-559 779,-559 783.9723,-558.4745 779.4729,-563.4751 788.9446,-557.949 788.9446,-557.949"/>
<text text-anchor="start" x="786.4555" y="-569" font-family="Arial" font-size="10.00" fill="#000000">FOREIGN KEY (circle_id) REFERENCES circles(id)</text>
</g>
</g>
</svg>
