<?xml version="1.0" encoding="UTF-8" standalone="no"?>
<!DOCTYPE svg PUBLIC "-//W3C//DTD SVG 1.1//EN"
 "http://www.w3.org/Graphics/SVG/1.1/DTD/svg11.dtd">
<!-- Generated by graphviz version 2.40.1 (20161225.0304)
 -->
<!-- Title: public.event_series Pages: 1 -->
<svg width="1745pt" height="1124pt"
 viewBox="0.00 0.00 1744.50 1124.00" xmlns="http://www.w3.org/2000/svg" xmlns:xlink="http://www.w3.org/1999/xlink">
<g id="graph0" class="graph" transform="scale(1 1) rotate(0) translate(4 1120)">
<title>public.event_series</title>
<polygon fill="#ffffff" stroke="transparent" points="-4,4 -4,-1120 1740.5,-1120 1740.5,4 -4,4"/>
<!-- public.event_series -->
<g id="node1" class="node">
<title>public.event_series</title>
<polygon fill="#efefef" stroke="transparent" points="553.5,-286 553.5,-332 921.5,-332 921.5,-286 553.5,-286"/>
<polygon fill="none" stroke="#000000" points="553.5,-286 553.5,-332 921.5,-332 921.5,-286 553.5,-286"/>
<text text-anchor="start" x="596.6985" y="-309.8" font-family="Arial Bold" font-size="18.00" fill="#000000">public.event_series</text>
<text text-anchor="start" x="750.7335" y="-309.8" font-family="Arial" font-size="14.00" fill="#000000">    </text>
<text text-anchor="start" x="784.9383" y="-309.8" font-family="Arial" font-size="14.00" fill="#666666">[BASE TABLE]</text>
<text text-anchor="start" x="678.1631" y="-295.4" font-family="Arial" font-size="14.00" fill="#333333">イベントシリーズ</text>
<polygon fill="none" stroke="#000000" points="553.5,-256 553.5,-286 921.5,-286 921.5,-256 553.5,-256"/>
<text text-anchor="start" x="560.5" y="-267.4" font-family="Arial" font-size="14.00" fill="#000000">id </text>
<text text-anchor="start" x="575.2798" y="-267.4" font-family="Arial" font-size="14.00" fill="#666666">[text]</text>
<text text-anchor="start" x="605.6248" y="-267.4" font-family="Arial" font-size="14.00" fill="#000000"> イベントシリーズID</text>
<polygon fill="none" stroke="#000000" points="553.5,-226 553.5,-256 921.5,-256 921.5,-226 553.5,-226"/>
<text text-anchor="start" x="560.5" y="-237.4" font-family="Arial" font-size="14.00" fill="#000000">created_at </text>
<text text-anchor="start" x="630.528" y="-237.4" font-family="Arial" font-size="14.00" fill="#666666">[timestamp with time zone]</text>
<text text-anchor="start" x="796.2124" y="-237.4" font-family="Arial" font-size="14.00" fill="#000000"> 作成日時</text>
<polygon fill="none" stroke="#000000" points="553.5,-196 553.5,-226 921.5,-226 921.5,-196 553.5,-196"/>
<text text-anchor="start" x="560.5" y="-207.4" font-family="Arial" font-size="14.00" fill="#000000">updated_at </text>
<text text-anchor="start" x="634.4326" y="-207.4" font-family="Arial" font-size="14.00" fill="#666666">[timestamp with time zone]</text>
<text text-anchor="start" x="800.117" y="-207.4" font-family="Arial" font-size="14.00" fill="#000000"> 更新日時</text>
<polygon fill="none" stroke="#000000" points="553.5,-166 553.5,-196 921.5,-196 921.5,-166 553.5,-166"/>
<text text-anchor="start" x="560.5" y="-177.4" font-family="Arial" font-size="14.00" fill="#000000">name </text>
<text text-anchor="start" x="599.399" y="-177.4" font-family="Arial" font-size="14.00" fill="#666666">[text]</text>
<text text-anchor="start" x="629.744" y="-177.4" font-family="Arial" font-size="14.00" fill="#000000"> 名前</text>
<polygon fill="none" stroke="#000000" points="553.5,-136 553.5,-166 921.5,-166 921.5,-136 553.5,-136"/>
<text text-anchor="start" x="560.5" y="-147.4" font-family="Arial" font-size="14.00" fill="#000000">display_name </text>
<text text-anchor="start" x="650.7426" y="-147.4" font-family="Arial" font-size="14.00" fill="#666666">[text]</text>
<text text-anchor="start" x="681.0876" y="-147.4" font-family="Arial" font-size="14.00" fill="#000000"> 表示名</text>
<polygon fill="none" stroke="#000000" points="553.5,-106 553.5,-136 921.5,-136 921.5,-106 553.5,-106"/>
<text text-anchor="start" x="560.5" y="-117.4" font-family="Arial" font-size="14.00" fill="#000000">slug </text>
<text text-anchor="start" x="590.0624" y="-117.4" font-family="Arial" font-size="14.00" fill="#666666">[text]</text>
<text text-anchor="start" x="620.4074" y="-117.4" font-family="Arial" font-size="14.00" fill="#000000"> スラッグ</text>
<polygon fill="none" stroke="#000000" points="553.5,-76 553.5,-106 921.5,-106 921.5,-76 553.5,-76"/>
<text text-anchor="start" x="560.5" y="-87.4" font-family="Arial" font-size="14.00" fill="#000000">published_at </text>
<text text-anchor="start" x="643.7552" y="-87.4" font-family="Arial" font-size="14.00" fill="#666666">[timestamp with time zone]</text>
<text text-anchor="start" x="809.4396" y="-87.4" font-family="Arial" font-size="14.00" fill="#000000"> 公開日時</text>
<polygon fill="none" stroke="#000000" points="553.5,-46 553.5,-76 921.5,-76 921.5,-46 553.5,-46"/>
<text text-anchor="start" x="560.4035" y="-57.4" font-family="Arial" font-size="14.00" fill="#000000">archived_at </text>
<text text-anchor="start" x="636.6475" y="-57.4" font-family="Arial" font-size="14.00" fill="#666666">[timestamp with time zone]</text>
<text text-anchor="start" x="802.3319" y="-57.4" font-family="Arial" font-size="14.00" fill="#000000"> アーカイブ日時</text>
<polygon fill="none" stroke="#000000" stroke-width="3" points="552,-44.5 552,-333.5 923,-333.5 923,-44.5 552,-44.5"/>
</g>
<!-- public.events -->
<g id="node2" class="node">
<title>public.events</title>
<polygon fill="#efefef" stroke="transparent" points="43.5,-1027 43.5,-1073 1430.5,-1073 1430.5,-1027 43.5,-1027"/>
<polygon fill="none" stroke="#000000" points="43.5,-1027 43.5,-1073 1430.5,-1073 1430.5,-1027 43.5,-1027"/>
<text text-anchor="start" x="620.701" y="-1050.8" font-family="Arial Bold" font-size="18.00" fill="#000000">public.events</text>
<text text-anchor="start" x="725.731" y="-1050.8" font-family="Arial" font-size="14.00" fill="#000000">    </text>
<text text-anchor="start" x="759.9358" y="-1050.8" font-family="Arial" font-size="14.00" fill="#666666">[BASE TABLE]</text>
<text text-anchor="start" x="709.9114" y="-1036.4" font-family="Arial" font-size="14.00" fill="#333333">イベント</text>
<polygon fill="none" stroke="#000000" points="43.5,-997 43.5,-1027 1430.5,-1027 1430.5,-997 43.5,-997"/>
<text text-anchor="start" x="50.5" y="-1008.4" font-family="Arial" font-size="14.00" fill="#000000">id    </text>
<text text-anchor="start" x="95.594" y="-1008.4" font-family="Arial" font-size="14.00" fill="#666666">[text]</text>
<text text-anchor="start" x="125.939" y="-1008.4" font-family="Arial" font-size="14.00" fill="#000000"> イベントID</text>
<polygon fill="none" stroke="#000000" points="43.5,-967 43.5,-997 1430.5,-997 1430.5,-967 43.5,-967"/>
<text text-anchor="start" x="50.5" y="-978.4" font-family="Arial" font-size="14.00" fill="#000000">created_at    </text>
<text text-anchor="start" x="150.8422" y="-978.4" font-family="Arial" font-size="14.00" fill="#666666">[timestamp with time zone]</text>
<text text-anchor="start" x="316.5266" y="-978.4" font-family="Arial" font-size="14.00" fill="#000000"> 作成日時</text>
<polygon fill="none" stroke="#000000" points="43.5,-937 43.5,-967 1430.5,-967 1430.5,-937 43.5,-937"/>
<text text-anchor="start" x="50.5" y="-948.4" font-family="Arial" font-size="14.00" fill="#000000">updated_at    </text>
<text text-anchor="start" x="154.7468" y="-948.4" font-family="Arial" font-size="14.00" fill="#666666">[timestamp with time zone]</text>
<text text-anchor="start" x="320.4312" y="-948.4" font-family="Arial" font-size="14.00" fill="#000000"> 更新日時</text>
<polygon fill="none" stroke="#000000" points="43.5,-907 43.5,-937 1430.5,-937 1430.5,-907 43.5,-907"/>
<text text-anchor="start" x="50.5" y="-918.4" font-family="Arial" font-size="14.00" fill="#000000">event_series_id    </text>
<text text-anchor="start" x="182.73" y="-918.4" font-family="Arial" font-size="14.00" fill="#666666">[text]</text>
<text text-anchor="start" x="213.075" y="-918.4" font-family="Arial" font-size="14.00" fill="#000000"> イベントシリーズID</text>
<polygon fill="none" stroke="#000000" points="43.5,-877 43.5,-907 1430.5,-907 1430.5,-877 43.5,-877"/>
<text text-anchor="start" x="50.5" y="-888.4" font-family="Arial" font-size="14.00" fill="#000000">name    </text>
<text text-anchor="start" x="119.7132" y="-888.4" font-family="Arial" font-size="14.00" fill="#666666">[text]</text>
<text text-anchor="start" x="150.0582" y="-888.4" font-family="Arial" font-size="14.00" fill="#000000"> 名前</text>
<polygon fill="none" stroke="#000000" points="43.5,-847 43.5,-877 1430.5,-877 1430.5,-847 43.5,-847"/>
<text text-anchor="start" x="50.5" y="-858.4" font-family="Arial" font-size="14.00" fill="#000000">name_reading    </text>
<text text-anchor="start" x="174.176" y="-858.4" font-family="Arial" font-size="14.00" fill="#666666">[text]</text>
<text text-anchor="start" x="204.521" y="-858.4" font-family="Arial" font-size="14.00" fill="#000000"> 名前読み方</text>
<polygon fill="none" stroke="#000000" points="43.5,-817 43.5,-847 1430.5,-847 1430.5,-817 43.5,-817"/>
<text text-anchor="start" x="50.5" y="-828.4" font-family="Arial" font-size="14.00" fill="#000000">display_name    </text>
<text text-anchor="start" x="171.0568" y="-828.4" font-family="Arial" font-size="14.00" fill="#666666">[text]</text>
<text text-anchor="start" x="201.4018" y="-828.4" font-family="Arial" font-size="14.00" fill="#000000"> 表示名</text>
<polygon fill="none" stroke="#000000" points="43.5,-787 43.5,-817 1430.5,-817 1430.5,-787 43.5,-787"/>
<text text-anchor="start" x="50.5" y="-798.4" font-family="Arial" font-size="14.00" fill="#000000">slug    </text>
<text text-anchor="start" x="110.3766" y="-798.4" font-family="Arial" font-size="14.00" fill="#666666">[text]</text>
<text text-anchor="start" x="140.7216" y="-798.4" font-family="Arial" font-size="14.00" fill="#000000"> スラッグ</text>
<polygon fill="none" stroke="#000000" points="43.5,-757 43.5,-787 1430.5,-787 1430.5,-757 43.5,-757"/>
<text text-anchor="start" x="50.5" y="-768.4" font-family="Arial" font-size="14.00" fill="#000000">start_date    </text>
<text text-anchor="start" x="146.9502" y="-768.4" font-family="Arial" font-size="14.00" fill="#666666">[date]</text>
<text text-anchor="start" x="181.9698" y="-768.4" font-family="Arial" font-size="14.00" fill="#000000"> 開始日</text>
<polygon fill="none" stroke="#000000" points="43.5,-727 43.5,-757 1430.5,-757 1430.5,-727 43.5,-727"/>
<text text-anchor="start" x="50.5" y="-738.4" font-family="Arial" font-size="14.00" fill="#000000">end_date    </text>
<text text-anchor="start" x="143.0736" y="-738.4" font-family="Arial" font-size="14.00" fill="#666666">[date]</text>
<text text-anchor="start" x="178.0932" y="-738.4" font-family="Arial" font-size="14.00" fill="#000000"> 終了日</text>
<polygon fill="none" stroke="#000000" points="43.5,-697 43.5,-727 1430.5,-727 1430.5,-697 43.5,-697"/>
<text text-anchor="start" x="50.4533" y="-708.4" font-family="Arial" font-size="14.00" fill="#000000">event_status    </text>
<text text-anchor="start" x="164.0255" y="-708.4" font-family="Arial" font-size="14.00" fill="#666666">[event_status]</text>
<text text-anchor="start" x="251.1741" y="-708.4" font-family="Arial" font-size="14.00" fill="#000000"> ステータス/scheduled: 開催済み, cancelled: 中止, postpone: 延期(開催日未定), rescheduled: 延期(開催日決定), moved_online: オンライン開催に変更, other: その他/default: scheduled</text>
<polygon fill="none" stroke="#000000" points="43.5,-667 43.5,-697 1430.5,-697 1430.5,-667 43.5,-667"/>
<text text-anchor="start" x="50.5" y="-678.4" font-family="Arial" font-size="14.00" fill="#000000">format    </text>
<text text-anchor="start" x="124.3724" y="-678.4" font-family="Arial" font-size="14.00" fill="#666666">[event_format]</text>
<text text-anchor="start" x="213.8422" y="-678.4" font-family="Arial" font-size="14.00" fill="#000000"> 形式/offline: オフライン開催, online: オフライン開催, mixed: 両方開催/default: offline</text>
<polygon fill="none" stroke="#000000" points="43.5,-637 43.5,-667 1430.5,-667 1430.5,-637 43.5,-637"/>
<text text-anchor="start" x="50.5" y="-648.4" font-family="Arial" font-size="14.00" fill="#000000">region_code    </text>
<text text-anchor="start" x="161.7328" y="-648.4" font-family="Arial" font-size="14.00" fill="#666666">[text]</text>
<text text-anchor="start" x="192.0778" y="-648.4" font-family="Arial" font-size="14.00" fill="#000000"> リージョンコード/default: JP</text>
<polygon fill="none" stroke="#000000" points="43.5,-607 43.5,-637 1430.5,-637 1430.5,-607 43.5,-607"/>
<text text-anchor="start" x="50.5" y="-618.4" font-family="Arial" font-size="14.00" fill="#000000">address    </text>
<text text-anchor="start" x="134.4958" y="-618.4" font-family="Arial" font-size="14.00" fill="#666666">[text]</text>
<text text-anchor="start" x="164.8408" y="-618.4" font-family="Arial" font-size="14.00" fill="#000000"> 開催場所</text>
<polygon fill="none" stroke="#000000" points="43.5,-577 43.5,-607 1430.5,-607 1430.5,-577 43.5,-577"/>
<text text-anchor="start" x="50.5" y="-588.4" font-family="Arial" font-size="14.00" fill="#000000">description    </text>
<text text-anchor="start" x="152.3822" y="-588.4" font-family="Arial" font-size="14.00" fill="#666666">[text]</text>
<text text-anchor="start" x="182.7272" y="-588.4" font-family="Arial" font-size="14.00" fill="#000000"> 説明</text>
<polygon fill="none" stroke="#000000" points="43.5,-547 43.5,-577 1430.5,-577 1430.5,-547 43.5,-547"/>
<text text-anchor="start" x="50.5" y="-558.4" font-family="Arial" font-size="14.00" fill="#000000">url    </text>
<text text-anchor="start" x="100.2546" y="-558.4" font-family="Arial" font-size="14.00" fill="#666666">[text]</text>
<text text-anchor="start" x="130.5996" y="-558.4" font-family="Arial" font-size="14.00" fill="#000000"> URL</text>
<polygon fill="none" stroke="#000000" points="43.5,-517 43.5,-547 1430.5,-547 1430.5,-517 43.5,-517"/>
<text text-anchor="start" x="50.5" y="-528.4" font-family="Arial" font-size="14.00" fill="#000000">twitter_url    </text>
<text text-anchor="start" x="145.3654" y="-528.4" font-family="Arial" font-size="14.00" fill="#666666">[text]</text>
<text text-anchor="start" x="175.7104" y="-528.4" font-family="Arial" font-size="14.00" fill="#000000"> Twitter URL</text>
<polygon fill="none" stroke="#000000" points="43.5,-487 43.5,-517 1430.5,-517 1430.5,-487 43.5,-487"/>
<text text-anchor="start" x="50.5" y="-498.4" font-family="Arial" font-size="14.00" fill="#000000">published_at    </text>
<text text-anchor="start" x="164.0694" y="-498.4" font-family="Arial" font-size="14.00" fill="#666666">[timestamp with time zone]</text>
<text text-anchor="start" x="329.7538" y="-498.4" font-family="Arial" font-size="14.00" fill="#000000"> 公開日時</text>
<polygon fill="none" stroke="#000000" points="43.5,-457 43.5,-487 1430.5,-487 1430.5,-457 43.5,-457"/>
<text text-anchor="start" x="50.5" y="-468.4" font-family="Arial" font-size="14.00" fill="#000000">archived_at    </text>
<text text-anchor="start" x="157.0582" y="-468.4" font-family="Arial" font-size="14.00" fill="#666666">[timestamp with time zone]</text>
<text text-anchor="start" x="322.7426" y="-468.4" font-family="Arial" font-size="14.00" fill="#000000"> アーカイブ日時</text>
</g>
<!-- public.events&#45;&gt;public.event_series -->
<g id="edge1" class="edge">
<title>public.events:event_series_id&#45;&gt;public.event_series:id</title>
<path fill="none" stroke="#000000" d="M1440.6541,-920.7739C1541.1765,-895.6773 1506.2276,-492.8999 1430.5,-414 1362.9674,-343.6383 621.0326,-448.3617 553.5,-378 520.57,-343.6905 505.9444,-271 553.5,-271"/>
<polygon fill="#000000" stroke="#000000" points="1440.4279,-920.8011 1429.9605,-917.5325 1435.4639,-921.4006 1430.5,-922 1430.5,-922 1430.5,-922 1435.4639,-921.4006 1431.0395,-926.4675 1440.4279,-920.8011 1440.4279,-920.8011"/>
<text text-anchor="start" x="1437.1005" y="-932" font-family="Arial" font-size="10.00" fill="#000000">FOREIGN KEY (event_series_id) REFERENCES event_series(id)</text>
</g>
</g>
</svg>
