<?xml version="1.0" encoding="UTF-8" standalone="no"?>
<!DOCTYPE svg PUBLIC "-//W3C//DTD SVG 1.1//EN"
 "http://www.w3.org/Graphics/SVG/1.1/DTD/svg11.dtd">
<!-- Generated by graphviz version 2.40.1 (20161225.0304)
 -->
<!-- Title: public.tracks_original_songs Pages: 1 -->
<svg width="1164pt" height="734pt"
 viewBox="0.00 0.00 1164.00 734.00" xmlns="http://www.w3.org/2000/svg" xmlns:xlink="http://www.w3.org/1999/xlink">
<g id="graph0" class="graph" transform="scale(1 1) rotate(0) translate(4 730)">
<title>public.tracks_original_songs</title>
<polygon fill="#ffffff" stroke="transparent" points="-4,4 -4,-730 1160,-730 1160,4 -4,4"/>
<!-- public.tracks_original_songs -->
<g id="node1" class="node">
<title>public.tracks_original_songs</title>
<polygon fill="#efefef" stroke="transparent" points="405,-634 405,-680 742,-680 742,-634 405,-634"/>
<polygon fill="none" stroke="#000000" points="405,-634 405,-680 742,-680 742,-634 405,-634"/>
<text text-anchor="start" x="411.8529" y="-657.8" font-family="Arial Bold" font-size="18.00" fill="#000000">public.tracks_original_songs</text>
<text text-anchor="start" x="637.8933" y="-657.8" font-family="Arial" font-size="14.00" fill="#000000"> </text>
<text text-anchor="start" x="641.7839" y="-657.8" font-family="Arial" font-size="14.00" fill="#666666">[BASE TABLE]</text>
<text text-anchor="start" x="539.2637" y="-643.4" font-family="Arial" font-size="14.00" fill="#333333">楽曲原曲</text>
<polygon fill="none" stroke="#000000" points="405,-604 405,-634 742,-634 742,-604 405,-604"/>
<text text-anchor="start" x="412" y="-615.4" font-family="Arial" font-size="14.00" fill="#000000">track_id </text>
<text text-anchor="start" x="464.8962" y="-615.4" font-family="Arial" font-size="14.00" fill="#666666">[text]</text>
<text text-anchor="start" x="495.2412" y="-615.4" font-family="Arial" font-size="14.00" fill="#000000"> トラックID</text>
<polygon fill="none" stroke="#000000" points="405,-574 405,-604 742,-604 742,-574 405,-574"/>
<text text-anchor="start" x="412" y="-585.4" font-family="Arial" font-size="14.00" fill="#000000">original_song_id </text>
<text text-anchor="start" x="517.8036" y="-585.4" font-family="Arial" font-size="14.00" fill="#666666">[text]</text>
<text text-anchor="start" x="548.1486" y="-585.4" font-family="Arial" font-size="14.00" fill="#000000"> 原曲ID</text>
<polygon fill="none" stroke="#000000" points="405,-544 405,-574 742,-574 742,-544 405,-544"/>
<text text-anchor="start" x="412" y="-555.4" font-family="Arial" font-size="14.00" fill="#000000">created_at </text>
<text text-anchor="start" x="482.028" y="-555.4" font-family="Arial" font-size="14.00" fill="#666666">[timestamp with time zone]</text>
<text text-anchor="start" x="647.7124" y="-555.4" font-family="Arial" font-size="14.00" fill="#000000"> 作成日時</text>
<polygon fill="none" stroke="#000000" points="405,-514 405,-544 742,-544 742,-514 405,-514"/>
<text text-anchor="start" x="412" y="-525.4" font-family="Arial" font-size="14.00" fill="#000000">updated_at </text>
<text text-anchor="start" x="485.9326" y="-525.4" font-family="Arial" font-size="14.00" fill="#666666">[timestamp with time zone]</text>
<text text-anchor="start" x="651.617" y="-525.4" font-family="Arial" font-size="14.00" fill="#000000"> 更新日時</text>
<polygon fill="none" stroke="#000000" stroke-width="3" points="403,-512.5 403,-681.5 743,-681.5 743,-512.5 403,-512.5"/>
</g>
<!-- public.tracks -->
<g id="node2" class="node">
<title>public.tracks</title>
<polygon fill="#efefef" stroke="transparent" points="43,-328 43,-374 519,-374 519,-328 43,-328"/>
<polygon fill="none" stroke="#000000" points="43,-328 43,-374 519,-374 519,-328 43,-328"/>
<text text-anchor="start" x="182.3682" y="-351.8" font-family="Arial Bold" font-size="18.00" fill="#000000">public.tracks</text>
<text text-anchor="start" x="282.378" y="-351.8" font-family="Arial" font-size="14.00" fill="#000000"> </text>
<text text-anchor="start" x="286.2686" y="-351.8" font-family="Arial" font-size="14.00" fill="#666666">[BASE TABLE]</text>
<text text-anchor="start" x="254.1347" y="-337.4" font-family="Arial" font-size="14.00" fill="#333333">トラック</text>
<polygon fill="none" stroke="#000000" points="43,-298 43,-328 519,-328 519,-298 43,-298"/>
<text text-anchor="start" x="50" y="-309.4" font-family="Arial" font-size="14.00" fill="#000000">id </text>
<text text-anchor="start" x="64.7798" y="-309.4" font-family="Arial" font-size="14.00" fill="#666666">[text]</text>
<polygon fill="none" stroke="#000000" points="43,-268 43,-298 519,-298 519,-268 43,-268"/>
<text text-anchor="start" x="50" y="-279.4" font-family="Arial" font-size="14.00" fill="#000000">album_id </text>
<text text-anchor="start" x="110.6774" y="-279.4" font-family="Arial" font-size="14.00" fill="#666666">[text]</text>
<text text-anchor="start" x="141.0224" y="-279.4" font-family="Arial" font-size="14.00" fill="#000000"> アルバムID</text>
<polygon fill="none" stroke="#000000" points="43,-238 43,-268 519,-268 519,-238 43,-238"/>
<text text-anchor="start" x="50" y="-249.4" font-family="Arial" font-size="14.00" fill="#000000">name </text>
<text text-anchor="start" x="88.899" y="-249.4" font-family="Arial" font-size="14.00" fill="#666666">[text]</text>
<text text-anchor="start" x="119.244" y="-249.4" font-family="Arial" font-size="14.00" fill="#000000"> 名前</text>
<polygon fill="none" stroke="#000000" points="43,-208 43,-238 519,-238 519,-208 43,-208"/>
<text text-anchor="start" x="50" y="-219.4" font-family="Arial" font-size="14.00" fill="#000000">disc_number </text>
<text text-anchor="start" x="134.014" y="-219.4" font-family="Arial" font-size="14.00" fill="#666666">[integer]</text>
<text text-anchor="start" x="184.5834" y="-219.4" font-family="Arial" font-size="14.00" fill="#000000"> ディスク番号(default: 1)</text>
<polygon fill="none" stroke="#000000" points="43,-178 43,-208 519,-208 519,-178 43,-178"/>
<text text-anchor="start" x="50" y="-189.4" font-family="Arial" font-size="14.00" fill="#000000">track_number </text>
<text text-anchor="start" x="139.4586" y="-189.4" font-family="Arial" font-size="14.00" fill="#666666">[integer]</text>
<text text-anchor="start" x="190.028" y="-189.4" font-family="Arial" font-size="14.00" fill="#000000"> トラック番号</text>
<polygon fill="none" stroke="#000000" points="43,-148 43,-178 519,-178 519,-148 43,-148"/>
<text text-anchor="start" x="49.8425" y="-159.4" font-family="Arial" font-size="14.00" fill="#000000">release_date </text>
<text text-anchor="start" x="134.6517" y="-159.4" font-family="Arial" font-size="14.00" fill="#666666">[date]</text>
<text text-anchor="start" x="169.6713" y="-159.4" font-family="Arial" font-size="14.00" fill="#000000"> 頒布日(アルバムの頒布日と異なる場合に使用する)</text>
<polygon fill="none" stroke="#000000" points="43,-118 43,-148 519,-148 519,-118 43,-118"/>
<text text-anchor="start" x="50" y="-129.4" font-family="Arial" font-size="14.00" fill="#000000">search_enabled </text>
<text text-anchor="start" x="153.4838" y="-129.4" font-family="Arial" font-size="14.00" fill="#666666">[boolean]</text>
<text text-anchor="start" x="211.0672" y="-129.4" font-family="Arial" font-size="14.00" fill="#000000"> 検索対象とするか(default: true)</text>
<polygon fill="none" stroke="#000000" points="43,-88 43,-118 519,-118 519,-88 43,-88"/>
<text text-anchor="start" x="50" y="-99.4" font-family="Arial" font-size="14.00" fill="#000000">created_at </text>
<text text-anchor="start" x="120.028" y="-99.4" font-family="Arial" font-size="14.00" fill="#666666">[timestamp with time zone]</text>
<text text-anchor="start" x="285.7124" y="-99.4" font-family="Arial" font-size="14.00" fill="#000000"> 作成日時</text>
<polygon fill="none" stroke="#000000" points="43,-58 43,-88 519,-88 519,-58 43,-58"/>
<text text-anchor="start" x="50" y="-69.4" font-family="Arial" font-size="14.00" fill="#000000">updated_at </text>
<text text-anchor="start" x="123.9326" y="-69.4" font-family="Arial" font-size="14.00" fill="#666666">[timestamp with time zone]</text>
<text text-anchor="start" x="289.617" y="-69.4" font-family="Arial" font-size="14.00" fill="#000000"> 更新日時</text>
</g>
<!-- public.tracks_original_songs&#45;&gt;public.tracks -->
<g id="edge1" class="edge">
<title>public.tracks_original_songs:track_id&#45;&gt;public.tracks:id</title>
<path fill="none" stroke="#000000" d="M394.8513,-618.1722C341.2545,-608.7588 370.4951,-521.2369 405,-468 435.1891,-421.422 488.8109,-463.578 519,-417 544.1398,-378.2123 565.2222,-313 519,-313"/>
<polygon fill="#000000" stroke="#000000" points="395.0331,-618.187 404.6341,-623.4851 400.0165,-618.5935 405,-619 405,-619 405,-619 400.0165,-618.5935 405.3659,-614.5149 395.0331,-618.187 395.0331,-618.187"/>
<text text-anchor="start" x="171.1145" y="-629" font-family="Arial" font-size="10.00" fill="#000000">FOREIGN KEY (track_id) REFERENCES tracks(id)</text>
</g>
<!-- public.original_songs -->
<g id="node3" class="node">
<title>public.original_songs</title>
<polygon fill="#efefef" stroke="transparent" points="623,-343 623,-389 1113,-389 1113,-343 623,-343"/>
<polygon fill="none" stroke="#000000" points="623,-343 623,-389 1113,-389 1113,-343 623,-343"/>
<text text-anchor="start" x="735.3563" y="-366.8" font-family="Arial Bold" font-size="18.00" fill="#000000">public.original_songs</text>
<text text-anchor="start" x="903.3899" y="-366.8" font-family="Arial" font-size="14.00" fill="#000000"> </text>
<text text-anchor="start" x="907.2805" y="-366.8" font-family="Arial" font-size="14.00" fill="#666666">[BASE TABLE]</text>
<text text-anchor="start" x="854.3822" y="-352.4" font-family="Arial" font-size="14.00" fill="#333333">原曲</text>
<polygon fill="none" stroke="#000000" points="623,-313 623,-343 1113,-343 1113,-313 623,-313"/>
<text text-anchor="start" x="630" y="-324.4" font-family="Arial" font-size="14.00" fill="#000000">id </text>
<text text-anchor="start" x="644.7798" y="-324.4" font-family="Arial" font-size="14.00" fill="#666666">[text]</text>
<text text-anchor="start" x="675.1248" y="-324.4" font-family="Arial" font-size="14.00" fill="#000000"> 原曲ID</text>
<polygon fill="none" stroke="#000000" points="623,-283 623,-313 1113,-313 1113,-283 623,-283"/>
<text text-anchor="start" x="630" y="-294.4" font-family="Arial" font-size="14.00" fill="#000000">product_id </text>
<text text-anchor="start" x="699.244" y="-294.4" font-family="Arial" font-size="14.00" fill="#666666">[text]</text>
<text text-anchor="start" x="729.589" y="-294.4" font-family="Arial" font-size="14.00" fill="#000000"> 原作ID</text>
<polygon fill="none" stroke="#000000" points="623,-253 623,-283 1113,-283 1113,-253 623,-253"/>
<text text-anchor="start" x="630" y="-264.4" font-family="Arial" font-size="14.00" fill="#000000">name </text>
<text text-anchor="start" x="668.899" y="-264.4" font-family="Arial" font-size="14.00" fill="#666666">[text]</text>
<text text-anchor="start" x="699.244" y="-264.4" font-family="Arial" font-size="14.00" fill="#000000"> 名前</text>
<polygon fill="none" stroke="#000000" points="623,-223 623,-253 1113,-253 1113,-223 623,-223"/>
<text text-anchor="start" x="630" y="-234.4" font-family="Arial" font-size="14.00" fill="#000000">composer </text>
<text text-anchor="start" x="695.3422" y="-234.4" font-family="Arial" font-size="14.00" fill="#666666">[text]</text>
<text text-anchor="start" x="725.6872" y="-234.4" font-family="Arial" font-size="14.00" fill="#000000"> 作曲者</text>
<polygon fill="none" stroke="#000000" points="623,-193 623,-223 1113,-223 1113,-193 623,-193"/>
<text text-anchor="start" x="630" y="-204.4" font-family="Arial" font-size="14.00" fill="#000000">arranger </text>
<text text-anchor="start" x="686.7854" y="-204.4" font-family="Arial" font-size="14.00" fill="#666666">[text]</text>
<text text-anchor="start" x="717.1304" y="-204.4" font-family="Arial" font-size="14.00" fill="#000000"> 編曲者</text>
<polygon fill="none" stroke="#000000" points="623,-163 623,-193 1113,-193 1113,-163 623,-163"/>
<text text-anchor="start" x="630" y="-174.4" font-family="Arial" font-size="14.00" fill="#000000">track_number </text>
<text text-anchor="start" x="719.4586" y="-174.4" font-family="Arial" font-size="14.00" fill="#666666">[integer]</text>
<text text-anchor="start" x="770.028" y="-174.4" font-family="Arial" font-size="14.00" fill="#000000"> トラック番号</text>
<polygon fill="none" stroke="#000000" points="623,-133 623,-163 1113,-163 1113,-133 623,-133"/>
<text text-anchor="start" x="629.9818" y="-144.4" font-family="Arial" font-size="14.00" fill="#000000">is_original </text>
<text text-anchor="start" x="696.8724" y="-144.4" font-family="Arial" font-size="14.00" fill="#666666">[boolean]</text>
<text text-anchor="start" x="754.4558" y="-144.4" font-family="Arial" font-size="14.00" fill="#000000"> オリジナル有無(true: オリジナル(初出)、false: 再録など)</text>
<polygon fill="none" stroke="#000000" points="623,-103 623,-133 1113,-133 1113,-103 623,-103"/>
<text text-anchor="start" x="630" y="-114.4" font-family="Arial" font-size="14.00" fill="#000000">source_id </text>
<text text-anchor="start" x="694.5708" y="-114.4" font-family="Arial" font-size="14.00" fill="#666666">[text]</text>
<text text-anchor="start" x="724.9158" y="-114.4" font-family="Arial" font-size="14.00" fill="#000000"> 原曲元の原曲ID</text>
<polygon fill="none" stroke="#000000" points="623,-73 623,-103 1113,-103 1113,-73 623,-73"/>
<text text-anchor="start" x="630" y="-84.4" font-family="Arial" font-size="14.00" fill="#000000">created_at </text>
<text text-anchor="start" x="700.028" y="-84.4" font-family="Arial" font-size="14.00" fill="#666666">[timestamp with time zone]</text>
<text text-anchor="start" x="865.7124" y="-84.4" font-family="Arial" font-size="14.00" fill="#000000"> 作成日時</text>
<polygon fill="none" stroke="#000000" points="623,-43 623,-73 1113,-73 1113,-43 623,-43"/>
<text text-anchor="start" x="630" y="-54.4" font-family="Arial" font-size="14.00" fill="#000000">updated_at </text>
<text text-anchor="start" x="703.9326" y="-54.4" font-family="Arial" font-size="14.00" fill="#666666">[timestamp with time zone]</text>
<text text-anchor="start" x="869.617" y="-54.4" font-family="Arial" font-size="14.00" fill="#000000"> 更新日時</text>
</g>
<!-- public.tracks_original_songs&#45;&gt;public.original_songs -->
<g id="edge2" class="edge">
<title>public.tracks_original_songs:original_song_id&#45;&gt;public.original_songs:id</title>
<path fill="none" stroke="#000000" d="M751.991,-587.945C792.7592,-578.5228 771.8607,-508.2307 742,-468 709.0672,-423.6303 655.9328,-476.3697 623,-432 595.4514,-394.8844 576.7778,-328 623,-328"/>
<polygon fill="#000000" stroke="#000000" points="751.9447,-587.9498 741.5274,-584.5249 746.9724,-588.4749 742,-589 742,-589 742,-589 746.9724,-588.4749 742.4726,-593.4751 751.9447,-587.9498 751.9447,-587.9498"/>
<text text-anchor="start" x="749.3235" y="-599" font-family="Arial" font-size="10.00" fill="#000000">FOREIGN KEY (original_song_id) REFERENCES original_songs(id)</text>
</g>
</g>
</svg>
