<?xml version="1.0" encoding="UTF-8" standalone="no"?>
<!DOCTYPE svg PUBLIC "-//W3C//DTD SVG 1.1//EN"
 "http://www.w3.org/Graphics/SVG/1.1/DTD/svg11.dtd">
<!-- Generated by graphviz version 2.40.1 (20161225.0304)
 -->
<!-- Title: public.tags Pages: 1 -->
<svg width="2861pt" height="614pt"
 viewBox="0.00 0.00 2861.00 614.00" xmlns="http://www.w3.org/2000/svg" xmlns:xlink="http://www.w3.org/1999/xlink">
<g id="graph0" class="graph" transform="scale(1 1) rotate(0) translate(4 610)">
<title>public.tags</title>
<polygon fill="#ffffff" stroke="transparent" points="-4,4 -4,-610 2857,-610 2857,4 -4,4"/>
<!-- public.tags -->
<g id="node1" class="node">
<title>public.tags</title>
<polygon fill="#efefef" stroke="transparent" points="1270.5,-196 1270.5,-242 1584.5,-242 1584.5,-196 1270.5,-196"/>
<polygon fill="none" stroke="#000000" points="1270.5,-196 1270.5,-242 1584.5,-242 1584.5,-196 1270.5,-196"/>
<text text-anchor="start" x="1320.7041" y="-219.8" font-family="Arial Bold" font-size="18.00" fill="#000000">public.tags</text>
<text text-anchor="start" x="1406.7279" y="-219.8" font-family="Arial" font-size="14.00" fill="#000000">    </text>
<text text-anchor="start" x="1440.9327" y="-219.8" font-family="Arial" font-size="14.00" fill="#666666">[BASE TABLE]</text>
<text text-anchor="start" x="1412.2092" y="-205.4" font-family="Arial" font-size="14.00" fill="#333333">タグ</text>
<polygon fill="none" stroke="#000000" points="1270.5,-166 1270.5,-196 1584.5,-196 1584.5,-166 1270.5,-166"/>
<text text-anchor="start" x="1277.5" y="-177.4" font-family="Arial" font-size="14.00" fill="#000000">id </text>
<text text-anchor="start" x="1292.2798" y="-177.4" font-family="Arial" font-size="14.00" fill="#666666">[text]</text>
<polygon fill="none" stroke="#000000" points="1270.5,-136 1270.5,-166 1584.5,-166 1584.5,-136 1270.5,-136"/>
<text text-anchor="start" x="1277.5" y="-147.4" font-family="Arial" font-size="14.00" fill="#000000">name </text>
<text text-anchor="start" x="1316.399" y="-147.4" font-family="Arial" font-size="14.00" fill="#666666">[text]</text>
<text text-anchor="start" x="1346.744" y="-147.4" font-family="Arial" font-size="14.00" fill="#000000"> 名前</text>
<polygon fill="none" stroke="#000000" points="1270.5,-106 1270.5,-136 1584.5,-136 1584.5,-106 1270.5,-106"/>
<text text-anchor="start" x="1277.5" y="-117.4" font-family="Arial" font-size="14.00" fill="#000000">tag_type </text>
<text text-anchor="start" x="1335.0848" y="-117.4" font-family="Arial" font-size="14.00" fill="#666666">[tag_type]</text>
<text text-anchor="start" x="1396.5602" y="-117.4" font-family="Arial" font-size="14.00" fill="#000000"> タグ種別</text>
<polygon fill="none" stroke="#000000" points="1270.5,-76 1270.5,-106 1584.5,-106 1584.5,-76 1270.5,-76"/>
<text text-anchor="start" x="1277.3542" y="-87.4" font-family="Arial" font-size="14.00" fill="#000000">created_at </text>
<text text-anchor="start" x="1347.3822" y="-87.4" font-family="Arial" font-size="14.00" fill="#666666">[timestamp with time zone]</text>
<text text-anchor="start" x="1513.0666" y="-87.4" font-family="Arial" font-size="14.00" fill="#000000"> 作成日時</text>
<polygon fill="none" stroke="#000000" points="1270.5,-46 1270.5,-76 1584.5,-76 1584.5,-46 1270.5,-46"/>
<text text-anchor="start" x="1277.5" y="-57.4" font-family="Arial" font-size="14.00" fill="#000000">updated_at </text>
<text text-anchor="start" x="1351.4326" y="-57.4" font-family="Arial" font-size="14.00" fill="#666666">[timestamp with time zone]</text>
<text text-anchor="start" x="1517.117" y="-57.4" font-family="Arial" font-size="14.00" fill="#000000"> 更新日時</text>
<polygon fill="none" stroke="#000000" stroke-width="3" points="1269,-44.5 1269,-243.5 1586,-243.5 1586,-44.5 1269,-44.5"/>
</g>
<!-- public.albums_genres -->
<g id="node2" class="node">
<title>public.albums_genres</title>
<polygon fill="#efefef" stroke="transparent" points="43.5,-517 43.5,-563 542.5,-563 542.5,-517 43.5,-517"/>
<polygon fill="none" stroke="#000000" points="43.5,-517 43.5,-563 542.5,-563 542.5,-517 43.5,-517"/>
<text text-anchor="start" x="141.6973" y="-540.8" font-family="Arial Bold" font-size="18.00" fill="#000000">public.albums_genres</text>
<text text-anchor="start" x="316.7347" y="-540.8" font-family="Arial" font-size="14.00" fill="#000000">    </text>
<text text-anchor="start" x="350.9395" y="-540.8" font-family="Arial" font-size="14.00" fill="#666666">[BASE TABLE]</text>
<text text-anchor="start" x="231.8228" y="-526.4" font-family="Arial" font-size="14.00" fill="#333333">アルバムジャンル</text>
<polygon fill="none" stroke="#000000" points="43.5,-487 43.5,-517 542.5,-517 542.5,-487 43.5,-487"/>
<text text-anchor="start" x="50.5" y="-498.4" font-family="Arial" font-size="14.00" fill="#000000">album_id    </text>
<text text-anchor="start" x="141.4916" y="-498.4" font-family="Arial" font-size="14.00" fill="#666666">[text]</text>
<text text-anchor="start" x="171.8366" y="-498.4" font-family="Arial" font-size="14.00" fill="#000000"> アルバムID</text>
<polygon fill="none" stroke="#000000" points="43.5,-457 43.5,-487 542.5,-487 542.5,-457 43.5,-457"/>
<text text-anchor="start" x="50.5" y="-468.4" font-family="Arial" font-size="14.00" fill="#000000">tag_id    </text>
<text text-anchor="start" x="122.8324" y="-468.4" font-family="Arial" font-size="14.00" fill="#666666">[text]</text>
<text text-anchor="start" x="153.1774" y="-468.4" font-family="Arial" font-size="14.00" fill="#000000"> タグID</text>
<polygon fill="none" stroke="#000000" points="43.5,-427 43.5,-457 542.5,-457 542.5,-427 43.5,-427"/>
<text text-anchor="start" x="50.4703" y="-438.4" font-family="Arial" font-size="14.00" fill="#000000">locked    </text>
<text text-anchor="start" x="125.1295" y="-438.4" font-family="Arial" font-size="14.00" fill="#666666">[boolean]</text>
<text text-anchor="start" x="182.7129" y="-438.4" font-family="Arial" font-size="14.00" fill="#000000"> ロック有無(true: ロック・削除不可、false: アンロック)</text>
<polygon fill="none" stroke="#000000" points="43.5,-397 43.5,-427 542.5,-427 542.5,-397 43.5,-397"/>
<text text-anchor="start" x="50.5" y="-408.4" font-family="Arial" font-size="14.00" fill="#000000">created_at    </text>
<text text-anchor="start" x="150.8422" y="-408.4" font-family="Arial" font-size="14.00" fill="#666666">[timestamp with time zone]</text>
<text text-anchor="start" x="316.5266" y="-408.4" font-family="Arial" font-size="14.00" fill="#000000"> 作成日時</text>
<polygon fill="none" stroke="#000000" points="43.5,-367 43.5,-397 542.5,-397 542.5,-367 43.5,-367"/>
<text text-anchor="start" x="50.5" y="-378.4" font-family="Arial" font-size="14.00" fill="#000000">updated_at    </text>
<text text-anchor="start" x="154.7468" y="-378.4" font-family="Arial" font-size="14.00" fill="#666666">[timestamp with time zone]</text>
<text text-anchor="start" x="320.4312" y="-378.4" font-family="Arial" font-size="14.00" fill="#000000"> 更新日時</text>
</g>
<!-- public.albums_genres&#45;&gt;public.tags -->
<g id="edge1" class="edge">
<title>public.albums_genres:tag_id&#45;&gt;public.tags:id</title>
<path fill="none" stroke="#000000" d="M552.6988,-471.1112C604.7065,-461.0176 544.2091,-367.5425 593.5,-324 708.7394,-222.2 1116.736,-181 1270.5,-181"/>
<polygon fill="#000000" stroke="#000000" points="552.4622,-471.1317 542.1093,-467.517 547.4811,-471.5659 542.5,-472 542.5,-472 542.5,-472 547.4811,-471.5659 542.8907,-476.483 552.4622,-471.1317 552.4622,-471.1317"/>
<text text-anchor="start" x="436.3845" y="-456" font-family="Arial" font-size="10.00" fill="#000000">FOREIGN KEY (tag_id) REFERENCES tags(id)</text>
</g>
<!-- public.albums_tags -->
<g id="node3" class="node">
<title>public.albums_tags</title>
<polygon fill="#efefef" stroke="transparent" points="646.5,-517 646.5,-563 1073.5,-563 1073.5,-517 646.5,-517"/>
<polygon fill="none" stroke="#000000" points="646.5,-517 646.5,-563 1073.5,-563 1073.5,-517 646.5,-517"/>
<text text-anchor="start" x="719.1985" y="-540.8" font-family="Arial Bold" font-size="18.00" fill="#000000">public.albums_tags</text>
<text text-anchor="start" x="873.2335" y="-540.8" font-family="Arial" font-size="14.00" fill="#000000">    </text>
<text text-anchor="start" x="907.4383" y="-540.8" font-family="Arial" font-size="14.00" fill="#666666">[BASE TABLE]</text>
<text text-anchor="start" x="814.8976" y="-526.4" font-family="Arial" font-size="14.00" fill="#333333">アルバムタグ</text>
<polygon fill="none" stroke="#000000" points="646.5,-487 646.5,-517 1073.5,-517 1073.5,-487 646.5,-487"/>
<text text-anchor="start" x="653.5" y="-498.4" font-family="Arial" font-size="14.00" fill="#000000">album_id    </text>
<text text-anchor="start" x="744.4916" y="-498.4" font-family="Arial" font-size="14.00" fill="#666666">[text]</text>
<text text-anchor="start" x="774.8366" y="-498.4" font-family="Arial" font-size="14.00" fill="#000000"> アルバムID</text>
<polygon fill="none" stroke="#000000" points="646.5,-457 646.5,-487 1073.5,-487 1073.5,-457 646.5,-457"/>
<text text-anchor="start" x="653.5" y="-468.4" font-family="Arial" font-size="14.00" fill="#000000">tag_id    </text>
<text text-anchor="start" x="725.8324" y="-468.4" font-family="Arial" font-size="14.00" fill="#666666">[text]</text>
<text text-anchor="start" x="756.1774" y="-468.4" font-family="Arial" font-size="14.00" fill="#000000"> タグID</text>
<polygon fill="none" stroke="#000000" points="646.5,-427 646.5,-457 1073.5,-457 1073.5,-427 646.5,-427"/>
<text text-anchor="start" x="653.1255" y="-438.4" font-family="Arial" font-size="14.00" fill="#000000">locked    </text>
<text text-anchor="start" x="727.7847" y="-438.4" font-family="Arial" font-size="14.00" fill="#666666">[boolean]</text>
<text text-anchor="start" x="785.3681" y="-438.4" font-family="Arial" font-size="14.00" fill="#000000"> ロック有無(true: ロック、false: アンロック)</text>
<polygon fill="none" stroke="#000000" points="646.5,-397 646.5,-427 1073.5,-427 1073.5,-397 646.5,-397"/>
<text text-anchor="start" x="653.5" y="-408.4" font-family="Arial" font-size="14.00" fill="#000000">created_at    </text>
<text text-anchor="start" x="753.8422" y="-408.4" font-family="Arial" font-size="14.00" fill="#666666">[timestamp with time zone]</text>
<text text-anchor="start" x="919.5266" y="-408.4" font-family="Arial" font-size="14.00" fill="#000000"> 作成日時</text>
<polygon fill="none" stroke="#000000" points="646.5,-367 646.5,-397 1073.5,-397 1073.5,-367 646.5,-367"/>
<text text-anchor="start" x="653.5" y="-378.4" font-family="Arial" font-size="14.00" fill="#000000">updated_at    </text>
<text text-anchor="start" x="757.7468" y="-378.4" font-family="Arial" font-size="14.00" fill="#666666">[timestamp with time zone]</text>
<text text-anchor="start" x="923.4312" y="-378.4" font-family="Arial" font-size="14.00" fill="#000000"> 更新日時</text>
</g>
<!-- public.albums_tags&#45;&gt;public.tags -->
<g id="edge2" class="edge">
<title>public.albums_tags:tag_id&#45;&gt;public.tags:id</title>
<path fill="none" stroke="#000000" d="M1083.4932,-471.2734C1137.4517,-462.6772 1089.2796,-379.7042 1124.5,-324 1173.0402,-247.2294 1179.6712,-181 1270.5,-181"/>
<polygon fill="#000000" stroke="#000000" points="1083.4737,-471.2747 1073.1736,-467.5118 1078.4868,-471.6374 1073.5,-472 1073.5,-472 1073.5,-472 1078.4868,-471.6374 1073.8264,-476.4882 1083.4737,-471.2747 1083.4737,-471.2747"/>
<text text-anchor="start" x="1080.3845" y="-482" font-family="Arial" font-size="10.00" fill="#000000">FOREIGN KEY (tag_id) REFERENCES tags(id)</text>
</g>
<!-- public.songs_genres -->
<g id="node4" class="node">
<title>public.songs_genres</title>
<polygon fill="#efefef" stroke="transparent" points="1177.5,-517 1177.5,-563 1676.5,-563 1676.5,-517 1177.5,-517"/>
<polygon fill="none" stroke="#000000" points="1177.5,-517 1177.5,-563 1676.5,-563 1676.5,-517 1177.5,-517"/>
<text text-anchor="start" x="1280.6905" y="-540.8" font-family="Arial Bold" font-size="18.00" fill="#000000">public.songs_genres</text>
<text text-anchor="start" x="1445.7415" y="-540.8" font-family="Arial" font-size="14.00" fill="#000000">    </text>
<text text-anchor="start" x="1479.9463" y="-540.8" font-family="Arial" font-size="14.00" fill="#666666">[BASE TABLE]</text>
<text text-anchor="start" x="1375.0159" y="-526.4" font-family="Arial" font-size="14.00" fill="#333333">楽曲ジャンル</text>
<polygon fill="none" stroke="#000000" points="1177.5,-487 1177.5,-517 1676.5,-517 1676.5,-487 1177.5,-487"/>
<text text-anchor="start" x="1184.5" y="-498.4" font-family="Arial" font-size="14.00" fill="#000000">song_id    </text>
<text text-anchor="start" x="1267.7244" y="-498.4" font-family="Arial" font-size="14.00" fill="#666666">[text]</text>
<text text-anchor="start" x="1298.0694" y="-498.4" font-family="Arial" font-size="14.00" fill="#000000"> 楽曲ID</text>
<polygon fill="none" stroke="#000000" points="1177.5,-457 1177.5,-487 1676.5,-487 1676.5,-457 1177.5,-457"/>
<text text-anchor="start" x="1184.5" y="-468.4" font-family="Arial" font-size="14.00" fill="#000000">tag_id    </text>
<text text-anchor="start" x="1256.8324" y="-468.4" font-family="Arial" font-size="14.00" fill="#666666">[text]</text>
<text text-anchor="start" x="1287.1774" y="-468.4" font-family="Arial" font-size="14.00" fill="#000000"> タグID</text>
<polygon fill="none" stroke="#000000" points="1177.5,-427 1177.5,-457 1676.5,-457 1676.5,-427 1177.5,-427"/>
<text text-anchor="start" x="1184.4703" y="-438.4" font-family="Arial" font-size="14.00" fill="#000000">locked    </text>
<text text-anchor="start" x="1259.1295" y="-438.4" font-family="Arial" font-size="14.00" fill="#666666">[boolean]</text>
<text text-anchor="start" x="1316.7129" y="-438.4" font-family="Arial" font-size="14.00" fill="#000000"> ロック有無(true: ロック・削除不可、false: アンロック)</text>
<polygon fill="none" stroke="#000000" points="1177.5,-397 1177.5,-427 1676.5,-427 1676.5,-397 1177.5,-397"/>
<text text-anchor="start" x="1184.5" y="-408.4" font-family="Arial" font-size="14.00" fill="#000000">created_at    </text>
<text text-anchor="start" x="1284.8422" y="-408.4" font-family="Arial" font-size="14.00" fill="#666666">[timestamp with time zone]</text>
<text text-anchor="start" x="1450.5266" y="-408.4" font-family="Arial" font-size="14.00" fill="#000000"> 作成日時</text>
<polygon fill="none" stroke="#000000" points="1177.5,-367 1177.5,-397 1676.5,-397 1676.5,-367 1177.5,-367"/>
<text text-anchor="start" x="1184.5" y="-378.4" font-family="Arial" font-size="14.00" fill="#000000">updated_at    </text>
<text text-anchor="start" x="1288.7468" y="-378.4" font-family="Arial" font-size="14.00" fill="#666666">[timestamp with time zone]</text>
<text text-anchor="start" x="1454.4312" y="-378.4" font-family="Arial" font-size="14.00" fill="#000000"> 更新日時</text>
</g>
<!-- public.songs_genres&#45;&gt;public.tags -->
<g id="edge3" class="edge">
<title>public.songs_genres:tag_id&#45;&gt;public.tags:id</title>
<path fill="none" stroke="#000000" d="M1686.5203,-471.1321C1739.8718,-461.272 1718.4817,-369.8689 1676.5,-324 1615.3468,-257.1844 1331.6532,-354.8156 1270.5,-288 1238.3925,-252.9195 1222.9444,-181 1270.5,-181"/>
<polygon fill="#000000" stroke="#000000" points="1686.4627,-471.137 1676.1116,-467.5168 1681.4813,-471.5685 1676.5,-472 1676.5,-472 1676.5,-472 1681.4813,-471.5685 1676.8884,-476.4832 1686.4627,-471.137 1686.4627,-471.137"/>
<text text-anchor="start" x="1570.3845" y="-456" font-family="Arial" font-size="10.00" fill="#000000">FOREIGN KEY (tag_id) REFERENCES tags(id)</text>
</g>
<!-- public.songs_tags -->
<g id="node5" class="node">
<title>public.songs_tags</title>
<polygon fill="#efefef" stroke="transparent" points="1780.5,-517 1780.5,-563 2279.5,-563 2279.5,-517 1780.5,-517"/>
<polygon fill="none" stroke="#000000" points="1780.5,-517 1780.5,-563 2279.5,-563 2279.5,-517 1780.5,-517"/>
<text text-anchor="start" x="1894.1917" y="-540.8" font-family="Arial Bold" font-size="18.00" fill="#000000">public.songs_tags</text>
<text text-anchor="start" x="2038.2403" y="-540.8" font-family="Arial" font-size="14.00" fill="#000000">    </text>
<text text-anchor="start" x="2072.4451" y="-540.8" font-family="Arial" font-size="14.00" fill="#666666">[BASE TABLE]</text>
<text text-anchor="start" x="1994.0907" y="-526.4" font-family="Arial" font-size="14.00" fill="#333333">楽曲タグ</text>
<polygon fill="none" stroke="#000000" points="1780.5,-487 1780.5,-517 2279.5,-517 2279.5,-487 1780.5,-487"/>
<text text-anchor="start" x="1787.5" y="-498.4" font-family="Arial" font-size="14.00" fill="#000000">song_id    </text>
<text text-anchor="start" x="1870.7244" y="-498.4" font-family="Arial" font-size="14.00" fill="#666666">[text]</text>
<text text-anchor="start" x="1901.0694" y="-498.4" font-family="Arial" font-size="14.00" fill="#000000"> 楽曲ID</text>
<polygon fill="none" stroke="#000000" points="1780.5,-457 1780.5,-487 2279.5,-487 2279.5,-457 1780.5,-457"/>
<text text-anchor="start" x="1787.5" y="-468.4" font-family="Arial" font-size="14.00" fill="#000000">tag_id    </text>
<text text-anchor="start" x="1859.8324" y="-468.4" font-family="Arial" font-size="14.00" fill="#666666">[text]</text>
<text text-anchor="start" x="1890.1774" y="-468.4" font-family="Arial" font-size="14.00" fill="#000000"> タグID</text>
<polygon fill="none" stroke="#000000" points="1780.5,-427 1780.5,-457 2279.5,-457 2279.5,-427 1780.5,-427"/>
<text text-anchor="start" x="1787.4703" y="-438.4" font-family="Arial" font-size="14.00" fill="#000000">locked    </text>
<text text-anchor="start" x="1862.1295" y="-438.4" font-family="Arial" font-size="14.00" fill="#666666">[boolean]</text>
<text text-anchor="start" x="1919.7129" y="-438.4" font-family="Arial" font-size="14.00" fill="#000000"> ロック有無(true: ロック・削除不可、false: アンロック)</text>
<polygon fill="none" stroke="#000000" points="1780.5,-397 1780.5,-427 2279.5,-427 2279.5,-397 1780.5,-397"/>
<text text-anchor="start" x="1787.5" y="-408.4" font-family="Arial" font-size="14.00" fill="#000000">created_at    </text>
<text text-anchor="start" x="1887.8422" y="-408.4" font-family="Arial" font-size="14.00" fill="#666666">[timestamp with time zone]</text>
<text text-anchor="start" x="2053.5266" y="-408.4" font-family="Arial" font-size="14.00" fill="#000000"> 作成日時</text>
<polygon fill="none" stroke="#000000" points="1780.5,-367 1780.5,-397 2279.5,-397 2279.5,-367 1780.5,-367"/>
<text text-anchor="start" x="1787.5" y="-378.4" font-family="Arial" font-size="14.00" fill="#000000">updated_at    </text>
<text text-anchor="start" x="1891.7468" y="-378.4" font-family="Arial" font-size="14.00" fill="#666666">[timestamp with time zone]</text>
<text text-anchor="start" x="2057.4312" y="-378.4" font-family="Arial" font-size="14.00" fill="#000000"> 更新日時</text>
</g>
<!-- public.songs_tags&#45;&gt;public.tags -->
<g id="edge4" class="edge">
<title>public.songs_tags:tag_id&#45;&gt;public.tags:id</title>
<path fill="none" stroke="#000000" d="M1770.4784,-471.2745C1716.3198,-462.6912 1763.7701,-379.8364 1728.5,-324 1680.3311,-247.7434 1674.6959,-181 1584.5,-181"/>
<polygon fill="#000000" stroke="#000000" points="1770.5261,-471.2779 1780.175,-476.4883 1775.5131,-471.6389 1780.5,-472 1780.5,-472 1780.5,-472 1775.5131,-471.6389 1780.825,-467.5117 1770.5261,-471.2779 1770.5261,-471.2779"/>
<text text-anchor="start" x="1561.3845" y="-482" font-family="Arial" font-size="10.00" fill="#000000">FOREIGN KEY (tag_id) REFERENCES tags(id)</text>
</g>
<!-- public.circles_tags -->
<g id="node6" class="node">
<title>public.circles_tags</title>
<polygon fill="#efefef" stroke="transparent" points="2383.5,-517 2383.5,-563 2810.5,-563 2810.5,-517 2383.5,-517"/>
<polygon fill="none" stroke="#000000" points="2383.5,-517 2383.5,-563 2810.5,-563 2810.5,-517 2383.5,-517"/>
<text text-anchor="start" x="2459.7076" y="-540.8" font-family="Arial Bold" font-size="18.00" fill="#000000">public.circles_tags</text>
<text text-anchor="start" x="2606.7244" y="-540.8" font-family="Arial" font-size="14.00" fill="#000000">    </text>
<text text-anchor="start" x="2640.9292" y="-540.8" font-family="Arial" font-size="14.00" fill="#666666">[BASE TABLE]</text>
<text text-anchor="start" x="2547.2342" y="-526.4" font-family="Arial" font-size="14.00" fill="#333333">サークルタグ</text>
<polygon fill="none" stroke="#000000" points="2383.5,-487 2383.5,-517 2810.5,-517 2810.5,-487 2383.5,-487"/>
<text text-anchor="start" x="2390.5" y="-498.4" font-family="Arial" font-size="14.00" fill="#000000">circle_id    </text>
<text text-anchor="start" x="2476.033" y="-498.4" font-family="Arial" font-size="14.00" fill="#666666">[text]</text>
<text text-anchor="start" x="2506.378" y="-498.4" font-family="Arial" font-size="14.00" fill="#000000"> サークルID</text>
<polygon fill="none" stroke="#000000" points="2383.5,-457 2383.5,-487 2810.5,-487 2810.5,-457 2383.5,-457"/>
<text text-anchor="start" x="2390.5" y="-468.4" font-family="Arial" font-size="14.00" fill="#000000">tag_id    </text>
<text text-anchor="start" x="2462.8324" y="-468.4" font-family="Arial" font-size="14.00" fill="#666666">[text]</text>
<text text-anchor="start" x="2493.1774" y="-468.4" font-family="Arial" font-size="14.00" fill="#000000"> タグID</text>
<polygon fill="none" stroke="#000000" points="2383.5,-427 2383.5,-457 2810.5,-457 2810.5,-427 2383.5,-427"/>
<text text-anchor="start" x="2390.1255" y="-438.4" font-family="Arial" font-size="14.00" fill="#000000">locked    </text>
<text text-anchor="start" x="2464.7847" y="-438.4" font-family="Arial" font-size="14.00" fill="#666666">[boolean]</text>
<text text-anchor="start" x="2522.3681" y="-438.4" font-family="Arial" font-size="14.00" fill="#000000"> ロック有無(true: ロック、false: アンロック)</text>
<polygon fill="none" stroke="#000000" points="2383.5,-397 2383.5,-427 2810.5,-427 2810.5,-397 2383.5,-397"/>
<text text-anchor="start" x="2390.5" y="-408.4" font-family="Arial" font-size="14.00" fill="#000000">created_at    </text>
<text text-anchor="start" x="2490.8422" y="-408.4" font-family="Arial" font-size="14.00" fill="#666666">[timestamp with time zone]</text>
<text text-anchor="start" x="2656.5266" y="-408.4" font-family="Arial" font-size="14.00" fill="#000000"> 作成日時</text>
<polygon fill="none" stroke="#000000" points="2383.5,-367 2383.5,-397 2810.5,-397 2810.5,-367 2383.5,-367"/>
<text text-anchor="start" x="2390.5" y="-378.4" font-family="Arial" font-size="14.00" fill="#000000">updated_at    </text>
<text text-anchor="start" x="2494.7468" y="-378.4" font-family="Arial" font-size="14.00" fill="#666666">[timestamp with time zone]</text>
<text text-anchor="start" x="2660.4312" y="-378.4" font-family="Arial" font-size="14.00" fill="#000000"> 更新日時</text>
</g>
<!-- public.circles_tags&#45;&gt;public.tags -->
<g id="edge5" class="edge">
<title>public.circles_tags:tag_id&#45;&gt;public.tags:id</title>
<path fill="none" stroke="#000000" d="M2373.277,-471.1064C2321.1272,-460.9596 2381.437,-367.0119 2331.5,-324 2203.4397,-213.6987 1753.5143,-181 1584.5,-181"/>
<polygon fill="#000000" stroke="#000000" points="2373.538,-471.1292 2383.1081,-476.4829 2378.519,-471.5646 2383.5,-472 2383.5,-472 2383.5,-472 2378.519,-471.5646 2383.8919,-467.5171 2373.538,-471.1292 2373.538,-471.1292"/>
<text text-anchor="start" x="2164.3845" y="-482" font-family="Arial" font-size="10.00" fill="#000000">FOREIGN KEY (tag_id) REFERENCES tags(id)</text>
</g>
</g>
</svg>
