<?xml version="1.0" encoding="UTF-8" standalone="no"?>
<!DOCTYPE svg PUBLIC "-//W3C//DTD SVG 1.1//EN"
 "http://www.w3.org/Graphics/SVG/1.1/DTD/svg11.dtd">
<!-- Generated by graphviz version 2.40.1 (20161225.0304)
 -->
<!-- Title: public.songs_tags Pages: 1 -->
<svg width="1152pt" height="1034pt"
 viewBox="0.00 0.00 1151.50 1034.00" xmlns="http://www.w3.org/2000/svg" xmlns:xlink="http://www.w3.org/1999/xlink">
<g id="graph0" class="graph" transform="scale(1 1) rotate(0) translate(4 1030)">
<title>public.songs_tags</title>
<polygon fill="#ffffff" stroke="transparent" points="-4,4 -4,-1030 1147.5,-1030 1147.5,4 -4,4"/>
<!-- public.songs_tags -->
<g id="node1" class="node">
<title>public.songs_tags</title>
<polygon fill="#efefef" stroke="transparent" points="404.5,-934 404.5,-980 872.5,-980 872.5,-934 404.5,-934"/>
<polygon fill="none" stroke="#000000" points="404.5,-934 404.5,-980 872.5,-980 872.5,-934 404.5,-934"/>
<text text-anchor="start" x="502.6917" y="-957.8" font-family="Arial Bold" font-size="18.00" fill="#000000">public.songs_tags</text>
<text text-anchor="start" x="646.7403" y="-957.8" font-family="Arial" font-size="14.00" fill="#000000">    </text>
<text text-anchor="start" x="680.9451" y="-957.8" font-family="Arial" font-size="14.00" fill="#666666">[BASE TABLE]</text>
<text text-anchor="start" x="602.5907" y="-943.4" font-family="Arial" font-size="14.00" fill="#333333">楽曲タグ</text>
<polygon fill="none" stroke="#000000" points="404.5,-904 404.5,-934 872.5,-934 872.5,-904 404.5,-904"/>
<text text-anchor="start" x="411.5" y="-915.4" font-family="Arial" font-size="14.00" fill="#000000">id </text>
<text text-anchor="start" x="426.2798" y="-915.4" font-family="Arial" font-size="14.00" fill="#666666">[text]</text>
<text text-anchor="start" x="456.6248" y="-915.4" font-family="Arial" font-size="14.00" fill="#000000"> ID</text>
<polygon fill="none" stroke="#000000" points="404.5,-874 404.5,-904 872.5,-904 872.5,-874 404.5,-874"/>
<text text-anchor="start" x="411.5" y="-885.4" font-family="Arial" font-size="14.00" fill="#000000">song_id </text>
<text text-anchor="start" x="464.4102" y="-885.4" font-family="Arial" font-size="14.00" fill="#666666">[text]</text>
<text text-anchor="start" x="494.7552" y="-885.4" font-family="Arial" font-size="14.00" fill="#000000"> 楽曲ID</text>
<polygon fill="none" stroke="#000000" points="404.5,-844 404.5,-874 872.5,-874 872.5,-844 404.5,-844"/>
<text text-anchor="start" x="411.5" y="-855.4" font-family="Arial" font-size="14.00" fill="#000000">tag_id </text>
<text text-anchor="start" x="453.5182" y="-855.4" font-family="Arial" font-size="14.00" fill="#666666">[text]</text>
<text text-anchor="start" x="483.8632" y="-855.4" font-family="Arial" font-size="14.00" fill="#000000"> タグID</text>
<polygon fill="none" stroke="#000000" points="404.5,-814 404.5,-844 872.5,-844 872.5,-814 404.5,-814"/>
<text text-anchor="start" x="411.1274" y="-825.4" font-family="Arial" font-size="14.00" fill="#000000">locked </text>
<text text-anchor="start" x="455.4724" y="-825.4" font-family="Arial" font-size="14.00" fill="#666666">[boolean]</text>
<text text-anchor="start" x="513.0558" y="-825.4" font-family="Arial" font-size="14.00" fill="#000000"> ロック有無(true: ロック・削除不可、false: アンロック)</text>
<polygon fill="none" stroke="#000000" points="404.5,-784 404.5,-814 872.5,-814 872.5,-784 404.5,-784"/>
<text text-anchor="start" x="411.5" y="-795.4" font-family="Arial" font-size="14.00" fill="#000000">created_at </text>
<text text-anchor="start" x="481.528" y="-795.4" font-family="Arial" font-size="14.00" fill="#666666">[timestamp with time zone]</text>
<text text-anchor="start" x="647.2124" y="-795.4" font-family="Arial" font-size="14.00" fill="#000000"> 作成日時</text>
<polygon fill="none" stroke="#000000" points="404.5,-754 404.5,-784 872.5,-784 872.5,-754 404.5,-754"/>
<text text-anchor="start" x="411.5" y="-765.4" font-family="Arial" font-size="14.00" fill="#000000">updated_at </text>
<text text-anchor="start" x="485.4326" y="-765.4" font-family="Arial" font-size="14.00" fill="#666666">[timestamp with time zone]</text>
<text text-anchor="start" x="651.117" y="-765.4" font-family="Arial" font-size="14.00" fill="#000000"> 更新日時</text>
<polygon fill="none" stroke="#000000" stroke-width="3" points="403,-752.5 403,-981.5 874,-981.5 874,-752.5 403,-752.5"/>
</g>
<!-- public.songs -->
<g id="node2" class="node">
<title>public.songs</title>
<polygon fill="#efefef" stroke="transparent" points="43.5,-583 43.5,-629 652.5,-629 652.5,-583 43.5,-583"/>
<polygon fill="none" stroke="#000000" points="43.5,-583 43.5,-629 652.5,-629 652.5,-583 43.5,-583"/>
<text text-anchor="start" x="234.2021" y="-606.8" font-family="Arial Bold" font-size="18.00" fill="#000000">public.songs</text>
<text text-anchor="start" x="334.2299" y="-606.8" font-family="Arial" font-size="14.00" fill="#000000">    </text>
<text text-anchor="start" x="368.4347" y="-606.8" font-family="Arial" font-size="14.00" fill="#666666">[BASE TABLE]</text>
<text text-anchor="start" x="327.3815" y="-592.4" font-family="Arial" font-size="14.00" fill="#333333">楽曲</text>
<polygon fill="none" stroke="#000000" points="43.5,-553 43.5,-583 652.5,-583 652.5,-553 43.5,-553"/>
<text text-anchor="start" x="50.5" y="-564.4" font-family="Arial" font-size="14.00" fill="#000000">id    </text>
<text text-anchor="start" x="95.594" y="-564.4" font-family="Arial" font-size="14.00" fill="#666666">[text]</text>
<polygon fill="none" stroke="#000000" points="43.5,-523 43.5,-553 652.5,-553 652.5,-523 43.5,-523"/>
<text text-anchor="start" x="50.5" y="-534.4" font-family="Arial" font-size="14.00" fill="#000000">album_id    </text>
<text text-anchor="start" x="141.4916" y="-534.4" font-family="Arial" font-size="14.00" fill="#666666">[text]</text>
<text text-anchor="start" x="171.8366" y="-534.4" font-family="Arial" font-size="14.00" fill="#000000"> アルバムID</text>
<polygon fill="none" stroke="#000000" points="43.5,-493 43.5,-523 652.5,-523 652.5,-493 43.5,-493"/>
<text text-anchor="start" x="50.5" y="-504.4" font-family="Arial" font-size="14.00" fill="#000000">name    </text>
<text text-anchor="start" x="119.7132" y="-504.4" font-family="Arial" font-size="14.00" fill="#666666">[text]</text>
<text text-anchor="start" x="150.0582" y="-504.4" font-family="Arial" font-size="14.00" fill="#000000"> 名前</text>
<polygon fill="none" stroke="#000000" points="43.5,-463 43.5,-493 652.5,-493 652.5,-463 43.5,-463"/>
<text text-anchor="start" x="50.5" y="-474.4" font-family="Arial" font-size="14.00" fill="#000000">name_reading    </text>
<text text-anchor="start" x="174.176" y="-474.4" font-family="Arial" font-size="14.00" fill="#666666">[text]</text>
<text text-anchor="start" x="204.521" y="-474.4" font-family="Arial" font-size="14.00" fill="#000000"> 名前読み方</text>
<polygon fill="none" stroke="#000000" points="43.5,-433 43.5,-463 652.5,-463 652.5,-433 43.5,-433"/>
<text text-anchor="start" x="50.5" y="-444.4" font-family="Arial" font-size="14.00" fill="#000000">disc_number    </text>
<text text-anchor="start" x="164.8282" y="-444.4" font-family="Arial" font-size="14.00" fill="#666666">[integer]</text>
<text text-anchor="start" x="215.3976" y="-444.4" font-family="Arial" font-size="14.00" fill="#000000"> ディスク番号(default: 1)</text>
<polygon fill="none" stroke="#000000" points="43.5,-403 43.5,-433 652.5,-433 652.5,-403 43.5,-403"/>
<text text-anchor="start" x="50.5" y="-414.4" font-family="Arial" font-size="14.00" fill="#000000">track_number    </text>
<text text-anchor="start" x="170.2728" y="-414.4" font-family="Arial" font-size="14.00" fill="#666666">[integer]</text>
<text text-anchor="start" x="220.8422" y="-414.4" font-family="Arial" font-size="14.00" fill="#000000"> トラック番号</text>
<polygon fill="none" stroke="#000000" points="43.5,-373 43.5,-403 652.5,-403 652.5,-373 43.5,-373"/>
<text text-anchor="start" x="50.5" y="-384.4" font-family="Arial" font-size="14.00" fill="#000000">release_date    </text>
<text text-anchor="start" x="165.6234" y="-384.4" font-family="Arial" font-size="14.00" fill="#666666">[date]</text>
<text text-anchor="start" x="200.643" y="-384.4" font-family="Arial" font-size="14.00" fill="#000000"> 頒布日(アルバムの頒布日と異なる場合に使用する)</text>
<polygon fill="none" stroke="#000000" points="43.5,-343 43.5,-373 652.5,-373 652.5,-343 43.5,-343"/>
<text text-anchor="start" x="50.5" y="-354.4" font-family="Arial" font-size="14.00" fill="#000000">search_enabled    </text>
<text text-anchor="start" x="184.298" y="-354.4" font-family="Arial" font-size="14.00" fill="#666666">[boolean]</text>
<text text-anchor="start" x="241.8814" y="-354.4" font-family="Arial" font-size="14.00" fill="#000000"> 検索対象とするか(default: true)</text>
<polygon fill="none" stroke="#000000" points="43.5,-313 43.5,-343 652.5,-343 652.5,-313 43.5,-313"/>
<text text-anchor="start" x="50.5" y="-324.4" font-family="Arial" font-size="14.00" fill="#000000">length    </text>
<text text-anchor="start" x="122.8324" y="-324.4" font-family="Arial" font-size="14.00" fill="#666666">[integer]</text>
<text text-anchor="start" x="173.4018" y="-324.4" font-family="Arial" font-size="14.00" fill="#000000"> 曲の長さ(秒)</text>
<polygon fill="none" stroke="#000000" points="43.5,-283 43.5,-313 652.5,-313 652.5,-283 43.5,-283"/>
<text text-anchor="start" x="50.5" y="-294.4" font-family="Arial" font-size="14.00" fill="#000000">bpm    </text>
<text text-anchor="start" x="111.9306" y="-294.4" font-family="Arial" font-size="14.00" fill="#666666">[integer]</text>
<text text-anchor="start" x="162.5" y="-294.4" font-family="Arial" font-size="14.00" fill="#000000"> BPM</text>
<polygon fill="none" stroke="#000000" points="43.5,-253 43.5,-283 652.5,-283 652.5,-253 43.5,-253"/>
<text text-anchor="start" x="50.5" y="-264.4" font-family="Arial" font-size="14.00" fill="#000000">display_composer    </text>
<text text-anchor="start" x="197.5" y="-264.4" font-family="Arial" font-size="14.00" fill="#666666">[text]</text>
<text text-anchor="start" x="227.845" y="-264.4" font-family="Arial" font-size="14.00" fill="#000000"> 作曲者表示用(1度しか使用しない別名義などで使用する)</text>
<polygon fill="none" stroke="#000000" points="43.5,-223 43.5,-253 652.5,-253 652.5,-223 43.5,-223"/>
<text text-anchor="start" x="50.5" y="-234.4" font-family="Arial" font-size="14.00" fill="#000000">display_arranger    </text>
<text text-anchor="start" x="188.9432" y="-234.4" font-family="Arial" font-size="14.00" fill="#666666">[text]</text>
<text text-anchor="start" x="219.2882" y="-234.4" font-family="Arial" font-size="14.00" fill="#000000"> 編曲者表示用(1度しか使用しない別名義などで使用する)</text>
<polygon fill="none" stroke="#000000" points="43.5,-193 43.5,-223 652.5,-223 652.5,-193 43.5,-193"/>
<text text-anchor="start" x="50.5" y="-204.4" font-family="Arial" font-size="14.00" fill="#000000">display_rearranger    </text>
<text text-anchor="start" x="201.3864" y="-204.4" font-family="Arial" font-size="14.00" fill="#666666">[text]</text>
<text text-anchor="start" x="231.7314" y="-204.4" font-family="Arial" font-size="14.00" fill="#000000"> 再編曲者表示用(1度しか使用しない別名義などで使用する)</text>
<polygon fill="none" stroke="#000000" points="43.5,-163 43.5,-193 652.5,-193 652.5,-163 43.5,-163"/>
<text text-anchor="start" x="50.5" y="-174.4" font-family="Arial" font-size="14.00" fill="#000000">display_lyricist    </text>
<text text-anchor="start" x="174.9194" y="-174.4" font-family="Arial" font-size="14.00" fill="#666666">[text]</text>
<text text-anchor="start" x="205.2644" y="-174.4" font-family="Arial" font-size="14.00" fill="#000000"> 作詞者表示用(1度しか使用しない別名義などで使用する)</text>
<polygon fill="none" stroke="#000000" points="43.5,-133 43.5,-163 652.5,-163 652.5,-133 43.5,-133"/>
<text text-anchor="start" x="50.3082" y="-144.4" font-family="Arial" font-size="14.00" fill="#000000">display_vocalist    </text>
<text text-anchor="start" x="182.5256" y="-144.4" font-family="Arial" font-size="14.00" fill="#666666">[text]</text>
<text text-anchor="start" x="212.8706" y="-144.4" font-family="Arial" font-size="14.00" fill="#000000"> ボーカリスト表示用(1度しか使用しない別名義などで使用する)</text>
<polygon fill="none" stroke="#000000" points="43.5,-103 43.5,-133 652.5,-133 652.5,-103 43.5,-103"/>
<text text-anchor="start" x="50.5" y="-114.4" font-family="Arial" font-size="14.00" fill="#000000">display_original_song    </text>
<text text-anchor="start" x="219.2896" y="-114.4" font-family="Arial" font-size="14.00" fill="#666666">[text]</text>
<text text-anchor="start" x="249.6346" y="-114.4" font-family="Arial" font-size="14.00" fill="#000000"> 原曲表示用(東方以外の原曲などで使用する)</text>
<polygon fill="none" stroke="#000000" points="43.5,-73 43.5,-103 652.5,-103 652.5,-73 43.5,-73"/>
<text text-anchor="start" x="50.5" y="-84.4" font-family="Arial" font-size="14.00" fill="#000000">created_at    </text>
<text text-anchor="start" x="150.8422" y="-84.4" font-family="Arial" font-size="14.00" fill="#666666">[timestamp with time zone]</text>
<text text-anchor="start" x="316.5266" y="-84.4" font-family="Arial" font-size="14.00" fill="#000000"> 作成日時</text>
<polygon fill="none" stroke="#000000" points="43.5,-43 43.5,-73 652.5,-73 652.5,-43 43.5,-43"/>
<text text-anchor="start" x="50.5" y="-54.4" font-family="Arial" font-size="14.00" fill="#000000">updated_at    </text>
<text text-anchor="start" x="154.7468" y="-54.4" font-family="Arial" font-size="14.00" fill="#666666">[timestamp with time zone]</text>
<text text-anchor="start" x="320.4312" y="-54.4" font-family="Arial" font-size="14.00" fill="#000000"> 更新日時</text>
</g>
<!-- public.songs_tags&#45;&gt;public.songs -->
<g id="edge1" class="edge">
<title>public.songs_tags:song_id&#45;&gt;public.songs:id</title>
<path fill="none" stroke="#000000" d="M394.3066,-888.2888C326.6038,-878.3234 354.2259,-766.0989 404.5,-708 477.3797,-623.7771 579.6203,-756.2229 652.5,-672 682.7454,-637.0471 698.7222,-568 652.5,-568"/>
<polygon fill="#000000" stroke="#000000" points="394.5243,-888.3039 404.1867,-893.4891 399.5121,-888.6519 404.5,-889 404.5,-889 404.5,-889 399.5121,-888.6519 404.8133,-884.5109 394.5243,-888.3039 394.5243,-888.3039"/>
<text text-anchor="start" x="170.6045" y="-899" font-family="Arial" font-size="10.00" fill="#000000">FOREIGN KEY (song_id) REFERENCES songs(id)</text>
</g>
<!-- public.tags -->
<g id="node3" class="node">
<title>public.tags</title>
<polygon fill="#efefef" stroke="transparent" points="756.5,-388 756.5,-434 1100.5,-434 1100.5,-388 756.5,-388"/>
<polygon fill="none" stroke="#000000" points="756.5,-388 756.5,-434 1100.5,-434 1100.5,-388 756.5,-388"/>
<text text-anchor="start" x="821.7041" y="-411.8" font-family="Arial Bold" font-size="18.00" fill="#000000">public.tags</text>
<text text-anchor="start" x="907.7279" y="-411.8" font-family="Arial" font-size="14.00" fill="#000000">    </text>
<text text-anchor="start" x="941.9327" y="-411.8" font-family="Arial" font-size="14.00" fill="#666666">[BASE TABLE]</text>
<text text-anchor="start" x="913.2092" y="-397.4" font-family="Arial" font-size="14.00" fill="#333333">タグ</text>
<polygon fill="none" stroke="#000000" points="756.5,-358 756.5,-388 1100.5,-388 1100.5,-358 756.5,-358"/>
<text text-anchor="start" x="763.5" y="-369.4" font-family="Arial" font-size="14.00" fill="#000000">id    </text>
<text text-anchor="start" x="808.594" y="-369.4" font-family="Arial" font-size="14.00" fill="#666666">[text]</text>
<text text-anchor="start" x="838.939" y="-369.4" font-family="Arial" font-size="14.00" fill="#000000"> ID</text>
<polygon fill="none" stroke="#000000" points="756.5,-328 756.5,-358 1100.5,-358 1100.5,-328 756.5,-328"/>
<text text-anchor="start" x="763.5" y="-339.4" font-family="Arial" font-size="14.00" fill="#000000">name    </text>
<text text-anchor="start" x="832.7132" y="-339.4" font-family="Arial" font-size="14.00" fill="#666666">[text]</text>
<text text-anchor="start" x="863.0582" y="-339.4" font-family="Arial" font-size="14.00" fill="#000000"> 名前</text>
<polygon fill="none" stroke="#000000" points="756.5,-298 756.5,-328 1100.5,-328 1100.5,-298 756.5,-298"/>
<text text-anchor="start" x="763.5" y="-309.4" font-family="Arial" font-size="14.00" fill="#000000">tag_type    </text>
<text text-anchor="start" x="851.399" y="-309.4" font-family="Arial" font-size="14.00" fill="#666666">[tag_type]</text>
<text text-anchor="start" x="912.8744" y="-309.4" font-family="Arial" font-size="14.00" fill="#000000"> タグ種別</text>
<polygon fill="none" stroke="#000000" points="756.5,-268 756.5,-298 1100.5,-298 1100.5,-268 756.5,-268"/>
<text text-anchor="start" x="763.1971" y="-279.4" font-family="Arial" font-size="14.00" fill="#000000">created_at    </text>
<text text-anchor="start" x="863.5393" y="-279.4" font-family="Arial" font-size="14.00" fill="#666666">[timestamp with time zone]</text>
<text text-anchor="start" x="1029.2237" y="-279.4" font-family="Arial" font-size="14.00" fill="#000000"> 作成日時</text>
<polygon fill="none" stroke="#000000" points="756.5,-238 756.5,-268 1100.5,-268 1100.5,-238 756.5,-238"/>
<text text-anchor="start" x="763.5" y="-249.4" font-family="Arial" font-size="14.00" fill="#000000">updated_at    </text>
<text text-anchor="start" x="867.7468" y="-249.4" font-family="Arial" font-size="14.00" fill="#666666">[timestamp with time zone]</text>
<text text-anchor="start" x="1033.4312" y="-249.4" font-family="Arial" font-size="14.00" fill="#000000"> 更新日時</text>
</g>
<!-- public.songs_tags&#45;&gt;public.tags -->
<g id="edge2" class="edge">
<title>public.songs_tags:tag_id&#45;&gt;public.tags:id</title>
<path fill="none" stroke="#000000" d="M882.7889,-858.1945C933.8778,-849.3575 887.0989,-769.6037 872.5,-708 846.0083,-596.2118 782.9917,-588.7882 756.5,-477 745.8414,-432.0235 710.2778,-373 756.5,-373"/>
<polygon fill="#000000" stroke="#000000" points="882.4695,-858.2194 872.1487,-854.5137 877.4847,-858.6097 872.5,-859 872.5,-859 872.5,-859 877.4847,-858.6097 872.8513,-863.4863 882.4695,-858.2194 882.4695,-858.2194"/>
<text text-anchor="start" x="879.3845" y="-869" font-family="Arial" font-size="10.00" fill="#000000">FOREIGN KEY (tag_id) REFERENCES tags(id)</text>
</g>
</g>
</svg>
