<?xml version="1.0" encoding="UTF-8" standalone="no"?>
<!DOCTYPE svg PUBLIC "-//W3C//DTD SVG 1.1//EN"
 "http://www.w3.org/Graphics/SVG/1.1/DTD/svg11.dtd">
<!-- Generated by graphviz version 2.40.1 (20161225.0304)
 -->
<!-- Title: public.sub_events Pages: 1 -->
<svg width="1669pt" height="1004pt"
 viewBox="0.00 0.00 1668.50 1004.00" xmlns="http://www.w3.org/2000/svg" xmlns:xlink="http://www.w3.org/1999/xlink">
<g id="graph0" class="graph" transform="scale(1 1) rotate(0) translate(4 1000)">
<title>public.sub_events</title>
<polygon fill="#ffffff" stroke="transparent" points="-4,4 -4,-1000 1664.5,-1000 1664.5,4 -4,4"/>
<!-- public.sub_events -->
<g id="node1" class="node">
<title>public.sub_events</title>
<polygon fill="#efefef" stroke="transparent" points="247,-904 247,-950 1603,-950 1603,-904 247,-904"/>
<polygon fill="none" stroke="#000000" points="247,-904 247,-950 1603,-950 1603,-904 247,-904"/>
<text text-anchor="start" x="789.1917" y="-927.8" font-family="Arial Bold" font-size="18.00" fill="#000000">public.sub_events</text>
<text text-anchor="start" x="933.2403" y="-927.8" font-family="Arial" font-size="14.00" fill="#000000">    </text>
<text text-anchor="start" x="967.4451" y="-927.8" font-family="Arial" font-size="14.00" fill="#666666">[BASE TABLE]</text>
<text text-anchor="start" x="884.9516" y="-913.4" font-family="Arial" font-size="14.00" fill="#333333">サブイベント</text>
<polygon fill="none" stroke="#000000" points="247,-874 247,-904 1603,-904 1603,-874 247,-874"/>
<text text-anchor="start" x="254" y="-885.4" font-family="Arial" font-size="14.00" fill="#000000">id </text>
<text text-anchor="start" x="268.7798" y="-885.4" font-family="Arial" font-size="14.00" fill="#666666">[text]</text>
<polygon fill="none" stroke="#000000" points="247,-844 247,-874 1603,-874 1603,-844 247,-844"/>
<text text-anchor="start" x="254" y="-855.4" font-family="Arial" font-size="14.00" fill="#000000">event_id </text>
<text text-anchor="start" x="310.8008" y="-855.4" font-family="Arial" font-size="14.00" fill="#666666">[text]</text>
<text text-anchor="start" x="341.1458" y="-855.4" font-family="Arial" font-size="14.00" fill="#000000"> イベントID</text>
<polygon fill="none" stroke="#000000" points="247,-814 247,-844 1603,-844 1603,-814 247,-814"/>
<text text-anchor="start" x="254" y="-825.4" font-family="Arial" font-size="14.00" fill="#000000">name </text>
<text text-anchor="start" x="292.899" y="-825.4" font-family="Arial" font-size="14.00" fill="#666666">[text]</text>
<text text-anchor="start" x="323.244" y="-825.4" font-family="Arial" font-size="14.00" fill="#000000"> 名前(例: 〇〇 2日目)</text>
<polygon fill="none" stroke="#000000" points="247,-784 247,-814 1603,-814 1603,-784 247,-784"/>
<text text-anchor="start" x="254" y="-795.4" font-family="Arial" font-size="14.00" fill="#000000">display_name </text>
<text text-anchor="start" x="344.2426" y="-795.4" font-family="Arial" font-size="14.00" fill="#666666">[text]</text>
<text text-anchor="start" x="374.5876" y="-795.4" font-family="Arial" font-size="14.00" fill="#000000"> 表示名</text>
<polygon fill="none" stroke="#000000" points="247,-754 247,-784 1603,-784 1603,-754 247,-754"/>
<text text-anchor="start" x="254" y="-765.4" font-family="Arial" font-size="14.00" fill="#000000">event_date </text>
<text text-anchor="start" x="327.15" y="-765.4" font-family="Arial" font-size="14.00" fill="#666666">[date]</text>
<text text-anchor="start" x="362.1696" y="-765.4" font-family="Arial" font-size="14.00" fill="#000000"> 開催日</text>
<polygon fill="none" stroke="#000000" points="247,-724 247,-754 1603,-754 1603,-724 247,-724"/>
<text text-anchor="start" x="253.6104" y="-735.4" font-family="Arial" font-size="14.00" fill="#000000">event_status </text>
<text text-anchor="start" x="336.8684" y="-735.4" font-family="Arial" font-size="14.00" fill="#666666">[event_status]</text>
<text text-anchor="start" x="424.017" y="-735.4" font-family="Arial" font-size="14.00" fill="#000000"> ステータス/scheduled: 開催済み, cancelled: 中止, postpone: 延期(開催日未定), rescheduled: 延期(開催日決定), moved_online: オンライン開催に変更, other: その他/default: scheduled</text>
<polygon fill="none" stroke="#000000" points="247,-694 247,-724 1603,-724 1603,-694 247,-694"/>
<text text-anchor="start" x="254" y="-705.4" font-family="Arial" font-size="14.00" fill="#000000">description </text>
<text text-anchor="start" x="325.568" y="-705.4" font-family="Arial" font-size="14.00" fill="#666666">[text]</text>
<text text-anchor="start" x="355.913" y="-705.4" font-family="Arial" font-size="14.00" fill="#000000"> 説明</text>
<polygon fill="none" stroke="#000000" points="247,-664 247,-694 1603,-694 1603,-664 247,-664"/>
<text text-anchor="start" x="254" y="-675.4" font-family="Arial" font-size="14.00" fill="#000000">created_at </text>
<text text-anchor="start" x="324.028" y="-675.4" font-family="Arial" font-size="14.00" fill="#666666">[timestamp with time zone]</text>
<text text-anchor="start" x="489.7124" y="-675.4" font-family="Arial" font-size="14.00" fill="#000000"> 作成日時</text>
<polygon fill="none" stroke="#000000" points="247,-634 247,-664 1603,-664 1603,-634 247,-634"/>
<text text-anchor="start" x="254" y="-645.4" font-family="Arial" font-size="14.00" fill="#000000">updated_at </text>
<text text-anchor="start" x="327.9326" y="-645.4" font-family="Arial" font-size="14.00" fill="#666666">[timestamp with time zone]</text>
<text text-anchor="start" x="493.617" y="-645.4" font-family="Arial" font-size="14.00" fill="#000000"> 更新日時</text>
<polygon fill="none" stroke="#000000" stroke-width="3" points="245.5,-632.5 245.5,-951.5 1604.5,-951.5 1604.5,-632.5 245.5,-632.5"/>
</g>
<!-- public.events -->
<g id="node2" class="node">
<title>public.events</title>
<polygon fill="#efefef" stroke="transparent" points="231,-463 231,-509 1618,-509 1618,-463 231,-463"/>
<polygon fill="none" stroke="#000000" points="231,-463 231,-509 1618,-509 1618,-463 231,-463"/>
<text text-anchor="start" x="808.201" y="-486.8" font-family="Arial Bold" font-size="18.00" fill="#000000">public.events</text>
<text text-anchor="start" x="913.231" y="-486.8" font-family="Arial" font-size="14.00" fill="#000000">    </text>
<text text-anchor="start" x="947.4358" y="-486.8" font-family="Arial" font-size="14.00" fill="#666666">[BASE TABLE]</text>
<text text-anchor="start" x="897.4114" y="-472.4" font-family="Arial" font-size="14.00" fill="#333333">イベント</text>
<polygon fill="none" stroke="#000000" points="231,-433 231,-463 1618,-463 1618,-433 231,-433"/>
<text text-anchor="start" x="238" y="-444.4" font-family="Arial" font-size="14.00" fill="#000000">id    </text>
<text text-anchor="start" x="283.094" y="-444.4" font-family="Arial" font-size="14.00" fill="#666666">[text]</text>
<polygon fill="none" stroke="#000000" points="231,-403 231,-433 1618,-433 1618,-403 231,-403"/>
<text text-anchor="start" x="238" y="-414.4" font-family="Arial" font-size="14.00" fill="#000000">event_series_id    </text>
<text text-anchor="start" x="370.23" y="-414.4" font-family="Arial" font-size="14.00" fill="#666666">[text]</text>
<text text-anchor="start" x="400.575" y="-414.4" font-family="Arial" font-size="14.00" fill="#000000"> イベントシリーズID</text>
<polygon fill="none" stroke="#000000" points="231,-373 231,-403 1618,-403 1618,-373 231,-373"/>
<text text-anchor="start" x="238" y="-384.4" font-family="Arial" font-size="14.00" fill="#000000">name    </text>
<text text-anchor="start" x="307.2132" y="-384.4" font-family="Arial" font-size="14.00" fill="#666666">[text]</text>
<text text-anchor="start" x="337.5582" y="-384.4" font-family="Arial" font-size="14.00" fill="#000000"> 名前</text>
<polygon fill="none" stroke="#000000" points="231,-343 231,-373 1618,-373 1618,-343 231,-343"/>
<text text-anchor="start" x="238" y="-354.4" font-family="Arial" font-size="14.00" fill="#000000">display_name    </text>
<text text-anchor="start" x="358.5568" y="-354.4" font-family="Arial" font-size="14.00" fill="#666666">[text]</text>
<text text-anchor="start" x="388.9018" y="-354.4" font-family="Arial" font-size="14.00" fill="#000000"> 表示名</text>
<polygon fill="none" stroke="#000000" points="231,-313 231,-343 1618,-343 1618,-313 231,-313"/>
<text text-anchor="start" x="238" y="-324.4" font-family="Arial" font-size="14.00" fill="#000000">event_dates    </text>
<text text-anchor="start" x="348.4642" y="-324.4" font-family="Arial" font-size="14.00" fill="#666666">[daterange]</text>
<text text-anchor="start" x="419.2748" y="-324.4" font-family="Arial" font-size="14.00" fill="#000000"> イベント開催期間</text>
<polygon fill="none" stroke="#000000" points="231,-283 231,-313 1618,-313 1618,-283 231,-283"/>
<text text-anchor="start" x="237.9533" y="-294.4" font-family="Arial" font-size="14.00" fill="#000000">event_status    </text>
<text text-anchor="start" x="351.5255" y="-294.4" font-family="Arial" font-size="14.00" fill="#666666">[event_status]</text>
<text text-anchor="start" x="438.6741" y="-294.4" font-family="Arial" font-size="14.00" fill="#000000"> ステータス/scheduled: 開催済み, cancelled: 中止, postpone: 延期(開催日未定), rescheduled: 延期(開催日決定), moved_online: オンライン開催に変更, other: その他/default: scheduled</text>
<polygon fill="none" stroke="#000000" points="231,-253 231,-283 1618,-283 1618,-253 231,-253"/>
<text text-anchor="start" x="238" y="-264.4" font-family="Arial" font-size="14.00" fill="#000000">format    </text>
<text text-anchor="start" x="311.8724" y="-264.4" font-family="Arial" font-size="14.00" fill="#666666">[event_format]</text>
<text text-anchor="start" x="401.3422" y="-264.4" font-family="Arial" font-size="14.00" fill="#000000"> 形式/offline: オフライン開催, online: オフライン開催, mixed: 両方開催/default: offline</text>
<polygon fill="none" stroke="#000000" points="231,-223 231,-253 1618,-253 1618,-223 231,-223"/>
<text text-anchor="start" x="238" y="-234.4" font-family="Arial" font-size="14.00" fill="#000000">region_code    </text>
<text text-anchor="start" x="349.2328" y="-234.4" font-family="Arial" font-size="14.00" fill="#666666">[text]</text>
<text text-anchor="start" x="379.5778" y="-234.4" font-family="Arial" font-size="14.00" fill="#000000"> リージョンコード/default: JP</text>
<polygon fill="none" stroke="#000000" points="231,-193 231,-223 1618,-223 1618,-193 231,-193"/>
<text text-anchor="start" x="238" y="-204.4" font-family="Arial" font-size="14.00" fill="#000000">address    </text>
<text text-anchor="start" x="321.9958" y="-204.4" font-family="Arial" font-size="14.00" fill="#666666">[text]</text>
<text text-anchor="start" x="352.3408" y="-204.4" font-family="Arial" font-size="14.00" fill="#000000"> 開催場所</text>
<polygon fill="none" stroke="#000000" points="231,-163 231,-193 1618,-193 1618,-163 231,-163"/>
<text text-anchor="start" x="238" y="-174.4" font-family="Arial" font-size="14.00" fill="#000000">description    </text>
<text text-anchor="start" x="339.8822" y="-174.4" font-family="Arial" font-size="14.00" fill="#666666">[text]</text>
<text text-anchor="start" x="370.2272" y="-174.4" font-family="Arial" font-size="14.00" fill="#000000"> 説明</text>
<polygon fill="none" stroke="#000000" points="231,-133 231,-163 1618,-163 1618,-133 231,-133"/>
<text text-anchor="start" x="238" y="-144.4" font-family="Arial" font-size="14.00" fill="#000000">url    </text>
<text text-anchor="start" x="287.7546" y="-144.4" font-family="Arial" font-size="14.00" fill="#666666">[text]</text>
<text text-anchor="start" x="318.0996" y="-144.4" font-family="Arial" font-size="14.00" fill="#000000"> URL</text>
<polygon fill="none" stroke="#000000" points="231,-103 231,-133 1618,-133 1618,-103 231,-103"/>
<text text-anchor="start" x="238" y="-114.4" font-family="Arial" font-size="14.00" fill="#000000">twitter_url    </text>
<text text-anchor="start" x="332.8654" y="-114.4" font-family="Arial" font-size="14.00" fill="#666666">[text]</text>
<text text-anchor="start" x="363.2104" y="-114.4" font-family="Arial" font-size="14.00" fill="#000000"> Twitter URL</text>
<polygon fill="none" stroke="#000000" points="231,-73 231,-103 1618,-103 1618,-73 231,-73"/>
<text text-anchor="start" x="238" y="-84.4" font-family="Arial" font-size="14.00" fill="#000000">created_at    </text>
<text text-anchor="start" x="338.3422" y="-84.4" font-family="Arial" font-size="14.00" fill="#666666">[timestamp with time zone]</text>
<text text-anchor="start" x="504.0266" y="-84.4" font-family="Arial" font-size="14.00" fill="#000000"> 作成日時</text>
<polygon fill="none" stroke="#000000" points="231,-43 231,-73 1618,-73 1618,-43 231,-43"/>
<text text-anchor="start" x="238" y="-54.4" font-family="Arial" font-size="14.00" fill="#000000">updated_at    </text>
<text text-anchor="start" x="342.2468" y="-54.4" font-family="Arial" font-size="14.00" fill="#666666">[timestamp with time zone]</text>
<text text-anchor="start" x="507.9312" y="-54.4" font-family="Arial" font-size="14.00" fill="#000000"> 更新日時</text>
</g>
<!-- public.sub_events&#45;&gt;public.events -->
<g id="edge1" class="edge">
<title>public.sub_events:event_id&#45;&gt;public.events:id</title>
<path fill="none" stroke="#000000" d="M236.8152,-858.5315C128.7294,-848.2609 165.4203,-671.75 247,-588 300.1647,-533.4209 1564.8353,-606.5791 1618,-552 1650.2522,-518.8898 1664.2222,-448 1618,-448"/>
<polygon fill="#000000" stroke="#000000" points="237.0106,-858.5404 246.7932,-863.4952 242.0053,-858.7702 247,-859 247,-859 247,-859 242.0053,-858.7702 247.2068,-854.5048 237.0106,-858.5404 237.0106,-858.5404"/>
<text text-anchor="start" x="7.3255" y="-869" font-family="Arial" font-size="10.00" fill="#000000">FOREIGN KEY (event_id) REFERENCES events(id)</text>
</g>
</g>
</svg>
