<?xml version="1.0" encoding="UTF-8" standalone="no"?>
<!DOCTYPE svg PUBLIC "-//W3C//DTD SVG 1.1//EN"
 "http://www.w3.org/Graphics/SVG/1.1/DTD/svg11.dtd">
<!-- Generated by graphviz version 2.40.1 (20161225.0304)
 -->
<!-- Title: public.album_distribution_service_urls Pages: 1 -->
<svg width="722pt" height="944pt"
 viewBox="0.00 0.00 721.50 944.00" xmlns="http://www.w3.org/2000/svg" xmlns:xlink="http://www.w3.org/1999/xlink">
<g id="graph0" class="graph" transform="scale(1 1) rotate(0) translate(4 940)">
<title>public.album_distribution_service_urls</title>
<polygon fill="#ffffff" stroke="transparent" points="-4,4 -4,-940 717.5,-940 717.5,4 -4,4"/>
<!-- public.album_distribution_service_urls -->
<g id="node1" class="node">
<title>public.album_distribution_service_urls</title>
<polygon fill="#efefef" stroke="transparent" points="46.5,-844 46.5,-890 461.5,-890 461.5,-844 46.5,-844"/>
<polygon fill="none" stroke="#000000" points="46.5,-844 46.5,-890 461.5,-890 461.5,-844 46.5,-844"/>
<text text-anchor="start" x="53.3559" y="-867.8" font-family="Arial Bold" font-size="18.00" fill="#000000">public.album_distribution_service_urls</text>
<text text-anchor="start" x="357.3903" y="-867.8" font-family="Arial" font-size="14.00" fill="#000000"> </text>
<text text-anchor="start" x="361.2809" y="-867.8" font-family="Arial" font-size="14.00" fill="#666666">[BASE TABLE]</text>
<text text-anchor="start" x="160.9434" y="-853.4" font-family="Arial" font-size="14.00" fill="#333333">アルバム配信サービスURL</text>
<polygon fill="none" stroke="#000000" points="46.5,-814 46.5,-844 461.5,-844 461.5,-814 46.5,-814"/>
<text text-anchor="start" x="53.5" y="-825.4" font-family="Arial" font-size="14.00" fill="#000000">id </text>
<text text-anchor="start" x="68.2798" y="-825.4" font-family="Arial" font-size="14.00" fill="#666666">[text]</text>
<polygon fill="none" stroke="#000000" points="46.5,-784 46.5,-814 461.5,-814 461.5,-784 46.5,-784"/>
<text text-anchor="start" x="53.5" y="-795.4" font-family="Arial" font-size="14.00" fill="#000000">album_id </text>
<text text-anchor="start" x="114.1774" y="-795.4" font-family="Arial" font-size="14.00" fill="#666666">[text]</text>
<text text-anchor="start" x="144.5224" y="-795.4" font-family="Arial" font-size="14.00" fill="#000000"> アルバムID</text>
<polygon fill="none" stroke="#000000" points="46.5,-754 46.5,-784 461.5,-784 461.5,-754 46.5,-754"/>
<text text-anchor="start" x="53.5" y="-765.4" font-family="Arial" font-size="14.00" fill="#000000">service </text>
<text text-anchor="start" x="101.723" y="-765.4" font-family="Arial" font-size="14.00" fill="#666666">[distribution_service]</text>
<text text-anchor="start" x="229.2938" y="-765.4" font-family="Arial" font-size="14.00" fill="#000000"> 配信サービス</text>
<polygon fill="none" stroke="#000000" points="46.5,-724 46.5,-754 461.5,-754 461.5,-724 46.5,-724"/>
<text text-anchor="start" x="53.5" y="-735.4" font-family="Arial" font-size="14.00" fill="#000000">url </text>
<text text-anchor="start" x="72.9404" y="-735.4" font-family="Arial" font-size="14.00" fill="#666666">[text]</text>
<text text-anchor="start" x="103.2854" y="-735.4" font-family="Arial" font-size="14.00" fill="#000000"> URL</text>
<polygon fill="none" stroke="#000000" points="46.5,-694 46.5,-724 461.5,-724 461.5,-694 46.5,-694"/>
<text text-anchor="start" x="53.5" y="-705.4" font-family="Arial" font-size="14.00" fill="#000000">created_at </text>
<text text-anchor="start" x="123.528" y="-705.4" font-family="Arial" font-size="14.00" fill="#666666">[timestamp with time zone]</text>
<text text-anchor="start" x="289.2124" y="-705.4" font-family="Arial" font-size="14.00" fill="#000000"> 作成日時</text>
<polygon fill="none" stroke="#000000" points="46.5,-664 46.5,-694 461.5,-694 461.5,-664 46.5,-664"/>
<text text-anchor="start" x="53.5" y="-675.4" font-family="Arial" font-size="14.00" fill="#000000">updated_at </text>
<text text-anchor="start" x="127.4326" y="-675.4" font-family="Arial" font-size="14.00" fill="#666666">[timestamp with time zone]</text>
<text text-anchor="start" x="293.117" y="-675.4" font-family="Arial" font-size="14.00" fill="#000000"> 更新日時</text>
<polygon fill="none" stroke="#000000" stroke-width="3" points="44.5,-662.5 44.5,-891.5 462.5,-891.5 462.5,-662.5 44.5,-662.5"/>
</g>
<!-- public.albums -->
<g id="node2" class="node">
<title>public.albums</title>
<polygon fill="#efefef" stroke="transparent" points="97.5,-493 97.5,-539 411.5,-539 411.5,-493 97.5,-493"/>
<polygon fill="none" stroke="#000000" points="97.5,-493 97.5,-539 411.5,-539 411.5,-493 97.5,-493"/>
<text text-anchor="start" x="150.866" y="-516.8" font-family="Arial Bold" font-size="18.00" fill="#000000">public.albums</text>
<text text-anchor="start" x="260.8802" y="-516.8" font-family="Arial" font-size="14.00" fill="#000000"> </text>
<text text-anchor="start" x="264.7708" y="-516.8" font-family="Arial" font-size="14.00" fill="#666666">[BASE TABLE]</text>
<text text-anchor="start" x="224.6884" y="-502.4" font-family="Arial" font-size="14.00" fill="#333333">アルバム</text>
<polygon fill="none" stroke="#000000" points="97.5,-463 97.5,-493 411.5,-493 411.5,-463 97.5,-463"/>
<text text-anchor="start" x="104.5" y="-474.4" font-family="Arial" font-size="14.00" fill="#000000">id </text>
<text text-anchor="start" x="119.2798" y="-474.4" font-family="Arial" font-size="14.00" fill="#666666">[text]</text>
<polygon fill="none" stroke="#000000" points="97.5,-433 97.5,-463 411.5,-463 411.5,-433 97.5,-433"/>
<text text-anchor="start" x="104.5" y="-444.4" font-family="Arial" font-size="14.00" fill="#000000">name </text>
<text text-anchor="start" x="143.399" y="-444.4" font-family="Arial" font-size="14.00" fill="#666666">[text]</text>
<text text-anchor="start" x="173.744" y="-444.4" font-family="Arial" font-size="14.00" fill="#000000"> 名前</text>
<polygon fill="none" stroke="#000000" points="97.5,-403 97.5,-433 411.5,-433 411.5,-403 97.5,-403"/>
<text text-anchor="start" x="104.5" y="-414.4" font-family="Arial" font-size="14.00" fill="#000000">release_circle_name </text>
<text text-anchor="start" x="237.5182" y="-414.4" font-family="Arial" font-size="14.00" fill="#666666">[text]</text>
<text text-anchor="start" x="267.8632" y="-414.4" font-family="Arial" font-size="14.00" fill="#000000"> 頒布サークル名</text>
<polygon fill="none" stroke="#000000" points="97.5,-373 97.5,-403 411.5,-403 411.5,-373 97.5,-373"/>
<text text-anchor="start" x="104.5" y="-384.4" font-family="Arial" font-size="14.00" fill="#000000">release_date </text>
<text text-anchor="start" x="189.3092" y="-384.4" font-family="Arial" font-size="14.00" fill="#666666">[date]</text>
<text text-anchor="start" x="224.3288" y="-384.4" font-family="Arial" font-size="14.00" fill="#000000"> 頒布日</text>
<polygon fill="none" stroke="#000000" points="97.5,-343 97.5,-373 411.5,-373 411.5,-343 97.5,-343"/>
<text text-anchor="start" x="104.5" y="-354.4" font-family="Arial" font-size="14.00" fill="#000000">event_id </text>
<text text-anchor="start" x="161.3008" y="-354.4" font-family="Arial" font-size="14.00" fill="#666666">[text]</text>
<text text-anchor="start" x="191.6458" y="-354.4" font-family="Arial" font-size="14.00" fill="#000000"> イベントID</text>
<polygon fill="none" stroke="#000000" points="97.5,-313 97.5,-343 411.5,-343 411.5,-313 97.5,-313"/>
<text text-anchor="start" x="104.5" y="-324.4" font-family="Arial" font-size="14.00" fill="#000000">sub_event_id </text>
<text text-anchor="start" x="191.6486" y="-324.4" font-family="Arial" font-size="14.00" fill="#666666">[text]</text>
<text text-anchor="start" x="221.9936" y="-324.4" font-family="Arial" font-size="14.00" fill="#000000"> サブイベントID</text>
<polygon fill="none" stroke="#000000" points="97.5,-283 97.5,-313 411.5,-313 411.5,-283 97.5,-283"/>
<text text-anchor="start" x="104.5" y="-294.4" font-family="Arial" font-size="14.00" fill="#000000">search_enabled </text>
<text text-anchor="start" x="207.9838" y="-294.4" font-family="Arial" font-size="14.00" fill="#666666">[boolean]</text>
<text text-anchor="start" x="265.5672" y="-294.4" font-family="Arial" font-size="14.00" fill="#000000"> 検索対象とするか</text>
<polygon fill="none" stroke="#000000" points="97.5,-253 97.5,-283 411.5,-283 411.5,-253 97.5,-253"/>
<text text-anchor="start" x="104.5" y="-264.4" font-family="Arial" font-size="14.00" fill="#000000">album_number </text>
<text text-anchor="start" x="201.7398" y="-264.4" font-family="Arial" font-size="14.00" fill="#666666">[text]</text>
<polygon fill="none" stroke="#000000" points="97.5,-223 97.5,-253 411.5,-253 411.5,-223 97.5,-223"/>
<text text-anchor="start" x="104.5" y="-234.4" font-family="Arial" font-size="14.00" fill="#000000">event_price </text>
<text text-anchor="start" x="180.744" y="-234.4" font-family="Arial" font-size="14.00" fill="#666666">[numeric]</text>
<text text-anchor="start" x="238.3008" y="-234.4" font-family="Arial" font-size="14.00" fill="#000000"> イベント価格</text>
<polygon fill="none" stroke="#000000" points="97.5,-193 97.5,-223 411.5,-223 411.5,-193 97.5,-193"/>
<text text-anchor="start" x="104.5" y="-204.4" font-family="Arial" font-size="14.00" fill="#000000">currency </text>
<text text-anchor="start" x="162.0596" y="-204.4" font-family="Arial" font-size="14.00" fill="#666666">[text]</text>
<text text-anchor="start" x="192.4046" y="-204.4" font-family="Arial" font-size="14.00" fill="#000000"> 通貨(default: JPY)</text>
<polygon fill="none" stroke="#000000" points="97.5,-163 97.5,-193 411.5,-193 411.5,-163 97.5,-163"/>
<text text-anchor="start" x="104.5" y="-174.4" font-family="Arial" font-size="14.00" fill="#000000">credit </text>
<text text-anchor="start" x="142.6136" y="-174.4" font-family="Arial" font-size="14.00" fill="#666666">[text]</text>
<text text-anchor="start" x="172.9586" y="-174.4" font-family="Arial" font-size="14.00" fill="#000000"> クレジット</text>
<polygon fill="none" stroke="#000000" points="97.5,-133 97.5,-163 411.5,-163 411.5,-133 97.5,-133"/>
<text text-anchor="start" x="104.5" y="-144.4" font-family="Arial" font-size="14.00" fill="#000000">introduction </text>
<text text-anchor="start" x="180.7412" y="-144.4" font-family="Arial" font-size="14.00" fill="#666666">[text]</text>
<text text-anchor="start" x="211.0862" y="-144.4" font-family="Arial" font-size="14.00" fill="#000000"> 紹介</text>
<polygon fill="none" stroke="#000000" points="97.5,-103 97.5,-133 411.5,-133 411.5,-103 97.5,-103"/>
<text text-anchor="start" x="104.5" y="-114.4" font-family="Arial" font-size="14.00" fill="#000000">url </text>
<text text-anchor="start" x="123.9404" y="-114.4" font-family="Arial" font-size="14.00" fill="#666666">[text]</text>
<text text-anchor="start" x="154.2854" y="-114.4" font-family="Arial" font-size="14.00" fill="#000000"> URL</text>
<polygon fill="none" stroke="#000000" points="97.5,-73 97.5,-103 411.5,-103 411.5,-73 97.5,-73"/>
<text text-anchor="start" x="104.3542" y="-84.4" font-family="Arial" font-size="14.00" fill="#000000">created_at </text>
<text text-anchor="start" x="174.3822" y="-84.4" font-family="Arial" font-size="14.00" fill="#666666">[timestamp with time zone]</text>
<text text-anchor="start" x="340.0666" y="-84.4" font-family="Arial" font-size="14.00" fill="#000000"> 作成日時</text>
<polygon fill="none" stroke="#000000" points="97.5,-43 97.5,-73 411.5,-73 411.5,-43 97.5,-43"/>
<text text-anchor="start" x="104.5" y="-54.4" font-family="Arial" font-size="14.00" fill="#000000">updated_at </text>
<text text-anchor="start" x="178.4326" y="-54.4" font-family="Arial" font-size="14.00" fill="#666666">[timestamp with time zone]</text>
<text text-anchor="start" x="344.117" y="-54.4" font-family="Arial" font-size="14.00" fill="#000000"> 更新日時</text>
</g>
<!-- public.album_distribution_service_urls&#45;&gt;public.albums -->
<g id="edge1" class="edge">
<title>public.album_distribution_service_urls:album_id&#45;&gt;public.albums:id</title>
<path fill="none" stroke="#000000" d="M471.7013,-798.2818C539.5139,-788.2191 513.0848,-674.9383 461.5,-618 406.9255,-557.7618 152.0745,-642.2382 97.5,-582 66.466,-547.7453 51.2778,-478 97.5,-478"/>
<polygon fill="#000000" stroke="#000000" points="471.4753,-798.2976 461.1839,-794.5111 466.4877,-798.6488 461.5,-799 461.5,-799 461.5,-799 466.4877,-798.6488 461.8161,-803.4889 471.4753,-798.2976 471.4753,-798.2976"/>
<text text-anchor="start" x="468.0565" y="-809" font-family="Arial" font-size="10.00" fill="#000000">FOREIGN KEY (album_id) REFERENCES albums(id)</text>
</g>
</g>
</svg>
