<?xml version="1.0" encoding="UTF-8" standalone="no"?>
<!DOCTYPE svg PUBLIC "-//W3C//DTD SVG 1.1//EN"
 "http://www.w3.org/Graphics/SVG/1.1/DTD/svg11.dtd">
<!-- Generated by graphviz version 2.40.1 (20161225.0304)
 -->
<!-- Title: public.track_isrcs Pages: 1 -->
<svg width="896pt" height="1004pt"
 viewBox="0.00 0.00 895.50 1004.00" xmlns="http://www.w3.org/2000/svg" xmlns:xlink="http://www.w3.org/1999/xlink">
<g id="graph0" class="graph" transform="scale(1 1) rotate(0) translate(4 1000)">
<title>public.track_isrcs</title>
<polygon fill="#ffffff" stroke="transparent" points="-4,4 -4,-1000 891.5,-1000 891.5,4 -4,4"/>
<!-- public.track_isrcs -->
<g id="node1" class="node">
<title>public.track_isrcs</title>
<polygon fill="#efefef" stroke="transparent" points="241,-904 241,-950 842,-950 842,-904 241,-904"/>
<polygon fill="none" stroke="#000000" points="241,-904 241,-950 842,-950 842,-904 241,-904"/>
<text text-anchor="start" x="423.8719" y="-927.8" font-family="Arial Bold" font-size="18.00" fill="#000000">public.track_isrcs</text>
<text text-anchor="start" x="561.8743" y="-927.8" font-family="Arial" font-size="14.00" fill="#000000"> </text>
<text text-anchor="start" x="565.7649" y="-927.8" font-family="Arial" font-size="14.00" fill="#666666">[BASE TABLE]</text>
<text text-anchor="start" x="504.1613" y="-913.4" font-family="Arial" font-size="14.00" fill="#333333">楽曲ISRC</text>
<polygon fill="none" stroke="#000000" points="241,-874 241,-904 842,-904 842,-874 241,-874"/>
<text text-anchor="start" x="248" y="-885.4" font-family="Arial" font-size="14.00" fill="#000000">id </text>
<text text-anchor="start" x="262.7798" y="-885.4" font-family="Arial" font-size="14.00" fill="#666666">[text]</text>
<polygon fill="none" stroke="#000000" points="241,-844 241,-874 842,-874 842,-844 241,-844"/>
<text text-anchor="start" x="248" y="-855.4" font-family="Arial" font-size="14.00" fill="#000000">track_id </text>
<text text-anchor="start" x="300.8962" y="-855.4" font-family="Arial" font-size="14.00" fill="#666666">[text]</text>
<text text-anchor="start" x="331.2412" y="-855.4" font-family="Arial" font-size="14.00" fill="#000000"> トラックID</text>
<polygon fill="none" stroke="#000000" points="241,-814 241,-844 842,-844 842,-814 241,-814"/>
<text text-anchor="start" x="247.6064" y="-825.4" font-family="Arial" font-size="14.00" fill="#000000">isrc </text>
<text text-anchor="start" x="273.2642" y="-825.4" font-family="Arial" font-size="14.00" fill="#666666">[text]</text>
<text text-anchor="start" x="303.6092" y="-825.4" font-family="Arial" font-size="14.00" fill="#000000"> ISRC(International Standard Recording Code): 国際標準レコーディングコード</text>
<polygon fill="none" stroke="#000000" points="241,-784 241,-814 842,-814 842,-784 241,-784"/>
<text text-anchor="start" x="248" y="-795.4" font-family="Arial" font-size="14.00" fill="#000000">created_at </text>
<text text-anchor="start" x="318.028" y="-795.4" font-family="Arial" font-size="14.00" fill="#666666">[timestamp with time zone]</text>
<text text-anchor="start" x="483.7124" y="-795.4" font-family="Arial" font-size="14.00" fill="#000000"> 作成日時</text>
<polygon fill="none" stroke="#000000" points="241,-754 241,-784 842,-784 842,-754 241,-754"/>
<text text-anchor="start" x="248" y="-765.4" font-family="Arial" font-size="14.00" fill="#000000">updated_at </text>
<text text-anchor="start" x="321.9326" y="-765.4" font-family="Arial" font-size="14.00" fill="#666666">[timestamp with time zone]</text>
<text text-anchor="start" x="487.617" y="-765.4" font-family="Arial" font-size="14.00" fill="#000000"> 更新日時</text>
<polygon fill="none" stroke="#000000" stroke-width="3" points="239,-752.5 239,-951.5 843,-951.5 843,-752.5 239,-752.5"/>
</g>
<!-- public.tracks -->
<g id="node2" class="node">
<title>public.tracks</title>
<polygon fill="#efefef" stroke="transparent" points="252,-583 252,-629 831,-629 831,-583 252,-583"/>
<polygon fill="none" stroke="#000000" points="252,-583 252,-629 831,-629 831,-583 252,-583"/>
<text text-anchor="start" x="442.8682" y="-606.8" font-family="Arial Bold" font-size="18.00" fill="#000000">public.tracks</text>
<text text-anchor="start" x="542.878" y="-606.8" font-family="Arial" font-size="14.00" fill="#000000"> </text>
<text text-anchor="start" x="546.7686" y="-606.8" font-family="Arial" font-size="14.00" fill="#666666">[BASE TABLE]</text>
<text text-anchor="start" x="514.6347" y="-592.4" font-family="Arial" font-size="14.00" fill="#333333">トラック</text>
<polygon fill="none" stroke="#000000" points="252,-553 252,-583 831,-583 831,-553 252,-553"/>
<text text-anchor="start" x="259" y="-564.4" font-family="Arial" font-size="14.00" fill="#000000">id </text>
<text text-anchor="start" x="273.7798" y="-564.4" font-family="Arial" font-size="14.00" fill="#666666">[text]</text>
<polygon fill="none" stroke="#000000" points="252,-523 252,-553 831,-553 831,-523 252,-523"/>
<text text-anchor="start" x="259" y="-534.4" font-family="Arial" font-size="14.00" fill="#000000">album_id </text>
<text text-anchor="start" x="319.6774" y="-534.4" font-family="Arial" font-size="14.00" fill="#666666">[text]</text>
<text text-anchor="start" x="350.0224" y="-534.4" font-family="Arial" font-size="14.00" fill="#000000"> アルバムID</text>
<polygon fill="none" stroke="#000000" points="252,-493 252,-523 831,-523 831,-493 252,-493"/>
<text text-anchor="start" x="259" y="-504.4" font-family="Arial" font-size="14.00" fill="#000000">name </text>
<text text-anchor="start" x="297.899" y="-504.4" font-family="Arial" font-size="14.00" fill="#666666">[text]</text>
<text text-anchor="start" x="328.244" y="-504.4" font-family="Arial" font-size="14.00" fill="#000000"> 名前</text>
<polygon fill="none" stroke="#000000" points="252,-463 252,-493 831,-493 831,-463 252,-463"/>
<text text-anchor="start" x="259" y="-474.4" font-family="Arial" font-size="14.00" fill="#000000">name_reading </text>
<text text-anchor="start" x="352.3618" y="-474.4" font-family="Arial" font-size="14.00" fill="#666666">[text]</text>
<text text-anchor="start" x="382.7068" y="-474.4" font-family="Arial" font-size="14.00" fill="#000000"> 名前読み方</text>
<polygon fill="none" stroke="#000000" points="252,-433 252,-463 831,-463 831,-433 252,-433"/>
<text text-anchor="start" x="259" y="-444.4" font-family="Arial" font-size="14.00" fill="#000000">disc_number </text>
<text text-anchor="start" x="343.014" y="-444.4" font-family="Arial" font-size="14.00" fill="#666666">[integer]</text>
<text text-anchor="start" x="393.5834" y="-444.4" font-family="Arial" font-size="14.00" fill="#000000"> ディスク番号(default: 1)</text>
<polygon fill="none" stroke="#000000" points="252,-403 252,-433 831,-433 831,-403 252,-403"/>
<text text-anchor="start" x="259" y="-414.4" font-family="Arial" font-size="14.00" fill="#000000">track_number </text>
<text text-anchor="start" x="348.4586" y="-414.4" font-family="Arial" font-size="14.00" fill="#666666">[integer]</text>
<text text-anchor="start" x="399.028" y="-414.4" font-family="Arial" font-size="14.00" fill="#000000"> トラック番号</text>
<polygon fill="none" stroke="#000000" points="252,-373 252,-403 831,-403 831,-373 252,-373"/>
<text text-anchor="start" x="259" y="-384.4" font-family="Arial" font-size="14.00" fill="#000000">release_date </text>
<text text-anchor="start" x="343.8092" y="-384.4" font-family="Arial" font-size="14.00" fill="#666666">[date]</text>
<text text-anchor="start" x="378.8288" y="-384.4" font-family="Arial" font-size="14.00" fill="#000000"> 頒布日(アルバムの頒布日と異なる場合に使用する)</text>
<polygon fill="none" stroke="#000000" points="252,-343 252,-373 831,-373 831,-343 252,-343"/>
<text text-anchor="start" x="259" y="-354.4" font-family="Arial" font-size="14.00" fill="#000000">search_enabled </text>
<text text-anchor="start" x="362.4838" y="-354.4" font-family="Arial" font-size="14.00" fill="#666666">[boolean]</text>
<text text-anchor="start" x="420.0672" y="-354.4" font-family="Arial" font-size="14.00" fill="#000000"> 検索対象とするか(default: true)</text>
<polygon fill="none" stroke="#000000" points="252,-313 252,-343 831,-343 831,-313 252,-313"/>
<text text-anchor="start" x="259" y="-324.4" font-family="Arial" font-size="14.00" fill="#000000">length </text>
<text text-anchor="start" x="301.0182" y="-324.4" font-family="Arial" font-size="14.00" fill="#666666">[integer]</text>
<text text-anchor="start" x="351.5876" y="-324.4" font-family="Arial" font-size="14.00" fill="#000000"> 曲の長さ(秒)</text>
<polygon fill="none" stroke="#000000" points="252,-283 252,-313 831,-313 831,-283 252,-283"/>
<text text-anchor="start" x="259" y="-294.4" font-family="Arial" font-size="14.00" fill="#000000">bpm </text>
<text text-anchor="start" x="290.1164" y="-294.4" font-family="Arial" font-size="14.00" fill="#666666">[integer]</text>
<text text-anchor="start" x="340.6858" y="-294.4" font-family="Arial" font-size="14.00" fill="#000000"> BPM</text>
<polygon fill="none" stroke="#000000" points="252,-253 252,-283 831,-283 831,-253 252,-253"/>
<text text-anchor="start" x="259" y="-264.4" font-family="Arial" font-size="14.00" fill="#000000">display_composer </text>
<text text-anchor="start" x="375.6858" y="-264.4" font-family="Arial" font-size="14.00" fill="#666666">[text]</text>
<text text-anchor="start" x="406.0308" y="-264.4" font-family="Arial" font-size="14.00" fill="#000000"> 作曲者表示用(1度しか使用しない別名義などで使用する)</text>
<polygon fill="none" stroke="#000000" points="252,-223 252,-253 831,-253 831,-223 252,-223"/>
<text text-anchor="start" x="259" y="-234.4" font-family="Arial" font-size="14.00" fill="#000000">display_arranger </text>
<text text-anchor="start" x="367.129" y="-234.4" font-family="Arial" font-size="14.00" fill="#666666">[text]</text>
<text text-anchor="start" x="397.474" y="-234.4" font-family="Arial" font-size="14.00" fill="#000000"> 編曲者表示用(1度しか使用しない別名義などで使用する)</text>
<polygon fill="none" stroke="#000000" points="252,-193 252,-223 831,-223 831,-193 252,-193"/>
<text text-anchor="start" x="259" y="-204.4" font-family="Arial" font-size="14.00" fill="#000000">display_rearranger </text>
<text text-anchor="start" x="379.5722" y="-204.4" font-family="Arial" font-size="14.00" fill="#666666">[text]</text>
<text text-anchor="start" x="409.9172" y="-204.4" font-family="Arial" font-size="14.00" fill="#000000"> 再編曲者表示用(1度しか使用しない別名義などで使用する)</text>
<polygon fill="none" stroke="#000000" points="252,-163 252,-193 831,-193 831,-163 252,-163"/>
<text text-anchor="start" x="259" y="-174.4" font-family="Arial" font-size="14.00" fill="#000000">display_lyricist </text>
<text text-anchor="start" x="353.1052" y="-174.4" font-family="Arial" font-size="14.00" fill="#666666">[text]</text>
<text text-anchor="start" x="383.4502" y="-174.4" font-family="Arial" font-size="14.00" fill="#000000"> 作詞者表示用(1度しか使用しない別名義などで使用する)</text>
<polygon fill="none" stroke="#000000" points="252,-133 252,-163 831,-163 831,-133 252,-133"/>
<text text-anchor="start" x="258.9653" y="-144.4" font-family="Arial" font-size="14.00" fill="#000000">display_vocalist </text>
<text text-anchor="start" x="360.8685" y="-144.4" font-family="Arial" font-size="14.00" fill="#666666">[text]</text>
<text text-anchor="start" x="391.2135" y="-144.4" font-family="Arial" font-size="14.00" fill="#000000"> ボーカリスト表示用(1度しか使用しない別名義などで使用する)</text>
<polygon fill="none" stroke="#000000" points="252,-103 252,-133 831,-133 831,-103 252,-103"/>
<text text-anchor="start" x="259" y="-114.4" font-family="Arial" font-size="14.00" fill="#000000">display_original_song </text>
<text text-anchor="start" x="397.4754" y="-114.4" font-family="Arial" font-size="14.00" fill="#666666">[text]</text>
<text text-anchor="start" x="427.8204" y="-114.4" font-family="Arial" font-size="14.00" fill="#000000"> 原曲表示用(東方以外の原曲などで使用する)</text>
<polygon fill="none" stroke="#000000" points="252,-73 252,-103 831,-103 831,-73 252,-73"/>
<text text-anchor="start" x="259" y="-84.4" font-family="Arial" font-size="14.00" fill="#000000">created_at </text>
<text text-anchor="start" x="329.028" y="-84.4" font-family="Arial" font-size="14.00" fill="#666666">[timestamp with time zone]</text>
<text text-anchor="start" x="494.7124" y="-84.4" font-family="Arial" font-size="14.00" fill="#000000"> 作成日時</text>
<polygon fill="none" stroke="#000000" points="252,-43 252,-73 831,-73 831,-43 252,-43"/>
<text text-anchor="start" x="259" y="-54.4" font-family="Arial" font-size="14.00" fill="#000000">updated_at </text>
<text text-anchor="start" x="332.9326" y="-54.4" font-family="Arial" font-size="14.00" fill="#666666">[timestamp with time zone]</text>
<text text-anchor="start" x="498.617" y="-54.4" font-family="Arial" font-size="14.00" fill="#000000"> 更新日時</text>
</g>
<!-- public.track_isrcs&#45;&gt;public.tracks -->
<g id="edge1" class="edge">
<title>public.track_isrcs:track_id&#45;&gt;public.tracks:id</title>
<path fill="none" stroke="#000000" d="M231.0588,-856.4843C177.6509,-828.0422 190.8261,-568 252,-568"/>
<polygon fill="#000000" stroke="#000000" points="231.3056,-856.5467 239.896,-863.3625 236.1528,-857.7733 241,-859 241,-859 241,-859 236.1528,-857.7733 242.104,-854.6375 231.3056,-856.5467 231.3056,-856.5467"/>
<text text-anchor="start" x="7.1145" y="-869" font-family="Arial" font-size="10.00" fill="#000000">FOREIGN KEY (track_id) REFERENCES tracks(id)</text>
</g>
</g>
</svg>
