<?xml version="1.0" encoding="UTF-8" standalone="no"?>
<!DOCTYPE svg PUBLIC "-//W3C//DTD SVG 1.1//EN"
 "http://www.w3.org/Graphics/SVG/1.1/DTD/svg11.dtd">
<!-- Generated by graphviz version 2.40.1 (20161225.0304)
 -->
<!-- Title: public.albums_genres Pages: 1 -->
<svg width="954pt" height="914pt"
 viewBox="0.00 0.00 954.00 914.00" xmlns="http://www.w3.org/2000/svg" xmlns:xlink="http://www.w3.org/1999/xlink">
<g id="graph0" class="graph" transform="scale(1 1) rotate(0) translate(4 910)">
<title>public.albums_genres</title>
<polygon fill="#ffffff" stroke="transparent" points="-4,4 -4,-910 950,-910 950,4 -4,4"/>
<!-- public.albums_genres -->
<g id="node1" class="node">
<title>public.albums_genres</title>
<polygon fill="#efefef" stroke="transparent" points="252,-814 252,-860 720,-860 720,-814 252,-814"/>
<polygon fill="none" stroke="#000000" points="252,-814 252,-860 720,-860 720,-814 252,-814"/>
<text text-anchor="start" x="349.8544" y="-837.8" font-family="Arial Bold" font-size="18.00" fill="#000000">public.albums_genres</text>
<text text-anchor="start" x="524.8918" y="-837.8" font-family="Arial" font-size="14.00" fill="#000000"> </text>
<text text-anchor="start" x="528.7824" y="-837.8" font-family="Arial" font-size="14.00" fill="#666666">[BASE TABLE]</text>
<text text-anchor="start" x="424.8228" y="-823.4" font-family="Arial" font-size="14.00" fill="#333333">アルバムジャンル</text>
<polygon fill="none" stroke="#000000" points="252,-784 252,-814 720,-814 720,-784 252,-784"/>
<text text-anchor="start" x="259" y="-795.4" font-family="Arial" font-size="14.00" fill="#000000">album_id </text>
<text text-anchor="start" x="319.6774" y="-795.4" font-family="Arial" font-size="14.00" fill="#666666">[text]</text>
<text text-anchor="start" x="350.0224" y="-795.4" font-family="Arial" font-size="14.00" fill="#000000"> アルバムID</text>
<polygon fill="none" stroke="#000000" points="252,-754 252,-784 720,-784 720,-754 252,-754"/>
<text text-anchor="start" x="259" y="-765.4" font-family="Arial" font-size="14.00" fill="#000000">tag_id </text>
<text text-anchor="start" x="301.0182" y="-765.4" font-family="Arial" font-size="14.00" fill="#666666">[text]</text>
<text text-anchor="start" x="331.3632" y="-765.4" font-family="Arial" font-size="14.00" fill="#000000"> タグID</text>
<polygon fill="none" stroke="#000000" points="252,-724 252,-754 720,-754 720,-724 252,-724"/>
<text text-anchor="start" x="258.6274" y="-735.4" font-family="Arial" font-size="14.00" fill="#000000">locked </text>
<text text-anchor="start" x="302.9724" y="-735.4" font-family="Arial" font-size="14.00" fill="#666666">[boolean]</text>
<text text-anchor="start" x="360.5558" y="-735.4" font-family="Arial" font-size="14.00" fill="#000000"> ロック有無(true: ロック・削除不可、false: アンロック)</text>
<polygon fill="none" stroke="#000000" points="252,-694 252,-724 720,-724 720,-694 252,-694"/>
<text text-anchor="start" x="259" y="-705.4" font-family="Arial" font-size="14.00" fill="#000000">created_at </text>
<text text-anchor="start" x="329.028" y="-705.4" font-family="Arial" font-size="14.00" fill="#666666">[timestamp with time zone]</text>
<text text-anchor="start" x="494.7124" y="-705.4" font-family="Arial" font-size="14.00" fill="#000000"> 作成日時</text>
<polygon fill="none" stroke="#000000" points="252,-664 252,-694 720,-694 720,-664 252,-664"/>
<text text-anchor="start" x="259" y="-675.4" font-family="Arial" font-size="14.00" fill="#000000">updated_at </text>
<text text-anchor="start" x="332.9326" y="-675.4" font-family="Arial" font-size="14.00" fill="#666666">[timestamp with time zone]</text>
<text text-anchor="start" x="498.617" y="-675.4" font-family="Arial" font-size="14.00" fill="#000000"> 更新日時</text>
<polygon fill="none" stroke="#000000" stroke-width="3" points="250.5,-662.5 250.5,-861.5 721.5,-861.5 721.5,-662.5 250.5,-662.5"/>
</g>
<!-- public.albums -->
<g id="node2" class="node">
<title>public.albums</title>
<polygon fill="#efefef" stroke="transparent" points="120,-493 120,-539 434,-539 434,-493 120,-493"/>
<polygon fill="none" stroke="#000000" points="120,-493 120,-539 434,-539 434,-493 120,-493"/>
<text text-anchor="start" x="173.366" y="-516.8" font-family="Arial Bold" font-size="18.00" fill="#000000">public.albums</text>
<text text-anchor="start" x="283.3802" y="-516.8" font-family="Arial" font-size="14.00" fill="#000000"> </text>
<text text-anchor="start" x="287.2708" y="-516.8" font-family="Arial" font-size="14.00" fill="#666666">[BASE TABLE]</text>
<text text-anchor="start" x="247.1884" y="-502.4" font-family="Arial" font-size="14.00" fill="#333333">アルバム</text>
<polygon fill="none" stroke="#000000" points="120,-463 120,-493 434,-493 434,-463 120,-463"/>
<text text-anchor="start" x="127" y="-474.4" font-family="Arial" font-size="14.00" fill="#000000">id </text>
<text text-anchor="start" x="141.7798" y="-474.4" font-family="Arial" font-size="14.00" fill="#666666">[text]</text>
<polygon fill="none" stroke="#000000" points="120,-433 120,-463 434,-463 434,-433 120,-433"/>
<text text-anchor="start" x="127" y="-444.4" font-family="Arial" font-size="14.00" fill="#000000">name </text>
<text text-anchor="start" x="165.899" y="-444.4" font-family="Arial" font-size="14.00" fill="#666666">[text]</text>
<text text-anchor="start" x="196.244" y="-444.4" font-family="Arial" font-size="14.00" fill="#000000"> 名前</text>
<polygon fill="none" stroke="#000000" points="120,-403 120,-433 434,-433 434,-403 120,-403"/>
<text text-anchor="start" x="127" y="-414.4" font-family="Arial" font-size="14.00" fill="#000000">release_circle_name </text>
<text text-anchor="start" x="260.0182" y="-414.4" font-family="Arial" font-size="14.00" fill="#666666">[text]</text>
<text text-anchor="start" x="290.3632" y="-414.4" font-family="Arial" font-size="14.00" fill="#000000"> 頒布サークル名</text>
<polygon fill="none" stroke="#000000" points="120,-373 120,-403 434,-403 434,-373 120,-373"/>
<text text-anchor="start" x="127" y="-384.4" font-family="Arial" font-size="14.00" fill="#000000">release_date </text>
<text text-anchor="start" x="211.8092" y="-384.4" font-family="Arial" font-size="14.00" fill="#666666">[date]</text>
<text text-anchor="start" x="246.8288" y="-384.4" font-family="Arial" font-size="14.00" fill="#000000"> 頒布日</text>
<polygon fill="none" stroke="#000000" points="120,-343 120,-373 434,-373 434,-343 120,-343"/>
<text text-anchor="start" x="127" y="-354.4" font-family="Arial" font-size="14.00" fill="#000000">event_id </text>
<text text-anchor="start" x="183.8008" y="-354.4" font-family="Arial" font-size="14.00" fill="#666666">[text]</text>
<text text-anchor="start" x="214.1458" y="-354.4" font-family="Arial" font-size="14.00" fill="#000000"> イベントID</text>
<polygon fill="none" stroke="#000000" points="120,-313 120,-343 434,-343 434,-313 120,-313"/>
<text text-anchor="start" x="127" y="-324.4" font-family="Arial" font-size="14.00" fill="#000000">sub_event_id </text>
<text text-anchor="start" x="214.1486" y="-324.4" font-family="Arial" font-size="14.00" fill="#666666">[text]</text>
<text text-anchor="start" x="244.4936" y="-324.4" font-family="Arial" font-size="14.00" fill="#000000"> サブイベントID</text>
<polygon fill="none" stroke="#000000" points="120,-283 120,-313 434,-313 434,-283 120,-283"/>
<text text-anchor="start" x="127" y="-294.4" font-family="Arial" font-size="14.00" fill="#000000">search_enabled </text>
<text text-anchor="start" x="230.4838" y="-294.4" font-family="Arial" font-size="14.00" fill="#666666">[boolean]</text>
<text text-anchor="start" x="288.0672" y="-294.4" font-family="Arial" font-size="14.00" fill="#000000"> 検索対象とするか</text>
<polygon fill="none" stroke="#000000" points="120,-253 120,-283 434,-283 434,-253 120,-253"/>
<text text-anchor="start" x="127" y="-264.4" font-family="Arial" font-size="14.00" fill="#000000">album_number </text>
<text text-anchor="start" x="224.2398" y="-264.4" font-family="Arial" font-size="14.00" fill="#666666">[text]</text>
<polygon fill="none" stroke="#000000" points="120,-223 120,-253 434,-253 434,-223 120,-223"/>
<text text-anchor="start" x="127" y="-234.4" font-family="Arial" font-size="14.00" fill="#000000">event_price </text>
<text text-anchor="start" x="203.244" y="-234.4" font-family="Arial" font-size="14.00" fill="#666666">[numeric]</text>
<text text-anchor="start" x="260.8008" y="-234.4" font-family="Arial" font-size="14.00" fill="#000000"> イベント価格</text>
<polygon fill="none" stroke="#000000" points="120,-193 120,-223 434,-223 434,-193 120,-193"/>
<text text-anchor="start" x="127" y="-204.4" font-family="Arial" font-size="14.00" fill="#000000">currency </text>
<text text-anchor="start" x="184.5596" y="-204.4" font-family="Arial" font-size="14.00" fill="#666666">[text]</text>
<text text-anchor="start" x="214.9046" y="-204.4" font-family="Arial" font-size="14.00" fill="#000000"> 通貨(default: JPY)</text>
<polygon fill="none" stroke="#000000" points="120,-163 120,-193 434,-193 434,-163 120,-163"/>
<text text-anchor="start" x="127" y="-174.4" font-family="Arial" font-size="14.00" fill="#000000">credit </text>
<text text-anchor="start" x="165.1136" y="-174.4" font-family="Arial" font-size="14.00" fill="#666666">[text]</text>
<text text-anchor="start" x="195.4586" y="-174.4" font-family="Arial" font-size="14.00" fill="#000000"> クレジット</text>
<polygon fill="none" stroke="#000000" points="120,-133 120,-163 434,-163 434,-133 120,-133"/>
<text text-anchor="start" x="127" y="-144.4" font-family="Arial" font-size="14.00" fill="#000000">introduction </text>
<text text-anchor="start" x="203.2412" y="-144.4" font-family="Arial" font-size="14.00" fill="#666666">[text]</text>
<text text-anchor="start" x="233.5862" y="-144.4" font-family="Arial" font-size="14.00" fill="#000000"> 紹介</text>
<polygon fill="none" stroke="#000000" points="120,-103 120,-133 434,-133 434,-103 120,-103"/>
<text text-anchor="start" x="127" y="-114.4" font-family="Arial" font-size="14.00" fill="#000000">url </text>
<text text-anchor="start" x="146.4404" y="-114.4" font-family="Arial" font-size="14.00" fill="#666666">[text]</text>
<text text-anchor="start" x="176.7854" y="-114.4" font-family="Arial" font-size="14.00" fill="#000000"> URL</text>
<polygon fill="none" stroke="#000000" points="120,-73 120,-103 434,-103 434,-73 120,-73"/>
<text text-anchor="start" x="126.8542" y="-84.4" font-family="Arial" font-size="14.00" fill="#000000">created_at </text>
<text text-anchor="start" x="196.8822" y="-84.4" font-family="Arial" font-size="14.00" fill="#666666">[timestamp with time zone]</text>
<text text-anchor="start" x="362.5666" y="-84.4" font-family="Arial" font-size="14.00" fill="#000000"> 作成日時</text>
<polygon fill="none" stroke="#000000" points="120,-43 120,-73 434,-73 434,-43 120,-43"/>
<text text-anchor="start" x="127" y="-54.4" font-family="Arial" font-size="14.00" fill="#000000">updated_at </text>
<text text-anchor="start" x="200.9326" y="-54.4" font-family="Arial" font-size="14.00" fill="#666666">[timestamp with time zone]</text>
<text text-anchor="start" x="366.617" y="-54.4" font-family="Arial" font-size="14.00" fill="#000000"> 更新日時</text>
</g>
<!-- public.albums_genres&#45;&gt;public.albums -->
<g id="edge1" class="edge">
<title>public.albums_genres:album_id&#45;&gt;public.albums:id</title>
<path fill="none" stroke="#000000" d="M241.8157,-798.2964C174.2387,-788.4371 203.2274,-677.3649 252,-618 304.3436,-554.2885 381.6564,-645.7115 434,-582 463.3421,-546.2854 480.2222,-478 434,-478"/>
<polygon fill="#000000" stroke="#000000" points="242.0238,-798.3107 251.6898,-803.4893 247.0119,-798.6554 252,-799 252,-799 252,-799 247.0119,-798.6554 252.3102,-794.5107 242.0238,-798.3107 242.0238,-798.3107"/>
<text text-anchor="start" x="6.5565" y="-809" font-family="Arial" font-size="10.00" fill="#000000">FOREIGN KEY (album_id) REFERENCES albums(id)</text>
</g>
<!-- public.tags -->
<g id="node3" class="node">
<title>public.tags</title>
<polygon fill="#efefef" stroke="transparent" points="538,-343 538,-389 852,-389 852,-343 538,-343"/>
<polygon fill="none" stroke="#000000" points="538,-343 538,-389 852,-389 852,-343 538,-343"/>
<text text-anchor="start" x="603.3612" y="-366.8" font-family="Arial Bold" font-size="18.00" fill="#000000">public.tags</text>
<text text-anchor="start" x="689.385" y="-366.8" font-family="Arial" font-size="14.00" fill="#000000"> </text>
<text text-anchor="start" x="693.2756" y="-366.8" font-family="Arial" font-size="14.00" fill="#666666">[BASE TABLE]</text>
<text text-anchor="start" x="679.7092" y="-352.4" font-family="Arial" font-size="14.00" fill="#333333">タグ</text>
<polygon fill="none" stroke="#000000" points="538,-313 538,-343 852,-343 852,-313 538,-313"/>
<text text-anchor="start" x="545" y="-324.4" font-family="Arial" font-size="14.00" fill="#000000">id </text>
<text text-anchor="start" x="559.7798" y="-324.4" font-family="Arial" font-size="14.00" fill="#666666">[text]</text>
<polygon fill="none" stroke="#000000" points="538,-283 538,-313 852,-313 852,-283 538,-283"/>
<text text-anchor="start" x="545" y="-294.4" font-family="Arial" font-size="14.00" fill="#000000">name </text>
<text text-anchor="start" x="583.899" y="-294.4" font-family="Arial" font-size="14.00" fill="#666666">[text]</text>
<text text-anchor="start" x="614.244" y="-294.4" font-family="Arial" font-size="14.00" fill="#000000"> 名前</text>
<polygon fill="none" stroke="#000000" points="538,-253 538,-283 852,-283 852,-253 538,-253"/>
<text text-anchor="start" x="545" y="-264.4" font-family="Arial" font-size="14.00" fill="#000000">tag_type </text>
<text text-anchor="start" x="602.5848" y="-264.4" font-family="Arial" font-size="14.00" fill="#666666">[tag_type]</text>
<text text-anchor="start" x="664.0602" y="-264.4" font-family="Arial" font-size="14.00" fill="#000000"> タグ種別</text>
<polygon fill="none" stroke="#000000" points="538,-223 538,-253 852,-253 852,-223 538,-223"/>
<text text-anchor="start" x="544.8542" y="-234.4" font-family="Arial" font-size="14.00" fill="#000000">created_at </text>
<text text-anchor="start" x="614.8822" y="-234.4" font-family="Arial" font-size="14.00" fill="#666666">[timestamp with time zone]</text>
<text text-anchor="start" x="780.5666" y="-234.4" font-family="Arial" font-size="14.00" fill="#000000"> 作成日時</text>
<polygon fill="none" stroke="#000000" points="538,-193 538,-223 852,-223 852,-193 538,-193"/>
<text text-anchor="start" x="545" y="-204.4" font-family="Arial" font-size="14.00" fill="#000000">updated_at </text>
<text text-anchor="start" x="618.9326" y="-204.4" font-family="Arial" font-size="14.00" fill="#666666">[timestamp with time zone]</text>
<text text-anchor="start" x="784.617" y="-204.4" font-family="Arial" font-size="14.00" fill="#000000"> 更新日時</text>
</g>
<!-- public.albums_genres&#45;&gt;public.tags -->
<g id="edge2" class="edge">
<title>public.albums_genres:tag_id&#45;&gt;public.tags:id</title>
<path fill="none" stroke="#000000" d="M730.054,-768.2216C782.5921,-759.361 743.9589,-676.7429 720,-618 676.3209,-510.9069 581.6791,-539.0931 538,-432 520.5439,-389.2007 491.7778,-328 538,-328"/>
<polygon fill="#000000" stroke="#000000" points="729.9702,-768.228 719.6526,-764.5134 724.9851,-768.614 720,-769 720,-769 720,-769 724.9851,-768.614 720.3474,-773.4866 729.9702,-768.228 729.9702,-768.228"/>
<text text-anchor="start" x="726.8845" y="-779" font-family="Arial" font-size="10.00" fill="#000000">FOREIGN KEY (tag_id) REFERENCES tags(id)</text>
</g>
</g>
</svg>
