<?xml version="1.0" encoding="UTF-8" standalone="no"?>
<!DOCTYPE svg PUBLIC "-//W3C//DTD SVG 1.1//EN"
 "http://www.w3.org/Graphics/SVG/1.1/DTD/svg11.dtd">
<!-- Generated by graphviz version 2.40.1 (20161225.0304)
 -->
<!-- Title: public.album_distribution_service_urls Pages: 1 -->
<svg width="722pt" height="764pt"
 viewBox="0.00 0.00 721.50 764.00" xmlns="http://www.w3.org/2000/svg" xmlns:xlink="http://www.w3.org/1999/xlink">
<g id="graph0" class="graph" transform="scale(1 1) rotate(0) translate(4 760)">
<title>public.album_distribution_service_urls</title>
<polygon fill="#ffffff" stroke="transparent" points="-4,4 -4,-760 717.5,-760 717.5,4 -4,4"/>
<!-- public.album_distribution_service_urls -->
<g id="node1" class="node">
<title>public.album_distribution_service_urls</title>
<polygon fill="#efefef" stroke="transparent" points="46.5,-664 46.5,-710 461.5,-710 461.5,-664 46.5,-664"/>
<polygon fill="none" stroke="#000000" points="46.5,-664 46.5,-710 461.5,-710 461.5,-664 46.5,-664"/>
<text text-anchor="start" x="53.3559" y="-687.8" font-family="Arial Bold" font-size="18.00" fill="#000000">public.album_distribution_service_urls</text>
<text text-anchor="start" x="357.3903" y="-687.8" font-family="Arial" font-size="14.00" fill="#000000"> </text>
<text text-anchor="start" x="361.2809" y="-687.8" font-family="Arial" font-size="14.00" fill="#666666">[BASE TABLE]</text>
<text text-anchor="start" x="160.9434" y="-673.4" font-family="Arial" font-size="14.00" fill="#333333">アルバム配信サービスURL</text>
<polygon fill="none" stroke="#000000" points="46.5,-634 46.5,-664 461.5,-664 461.5,-634 46.5,-634"/>
<text text-anchor="start" x="53.5" y="-645.4" font-family="Arial" font-size="14.00" fill="#000000">id </text>
<text text-anchor="start" x="68.2798" y="-645.4" font-family="Arial" font-size="14.00" fill="#666666">[text]</text>
<polygon fill="none" stroke="#000000" points="46.5,-604 46.5,-634 461.5,-634 461.5,-604 46.5,-604"/>
<text text-anchor="start" x="53.5" y="-615.4" font-family="Arial" font-size="14.00" fill="#000000">album_id </text>
<text text-anchor="start" x="114.1774" y="-615.4" font-family="Arial" font-size="14.00" fill="#666666">[text]</text>
<text text-anchor="start" x="144.5224" y="-615.4" font-family="Arial" font-size="14.00" fill="#000000"> アルバムID</text>
<polygon fill="none" stroke="#000000" points="46.5,-574 46.5,-604 461.5,-604 461.5,-574 46.5,-574"/>
<text text-anchor="start" x="53.5" y="-585.4" font-family="Arial" font-size="14.00" fill="#000000">service </text>
<text text-anchor="start" x="101.723" y="-585.4" font-family="Arial" font-size="14.00" fill="#666666">[distribution_service]</text>
<text text-anchor="start" x="229.2938" y="-585.4" font-family="Arial" font-size="14.00" fill="#000000"> 配信サービス</text>
<polygon fill="none" stroke="#000000" points="46.5,-544 46.5,-574 461.5,-574 461.5,-544 46.5,-544"/>
<text text-anchor="start" x="53.5" y="-555.4" font-family="Arial" font-size="14.00" fill="#000000">url </text>
<text text-anchor="start" x="72.9404" y="-555.4" font-family="Arial" font-size="14.00" fill="#666666">[text]</text>
<text text-anchor="start" x="103.2854" y="-555.4" font-family="Arial" font-size="14.00" fill="#000000"> URL</text>
<polygon fill="none" stroke="#000000" points="46.5,-514 46.5,-544 461.5,-544 461.5,-514 46.5,-514"/>
<text text-anchor="start" x="53.5" y="-525.4" font-family="Arial" font-size="14.00" fill="#000000">created_at </text>
<text text-anchor="start" x="123.528" y="-525.4" font-family="Arial" font-size="14.00" fill="#666666">[timestamp with time zone]</text>
<text text-anchor="start" x="289.2124" y="-525.4" font-family="Arial" font-size="14.00" fill="#000000"> 作成日時</text>
<polygon fill="none" stroke="#000000" points="46.5,-484 46.5,-514 461.5,-514 461.5,-484 46.5,-484"/>
<text text-anchor="start" x="53.5" y="-495.4" font-family="Arial" font-size="14.00" fill="#000000">updated_at </text>
<text text-anchor="start" x="127.4326" y="-495.4" font-family="Arial" font-size="14.00" fill="#666666">[timestamp with time zone]</text>
<text text-anchor="start" x="293.117" y="-495.4" font-family="Arial" font-size="14.00" fill="#000000"> 更新日時</text>
<polygon fill="none" stroke="#000000" stroke-width="3" points="44.5,-482.5 44.5,-711.5 462.5,-711.5 462.5,-482.5 44.5,-482.5"/>
</g>
<!-- public.albums -->
<g id="node2" class="node">
<title>public.albums</title>
<polygon fill="#efefef" stroke="transparent" points="97.5,-313 97.5,-359 411.5,-359 411.5,-313 97.5,-313"/>
<polygon fill="none" stroke="#000000" points="97.5,-313 97.5,-359 411.5,-359 411.5,-313 97.5,-313"/>
<text text-anchor="start" x="150.866" y="-336.8" font-family="Arial Bold" font-size="18.00" fill="#000000">public.albums</text>
<text text-anchor="start" x="260.8802" y="-336.8" font-family="Arial" font-size="14.00" fill="#000000"> </text>
<text text-anchor="start" x="264.7708" y="-336.8" font-family="Arial" font-size="14.00" fill="#666666">[BASE TABLE]</text>
<text text-anchor="start" x="224.6884" y="-322.4" font-family="Arial" font-size="14.00" fill="#333333">アルバム</text>
<polygon fill="none" stroke="#000000" points="97.5,-283 97.5,-313 411.5,-313 411.5,-283 97.5,-283"/>
<text text-anchor="start" x="104.5" y="-294.4" font-family="Arial" font-size="14.00" fill="#000000">id </text>
<text text-anchor="start" x="119.2798" y="-294.4" font-family="Arial" font-size="14.00" fill="#666666">[text]</text>
<polygon fill="none" stroke="#000000" points="97.5,-253 97.5,-283 411.5,-283 411.5,-253 97.5,-253"/>
<text text-anchor="start" x="104.5" y="-264.4" font-family="Arial" font-size="14.00" fill="#000000">name </text>
<text text-anchor="start" x="143.399" y="-264.4" font-family="Arial" font-size="14.00" fill="#666666">[text]</text>
<text text-anchor="start" x="173.744" y="-264.4" font-family="Arial" font-size="14.00" fill="#000000"> 名前</text>
<polygon fill="none" stroke="#000000" points="97.5,-223 97.5,-253 411.5,-253 411.5,-223 97.5,-223"/>
<text text-anchor="start" x="104.5" y="-234.4" font-family="Arial" font-size="14.00" fill="#000000">release_circle_name </text>
<text text-anchor="start" x="237.5182" y="-234.4" font-family="Arial" font-size="14.00" fill="#666666">[text]</text>
<text text-anchor="start" x="267.8632" y="-234.4" font-family="Arial" font-size="14.00" fill="#000000"> 頒布サークル名</text>
<polygon fill="none" stroke="#000000" points="97.5,-193 97.5,-223 411.5,-223 411.5,-193 97.5,-193"/>
<text text-anchor="start" x="104.5" y="-204.4" font-family="Arial" font-size="14.00" fill="#000000">release_date </text>
<text text-anchor="start" x="189.3092" y="-204.4" font-family="Arial" font-size="14.00" fill="#666666">[date]</text>
<text text-anchor="start" x="224.3288" y="-204.4" font-family="Arial" font-size="14.00" fill="#000000"> 頒布日</text>
<polygon fill="none" stroke="#000000" points="97.5,-163 97.5,-193 411.5,-193 411.5,-163 97.5,-163"/>
<text text-anchor="start" x="104.5" y="-174.4" font-family="Arial" font-size="14.00" fill="#000000">event_id </text>
<text text-anchor="start" x="161.3008" y="-174.4" font-family="Arial" font-size="14.00" fill="#666666">[text]</text>
<text text-anchor="start" x="191.6458" y="-174.4" font-family="Arial" font-size="14.00" fill="#000000"> イベントID</text>
<polygon fill="none" stroke="#000000" points="97.5,-133 97.5,-163 411.5,-163 411.5,-133 97.5,-133"/>
<text text-anchor="start" x="104.5" y="-144.4" font-family="Arial" font-size="14.00" fill="#000000">sub_event_id </text>
<text text-anchor="start" x="191.6486" y="-144.4" font-family="Arial" font-size="14.00" fill="#666666">[text]</text>
<text text-anchor="start" x="221.9936" y="-144.4" font-family="Arial" font-size="14.00" fill="#000000"> サブイベントID</text>
<polygon fill="none" stroke="#000000" points="97.5,-103 97.5,-133 411.5,-133 411.5,-103 97.5,-103"/>
<text text-anchor="start" x="104.5" y="-114.4" font-family="Arial" font-size="14.00" fill="#000000">search_enabled </text>
<text text-anchor="start" x="207.9838" y="-114.4" font-family="Arial" font-size="14.00" fill="#666666">[boolean]</text>
<text text-anchor="start" x="265.5672" y="-114.4" font-family="Arial" font-size="14.00" fill="#000000"> 検索対象とするか</text>
<polygon fill="none" stroke="#000000" points="97.5,-73 97.5,-103 411.5,-103 411.5,-73 97.5,-73"/>
<text text-anchor="start" x="104.3542" y="-84.4" font-family="Arial" font-size="14.00" fill="#000000">created_at </text>
<text text-anchor="start" x="174.3822" y="-84.4" font-family="Arial" font-size="14.00" fill="#666666">[timestamp with time zone]</text>
<text text-anchor="start" x="340.0666" y="-84.4" font-family="Arial" font-size="14.00" fill="#000000"> 作成日時</text>
<polygon fill="none" stroke="#000000" points="97.5,-43 97.5,-73 411.5,-73 411.5,-43 97.5,-43"/>
<text text-anchor="start" x="104.5" y="-54.4" font-family="Arial" font-size="14.00" fill="#000000">updated_at </text>
<text text-anchor="start" x="178.4326" y="-54.4" font-family="Arial" font-size="14.00" fill="#666666">[timestamp with time zone]</text>
<text text-anchor="start" x="344.117" y="-54.4" font-family="Arial" font-size="14.00" fill="#000000"> 更新日時</text>
</g>
<!-- public.album_distribution_service_urls&#45;&gt;public.albums -->
<g id="edge1" class="edge">
<title>public.album_distribution_service_urls:album_id&#45;&gt;public.albums:id</title>
<path fill="none" stroke="#000000" d="M471.7013,-618.2818C539.5139,-608.2191 513.0848,-494.9383 461.5,-438 406.9255,-377.7618 152.0745,-462.2382 97.5,-402 66.466,-367.7453 51.2778,-298 97.5,-298"/>
<polygon fill="#000000" stroke="#000000" points="471.4753,-618.2976 461.1839,-614.5111 466.4877,-618.6488 461.5,-619 461.5,-619 461.5,-619 466.4877,-618.6488 461.8161,-623.4889 471.4753,-618.2976 471.4753,-618.2976"/>
<text text-anchor="start" x="468.0565" y="-629" font-family="Arial" font-size="10.00" fill="#000000">FOREIGN KEY (album_id) REFERENCES albums(id)</text>
</g>
</g>
</svg>
