<?xml version="1.0" encoding="UTF-8" standalone="no"?>
<!DOCTYPE svg PUBLIC "-//W3C//DTD SVG 1.1//EN"
 "http://www.w3.org/Graphics/SVG/1.1/DTD/svg11.dtd">
<!-- Generated by graphviz version 2.40.1 (20161225.0304)
 -->
<!-- Title: public.albums_tags Pages: 1 -->
<svg width="883pt" height="734pt"
 viewBox="0.00 0.00 883.00 734.00" xmlns="http://www.w3.org/2000/svg" xmlns:xlink="http://www.w3.org/1999/xlink">
<g id="graph0" class="graph" transform="scale(1 1) rotate(0) translate(4 730)">
<title>public.albums_tags</title>
<polygon fill="#ffffff" stroke="transparent" points="-4,4 -4,-730 879,-730 879,4 -4,4"/>
<!-- public.albums_tags -->
<g id="node1" class="node">
<title>public.albums_tags</title>
<polygon fill="#efefef" stroke="transparent" points="252,-634 252,-680 649,-680 649,-634 252,-634"/>
<polygon fill="none" stroke="#000000" points="252,-634 252,-680 649,-680 649,-634 252,-634"/>
<text text-anchor="start" x="324.8556" y="-657.8" font-family="Arial Bold" font-size="18.00" fill="#000000">public.albums_tags</text>
<text text-anchor="start" x="478.8906" y="-657.8" font-family="Arial" font-size="14.00" fill="#000000"> </text>
<text text-anchor="start" x="482.7812" y="-657.8" font-family="Arial" font-size="14.00" fill="#666666">[BASE TABLE]</text>
<text text-anchor="start" x="405.3976" y="-643.4" font-family="Arial" font-size="14.00" fill="#333333">アルバムタグ</text>
<polygon fill="none" stroke="#000000" points="252,-604 252,-634 649,-634 649,-604 252,-604"/>
<text text-anchor="start" x="259" y="-615.4" font-family="Arial" font-size="14.00" fill="#000000">album_id </text>
<text text-anchor="start" x="319.6774" y="-615.4" font-family="Arial" font-size="14.00" fill="#666666">[text]</text>
<text text-anchor="start" x="350.0224" y="-615.4" font-family="Arial" font-size="14.00" fill="#000000"> アルバムID</text>
<polygon fill="none" stroke="#000000" points="252,-574 252,-604 649,-604 649,-574 252,-574"/>
<text text-anchor="start" x="259" y="-585.4" font-family="Arial" font-size="14.00" fill="#000000">tag_id </text>
<text text-anchor="start" x="301.0182" y="-585.4" font-family="Arial" font-size="14.00" fill="#666666">[text]</text>
<text text-anchor="start" x="331.3632" y="-585.4" font-family="Arial" font-size="14.00" fill="#000000"> タグID</text>
<polygon fill="none" stroke="#000000" points="252,-544 252,-574 649,-574 649,-544 252,-544"/>
<text text-anchor="start" x="258.7826" y="-555.4" font-family="Arial" font-size="14.00" fill="#000000">locked </text>
<text text-anchor="start" x="303.1276" y="-555.4" font-family="Arial" font-size="14.00" fill="#666666">[boolean]</text>
<text text-anchor="start" x="360.711" y="-555.4" font-family="Arial" font-size="14.00" fill="#000000"> ロック有無(true: ロック、false: アンロック)</text>
<polygon fill="none" stroke="#000000" points="252,-514 252,-544 649,-544 649,-514 252,-514"/>
<text text-anchor="start" x="259" y="-525.4" font-family="Arial" font-size="14.00" fill="#000000">created_at </text>
<text text-anchor="start" x="329.028" y="-525.4" font-family="Arial" font-size="14.00" fill="#666666">[timestamp with time zone]</text>
<text text-anchor="start" x="494.7124" y="-525.4" font-family="Arial" font-size="14.00" fill="#000000"> 作成日時</text>
<polygon fill="none" stroke="#000000" points="252,-484 252,-514 649,-514 649,-484 252,-484"/>
<text text-anchor="start" x="259" y="-495.4" font-family="Arial" font-size="14.00" fill="#000000">updated_at </text>
<text text-anchor="start" x="332.9326" y="-495.4" font-family="Arial" font-size="14.00" fill="#666666">[timestamp with time zone]</text>
<text text-anchor="start" x="498.617" y="-495.4" font-family="Arial" font-size="14.00" fill="#000000"> 更新日時</text>
<polygon fill="none" stroke="#000000" stroke-width="3" points="250,-482.5 250,-681.5 650,-681.5 650,-482.5 250,-482.5"/>
</g>
<!-- public.albums -->
<g id="node2" class="node">
<title>public.albums</title>
<polygon fill="#efefef" stroke="transparent" points="85,-313 85,-359 399,-359 399,-313 85,-313"/>
<polygon fill="none" stroke="#000000" points="85,-313 85,-359 399,-359 399,-313 85,-313"/>
<text text-anchor="start" x="138.366" y="-336.8" font-family="Arial Bold" font-size="18.00" fill="#000000">public.albums</text>
<text text-anchor="start" x="248.3802" y="-336.8" font-family="Arial" font-size="14.00" fill="#000000"> </text>
<text text-anchor="start" x="252.2708" y="-336.8" font-family="Arial" font-size="14.00" fill="#666666">[BASE TABLE]</text>
<text text-anchor="start" x="212.1884" y="-322.4" font-family="Arial" font-size="14.00" fill="#333333">アルバム</text>
<polygon fill="none" stroke="#000000" points="85,-283 85,-313 399,-313 399,-283 85,-283"/>
<text text-anchor="start" x="92" y="-294.4" font-family="Arial" font-size="14.00" fill="#000000">id </text>
<text text-anchor="start" x="106.7798" y="-294.4" font-family="Arial" font-size="14.00" fill="#666666">[text]</text>
<polygon fill="none" stroke="#000000" points="85,-253 85,-283 399,-283 399,-253 85,-253"/>
<text text-anchor="start" x="92" y="-264.4" font-family="Arial" font-size="14.00" fill="#000000">name </text>
<text text-anchor="start" x="130.899" y="-264.4" font-family="Arial" font-size="14.00" fill="#666666">[text]</text>
<text text-anchor="start" x="161.244" y="-264.4" font-family="Arial" font-size="14.00" fill="#000000"> 名前</text>
<polygon fill="none" stroke="#000000" points="85,-223 85,-253 399,-253 399,-223 85,-223"/>
<text text-anchor="start" x="92" y="-234.4" font-family="Arial" font-size="14.00" fill="#000000">release_circle_name </text>
<text text-anchor="start" x="225.0182" y="-234.4" font-family="Arial" font-size="14.00" fill="#666666">[text]</text>
<text text-anchor="start" x="255.3632" y="-234.4" font-family="Arial" font-size="14.00" fill="#000000"> 頒布サークル名</text>
<polygon fill="none" stroke="#000000" points="85,-193 85,-223 399,-223 399,-193 85,-193"/>
<text text-anchor="start" x="92" y="-204.4" font-family="Arial" font-size="14.00" fill="#000000">release_date </text>
<text text-anchor="start" x="176.8092" y="-204.4" font-family="Arial" font-size="14.00" fill="#666666">[date]</text>
<text text-anchor="start" x="211.8288" y="-204.4" font-family="Arial" font-size="14.00" fill="#000000"> 頒布日</text>
<polygon fill="none" stroke="#000000" points="85,-163 85,-193 399,-193 399,-163 85,-163"/>
<text text-anchor="start" x="92" y="-174.4" font-family="Arial" font-size="14.00" fill="#000000">event_id </text>
<text text-anchor="start" x="148.8008" y="-174.4" font-family="Arial" font-size="14.00" fill="#666666">[text]</text>
<text text-anchor="start" x="179.1458" y="-174.4" font-family="Arial" font-size="14.00" fill="#000000"> イベントID</text>
<polygon fill="none" stroke="#000000" points="85,-133 85,-163 399,-163 399,-133 85,-133"/>
<text text-anchor="start" x="92" y="-144.4" font-family="Arial" font-size="14.00" fill="#000000">sub_event_id </text>
<text text-anchor="start" x="179.1486" y="-144.4" font-family="Arial" font-size="14.00" fill="#666666">[text]</text>
<text text-anchor="start" x="209.4936" y="-144.4" font-family="Arial" font-size="14.00" fill="#000000"> サブイベントID</text>
<polygon fill="none" stroke="#000000" points="85,-103 85,-133 399,-133 399,-103 85,-103"/>
<text text-anchor="start" x="92" y="-114.4" font-family="Arial" font-size="14.00" fill="#000000">search_enabled </text>
<text text-anchor="start" x="195.4838" y="-114.4" font-family="Arial" font-size="14.00" fill="#666666">[boolean]</text>
<text text-anchor="start" x="253.0672" y="-114.4" font-family="Arial" font-size="14.00" fill="#000000"> 検索対象とするか</text>
<polygon fill="none" stroke="#000000" points="85,-73 85,-103 399,-103 399,-73 85,-73"/>
<text text-anchor="start" x="91.8542" y="-84.4" font-family="Arial" font-size="14.00" fill="#000000">created_at </text>
<text text-anchor="start" x="161.8822" y="-84.4" font-family="Arial" font-size="14.00" fill="#666666">[timestamp with time zone]</text>
<text text-anchor="start" x="327.5666" y="-84.4" font-family="Arial" font-size="14.00" fill="#000000"> 作成日時</text>
<polygon fill="none" stroke="#000000" points="85,-43 85,-73 399,-73 399,-43 85,-43"/>
<text text-anchor="start" x="92" y="-54.4" font-family="Arial" font-size="14.00" fill="#000000">updated_at </text>
<text text-anchor="start" x="165.9326" y="-54.4" font-family="Arial" font-size="14.00" fill="#666666">[timestamp with time zone]</text>
<text text-anchor="start" x="331.617" y="-54.4" font-family="Arial" font-size="14.00" fill="#000000"> 更新日時</text>
</g>
<!-- public.albums_tags&#45;&gt;public.albums -->
<g id="edge1" class="edge">
<title>public.albums_tags:album_id&#45;&gt;public.albums:id</title>
<path fill="none" stroke="#000000" d="M241.8239,-618.303C174.3595,-608.5341 204.572,-498.4446 252,-438 293.5224,-385.0818 357.4776,-454.9182 399,-402 427.5332,-365.6359 445.2222,-298 399,-298"/>
<polygon fill="#000000" stroke="#000000" points="242.0234,-618.3166 251.6925,-623.4895 247.0117,-618.6583 252,-619 252,-619 252,-619 247.0117,-618.6583 252.3075,-614.5105 242.0234,-618.3166 242.0234,-618.3166"/>
<text text-anchor="start" x="6.5565" y="-629" font-family="Arial" font-size="10.00" fill="#000000">FOREIGN KEY (album_id) REFERENCES albums(id)</text>
</g>
<!-- public.tags -->
<g id="node3" class="node">
<title>public.tags</title>
<polygon fill="#efefef" stroke="transparent" points="503,-253 503,-299 817,-299 817,-253 503,-253"/>
<polygon fill="none" stroke="#000000" points="503,-253 503,-299 817,-299 817,-253 503,-253"/>
<text text-anchor="start" x="568.3612" y="-276.8" font-family="Arial Bold" font-size="18.00" fill="#000000">public.tags</text>
<text text-anchor="start" x="654.385" y="-276.8" font-family="Arial" font-size="14.00" fill="#000000"> </text>
<text text-anchor="start" x="658.2756" y="-276.8" font-family="Arial" font-size="14.00" fill="#666666">[BASE TABLE]</text>
<text text-anchor="start" x="644.7092" y="-262.4" font-family="Arial" font-size="14.00" fill="#333333">タグ</text>
<polygon fill="none" stroke="#000000" points="503,-223 503,-253 817,-253 817,-223 503,-223"/>
<text text-anchor="start" x="510" y="-234.4" font-family="Arial" font-size="14.00" fill="#000000">id </text>
<text text-anchor="start" x="524.7798" y="-234.4" font-family="Arial" font-size="14.00" fill="#666666">[text]</text>
<polygon fill="none" stroke="#000000" points="503,-193 503,-223 817,-223 817,-193 503,-193"/>
<text text-anchor="start" x="510" y="-204.4" font-family="Arial" font-size="14.00" fill="#000000">name </text>
<text text-anchor="start" x="548.899" y="-204.4" font-family="Arial" font-size="14.00" fill="#666666">[text]</text>
<text text-anchor="start" x="579.244" y="-204.4" font-family="Arial" font-size="14.00" fill="#000000"> 名前</text>
<polygon fill="none" stroke="#000000" points="503,-163 503,-193 817,-193 817,-163 503,-163"/>
<text text-anchor="start" x="510" y="-174.4" font-family="Arial" font-size="14.00" fill="#000000">tag_type </text>
<text text-anchor="start" x="567.5848" y="-174.4" font-family="Arial" font-size="14.00" fill="#666666">[tag_type]</text>
<text text-anchor="start" x="629.0602" y="-174.4" font-family="Arial" font-size="14.00" fill="#000000"> タグ種別</text>
<polygon fill="none" stroke="#000000" points="503,-133 503,-163 817,-163 817,-133 503,-133"/>
<text text-anchor="start" x="509.8542" y="-144.4" font-family="Arial" font-size="14.00" fill="#000000">created_at </text>
<text text-anchor="start" x="579.8822" y="-144.4" font-family="Arial" font-size="14.00" fill="#666666">[timestamp with time zone]</text>
<text text-anchor="start" x="745.5666" y="-144.4" font-family="Arial" font-size="14.00" fill="#000000"> 作成日時</text>
<polygon fill="none" stroke="#000000" points="503,-103 503,-133 817,-133 817,-103 503,-103"/>
<text text-anchor="start" x="510" y="-114.4" font-family="Arial" font-size="14.00" fill="#000000">updated_at </text>
<text text-anchor="start" x="583.9326" y="-114.4" font-family="Arial" font-size="14.00" fill="#666666">[timestamp with time zone]</text>
<text text-anchor="start" x="749.617" y="-114.4" font-family="Arial" font-size="14.00" fill="#000000"> 更新日時</text>
</g>
<!-- public.albums_tags&#45;&gt;public.tags -->
<g id="edge2" class="edge">
<title>public.albums_tags:tag_id&#45;&gt;public.tags:id</title>
<path fill="none" stroke="#000000" d="M659.1093,-588.1956C712.2651,-579.0434 679.1125,-493.839 649,-438 612.1385,-369.6462 539.8615,-410.3538 503,-342 481.0604,-301.3165 456.7778,-238 503,-238"/>
<polygon fill="#000000" stroke="#000000" points="658.9685,-588.2067 648.643,-584.5142 653.9842,-588.6034 649,-589 649,-589 649,-589 653.9842,-588.6034 649.357,-593.4858 658.9685,-588.2067 658.9685,-588.2067"/>
<text text-anchor="start" x="655.8845" y="-599" font-family="Arial" font-size="10.00" fill="#000000">FOREIGN KEY (tag_id) REFERENCES tags(id)</text>
</g>
</g>
</svg>
