<?xml version="1.0" encoding="UTF-8" standalone="no"?>
<!DOCTYPE svg PUBLIC "-//W3C//DTD SVG 1.1//EN"
 "http://www.w3.org/Graphics/SVG/1.1/DTD/svg11.dtd">
<!-- Generated by graphviz version 2.40.1 (20161225.0304)
 -->
<!-- Title: public.circles Pages: 1 -->
<svg width="1358pt" height="824pt"
 viewBox="0.00 0.00 1357.50 824.00" xmlns="http://www.w3.org/2000/svg" xmlns:xlink="http://www.w3.org/1999/xlink">
<g id="graph0" class="graph" transform="scale(1 1) rotate(0) translate(4 820)">
<title>public.circles</title>
<polygon fill="#ffffff" stroke="transparent" points="-4,4 -4,-820 1353.5,-820 1353.5,4 -4,4"/>
<!-- public.circles -->
<g id="node1" class="node">
<title>public.circles</title>
<polygon fill="#efefef" stroke="transparent" points="322,-406 322,-452 944,-452 944,-406 322,-406"/>
<polygon fill="none" stroke="#000000" points="322,-406 322,-452 944,-452 944,-406 322,-406"/>
<text text-anchor="start" x="532.8751" y="-429.8" font-family="Arial Bold" font-size="18.00" fill="#000000">public.circles</text>
<text text-anchor="start" x="635.8711" y="-429.8" font-family="Arial" font-size="14.00" fill="#000000"> </text>
<text text-anchor="start" x="639.7617" y="-429.8" font-family="Arial" font-size="14.00" fill="#666666">[BASE TABLE]</text>
<text text-anchor="start" x="598.525" y="-415.4" font-family="Arial" font-size="14.00" fill="#333333">サークル</text>
<polygon fill="none" stroke="#000000" points="322,-376 322,-406 944,-406 944,-376 322,-376"/>
<text text-anchor="start" x="329" y="-387.4" font-family="Arial" font-size="14.00" fill="#000000">id </text>
<text text-anchor="start" x="343.7798" y="-387.4" font-family="Arial" font-size="14.00" fill="#666666">[text]</text>
<polygon fill="none" stroke="#000000" points="322,-346 322,-376 944,-376 944,-346 322,-346"/>
<text text-anchor="start" x="329" y="-357.4" font-family="Arial" font-size="14.00" fill="#000000">name </text>
<text text-anchor="start" x="367.899" y="-357.4" font-family="Arial" font-size="14.00" fill="#666666">[text]</text>
<text text-anchor="start" x="398.244" y="-357.4" font-family="Arial" font-size="14.00" fill="#000000"> 名前</text>
<polygon fill="none" stroke="#000000" points="322,-316 322,-346 944,-346 944,-316 322,-316"/>
<text text-anchor="start" x="329" y="-327.4" font-family="Arial" font-size="14.00" fill="#000000">name_reading </text>
<text text-anchor="start" x="422.3618" y="-327.4" font-family="Arial" font-size="14.00" fill="#666666">[text]</text>
<text text-anchor="start" x="452.7068" y="-327.4" font-family="Arial" font-size="14.00" fill="#000000"> 名前読み方</text>
<polygon fill="none" stroke="#000000" points="322,-286 322,-316 944,-316 944,-286 322,-286"/>
<text text-anchor="start" x="328.5763" y="-297.4" font-family="Arial" font-size="14.00" fill="#000000">initial_letter_type </text>
<text text-anchor="start" x="437.4837" y="-297.4" font-family="Arial" font-size="14.00" fill="#666666">[initial_letter_type]</text>
<text text-anchor="start" x="550.2817" y="-297.4" font-family="Arial" font-size="14.00" fill="#000000"> 頭文字の文字種別(symbol,number,alphabet,kana,kanji,other)</text>
<polygon fill="none" stroke="#000000" points="322,-256 322,-286 944,-286 944,-256 322,-256"/>
<text text-anchor="start" x="329" y="-267.4" font-family="Arial" font-size="14.00" fill="#000000">initial_letter_detail </text>
<text text-anchor="start" x="444.9032" y="-267.4" font-family="Arial" font-size="14.00" fill="#666666">[text]</text>
<text text-anchor="start" x="475.2482" y="-267.4" font-family="Arial" font-size="14.00" fill="#000000"> 頭文字の文字種別詳細</text>
<polygon fill="none" stroke="#000000" points="322,-226 322,-256 944,-256 944,-226 322,-226"/>
<text text-anchor="start" x="329" y="-237.4" font-family="Arial" font-size="14.00" fill="#000000">description </text>
<text text-anchor="start" x="400.568" y="-237.4" font-family="Arial" font-size="14.00" fill="#666666">[text]</text>
<text text-anchor="start" x="430.913" y="-237.4" font-family="Arial" font-size="14.00" fill="#000000"> 説明</text>
<polygon fill="none" stroke="#000000" points="322,-196 322,-226 944,-226 944,-196 322,-196"/>
<text text-anchor="start" x="329" y="-207.4" font-family="Arial" font-size="14.00" fill="#000000">url </text>
<text text-anchor="start" x="348.4404" y="-207.4" font-family="Arial" font-size="14.00" fill="#666666">[text]</text>
<text text-anchor="start" x="378.7854" y="-207.4" font-family="Arial" font-size="14.00" fill="#000000"> URL</text>
<polygon fill="none" stroke="#000000" points="322,-166 322,-196 944,-196 944,-166 322,-166"/>
<text text-anchor="start" x="329" y="-177.4" font-family="Arial" font-size="14.00" fill="#000000">blog_url </text>
<text text-anchor="start" x="382.6774" y="-177.4" font-family="Arial" font-size="14.00" fill="#666666">[text]</text>
<text text-anchor="start" x="413.0224" y="-177.4" font-family="Arial" font-size="14.00" fill="#000000"> ブログ URL</text>
<polygon fill="none" stroke="#000000" points="322,-136 322,-166 944,-166 944,-136 322,-136"/>
<text text-anchor="start" x="329" y="-147.4" font-family="Arial" font-size="14.00" fill="#000000">twitter_url </text>
<text text-anchor="start" x="393.5512" y="-147.4" font-family="Arial" font-size="14.00" fill="#666666">[text]</text>
<text text-anchor="start" x="423.8962" y="-147.4" font-family="Arial" font-size="14.00" fill="#000000"> Twitter URL</text>
<polygon fill="none" stroke="#000000" points="322,-106 322,-136 944,-136 944,-106 322,-106"/>
<text text-anchor="start" x="329" y="-117.4" font-family="Arial" font-size="14.00" fill="#000000">youtube_channel_url </text>
<text text-anchor="start" x="462.8288" y="-117.4" font-family="Arial" font-size="14.00" fill="#666666">[text]</text>
<text text-anchor="start" x="493.1738" y="-117.4" font-family="Arial" font-size="14.00" fill="#000000"> YouTubeチャンネル URL</text>
<polygon fill="none" stroke="#000000" points="322,-76 322,-106 944,-106 944,-76 322,-76"/>
<text text-anchor="start" x="329" y="-87.4" font-family="Arial" font-size="14.00" fill="#000000">created_at </text>
<text text-anchor="start" x="399.028" y="-87.4" font-family="Arial" font-size="14.00" fill="#666666">[timestamp with time zone]</text>
<text text-anchor="start" x="564.7124" y="-87.4" font-family="Arial" font-size="14.00" fill="#000000"> 作成日時</text>
<polygon fill="none" stroke="#000000" points="322,-46 322,-76 944,-76 944,-46 322,-46"/>
<text text-anchor="start" x="329" y="-57.4" font-family="Arial" font-size="14.00" fill="#000000">updated_at </text>
<text text-anchor="start" x="402.9326" y="-57.4" font-family="Arial" font-size="14.00" fill="#666666">[timestamp with time zone]</text>
<text text-anchor="start" x="568.617" y="-57.4" font-family="Arial" font-size="14.00" fill="#000000"> 更新日時</text>
<polygon fill="none" stroke="#000000" stroke-width="3" points="320.5,-44.5 320.5,-453.5 945.5,-453.5 945.5,-44.5 320.5,-44.5"/>
</g>
<!-- public.albums_circles -->
<g id="node2" class="node">
<title>public.albums_circles</title>
<polygon fill="#efefef" stroke="transparent" points="43,-712 43,-758 357,-758 357,-712 43,-712"/>
<polygon fill="none" stroke="#000000" points="43,-712 43,-758 357,-758 357,-712 43,-712"/>
<text text-anchor="start" x="65.8695" y="-735.8" font-family="Arial Bold" font-size="18.00" fill="#000000">public.albums_circles</text>
<text text-anchor="start" x="236.8767" y="-735.8" font-family="Arial" font-size="14.00" fill="#000000"> </text>
<text text-anchor="start" x="240.7673" y="-735.8" font-family="Arial" font-size="14.00" fill="#666666">[BASE TABLE]</text>
<text text-anchor="start" x="71.1678" y="-721.4" font-family="Arial" font-size="14.00" fill="#333333">アルバムとサークルの中間テーブル</text>
<polygon fill="none" stroke="#000000" points="43,-682 43,-712 357,-712 357,-682 43,-682"/>
<text text-anchor="start" x="50" y="-693.4" font-family="Arial" font-size="14.00" fill="#000000">album_id </text>
<text text-anchor="start" x="110.6774" y="-693.4" font-family="Arial" font-size="14.00" fill="#666666">[text]</text>
<text text-anchor="start" x="141.0224" y="-693.4" font-family="Arial" font-size="14.00" fill="#000000"> アルバムID</text>
<polygon fill="none" stroke="#000000" points="43,-652 43,-682 357,-682 357,-652 43,-652"/>
<text text-anchor="start" x="50" y="-663.4" font-family="Arial" font-size="14.00" fill="#000000">circle_id </text>
<text text-anchor="start" x="105.2188" y="-663.4" font-family="Arial" font-size="14.00" fill="#666666">[text]</text>
<text text-anchor="start" x="135.5638" y="-663.4" font-family="Arial" font-size="14.00" fill="#000000"> サークルID</text>
<polygon fill="none" stroke="#000000" points="43,-622 43,-652 357,-652 357,-622 43,-622"/>
<text text-anchor="start" x="49.8542" y="-633.4" font-family="Arial" font-size="14.00" fill="#000000">created_at </text>
<text text-anchor="start" x="119.8822" y="-633.4" font-family="Arial" font-size="14.00" fill="#666666">[timestamp with time zone]</text>
<text text-anchor="start" x="285.5666" y="-633.4" font-family="Arial" font-size="14.00" fill="#000000"> 作成日時</text>
<polygon fill="none" stroke="#000000" points="43,-592 43,-622 357,-622 357,-592 43,-592"/>
<text text-anchor="start" x="50" y="-603.4" font-family="Arial" font-size="14.00" fill="#000000">updated_at </text>
<text text-anchor="start" x="123.9326" y="-603.4" font-family="Arial" font-size="14.00" fill="#666666">[timestamp with time zone]</text>
<text text-anchor="start" x="289.617" y="-603.4" font-family="Arial" font-size="14.00" fill="#000000"> 更新日時</text>
</g>
<!-- public.albums_circles&#45;&gt;public.circles -->
<g id="edge1" class="edge">
<title>public.albums_circles:circle_id&#45;&gt;public.circles:id</title>
<path fill="none" stroke="#000000" d="M367.2458,-665.9128C404.0834,-657.0179 371.3819,-595.3731 357,-549 348.8568,-522.7428 330.1432,-524.2572 322,-498 307.9133,-452.5787 274.4444,-391 322,-391"/>
<polygon fill="#000000" stroke="#000000" points="366.9442,-665.9447 356.5251,-662.5251 361.9721,-666.4724 357,-667 357,-667 357,-667 361.9721,-666.4724 357.4749,-671.4749 366.9442,-665.9447 366.9442,-665.9447"/>
<text text-anchor="start" x="364.4555" y="-677" font-family="Arial" font-size="10.00" fill="#000000">FOREIGN KEY (circle_id) REFERENCES circles(id)</text>
</g>
<!-- public.tracks_arrange_circles -->
<g id="node3" class="node">
<title>public.tracks_arrange_circles</title>
<polygon fill="#efefef" stroke="transparent" points="461,-712 461,-758 805,-758 805,-712 461,-712"/>
<polygon fill="none" stroke="#000000" points="461,-712 461,-758 805,-758 805,-712 461,-712"/>
<text text-anchor="start" x="467.8609" y="-735.8" font-family="Arial Bold" font-size="18.00" fill="#000000">public.tracks_arrange_circles</text>
<text text-anchor="start" x="700.8853" y="-735.8" font-family="Arial" font-size="14.00" fill="#000000"> </text>
<text text-anchor="start" x="704.7759" y="-735.8" font-family="Arial" font-size="14.00" fill="#666666">[BASE TABLE]</text>
<text text-anchor="start" x="561.8387" y="-721.4" font-family="Arial" font-size="14.00" fill="#333333">楽曲編曲サークル</text>
<polygon fill="none" stroke="#000000" points="461,-682 461,-712 805,-712 805,-682 461,-682"/>
<text text-anchor="start" x="468" y="-693.4" font-family="Arial" font-size="14.00" fill="#000000">track_id </text>
<text text-anchor="start" x="520.8962" y="-693.4" font-family="Arial" font-size="14.00" fill="#666666">[text]</text>
<text text-anchor="start" x="551.2412" y="-693.4" font-family="Arial" font-size="14.00" fill="#000000"> トラックID</text>
<polygon fill="none" stroke="#000000" points="461,-652 461,-682 805,-682 805,-652 461,-652"/>
<text text-anchor="start" x="468" y="-663.4" font-family="Arial" font-size="14.00" fill="#000000">circle_id </text>
<text text-anchor="start" x="523.2188" y="-663.4" font-family="Arial" font-size="14.00" fill="#666666">[text]</text>
<text text-anchor="start" x="553.5638" y="-663.4" font-family="Arial" font-size="14.00" fill="#000000"> サークルID</text>
<polygon fill="none" stroke="#000000" points="461,-622 461,-652 805,-652 805,-622 461,-622"/>
<text text-anchor="start" x="468" y="-633.4" font-family="Arial" font-size="14.00" fill="#000000">created_at </text>
<text text-anchor="start" x="538.028" y="-633.4" font-family="Arial" font-size="14.00" fill="#666666">[timestamp with time zone]</text>
<text text-anchor="start" x="703.7124" y="-633.4" font-family="Arial" font-size="14.00" fill="#000000"> 作成日時</text>
<polygon fill="none" stroke="#000000" points="461,-592 461,-622 805,-622 805,-592 461,-592"/>
<text text-anchor="start" x="468" y="-603.4" font-family="Arial" font-size="14.00" fill="#000000">updated_at </text>
<text text-anchor="start" x="541.9326" y="-603.4" font-family="Arial" font-size="14.00" fill="#666666">[timestamp with time zone]</text>
<text text-anchor="start" x="707.617" y="-603.4" font-family="Arial" font-size="14.00" fill="#000000"> 更新日時</text>
</g>
<!-- public.tracks_arrange_circles&#45;&gt;public.circles -->
<g id="edge2" class="edge">
<title>public.tracks_arrange_circles:circle_id&#45;&gt;public.circles:id</title>
<path fill="none" stroke="#000000" d="M815.0049,-666.1237C862.5014,-656.8771 816.0085,-576.7214 858,-534 887.0461,-504.449 921.0439,-532.4957 944,-498 970.3464,-458.4096 991.5556,-391 944,-391"/>
<polygon fill="#000000" stroke="#000000" points="814.9619,-666.1274 804.6073,-662.5172 809.9809,-666.5637 805,-667 805,-667 805,-667 809.9809,-666.5637 805.3927,-671.4828 814.9619,-666.1274 814.9619,-666.1274"/>
<text text-anchor="start" x="628.7055" y="-651" font-family="Arial" font-size="10.00" fill="#000000">FOREIGN KEY (circle_id) REFERENCES circles(id)</text>
</g>
<!-- public.circles_tags -->
<g id="node4" class="node">
<title>public.circles_tags</title>
<polygon fill="#efefef" stroke="transparent" points="910,-727 910,-773 1307,-773 1307,-727 910,-727"/>
<polygon fill="none" stroke="#000000" points="910,-727 910,-773 1307,-773 1307,-727 910,-727"/>
<text text-anchor="start" x="986.3647" y="-750.8" font-family="Arial Bold" font-size="18.00" fill="#000000">public.circles_tags</text>
<text text-anchor="start" x="1133.3815" y="-750.8" font-family="Arial" font-size="14.00" fill="#000000"> </text>
<text text-anchor="start" x="1137.2721" y="-750.8" font-family="Arial" font-size="14.00" fill="#666666">[BASE TABLE]</text>
<text text-anchor="start" x="1058.7342" y="-736.4" font-family="Arial" font-size="14.00" fill="#333333">サークルタグ</text>
<polygon fill="none" stroke="#000000" points="910,-697 910,-727 1307,-727 1307,-697 910,-697"/>
<text text-anchor="start" x="917" y="-708.4" font-family="Arial" font-size="14.00" fill="#000000">circle_id </text>
<text text-anchor="start" x="972.2188" y="-708.4" font-family="Arial" font-size="14.00" fill="#666666">[text]</text>
<text text-anchor="start" x="1002.5638" y="-708.4" font-family="Arial" font-size="14.00" fill="#000000"> サークルID</text>
<polygon fill="none" stroke="#000000" points="910,-667 910,-697 1307,-697 1307,-667 910,-667"/>
<text text-anchor="start" x="917" y="-678.4" font-family="Arial" font-size="14.00" fill="#000000">tag_id </text>
<text text-anchor="start" x="959.0182" y="-678.4" font-family="Arial" font-size="14.00" fill="#666666">[text]</text>
<text text-anchor="start" x="989.3632" y="-678.4" font-family="Arial" font-size="14.00" fill="#000000"> タグID</text>
<polygon fill="none" stroke="#000000" points="910,-637 910,-667 1307,-667 1307,-637 910,-637"/>
<text text-anchor="start" x="916.7826" y="-648.4" font-family="Arial" font-size="14.00" fill="#000000">locked </text>
<text text-anchor="start" x="961.1276" y="-648.4" font-family="Arial" font-size="14.00" fill="#666666">[boolean]</text>
<text text-anchor="start" x="1018.711" y="-648.4" font-family="Arial" font-size="14.00" fill="#000000"> ロック有無(true: ロック、false: アンロック)</text>
<polygon fill="none" stroke="#000000" points="910,-607 910,-637 1307,-637 1307,-607 910,-607"/>
<text text-anchor="start" x="917" y="-618.4" font-family="Arial" font-size="14.00" fill="#000000">created_at </text>
<text text-anchor="start" x="987.028" y="-618.4" font-family="Arial" font-size="14.00" fill="#666666">[timestamp with time zone]</text>
<text text-anchor="start" x="1152.7124" y="-618.4" font-family="Arial" font-size="14.00" fill="#000000"> 作成日時</text>
<polygon fill="none" stroke="#000000" points="910,-577 910,-607 1307,-607 1307,-577 910,-577"/>
<text text-anchor="start" x="917" y="-588.4" font-family="Arial" font-size="14.00" fill="#000000">updated_at </text>
<text text-anchor="start" x="990.9326" y="-588.4" font-family="Arial" font-size="14.00" fill="#666666">[timestamp with time zone]</text>
<text text-anchor="start" x="1156.617" y="-588.4" font-family="Arial" font-size="14.00" fill="#000000"> 更新日時</text>
</g>
<!-- public.circles_tags&#45;&gt;public.circles -->
<g id="edge3" class="edge">
<title>public.circles_tags:circle_id&#45;&gt;public.circles:id</title>
<path fill="none" stroke="#000000" d="M899.7099,-711.3252C835.5201,-702.2725 882.1424,-604.0681 910,-534 918.1308,-513.5492 935.8692,-518.4508 944,-498 961.5694,-453.809 991.5556,-391 944,-391"/>
<polygon fill="#000000" stroke="#000000" points="900.0214,-711.3455 909.7055,-716.4904 905.0107,-711.6728 910,-712 910,-712 910,-712 905.0107,-711.6728 910.2945,-707.5096 900.0214,-711.3455 900.0214,-711.3455"/>
<text text-anchor="start" x="672.4555" y="-722" font-family="Arial" font-size="10.00" fill="#000000">FOREIGN KEY (circle_id) REFERENCES circles(id)</text>
</g>
</g>
</svg>
