<?xml version="1.0" encoding="UTF-8" standalone="no"?>
<!DOCTYPE svg PUBLIC "-//W3C//DTD SVG 1.1//EN"
 "http://www.w3.org/Graphics/SVG/1.1/DTD/svg11.dtd">
<!-- Generated by graphviz version 2.40.1 (20161225.0304)
 -->
<!-- Title: public.sub_events Pages: 1 -->
<svg width="1657pt" height="1004pt"
 viewBox="0.00 0.00 1657.00 1004.00" xmlns="http://www.w3.org/2000/svg" xmlns:xlink="http://www.w3.org/1999/xlink">
<g id="graph0" class="graph" transform="scale(1 1) rotate(0) translate(4 1000)">
<title>public.sub_events</title>
<polygon fill="#ffffff" stroke="transparent" points="-4,4 -4,-1000 1653,-1000 1653,4 -4,4"/>
<!-- public.sub_events -->
<g id="node1" class="node">
<title>public.sub_events</title>
<polygon fill="#efefef" stroke="transparent" points="46,-904 46,-950 1402,-950 1402,-904 46,-904"/>
<polygon fill="none" stroke="#000000" points="46,-904 46,-950 1402,-950 1402,-904 46,-904"/>
<text text-anchor="start" x="603.3488" y="-927.8" font-family="Arial Bold" font-size="18.00" fill="#000000">public.sub_events</text>
<text text-anchor="start" x="747.3974" y="-927.8" font-family="Arial" font-size="14.00" fill="#000000"> </text>
<text text-anchor="start" x="751.288" y="-927.8" font-family="Arial" font-size="14.00" fill="#666666">[BASE TABLE]</text>
<text text-anchor="start" x="683.9516" y="-913.4" font-family="Arial" font-size="14.00" fill="#333333">サブイベント</text>
<polygon fill="none" stroke="#000000" points="46,-874 46,-904 1402,-904 1402,-874 46,-874"/>
<text text-anchor="start" x="53" y="-885.4" font-family="Arial" font-size="14.00" fill="#000000">id </text>
<text text-anchor="start" x="67.7798" y="-885.4" font-family="Arial" font-size="14.00" fill="#666666">[text]</text>
<polygon fill="none" stroke="#000000" points="46,-844 46,-874 1402,-874 1402,-844 46,-844"/>
<text text-anchor="start" x="53" y="-855.4" font-family="Arial" font-size="14.00" fill="#000000">event_id </text>
<text text-anchor="start" x="109.8008" y="-855.4" font-family="Arial" font-size="14.00" fill="#666666">[text]</text>
<text text-anchor="start" x="140.1458" y="-855.4" font-family="Arial" font-size="14.00" fill="#000000"> イベントID</text>
<polygon fill="none" stroke="#000000" points="46,-814 46,-844 1402,-844 1402,-814 46,-814"/>
<text text-anchor="start" x="53" y="-825.4" font-family="Arial" font-size="14.00" fill="#000000">name </text>
<text text-anchor="start" x="91.899" y="-825.4" font-family="Arial" font-size="14.00" fill="#666666">[text]</text>
<text text-anchor="start" x="122.244" y="-825.4" font-family="Arial" font-size="14.00" fill="#000000"> 名前(例: 〇〇 2日目)</text>
<polygon fill="none" stroke="#000000" points="46,-784 46,-814 1402,-814 1402,-784 46,-784"/>
<text text-anchor="start" x="53" y="-795.4" font-family="Arial" font-size="14.00" fill="#000000">display_name </text>
<text text-anchor="start" x="143.2426" y="-795.4" font-family="Arial" font-size="14.00" fill="#666666">[text]</text>
<text text-anchor="start" x="173.5876" y="-795.4" font-family="Arial" font-size="14.00" fill="#000000"> 表示名</text>
<polygon fill="none" stroke="#000000" points="46,-754 46,-784 1402,-784 1402,-754 46,-754"/>
<text text-anchor="start" x="53" y="-765.4" font-family="Arial" font-size="14.00" fill="#000000">event_date </text>
<text text-anchor="start" x="126.15" y="-765.4" font-family="Arial" font-size="14.00" fill="#666666">[date]</text>
<text text-anchor="start" x="161.1696" y="-765.4" font-family="Arial" font-size="14.00" fill="#000000"> 開催日</text>
<polygon fill="none" stroke="#000000" points="46,-724 46,-754 1402,-754 1402,-724 46,-724"/>
<text text-anchor="start" x="52.6104" y="-735.4" font-family="Arial" font-size="14.00" fill="#000000">event_status </text>
<text text-anchor="start" x="135.8684" y="-735.4" font-family="Arial" font-size="14.00" fill="#666666">[event_status]</text>
<text text-anchor="start" x="223.017" y="-735.4" font-family="Arial" font-size="14.00" fill="#000000"> ステータス/scheduled: 開催済み, cancelled: 中止, postpone: 延期(開催日未定), rescheduled: 延期(開催日決定), moved_online: オンライン開催に変更, other: その他/default: scheduled</text>
<polygon fill="none" stroke="#000000" points="46,-694 46,-724 1402,-724 1402,-694 46,-694"/>
<text text-anchor="start" x="53" y="-705.4" font-family="Arial" font-size="14.00" fill="#000000">description </text>
<text text-anchor="start" x="124.568" y="-705.4" font-family="Arial" font-size="14.00" fill="#666666">[text]</text>
<text text-anchor="start" x="154.913" y="-705.4" font-family="Arial" font-size="14.00" fill="#000000"> 説明</text>
<polygon fill="none" stroke="#000000" points="46,-664 46,-694 1402,-694 1402,-664 46,-664"/>
<text text-anchor="start" x="53" y="-675.4" font-family="Arial" font-size="14.00" fill="#000000">created_at </text>
<text text-anchor="start" x="123.028" y="-675.4" font-family="Arial" font-size="14.00" fill="#666666">[timestamp with time zone]</text>
<text text-anchor="start" x="288.7124" y="-675.4" font-family="Arial" font-size="14.00" fill="#000000"> 作成日時</text>
<polygon fill="none" stroke="#000000" points="46,-634 46,-664 1402,-664 1402,-634 46,-634"/>
<text text-anchor="start" x="53" y="-645.4" font-family="Arial" font-size="14.00" fill="#000000">updated_at </text>
<text text-anchor="start" x="126.9326" y="-645.4" font-family="Arial" font-size="14.00" fill="#666666">[timestamp with time zone]</text>
<text text-anchor="start" x="292.617" y="-645.4" font-family="Arial" font-size="14.00" fill="#000000"> 更新日時</text>
<polygon fill="none" stroke="#000000" stroke-width="3" points="44.5,-632.5 44.5,-951.5 1403.5,-951.5 1403.5,-632.5 44.5,-632.5"/>
</g>
<!-- public.events -->
<g id="node2" class="node">
<title>public.events</title>
<polygon fill="#efefef" stroke="transparent" points="46,-463 46,-509 1402,-509 1402,-463 46,-463"/>
<polygon fill="none" stroke="#000000" points="46,-463 46,-509 1402,-509 1402,-463 46,-463"/>
<text text-anchor="start" x="622.8581" y="-486.8" font-family="Arial Bold" font-size="18.00" fill="#000000">public.events</text>
<text text-anchor="start" x="727.8881" y="-486.8" font-family="Arial" font-size="14.00" fill="#000000"> </text>
<text text-anchor="start" x="731.7787" y="-486.8" font-family="Arial" font-size="14.00" fill="#666666">[BASE TABLE]</text>
<text text-anchor="start" x="696.9114" y="-472.4" font-family="Arial" font-size="14.00" fill="#333333">イベント</text>
<polygon fill="none" stroke="#000000" points="46,-433 46,-463 1402,-463 1402,-433 46,-433"/>
<text text-anchor="start" x="53" y="-444.4" font-family="Arial" font-size="14.00" fill="#000000">id </text>
<text text-anchor="start" x="67.7798" y="-444.4" font-family="Arial" font-size="14.00" fill="#666666">[text]</text>
<polygon fill="none" stroke="#000000" points="46,-403 46,-433 1402,-433 1402,-403 46,-403"/>
<text text-anchor="start" x="53" y="-414.4" font-family="Arial" font-size="14.00" fill="#000000">event_series_id </text>
<text text-anchor="start" x="154.9158" y="-414.4" font-family="Arial" font-size="14.00" fill="#666666">[text]</text>
<text text-anchor="start" x="185.2608" y="-414.4" font-family="Arial" font-size="14.00" fill="#000000"> イベントシリーズID</text>
<polygon fill="none" stroke="#000000" points="46,-373 46,-403 1402,-403 1402,-373 46,-373"/>
<text text-anchor="start" x="53" y="-384.4" font-family="Arial" font-size="14.00" fill="#000000">name </text>
<text text-anchor="start" x="91.899" y="-384.4" font-family="Arial" font-size="14.00" fill="#666666">[text]</text>
<text text-anchor="start" x="122.244" y="-384.4" font-family="Arial" font-size="14.00" fill="#000000"> 名前</text>
<polygon fill="none" stroke="#000000" points="46,-343 46,-373 1402,-373 1402,-343 46,-343"/>
<text text-anchor="start" x="53" y="-354.4" font-family="Arial" font-size="14.00" fill="#000000">display_name </text>
<text text-anchor="start" x="143.2426" y="-354.4" font-family="Arial" font-size="14.00" fill="#666666">[text]</text>
<text text-anchor="start" x="173.5876" y="-354.4" font-family="Arial" font-size="14.00" fill="#000000"> 表示名</text>
<polygon fill="none" stroke="#000000" points="46,-313 46,-343 1402,-343 1402,-313 46,-313"/>
<text text-anchor="start" x="53" y="-324.4" font-family="Arial" font-size="14.00" fill="#000000">event_dates </text>
<text text-anchor="start" x="133.15" y="-324.4" font-family="Arial" font-size="14.00" fill="#666666">[daterange]</text>
<text text-anchor="start" x="203.9606" y="-324.4" font-family="Arial" font-size="14.00" fill="#000000"> イベント開催期間</text>
<polygon fill="none" stroke="#000000" points="46,-283 46,-313 1402,-313 1402,-283 46,-283"/>
<text text-anchor="start" x="52.6104" y="-294.4" font-family="Arial" font-size="14.00" fill="#000000">event_status </text>
<text text-anchor="start" x="135.8684" y="-294.4" font-family="Arial" font-size="14.00" fill="#666666">[event_status]</text>
<text text-anchor="start" x="223.017" y="-294.4" font-family="Arial" font-size="14.00" fill="#000000"> ステータス/scheduled: 開催済み, cancelled: 中止, postpone: 延期(開催日未定), rescheduled: 延期(開催日決定), moved_online: オンライン開催に変更, other: その他/default: scheduled</text>
<polygon fill="none" stroke="#000000" points="46,-253 46,-283 1402,-283 1402,-253 46,-253"/>
<text text-anchor="start" x="53" y="-264.4" font-family="Arial" font-size="14.00" fill="#000000">format </text>
<text text-anchor="start" x="96.5582" y="-264.4" font-family="Arial" font-size="14.00" fill="#666666">[event_format]</text>
<text text-anchor="start" x="186.028" y="-264.4" font-family="Arial" font-size="14.00" fill="#000000"> 形式/offline: オフライン開催, online: オフライン開催, mixed: 両方開催/default: offline</text>
<polygon fill="none" stroke="#000000" points="46,-223 46,-253 1402,-253 1402,-223 46,-223"/>
<text text-anchor="start" x="53" y="-234.4" font-family="Arial" font-size="14.00" fill="#000000">region_code </text>
<text text-anchor="start" x="133.9186" y="-234.4" font-family="Arial" font-size="14.00" fill="#666666">[text]</text>
<text text-anchor="start" x="164.2636" y="-234.4" font-family="Arial" font-size="14.00" fill="#000000"> リージョンコード/default: JP</text>
<polygon fill="none" stroke="#000000" points="46,-193 46,-223 1402,-223 1402,-193 46,-193"/>
<text text-anchor="start" x="53" y="-204.4" font-family="Arial" font-size="14.00" fill="#000000">address </text>
<text text-anchor="start" x="106.6816" y="-204.4" font-family="Arial" font-size="14.00" fill="#666666">[text]</text>
<text text-anchor="start" x="137.0266" y="-204.4" font-family="Arial" font-size="14.00" fill="#000000"> 開催場所</text>
<polygon fill="none" stroke="#000000" points="46,-163 46,-193 1402,-193 1402,-163 46,-163"/>
<text text-anchor="start" x="53" y="-174.4" font-family="Arial" font-size="14.00" fill="#000000">description </text>
<text text-anchor="start" x="124.568" y="-174.4" font-family="Arial" font-size="14.00" fill="#666666">[text]</text>
<text text-anchor="start" x="154.913" y="-174.4" font-family="Arial" font-size="14.00" fill="#000000"> 説明</text>
<polygon fill="none" stroke="#000000" points="46,-133 46,-163 1402,-163 1402,-133 46,-133"/>
<text text-anchor="start" x="53" y="-144.4" font-family="Arial" font-size="14.00" fill="#000000">url </text>
<text text-anchor="start" x="72.4404" y="-144.4" font-family="Arial" font-size="14.00" fill="#666666">[text]</text>
<text text-anchor="start" x="102.7854" y="-144.4" font-family="Arial" font-size="14.00" fill="#000000"> URL</text>
<polygon fill="none" stroke="#000000" points="46,-103 46,-133 1402,-133 1402,-103 46,-103"/>
<text text-anchor="start" x="53" y="-114.4" font-family="Arial" font-size="14.00" fill="#000000">twitter_url </text>
<text text-anchor="start" x="117.5512" y="-114.4" font-family="Arial" font-size="14.00" fill="#666666">[text]</text>
<text text-anchor="start" x="147.8962" y="-114.4" font-family="Arial" font-size="14.00" fill="#000000"> Twitter URL</text>
<polygon fill="none" stroke="#000000" points="46,-73 46,-103 1402,-103 1402,-73 46,-73"/>
<text text-anchor="start" x="53" y="-84.4" font-family="Arial" font-size="14.00" fill="#000000">created_at </text>
<text text-anchor="start" x="123.028" y="-84.4" font-family="Arial" font-size="14.00" fill="#666666">[timestamp with time zone]</text>
<text text-anchor="start" x="288.7124" y="-84.4" font-family="Arial" font-size="14.00" fill="#000000"> 作成日時</text>
<polygon fill="none" stroke="#000000" points="46,-43 46,-73 1402,-73 1402,-43 46,-43"/>
<text text-anchor="start" x="53" y="-54.4" font-family="Arial" font-size="14.00" fill="#000000">updated_at </text>
<text text-anchor="start" x="126.9326" y="-54.4" font-family="Arial" font-size="14.00" fill="#666666">[timestamp with time zone]</text>
<text text-anchor="start" x="292.617" y="-54.4" font-family="Arial" font-size="14.00" fill="#000000"> 更新日時</text>
</g>
<!-- public.sub_events&#45;&gt;public.events -->
<g id="edge1" class="edge">
<title>public.sub_events:event_id&#45;&gt;public.events:id</title>
<path fill="none" stroke="#000000" d="M1412.285,-857.1676C1493.194,-827.5178 1489.7656,-448 1402,-448"/>
<polygon fill="#000000" stroke="#000000" points="1411.845,-857.2459 1401.2107,-854.5698 1406.9225,-858.123 1402,-859 1402,-859 1402,-859 1406.9225,-858.123 1402.7893,-863.4302 1411.845,-857.2459 1411.845,-857.2459"/>
<text text-anchor="start" x="1409.3255" y="-869" font-family="Arial" font-size="10.00" fill="#000000">FOREIGN KEY (event_id) REFERENCES events(id)</text>
</g>
</g>
</svg>
