<?xml version="1.0" encoding="UTF-8" standalone="no"?>
<!DOCTYPE svg PUBLIC "-//W3C//DTD SVG 1.1//EN"
 "http://www.w3.org/Graphics/SVG/1.1/DTD/svg11.dtd">
<!-- Generated by graphviz version 2.40.1 (20161225.0304)
 -->
<!-- Title: public.albums_circles Pages: 1 -->
<svg width="1196pt" height="884pt"
 viewBox="0.00 0.00 1195.50 884.00" xmlns="http://www.w3.org/2000/svg" xmlns:xlink="http://www.w3.org/1999/xlink">
<g id="graph0" class="graph" transform="scale(1 1) rotate(0) translate(4 880)">
<title>public.albums_circles</title>
<polygon fill="#ffffff" stroke="transparent" points="-4,4 -4,-880 1191.5,-880 1191.5,4 -4,4"/>
<!-- public.albums_circles -->
<g id="node1" class="node">
<title>public.albums_circles</title>
<polygon fill="#efefef" stroke="transparent" points="360,-784 360,-830 674,-830 674,-784 360,-784"/>
<polygon fill="none" stroke="#000000" points="360,-784 360,-830 674,-830 674,-784 360,-784"/>
<text text-anchor="start" x="367.7124" y="-807.8" font-family="Arial Bold" font-size="18.00" fill="#000000">public.albums_circles</text>
<text text-anchor="start" x="538.7196" y="-807.8" font-family="Arial" font-size="14.00" fill="#000000">    </text>
<text text-anchor="start" x="572.9244" y="-807.8" font-family="Arial" font-size="14.00" fill="#666666">[BASE TABLE]</text>
<text text-anchor="start" x="388.1678" y="-793.4" font-family="Arial" font-size="14.00" fill="#333333">アルバムとサークルの中間テーブル</text>
<polygon fill="none" stroke="#000000" points="360,-754 360,-784 674,-784 674,-754 360,-754"/>
<text text-anchor="start" x="367" y="-765.4" font-family="Arial" font-size="14.00" fill="#000000">album_id </text>
<text text-anchor="start" x="427.6774" y="-765.4" font-family="Arial" font-size="14.00" fill="#666666">[text]</text>
<text text-anchor="start" x="458.0224" y="-765.4" font-family="Arial" font-size="14.00" fill="#000000"> アルバムID</text>
<polygon fill="none" stroke="#000000" points="360,-724 360,-754 674,-754 674,-724 360,-724"/>
<text text-anchor="start" x="367" y="-735.4" font-family="Arial" font-size="14.00" fill="#000000">circle_id </text>
<text text-anchor="start" x="422.2188" y="-735.4" font-family="Arial" font-size="14.00" fill="#666666">[text]</text>
<text text-anchor="start" x="452.5638" y="-735.4" font-family="Arial" font-size="14.00" fill="#000000"> サークルID</text>
<polygon fill="none" stroke="#000000" points="360,-694 360,-724 674,-724 674,-694 360,-694"/>
<text text-anchor="start" x="366.8542" y="-705.4" font-family="Arial" font-size="14.00" fill="#000000">created_at </text>
<text text-anchor="start" x="436.8822" y="-705.4" font-family="Arial" font-size="14.00" fill="#666666">[timestamp with time zone]</text>
<text text-anchor="start" x="602.5666" y="-705.4" font-family="Arial" font-size="14.00" fill="#000000"> 作成日時</text>
<polygon fill="none" stroke="#000000" points="360,-664 360,-694 674,-694 674,-664 360,-664"/>
<text text-anchor="start" x="367" y="-675.4" font-family="Arial" font-size="14.00" fill="#000000">updated_at </text>
<text text-anchor="start" x="440.9326" y="-675.4" font-family="Arial" font-size="14.00" fill="#666666">[timestamp with time zone]</text>
<text text-anchor="start" x="606.617" y="-675.4" font-family="Arial" font-size="14.00" fill="#000000"> 更新日時</text>
<polygon fill="none" stroke="#000000" stroke-width="3" points="358.5,-662.5 358.5,-831.5 675.5,-831.5 675.5,-662.5 358.5,-662.5"/>
</g>
<!-- public.albums -->
<g id="node2" class="node">
<title>public.albums</title>
<polygon fill="#efefef" stroke="transparent" points="43,-493 43,-539 387,-539 387,-493 43,-493"/>
<polygon fill="none" stroke="#000000" points="43,-493 43,-539 387,-539 387,-493 43,-493"/>
<text text-anchor="start" x="96.2089" y="-516.8" font-family="Arial Bold" font-size="18.00" fill="#000000">public.albums</text>
<text text-anchor="start" x="206.2231" y="-516.8" font-family="Arial" font-size="14.00" fill="#000000">    </text>
<text text-anchor="start" x="240.4279" y="-516.8" font-family="Arial" font-size="14.00" fill="#666666">[BASE TABLE]</text>
<text text-anchor="start" x="185.1884" y="-502.4" font-family="Arial" font-size="14.00" fill="#333333">アルバム</text>
<polygon fill="none" stroke="#000000" points="43,-463 43,-493 387,-493 387,-463 43,-463"/>
<text text-anchor="start" x="50" y="-474.4" font-family="Arial" font-size="14.00" fill="#000000">id    </text>
<text text-anchor="start" x="95.094" y="-474.4" font-family="Arial" font-size="14.00" fill="#666666">[text]</text>
<polygon fill="none" stroke="#000000" points="43,-433 43,-463 387,-463 387,-433 43,-433"/>
<text text-anchor="start" x="50" y="-444.4" font-family="Arial" font-size="14.00" fill="#000000">name    </text>
<text text-anchor="start" x="119.2132" y="-444.4" font-family="Arial" font-size="14.00" fill="#666666">[text]</text>
<text text-anchor="start" x="149.5582" y="-444.4" font-family="Arial" font-size="14.00" fill="#000000"> 名前</text>
<polygon fill="none" stroke="#000000" points="43,-403 43,-433 387,-433 387,-403 43,-403"/>
<text text-anchor="start" x="50" y="-414.4" font-family="Arial" font-size="14.00" fill="#000000">release_circle_name    </text>
<text text-anchor="start" x="213.3324" y="-414.4" font-family="Arial" font-size="14.00" fill="#666666">[text]</text>
<text text-anchor="start" x="243.6774" y="-414.4" font-family="Arial" font-size="14.00" fill="#000000"> 頒布サークル名</text>
<polygon fill="none" stroke="#000000" points="43,-373 43,-403 387,-403 387,-373 43,-373"/>
<text text-anchor="start" x="50" y="-384.4" font-family="Arial" font-size="14.00" fill="#000000">release_date    </text>
<text text-anchor="start" x="165.1234" y="-384.4" font-family="Arial" font-size="14.00" fill="#666666">[date]</text>
<text text-anchor="start" x="200.143" y="-384.4" font-family="Arial" font-size="14.00" fill="#000000"> 頒布日</text>
<polygon fill="none" stroke="#000000" points="43,-343 43,-373 387,-373 387,-343 43,-343"/>
<text text-anchor="start" x="50" y="-354.4" font-family="Arial" font-size="14.00" fill="#000000">event_id    </text>
<text text-anchor="start" x="137.115" y="-354.4" font-family="Arial" font-size="14.00" fill="#666666">[text]</text>
<text text-anchor="start" x="167.46" y="-354.4" font-family="Arial" font-size="14.00" fill="#000000"> イベントID</text>
<polygon fill="none" stroke="#000000" points="43,-313 43,-343 387,-343 387,-313 43,-313"/>
<text text-anchor="start" x="50" y="-324.4" font-family="Arial" font-size="14.00" fill="#000000">sub_event_id    </text>
<text text-anchor="start" x="167.4628" y="-324.4" font-family="Arial" font-size="14.00" fill="#666666">[text]</text>
<text text-anchor="start" x="197.8078" y="-324.4" font-family="Arial" font-size="14.00" fill="#000000"> サブイベントID</text>
<polygon fill="none" stroke="#000000" points="43,-283 43,-313 387,-313 387,-283 43,-283"/>
<text text-anchor="start" x="50" y="-294.4" font-family="Arial" font-size="14.00" fill="#000000">search_enabled    </text>
<text text-anchor="start" x="183.798" y="-294.4" font-family="Arial" font-size="14.00" fill="#666666">[boolean]</text>
<text text-anchor="start" x="241.3814" y="-294.4" font-family="Arial" font-size="14.00" fill="#000000"> 検索対象とするか</text>
<polygon fill="none" stroke="#000000" points="43,-253 43,-283 387,-283 387,-253 43,-253"/>
<text text-anchor="start" x="50" y="-264.4" font-family="Arial" font-size="14.00" fill="#000000">album_number    </text>
<text text-anchor="start" x="177.554" y="-264.4" font-family="Arial" font-size="14.00" fill="#666666">[text]</text>
<polygon fill="none" stroke="#000000" points="43,-223 43,-253 387,-253 387,-223 43,-223"/>
<text text-anchor="start" x="50" y="-234.4" font-family="Arial" font-size="14.00" fill="#000000">event_price    </text>
<text text-anchor="start" x="156.5582" y="-234.4" font-family="Arial" font-size="14.00" fill="#666666">[numeric]</text>
<text text-anchor="start" x="214.115" y="-234.4" font-family="Arial" font-size="14.00" fill="#000000"> イベント価格</text>
<polygon fill="none" stroke="#000000" points="43,-193 43,-223 387,-223 387,-193 43,-193"/>
<text text-anchor="start" x="50" y="-204.4" font-family="Arial" font-size="14.00" fill="#000000">currency    </text>
<text text-anchor="start" x="137.8738" y="-204.4" font-family="Arial" font-size="14.00" fill="#666666">[text]</text>
<text text-anchor="start" x="168.2188" y="-204.4" font-family="Arial" font-size="14.00" fill="#000000"> 通貨(default: JPY)</text>
<polygon fill="none" stroke="#000000" points="43,-163 43,-193 387,-193 387,-163 43,-163"/>
<text text-anchor="start" x="50" y="-174.4" font-family="Arial" font-size="14.00" fill="#000000">credit    </text>
<text text-anchor="start" x="118.4278" y="-174.4" font-family="Arial" font-size="14.00" fill="#666666">[text]</text>
<text text-anchor="start" x="148.7728" y="-174.4" font-family="Arial" font-size="14.00" fill="#000000"> クレジット</text>
<polygon fill="none" stroke="#000000" points="43,-133 43,-163 387,-163 387,-133 43,-133"/>
<text text-anchor="start" x="50" y="-144.4" font-family="Arial" font-size="14.00" fill="#000000">introduction    </text>
<text text-anchor="start" x="156.5554" y="-144.4" font-family="Arial" font-size="14.00" fill="#666666">[text]</text>
<text text-anchor="start" x="186.9004" y="-144.4" font-family="Arial" font-size="14.00" fill="#000000"> 紹介</text>
<polygon fill="none" stroke="#000000" points="43,-103 43,-133 387,-133 387,-103 43,-103"/>
<text text-anchor="start" x="50" y="-114.4" font-family="Arial" font-size="14.00" fill="#000000">url    </text>
<text text-anchor="start" x="99.7546" y="-114.4" font-family="Arial" font-size="14.00" fill="#666666">[text]</text>
<text text-anchor="start" x="130.0996" y="-114.4" font-family="Arial" font-size="14.00" fill="#000000"> URL</text>
<polygon fill="none" stroke="#000000" points="43,-73 43,-103 387,-103 387,-73 43,-73"/>
<text text-anchor="start" x="49.6971" y="-84.4" font-family="Arial" font-size="14.00" fill="#000000">created_at    </text>
<text text-anchor="start" x="150.0393" y="-84.4" font-family="Arial" font-size="14.00" fill="#666666">[timestamp with time zone]</text>
<text text-anchor="start" x="315.7237" y="-84.4" font-family="Arial" font-size="14.00" fill="#000000"> 作成日時</text>
<polygon fill="none" stroke="#000000" points="43,-43 43,-73 387,-73 387,-43 43,-43"/>
<text text-anchor="start" x="50" y="-54.4" font-family="Arial" font-size="14.00" fill="#000000">updated_at    </text>
<text text-anchor="start" x="154.2468" y="-54.4" font-family="Arial" font-size="14.00" fill="#666666">[timestamp with time zone]</text>
<text text-anchor="start" x="319.9312" y="-54.4" font-family="Arial" font-size="14.00" fill="#000000"> 更新日時</text>
</g>
<!-- public.albums_circles&#45;&gt;public.albums -->
<g id="edge1" class="edge">
<title>public.albums_circles:album_id&#45;&gt;public.albums:id</title>
<path fill="none" stroke="#000000" d="M349.9809,-768.2346C297.8342,-759.5188 339.9382,-678.1854 360,-618 366.3246,-599.0263 380.6754,-600.9737 387,-582 401.6168,-538.1497 433.2222,-478 387,-478"/>
<polygon fill="#000000" stroke="#000000" points="350.0291,-768.2382 359.6572,-773.4869 355.0145,-768.6191 360,-769 360,-769 360,-769 355.0145,-768.6191 360.3428,-764.5131 350.0291,-768.2382 350.0291,-768.2382"/>
<text text-anchor="start" x="114.5565" y="-779" font-family="Arial" font-size="10.00" fill="#000000">FOREIGN KEY (album_id) REFERENCES albums(id)</text>
</g>
<!-- public.circles -->
<g id="node3" class="node">
<title>public.circles</title>
<polygon fill="#efefef" stroke="transparent" points="492,-448 492,-494 1145,-494 1145,-448 492,-448"/>
<polygon fill="none" stroke="#000000" points="492,-448 492,-494 1145,-494 1145,-448 492,-448"/>
<text text-anchor="start" x="703.218" y="-471.8" font-family="Arial Bold" font-size="18.00" fill="#000000">public.circles</text>
<text text-anchor="start" x="806.214" y="-471.8" font-family="Arial" font-size="14.00" fill="#000000">    </text>
<text text-anchor="start" x="840.4188" y="-471.8" font-family="Arial" font-size="14.00" fill="#666666">[BASE TABLE]</text>
<text text-anchor="start" x="784.025" y="-457.4" font-family="Arial" font-size="14.00" fill="#333333">サークル</text>
<polygon fill="none" stroke="#000000" points="492,-418 492,-448 1145,-448 1145,-418 492,-418"/>
<text text-anchor="start" x="499" y="-429.4" font-family="Arial" font-size="14.00" fill="#000000">id    </text>
<text text-anchor="start" x="544.094" y="-429.4" font-family="Arial" font-size="14.00" fill="#666666">[text]</text>
<polygon fill="none" stroke="#000000" points="492,-388 492,-418 1145,-418 1145,-388 492,-388"/>
<text text-anchor="start" x="499" y="-399.4" font-family="Arial" font-size="14.00" fill="#000000">name    </text>
<text text-anchor="start" x="568.2132" y="-399.4" font-family="Arial" font-size="14.00" fill="#666666">[text]</text>
<text text-anchor="start" x="598.5582" y="-399.4" font-family="Arial" font-size="14.00" fill="#000000"> 名前</text>
<polygon fill="none" stroke="#000000" points="492,-358 492,-388 1145,-388 1145,-358 492,-358"/>
<text text-anchor="start" x="499" y="-369.4" font-family="Arial" font-size="14.00" fill="#000000">name_reading    </text>
<text text-anchor="start" x="622.676" y="-369.4" font-family="Arial" font-size="14.00" fill="#666666">[text]</text>
<text text-anchor="start" x="653.021" y="-369.4" font-family="Arial" font-size="14.00" fill="#000000"> 名前読み方</text>
<polygon fill="none" stroke="#000000" points="492,-328 492,-358 1145,-358 1145,-328 492,-328"/>
<text text-anchor="start" x="498.9192" y="-339.4" font-family="Arial" font-size="14.00" fill="#000000">initial_letter_type    </text>
<text text-anchor="start" x="638.1408" y="-339.4" font-family="Arial" font-size="14.00" fill="#666666">[initial_letter_type]</text>
<text text-anchor="start" x="750.9388" y="-339.4" font-family="Arial" font-size="14.00" fill="#000000"> 頭文字の文字種別(symbol,number,alphabet,kana,kanji,other)</text>
<polygon fill="none" stroke="#000000" points="492,-298 492,-328 1145,-328 1145,-298 492,-298"/>
<text text-anchor="start" x="499" y="-309.4" font-family="Arial" font-size="14.00" fill="#000000">initial_letter_detail    </text>
<text text-anchor="start" x="645.2174" y="-309.4" font-family="Arial" font-size="14.00" fill="#666666">[text]</text>
<text text-anchor="start" x="675.5624" y="-309.4" font-family="Arial" font-size="14.00" fill="#000000"> 頭文字の文字種別詳細</text>
<polygon fill="none" stroke="#000000" points="492,-268 492,-298 1145,-298 1145,-268 492,-268"/>
<text text-anchor="start" x="499" y="-279.4" font-family="Arial" font-size="14.00" fill="#000000">description    </text>
<text text-anchor="start" x="600.8822" y="-279.4" font-family="Arial" font-size="14.00" fill="#666666">[text]</text>
<text text-anchor="start" x="631.2272" y="-279.4" font-family="Arial" font-size="14.00" fill="#000000"> 説明</text>
<polygon fill="none" stroke="#000000" points="492,-238 492,-268 1145,-268 1145,-238 492,-238"/>
<text text-anchor="start" x="499" y="-249.4" font-family="Arial" font-size="14.00" fill="#000000">url    </text>
<text text-anchor="start" x="548.7546" y="-249.4" font-family="Arial" font-size="14.00" fill="#666666">[text]</text>
<text text-anchor="start" x="579.0996" y="-249.4" font-family="Arial" font-size="14.00" fill="#000000"> URL</text>
<polygon fill="none" stroke="#000000" points="492,-208 492,-238 1145,-238 1145,-208 492,-208"/>
<text text-anchor="start" x="499" y="-219.4" font-family="Arial" font-size="14.00" fill="#000000">blog_url    </text>
<text text-anchor="start" x="582.9916" y="-219.4" font-family="Arial" font-size="14.00" fill="#666666">[text]</text>
<text text-anchor="start" x="613.3366" y="-219.4" font-family="Arial" font-size="14.00" fill="#000000"> ブログ URL</text>
<polygon fill="none" stroke="#000000" points="492,-178 492,-208 1145,-208 1145,-178 492,-178"/>
<text text-anchor="start" x="499" y="-189.4" font-family="Arial" font-size="14.00" fill="#000000">twitter_url    </text>
<text text-anchor="start" x="593.8654" y="-189.4" font-family="Arial" font-size="14.00" fill="#666666">[text]</text>
<text text-anchor="start" x="624.2104" y="-189.4" font-family="Arial" font-size="14.00" fill="#000000"> Twitter URL</text>
<polygon fill="none" stroke="#000000" points="492,-148 492,-178 1145,-178 1145,-148 492,-148"/>
<text text-anchor="start" x="499" y="-159.4" font-family="Arial" font-size="14.00" fill="#000000">youtube_channel_url    </text>
<text text-anchor="start" x="663.143" y="-159.4" font-family="Arial" font-size="14.00" fill="#666666">[text]</text>
<text text-anchor="start" x="693.488" y="-159.4" font-family="Arial" font-size="14.00" fill="#000000"> YouTubeチャンネル URL</text>
<polygon fill="none" stroke="#000000" points="492,-118 492,-148 1145,-148 1145,-118 492,-118"/>
<text text-anchor="start" x="499" y="-129.4" font-family="Arial" font-size="14.00" fill="#000000">created_at    </text>
<text text-anchor="start" x="599.3422" y="-129.4" font-family="Arial" font-size="14.00" fill="#666666">[timestamp with time zone]</text>
<text text-anchor="start" x="765.0266" y="-129.4" font-family="Arial" font-size="14.00" fill="#000000"> 作成日時</text>
<polygon fill="none" stroke="#000000" points="492,-88 492,-118 1145,-118 1145,-88 492,-88"/>
<text text-anchor="start" x="499" y="-99.4" font-family="Arial" font-size="14.00" fill="#000000">updated_at    </text>
<text text-anchor="start" x="603.2468" y="-99.4" font-family="Arial" font-size="14.00" fill="#666666">[timestamp with time zone]</text>
<text text-anchor="start" x="768.9312" y="-99.4" font-family="Arial" font-size="14.00" fill="#000000"> 更新日時</text>
</g>
<!-- public.albums_circles&#45;&gt;public.circles -->
<g id="edge2" class="edge">
<title>public.albums_circles:circle_id&#45;&gt;public.circles:id</title>
<path fill="none" stroke="#000000" d="M683.9549,-737.97C724.4077,-728.7669 701.2903,-660.0167 674,-618 625.7733,-543.7491 540.2267,-611.2509 492,-537 466.8228,-498.2366 445.7778,-433 492,-433"/>
<polygon fill="#000000" stroke="#000000" points="683.9469,-737.9708 673.5369,-734.5239 678.9735,-738.4854 674,-739 674,-739 674,-739 678.9735,-738.4854 674.4631,-743.4761 683.9469,-737.9708 683.9469,-737.9708"/>
<text text-anchor="start" x="681.4555" y="-749" font-family="Arial" font-size="10.00" fill="#000000">FOREIGN KEY (circle_id) REFERENCES circles(id)</text>
</g>
</g>
</svg>
