<?xml version="1.0" encoding="UTF-8" standalone="no"?>
<!DOCTYPE svg PUBLIC "-//W3C//DTD SVG 1.1//EN"
 "http://www.w3.org/Graphics/SVG/1.1/DTD/svg11.dtd">
<!-- Generated by graphviz version 2.40.1 (20161225.0304)
 -->
<!-- Title: public.events Pages: 1 -->
<svg width="1730pt" height="1652pt"
 viewBox="0.00 0.00 1729.50 1652.00" xmlns="http://www.w3.org/2000/svg" xmlns:xlink="http://www.w3.org/1999/xlink">
<g id="graph0" class="graph" transform="scale(1 1) rotate(0) translate(4 1648)">
<title>public.events</title>
<polygon fill="#ffffff" stroke="transparent" points="-4,4 -4,-1648 1725.5,-1648 1725.5,4 -4,4"/>
<!-- public.events -->
<g id="node1" class="node">
<title>public.events</title>
<polygon fill="#efefef" stroke="transparent" points="59.5,-994 59.5,-1040 1415.5,-1040 1415.5,-994 59.5,-994"/>
<polygon fill="none" stroke="#000000" points="59.5,-994 59.5,-1040 1415.5,-1040 1415.5,-994 59.5,-994"/>
<text text-anchor="start" x="621.201" y="-1017.8" font-family="Arial Bold" font-size="18.00" fill="#000000">public.events</text>
<text text-anchor="start" x="726.231" y="-1017.8" font-family="Arial" font-size="14.00" fill="#000000">    </text>
<text text-anchor="start" x="760.4358" y="-1017.8" font-family="Arial" font-size="14.00" fill="#666666">[BASE TABLE]</text>
<text text-anchor="start" x="710.4114" y="-1003.4" font-family="Arial" font-size="14.00" fill="#333333">イベント</text>
<polygon fill="none" stroke="#000000" points="59.5,-964 59.5,-994 1415.5,-994 1415.5,-964 59.5,-964"/>
<text text-anchor="start" x="66.5" y="-975.4" font-family="Arial" font-size="14.00" fill="#000000">id </text>
<text text-anchor="start" x="81.2798" y="-975.4" font-family="Arial" font-size="14.00" fill="#666666">[text]</text>
<polygon fill="none" stroke="#000000" points="59.5,-934 59.5,-964 1415.5,-964 1415.5,-934 59.5,-934"/>
<text text-anchor="start" x="66.5" y="-945.4" font-family="Arial" font-size="14.00" fill="#000000">event_series_id </text>
<text text-anchor="start" x="168.4158" y="-945.4" font-family="Arial" font-size="14.00" fill="#666666">[text]</text>
<text text-anchor="start" x="198.7608" y="-945.4" font-family="Arial" font-size="14.00" fill="#000000"> イベントシリーズID</text>
<polygon fill="none" stroke="#000000" points="59.5,-904 59.5,-934 1415.5,-934 1415.5,-904 59.5,-904"/>
<text text-anchor="start" x="66.5" y="-915.4" font-family="Arial" font-size="14.00" fill="#000000">name </text>
<text text-anchor="start" x="105.399" y="-915.4" font-family="Arial" font-size="14.00" fill="#666666">[text]</text>
<text text-anchor="start" x="135.744" y="-915.4" font-family="Arial" font-size="14.00" fill="#000000"> 名前</text>
<polygon fill="none" stroke="#000000" points="59.5,-874 59.5,-904 1415.5,-904 1415.5,-874 59.5,-874"/>
<text text-anchor="start" x="66.5" y="-885.4" font-family="Arial" font-size="14.00" fill="#000000">name_reading </text>
<text text-anchor="start" x="159.8618" y="-885.4" font-family="Arial" font-size="14.00" fill="#666666">[text]</text>
<text text-anchor="start" x="190.2068" y="-885.4" font-family="Arial" font-size="14.00" fill="#000000"> 名前読み方</text>
<polygon fill="none" stroke="#000000" points="59.5,-844 59.5,-874 1415.5,-874 1415.5,-844 59.5,-844"/>
<text text-anchor="start" x="66.5" y="-855.4" font-family="Arial" font-size="14.00" fill="#000000">display_name </text>
<text text-anchor="start" x="156.7426" y="-855.4" font-family="Arial" font-size="14.00" fill="#666666">[text]</text>
<text text-anchor="start" x="187.0876" y="-855.4" font-family="Arial" font-size="14.00" fill="#000000"> 表示名</text>
<polygon fill="none" stroke="#000000" points="59.5,-814 59.5,-844 1415.5,-844 1415.5,-814 59.5,-814"/>
<text text-anchor="start" x="66.5" y="-825.4" font-family="Arial" font-size="14.00" fill="#000000">slug </text>
<text text-anchor="start" x="96.0624" y="-825.4" font-family="Arial" font-size="14.00" fill="#666666">[text]</text>
<text text-anchor="start" x="126.4074" y="-825.4" font-family="Arial" font-size="14.00" fill="#000000"> スラッグ</text>
<polygon fill="none" stroke="#000000" points="59.5,-784 59.5,-814 1415.5,-814 1415.5,-784 59.5,-784"/>
<text text-anchor="start" x="66.5" y="-795.4" font-family="Arial" font-size="14.00" fill="#000000">event_dates </text>
<text text-anchor="start" x="146.65" y="-795.4" font-family="Arial" font-size="14.00" fill="#666666">[daterange]</text>
<text text-anchor="start" x="217.4606" y="-795.4" font-family="Arial" font-size="14.00" fill="#000000"> イベント開催期間</text>
<polygon fill="none" stroke="#000000" points="59.5,-754 59.5,-784 1415.5,-784 1415.5,-754 59.5,-754"/>
<text text-anchor="start" x="66.1104" y="-765.4" font-family="Arial" font-size="14.00" fill="#000000">event_status </text>
<text text-anchor="start" x="149.3684" y="-765.4" font-family="Arial" font-size="14.00" fill="#666666">[event_status]</text>
<text text-anchor="start" x="236.517" y="-765.4" font-family="Arial" font-size="14.00" fill="#000000"> ステータス/scheduled: 開催済み, cancelled: 中止, postpone: 延期(開催日未定), rescheduled: 延期(開催日決定), moved_online: オンライン開催に変更, other: その他/default: scheduled</text>
<polygon fill="none" stroke="#000000" points="59.5,-724 59.5,-754 1415.5,-754 1415.5,-724 59.5,-724"/>
<text text-anchor="start" x="66.5" y="-735.4" font-family="Arial" font-size="14.00" fill="#000000">format </text>
<text text-anchor="start" x="110.0582" y="-735.4" font-family="Arial" font-size="14.00" fill="#666666">[event_format]</text>
<text text-anchor="start" x="199.528" y="-735.4" font-family="Arial" font-size="14.00" fill="#000000"> 形式/offline: オフライン開催, online: オフライン開催, mixed: 両方開催/default: offline</text>
<polygon fill="none" stroke="#000000" points="59.5,-694 59.5,-724 1415.5,-724 1415.5,-694 59.5,-694"/>
<text text-anchor="start" x="66.5" y="-705.4" font-family="Arial" font-size="14.00" fill="#000000">region_code </text>
<text text-anchor="start" x="147.4186" y="-705.4" font-family="Arial" font-size="14.00" fill="#666666">[text]</text>
<text text-anchor="start" x="177.7636" y="-705.4" font-family="Arial" font-size="14.00" fill="#000000"> リージョンコード/default: JP</text>
<polygon fill="none" stroke="#000000" points="59.5,-664 59.5,-694 1415.5,-694 1415.5,-664 59.5,-664"/>
<text text-anchor="start" x="66.5" y="-675.4" font-family="Arial" font-size="14.00" fill="#000000">address </text>
<text text-anchor="start" x="120.1816" y="-675.4" font-family="Arial" font-size="14.00" fill="#666666">[text]</text>
<text text-anchor="start" x="150.5266" y="-675.4" font-family="Arial" font-size="14.00" fill="#000000"> 開催場所</text>
<polygon fill="none" stroke="#000000" points="59.5,-634 59.5,-664 1415.5,-664 1415.5,-634 59.5,-634"/>
<text text-anchor="start" x="66.5" y="-645.4" font-family="Arial" font-size="14.00" fill="#000000">description </text>
<text text-anchor="start" x="138.068" y="-645.4" font-family="Arial" font-size="14.00" fill="#666666">[text]</text>
<text text-anchor="start" x="168.413" y="-645.4" font-family="Arial" font-size="14.00" fill="#000000"> 説明</text>
<polygon fill="none" stroke="#000000" points="59.5,-604 59.5,-634 1415.5,-634 1415.5,-604 59.5,-604"/>
<text text-anchor="start" x="66.5" y="-615.4" font-family="Arial" font-size="14.00" fill="#000000">url </text>
<text text-anchor="start" x="85.9404" y="-615.4" font-family="Arial" font-size="14.00" fill="#666666">[text]</text>
<text text-anchor="start" x="116.2854" y="-615.4" font-family="Arial" font-size="14.00" fill="#000000"> URL</text>
<polygon fill="none" stroke="#000000" points="59.5,-574 59.5,-604 1415.5,-604 1415.5,-574 59.5,-574"/>
<text text-anchor="start" x="66.5" y="-585.4" font-family="Arial" font-size="14.00" fill="#000000">twitter_url </text>
<text text-anchor="start" x="131.0512" y="-585.4" font-family="Arial" font-size="14.00" fill="#666666">[text]</text>
<text text-anchor="start" x="161.3962" y="-585.4" font-family="Arial" font-size="14.00" fill="#000000"> Twitter URL</text>
<polygon fill="none" stroke="#000000" points="59.5,-544 59.5,-574 1415.5,-574 1415.5,-544 59.5,-544"/>
<text text-anchor="start" x="66.5" y="-555.4" font-family="Arial" font-size="14.00" fill="#000000">published_at </text>
<text text-anchor="start" x="149.7552" y="-555.4" font-family="Arial" font-size="14.00" fill="#666666">[timestamp with time zone]</text>
<text text-anchor="start" x="315.4396" y="-555.4" font-family="Arial" font-size="14.00" fill="#000000"> 公開日時</text>
<polygon fill="none" stroke="#000000" points="59.5,-514 59.5,-544 1415.5,-544 1415.5,-514 59.5,-514"/>
<text text-anchor="start" x="66.5" y="-525.4" font-family="Arial" font-size="14.00" fill="#000000">archived_at </text>
<text text-anchor="start" x="142.744" y="-525.4" font-family="Arial" font-size="14.00" fill="#666666">[timestamp with time zone]</text>
<text text-anchor="start" x="308.4284" y="-525.4" font-family="Arial" font-size="14.00" fill="#000000"> アーカイブ日時</text>
<polygon fill="none" stroke="#000000" points="59.5,-484 59.5,-514 1415.5,-514 1415.5,-484 59.5,-484"/>
<text text-anchor="start" x="66.5" y="-495.4" font-family="Arial" font-size="14.00" fill="#000000">created_at </text>
<text text-anchor="start" x="136.528" y="-495.4" font-family="Arial" font-size="14.00" fill="#666666">[timestamp with time zone]</text>
<text text-anchor="start" x="302.2124" y="-495.4" font-family="Arial" font-size="14.00" fill="#000000"> 作成日時</text>
<polygon fill="none" stroke="#000000" points="59.5,-454 59.5,-484 1415.5,-484 1415.5,-454 59.5,-454"/>
<text text-anchor="start" x="66.5" y="-465.4" font-family="Arial" font-size="14.00" fill="#000000">updated_at </text>
<text text-anchor="start" x="140.4326" y="-465.4" font-family="Arial" font-size="14.00" fill="#666666">[timestamp with time zone]</text>
<text text-anchor="start" x="306.117" y="-465.4" font-family="Arial" font-size="14.00" fill="#000000"> 更新日時</text>
<polygon fill="none" stroke="#000000" stroke-width="3" points="58,-452.5 58,-1041.5 1417,-1041.5 1417,-452.5 58,-452.5"/>
</g>
<!-- public.event_series -->
<g id="node3" class="node">
<title>public.event_series</title>
<polygon fill="#efefef" stroke="transparent" points="538.5,-283 538.5,-329 936.5,-329 936.5,-283 538.5,-283"/>
<polygon fill="none" stroke="#000000" points="538.5,-283 538.5,-329 936.5,-329 936.5,-283 538.5,-283"/>
<text text-anchor="start" x="596.6985" y="-306.8" font-family="Arial Bold" font-size="18.00" fill="#000000">public.event_series</text>
<text text-anchor="start" x="750.7335" y="-306.8" font-family="Arial" font-size="14.00" fill="#000000">    </text>
<text text-anchor="start" x="784.9383" y="-306.8" font-family="Arial" font-size="14.00" fill="#666666">[BASE TABLE]</text>
<text text-anchor="start" x="678.1631" y="-292.4" font-family="Arial" font-size="14.00" fill="#333333">イベントシリーズ</text>
<polygon fill="none" stroke="#000000" points="538.5,-253 538.5,-283 936.5,-283 936.5,-253 538.5,-253"/>
<text text-anchor="start" x="545.5" y="-264.4" font-family="Arial" font-size="14.00" fill="#000000">id    </text>
<text text-anchor="start" x="590.594" y="-264.4" font-family="Arial" font-size="14.00" fill="#666666">[text]</text>
<polygon fill="none" stroke="#000000" points="538.5,-223 538.5,-253 936.5,-253 936.5,-223 538.5,-223"/>
<text text-anchor="start" x="545.5" y="-234.4" font-family="Arial" font-size="14.00" fill="#000000">name    </text>
<text text-anchor="start" x="614.7132" y="-234.4" font-family="Arial" font-size="14.00" fill="#666666">[text]</text>
<text text-anchor="start" x="645.0582" y="-234.4" font-family="Arial" font-size="14.00" fill="#000000"> 名前</text>
<polygon fill="none" stroke="#000000" points="538.5,-193 538.5,-223 936.5,-223 936.5,-193 538.5,-193"/>
<text text-anchor="start" x="545.5" y="-204.4" font-family="Arial" font-size="14.00" fill="#000000">display_name    </text>
<text text-anchor="start" x="666.0568" y="-204.4" font-family="Arial" font-size="14.00" fill="#666666">[text]</text>
<text text-anchor="start" x="696.4018" y="-204.4" font-family="Arial" font-size="14.00" fill="#000000"> 表示名</text>
<polygon fill="none" stroke="#000000" points="538.5,-163 538.5,-193 936.5,-193 936.5,-163 538.5,-163"/>
<text text-anchor="start" x="545.5" y="-174.4" font-family="Arial" font-size="14.00" fill="#000000">slug    </text>
<text text-anchor="start" x="605.3766" y="-174.4" font-family="Arial" font-size="14.00" fill="#666666">[text]</text>
<text text-anchor="start" x="635.7216" y="-174.4" font-family="Arial" font-size="14.00" fill="#000000"> スラッグ</text>
<polygon fill="none" stroke="#000000" points="538.5,-133 538.5,-163 936.5,-163 936.5,-133 538.5,-133"/>
<text text-anchor="start" x="545.5" y="-144.4" font-family="Arial" font-size="14.00" fill="#000000">published_at    </text>
<text text-anchor="start" x="659.0694" y="-144.4" font-family="Arial" font-size="14.00" fill="#666666">[timestamp with time zone]</text>
<text text-anchor="start" x="824.7538" y="-144.4" font-family="Arial" font-size="14.00" fill="#000000"> 公開日時</text>
<polygon fill="none" stroke="#000000" points="538.5,-103 538.5,-133 936.5,-133 936.5,-103 538.5,-103"/>
<text text-anchor="start" x="545.2464" y="-114.4" font-family="Arial" font-size="14.00" fill="#000000">archived_at    </text>
<text text-anchor="start" x="651.8046" y="-114.4" font-family="Arial" font-size="14.00" fill="#666666">[timestamp with time zone]</text>
<text text-anchor="start" x="817.489" y="-114.4" font-family="Arial" font-size="14.00" fill="#000000"> アーカイブ日時</text>
<polygon fill="none" stroke="#000000" points="538.5,-73 538.5,-103 936.5,-103 936.5,-73 538.5,-73"/>
<text text-anchor="start" x="545.5" y="-84.4" font-family="Arial" font-size="14.00" fill="#000000">created_at    </text>
<text text-anchor="start" x="645.8422" y="-84.4" font-family="Arial" font-size="14.00" fill="#666666">[timestamp with time zone]</text>
<text text-anchor="start" x="811.5266" y="-84.4" font-family="Arial" font-size="14.00" fill="#000000"> 作成日時</text>
<polygon fill="none" stroke="#000000" points="538.5,-43 538.5,-73 936.5,-73 936.5,-43 538.5,-43"/>
<text text-anchor="start" x="545.5" y="-54.4" font-family="Arial" font-size="14.00" fill="#000000">updated_at    </text>
<text text-anchor="start" x="649.7468" y="-54.4" font-family="Arial" font-size="14.00" fill="#666666">[timestamp with time zone]</text>
<text text-anchor="start" x="815.4312" y="-54.4" font-family="Arial" font-size="14.00" fill="#000000"> 更新日時</text>
</g>
<!-- public.events&#45;&gt;public.event_series -->
<g id="edge2" class="edge">
<title>public.events:event_series_id&#45;&gt;public.event_series:id</title>
<path fill="none" stroke="#000000" d="M1425.6366,-947.8746C1532.8823,-923.2366 1485.4939,-501.3797 1415.5,-408 1348.9862,-319.2631 1047.3978,-268 936.5,-268"/>
<polygon fill="#000000" stroke="#000000" points="1425.4389,-947.8965 1415.0034,-944.5275 1420.4695,-948.4482 1415.5,-949 1415.5,-949 1415.5,-949 1420.4695,-948.4482 1415.9966,-953.4725 1425.4389,-947.8965 1425.4389,-947.8965"/>
<text text-anchor="start" x="1422.1005" y="-959" font-family="Arial" font-size="10.00" fill="#000000">FOREIGN KEY (event_series_id) REFERENCES event_series(id)</text>
</g>
<!-- public.sub_events -->
<g id="node2" class="node">
<title>public.sub_events</title>
<polygon fill="#efefef" stroke="transparent" points="43.5,-1555 43.5,-1601 1430.5,-1601 1430.5,-1555 43.5,-1555"/>
<polygon fill="none" stroke="#000000" points="43.5,-1555 43.5,-1601 1430.5,-1601 1430.5,-1555 43.5,-1555"/>
<text text-anchor="start" x="601.1917" y="-1578.8" font-family="Arial Bold" font-size="18.00" fill="#000000">public.sub_events</text>
<text text-anchor="start" x="745.2403" y="-1578.8" font-family="Arial" font-size="14.00" fill="#000000">    </text>
<text text-anchor="start" x="779.4451" y="-1578.8" font-family="Arial" font-size="14.00" fill="#666666">[BASE TABLE]</text>
<text text-anchor="start" x="696.9516" y="-1564.4" font-family="Arial" font-size="14.00" fill="#333333">サブイベント</text>
<polygon fill="none" stroke="#000000" points="43.5,-1525 43.5,-1555 1430.5,-1555 1430.5,-1525 43.5,-1525"/>
<text text-anchor="start" x="50.5" y="-1536.4" font-family="Arial" font-size="14.00" fill="#000000">id    </text>
<text text-anchor="start" x="95.594" y="-1536.4" font-family="Arial" font-size="14.00" fill="#666666">[text]</text>
<polygon fill="none" stroke="#000000" points="43.5,-1495 43.5,-1525 1430.5,-1525 1430.5,-1495 43.5,-1495"/>
<text text-anchor="start" x="50.5" y="-1506.4" font-family="Arial" font-size="14.00" fill="#000000">event_id    </text>
<text text-anchor="start" x="137.615" y="-1506.4" font-family="Arial" font-size="14.00" fill="#666666">[text]</text>
<text text-anchor="start" x="167.96" y="-1506.4" font-family="Arial" font-size="14.00" fill="#000000"> イベントID</text>
<polygon fill="none" stroke="#000000" points="43.5,-1465 43.5,-1495 1430.5,-1495 1430.5,-1465 43.5,-1465"/>
<text text-anchor="start" x="50.5" y="-1476.4" font-family="Arial" font-size="14.00" fill="#000000">name    </text>
<text text-anchor="start" x="119.7132" y="-1476.4" font-family="Arial" font-size="14.00" fill="#666666">[text]</text>
<text text-anchor="start" x="150.0582" y="-1476.4" font-family="Arial" font-size="14.00" fill="#000000"> 名前(例: 〇〇 2日目)</text>
<polygon fill="none" stroke="#000000" points="43.5,-1435 43.5,-1465 1430.5,-1465 1430.5,-1435 43.5,-1435"/>
<text text-anchor="start" x="50.5" y="-1446.4" font-family="Arial" font-size="14.00" fill="#000000">name_reading    </text>
<text text-anchor="start" x="174.176" y="-1446.4" font-family="Arial" font-size="14.00" fill="#666666">[text]</text>
<text text-anchor="start" x="204.521" y="-1446.4" font-family="Arial" font-size="14.00" fill="#000000"> 名前読み方</text>
<polygon fill="none" stroke="#000000" points="43.5,-1405 43.5,-1435 1430.5,-1435 1430.5,-1405 43.5,-1405"/>
<text text-anchor="start" x="50.5" y="-1416.4" font-family="Arial" font-size="14.00" fill="#000000">display_name    </text>
<text text-anchor="start" x="171.0568" y="-1416.4" font-family="Arial" font-size="14.00" fill="#666666">[text]</text>
<text text-anchor="start" x="201.4018" y="-1416.4" font-family="Arial" font-size="14.00" fill="#000000"> 表示名</text>
<polygon fill="none" stroke="#000000" points="43.5,-1375 43.5,-1405 1430.5,-1405 1430.5,-1375 43.5,-1375"/>
<text text-anchor="start" x="50.5" y="-1386.4" font-family="Arial" font-size="14.00" fill="#000000">slug    </text>
<text text-anchor="start" x="110.3766" y="-1386.4" font-family="Arial" font-size="14.00" fill="#666666">[text]</text>
<text text-anchor="start" x="140.7216" y="-1386.4" font-family="Arial" font-size="14.00" fill="#000000"> スラッグ</text>
<polygon fill="none" stroke="#000000" points="43.5,-1345 43.5,-1375 1430.5,-1375 1430.5,-1345 43.5,-1345"/>
<text text-anchor="start" x="50.5" y="-1356.4" font-family="Arial" font-size="14.00" fill="#000000">event_date    </text>
<text text-anchor="start" x="153.9642" y="-1356.4" font-family="Arial" font-size="14.00" fill="#666666">[date]</text>
<text text-anchor="start" x="188.9838" y="-1356.4" font-family="Arial" font-size="14.00" fill="#000000"> 開催日</text>
<polygon fill="none" stroke="#000000" points="43.5,-1315 43.5,-1345 1430.5,-1345 1430.5,-1315 43.5,-1315"/>
<text text-anchor="start" x="50.4533" y="-1326.4" font-family="Arial" font-size="14.00" fill="#000000">event_status    </text>
<text text-anchor="start" x="164.0255" y="-1326.4" font-family="Arial" font-size="14.00" fill="#666666">[event_status]</text>
<text text-anchor="start" x="251.1741" y="-1326.4" font-family="Arial" font-size="14.00" fill="#000000"> ステータス/scheduled: 開催済み, cancelled: 中止, postpone: 延期(開催日未定), rescheduled: 延期(開催日決定), moved_online: オンライン開催に変更, other: その他/default: scheduled</text>
<polygon fill="none" stroke="#000000" points="43.5,-1285 43.5,-1315 1430.5,-1315 1430.5,-1285 43.5,-1285"/>
<text text-anchor="start" x="50.5" y="-1296.4" font-family="Arial" font-size="14.00" fill="#000000">description    </text>
<text text-anchor="start" x="152.3822" y="-1296.4" font-family="Arial" font-size="14.00" fill="#666666">[text]</text>
<text text-anchor="start" x="182.7272" y="-1296.4" font-family="Arial" font-size="14.00" fill="#000000"> 説明</text>
<polygon fill="none" stroke="#000000" points="43.5,-1255 43.5,-1285 1430.5,-1285 1430.5,-1255 43.5,-1255"/>
<text text-anchor="start" x="50.5" y="-1266.4" font-family="Arial" font-size="14.00" fill="#000000">published_at    </text>
<text text-anchor="start" x="164.0694" y="-1266.4" font-family="Arial" font-size="14.00" fill="#666666">[timestamp with time zone]</text>
<text text-anchor="start" x="329.7538" y="-1266.4" font-family="Arial" font-size="14.00" fill="#000000"> 公開日時</text>
<polygon fill="none" stroke="#000000" points="43.5,-1225 43.5,-1255 1430.5,-1255 1430.5,-1225 43.5,-1225"/>
<text text-anchor="start" x="50.5" y="-1236.4" font-family="Arial" font-size="14.00" fill="#000000">archived_at    </text>
<text text-anchor="start" x="157.0582" y="-1236.4" font-family="Arial" font-size="14.00" fill="#666666">[timestamp with time zone]</text>
<text text-anchor="start" x="322.7426" y="-1236.4" font-family="Arial" font-size="14.00" fill="#000000"> アーカイブ日時</text>
<polygon fill="none" stroke="#000000" points="43.5,-1195 43.5,-1225 1430.5,-1225 1430.5,-1195 43.5,-1195"/>
<text text-anchor="start" x="50.5" y="-1206.4" font-family="Arial" font-size="14.00" fill="#000000">created_at    </text>
<text text-anchor="start" x="150.8422" y="-1206.4" font-family="Arial" font-size="14.00" fill="#666666">[timestamp with time zone]</text>
<text text-anchor="start" x="316.5266" y="-1206.4" font-family="Arial" font-size="14.00" fill="#000000"> 作成日時</text>
<polygon fill="none" stroke="#000000" points="43.5,-1165 43.5,-1195 1430.5,-1195 1430.5,-1165 43.5,-1165"/>
<text text-anchor="start" x="50.5" y="-1176.4" font-family="Arial" font-size="14.00" fill="#000000">updated_at    </text>
<text text-anchor="start" x="154.7468" y="-1176.4" font-family="Arial" font-size="14.00" fill="#666666">[timestamp with time zone]</text>
<text text-anchor="start" x="320.4312" y="-1176.4" font-family="Arial" font-size="14.00" fill="#000000"> 更新日時</text>
</g>
<!-- public.sub_events&#45;&gt;public.events -->
<g id="edge1" class="edge">
<title>public.sub_events:event_id&#45;&gt;public.events:id</title>
<path fill="none" stroke="#000000" d="M1440.5481,-1508.3943C1514.5272,-1483.6833 1488.1952,-1181.2301 1430.5,-1122 1377.3353,-1067.4209 112.6647,-1140.5791 59.5,-1086 26.3174,-1051.9347 11.9444,-979 59.5,-979"/>
<polygon fill="#000000" stroke="#000000" points="1440.3747,-1508.4219 1429.7899,-1505.5564 1435.4374,-1509.211 1430.5,-1510 1430.5,-1510 1430.5,-1510 1435.4374,-1509.211 1431.2101,-1514.4436 1440.3747,-1508.4219 1440.3747,-1508.4219"/>
<text text-anchor="start" x="1437.8255" y="-1520" font-family="Arial" font-size="10.00" fill="#000000">FOREIGN KEY (event_id) REFERENCES events(id)</text>
</g>
</g>
</svg>
