<?xml version="1.0" encoding="UTF-8" standalone="no"?>
<!DOCTYPE svg PUBLIC "-//W3C//DTD SVG 1.1//EN"
 "http://www.w3.org/Graphics/SVG/1.1/DTD/svg11.dtd">
<!-- Generated by graphviz version 2.40.1 (20161225.0304)
 -->
<!-- Title: public.circles Pages: 1 -->
<svg width="1809pt" height="734pt"
 viewBox="0.00 0.00 1809.00 734.00" xmlns="http://www.w3.org/2000/svg" xmlns:xlink="http://www.w3.org/1999/xlink">
<g id="graph0" class="graph" transform="scale(1 1) rotate(0) translate(4 730)">
<title>public.circles</title>
<polygon fill="#ffffff" stroke="transparent" points="-4,4 -4,-730 1805,-730 1805,4 -4,4"/>
<!-- public.circles -->
<g id="node1" class="node">
<title>public.circles</title>
<polygon fill="#efefef" stroke="transparent" points="556.5,-226 556.5,-272 1178.5,-272 1178.5,-226 556.5,-226"/>
<polygon fill="none" stroke="#000000" points="556.5,-226 556.5,-272 1178.5,-272 1178.5,-226 556.5,-226"/>
<text text-anchor="start" x="767.3751" y="-249.8" font-family="Arial Bold" font-size="18.00" fill="#000000">public.circles</text>
<text text-anchor="start" x="870.3711" y="-249.8" font-family="Arial" font-size="14.00" fill="#000000"> </text>
<text text-anchor="start" x="874.2617" y="-249.8" font-family="Arial" font-size="14.00" fill="#666666">[BASE TABLE]</text>
<text text-anchor="start" x="833.025" y="-235.4" font-family="Arial" font-size="14.00" fill="#333333">サークル</text>
<polygon fill="none" stroke="#000000" points="556.5,-196 556.5,-226 1178.5,-226 1178.5,-196 556.5,-196"/>
<text text-anchor="start" x="563.5" y="-207.4" font-family="Arial" font-size="14.00" fill="#000000">id </text>
<text text-anchor="start" x="578.2798" y="-207.4" font-family="Arial" font-size="14.00" fill="#666666">[text]</text>
<polygon fill="none" stroke="#000000" points="556.5,-166 556.5,-196 1178.5,-196 1178.5,-166 556.5,-166"/>
<text text-anchor="start" x="563.5" y="-177.4" font-family="Arial" font-size="14.00" fill="#000000">name </text>
<text text-anchor="start" x="602.399" y="-177.4" font-family="Arial" font-size="14.00" fill="#666666">[text]</text>
<text text-anchor="start" x="632.744" y="-177.4" font-family="Arial" font-size="14.00" fill="#000000"> 名前</text>
<polygon fill="none" stroke="#000000" points="556.5,-136 556.5,-166 1178.5,-166 1178.5,-136 556.5,-136"/>
<text text-anchor="start" x="563.0763" y="-147.4" font-family="Arial" font-size="14.00" fill="#000000">initial_letter_type </text>
<text text-anchor="start" x="671.9837" y="-147.4" font-family="Arial" font-size="14.00" fill="#666666">[initial_letter_type]</text>
<text text-anchor="start" x="784.7817" y="-147.4" font-family="Arial" font-size="14.00" fill="#000000"> 頭文字の文字種別(symbol,number,alphabet,kana,kanji,other)</text>
<polygon fill="none" stroke="#000000" points="556.5,-106 556.5,-136 1178.5,-136 1178.5,-106 556.5,-106"/>
<text text-anchor="start" x="563.5" y="-117.4" font-family="Arial" font-size="14.00" fill="#000000">initial_letter_detail </text>
<text text-anchor="start" x="679.4032" y="-117.4" font-family="Arial" font-size="14.00" fill="#666666">[text]</text>
<text text-anchor="start" x="709.7482" y="-117.4" font-family="Arial" font-size="14.00" fill="#000000"> 開催日</text>
<polygon fill="none" stroke="#000000" points="556.5,-76 556.5,-106 1178.5,-106 1178.5,-76 556.5,-76"/>
<text text-anchor="start" x="563.5" y="-87.4" font-family="Arial" font-size="14.00" fill="#000000">created_at </text>
<text text-anchor="start" x="633.528" y="-87.4" font-family="Arial" font-size="14.00" fill="#666666">[timestamp with time zone]</text>
<text text-anchor="start" x="799.2124" y="-87.4" font-family="Arial" font-size="14.00" fill="#000000"> 作成日時</text>
<polygon fill="none" stroke="#000000" points="556.5,-46 556.5,-76 1178.5,-76 1178.5,-46 556.5,-46"/>
<text text-anchor="start" x="563.5" y="-57.4" font-family="Arial" font-size="14.00" fill="#000000">updated_at </text>
<text text-anchor="start" x="637.4326" y="-57.4" font-family="Arial" font-size="14.00" fill="#666666">[timestamp with time zone]</text>
<text text-anchor="start" x="803.117" y="-57.4" font-family="Arial" font-size="14.00" fill="#000000"> 更新日時</text>
<polygon fill="none" stroke="#000000" stroke-width="3" points="555,-44.5 555,-273.5 1180,-273.5 1180,-44.5 555,-44.5"/>
</g>
<!-- public.circle_details -->
<g id="node2" class="node">
<title>public.circle_details</title>
<polygon fill="#efefef" stroke="transparent" points="43.5,-637 43.5,-683 390.5,-683 390.5,-637 43.5,-637"/>
<polygon fill="none" stroke="#000000" points="43.5,-637 43.5,-683 390.5,-683 390.5,-637 43.5,-637"/>
<text text-anchor="start" x="90.3674" y="-660.8" font-family="Arial Bold" font-size="18.00" fill="#000000">public.circle_details</text>
<text text-anchor="start" x="246.3788" y="-660.8" font-family="Arial" font-size="14.00" fill="#000000"> </text>
<text text-anchor="start" x="250.2694" y="-660.8" font-family="Arial" font-size="14.00" fill="#666666">[BASE TABLE]</text>
<text text-anchor="start" x="167.5702" y="-646.4" font-family="Arial" font-size="14.00" fill="#333333">サークル詳細</text>
<polygon fill="none" stroke="#000000" points="43.5,-607 43.5,-637 390.5,-637 390.5,-607 43.5,-607"/>
<text text-anchor="start" x="50.5" y="-618.4" font-family="Arial" font-size="14.00" fill="#000000">circle_id </text>
<text text-anchor="start" x="105.7188" y="-618.4" font-family="Arial" font-size="14.00" fill="#666666">[text]</text>
<text text-anchor="start" x="136.0638" y="-618.4" font-family="Arial" font-size="14.00" fill="#000000"> サークルID</text>
<polygon fill="none" stroke="#000000" points="43.5,-577 43.5,-607 390.5,-607 390.5,-577 43.5,-577"/>
<text text-anchor="start" x="50.5" y="-588.4" font-family="Arial" font-size="14.00" fill="#000000">description </text>
<text text-anchor="start" x="122.068" y="-588.4" font-family="Arial" font-size="14.00" fill="#666666">[text]</text>
<text text-anchor="start" x="152.413" y="-588.4" font-family="Arial" font-size="14.00" fill="#000000"> 説明</text>
<polygon fill="none" stroke="#000000" points="43.5,-547 43.5,-577 390.5,-577 390.5,-547 43.5,-547"/>
<text text-anchor="start" x="50.5" y="-558.4" font-family="Arial" font-size="14.00" fill="#000000">url </text>
<text text-anchor="start" x="69.9404" y="-558.4" font-family="Arial" font-size="14.00" fill="#666666">[text]</text>
<text text-anchor="start" x="100.2854" y="-558.4" font-family="Arial" font-size="14.00" fill="#000000"> URL</text>
<polygon fill="none" stroke="#000000" points="43.5,-517 43.5,-547 390.5,-547 390.5,-517 43.5,-517"/>
<text text-anchor="start" x="50.5" y="-528.4" font-family="Arial" font-size="14.00" fill="#000000">blog_url </text>
<text text-anchor="start" x="104.1774" y="-528.4" font-family="Arial" font-size="14.00" fill="#666666">[text]</text>
<text text-anchor="start" x="134.5224" y="-528.4" font-family="Arial" font-size="14.00" fill="#000000"> ブログ URL</text>
<polygon fill="none" stroke="#000000" points="43.5,-487 43.5,-517 390.5,-517 390.5,-487 43.5,-487"/>
<text text-anchor="start" x="50.5" y="-498.4" font-family="Arial" font-size="14.00" fill="#000000">twitter_url </text>
<text text-anchor="start" x="115.0512" y="-498.4" font-family="Arial" font-size="14.00" fill="#666666">[text]</text>
<text text-anchor="start" x="145.3962" y="-498.4" font-family="Arial" font-size="14.00" fill="#000000"> Twitter URL</text>
<polygon fill="none" stroke="#000000" points="43.5,-457 43.5,-487 390.5,-487 390.5,-457 43.5,-457"/>
<text text-anchor="start" x="50.386" y="-468.4" font-family="Arial" font-size="14.00" fill="#000000">youtube_channel_url </text>
<text text-anchor="start" x="184.2148" y="-468.4" font-family="Arial" font-size="14.00" fill="#666666">[text]</text>
<text text-anchor="start" x="214.5598" y="-468.4" font-family="Arial" font-size="14.00" fill="#000000"> YouTubeチャンネル URL</text>
<polygon fill="none" stroke="#000000" points="43.5,-427 43.5,-457 390.5,-457 390.5,-427 43.5,-427"/>
<text text-anchor="start" x="50.5" y="-438.4" font-family="Arial" font-size="14.00" fill="#000000">created_at </text>
<text text-anchor="start" x="120.528" y="-438.4" font-family="Arial" font-size="14.00" fill="#666666">[timestamp with time zone]</text>
<text text-anchor="start" x="286.2124" y="-438.4" font-family="Arial" font-size="14.00" fill="#000000"> 作成日時</text>
<polygon fill="none" stroke="#000000" points="43.5,-397 43.5,-427 390.5,-427 390.5,-397 43.5,-397"/>
<text text-anchor="start" x="50.5" y="-408.4" font-family="Arial" font-size="14.00" fill="#000000">updated_at </text>
<text text-anchor="start" x="124.4326" y="-408.4" font-family="Arial" font-size="14.00" fill="#666666">[timestamp with time zone]</text>
<text text-anchor="start" x="290.117" y="-408.4" font-family="Arial" font-size="14.00" fill="#000000"> 更新日時</text>
</g>
<!-- public.circle_details&#45;&gt;public.circles -->
<g id="edge1" class="edge">
<title>public.circle_details:circle_id&#45;&gt;public.circles:id</title>
<path fill="none" stroke="#000000" d="M400.5116,-619.7407C447.2569,-596.7958 418.62,-405.749 442.5,-354 476.5561,-280.1989 475.2201,-211 556.5,-211"/>
<polygon fill="#000000" stroke="#000000" points="400.2547,-619.7986 389.5094,-617.6104 395.3774,-620.8993 390.5,-622 390.5,-622 390.5,-622 395.3774,-620.8993 391.4906,-626.3896 400.2547,-619.7986 400.2547,-619.7986"/>
<text text-anchor="start" x="275.4555" y="-606" font-family="Arial" font-size="10.00" fill="#000000">FOREIGN KEY (circle_id) REFERENCES circles(id)</text>
</g>
<!-- public.albums_circles -->
<g id="node3" class="node">
<title>public.albums_circles</title>
<polygon fill="#efefef" stroke="transparent" points="494.5,-577 494.5,-623 808.5,-623 808.5,-577 494.5,-577"/>
<polygon fill="none" stroke="#000000" points="494.5,-577 494.5,-623 808.5,-623 808.5,-577 494.5,-577"/>
<text text-anchor="start" x="517.3695" y="-600.8" font-family="Arial Bold" font-size="18.00" fill="#000000">public.albums_circles</text>
<text text-anchor="start" x="688.3767" y="-600.8" font-family="Arial" font-size="14.00" fill="#000000"> </text>
<text text-anchor="start" x="692.2673" y="-600.8" font-family="Arial" font-size="14.00" fill="#666666">[BASE TABLE]</text>
<text text-anchor="start" x="522.6678" y="-586.4" font-family="Arial" font-size="14.00" fill="#333333">アルバムとサークルの中間テーブル</text>
<polygon fill="none" stroke="#000000" points="494.5,-547 494.5,-577 808.5,-577 808.5,-547 494.5,-547"/>
<text text-anchor="start" x="501.5" y="-558.4" font-family="Arial" font-size="14.00" fill="#000000">album_id </text>
<text text-anchor="start" x="562.1774" y="-558.4" font-family="Arial" font-size="14.00" fill="#666666">[text]</text>
<text text-anchor="start" x="592.5224" y="-558.4" font-family="Arial" font-size="14.00" fill="#000000"> アルバムID</text>
<polygon fill="none" stroke="#000000" points="494.5,-517 494.5,-547 808.5,-547 808.5,-517 494.5,-517"/>
<text text-anchor="start" x="501.5" y="-528.4" font-family="Arial" font-size="14.00" fill="#000000">circle_id </text>
<text text-anchor="start" x="556.7188" y="-528.4" font-family="Arial" font-size="14.00" fill="#666666">[text]</text>
<text text-anchor="start" x="587.0638" y="-528.4" font-family="Arial" font-size="14.00" fill="#000000"> サークルID</text>
<polygon fill="none" stroke="#000000" points="494.5,-487 494.5,-517 808.5,-517 808.5,-487 494.5,-487"/>
<text text-anchor="start" x="501.3542" y="-498.4" font-family="Arial" font-size="14.00" fill="#000000">created_at </text>
<text text-anchor="start" x="571.3822" y="-498.4" font-family="Arial" font-size="14.00" fill="#666666">[timestamp with time zone]</text>
<text text-anchor="start" x="737.0666" y="-498.4" font-family="Arial" font-size="14.00" fill="#000000"> 作成日時</text>
<polygon fill="none" stroke="#000000" points="494.5,-457 494.5,-487 808.5,-487 808.5,-457 494.5,-457"/>
<text text-anchor="start" x="501.5" y="-468.4" font-family="Arial" font-size="14.00" fill="#000000">updated_at </text>
<text text-anchor="start" x="575.4326" y="-468.4" font-family="Arial" font-size="14.00" fill="#666666">[timestamp with time zone]</text>
<text text-anchor="start" x="741.117" y="-468.4" font-family="Arial" font-size="14.00" fill="#000000"> 更新日時</text>
</g>
<!-- public.albums_circles&#45;&gt;public.circles -->
<g id="edge2" class="edge">
<title>public.albums_circles:circle_id&#45;&gt;public.circles:id</title>
<path fill="none" stroke="#000000" d="M818.4719,-530.9274C857.7194,-521.6353 836.1672,-454.1468 808.5,-414 740.4898,-315.3133 624.5102,-416.6867 556.5,-318 529.5145,-278.8425 508.9444,-211 556.5,-211"/>
<polygon fill="#000000" stroke="#000000" points="818.4426,-530.9304 808.0187,-527.5258 813.4713,-531.4652 808.5,-532 808.5,-532 808.5,-532 813.4713,-531.4652 808.9813,-536.4742 818.4426,-530.9304 818.4426,-530.9304"/>
<text text-anchor="start" x="632.2055" y="-516" font-family="Arial" font-size="10.00" fill="#000000">FOREIGN KEY (circle_id) REFERENCES circles(id)</text>
</g>
<!-- public.tracks_arrange_circles -->
<g id="node4" class="node">
<title>public.tracks_arrange_circles</title>
<polygon fill="#efefef" stroke="transparent" points="912.5,-577 912.5,-623 1256.5,-623 1256.5,-577 912.5,-577"/>
<polygon fill="none" stroke="#000000" points="912.5,-577 912.5,-623 1256.5,-623 1256.5,-577 912.5,-577"/>
<text text-anchor="start" x="919.3609" y="-600.8" font-family="Arial Bold" font-size="18.00" fill="#000000">public.tracks_arrange_circles</text>
<text text-anchor="start" x="1152.3853" y="-600.8" font-family="Arial" font-size="14.00" fill="#000000"> </text>
<text text-anchor="start" x="1156.2759" y="-600.8" font-family="Arial" font-size="14.00" fill="#666666">[BASE TABLE]</text>
<text text-anchor="start" x="1013.3387" y="-586.4" font-family="Arial" font-size="14.00" fill="#333333">楽曲編曲サークル</text>
<polygon fill="none" stroke="#000000" points="912.5,-547 912.5,-577 1256.5,-577 1256.5,-547 912.5,-547"/>
<text text-anchor="start" x="919.5" y="-558.4" font-family="Arial" font-size="14.00" fill="#000000">track_id </text>
<text text-anchor="start" x="972.3962" y="-558.4" font-family="Arial" font-size="14.00" fill="#666666">[text]</text>
<text text-anchor="start" x="1002.7412" y="-558.4" font-family="Arial" font-size="14.00" fill="#000000"> トラックID</text>
<polygon fill="none" stroke="#000000" points="912.5,-517 912.5,-547 1256.5,-547 1256.5,-517 912.5,-517"/>
<text text-anchor="start" x="919.5" y="-528.4" font-family="Arial" font-size="14.00" fill="#000000">circle_id </text>
<text text-anchor="start" x="974.7188" y="-528.4" font-family="Arial" font-size="14.00" fill="#666666">[text]</text>
<text text-anchor="start" x="1005.0638" y="-528.4" font-family="Arial" font-size="14.00" fill="#000000"> サークルID</text>
<polygon fill="none" stroke="#000000" points="912.5,-487 912.5,-517 1256.5,-517 1256.5,-487 912.5,-487"/>
<text text-anchor="start" x="919.5" y="-498.4" font-family="Arial" font-size="14.00" fill="#000000">created_at </text>
<text text-anchor="start" x="989.528" y="-498.4" font-family="Arial" font-size="14.00" fill="#666666">[timestamp with time zone]</text>
<text text-anchor="start" x="1155.2124" y="-498.4" font-family="Arial" font-size="14.00" fill="#000000"> 作成日時</text>
<polygon fill="none" stroke="#000000" points="912.5,-457 912.5,-487 1256.5,-487 1256.5,-457 912.5,-457"/>
<text text-anchor="start" x="919.5" y="-468.4" font-family="Arial" font-size="14.00" fill="#000000">updated_at </text>
<text text-anchor="start" x="993.4326" y="-468.4" font-family="Arial" font-size="14.00" fill="#666666">[timestamp with time zone]</text>
<text text-anchor="start" x="1159.117" y="-468.4" font-family="Arial" font-size="14.00" fill="#000000"> 更新日時</text>
</g>
<!-- public.tracks_arrange_circles&#45;&gt;public.circles -->
<g id="edge3" class="edge">
<title>public.tracks_arrange_circles:circle_id&#45;&gt;public.circles:id</title>
<path fill="none" stroke="#000000" d="M902.5229,-530.9237C863.231,-521.6008 884.48,-453.9014 912.5,-414 984.73,-311.142 1106.27,-420.858 1178.5,-318 1205.8295,-279.0818 1226.0556,-211 1178.5,-211"/>
<polygon fill="#000000" stroke="#000000" points="902.5577,-530.9274 912.0173,-536.474 907.5288,-531.4637 912.5,-532 912.5,-532 912.5,-532 907.5288,-531.4637 912.9827,-527.526 902.5577,-530.9274 902.5577,-530.9274"/>
<text text-anchor="start" x="919.9555" y="-542" font-family="Arial" font-size="10.00" fill="#000000">FOREIGN KEY (circle_id) REFERENCES circles(id)</text>
</g>
<!-- public.circles_tags -->
<g id="node5" class="node">
<title>public.circles_tags</title>
<polygon fill="#efefef" stroke="transparent" points="1361.5,-592 1361.5,-638 1758.5,-638 1758.5,-592 1361.5,-592"/>
<polygon fill="none" stroke="#000000" points="1361.5,-592 1361.5,-638 1758.5,-638 1758.5,-592 1361.5,-592"/>
<text text-anchor="start" x="1437.8647" y="-615.8" font-family="Arial Bold" font-size="18.00" fill="#000000">public.circles_tags</text>
<text text-anchor="start" x="1584.8815" y="-615.8" font-family="Arial" font-size="14.00" fill="#000000"> </text>
<text text-anchor="start" x="1588.7721" y="-615.8" font-family="Arial" font-size="14.00" fill="#666666">[BASE TABLE]</text>
<text text-anchor="start" x="1510.2342" y="-601.4" font-family="Arial" font-size="14.00" fill="#333333">サークルタグ</text>
<polygon fill="none" stroke="#000000" points="1361.5,-562 1361.5,-592 1758.5,-592 1758.5,-562 1361.5,-562"/>
<text text-anchor="start" x="1368.5" y="-573.4" font-family="Arial" font-size="14.00" fill="#000000">circle_id </text>
<text text-anchor="start" x="1423.7188" y="-573.4" font-family="Arial" font-size="14.00" fill="#666666">[text]</text>
<text text-anchor="start" x="1454.0638" y="-573.4" font-family="Arial" font-size="14.00" fill="#000000"> サークルID</text>
<polygon fill="none" stroke="#000000" points="1361.5,-532 1361.5,-562 1758.5,-562 1758.5,-532 1361.5,-532"/>
<text text-anchor="start" x="1368.5" y="-543.4" font-family="Arial" font-size="14.00" fill="#000000">tag_id </text>
<text text-anchor="start" x="1410.5182" y="-543.4" font-family="Arial" font-size="14.00" fill="#666666">[text]</text>
<text text-anchor="start" x="1440.8632" y="-543.4" font-family="Arial" font-size="14.00" fill="#000000"> タグID</text>
<polygon fill="none" stroke="#000000" points="1361.5,-502 1361.5,-532 1758.5,-532 1758.5,-502 1361.5,-502"/>
<text text-anchor="start" x="1368.2826" y="-513.4" font-family="Arial" font-size="14.00" fill="#000000">locked </text>
<text text-anchor="start" x="1412.6276" y="-513.4" font-family="Arial" font-size="14.00" fill="#666666">[boolean]</text>
<text text-anchor="start" x="1470.211" y="-513.4" font-family="Arial" font-size="14.00" fill="#000000"> ロック有無(true: ロック、false: アンロック)</text>
<polygon fill="none" stroke="#000000" points="1361.5,-472 1361.5,-502 1758.5,-502 1758.5,-472 1361.5,-472"/>
<text text-anchor="start" x="1368.5" y="-483.4" font-family="Arial" font-size="14.00" fill="#000000">created_at </text>
<text text-anchor="start" x="1438.528" y="-483.4" font-family="Arial" font-size="14.00" fill="#666666">[timestamp with time zone]</text>
<text text-anchor="start" x="1604.2124" y="-483.4" font-family="Arial" font-size="14.00" fill="#000000"> 作成日時</text>
<polygon fill="none" stroke="#000000" points="1361.5,-442 1361.5,-472 1758.5,-472 1758.5,-442 1361.5,-442"/>
<text text-anchor="start" x="1368.5" y="-453.4" font-family="Arial" font-size="14.00" fill="#000000">updated_at </text>
<text text-anchor="start" x="1442.4326" y="-453.4" font-family="Arial" font-size="14.00" fill="#666666">[timestamp with time zone]</text>
<text text-anchor="start" x="1608.117" y="-453.4" font-family="Arial" font-size="14.00" fill="#000000"> 更新日時</text>
</g>
<!-- public.circles_tags&#45;&gt;public.circles -->
<g id="edge4" class="edge">
<title>public.circles_tags:circle_id&#45;&gt;public.circles:id</title>
<path fill="none" stroke="#000000" d="M1351.4761,-576.5148C1266.2296,-567.7081 1354.374,-440.9286 1308.5,-354 1268.4122,-278.0359 1264.3928,-211 1178.5,-211"/>
<polygon fill="#000000" stroke="#000000" points="1351.5117,-576.5165 1361.2824,-581.4947 1356.5058,-576.7582 1361.5,-577 1361.5,-577 1361.5,-577 1356.5058,-576.7582 1361.7176,-572.5053 1351.5117,-576.5165 1351.5117,-576.5165"/>
<text text-anchor="start" x="1123.9555" y="-587" font-family="Arial" font-size="10.00" fill="#000000">FOREIGN KEY (circle_id) REFERENCES circles(id)</text>
</g>
</g>
</svg>
