<?xml version="1.0" encoding="UTF-8" standalone="no"?>
<!DOCTYPE svg PUBLIC "-//W3C//DTD SVG 1.1//EN"
 "http://www.w3.org/Graphics/SVG/1.1/DTD/svg11.dtd">
<!-- Generated by graphviz version 2.40.1 (20161225.0304)
 -->
<!-- Title: public.tracks_rearrangers Pages: 1 -->
<svg width="1400pt" height="974pt"
 viewBox="0.00 0.00 1399.50 974.00" xmlns="http://www.w3.org/2000/svg" xmlns:xlink="http://www.w3.org/1999/xlink">
<g id="graph0" class="graph" transform="scale(1 1) rotate(0) translate(4 970)">
<title>public.tracks_rearrangers</title>
<polygon fill="#ffffff" stroke="transparent" points="-4,4 -4,-970 1395.5,-970 1395.5,4 -4,4"/>
<!-- public.tracks_rearrangers -->
<g id="node1" class="node">
<title>public.tracks_rearrangers</title>
<polygon fill="#efefef" stroke="transparent" points="528.5,-874 528.5,-920 842.5,-920 842.5,-874 528.5,-874"/>
<polygon fill="none" stroke="#000000" points="528.5,-874 528.5,-920 842.5,-920 842.5,-874 528.5,-874"/>
<text text-anchor="start" x="535.3621" y="-897.8" font-family="Arial Bold" font-size="18.00" fill="#000000">public.tracks_rearrangers</text>
<text text-anchor="start" x="738.3841" y="-897.8" font-family="Arial" font-size="14.00" fill="#000000"> </text>
<text text-anchor="start" x="742.2747" y="-897.8" font-family="Arial" font-size="14.00" fill="#666666">[BASE TABLE]</text>
<text text-anchor="start" x="635.1959" y="-883.4" font-family="Arial" font-size="14.00" fill="#333333">楽曲再編曲者</text>
<polygon fill="none" stroke="#000000" points="528.5,-844 528.5,-874 842.5,-874 842.5,-844 528.5,-844"/>
<text text-anchor="start" x="535.5" y="-855.4" font-family="Arial" font-size="14.00" fill="#000000">track_id </text>
<text text-anchor="start" x="588.3962" y="-855.4" font-family="Arial" font-size="14.00" fill="#666666">[text]</text>
<text text-anchor="start" x="618.7412" y="-855.4" font-family="Arial" font-size="14.00" fill="#000000"> トラックID</text>
<polygon fill="none" stroke="#000000" points="528.5,-814 528.5,-844 842.5,-844 842.5,-814 528.5,-814"/>
<text text-anchor="start" x="535.5" y="-825.4" font-family="Arial" font-size="14.00" fill="#000000">artist_id </text>
<text text-anchor="start" x="588.3934" y="-825.4" font-family="Arial" font-size="14.00" fill="#666666">[text]</text>
<text text-anchor="start" x="618.7384" y="-825.4" font-family="Arial" font-size="14.00" fill="#000000"> 再編曲者ID(アーティストID)</text>
<polygon fill="none" stroke="#000000" points="528.5,-784 528.5,-814 842.5,-814 842.5,-784 528.5,-784"/>
<text text-anchor="start" x="535.3542" y="-795.4" font-family="Arial" font-size="14.00" fill="#000000">created_at </text>
<text text-anchor="start" x="605.3822" y="-795.4" font-family="Arial" font-size="14.00" fill="#666666">[timestamp with time zone]</text>
<text text-anchor="start" x="771.0666" y="-795.4" font-family="Arial" font-size="14.00" fill="#000000"> 作成日時</text>
<polygon fill="none" stroke="#000000" points="528.5,-754 528.5,-784 842.5,-784 842.5,-754 528.5,-754"/>
<text text-anchor="start" x="535.5" y="-765.4" font-family="Arial" font-size="14.00" fill="#000000">updated_at </text>
<text text-anchor="start" x="609.4326" y="-765.4" font-family="Arial" font-size="14.00" fill="#666666">[timestamp with time zone]</text>
<text text-anchor="start" x="775.117" y="-765.4" font-family="Arial" font-size="14.00" fill="#000000"> 更新日時</text>
<polygon fill="none" stroke="#000000" stroke-width="3" points="527,-752.5 527,-921.5 844,-921.5 844,-752.5 527,-752.5"/>
</g>
<!-- public.tracks -->
<g id="node2" class="node">
<title>public.tracks</title>
<polygon fill="#efefef" stroke="transparent" points="43.5,-583 43.5,-629 622.5,-629 622.5,-583 43.5,-583"/>
<polygon fill="none" stroke="#000000" points="43.5,-583 43.5,-629 622.5,-629 622.5,-583 43.5,-583"/>
<text text-anchor="start" x="234.3682" y="-606.8" font-family="Arial Bold" font-size="18.00" fill="#000000">public.tracks</text>
<text text-anchor="start" x="334.378" y="-606.8" font-family="Arial" font-size="14.00" fill="#000000"> </text>
<text text-anchor="start" x="338.2686" y="-606.8" font-family="Arial" font-size="14.00" fill="#666666">[BASE TABLE]</text>
<text text-anchor="start" x="306.1347" y="-592.4" font-family="Arial" font-size="14.00" fill="#333333">トラック</text>
<polygon fill="none" stroke="#000000" points="43.5,-553 43.5,-583 622.5,-583 622.5,-553 43.5,-553"/>
<text text-anchor="start" x="50.5" y="-564.4" font-family="Arial" font-size="14.00" fill="#000000">id </text>
<text text-anchor="start" x="65.2798" y="-564.4" font-family="Arial" font-size="14.00" fill="#666666">[text]</text>
<polygon fill="none" stroke="#000000" points="43.5,-523 43.5,-553 622.5,-553 622.5,-523 43.5,-523"/>
<text text-anchor="start" x="50.5" y="-534.4" font-family="Arial" font-size="14.00" fill="#000000">album_id </text>
<text text-anchor="start" x="111.1774" y="-534.4" font-family="Arial" font-size="14.00" fill="#666666">[text]</text>
<text text-anchor="start" x="141.5224" y="-534.4" font-family="Arial" font-size="14.00" fill="#000000"> アルバムID</text>
<polygon fill="none" stroke="#000000" points="43.5,-493 43.5,-523 622.5,-523 622.5,-493 43.5,-493"/>
<text text-anchor="start" x="50.5" y="-504.4" font-family="Arial" font-size="14.00" fill="#000000">name </text>
<text text-anchor="start" x="89.399" y="-504.4" font-family="Arial" font-size="14.00" fill="#666666">[text]</text>
<text text-anchor="start" x="119.744" y="-504.4" font-family="Arial" font-size="14.00" fill="#000000"> 名前</text>
<polygon fill="none" stroke="#000000" points="43.5,-463 43.5,-493 622.5,-493 622.5,-463 43.5,-463"/>
<text text-anchor="start" x="50.5" y="-474.4" font-family="Arial" font-size="14.00" fill="#000000">name_reading </text>
<text text-anchor="start" x="143.8618" y="-474.4" font-family="Arial" font-size="14.00" fill="#666666">[text]</text>
<text text-anchor="start" x="174.2068" y="-474.4" font-family="Arial" font-size="14.00" fill="#000000"> 名前読み方</text>
<polygon fill="none" stroke="#000000" points="43.5,-433 43.5,-463 622.5,-463 622.5,-433 43.5,-433"/>
<text text-anchor="start" x="50.5" y="-444.4" font-family="Arial" font-size="14.00" fill="#000000">disc_number </text>
<text text-anchor="start" x="134.514" y="-444.4" font-family="Arial" font-size="14.00" fill="#666666">[integer]</text>
<text text-anchor="start" x="185.0834" y="-444.4" font-family="Arial" font-size="14.00" fill="#000000"> ディスク番号(default: 1)</text>
<polygon fill="none" stroke="#000000" points="43.5,-403 43.5,-433 622.5,-433 622.5,-403 43.5,-403"/>
<text text-anchor="start" x="50.5" y="-414.4" font-family="Arial" font-size="14.00" fill="#000000">track_number </text>
<text text-anchor="start" x="139.9586" y="-414.4" font-family="Arial" font-size="14.00" fill="#666666">[integer]</text>
<text text-anchor="start" x="190.528" y="-414.4" font-family="Arial" font-size="14.00" fill="#000000"> トラック番号</text>
<polygon fill="none" stroke="#000000" points="43.5,-373 43.5,-403 622.5,-403 622.5,-373 43.5,-373"/>
<text text-anchor="start" x="50.5" y="-384.4" font-family="Arial" font-size="14.00" fill="#000000">release_date </text>
<text text-anchor="start" x="135.3092" y="-384.4" font-family="Arial" font-size="14.00" fill="#666666">[date]</text>
<text text-anchor="start" x="170.3288" y="-384.4" font-family="Arial" font-size="14.00" fill="#000000"> 頒布日(アルバムの頒布日と異なる場合に使用する)</text>
<polygon fill="none" stroke="#000000" points="43.5,-343 43.5,-373 622.5,-373 622.5,-343 43.5,-343"/>
<text text-anchor="start" x="50.5" y="-354.4" font-family="Arial" font-size="14.00" fill="#000000">search_enabled </text>
<text text-anchor="start" x="153.9838" y="-354.4" font-family="Arial" font-size="14.00" fill="#666666">[boolean]</text>
<text text-anchor="start" x="211.5672" y="-354.4" font-family="Arial" font-size="14.00" fill="#000000"> 検索対象とするか(default: true)</text>
<polygon fill="none" stroke="#000000" points="43.5,-313 43.5,-343 622.5,-343 622.5,-313 43.5,-313"/>
<text text-anchor="start" x="50.5" y="-324.4" font-family="Arial" font-size="14.00" fill="#000000">length </text>
<text text-anchor="start" x="92.5182" y="-324.4" font-family="Arial" font-size="14.00" fill="#666666">[integer]</text>
<text text-anchor="start" x="143.0876" y="-324.4" font-family="Arial" font-size="14.00" fill="#000000"> 曲の長さ(秒)</text>
<polygon fill="none" stroke="#000000" points="43.5,-283 43.5,-313 622.5,-313 622.5,-283 43.5,-283"/>
<text text-anchor="start" x="50.5" y="-294.4" font-family="Arial" font-size="14.00" fill="#000000">bpm </text>
<text text-anchor="start" x="81.6164" y="-294.4" font-family="Arial" font-size="14.00" fill="#666666">[integer]</text>
<text text-anchor="start" x="132.1858" y="-294.4" font-family="Arial" font-size="14.00" fill="#000000"> BPM</text>
<polygon fill="none" stroke="#000000" points="43.5,-253 43.5,-283 622.5,-283 622.5,-253 43.5,-253"/>
<text text-anchor="start" x="50.5" y="-264.4" font-family="Arial" font-size="14.00" fill="#000000">display_composer </text>
<text text-anchor="start" x="167.1858" y="-264.4" font-family="Arial" font-size="14.00" fill="#666666">[text]</text>
<text text-anchor="start" x="197.5308" y="-264.4" font-family="Arial" font-size="14.00" fill="#000000"> 作曲者表示用(1度しか使用しない別名義などで使用する)</text>
<polygon fill="none" stroke="#000000" points="43.5,-223 43.5,-253 622.5,-253 622.5,-223 43.5,-223"/>
<text text-anchor="start" x="50.5" y="-234.4" font-family="Arial" font-size="14.00" fill="#000000">display_arranger </text>
<text text-anchor="start" x="158.629" y="-234.4" font-family="Arial" font-size="14.00" fill="#666666">[text]</text>
<text text-anchor="start" x="188.974" y="-234.4" font-family="Arial" font-size="14.00" fill="#000000"> 編曲者表示用(1度しか使用しない別名義などで使用する)</text>
<polygon fill="none" stroke="#000000" points="43.5,-193 43.5,-223 622.5,-223 622.5,-193 43.5,-193"/>
<text text-anchor="start" x="50.5" y="-204.4" font-family="Arial" font-size="14.00" fill="#000000">display_rearranger </text>
<text text-anchor="start" x="171.0722" y="-204.4" font-family="Arial" font-size="14.00" fill="#666666">[text]</text>
<text text-anchor="start" x="201.4172" y="-204.4" font-family="Arial" font-size="14.00" fill="#000000"> 再編曲者表示用(1度しか使用しない別名義などで使用する)</text>
<polygon fill="none" stroke="#000000" points="43.5,-163 43.5,-193 622.5,-193 622.5,-163 43.5,-163"/>
<text text-anchor="start" x="50.5" y="-174.4" font-family="Arial" font-size="14.00" fill="#000000">display_lyricist </text>
<text text-anchor="start" x="144.6052" y="-174.4" font-family="Arial" font-size="14.00" fill="#666666">[text]</text>
<text text-anchor="start" x="174.9502" y="-174.4" font-family="Arial" font-size="14.00" fill="#000000"> 作詞者表示用(1度しか使用しない別名義などで使用する)</text>
<polygon fill="none" stroke="#000000" points="43.5,-133 43.5,-163 622.5,-163 622.5,-133 43.5,-133"/>
<text text-anchor="start" x="50.4653" y="-144.4" font-family="Arial" font-size="14.00" fill="#000000">display_vocalist </text>
<text text-anchor="start" x="152.3685" y="-144.4" font-family="Arial" font-size="14.00" fill="#666666">[text]</text>
<text text-anchor="start" x="182.7135" y="-144.4" font-family="Arial" font-size="14.00" fill="#000000"> ボーカリスト表示用(1度しか使用しない別名義などで使用する)</text>
<polygon fill="none" stroke="#000000" points="43.5,-103 43.5,-133 622.5,-133 622.5,-103 43.5,-103"/>
<text text-anchor="start" x="50.5" y="-114.4" font-family="Arial" font-size="14.00" fill="#000000">display_original_song </text>
<text text-anchor="start" x="188.9754" y="-114.4" font-family="Arial" font-size="14.00" fill="#666666">[text]</text>
<text text-anchor="start" x="219.3204" y="-114.4" font-family="Arial" font-size="14.00" fill="#000000"> 原曲表示用(東方以外の原曲などで使用する)</text>
<polygon fill="none" stroke="#000000" points="43.5,-73 43.5,-103 622.5,-103 622.5,-73 43.5,-73"/>
<text text-anchor="start" x="50.5" y="-84.4" font-family="Arial" font-size="14.00" fill="#000000">created_at </text>
<text text-anchor="start" x="120.528" y="-84.4" font-family="Arial" font-size="14.00" fill="#666666">[timestamp with time zone]</text>
<text text-anchor="start" x="286.2124" y="-84.4" font-family="Arial" font-size="14.00" fill="#000000"> 作成日時</text>
<polygon fill="none" stroke="#000000" points="43.5,-43 43.5,-73 622.5,-73 622.5,-43 43.5,-43"/>
<text text-anchor="start" x="50.5" y="-54.4" font-family="Arial" font-size="14.00" fill="#000000">updated_at </text>
<text text-anchor="start" x="124.4326" y="-54.4" font-family="Arial" font-size="14.00" fill="#666666">[timestamp with time zone]</text>
<text text-anchor="start" x="290.117" y="-54.4" font-family="Arial" font-size="14.00" fill="#000000"> 更新日時</text>
</g>
<!-- public.tracks_rearrangers&#45;&gt;public.tracks -->
<g id="edge1" class="edge">
<title>public.tracks_rearrangers:track_id&#45;&gt;public.tracks:id</title>
<path fill="none" stroke="#000000" d="M518.3383,-858.1636C464.596,-848.653 492.5465,-760.2695 528.5,-708 553.8534,-671.141 597.1466,-708.859 622.5,-672 648.6953,-633.9172 668.7222,-568 622.5,-568"/>
<polygon fill="#000000" stroke="#000000" points="518.5337,-858.1796 528.1308,-863.4848 523.5169,-858.5898 528.5,-859 528.5,-859 528.5,-859 523.5169,-858.5898 528.8692,-854.5152 518.5337,-858.1796 518.5337,-858.1796"/>
<text text-anchor="start" x="294.6145" y="-869" font-family="Arial" font-size="10.00" fill="#000000">FOREIGN KEY (track_id) REFERENCES tracks(id)</text>
</g>
<!-- public.artists -->
<g id="node3" class="node">
<title>public.artists</title>
<polygon fill="#efefef" stroke="transparent" points="726.5,-493 726.5,-539 1348.5,-539 1348.5,-493 726.5,-493"/>
<polygon fill="none" stroke="#000000" points="726.5,-493 726.5,-539 1348.5,-539 1348.5,-493 726.5,-493"/>
<text text-anchor="start" x="938.87" y="-516.8" font-family="Arial Bold" font-size="18.00" fill="#000000">public.artists</text>
<text text-anchor="start" x="1038.8762" y="-516.8" font-family="Arial" font-size="14.00" fill="#000000"> </text>
<text text-anchor="start" x="1042.7668" y="-516.8" font-family="Arial" font-size="14.00" fill="#666666">[BASE TABLE]</text>
<text text-anchor="start" x="989.2889" y="-502.4" font-family="Arial" font-size="14.00" fill="#333333">アーティスト</text>
<polygon fill="none" stroke="#000000" points="726.5,-463 726.5,-493 1348.5,-493 1348.5,-463 726.5,-463"/>
<text text-anchor="start" x="733.5" y="-474.4" font-family="Arial" font-size="14.00" fill="#000000">id </text>
<text text-anchor="start" x="748.2798" y="-474.4" font-family="Arial" font-size="14.00" fill="#666666">[text]</text>
<polygon fill="none" stroke="#000000" points="726.5,-433 726.5,-463 1348.5,-463 1348.5,-433 726.5,-433"/>
<text text-anchor="start" x="733.5" y="-444.4" font-family="Arial" font-size="14.00" fill="#000000">name </text>
<text text-anchor="start" x="772.399" y="-444.4" font-family="Arial" font-size="14.00" fill="#666666">[text]</text>
<text text-anchor="start" x="802.744" y="-444.4" font-family="Arial" font-size="14.00" fill="#000000"> 名前</text>
<polygon fill="none" stroke="#000000" points="726.5,-403 726.5,-433 1348.5,-433 1348.5,-403 726.5,-403"/>
<text text-anchor="start" x="733.5" y="-414.4" font-family="Arial" font-size="14.00" fill="#000000">name_reading </text>
<text text-anchor="start" x="826.8618" y="-414.4" font-family="Arial" font-size="14.00" fill="#666666">[text]</text>
<text text-anchor="start" x="857.2068" y="-414.4" font-family="Arial" font-size="14.00" fill="#000000"> 名前読み方</text>
<polygon fill="none" stroke="#000000" points="726.5,-373 726.5,-403 1348.5,-403 1348.5,-373 726.5,-373"/>
<text text-anchor="start" x="733.0763" y="-384.4" font-family="Arial" font-size="14.00" fill="#000000">initial_letter_type </text>
<text text-anchor="start" x="841.9837" y="-384.4" font-family="Arial" font-size="14.00" fill="#666666">[initial_letter_type]</text>
<text text-anchor="start" x="954.7817" y="-384.4" font-family="Arial" font-size="14.00" fill="#000000"> 頭文字の文字種別(symbol,number,alphabet,kana,kanji,other)</text>
<polygon fill="none" stroke="#000000" points="726.5,-343 726.5,-373 1348.5,-373 1348.5,-343 726.5,-343"/>
<text text-anchor="start" x="733.5" y="-354.4" font-family="Arial" font-size="14.00" fill="#000000">initial_letter_detail </text>
<text text-anchor="start" x="849.4032" y="-354.4" font-family="Arial" font-size="14.00" fill="#666666">[text]</text>
<text text-anchor="start" x="879.7482" y="-354.4" font-family="Arial" font-size="14.00" fill="#000000"> 頭文字の文字種別詳細</text>
<polygon fill="none" stroke="#000000" points="726.5,-313 726.5,-343 1348.5,-343 1348.5,-313 726.5,-313"/>
<text text-anchor="start" x="733.5" y="-324.4" font-family="Arial" font-size="14.00" fill="#000000">description </text>
<text text-anchor="start" x="805.068" y="-324.4" font-family="Arial" font-size="14.00" fill="#666666">[text]</text>
<text text-anchor="start" x="835.413" y="-324.4" font-family="Arial" font-size="14.00" fill="#000000"> 説明</text>
<polygon fill="none" stroke="#000000" points="726.5,-283 726.5,-313 1348.5,-313 1348.5,-283 726.5,-283"/>
<text text-anchor="start" x="733.5" y="-294.4" font-family="Arial" font-size="14.00" fill="#000000">url </text>
<text text-anchor="start" x="752.9404" y="-294.4" font-family="Arial" font-size="14.00" fill="#666666">[text]</text>
<text text-anchor="start" x="783.2854" y="-294.4" font-family="Arial" font-size="14.00" fill="#000000"> URL</text>
<polygon fill="none" stroke="#000000" points="726.5,-253 726.5,-283 1348.5,-283 1348.5,-253 726.5,-253"/>
<text text-anchor="start" x="733.5" y="-264.4" font-family="Arial" font-size="14.00" fill="#000000">blog_url </text>
<text text-anchor="start" x="787.1774" y="-264.4" font-family="Arial" font-size="14.00" fill="#666666">[text]</text>
<text text-anchor="start" x="817.5224" y="-264.4" font-family="Arial" font-size="14.00" fill="#000000"> ブログ URL</text>
<polygon fill="none" stroke="#000000" points="726.5,-223 726.5,-253 1348.5,-253 1348.5,-223 726.5,-223"/>
<text text-anchor="start" x="733.5" y="-234.4" font-family="Arial" font-size="14.00" fill="#000000">twitter_url </text>
<text text-anchor="start" x="798.0512" y="-234.4" font-family="Arial" font-size="14.00" fill="#666666">[text]</text>
<text text-anchor="start" x="828.3962" y="-234.4" font-family="Arial" font-size="14.00" fill="#000000"> Twitter URL</text>
<polygon fill="none" stroke="#000000" points="726.5,-193 726.5,-223 1348.5,-223 1348.5,-193 726.5,-193"/>
<text text-anchor="start" x="733.5" y="-204.4" font-family="Arial" font-size="14.00" fill="#000000">youtube_channel_url </text>
<text text-anchor="start" x="867.3288" y="-204.4" font-family="Arial" font-size="14.00" fill="#666666">[text]</text>
<text text-anchor="start" x="897.6738" y="-204.4" font-family="Arial" font-size="14.00" fill="#000000"> YouTubeチャンネル URL</text>
<polygon fill="none" stroke="#000000" points="726.5,-163 726.5,-193 1348.5,-193 1348.5,-163 726.5,-163"/>
<text text-anchor="start" x="733.5" y="-174.4" font-family="Arial" font-size="14.00" fill="#000000">created_at </text>
<text text-anchor="start" x="803.528" y="-174.4" font-family="Arial" font-size="14.00" fill="#666666">[timestamp with time zone]</text>
<text text-anchor="start" x="969.2124" y="-174.4" font-family="Arial" font-size="14.00" fill="#000000"> 作成日時</text>
<polygon fill="none" stroke="#000000" points="726.5,-133 726.5,-163 1348.5,-163 1348.5,-133 726.5,-133"/>
<text text-anchor="start" x="733.5" y="-144.4" font-family="Arial" font-size="14.00" fill="#000000">updated_at </text>
<text text-anchor="start" x="807.4326" y="-144.4" font-family="Arial" font-size="14.00" fill="#666666">[timestamp with time zone]</text>
<text text-anchor="start" x="973.117" y="-144.4" font-family="Arial" font-size="14.00" fill="#000000"> 更新日時</text>
</g>
<!-- public.tracks_rearrangers&#45;&gt;public.artists -->
<g id="edge2" class="edge">
<title>public.tracks_rearrangers:artist_id&#45;&gt;public.artists:id</title>
<path fill="none" stroke="#000000" d="M852.5742,-827.9803C891.537,-819.1323 860.675,-754.576 842.5,-708 814.8291,-637.0895 754.1709,-652.9105 726.5,-582 709.697,-538.9401 680.2778,-478 726.5,-478"/>
<polygon fill="#000000" stroke="#000000" points="852.4492,-827.9929 842.0468,-824.5229 847.4746,-828.4964 842.5,-829 842.5,-829 842.5,-829 847.4746,-828.4964 842.9532,-833.4771 852.4492,-827.9929 852.4492,-827.9929"/>
<text text-anchor="start" x="849.6165" y="-839" font-family="Arial" font-size="10.00" fill="#000000">FOREIGN KEY (artist_id) REFERENCES artists(id)</text>
</g>
</g>
</svg>
