<?xml version="1.0" encoding="UTF-8" standalone="no"?>
<!DOCTYPE svg PUBLIC "-//W3C//DTD SVG 1.1//EN"
 "http://www.w3.org/Graphics/SVG/1.1/DTD/svg11.dtd">
<!-- Generated by graphviz version 2.40.1 (20161225.0304)
 -->
<!-- Title: public.genres Pages: 1 -->
<svg width="1727pt" height="614pt"
 viewBox="0.00 0.00 1727.00 614.00" xmlns="http://www.w3.org/2000/svg" xmlns:xlink="http://www.w3.org/1999/xlink">
<g id="graph0" class="graph" transform="scale(1 1) rotate(0) translate(4 610)">
<title>public.genres</title>
<polygon fill="#ffffff" stroke="transparent" points="-4,4 -4,-610 1723,-610 1723,4 -4,4"/>
<!-- public.genres -->
<g id="node1" class="node">
<title>public.genres</title>
<polygon fill="#efefef" stroke="transparent" points="739.5,-166 739.5,-212 1053.5,-212 1053.5,-166 739.5,-166"/>
<polygon fill="none" stroke="#000000" points="739.5,-166 739.5,-212 1053.5,-212 1053.5,-166 739.5,-166"/>
<text text-anchor="start" x="779.2029" y="-189.8" font-family="Arial Bold" font-size="18.00" fill="#000000">public.genres</text>
<text text-anchor="start" x="886.2291" y="-189.8" font-family="Arial" font-size="14.00" fill="#000000">    </text>
<text text-anchor="start" x="920.4339" y="-189.8" font-family="Arial" font-size="14.00" fill="#666666">[BASE TABLE]</text>
<text text-anchor="start" x="865.1344" y="-175.4" font-family="Arial" font-size="14.00" fill="#333333">ジャンル</text>
<polygon fill="none" stroke="#000000" points="739.5,-136 739.5,-166 1053.5,-166 1053.5,-136 739.5,-136"/>
<text text-anchor="start" x="746.5" y="-147.4" font-family="Arial" font-size="14.00" fill="#000000">id </text>
<text text-anchor="start" x="761.2798" y="-147.4" font-family="Arial" font-size="14.00" fill="#666666">[text]</text>
<text text-anchor="start" x="791.6248" y="-147.4" font-family="Arial" font-size="14.00" fill="#000000"> ID</text>
<polygon fill="none" stroke="#000000" points="739.5,-106 739.5,-136 1053.5,-136 1053.5,-106 739.5,-106"/>
<text text-anchor="start" x="746.5" y="-117.4" font-family="Arial" font-size="14.00" fill="#000000">name </text>
<text text-anchor="start" x="785.399" y="-117.4" font-family="Arial" font-size="14.00" fill="#666666">[text]</text>
<text text-anchor="start" x="815.744" y="-117.4" font-family="Arial" font-size="14.00" fill="#000000"> 名前</text>
<polygon fill="none" stroke="#000000" points="739.5,-76 739.5,-106 1053.5,-106 1053.5,-76 739.5,-76"/>
<text text-anchor="start" x="746.3542" y="-87.4" font-family="Arial" font-size="14.00" fill="#000000">created_at </text>
<text text-anchor="start" x="816.3822" y="-87.4" font-family="Arial" font-size="14.00" fill="#666666">[timestamp with time zone]</text>
<text text-anchor="start" x="982.0666" y="-87.4" font-family="Arial" font-size="14.00" fill="#000000"> 作成日時</text>
<polygon fill="none" stroke="#000000" points="739.5,-46 739.5,-76 1053.5,-76 1053.5,-46 739.5,-46"/>
<text text-anchor="start" x="746.5" y="-57.4" font-family="Arial" font-size="14.00" fill="#000000">updated_at </text>
<text text-anchor="start" x="820.4326" y="-57.4" font-family="Arial" font-size="14.00" fill="#666666">[timestamp with time zone]</text>
<text text-anchor="start" x="986.117" y="-57.4" font-family="Arial" font-size="14.00" fill="#000000"> 更新日時</text>
<polygon fill="none" stroke="#000000" stroke-width="3" points="738,-44.5 738,-213.5 1055,-213.5 1055,-44.5 738,-44.5"/>
</g>
<!-- public.albums_genres -->
<g id="node2" class="node">
<title>public.albums_genres</title>
<polygon fill="#efefef" stroke="transparent" points="43.5,-517 43.5,-563 542.5,-563 542.5,-517 43.5,-517"/>
<polygon fill="none" stroke="#000000" points="43.5,-517 43.5,-563 542.5,-563 542.5,-517 43.5,-517"/>
<text text-anchor="start" x="141.6973" y="-540.8" font-family="Arial Bold" font-size="18.00" fill="#000000">public.albums_genres</text>
<text text-anchor="start" x="316.7347" y="-540.8" font-family="Arial" font-size="14.00" fill="#000000">    </text>
<text text-anchor="start" x="350.9395" y="-540.8" font-family="Arial" font-size="14.00" fill="#666666">[BASE TABLE]</text>
<text text-anchor="start" x="231.8228" y="-526.4" font-family="Arial" font-size="14.00" fill="#333333">アルバムジャンル</text>
<polygon fill="none" stroke="#000000" points="43.5,-487 43.5,-517 542.5,-517 542.5,-487 43.5,-487"/>
<text text-anchor="start" x="50.5" y="-498.4" font-family="Arial" font-size="14.00" fill="#000000">id    </text>
<text text-anchor="start" x="95.594" y="-498.4" font-family="Arial" font-size="14.00" fill="#666666">[text]</text>
<text text-anchor="start" x="125.939" y="-498.4" font-family="Arial" font-size="14.00" fill="#000000"> ID</text>
<polygon fill="none" stroke="#000000" points="43.5,-457 43.5,-487 542.5,-487 542.5,-457 43.5,-457"/>
<text text-anchor="start" x="50.5" y="-468.4" font-family="Arial" font-size="14.00" fill="#000000">album_id    </text>
<text text-anchor="start" x="141.4916" y="-468.4" font-family="Arial" font-size="14.00" fill="#666666">[text]</text>
<text text-anchor="start" x="171.8366" y="-468.4" font-family="Arial" font-size="14.00" fill="#000000"> アルバムID</text>
<polygon fill="none" stroke="#000000" points="43.5,-427 43.5,-457 542.5,-457 542.5,-427 43.5,-427"/>
<text text-anchor="start" x="50.5" y="-438.4" font-family="Arial" font-size="14.00" fill="#000000">genre_id    </text>
<text text-anchor="start" x="139.1676" y="-438.4" font-family="Arial" font-size="14.00" fill="#666666">[text]</text>
<text text-anchor="start" x="169.5126" y="-438.4" font-family="Arial" font-size="14.00" fill="#000000"> ジャンルID</text>
<polygon fill="none" stroke="#000000" points="43.5,-397 43.5,-427 542.5,-427 542.5,-397 43.5,-397"/>
<text text-anchor="start" x="50.4703" y="-408.4" font-family="Arial" font-size="14.00" fill="#000000">locked    </text>
<text text-anchor="start" x="125.1295" y="-408.4" font-family="Arial" font-size="14.00" fill="#666666">[boolean]</text>
<text text-anchor="start" x="182.7129" y="-408.4" font-family="Arial" font-size="14.00" fill="#000000"> ロック有無(true: ロック・削除不可、false: アンロック)</text>
<polygon fill="none" stroke="#000000" points="43.5,-367 43.5,-397 542.5,-397 542.5,-367 43.5,-367"/>
<text text-anchor="start" x="50.5" y="-378.4" font-family="Arial" font-size="14.00" fill="#000000">created_at    </text>
<text text-anchor="start" x="150.8422" y="-378.4" font-family="Arial" font-size="14.00" fill="#666666">[timestamp with time zone]</text>
<text text-anchor="start" x="316.5266" y="-378.4" font-family="Arial" font-size="14.00" fill="#000000"> 作成日時</text>
<polygon fill="none" stroke="#000000" points="43.5,-337 43.5,-367 542.5,-367 542.5,-337 43.5,-337"/>
<text text-anchor="start" x="50.5" y="-348.4" font-family="Arial" font-size="14.00" fill="#000000">updated_at    </text>
<text text-anchor="start" x="154.7468" y="-348.4" font-family="Arial" font-size="14.00" fill="#666666">[timestamp with time zone]</text>
<text text-anchor="start" x="320.4312" y="-348.4" font-family="Arial" font-size="14.00" fill="#000000"> 更新日時</text>
</g>
<!-- public.albums_genres&#45;&gt;public.genres -->
<g id="edge1" class="edge">
<title>public.albums_genres:genre_id&#45;&gt;public.genres:id</title>
<path fill="none" stroke="#000000" d="M552.4932,-441.2734C606.4517,-432.6772 558.2796,-349.7042 593.5,-294 642.0402,-217.2294 648.6712,-151 739.5,-151"/>
<polygon fill="#000000" stroke="#000000" points="552.4737,-441.2747 542.1736,-437.5118 547.4868,-441.6374 542.5,-442 542.5,-442 542.5,-442 547.4868,-441.6374 542.8264,-446.4882 552.4737,-441.2747 552.4737,-441.2747"/>
<text text-anchor="start" x="425.2165" y="-426" font-family="Arial" font-size="10.00" fill="#000000">FOREIGN KEY (genre_id) REFERENCES genres(id)</text>
</g>
<!-- public.songs_genres -->
<g id="node3" class="node">
<title>public.songs_genres</title>
<polygon fill="#efefef" stroke="transparent" points="646.5,-517 646.5,-563 1145.5,-563 1145.5,-517 646.5,-517"/>
<polygon fill="none" stroke="#000000" points="646.5,-517 646.5,-563 1145.5,-563 1145.5,-517 646.5,-517"/>
<text text-anchor="start" x="749.6905" y="-540.8" font-family="Arial Bold" font-size="18.00" fill="#000000">public.songs_genres</text>
<text text-anchor="start" x="914.7415" y="-540.8" font-family="Arial" font-size="14.00" fill="#000000">    </text>
<text text-anchor="start" x="948.9463" y="-540.8" font-family="Arial" font-size="14.00" fill="#666666">[BASE TABLE]</text>
<text text-anchor="start" x="844.0159" y="-526.4" font-family="Arial" font-size="14.00" fill="#333333">楽曲ジャンル</text>
<polygon fill="none" stroke="#000000" points="646.5,-487 646.5,-517 1145.5,-517 1145.5,-487 646.5,-487"/>
<text text-anchor="start" x="653.5" y="-498.4" font-family="Arial" font-size="14.00" fill="#000000">id    </text>
<text text-anchor="start" x="698.594" y="-498.4" font-family="Arial" font-size="14.00" fill="#666666">[text]</text>
<text text-anchor="start" x="728.939" y="-498.4" font-family="Arial" font-size="14.00" fill="#000000"> 楽曲ID</text>
<polygon fill="none" stroke="#000000" points="646.5,-457 646.5,-487 1145.5,-487 1145.5,-457 646.5,-457"/>
<text text-anchor="start" x="653.5" y="-468.4" font-family="Arial" font-size="14.00" fill="#000000">song_id    </text>
<text text-anchor="start" x="736.7244" y="-468.4" font-family="Arial" font-size="14.00" fill="#666666">[text]</text>
<text text-anchor="start" x="767.0694" y="-468.4" font-family="Arial" font-size="14.00" fill="#000000"> 楽曲ID</text>
<polygon fill="none" stroke="#000000" points="646.5,-427 646.5,-457 1145.5,-457 1145.5,-427 646.5,-427"/>
<text text-anchor="start" x="653.5" y="-438.4" font-family="Arial" font-size="14.00" fill="#000000">genre_id    </text>
<text text-anchor="start" x="742.1676" y="-438.4" font-family="Arial" font-size="14.00" fill="#666666">[text]</text>
<text text-anchor="start" x="772.5126" y="-438.4" font-family="Arial" font-size="14.00" fill="#000000"> ジャンルID</text>
<polygon fill="none" stroke="#000000" points="646.5,-397 646.5,-427 1145.5,-427 1145.5,-397 646.5,-397"/>
<text text-anchor="start" x="653.4703" y="-408.4" font-family="Arial" font-size="14.00" fill="#000000">locked    </text>
<text text-anchor="start" x="728.1295" y="-408.4" font-family="Arial" font-size="14.00" fill="#666666">[boolean]</text>
<text text-anchor="start" x="785.7129" y="-408.4" font-family="Arial" font-size="14.00" fill="#000000"> ロック有無(true: ロック・削除不可、false: アンロック)</text>
<polygon fill="none" stroke="#000000" points="646.5,-367 646.5,-397 1145.5,-397 1145.5,-367 646.5,-367"/>
<text text-anchor="start" x="653.5" y="-378.4" font-family="Arial" font-size="14.00" fill="#000000">created_at    </text>
<text text-anchor="start" x="753.8422" y="-378.4" font-family="Arial" font-size="14.00" fill="#666666">[timestamp with time zone]</text>
<text text-anchor="start" x="919.5266" y="-378.4" font-family="Arial" font-size="14.00" fill="#000000"> 作成日時</text>
<polygon fill="none" stroke="#000000" points="646.5,-337 646.5,-367 1145.5,-367 1145.5,-337 646.5,-337"/>
<text text-anchor="start" x="653.5" y="-348.4" font-family="Arial" font-size="14.00" fill="#000000">updated_at    </text>
<text text-anchor="start" x="757.7468" y="-348.4" font-family="Arial" font-size="14.00" fill="#666666">[timestamp with time zone]</text>
<text text-anchor="start" x="923.4312" y="-348.4" font-family="Arial" font-size="14.00" fill="#000000"> 更新日時</text>
</g>
<!-- public.songs_genres&#45;&gt;public.genres -->
<g id="edge2" class="edge">
<title>public.songs_genres:genre_id&#45;&gt;public.genres:id</title>
<path fill="none" stroke="#000000" d="M1155.5203,-441.1321C1208.8718,-431.272 1187.4817,-339.8689 1145.5,-294 1084.3468,-227.1844 800.6532,-324.8156 739.5,-258 707.3925,-222.9195 691.9444,-151 739.5,-151"/>
<polygon fill="#000000" stroke="#000000" points="1155.4627,-441.137 1145.1116,-437.5168 1150.4813,-441.5685 1145.5,-442 1145.5,-442 1145.5,-442 1150.4813,-441.5685 1145.8884,-446.4832 1155.4627,-441.137 1155.4627,-441.137"/>
<text text-anchor="start" x="1028.2165" y="-426" font-family="Arial" font-size="10.00" fill="#000000">FOREIGN KEY (genre_id) REFERENCES genres(id)</text>
</g>
<!-- public.circles_genres -->
<g id="node4" class="node">
<title>public.circles_genres</title>
<polygon fill="#efefef" stroke="transparent" points="1249.5,-517 1249.5,-563 1676.5,-563 1676.5,-517 1249.5,-517"/>
<polygon fill="none" stroke="#000000" points="1249.5,-517 1249.5,-563 1676.5,-563 1676.5,-517 1249.5,-517"/>
<text text-anchor="start" x="1315.2064" y="-540.8" font-family="Arial Bold" font-size="18.00" fill="#000000">public.circles_genres</text>
<text text-anchor="start" x="1483.2256" y="-540.8" font-family="Arial" font-size="14.00" fill="#000000">    </text>
<text text-anchor="start" x="1517.4304" y="-540.8" font-family="Arial" font-size="14.00" fill="#666666">[BASE TABLE]</text>
<text text-anchor="start" x="1413.2342" y="-526.4" font-family="Arial" font-size="14.00" fill="#333333">サークルタグ</text>
<polygon fill="none" stroke="#000000" points="1249.5,-487 1249.5,-517 1676.5,-517 1676.5,-487 1249.5,-487"/>
<text text-anchor="start" x="1256.5" y="-498.4" font-family="Arial" font-size="14.00" fill="#000000">id    </text>
<text text-anchor="start" x="1301.594" y="-498.4" font-family="Arial" font-size="14.00" fill="#666666">[text]</text>
<text text-anchor="start" x="1331.939" y="-498.4" font-family="Arial" font-size="14.00" fill="#000000"> ID</text>
<polygon fill="none" stroke="#000000" points="1249.5,-457 1249.5,-487 1676.5,-487 1676.5,-457 1249.5,-457"/>
<text text-anchor="start" x="1256.5" y="-468.4" font-family="Arial" font-size="14.00" fill="#000000">circle_id    </text>
<text text-anchor="start" x="1342.033" y="-468.4" font-family="Arial" font-size="14.00" fill="#666666">[text]</text>
<text text-anchor="start" x="1372.378" y="-468.4" font-family="Arial" font-size="14.00" fill="#000000"> サークルID</text>
<polygon fill="none" stroke="#000000" points="1249.5,-427 1249.5,-457 1676.5,-457 1676.5,-427 1249.5,-427"/>
<text text-anchor="start" x="1256.5" y="-438.4" font-family="Arial" font-size="14.00" fill="#000000">genre_id    </text>
<text text-anchor="start" x="1345.1676" y="-438.4" font-family="Arial" font-size="14.00" fill="#666666">[text]</text>
<text text-anchor="start" x="1375.5126" y="-438.4" font-family="Arial" font-size="14.00" fill="#000000"> タグID</text>
<polygon fill="none" stroke="#000000" points="1249.5,-397 1249.5,-427 1676.5,-427 1676.5,-397 1249.5,-397"/>
<text text-anchor="start" x="1256.1255" y="-408.4" font-family="Arial" font-size="14.00" fill="#000000">locked    </text>
<text text-anchor="start" x="1330.7847" y="-408.4" font-family="Arial" font-size="14.00" fill="#666666">[boolean]</text>
<text text-anchor="start" x="1388.3681" y="-408.4" font-family="Arial" font-size="14.00" fill="#000000"> ロック有無(true: ロック、false: アンロック)</text>
<polygon fill="none" stroke="#000000" points="1249.5,-367 1249.5,-397 1676.5,-397 1676.5,-367 1249.5,-367"/>
<text text-anchor="start" x="1256.5" y="-378.4" font-family="Arial" font-size="14.00" fill="#000000">created_at    </text>
<text text-anchor="start" x="1356.8422" y="-378.4" font-family="Arial" font-size="14.00" fill="#666666">[timestamp with time zone]</text>
<text text-anchor="start" x="1522.5266" y="-378.4" font-family="Arial" font-size="14.00" fill="#000000"> 作成日時</text>
<polygon fill="none" stroke="#000000" points="1249.5,-337 1249.5,-367 1676.5,-367 1676.5,-337 1249.5,-337"/>
<text text-anchor="start" x="1256.5" y="-348.4" font-family="Arial" font-size="14.00" fill="#000000">updated_at    </text>
<text text-anchor="start" x="1360.7468" y="-348.4" font-family="Arial" font-size="14.00" fill="#666666">[timestamp with time zone]</text>
<text text-anchor="start" x="1526.4312" y="-348.4" font-family="Arial" font-size="14.00" fill="#000000"> 更新日時</text>
</g>
<!-- public.circles_genres&#45;&gt;public.genres -->
<g id="edge3" class="edge">
<title>public.circles_genres:genre_id&#45;&gt;public.genres:id</title>
<path fill="none" stroke="#000000" d="M1239.4784,-441.2745C1185.3198,-432.6912 1232.7701,-349.8364 1197.5,-294 1149.3311,-217.7434 1143.6959,-151 1053.5,-151"/>
<polygon fill="#000000" stroke="#000000" points="1239.5261,-441.2779 1249.175,-446.4883 1244.5131,-441.6389 1249.5,-442 1249.5,-442 1249.5,-442 1244.5131,-441.6389 1249.825,-437.5117 1239.5261,-441.2779 1239.5261,-441.2779"/>
<text text-anchor="start" x="1007.7165" y="-452" font-family="Arial" font-size="10.00" fill="#000000">FOREIGN KEY (genre_id) REFERENCES genres(id)</text>
</g>
</g>
</svg>
