<?xml version="1.0" encoding="UTF-8" standalone="no"?>
<!DOCTYPE svg PUBLIC "-//W3C//DTD SVG 1.1//EN"
 "http://www.w3.org/Graphics/SVG/1.1/DTD/svg11.dtd">
<!-- Generated by graphviz version 2.40.1 (20161225.0304)
 -->
<!-- Title: public.sub_events Pages: 1 -->
<svg width="1697pt" height="962pt"
 viewBox="0.00 0.00 1697.00 962.00" xmlns="http://www.w3.org/2000/svg" xmlns:xlink="http://www.w3.org/1999/xlink">
<g id="graph0" class="graph" transform="scale(1 1) rotate(0) translate(4 958)">
<title>public.sub_events</title>
<polygon fill="#ffffff" stroke="transparent" points="-4,4 -4,-958 1693,-958 1693,4 -4,4"/>
<!-- public.sub_events -->
<g id="node1" class="node">
<title>public.sub_events</title>
<polygon fill="#efefef" stroke="transparent" points="564,-514 564,-560 878,-560 878,-514 564,-514"/>
<polygon fill="none" stroke="#000000" points="564,-514 564,-560 878,-560 878,-514 564,-514"/>
<text text-anchor="start" x="600.3488" y="-537.8" font-family="Arial Bold" font-size="18.00" fill="#000000">public.sub_events</text>
<text text-anchor="start" x="744.3974" y="-537.8" font-family="Arial" font-size="14.00" fill="#000000"> </text>
<text text-anchor="start" x="748.288" y="-537.8" font-family="Arial" font-size="14.00" fill="#666666">[BASE TABLE]</text>
<text text-anchor="start" x="680.9516" y="-523.4" font-family="Arial" font-size="14.00" fill="#333333">サブイベント</text>
<polygon fill="none" stroke="#000000" points="564,-484 564,-514 878,-514 878,-484 564,-484"/>
<text text-anchor="start" x="571" y="-495.4" font-family="Arial" font-size="14.00" fill="#000000">id </text>
<text text-anchor="start" x="585.7798" y="-495.4" font-family="Arial" font-size="14.00" fill="#666666">[text]</text>
<polygon fill="none" stroke="#000000" points="564,-454 564,-484 878,-484 878,-454 564,-454"/>
<text text-anchor="start" x="571" y="-465.4" font-family="Arial" font-size="14.00" fill="#000000">event_id </text>
<text text-anchor="start" x="627.8008" y="-465.4" font-family="Arial" font-size="14.00" fill="#666666">[text]</text>
<text text-anchor="start" x="658.1458" y="-465.4" font-family="Arial" font-size="14.00" fill="#000000"> イベントID</text>
<polygon fill="none" stroke="#000000" points="564,-424 564,-454 878,-454 878,-424 564,-424"/>
<text text-anchor="start" x="571" y="-435.4" font-family="Arial" font-size="14.00" fill="#000000">name </text>
<text text-anchor="start" x="609.899" y="-435.4" font-family="Arial" font-size="14.00" fill="#666666">[text]</text>
<text text-anchor="start" x="640.244" y="-435.4" font-family="Arial" font-size="14.00" fill="#000000"> 名前(例: 〇〇 2日目)</text>
<polygon fill="none" stroke="#000000" points="564,-394 564,-424 878,-424 878,-394 564,-394"/>
<text text-anchor="start" x="570.8542" y="-405.4" font-family="Arial" font-size="14.00" fill="#000000">created_at </text>
<text text-anchor="start" x="640.8822" y="-405.4" font-family="Arial" font-size="14.00" fill="#666666">[timestamp with time zone]</text>
<text text-anchor="start" x="806.5666" y="-405.4" font-family="Arial" font-size="14.00" fill="#000000"> 作成日時</text>
<polygon fill="none" stroke="#000000" points="564,-364 564,-394 878,-394 878,-364 564,-364"/>
<text text-anchor="start" x="571" y="-375.4" font-family="Arial" font-size="14.00" fill="#000000">updated_at </text>
<text text-anchor="start" x="644.9326" y="-375.4" font-family="Arial" font-size="14.00" fill="#666666">[timestamp with time zone]</text>
<text text-anchor="start" x="810.617" y="-375.4" font-family="Arial" font-size="14.00" fill="#000000"> 更新日時</text>
<polygon fill="none" stroke="#000000" stroke-width="3" points="562.5,-362.5 562.5,-561.5 879.5,-561.5 879.5,-362.5 562.5,-362.5"/>
</g>
<!-- public.events -->
<g id="node3" class="node">
<title>public.events</title>
<polygon fill="#efefef" stroke="transparent" points="564,-193 564,-239 878,-239 878,-193 564,-193"/>
<polygon fill="none" stroke="#000000" points="564,-193 564,-239 878,-239 878,-193 564,-193"/>
<text text-anchor="start" x="619.8581" y="-216.8" font-family="Arial Bold" font-size="18.00" fill="#000000">public.events</text>
<text text-anchor="start" x="724.8881" y="-216.8" font-family="Arial" font-size="14.00" fill="#000000"> </text>
<text text-anchor="start" x="728.7787" y="-216.8" font-family="Arial" font-size="14.00" fill="#666666">[BASE TABLE]</text>
<text text-anchor="start" x="693.9114" y="-202.4" font-family="Arial" font-size="14.00" fill="#333333">イベント</text>
<polygon fill="none" stroke="#000000" points="564,-163 564,-193 878,-193 878,-163 564,-163"/>
<text text-anchor="start" x="571" y="-174.4" font-family="Arial" font-size="14.00" fill="#000000">id </text>
<text text-anchor="start" x="585.7798" y="-174.4" font-family="Arial" font-size="14.00" fill="#666666">[text]</text>
<polygon fill="none" stroke="#000000" points="564,-133 564,-163 878,-163 878,-133 564,-133"/>
<text text-anchor="start" x="571" y="-144.4" font-family="Arial" font-size="14.00" fill="#000000">event_series_id </text>
<text text-anchor="start" x="672.9158" y="-144.4" font-family="Arial" font-size="14.00" fill="#666666">[text]</text>
<text text-anchor="start" x="703.2608" y="-144.4" font-family="Arial" font-size="14.00" fill="#000000"> イベントシリーズID</text>
<polygon fill="none" stroke="#000000" points="564,-103 564,-133 878,-133 878,-103 564,-103"/>
<text text-anchor="start" x="571" y="-114.4" font-family="Arial" font-size="14.00" fill="#000000">name </text>
<text text-anchor="start" x="609.899" y="-114.4" font-family="Arial" font-size="14.00" fill="#666666">[text]</text>
<text text-anchor="start" x="640.244" y="-114.4" font-family="Arial" font-size="14.00" fill="#000000"> 名前</text>
<polygon fill="none" stroke="#000000" points="564,-73 564,-103 878,-103 878,-73 564,-73"/>
<text text-anchor="start" x="570.8542" y="-84.4" font-family="Arial" font-size="14.00" fill="#000000">created_at </text>
<text text-anchor="start" x="640.8822" y="-84.4" font-family="Arial" font-size="14.00" fill="#666666">[timestamp with time zone]</text>
<text text-anchor="start" x="806.5666" y="-84.4" font-family="Arial" font-size="14.00" fill="#000000"> 作成日時</text>
<polygon fill="none" stroke="#000000" points="564,-43 564,-73 878,-73 878,-43 564,-43"/>
<text text-anchor="start" x="571" y="-54.4" font-family="Arial" font-size="14.00" fill="#000000">updated_at </text>
<text text-anchor="start" x="644.9326" y="-54.4" font-family="Arial" font-size="14.00" fill="#666666">[timestamp with time zone]</text>
<text text-anchor="start" x="810.617" y="-54.4" font-family="Arial" font-size="14.00" fill="#000000"> 更新日時</text>
</g>
<!-- public.sub_events&#45;&gt;public.events -->
<g id="edge2" class="edge">
<title>public.sub_events:event_id&#45;&gt;public.events:id</title>
<path fill="none" stroke="#000000" d="M888.3193,-468.3592C1007.2366,-453.3035 1003.7969,-178 878,-178"/>
<polygon fill="#000000" stroke="#000000" points="887.9808,-468.3801 877.721,-464.5087 882.9904,-468.6901 878,-469 878,-469 878,-469 882.9904,-468.6901 878.279,-473.4913 887.9808,-468.3801 887.9808,-468.3801"/>
<text text-anchor="start" x="885.3255" y="-479" font-family="Arial" font-size="10.00" fill="#000000">FOREIGN KEY (event_id) REFERENCES events(id)</text>
</g>
<!-- public.sub_event_details -->
<g id="node2" class="node">
<title>public.sub_event_details</title>
<polygon fill="#efefef" stroke="transparent" points="43,-865 43,-911 1399,-911 1399,-865 43,-865"/>
<polygon fill="none" stroke="#000000" points="43,-865 43,-911 1399,-911 1399,-865 43,-865"/>
<text text-anchor="start" x="573.8411" y="-888.8" font-family="Arial Bold" font-size="18.00" fill="#000000">public.sub_event_details</text>
<text text-anchor="start" x="770.9051" y="-888.8" font-family="Arial" font-size="14.00" fill="#000000"> </text>
<text text-anchor="start" x="774.7957" y="-888.8" font-family="Arial" font-size="14.00" fill="#666666">[BASE TABLE]</text>
<text text-anchor="start" x="665.9968" y="-874.4" font-family="Arial" font-size="14.00" fill="#333333">サブイベント詳細</text>
<polygon fill="none" stroke="#000000" points="43,-835 43,-865 1399,-865 1399,-835 43,-835"/>
<text text-anchor="start" x="50" y="-846.4" font-family="Arial" font-size="14.00" fill="#000000">sub_event_id </text>
<text text-anchor="start" x="137.1486" y="-846.4" font-family="Arial" font-size="14.00" fill="#666666">[text]</text>
<text text-anchor="start" x="167.4936" y="-846.4" font-family="Arial" font-size="14.00" fill="#000000"> サブイベントID</text>
<polygon fill="none" stroke="#000000" points="43,-805 43,-835 1399,-835 1399,-805 43,-805"/>
<text text-anchor="start" x="50" y="-816.4" font-family="Arial" font-size="14.00" fill="#000000">event_date </text>
<text text-anchor="start" x="123.15" y="-816.4" font-family="Arial" font-size="14.00" fill="#666666">[date]</text>
<text text-anchor="start" x="158.1696" y="-816.4" font-family="Arial" font-size="14.00" fill="#000000"> 開催日</text>
<polygon fill="none" stroke="#000000" points="43,-775 43,-805 1399,-805 1399,-775 43,-775"/>
<text text-anchor="start" x="49.6104" y="-786.4" font-family="Arial" font-size="14.00" fill="#000000">event_status </text>
<text text-anchor="start" x="132.8684" y="-786.4" font-family="Arial" font-size="14.00" fill="#666666">[event_status]</text>
<text text-anchor="start" x="220.017" y="-786.4" font-family="Arial" font-size="14.00" fill="#000000"> ステータス/scheduled: 開催済み, cancelled: 中止, postpone: 延期(開催日未定), rescheduled: 延期(開催日決定), moved_online: オンライン開催に変更, other: その他/default: scheduled</text>
<polygon fill="none" stroke="#000000" points="43,-745 43,-775 1399,-775 1399,-745 43,-745"/>
<text text-anchor="start" x="50" y="-756.4" font-family="Arial" font-size="14.00" fill="#000000">description </text>
<text text-anchor="start" x="121.568" y="-756.4" font-family="Arial" font-size="14.00" fill="#666666">[text]</text>
<text text-anchor="start" x="151.913" y="-756.4" font-family="Arial" font-size="14.00" fill="#000000"> 説明</text>
<polygon fill="none" stroke="#000000" points="43,-715 43,-745 1399,-745 1399,-715 43,-715"/>
<text text-anchor="start" x="50" y="-726.4" font-family="Arial" font-size="14.00" fill="#000000">created_at </text>
<text text-anchor="start" x="120.028" y="-726.4" font-family="Arial" font-size="14.00" fill="#666666">[timestamp with time zone]</text>
<text text-anchor="start" x="285.7124" y="-726.4" font-family="Arial" font-size="14.00" fill="#000000"> 作成日時</text>
<polygon fill="none" stroke="#000000" points="43,-685 43,-715 1399,-715 1399,-685 43,-685"/>
<text text-anchor="start" x="50" y="-696.4" font-family="Arial" font-size="14.00" fill="#000000">updated_at </text>
<text text-anchor="start" x="123.9326" y="-696.4" font-family="Arial" font-size="14.00" fill="#666666">[timestamp with time zone]</text>
<text text-anchor="start" x="289.617" y="-696.4" font-family="Arial" font-size="14.00" fill="#000000"> 更新日時</text>
</g>
<!-- public.sub_event_details&#45;&gt;public.sub_events -->
<g id="edge1" class="edge">
<title>public.sub_event_details:sub_event_id&#45;&gt;public.sub_events:id</title>
<path fill="none" stroke="#000000" d="M1409.2501,-849.396C1488.5714,-839.5861 1452.8639,-712.6402 1399,-642 1326.202,-546.5287 998.0597,-499 878,-499"/>
<polygon fill="#000000" stroke="#000000" points="1408.9827,-849.4117 1398.7353,-845.5078 1403.9913,-849.7058 1399,-850 1399,-850 1399,-850 1403.9913,-849.7058 1399.2647,-854.4922 1408.9827,-849.4117 1408.9827,-849.4117"/>
<text text-anchor="start" x="1405.6485" y="-860" font-family="Arial" font-size="10.00" fill="#000000">FOREIGN KEY (sub_event_id) REFERENCES sub_events(id)</text>
</g>
</g>
</svg>
