<?xml version="1.0" encoding="UTF-8" standalone="no"?>
<!DOCTYPE svg PUBLIC "-//W3C//DTD SVG 1.1//EN"
 "http://www.w3.org/Graphics/SVG/1.1/DTD/svg11.dtd">
<!-- Generated by graphviz version 2.40.1 (20161225.0304)
 -->
<!-- Title: public.albums_circles Pages: 1 -->
<svg width="1134pt" height="704pt"
 viewBox="0.00 0.00 1134.00 704.00" xmlns="http://www.w3.org/2000/svg" xmlns:xlink="http://www.w3.org/1999/xlink">
<g id="graph0" class="graph" transform="scale(1 1) rotate(0) translate(4 700)">
<title>public.albums_circles</title>
<polygon fill="#ffffff" stroke="transparent" points="-4,4 -4,-700 1130,-700 1130,4 -4,4"/>
<!-- public.albums_circles -->
<g id="node1" class="node">
<title>public.albums_circles</title>
<polygon fill="#efefef" stroke="transparent" points="329,-604 329,-650 643,-650 643,-604 329,-604"/>
<polygon fill="none" stroke="#000000" points="329,-604 329,-650 643,-650 643,-604 329,-604"/>
<text text-anchor="start" x="351.8695" y="-627.8" font-family="Arial Bold" font-size="18.00" fill="#000000">public.albums_circles</text>
<text text-anchor="start" x="522.8767" y="-627.8" font-family="Arial" font-size="14.00" fill="#000000"> </text>
<text text-anchor="start" x="526.7673" y="-627.8" font-family="Arial" font-size="14.00" fill="#666666">[BASE TABLE]</text>
<text text-anchor="start" x="357.1678" y="-613.4" font-family="Arial" font-size="14.00" fill="#333333">アルバムとサークルの中間テーブル</text>
<polygon fill="none" stroke="#000000" points="329,-574 329,-604 643,-604 643,-574 329,-574"/>
<text text-anchor="start" x="336" y="-585.4" font-family="Arial" font-size="14.00" fill="#000000">album_id </text>
<text text-anchor="start" x="396.6774" y="-585.4" font-family="Arial" font-size="14.00" fill="#666666">[text]</text>
<text text-anchor="start" x="427.0224" y="-585.4" font-family="Arial" font-size="14.00" fill="#000000"> アルバムID</text>
<polygon fill="none" stroke="#000000" points="329,-544 329,-574 643,-574 643,-544 329,-544"/>
<text text-anchor="start" x="336" y="-555.4" font-family="Arial" font-size="14.00" fill="#000000">circle_id </text>
<text text-anchor="start" x="391.2188" y="-555.4" font-family="Arial" font-size="14.00" fill="#666666">[text]</text>
<text text-anchor="start" x="421.5638" y="-555.4" font-family="Arial" font-size="14.00" fill="#000000"> サークルID</text>
<polygon fill="none" stroke="#000000" points="329,-514 329,-544 643,-544 643,-514 329,-514"/>
<text text-anchor="start" x="335.8542" y="-525.4" font-family="Arial" font-size="14.00" fill="#000000">created_at </text>
<text text-anchor="start" x="405.8822" y="-525.4" font-family="Arial" font-size="14.00" fill="#666666">[timestamp with time zone]</text>
<text text-anchor="start" x="571.5666" y="-525.4" font-family="Arial" font-size="14.00" fill="#000000"> 作成日時</text>
<polygon fill="none" stroke="#000000" points="329,-484 329,-514 643,-514 643,-484 329,-484"/>
<text text-anchor="start" x="336" y="-495.4" font-family="Arial" font-size="14.00" fill="#000000">updated_at </text>
<text text-anchor="start" x="409.9326" y="-495.4" font-family="Arial" font-size="14.00" fill="#666666">[timestamp with time zone]</text>
<text text-anchor="start" x="575.617" y="-495.4" font-family="Arial" font-size="14.00" fill="#000000"> 更新日時</text>
<polygon fill="none" stroke="#000000" stroke-width="3" points="327.5,-482.5 327.5,-651.5 644.5,-651.5 644.5,-482.5 327.5,-482.5"/>
</g>
<!-- public.albums -->
<g id="node2" class="node">
<title>public.albums</title>
<polygon fill="#efefef" stroke="transparent" points="43,-313 43,-359 357,-359 357,-313 43,-313"/>
<polygon fill="none" stroke="#000000" points="43,-313 43,-359 357,-359 357,-313 43,-313"/>
<text text-anchor="start" x="96.366" y="-336.8" font-family="Arial Bold" font-size="18.00" fill="#000000">public.albums</text>
<text text-anchor="start" x="206.3802" y="-336.8" font-family="Arial" font-size="14.00" fill="#000000"> </text>
<text text-anchor="start" x="210.2708" y="-336.8" font-family="Arial" font-size="14.00" fill="#666666">[BASE TABLE]</text>
<text text-anchor="start" x="170.1884" y="-322.4" font-family="Arial" font-size="14.00" fill="#333333">アルバム</text>
<polygon fill="none" stroke="#000000" points="43,-283 43,-313 357,-313 357,-283 43,-283"/>
<text text-anchor="start" x="50" y="-294.4" font-family="Arial" font-size="14.00" fill="#000000">id </text>
<text text-anchor="start" x="64.7798" y="-294.4" font-family="Arial" font-size="14.00" fill="#666666">[text]</text>
<polygon fill="none" stroke="#000000" points="43,-253 43,-283 357,-283 357,-253 43,-253"/>
<text text-anchor="start" x="50" y="-264.4" font-family="Arial" font-size="14.00" fill="#000000">name </text>
<text text-anchor="start" x="88.899" y="-264.4" font-family="Arial" font-size="14.00" fill="#666666">[text]</text>
<text text-anchor="start" x="119.244" y="-264.4" font-family="Arial" font-size="14.00" fill="#000000"> 名前</text>
<polygon fill="none" stroke="#000000" points="43,-223 43,-253 357,-253 357,-223 43,-223"/>
<text text-anchor="start" x="50" y="-234.4" font-family="Arial" font-size="14.00" fill="#000000">release_circle_name </text>
<text text-anchor="start" x="183.0182" y="-234.4" font-family="Arial" font-size="14.00" fill="#666666">[text]</text>
<text text-anchor="start" x="213.3632" y="-234.4" font-family="Arial" font-size="14.00" fill="#000000"> 頒布サークル名</text>
<polygon fill="none" stroke="#000000" points="43,-193 43,-223 357,-223 357,-193 43,-193"/>
<text text-anchor="start" x="50" y="-204.4" font-family="Arial" font-size="14.00" fill="#000000">release_date </text>
<text text-anchor="start" x="134.8092" y="-204.4" font-family="Arial" font-size="14.00" fill="#666666">[date]</text>
<text text-anchor="start" x="169.8288" y="-204.4" font-family="Arial" font-size="14.00" fill="#000000"> 頒布日</text>
<polygon fill="none" stroke="#000000" points="43,-163 43,-193 357,-193 357,-163 43,-163"/>
<text text-anchor="start" x="50" y="-174.4" font-family="Arial" font-size="14.00" fill="#000000">event_id </text>
<text text-anchor="start" x="106.8008" y="-174.4" font-family="Arial" font-size="14.00" fill="#666666">[text]</text>
<text text-anchor="start" x="137.1458" y="-174.4" font-family="Arial" font-size="14.00" fill="#000000"> イベントID</text>
<polygon fill="none" stroke="#000000" points="43,-133 43,-163 357,-163 357,-133 43,-133"/>
<text text-anchor="start" x="50" y="-144.4" font-family="Arial" font-size="14.00" fill="#000000">sub_event_id </text>
<text text-anchor="start" x="137.1486" y="-144.4" font-family="Arial" font-size="14.00" fill="#666666">[text]</text>
<text text-anchor="start" x="167.4936" y="-144.4" font-family="Arial" font-size="14.00" fill="#000000"> サブイベントID</text>
<polygon fill="none" stroke="#000000" points="43,-103 43,-133 357,-133 357,-103 43,-103"/>
<text text-anchor="start" x="50" y="-114.4" font-family="Arial" font-size="14.00" fill="#000000">search_enabled </text>
<text text-anchor="start" x="153.4838" y="-114.4" font-family="Arial" font-size="14.00" fill="#666666">[boolean]</text>
<text text-anchor="start" x="211.0672" y="-114.4" font-family="Arial" font-size="14.00" fill="#000000"> 検索対象とするか</text>
<polygon fill="none" stroke="#000000" points="43,-73 43,-103 357,-103 357,-73 43,-73"/>
<text text-anchor="start" x="49.8542" y="-84.4" font-family="Arial" font-size="14.00" fill="#000000">created_at </text>
<text text-anchor="start" x="119.8822" y="-84.4" font-family="Arial" font-size="14.00" fill="#666666">[timestamp with time zone]</text>
<text text-anchor="start" x="285.5666" y="-84.4" font-family="Arial" font-size="14.00" fill="#000000"> 作成日時</text>
<polygon fill="none" stroke="#000000" points="43,-43 43,-73 357,-73 357,-43 43,-43"/>
<text text-anchor="start" x="50" y="-54.4" font-family="Arial" font-size="14.00" fill="#000000">updated_at </text>
<text text-anchor="start" x="123.9326" y="-54.4" font-family="Arial" font-size="14.00" fill="#666666">[timestamp with time zone]</text>
<text text-anchor="start" x="289.617" y="-54.4" font-family="Arial" font-size="14.00" fill="#000000"> 更新日時</text>
</g>
<!-- public.albums_circles&#45;&gt;public.albums -->
<g id="edge1" class="edge">
<title>public.albums_circles:album_id&#45;&gt;public.albums:id</title>
<path fill="none" stroke="#000000" d="M318.9762,-588.233C266.7765,-579.4993 308.4111,-498.0071 329,-438 335.5783,-418.8274 350.4217,-421.1726 357,-402 372.0008,-358.2796 403.2222,-298 357,-298"/>
<polygon fill="#000000" stroke="#000000" points="319.0291,-588.237 328.6566,-593.4869 324.0146,-588.6185 329,-589 329,-589 329,-589 324.0146,-588.6185 329.3434,-584.5131 319.0291,-588.237 319.0291,-588.237"/>
<text text-anchor="start" x="83.5565" y="-599" font-family="Arial" font-size="10.00" fill="#000000">FOREIGN KEY (album_id) REFERENCES albums(id)</text>
</g>
<!-- public.circles -->
<g id="node3" class="node">
<title>public.circles</title>
<polygon fill="#efefef" stroke="transparent" points="461,-268 461,-314 1083,-314 1083,-268 461,-268"/>
<polygon fill="none" stroke="#000000" points="461,-268 461,-314 1083,-314 1083,-268 461,-268"/>
<text text-anchor="start" x="671.8751" y="-291.8" font-family="Arial Bold" font-size="18.00" fill="#000000">public.circles</text>
<text text-anchor="start" x="774.8711" y="-291.8" font-family="Arial" font-size="14.00" fill="#000000"> </text>
<text text-anchor="start" x="778.7617" y="-291.8" font-family="Arial" font-size="14.00" fill="#666666">[BASE TABLE]</text>
<text text-anchor="start" x="737.525" y="-277.4" font-family="Arial" font-size="14.00" fill="#333333">サークル</text>
<polygon fill="none" stroke="#000000" points="461,-238 461,-268 1083,-268 1083,-238 461,-238"/>
<text text-anchor="start" x="468" y="-249.4" font-family="Arial" font-size="14.00" fill="#000000">id </text>
<text text-anchor="start" x="482.7798" y="-249.4" font-family="Arial" font-size="14.00" fill="#666666">[text]</text>
<polygon fill="none" stroke="#000000" points="461,-208 461,-238 1083,-238 1083,-208 461,-208"/>
<text text-anchor="start" x="468" y="-219.4" font-family="Arial" font-size="14.00" fill="#000000">name </text>
<text text-anchor="start" x="506.899" y="-219.4" font-family="Arial" font-size="14.00" fill="#666666">[text]</text>
<text text-anchor="start" x="537.244" y="-219.4" font-family="Arial" font-size="14.00" fill="#000000"> 名前</text>
<polygon fill="none" stroke="#000000" points="461,-178 461,-208 1083,-208 1083,-178 461,-178"/>
<text text-anchor="start" x="467.5763" y="-189.4" font-family="Arial" font-size="14.00" fill="#000000">initial_letter_type </text>
<text text-anchor="start" x="576.4837" y="-189.4" font-family="Arial" font-size="14.00" fill="#666666">[initial_letter_type]</text>
<text text-anchor="start" x="689.2817" y="-189.4" font-family="Arial" font-size="14.00" fill="#000000"> 頭文字の文字種別(symbol,number,alphabet,kana,kanji,other)</text>
<polygon fill="none" stroke="#000000" points="461,-148 461,-178 1083,-178 1083,-148 461,-148"/>
<text text-anchor="start" x="468" y="-159.4" font-family="Arial" font-size="14.00" fill="#000000">initial_letter_detail </text>
<text text-anchor="start" x="583.9032" y="-159.4" font-family="Arial" font-size="14.00" fill="#666666">[text]</text>
<text text-anchor="start" x="614.2482" y="-159.4" font-family="Arial" font-size="14.00" fill="#000000"> 開催日</text>
<polygon fill="none" stroke="#000000" points="461,-118 461,-148 1083,-148 1083,-118 461,-118"/>
<text text-anchor="start" x="468" y="-129.4" font-family="Arial" font-size="14.00" fill="#000000">created_at </text>
<text text-anchor="start" x="538.028" y="-129.4" font-family="Arial" font-size="14.00" fill="#666666">[timestamp with time zone]</text>
<text text-anchor="start" x="703.7124" y="-129.4" font-family="Arial" font-size="14.00" fill="#000000"> 作成日時</text>
<polygon fill="none" stroke="#000000" points="461,-88 461,-118 1083,-118 1083,-88 461,-88"/>
<text text-anchor="start" x="468" y="-99.4" font-family="Arial" font-size="14.00" fill="#000000">updated_at </text>
<text text-anchor="start" x="541.9326" y="-99.4" font-family="Arial" font-size="14.00" fill="#666666">[timestamp with time zone]</text>
<text text-anchor="start" x="707.617" y="-99.4" font-family="Arial" font-size="14.00" fill="#000000"> 更新日時</text>
</g>
<!-- public.albums_circles&#45;&gt;public.circles -->
<g id="edge2" class="edge">
<title>public.albums_circles:circle_id&#45;&gt;public.circles:id</title>
<path fill="none" stroke="#000000" d="M652.9549,-557.97C693.4077,-548.7669 670.2903,-480.0167 643,-438 594.7733,-363.7491 509.2267,-431.2509 461,-357 435.8228,-318.2366 414.7778,-253 461,-253"/>
<polygon fill="#000000" stroke="#000000" points="652.9469,-557.9708 642.5369,-554.5239 647.9735,-558.4854 643,-559 643,-559 643,-559 647.9735,-558.4854 643.4631,-563.4761 652.9469,-557.9708 652.9469,-557.9708"/>
<text text-anchor="start" x="650.4555" y="-569" font-family="Arial" font-size="10.00" fill="#000000">FOREIGN KEY (circle_id) REFERENCES circles(id)</text>
</g>
</g>
</svg>
