<?xml version="1.0" encoding="UTF-8" standalone="no"?>
<!DOCTYPE svg PUBLIC "-//W3C//DTD SVG 1.1//EN"
 "http://www.w3.org/Graphics/SVG/1.1/DTD/svg11.dtd">
<!-- Generated by graphviz version 2.40.1 (20161225.0304)
 -->
<!-- Title: public.album_distribution_service_urls Pages: 1 -->
<svg width="752pt" height="944pt"
 viewBox="0.00 0.00 751.50 944.00" xmlns="http://www.w3.org/2000/svg" xmlns:xlink="http://www.w3.org/1999/xlink">
<g id="graph0" class="graph" transform="scale(1 1) rotate(0) translate(4 940)">
<title>public.album_distribution_service_urls</title>
<polygon fill="#ffffff" stroke="transparent" points="-4,4 -4,-940 747.5,-940 747.5,4 -4,4"/>
<!-- public.album_distribution_service_urls -->
<g id="node1" class="node">
<title>public.album_distribution_service_urls</title>
<polygon fill="#efefef" stroke="transparent" points="46.5,-844 46.5,-890 491.5,-890 491.5,-844 46.5,-844"/>
<polygon fill="none" stroke="#000000" points="46.5,-844 46.5,-890 491.5,-890 491.5,-844 46.5,-844"/>
<text text-anchor="start" x="53.1988" y="-867.8" font-family="Arial Bold" font-size="18.00" fill="#000000">public.album_distribution_service_urls</text>
<text text-anchor="start" x="357.2332" y="-867.8" font-family="Arial" font-size="14.00" fill="#000000">    </text>
<text text-anchor="start" x="391.438" y="-867.8" font-family="Arial" font-size="14.00" fill="#666666">[BASE TABLE]</text>
<text text-anchor="start" x="175.9434" y="-853.4" font-family="Arial" font-size="14.00" fill="#333333">アルバム配信サービスURL</text>
<polygon fill="none" stroke="#000000" points="46.5,-814 46.5,-844 491.5,-844 491.5,-814 46.5,-814"/>
<text text-anchor="start" x="53.5" y="-825.4" font-family="Arial" font-size="14.00" fill="#000000">id </text>
<text text-anchor="start" x="68.2798" y="-825.4" font-family="Arial" font-size="14.00" fill="#666666">[text]</text>
<polygon fill="none" stroke="#000000" points="46.5,-784 46.5,-814 491.5,-814 491.5,-784 46.5,-784"/>
<text text-anchor="start" x="53.5" y="-795.4" font-family="Arial" font-size="14.00" fill="#000000">album_id </text>
<text text-anchor="start" x="114.1774" y="-795.4" font-family="Arial" font-size="14.00" fill="#666666">[text]</text>
<text text-anchor="start" x="144.5224" y="-795.4" font-family="Arial" font-size="14.00" fill="#000000"> アルバムID</text>
<polygon fill="none" stroke="#000000" points="46.5,-754 46.5,-784 491.5,-784 491.5,-754 46.5,-754"/>
<text text-anchor="start" x="53.5" y="-765.4" font-family="Arial" font-size="14.00" fill="#000000">service </text>
<text text-anchor="start" x="101.723" y="-765.4" font-family="Arial" font-size="14.00" fill="#666666">[distribution_service]</text>
<text text-anchor="start" x="229.2938" y="-765.4" font-family="Arial" font-size="14.00" fill="#000000"> 配信サービス</text>
<polygon fill="none" stroke="#000000" points="46.5,-724 46.5,-754 491.5,-754 491.5,-724 46.5,-724"/>
<text text-anchor="start" x="53.5" y="-735.4" font-family="Arial" font-size="14.00" fill="#000000">url </text>
<text text-anchor="start" x="72.9404" y="-735.4" font-family="Arial" font-size="14.00" fill="#666666">[text]</text>
<text text-anchor="start" x="103.2854" y="-735.4" font-family="Arial" font-size="14.00" fill="#000000"> URL</text>
<polygon fill="none" stroke="#000000" points="46.5,-694 46.5,-724 491.5,-724 491.5,-694 46.5,-694"/>
<text text-anchor="start" x="53.5" y="-705.4" font-family="Arial" font-size="14.00" fill="#000000">created_at </text>
<text text-anchor="start" x="123.528" y="-705.4" font-family="Arial" font-size="14.00" fill="#666666">[timestamp with time zone]</text>
<text text-anchor="start" x="289.2124" y="-705.4" font-family="Arial" font-size="14.00" fill="#000000"> 作成日時</text>
<polygon fill="none" stroke="#000000" points="46.5,-664 46.5,-694 491.5,-694 491.5,-664 46.5,-664"/>
<text text-anchor="start" x="53.5" y="-675.4" font-family="Arial" font-size="14.00" fill="#000000">updated_at </text>
<text text-anchor="start" x="127.4326" y="-675.4" font-family="Arial" font-size="14.00" fill="#666666">[timestamp with time zone]</text>
<text text-anchor="start" x="293.117" y="-675.4" font-family="Arial" font-size="14.00" fill="#000000"> 更新日時</text>
<polygon fill="none" stroke="#000000" stroke-width="3" points="44.5,-662.5 44.5,-891.5 492.5,-891.5 492.5,-662.5 44.5,-662.5"/>
</g>
<!-- public.albums -->
<g id="node2" class="node">
<title>public.albums</title>
<polygon fill="#efefef" stroke="transparent" points="97.5,-493 97.5,-539 441.5,-539 441.5,-493 97.5,-493"/>
<polygon fill="none" stroke="#000000" points="97.5,-493 97.5,-539 441.5,-539 441.5,-493 97.5,-493"/>
<text text-anchor="start" x="150.7089" y="-516.8" font-family="Arial Bold" font-size="18.00" fill="#000000">public.albums</text>
<text text-anchor="start" x="260.7231" y="-516.8" font-family="Arial" font-size="14.00" fill="#000000">    </text>
<text text-anchor="start" x="294.9279" y="-516.8" font-family="Arial" font-size="14.00" fill="#666666">[BASE TABLE]</text>
<text text-anchor="start" x="239.6884" y="-502.4" font-family="Arial" font-size="14.00" fill="#333333">アルバム</text>
<polygon fill="none" stroke="#000000" points="97.5,-463 97.5,-493 441.5,-493 441.5,-463 97.5,-463"/>
<text text-anchor="start" x="104.5" y="-474.4" font-family="Arial" font-size="14.00" fill="#000000">id    </text>
<text text-anchor="start" x="149.594" y="-474.4" font-family="Arial" font-size="14.00" fill="#666666">[text]</text>
<polygon fill="none" stroke="#000000" points="97.5,-433 97.5,-463 441.5,-463 441.5,-433 97.5,-433"/>
<text text-anchor="start" x="104.5" y="-444.4" font-family="Arial" font-size="14.00" fill="#000000">name    </text>
<text text-anchor="start" x="173.7132" y="-444.4" font-family="Arial" font-size="14.00" fill="#666666">[text]</text>
<text text-anchor="start" x="204.0582" y="-444.4" font-family="Arial" font-size="14.00" fill="#000000"> 名前</text>
<polygon fill="none" stroke="#000000" points="97.5,-403 97.5,-433 441.5,-433 441.5,-403 97.5,-403"/>
<text text-anchor="start" x="104.5" y="-414.4" font-family="Arial" font-size="14.00" fill="#000000">release_circle_name    </text>
<text text-anchor="start" x="267.8324" y="-414.4" font-family="Arial" font-size="14.00" fill="#666666">[text]</text>
<text text-anchor="start" x="298.1774" y="-414.4" font-family="Arial" font-size="14.00" fill="#000000"> 頒布サークル名</text>
<polygon fill="none" stroke="#000000" points="97.5,-373 97.5,-403 441.5,-403 441.5,-373 97.5,-373"/>
<text text-anchor="start" x="104.5" y="-384.4" font-family="Arial" font-size="14.00" fill="#000000">release_date    </text>
<text text-anchor="start" x="219.6234" y="-384.4" font-family="Arial" font-size="14.00" fill="#666666">[date]</text>
<text text-anchor="start" x="254.643" y="-384.4" font-family="Arial" font-size="14.00" fill="#000000"> 頒布日</text>
<polygon fill="none" stroke="#000000" points="97.5,-343 97.5,-373 441.5,-373 441.5,-343 97.5,-343"/>
<text text-anchor="start" x="104.5" y="-354.4" font-family="Arial" font-size="14.00" fill="#000000">event_id    </text>
<text text-anchor="start" x="191.615" y="-354.4" font-family="Arial" font-size="14.00" fill="#666666">[text]</text>
<text text-anchor="start" x="221.96" y="-354.4" font-family="Arial" font-size="14.00" fill="#000000"> イベントID</text>
<polygon fill="none" stroke="#000000" points="97.5,-313 97.5,-343 441.5,-343 441.5,-313 97.5,-313"/>
<text text-anchor="start" x="104.5" y="-324.4" font-family="Arial" font-size="14.00" fill="#000000">sub_event_id    </text>
<text text-anchor="start" x="221.9628" y="-324.4" font-family="Arial" font-size="14.00" fill="#666666">[text]</text>
<text text-anchor="start" x="252.3078" y="-324.4" font-family="Arial" font-size="14.00" fill="#000000"> サブイベントID</text>
<polygon fill="none" stroke="#000000" points="97.5,-283 97.5,-313 441.5,-313 441.5,-283 97.5,-283"/>
<text text-anchor="start" x="104.5" y="-294.4" font-family="Arial" font-size="14.00" fill="#000000">search_enabled    </text>
<text text-anchor="start" x="238.298" y="-294.4" font-family="Arial" font-size="14.00" fill="#666666">[boolean]</text>
<text text-anchor="start" x="295.8814" y="-294.4" font-family="Arial" font-size="14.00" fill="#000000"> 検索対象とするか</text>
<polygon fill="none" stroke="#000000" points="97.5,-253 97.5,-283 441.5,-283 441.5,-253 97.5,-253"/>
<text text-anchor="start" x="104.5" y="-264.4" font-family="Arial" font-size="14.00" fill="#000000">album_number    </text>
<text text-anchor="start" x="232.054" y="-264.4" font-family="Arial" font-size="14.00" fill="#666666">[text]</text>
<polygon fill="none" stroke="#000000" points="97.5,-223 97.5,-253 441.5,-253 441.5,-223 97.5,-223"/>
<text text-anchor="start" x="104.5" y="-234.4" font-family="Arial" font-size="14.00" fill="#000000">event_price    </text>
<text text-anchor="start" x="211.0582" y="-234.4" font-family="Arial" font-size="14.00" fill="#666666">[numeric]</text>
<text text-anchor="start" x="268.615" y="-234.4" font-family="Arial" font-size="14.00" fill="#000000"> イベント価格</text>
<polygon fill="none" stroke="#000000" points="97.5,-193 97.5,-223 441.5,-223 441.5,-193 97.5,-193"/>
<text text-anchor="start" x="104.5" y="-204.4" font-family="Arial" font-size="14.00" fill="#000000">currency    </text>
<text text-anchor="start" x="192.3738" y="-204.4" font-family="Arial" font-size="14.00" fill="#666666">[text]</text>
<text text-anchor="start" x="222.7188" y="-204.4" font-family="Arial" font-size="14.00" fill="#000000"> 通貨(default: JPY)</text>
<polygon fill="none" stroke="#000000" points="97.5,-163 97.5,-193 441.5,-193 441.5,-163 97.5,-163"/>
<text text-anchor="start" x="104.5" y="-174.4" font-family="Arial" font-size="14.00" fill="#000000">credit    </text>
<text text-anchor="start" x="172.9278" y="-174.4" font-family="Arial" font-size="14.00" fill="#666666">[text]</text>
<text text-anchor="start" x="203.2728" y="-174.4" font-family="Arial" font-size="14.00" fill="#000000"> クレジット</text>
<polygon fill="none" stroke="#000000" points="97.5,-133 97.5,-163 441.5,-163 441.5,-133 97.5,-133"/>
<text text-anchor="start" x="104.5" y="-144.4" font-family="Arial" font-size="14.00" fill="#000000">introduction    </text>
<text text-anchor="start" x="211.0554" y="-144.4" font-family="Arial" font-size="14.00" fill="#666666">[text]</text>
<text text-anchor="start" x="241.4004" y="-144.4" font-family="Arial" font-size="14.00" fill="#000000"> 紹介</text>
<polygon fill="none" stroke="#000000" points="97.5,-103 97.5,-133 441.5,-133 441.5,-103 97.5,-103"/>
<text text-anchor="start" x="104.5" y="-114.4" font-family="Arial" font-size="14.00" fill="#000000">url    </text>
<text text-anchor="start" x="154.2546" y="-114.4" font-family="Arial" font-size="14.00" fill="#666666">[text]</text>
<text text-anchor="start" x="184.5996" y="-114.4" font-family="Arial" font-size="14.00" fill="#000000"> URL</text>
<polygon fill="none" stroke="#000000" points="97.5,-73 97.5,-103 441.5,-103 441.5,-73 97.5,-73"/>
<text text-anchor="start" x="104.1971" y="-84.4" font-family="Arial" font-size="14.00" fill="#000000">created_at    </text>
<text text-anchor="start" x="204.5393" y="-84.4" font-family="Arial" font-size="14.00" fill="#666666">[timestamp with time zone]</text>
<text text-anchor="start" x="370.2237" y="-84.4" font-family="Arial" font-size="14.00" fill="#000000"> 作成日時</text>
<polygon fill="none" stroke="#000000" points="97.5,-43 97.5,-73 441.5,-73 441.5,-43 97.5,-43"/>
<text text-anchor="start" x="104.5" y="-54.4" font-family="Arial" font-size="14.00" fill="#000000">updated_at    </text>
<text text-anchor="start" x="208.7468" y="-54.4" font-family="Arial" font-size="14.00" fill="#666666">[timestamp with time zone]</text>
<text text-anchor="start" x="374.4312" y="-54.4" font-family="Arial" font-size="14.00" fill="#000000"> 更新日時</text>
</g>
<!-- public.album_distribution_service_urls&#45;&gt;public.albums -->
<g id="edge1" class="edge">
<title>public.album_distribution_service_urls:album_id&#45;&gt;public.albums:id</title>
<path fill="none" stroke="#000000" d="M501.7026,-798.2806C569.533,-788.2018 543.2969,-674.7454 491.5,-618 432.2268,-553.0641 156.7732,-646.9359 97.5,-582 66.3384,-547.8613 51.2778,-478 97.5,-478"/>
<polygon fill="#000000" stroke="#000000" points="501.4752,-798.2965 491.1834,-794.5111 496.4876,-798.6483 491.5,-799 491.5,-799 491.5,-799 496.4876,-798.6483 491.8166,-803.4889 501.4752,-798.2965 501.4752,-798.2965"/>
<text text-anchor="start" x="498.0565" y="-809" font-family="Arial" font-size="10.00" fill="#000000">FOREIGN KEY (album_id) REFERENCES albums(id)</text>
</g>
</g>
</svg>
