<?xml version="1.0" encoding="UTF-8" standalone="no"?>
<!DOCTYPE svg PUBLIC "-//W3C//DTD SVG 1.1//EN"
 "http://www.w3.org/Graphics/SVG/1.1/DTD/svg11.dtd">
<!-- Generated by graphviz version 2.40.1 (20161225.0304)
 -->
<!-- Title: public.events Pages: 1 -->
<svg width="1868pt" height="1082pt"
 viewBox="0.00 0.00 1868.00 1082.00" xmlns="http://www.w3.org/2000/svg" xmlns:xlink="http://www.w3.org/1999/xlink">
<g id="graph0" class="graph" transform="scale(1 1) rotate(0) translate(4 1078)">
<title>public.events</title>
<polygon fill="#ffffff" stroke="transparent" points="-4,4 -4,-1078 1864,-1078 1864,4 -4,4"/>
<!-- public.events -->
<g id="node1" class="node">
<title>public.events</title>
<polygon fill="#efefef" stroke="transparent" points="1033,-484 1033,-530 1347,-530 1347,-484 1033,-484"/>
<polygon fill="none" stroke="#000000" points="1033,-484 1033,-530 1347,-530 1347,-484 1033,-484"/>
<text text-anchor="start" x="1088.8581" y="-507.8" font-family="Arial Bold" font-size="18.00" fill="#000000">public.events</text>
<text text-anchor="start" x="1193.8881" y="-507.8" font-family="Arial" font-size="14.00" fill="#000000"> </text>
<text text-anchor="start" x="1197.7787" y="-507.8" font-family="Arial" font-size="14.00" fill="#666666">[BASE TABLE]</text>
<text text-anchor="start" x="1162.9114" y="-493.4" font-family="Arial" font-size="14.00" fill="#333333">イベント</text>
<polygon fill="none" stroke="#000000" points="1033,-454 1033,-484 1347,-484 1347,-454 1033,-454"/>
<text text-anchor="start" x="1040" y="-465.4" font-family="Arial" font-size="14.00" fill="#000000">id </text>
<text text-anchor="start" x="1054.7798" y="-465.4" font-family="Arial" font-size="14.00" fill="#666666">[text]</text>
<polygon fill="none" stroke="#000000" points="1033,-424 1033,-454 1347,-454 1347,-424 1033,-424"/>
<text text-anchor="start" x="1040" y="-435.4" font-family="Arial" font-size="14.00" fill="#000000">event_series_id </text>
<text text-anchor="start" x="1141.9158" y="-435.4" font-family="Arial" font-size="14.00" fill="#666666">[text]</text>
<text text-anchor="start" x="1172.2608" y="-435.4" font-family="Arial" font-size="14.00" fill="#000000"> イベントシリーズID</text>
<polygon fill="none" stroke="#000000" points="1033,-394 1033,-424 1347,-424 1347,-394 1033,-394"/>
<text text-anchor="start" x="1040" y="-405.4" font-family="Arial" font-size="14.00" fill="#000000">name </text>
<text text-anchor="start" x="1078.899" y="-405.4" font-family="Arial" font-size="14.00" fill="#666666">[text]</text>
<text text-anchor="start" x="1109.244" y="-405.4" font-family="Arial" font-size="14.00" fill="#000000"> 名前</text>
<polygon fill="none" stroke="#000000" points="1033,-364 1033,-394 1347,-394 1347,-364 1033,-364"/>
<text text-anchor="start" x="1039.8542" y="-375.4" font-family="Arial" font-size="14.00" fill="#000000">created_at </text>
<text text-anchor="start" x="1109.8822" y="-375.4" font-family="Arial" font-size="14.00" fill="#666666">[timestamp with time zone]</text>
<text text-anchor="start" x="1275.5666" y="-375.4" font-family="Arial" font-size="14.00" fill="#000000"> 作成日時</text>
<polygon fill="none" stroke="#000000" points="1033,-334 1033,-364 1347,-364 1347,-334 1033,-334"/>
<text text-anchor="start" x="1040" y="-345.4" font-family="Arial" font-size="14.00" fill="#000000">updated_at </text>
<text text-anchor="start" x="1113.9326" y="-345.4" font-family="Arial" font-size="14.00" fill="#666666">[timestamp with time zone]</text>
<text text-anchor="start" x="1279.617" y="-345.4" font-family="Arial" font-size="14.00" fill="#000000"> 更新日時</text>
<polygon fill="none" stroke="#000000" stroke-width="3" points="1031.5,-332.5 1031.5,-531.5 1348.5,-531.5 1348.5,-332.5 1031.5,-332.5"/>
</g>
<!-- public.event_series -->
<g id="node4" class="node">
<title>public.event_series</title>
<polygon fill="#efefef" stroke="transparent" points="1033,-163 1033,-209 1347,-209 1347,-163 1033,-163"/>
<polygon fill="none" stroke="#000000" points="1033,-163 1033,-209 1347,-209 1347,-163 1033,-163"/>
<text text-anchor="start" x="1064.3556" y="-186.8" font-family="Arial Bold" font-size="18.00" fill="#000000">public.event_series</text>
<text text-anchor="start" x="1218.3906" y="-186.8" font-family="Arial" font-size="14.00" fill="#000000"> </text>
<text text-anchor="start" x="1222.2812" y="-186.8" font-family="Arial" font-size="14.00" fill="#666666">[BASE TABLE]</text>
<text text-anchor="start" x="1130.6631" y="-172.4" font-family="Arial" font-size="14.00" fill="#333333">イベントシリーズ</text>
<polygon fill="none" stroke="#000000" points="1033,-133 1033,-163 1347,-163 1347,-133 1033,-133"/>
<text text-anchor="start" x="1040" y="-144.4" font-family="Arial" font-size="14.00" fill="#000000">id </text>
<text text-anchor="start" x="1054.7798" y="-144.4" font-family="Arial" font-size="14.00" fill="#666666">[text]</text>
<polygon fill="none" stroke="#000000" points="1033,-103 1033,-133 1347,-133 1347,-103 1033,-103"/>
<text text-anchor="start" x="1040" y="-114.4" font-family="Arial" font-size="14.00" fill="#000000">name </text>
<text text-anchor="start" x="1078.899" y="-114.4" font-family="Arial" font-size="14.00" fill="#666666">[text]</text>
<text text-anchor="start" x="1109.244" y="-114.4" font-family="Arial" font-size="14.00" fill="#000000"> 名前</text>
<polygon fill="none" stroke="#000000" points="1033,-73 1033,-103 1347,-103 1347,-73 1033,-73"/>
<text text-anchor="start" x="1039.8542" y="-84.4" font-family="Arial" font-size="14.00" fill="#000000">created_at </text>
<text text-anchor="start" x="1109.8822" y="-84.4" font-family="Arial" font-size="14.00" fill="#666666">[timestamp with time zone]</text>
<text text-anchor="start" x="1275.5666" y="-84.4" font-family="Arial" font-size="14.00" fill="#000000"> 作成日時</text>
<polygon fill="none" stroke="#000000" points="1033,-43 1033,-73 1347,-73 1347,-43 1033,-43"/>
<text text-anchor="start" x="1040" y="-54.4" font-family="Arial" font-size="14.00" fill="#000000">updated_at </text>
<text text-anchor="start" x="1113.9326" y="-54.4" font-family="Arial" font-size="14.00" fill="#666666">[timestamp with time zone]</text>
<text text-anchor="start" x="1279.617" y="-54.4" font-family="Arial" font-size="14.00" fill="#000000"> 更新日時</text>
</g>
<!-- public.events&#45;&gt;public.event_series -->
<g id="edge3" class="edge">
<title>public.events:event_series_id&#45;&gt;public.event_series:id</title>
<path fill="none" stroke="#000000" d="M1357.3193,-438.3592C1476.2366,-423.3035 1472.7969,-148 1347,-148"/>
<polygon fill="#000000" stroke="#000000" points="1356.9808,-438.3801 1346.721,-434.5087 1351.9904,-438.6901 1347,-439 1347,-439 1347,-439 1351.9904,-438.6901 1347.279,-443.4913 1356.9808,-438.3801 1356.9808,-438.3801"/>
<text text-anchor="start" x="1353.6005" y="-449" font-family="Arial" font-size="10.00" fill="#000000">FOREIGN KEY (event_series_id) REFERENCES event_series(id)</text>
</g>
<!-- public.event_details -->
<g id="node2" class="node">
<title>public.event_details</title>
<polygon fill="#efefef" stroke="transparent" points="43,-985 43,-1031 1399,-1031 1399,-985 43,-985"/>
<polygon fill="none" stroke="#000000" points="43,-985 43,-1031 1399,-1031 1399,-985 43,-985"/>
<text text-anchor="start" x="593.3504" y="-1008.8" font-family="Arial Bold" font-size="18.00" fill="#000000">public.event_details</text>
<text text-anchor="start" x="751.3958" y="-1008.8" font-family="Arial" font-size="14.00" fill="#000000"> </text>
<text text-anchor="start" x="755.2864" y="-1008.8" font-family="Arial" font-size="14.00" fill="#666666">[BASE TABLE]</text>
<text text-anchor="start" x="678.9566" y="-994.4" font-family="Arial" font-size="14.00" fill="#333333">イベント詳細</text>
<polygon fill="none" stroke="#000000" points="43,-955 43,-985 1399,-985 1399,-955 43,-955"/>
<text text-anchor="start" x="50" y="-966.4" font-family="Arial" font-size="14.00" fill="#000000">event_id </text>
<text text-anchor="start" x="106.8008" y="-966.4" font-family="Arial" font-size="14.00" fill="#666666">[text]</text>
<text text-anchor="start" x="137.1458" y="-966.4" font-family="Arial" font-size="14.00" fill="#000000"> イベントID</text>
<polygon fill="none" stroke="#000000" points="43,-925 43,-955 1399,-955 1399,-925 43,-925"/>
<text text-anchor="start" x="50" y="-936.4" font-family="Arial" font-size="14.00" fill="#000000">event_dates </text>
<text text-anchor="start" x="130.15" y="-936.4" font-family="Arial" font-size="14.00" fill="#666666">[daterange]</text>
<text text-anchor="start" x="200.9606" y="-936.4" font-family="Arial" font-size="14.00" fill="#000000"> イベント開催期間</text>
<polygon fill="none" stroke="#000000" points="43,-895 43,-925 1399,-925 1399,-895 43,-895"/>
<text text-anchor="start" x="49.6104" y="-906.4" font-family="Arial" font-size="14.00" fill="#000000">event_status </text>
<text text-anchor="start" x="132.8684" y="-906.4" font-family="Arial" font-size="14.00" fill="#666666">[event_status]</text>
<text text-anchor="start" x="220.017" y="-906.4" font-family="Arial" font-size="14.00" fill="#000000"> ステータス/scheduled: 開催済み, cancelled: 中止, postpone: 延期(開催日未定), rescheduled: 延期(開催日決定), moved_online: オンライン開催に変更, other: その他/default: scheduled</text>
<polygon fill="none" stroke="#000000" points="43,-865 43,-895 1399,-895 1399,-865 43,-865"/>
<text text-anchor="start" x="50" y="-876.4" font-family="Arial" font-size="14.00" fill="#000000">format </text>
<text text-anchor="start" x="93.5582" y="-876.4" font-family="Arial" font-size="14.00" fill="#666666">[event_format]</text>
<text text-anchor="start" x="183.028" y="-876.4" font-family="Arial" font-size="14.00" fill="#000000"> 形式/offline: オフライン開催, online: オフライン開催, mixed: 両方開催/default: offline</text>
<polygon fill="none" stroke="#000000" points="43,-835 43,-865 1399,-865 1399,-835 43,-835"/>
<text text-anchor="start" x="50" y="-846.4" font-family="Arial" font-size="14.00" fill="#000000">region_code </text>
<text text-anchor="start" x="130.9186" y="-846.4" font-family="Arial" font-size="14.00" fill="#666666">[text]</text>
<text text-anchor="start" x="161.2636" y="-846.4" font-family="Arial" font-size="14.00" fill="#000000"> リージョンコード/default: JP</text>
<polygon fill="none" stroke="#000000" points="43,-805 43,-835 1399,-835 1399,-805 43,-805"/>
<text text-anchor="start" x="50" y="-816.4" font-family="Arial" font-size="14.00" fill="#000000">address </text>
<text text-anchor="start" x="103.6816" y="-816.4" font-family="Arial" font-size="14.00" fill="#666666">[text]</text>
<text text-anchor="start" x="134.0266" y="-816.4" font-family="Arial" font-size="14.00" fill="#000000"> 開催場所</text>
<polygon fill="none" stroke="#000000" points="43,-775 43,-805 1399,-805 1399,-775 43,-775"/>
<text text-anchor="start" x="50" y="-786.4" font-family="Arial" font-size="14.00" fill="#000000">description </text>
<text text-anchor="start" x="121.568" y="-786.4" font-family="Arial" font-size="14.00" fill="#666666">[text]</text>
<text text-anchor="start" x="151.913" y="-786.4" font-family="Arial" font-size="14.00" fill="#000000"> 説明</text>
<polygon fill="none" stroke="#000000" points="43,-745 43,-775 1399,-775 1399,-745 43,-745"/>
<text text-anchor="start" x="50" y="-756.4" font-family="Arial" font-size="14.00" fill="#000000">url </text>
<text text-anchor="start" x="69.4404" y="-756.4" font-family="Arial" font-size="14.00" fill="#666666">[text]</text>
<text text-anchor="start" x="99.7854" y="-756.4" font-family="Arial" font-size="14.00" fill="#000000"> URL</text>
<polygon fill="none" stroke="#000000" points="43,-715 43,-745 1399,-745 1399,-715 43,-715"/>
<text text-anchor="start" x="50" y="-726.4" font-family="Arial" font-size="14.00" fill="#000000">twitter_url </text>
<text text-anchor="start" x="114.5512" y="-726.4" font-family="Arial" font-size="14.00" fill="#666666">[text]</text>
<text text-anchor="start" x="144.8962" y="-726.4" font-family="Arial" font-size="14.00" fill="#000000"> Twitter URL</text>
<polygon fill="none" stroke="#000000" points="43,-685 43,-715 1399,-715 1399,-685 43,-685"/>
<text text-anchor="start" x="50" y="-696.4" font-family="Arial" font-size="14.00" fill="#000000">created_at </text>
<text text-anchor="start" x="120.028" y="-696.4" font-family="Arial" font-size="14.00" fill="#666666">[timestamp with time zone]</text>
<text text-anchor="start" x="285.7124" y="-696.4" font-family="Arial" font-size="14.00" fill="#000000"> 作成日時</text>
<polygon fill="none" stroke="#000000" points="43,-655 43,-685 1399,-685 1399,-655 43,-655"/>
<text text-anchor="start" x="50" y="-666.4" font-family="Arial" font-size="14.00" fill="#000000">updated_at </text>
<text text-anchor="start" x="123.9326" y="-666.4" font-family="Arial" font-size="14.00" fill="#666666">[timestamp with time zone]</text>
<text text-anchor="start" x="289.617" y="-666.4" font-family="Arial" font-size="14.00" fill="#000000"> 更新日時</text>
</g>
<!-- public.event_details&#45;&gt;public.events -->
<g id="edge1" class="edge">
<title>public.event_details:event_id&#45;&gt;public.events:id</title>
<path fill="none" stroke="#000000" d="M1409.0887,-968.2384C1476.1532,-943.6162 1450.0299,-668.2955 1399,-612 1344.1124,-551.4487 1087.8876,-636.5513 1033,-576 1001.0614,-540.7657 985.4444,-469 1033,-469"/>
<polygon fill="#000000" stroke="#000000" points="1408.851,-968.2798 1398.2259,-965.5671 1403.9255,-969.1399 1399,-970 1399,-970 1399,-970 1403.9255,-969.1399 1399.7741,-974.4329 1408.851,-968.2798 1408.851,-968.2798"/>
<text text-anchor="start" x="1406.3255" y="-980" font-family="Arial" font-size="10.00" fill="#000000">FOREIGN KEY (event_id) REFERENCES events(id)</text>
</g>
<!-- public.sub_events -->
<g id="node3" class="node">
<title>public.sub_events</title>
<polygon fill="#efefef" stroke="transparent" points="1503,-895 1503,-941 1817,-941 1817,-895 1503,-895"/>
<polygon fill="none" stroke="#000000" points="1503,-895 1503,-941 1817,-941 1817,-895 1503,-895"/>
<text text-anchor="start" x="1539.3488" y="-918.8" font-family="Arial Bold" font-size="18.00" fill="#000000">public.sub_events</text>
<text text-anchor="start" x="1683.3974" y="-918.8" font-family="Arial" font-size="14.00" fill="#000000"> </text>
<text text-anchor="start" x="1687.288" y="-918.8" font-family="Arial" font-size="14.00" fill="#666666">[BASE TABLE]</text>
<text text-anchor="start" x="1619.9516" y="-904.4" font-family="Arial" font-size="14.00" fill="#333333">サブイベント</text>
<polygon fill="none" stroke="#000000" points="1503,-865 1503,-895 1817,-895 1817,-865 1503,-865"/>
<text text-anchor="start" x="1510" y="-876.4" font-family="Arial" font-size="14.00" fill="#000000">id </text>
<text text-anchor="start" x="1524.7798" y="-876.4" font-family="Arial" font-size="14.00" fill="#666666">[text]</text>
<polygon fill="none" stroke="#000000" points="1503,-835 1503,-865 1817,-865 1817,-835 1503,-835"/>
<text text-anchor="start" x="1510" y="-846.4" font-family="Arial" font-size="14.00" fill="#000000">event_id </text>
<text text-anchor="start" x="1566.8008" y="-846.4" font-family="Arial" font-size="14.00" fill="#666666">[text]</text>
<text text-anchor="start" x="1597.1458" y="-846.4" font-family="Arial" font-size="14.00" fill="#000000"> イベントID</text>
<polygon fill="none" stroke="#000000" points="1503,-805 1503,-835 1817,-835 1817,-805 1503,-805"/>
<text text-anchor="start" x="1510" y="-816.4" font-family="Arial" font-size="14.00" fill="#000000">name </text>
<text text-anchor="start" x="1548.899" y="-816.4" font-family="Arial" font-size="14.00" fill="#666666">[text]</text>
<text text-anchor="start" x="1579.244" y="-816.4" font-family="Arial" font-size="14.00" fill="#000000"> 名前(例: 〇〇 2日目)</text>
<polygon fill="none" stroke="#000000" points="1503,-775 1503,-805 1817,-805 1817,-775 1503,-775"/>
<text text-anchor="start" x="1509.8542" y="-786.4" font-family="Arial" font-size="14.00" fill="#000000">created_at </text>
<text text-anchor="start" x="1579.8822" y="-786.4" font-family="Arial" font-size="14.00" fill="#666666">[timestamp with time zone]</text>
<text text-anchor="start" x="1745.5666" y="-786.4" font-family="Arial" font-size="14.00" fill="#000000"> 作成日時</text>
<polygon fill="none" stroke="#000000" points="1503,-745 1503,-775 1817,-775 1817,-745 1503,-745"/>
<text text-anchor="start" x="1510" y="-756.4" font-family="Arial" font-size="14.00" fill="#000000">updated_at </text>
<text text-anchor="start" x="1583.9326" y="-756.4" font-family="Arial" font-size="14.00" fill="#666666">[timestamp with time zone]</text>
<text text-anchor="start" x="1749.617" y="-756.4" font-family="Arial" font-size="14.00" fill="#000000"> 更新日時</text>
</g>
<!-- public.sub_events&#45;&gt;public.events -->
<g id="edge2" class="edge">
<title>public.sub_events:event_id&#45;&gt;public.events:id</title>
<path fill="none" stroke="#000000" d="M1493.2162,-847.6008C1451.8869,-825.564 1471.6989,-658.1086 1451,-612 1418.8156,-540.3064 1425.5863,-469 1347,-469"/>
<polygon fill="#000000" stroke="#000000" points="1493.2878,-847.6183 1501.9282,-854.3705 1498.1439,-848.8091 1503,-850 1503,-850 1503,-850 1498.1439,-848.8091 1504.0718,-845.6295 1493.2878,-847.6183 1493.2878,-847.6183"/>
<text text-anchor="start" x="1510.3255" y="-860" font-family="Arial" font-size="10.00" fill="#000000">FOREIGN KEY (event_id) REFERENCES events(id)</text>
</g>
</g>
</svg>
